%TF.GenerationSoftware,KiCad,Pcbnew,7.0.5*%
%TF.CreationDate,2023-07-03T18:15:34+02:00*%
%TF.ProjectId,motherboard_panel,6d6f7468-6572-4626-9f61-72645f70616e,rev?*%
%TF.SameCoordinates,Original*%
%TF.FileFunction,Drillmap*%
%TF.FilePolarity,Positive*%
%FSLAX45Y45*%
G04 Gerber Fmt 4.5, Leading zero omitted, Abs format (unit mm)*
G04 Created by KiCad (PCBNEW 7.0.5) date 2023-07-03 18:15:34*
%MOMM*%
%LPD*%
G01*
G04 APERTURE LIST*
%ADD10C,0.100000*%
%ADD11C,0.200000*%
%ADD12C,0.030000*%
%ADD13C,0.060000*%
G04 APERTURE END LIST*
D10*
X18239972Y-2536195D02*
X18243146Y-2532516D01*
X19139491Y-10574774D02*
X19139577Y-10573600D01*
X19139958Y-2750739D02*
X19139944Y-2750692D01*
X16152186Y-2748097D02*
X16147445Y-2747033D01*
X15768237Y-10094738D02*
X15766712Y-10099352D01*
X13930467Y-9989945D02*
X13931763Y-9985262D01*
X13533358Y-2500120D02*
X13538204Y-2500477D01*
X10560112Y-2750556D02*
X10560091Y-2750600D01*
X19139684Y-2750281D02*
X19139648Y-2750248D01*
X19122430Y-10621523D02*
X19123108Y-10620561D01*
X19048576Y-2000421D02*
X19041226Y-2000060D01*
X19049774Y-10664491D02*
X19049823Y-10664486D01*
X16161796Y-10164523D02*
X16156974Y-10163928D01*
X17913237Y-2570262D02*
X17914533Y-2574945D01*
X17145000Y-10014012D02*
X17145120Y-10009142D01*
X11830604Y-2514085D02*
X11834832Y-2511690D01*
X11434396Y-10150915D02*
X11430168Y-10153310D01*
X19132793Y-10602136D02*
X19132801Y-10602113D01*
X10590199Y-2028465D02*
X10590181Y-2028482D01*
X12518805Y-9937472D02*
X12522484Y-9940646D01*
X19138255Y-10583319D02*
X19138259Y-10583295D01*
X16124832Y-2738310D02*
X16120604Y-2735915D01*
X17145000Y-2599012D02*
X17145120Y-2594142D01*
X13927977Y-10075704D02*
X13927619Y-10070858D01*
X17164483Y-2540026D02*
X17167472Y-2536195D01*
X19139994Y-2499019D02*
X19140000Y-2498797D01*
X18243146Y-10132484D02*
X18239972Y-10128805D01*
X18221763Y-2570262D02*
X18223287Y-2565648D01*
X10572439Y-10613192D02*
X10576222Y-10619504D01*
X11852762Y-10160737D02*
X11848148Y-10159213D01*
X19139166Y-2750020D02*
X19139117Y-2750013D01*
X12903104Y-2514085D02*
X12907332Y-2511690D01*
X15697555Y-2502967D02*
X15702238Y-2504263D01*
X15715828Y-2740495D02*
X15711385Y-2742464D01*
X19058295Y-10663259D02*
X19058319Y-10663255D01*
X16142762Y-2745737D02*
X16138148Y-2744213D01*
X18316512Y-2500000D02*
X19138773Y-2500000D01*
X16801001Y-2516685D02*
X16804974Y-2519483D01*
X16129172Y-10155495D02*
X16124832Y-10153310D01*
X11416852Y-10159213D02*
X11412238Y-10160737D01*
X17215262Y-9919263D02*
X17219945Y-9917967D01*
X17146903Y-2670314D02*
X17146072Y-2665526D01*
X13993148Y-2505787D02*
X13997762Y-2504263D01*
X12898999Y-10148315D02*
X12895026Y-10145517D01*
X16129172Y-9924505D02*
X16133614Y-9922536D01*
X12895026Y-2519483D02*
X12898999Y-2516685D01*
X16843097Y-10085314D02*
X16842033Y-10090055D01*
X19139338Y-10576016D02*
X19139342Y-10575991D01*
X17869396Y-2735915D02*
X17865168Y-2738310D01*
X15678358Y-9915120D02*
X15683204Y-9915477D01*
X16843928Y-10080526D02*
X16843097Y-10085314D01*
X12547464Y-2561114D02*
X12549212Y-2565648D01*
X12860787Y-2565648D02*
X12862536Y-2561114D01*
X19048576Y-10664579D02*
X19048600Y-10664577D01*
X11425828Y-2509505D02*
X11430168Y-2511690D01*
X13928572Y-2584474D02*
X13929402Y-2579686D01*
X18246497Y-2721003D02*
X18243146Y-2717484D01*
X12554523Y-2660704D02*
X12553928Y-2665526D01*
X19049823Y-10664486D02*
X19050991Y-10664342D01*
X13997762Y-9919263D02*
X14002445Y-9917967D01*
X11446305Y-10142528D02*
X11442474Y-10145517D01*
X16835495Y-9971672D02*
X16837464Y-9976114D01*
X11871796Y-10164523D02*
X11866974Y-10163928D01*
X19139987Y-2499117D02*
X19139992Y-2499068D01*
X12855000Y-10065988D02*
X12855000Y-10014012D01*
X10560646Y-10165072D02*
X10560600Y-10165091D01*
X19110707Y-2029328D02*
X19110672Y-2029293D01*
X12518805Y-2727528D02*
X12514974Y-2730517D01*
X19139444Y-9914888D02*
X19139487Y-9914865D01*
X10613948Y-2011294D02*
X10612896Y-2011823D01*
X13547814Y-9916903D02*
X13552555Y-9917967D01*
X17201672Y-2509505D02*
X17206114Y-2507536D01*
X15755815Y-9958999D02*
X15758415Y-9963104D01*
X10564008Y-2072162D02*
X10562220Y-2079300D01*
X12855477Y-10004296D02*
X12856072Y-9999474D01*
X11453503Y-10136003D02*
X11449984Y-10139354D01*
X17917500Y-2599012D02*
X17917500Y-2650988D01*
X11839172Y-10155495D02*
X11834832Y-10153310D01*
X17917023Y-2660704D02*
X17916428Y-2665526D01*
X10560556Y-10165112D02*
X10560513Y-10165135D01*
X13627023Y-10004296D02*
X13627380Y-10009142D01*
X12555000Y-10065988D02*
X12554880Y-10070858D01*
X13953146Y-9947516D02*
X13956497Y-9943997D01*
X10561203Y-9915000D02*
X10561227Y-9915000D01*
X13930467Y-2675055D02*
X13929402Y-2670314D01*
X17206114Y-2507536D02*
X17210648Y-2505787D01*
X12540915Y-2701896D02*
X12538315Y-2706001D01*
X10571283Y-10611030D02*
X10571294Y-10611052D01*
X10560421Y-2091424D02*
X10560060Y-2098774D01*
X12874483Y-2709974D02*
X12871685Y-2706001D01*
X17149263Y-2679738D02*
X17147967Y-2675055D01*
X16792668Y-10153310D02*
X16788328Y-10155495D01*
X12874483Y-10124974D02*
X12871685Y-10121001D01*
X17915597Y-2670314D02*
X17914533Y-2675055D01*
X17185026Y-9934483D02*
X17188999Y-9931685D01*
X10567631Y-10603234D02*
X10567650Y-10603279D01*
X11388358Y-2500120D02*
X11393204Y-2500477D01*
X16804974Y-2519483D02*
X16808805Y-2522472D01*
X10571294Y-10611052D02*
X10571823Y-10612104D01*
X10560430Y-2750188D02*
X10560390Y-2750217D01*
X15678358Y-10164880D02*
X15673488Y-10165000D01*
X13997762Y-2504263D02*
X14002445Y-2502967D01*
X17828204Y-9915477D02*
X17833026Y-9916072D01*
X10560646Y-2499928D02*
X10560692Y-2499944D01*
X10564719Y-10595184D02*
X10567199Y-10602113D01*
X13949972Y-9951195D02*
X13953146Y-9947516D01*
X19139610Y-10165217D02*
X19139570Y-10165188D01*
X11474964Y-10103886D02*
X11472995Y-10108328D01*
X19140000Y-2498773D02*
X19140000Y-2101227D01*
X19128717Y-2053970D02*
X19128706Y-2053948D01*
X15768237Y-2570262D02*
X15769533Y-2574945D01*
X16825517Y-2540026D02*
X16828315Y-2543999D01*
X18265604Y-2514085D02*
X18269832Y-2511690D01*
X10613970Y-2011283D02*
X10613948Y-2011294D01*
X16161796Y-9915477D02*
X16166642Y-9915120D01*
X11792005Y-2693328D02*
X11790036Y-2688886D01*
X15678358Y-2500120D02*
X15683204Y-2500477D01*
X16094972Y-9951195D02*
X16098146Y-9947516D01*
X17869396Y-10150915D02*
X17865168Y-10153310D01*
X17903415Y-2548104D02*
X17905810Y-2552332D01*
X11866974Y-2748928D02*
X11862186Y-2748097D01*
X12880646Y-10132484D02*
X12877472Y-10128805D01*
X12553097Y-2579686D02*
X12553928Y-2584474D01*
X10622887Y-2007198D02*
X10622864Y-2007207D01*
X16828315Y-9958999D02*
X16830915Y-9963104D01*
X10560072Y-2750646D02*
X10560056Y-2750692D01*
X17173997Y-2528997D02*
X17177516Y-2525646D01*
X15772023Y-2589296D02*
X15772380Y-2594142D01*
X19049823Y-2000514D02*
X19049774Y-2000509D01*
X11398026Y-2501072D02*
X11402814Y-2501903D01*
X10560000Y-2101227D02*
X10560000Y-2498773D01*
X18265604Y-10150915D02*
X18261499Y-10148315D01*
X18306796Y-9915477D02*
X18311642Y-9915120D01*
X13591305Y-2727528D02*
X13587474Y-2730517D01*
X18220467Y-9989945D02*
X18221763Y-9985262D01*
X16166642Y-2749880D02*
X16161796Y-2749523D01*
X19041226Y-2000060D02*
X19041201Y-2000059D01*
X16105016Y-2525646D02*
X16108695Y-2522472D01*
X17188999Y-2733315D02*
X17185026Y-2730517D01*
X10630957Y-2004342D02*
X10629839Y-2004711D01*
X17239142Y-10164880D02*
X17234296Y-10164523D01*
X10564342Y-2070957D02*
X10564328Y-2071004D01*
X19139928Y-9914354D02*
X19139944Y-9914308D01*
X11822526Y-10145517D02*
X11818695Y-10142528D01*
X16839213Y-2684352D02*
X16837464Y-2688886D01*
X10560514Y-10574823D02*
X10560658Y-10575991D01*
X13528488Y-10165000D02*
X12954012Y-10165000D01*
X13939190Y-10112668D02*
X13937005Y-10108328D01*
X13625597Y-10085314D02*
X13624533Y-10090055D01*
X10567207Y-10602136D02*
X10567631Y-10603234D01*
X13613415Y-2701896D02*
X13610815Y-2706001D01*
X12869085Y-9963104D02*
X12871685Y-9958999D01*
X17188999Y-2516685D02*
X17193104Y-2514085D01*
X16792668Y-9926690D02*
X16796896Y-9929085D01*
X19139308Y-2499944D02*
X19139354Y-2499928D01*
X13579396Y-10150915D02*
X13575168Y-10153310D01*
X16124832Y-9926690D02*
X16129172Y-9924505D01*
X12925262Y-2504263D02*
X12929945Y-2502967D01*
X17224686Y-10163097D02*
X17219945Y-10162033D01*
X12929945Y-2502967D02*
X12934686Y-2501903D01*
X19139117Y-2499987D02*
X19139166Y-2499980D01*
X10640521Y-2001946D02*
X10640473Y-2001956D01*
X12545495Y-2693328D02*
X12543310Y-2697668D01*
X19128154Y-2052853D02*
X19127574Y-2051829D01*
X17842555Y-9917967D02*
X17847238Y-9919263D01*
X17159085Y-10116896D02*
X17156690Y-10112668D01*
X10564711Y-2069839D02*
X10564342Y-2070957D01*
X16074402Y-10085314D02*
X16073572Y-10080526D01*
X13931763Y-9985262D02*
X13933287Y-9980648D01*
X16835495Y-10108328D02*
X16833310Y-10112668D01*
X12883997Y-9943997D02*
X12887516Y-9940646D01*
X10560217Y-2499610D02*
X10560248Y-2499648D01*
X12874483Y-2540026D02*
X12877472Y-2536195D01*
X13557238Y-2745737D02*
X13552555Y-2747033D01*
X17229474Y-10163928D02*
X17224686Y-10163097D01*
X13937005Y-2693328D02*
X13935036Y-2688886D01*
X17898017Y-9955026D02*
X17900815Y-9958999D01*
X19094504Y-2016222D02*
X19088192Y-2012439D01*
X12547464Y-2688886D02*
X12545495Y-2693328D01*
X15770597Y-10085314D02*
X15769533Y-10090055D01*
X13528488Y-2500000D02*
X13528488Y-2500000D01*
X10620645Y-10656873D02*
X10621721Y-10657350D01*
X15732474Y-10145517D02*
X15728501Y-10148315D01*
X15764964Y-2561114D02*
X15766712Y-2565648D01*
X17913237Y-2679738D02*
X17911713Y-2684352D01*
X16072977Y-2660704D02*
X16072619Y-2655858D01*
X11407555Y-2502967D02*
X11412238Y-2504263D01*
X19139308Y-9914944D02*
X19139354Y-9914928D01*
X12511001Y-9931685D02*
X12514974Y-9934483D01*
X16082005Y-9971672D02*
X16084190Y-9967332D01*
X18227005Y-2556672D02*
X18229190Y-2552332D01*
X16842033Y-2574945D02*
X16843097Y-2579686D01*
X11843614Y-9922536D02*
X11848148Y-9920787D01*
X12903104Y-9929085D02*
X12907332Y-9926690D01*
X19139577Y-10573600D02*
X19139579Y-10573576D01*
X16072500Y-2650988D02*
X16072500Y-2599012D01*
X10621721Y-10657350D02*
X10621766Y-10657369D01*
X19102454Y-10643032D02*
X19102473Y-10643017D01*
X11478237Y-2679738D02*
X11476712Y-2684352D01*
X12949142Y-10164880D02*
X12944296Y-10164523D01*
X10603457Y-2017584D02*
X10597546Y-2021968D01*
X10560188Y-2750430D02*
X10560161Y-2750470D01*
X11479533Y-2574945D02*
X11480597Y-2579686D01*
X13547814Y-2501903D02*
X13552555Y-2502967D01*
X15771428Y-2665526D02*
X15770597Y-2670314D01*
X11478237Y-10094738D02*
X11476712Y-10099352D01*
X19139491Y-2090226D02*
X19139486Y-2090177D01*
X19104349Y-10641477D02*
X19109801Y-10636535D01*
X16804974Y-2730517D02*
X16801001Y-2733315D01*
X12920648Y-2744213D02*
X12916114Y-2742464D01*
X10560000Y-10166227D02*
X10560000Y-10563773D01*
X10658799Y-2000059D02*
X10658774Y-2000060D01*
X19139610Y-2499783D02*
X19139648Y-2499752D01*
X12455988Y-2500000D02*
X12455988Y-2500000D01*
X19070184Y-2004719D02*
X19070161Y-2004711D01*
X11822526Y-2519483D02*
X11826499Y-2516685D01*
X17837814Y-2501903D02*
X17842555Y-2502967D01*
X12535517Y-10124974D02*
X12532528Y-10128805D01*
X10648984Y-10664338D02*
X10649009Y-10664342D01*
X13946983Y-2709974D02*
X13944185Y-2706001D01*
X10571846Y-10612147D02*
X10572426Y-10613171D01*
X11453503Y-2528997D02*
X11456854Y-2532516D01*
X10568137Y-2060622D02*
X10568127Y-2060644D01*
X10560030Y-2499214D02*
X10560042Y-2499261D01*
X18274172Y-2509505D02*
X18278614Y-2507536D01*
X15724396Y-9929085D02*
X15728501Y-9931685D01*
X12489352Y-2744213D02*
X12484738Y-2745737D01*
X12898999Y-2733315D02*
X12895026Y-2730517D01*
X19139783Y-10165390D02*
X19139752Y-10165352D01*
X17185026Y-2730517D02*
X17181195Y-2727528D01*
X11482023Y-2589296D02*
X11482380Y-2594142D01*
X15736305Y-10142528D02*
X15732474Y-10145517D01*
X16075467Y-2675055D02*
X16074402Y-2670314D01*
X10621766Y-2007631D02*
X10621721Y-2007649D01*
X17898017Y-10124974D02*
X17895028Y-10128805D01*
X11786763Y-2679738D02*
X11785467Y-2675055D01*
X12550737Y-10094738D02*
X12549212Y-10099352D01*
X19139752Y-2499648D02*
X19139783Y-2499610D01*
X13561852Y-10159213D02*
X13557238Y-10160737D01*
X19139577Y-2091399D02*
X19139491Y-2090226D01*
X15771428Y-2584474D02*
X15772023Y-2589296D01*
X12484738Y-2745737D02*
X12480055Y-2747033D01*
X12898999Y-9931685D02*
X12903104Y-9929085D01*
X17201672Y-10155495D02*
X17197332Y-10153310D01*
X19139888Y-10165556D02*
X19139865Y-10165513D01*
X10560883Y-2750013D02*
X10560834Y-2750020D01*
X15711385Y-10157464D02*
X15706852Y-10159213D01*
X10560008Y-2499068D02*
X10560013Y-2499117D01*
X11481428Y-9999474D02*
X11482023Y-10004296D01*
X17150787Y-10099352D02*
X17149263Y-10094738D01*
X16105016Y-2724354D02*
X16101497Y-2721003D01*
X10560423Y-10573600D02*
X10560509Y-10574774D01*
X16074402Y-2579686D02*
X16075467Y-2574945D01*
X10560470Y-2750161D02*
X10560430Y-2750188D01*
X19138797Y-9915000D02*
X19139019Y-9914994D01*
X17219945Y-2747033D02*
X17215262Y-2745737D01*
X13993148Y-2744213D02*
X13988614Y-2742464D01*
X12880646Y-9947516D02*
X12883997Y-9943997D01*
X10561227Y-2750000D02*
X10561203Y-2750000D01*
X17193104Y-9929085D02*
X17197332Y-9926690D01*
X13933287Y-2684352D02*
X13931763Y-2679738D01*
X13615810Y-2697668D02*
X13613415Y-2701896D01*
X12891195Y-9937472D02*
X12895026Y-9934483D01*
X10564711Y-10595161D02*
X10564719Y-10595184D01*
X11799185Y-9958999D02*
X11801983Y-9955026D01*
X18297186Y-10163097D02*
X18292445Y-10162033D01*
X12954012Y-10165000D02*
X12949142Y-10164880D01*
X19059479Y-10663053D02*
X19059527Y-10663044D01*
X19135986Y-2072138D02*
X19135672Y-2071004D01*
X15755815Y-10121001D02*
X15753017Y-10124974D01*
X11876642Y-9915120D02*
X11881512Y-9915000D01*
X17229474Y-9916072D02*
X17234296Y-9915477D01*
X17206114Y-10157464D02*
X17201672Y-10155495D01*
X11383488Y-10165000D02*
X10561227Y-10165000D01*
X15766712Y-9980648D02*
X15768237Y-9985262D01*
X10572426Y-10613171D02*
X10572439Y-10613192D01*
X13557238Y-9919263D02*
X13561852Y-9920787D01*
X15688026Y-2501072D02*
X15692814Y-2501903D01*
X10560786Y-9914970D02*
X10560834Y-9914980D01*
X11393204Y-10164523D02*
X11388358Y-10164880D01*
X15771428Y-9999474D02*
X15772023Y-10004296D01*
X15758415Y-9963104D02*
X15760810Y-9967332D01*
X12547464Y-10103886D02*
X12545495Y-10108328D01*
X17219945Y-2502967D02*
X17224686Y-2501903D01*
X17224686Y-9916903D02*
X17229474Y-9916072D01*
X19139261Y-10165042D02*
X19139214Y-10165030D01*
X11830604Y-2735915D02*
X11826499Y-2733315D01*
X17161685Y-9958999D02*
X17164483Y-9955026D01*
X16171512Y-9915000D02*
X16745988Y-9915000D01*
X16108695Y-10142528D02*
X16105016Y-10139354D01*
X19139909Y-2499400D02*
X19139928Y-2499354D01*
X13988614Y-9922536D02*
X13993148Y-9920787D01*
X11871796Y-2749523D02*
X11866974Y-2748928D01*
X16804974Y-10145517D02*
X16801001Y-10148315D01*
X19069043Y-2004342D02*
X19068996Y-2004328D01*
X18221763Y-10094738D02*
X18220467Y-10090055D01*
X15736305Y-9937472D02*
X15739984Y-9940646D01*
X16750858Y-9915120D02*
X16755704Y-9915477D01*
X19139610Y-9914783D02*
X19139648Y-9914752D01*
X10560513Y-9914865D02*
X10560556Y-9914888D01*
X17167472Y-10128805D02*
X17164483Y-10124974D01*
X12555000Y-2650988D02*
X12554880Y-2655858D01*
X18257526Y-10145517D02*
X18253695Y-10142528D01*
X18217977Y-2660704D02*
X18217620Y-2655858D01*
X16116499Y-9931685D02*
X16120604Y-9929085D01*
X17152536Y-10103886D02*
X17150787Y-10099352D01*
X13621712Y-2565648D02*
X13623237Y-2570262D01*
X18239972Y-2713805D02*
X18236983Y-2709974D01*
X18261499Y-2516685D02*
X18265604Y-2514085D01*
X18250016Y-2724354D02*
X18246497Y-2721003D01*
X10560786Y-2750030D02*
X10560739Y-2750042D01*
X13621712Y-10099352D02*
X13619964Y-10103886D01*
X19139354Y-9914928D02*
X19139400Y-9914909D01*
X19138044Y-10584527D02*
X19138053Y-10584479D01*
X17917380Y-10009142D02*
X17917500Y-10014012D01*
X10649009Y-2000658D02*
X10648984Y-2000662D01*
X19135281Y-10595184D02*
X19135289Y-10595161D01*
X13608017Y-9955026D02*
X13610815Y-9958999D01*
X10571294Y-2053948D02*
X10571283Y-2053970D01*
X12502668Y-2511690D02*
X12506896Y-2514085D01*
X19110672Y-2029293D02*
X19109819Y-2028482D01*
X11474964Y-9976114D02*
X11476712Y-9980648D01*
X10560786Y-10165030D02*
X10560739Y-10165042D01*
X19104330Y-2023507D02*
X19103439Y-2022738D01*
X18225036Y-2688886D02*
X18223287Y-2684352D01*
X10603477Y-10647430D02*
X10604439Y-10648108D01*
X14007186Y-2501903D02*
X14011974Y-2501072D01*
X18287762Y-2504263D02*
X18292445Y-2502967D01*
X19123135Y-10620520D02*
X19123765Y-10619525D01*
X18292445Y-9917967D02*
X18297186Y-9916903D01*
X18223287Y-10099352D02*
X18221763Y-10094738D01*
X10560316Y-9914719D02*
X10560352Y-9914752D01*
X19139570Y-10165188D02*
X19139530Y-10165161D01*
X13971499Y-2516685D02*
X13975604Y-2514085D01*
X14007186Y-2748097D02*
X14002445Y-2747033D01*
X19095561Y-10648108D02*
X19096523Y-10647430D01*
X10560006Y-2750981D02*
X10560000Y-2751203D01*
X18287762Y-2745737D02*
X18283148Y-2744213D01*
X16156974Y-10163928D02*
X16152186Y-10163097D01*
X11463017Y-2540026D02*
X11465815Y-2543999D01*
X16833310Y-2552332D02*
X16835495Y-2556672D01*
X10576865Y-2044480D02*
X10576235Y-2045475D01*
X10583523Y-10629349D02*
X10588465Y-10634801D01*
X13928572Y-9999474D02*
X13929402Y-9994686D01*
X16080036Y-2561114D02*
X16082005Y-2556672D01*
X17170646Y-2717484D02*
X17167472Y-2713805D01*
X19139354Y-2750072D02*
X19139308Y-2750056D01*
X11398026Y-10163928D02*
X11393204Y-10164523D01*
X10567199Y-10602113D02*
X10567207Y-10602136D01*
X17842555Y-2747033D02*
X17837814Y-2748097D01*
X17224686Y-2501903D02*
X17229474Y-2501072D01*
X11453503Y-2721003D02*
X11449984Y-2724354D01*
X17239142Y-9915120D02*
X17244012Y-9915000D01*
X16843928Y-2584474D02*
X16844523Y-2589296D01*
X14016796Y-10164523D02*
X14011974Y-10163928D01*
X11866974Y-2501072D02*
X11871796Y-2500477D01*
X17164483Y-10124974D02*
X17161685Y-10121001D01*
X10658774Y-10664940D02*
X10658799Y-10664941D01*
X16783886Y-9922536D02*
X16788328Y-9924505D01*
X19095520Y-10648135D02*
X19095561Y-10648108D01*
X11383488Y-2750000D02*
X10561227Y-2750000D01*
X17167472Y-2713805D02*
X17164483Y-2709974D01*
X12856072Y-10080526D02*
X12855477Y-10075704D01*
X17149263Y-2570262D02*
X17150787Y-2565648D01*
X19139487Y-10165135D02*
X19139444Y-10165112D01*
X18297186Y-2748097D02*
X18292445Y-2747033D01*
X13608017Y-2540026D02*
X13610815Y-2543999D01*
X12543310Y-2552332D02*
X12545495Y-2556672D01*
X12554523Y-2589296D02*
X12554880Y-2594142D01*
X16091983Y-10124974D02*
X16089185Y-10121001D01*
X10560932Y-2499992D02*
X10560981Y-2499994D01*
X12895026Y-9934483D02*
X12898999Y-9931685D01*
X17891854Y-10132484D02*
X17888503Y-10136003D01*
X10560006Y-2499019D02*
X10560006Y-2499019D01*
X17146072Y-2584474D02*
X17146903Y-2579686D01*
X17161685Y-2543999D02*
X17164483Y-2540026D01*
X15715828Y-9924505D02*
X15720168Y-9926690D01*
X11434396Y-2514085D02*
X11438501Y-2516685D01*
X16073572Y-2584474D02*
X16074402Y-2579686D01*
X17170646Y-9947516D02*
X17173997Y-9943997D01*
X11782977Y-2589296D02*
X11783572Y-2584474D01*
X10576222Y-10619504D02*
X10576235Y-10619525D01*
X16105016Y-10139354D02*
X16101497Y-10136003D01*
X17244012Y-2750000D02*
X17239142Y-2749880D01*
X19139530Y-10165161D02*
X19139487Y-10165135D01*
X16819354Y-2532516D02*
X16822528Y-2536195D01*
X19038773Y-10665000D02*
X19038797Y-10665000D01*
X10650226Y-2000509D02*
X10650177Y-2000514D01*
X10649009Y-10664342D02*
X10650177Y-10664486D01*
X17914533Y-2574945D02*
X17915597Y-2579686D01*
X11430168Y-2738310D02*
X11425828Y-2740495D01*
X16142762Y-9919263D02*
X16147445Y-9917967D01*
X12552033Y-10090055D02*
X12550737Y-10094738D01*
X18292445Y-2747033D02*
X18287762Y-2745737D01*
X17147967Y-9989945D02*
X17149263Y-9985262D01*
X15770597Y-2670314D02*
X15769533Y-2675055D01*
X16783886Y-2742464D02*
X16779352Y-2744213D01*
X11449984Y-2724354D02*
X11446305Y-2727528D01*
X15706852Y-10159213D02*
X15702238Y-10160737D01*
X16171512Y-2500000D02*
X16745988Y-2500000D01*
X13587474Y-9934483D02*
X13591305Y-9937472D01*
X16819354Y-10132484D02*
X16816003Y-10136003D01*
X17881305Y-10142528D02*
X17877474Y-10145517D01*
X10564328Y-10593996D02*
X10564342Y-10594043D01*
X12855477Y-10075704D02*
X12855119Y-10070858D01*
X15746854Y-2717484D02*
X15743503Y-2721003D01*
X10560091Y-2499400D02*
X10560112Y-2499444D01*
X19096543Y-10647416D02*
X19102454Y-10643032D01*
X19139570Y-9914812D02*
X19139610Y-9914783D01*
X12493885Y-10157464D02*
X12489352Y-10159213D01*
X16760526Y-2748928D02*
X16755704Y-2749523D01*
X15715828Y-2509505D02*
X15720168Y-2511690D01*
X16755704Y-10164523D02*
X16750858Y-10164880D01*
X11822526Y-9934483D02*
X11826499Y-9931685D01*
X13928572Y-10080526D02*
X13927977Y-10075704D01*
X10560248Y-2750352D02*
X10560217Y-2750390D01*
X15772023Y-10075704D02*
X15771428Y-10080526D01*
X19079378Y-10656863D02*
X19086030Y-10653717D01*
X11826499Y-10148315D02*
X11822526Y-10145517D01*
X10650177Y-10664486D02*
X10650226Y-10664491D01*
X11421385Y-2507536D02*
X11425828Y-2509505D01*
X18217620Y-2594142D02*
X18217977Y-2589296D01*
X14026512Y-10165000D02*
X14021642Y-10164880D01*
X11482500Y-2650988D02*
X11482380Y-2655858D01*
X12859263Y-9985262D02*
X12860787Y-9980648D01*
X16745988Y-2500000D02*
X16745988Y-2500000D01*
X19139994Y-2750981D02*
X19139992Y-2750932D01*
X16086585Y-2701896D02*
X16084190Y-2697668D01*
X11442474Y-2730517D02*
X11438501Y-2733315D01*
X10560430Y-2499812D02*
X10560470Y-2499839D01*
X19135289Y-2069839D02*
X19135281Y-2069816D01*
X13613415Y-2548104D02*
X13615810Y-2552332D01*
X12549212Y-9980648D02*
X12550737Y-9985262D01*
X17847238Y-10160737D02*
X17842555Y-10162033D01*
X19118032Y-10627454D02*
X19122416Y-10621543D01*
X19116493Y-10629330D02*
X19117262Y-10628439D01*
X10560646Y-2750072D02*
X10560600Y-2750091D01*
X16844880Y-10009142D02*
X16845000Y-10014012D01*
X16112526Y-10145517D02*
X16108695Y-10142528D01*
X10589293Y-2029328D02*
X10588482Y-2030181D01*
X16828315Y-10121001D02*
X16825517Y-10124974D01*
X13627500Y-10014012D02*
X13627500Y-10065988D01*
X11815016Y-10139354D02*
X11811497Y-10136003D01*
X19086052Y-2011294D02*
X19086030Y-2011283D01*
X12877472Y-9951195D02*
X12880646Y-9947516D01*
X11852762Y-9919263D02*
X11857445Y-9917967D01*
X12489352Y-2505787D02*
X12493885Y-2507536D01*
X11782619Y-10070858D02*
X11782500Y-10065988D01*
X19139987Y-2750883D02*
X19139980Y-2750834D01*
X11796585Y-2548104D02*
X11799185Y-2543999D01*
X13975604Y-2514085D02*
X13979832Y-2511690D01*
X10561745Y-10583319D02*
X10561947Y-10584479D01*
X12883997Y-2721003D02*
X12880646Y-2717484D01*
X16779352Y-9920787D02*
X16783886Y-9922536D01*
X11811497Y-10136003D02*
X11808146Y-10132484D01*
X10560000Y-10166203D02*
X10560000Y-10166227D01*
X11796585Y-9963104D02*
X11799185Y-9958999D01*
X16171512Y-2750000D02*
X16166642Y-2749880D01*
X16089185Y-2706001D02*
X16086585Y-2701896D01*
X13583501Y-10148315D02*
X13579396Y-10150915D01*
X19139486Y-2090177D02*
X19139342Y-2089009D01*
X16783886Y-2507536D02*
X16788328Y-2509505D01*
X10581968Y-2037546D02*
X10577584Y-2043457D01*
X16845000Y-10014012D02*
X16845000Y-10065988D01*
X19139117Y-2750013D02*
X19139068Y-2750008D01*
X16833310Y-2697668D02*
X16830915Y-2701896D01*
X12855000Y-2599012D02*
X12855119Y-2594142D01*
X10560013Y-9914117D02*
X10560020Y-9914166D01*
X16808805Y-9937472D02*
X16812484Y-9940646D01*
X18283148Y-9920787D02*
X18287762Y-9919263D01*
X10560470Y-10165161D02*
X10560430Y-10165188D01*
X12489352Y-9920787D02*
X12493885Y-9922536D01*
X17877474Y-10145517D02*
X17873501Y-10148315D01*
X10560091Y-10165600D02*
X10560072Y-10165646D01*
X16094972Y-10128805D02*
X16091983Y-10124974D01*
X13971499Y-2733315D02*
X13967526Y-2730517D01*
X16161796Y-2749523D02*
X16156974Y-2748928D01*
X10560059Y-10566201D02*
X10560060Y-10566226D01*
X17234296Y-2500477D02*
X17239142Y-2500120D01*
X12891195Y-2522472D02*
X12895026Y-2519483D01*
X19139719Y-10165316D02*
X19139684Y-10165281D01*
X19139783Y-2499610D02*
X19139812Y-2499570D01*
X16828315Y-2706001D02*
X16825517Y-2709974D01*
X10560006Y-9914019D02*
X10560008Y-9914068D01*
X18217500Y-2599012D02*
X18217620Y-2594142D01*
X16745988Y-2750000D02*
X16171512Y-2750000D01*
X19041226Y-10664940D02*
X19048576Y-10664579D01*
X12529354Y-2532516D02*
X12532528Y-2536195D01*
X18301974Y-2501072D02*
X18306796Y-2500477D01*
X19139487Y-2750135D02*
X19139444Y-2750112D01*
X17145477Y-10004296D02*
X17146072Y-9999474D01*
X11430168Y-10153310D02*
X11425828Y-10155495D01*
X11430168Y-2511690D02*
X11434396Y-2514085D01*
X10611829Y-2012426D02*
X10611808Y-2012439D01*
X13617995Y-9971672D02*
X13619964Y-9976114D01*
X11790036Y-2688886D02*
X11788287Y-2684352D01*
X19088171Y-2012426D02*
X19087147Y-2011846D01*
X16098146Y-2717484D02*
X16094972Y-2713805D01*
X16760526Y-2501072D02*
X16765314Y-2501903D01*
X13997762Y-10160737D02*
X13993148Y-10159213D01*
X17881305Y-2522472D02*
X17884984Y-2525646D01*
X10560030Y-9914214D02*
X10560042Y-9914261D01*
X10560692Y-9914944D02*
X10560739Y-9914958D01*
X19139970Y-2750786D02*
X19139958Y-2750739D01*
X17150787Y-9980648D02*
X17152536Y-9976114D01*
X18243146Y-9947516D02*
X18246497Y-9943997D01*
X12887516Y-2724354D02*
X12883997Y-2721003D01*
X15766712Y-10099352D02*
X15764964Y-10103886D01*
X16138148Y-2744213D02*
X16133614Y-2742464D01*
X15683204Y-10164523D02*
X15678358Y-10164880D01*
X19128717Y-10611030D02*
X19131863Y-10604378D01*
X19070184Y-10660281D02*
X19077113Y-10657801D01*
X14011974Y-10163928D02*
X14007186Y-10163097D01*
X12855119Y-2655858D02*
X12855000Y-2650988D01*
X17147967Y-2574945D02*
X17149263Y-2570262D01*
X13939190Y-9967332D02*
X13941585Y-9963104D01*
X11412238Y-10160737D02*
X11407555Y-10162033D01*
X13570828Y-2740495D02*
X13566385Y-2742464D01*
X17869396Y-2514085D02*
X17873501Y-2516685D01*
X17873501Y-2733315D02*
X17869396Y-2735915D01*
X16108695Y-2522472D02*
X16112526Y-2519483D01*
X19139019Y-2499994D02*
X19139068Y-2499992D01*
X10605475Y-2016235D02*
X10604480Y-2016865D01*
X16833310Y-10112668D02*
X16830915Y-10116896D01*
X19088192Y-2012439D02*
X19088171Y-2012426D01*
X12871685Y-2543999D02*
X12874483Y-2540026D01*
X19079378Y-2008137D02*
X19079355Y-2008126D01*
X16808805Y-2522472D02*
X16812484Y-2525646D01*
X19127574Y-2051829D02*
X19127561Y-2051808D01*
X17903415Y-2701896D02*
X17900815Y-2706001D01*
X16770055Y-10162033D02*
X16765314Y-10163097D01*
X12859263Y-2679738D02*
X12857967Y-2675055D01*
X19139944Y-9914308D02*
X19139958Y-9914261D01*
X14026512Y-2750000D02*
X14021642Y-2749880D01*
X10560834Y-2499980D02*
X10560883Y-2499987D01*
X16076763Y-10094738D02*
X16075467Y-10090055D01*
X16825517Y-10124974D02*
X16822528Y-10128805D01*
X11785467Y-2675055D02*
X11784402Y-2670314D01*
X10564328Y-2071004D02*
X10564014Y-2072138D01*
X13627500Y-10065988D02*
X13627380Y-10070858D01*
X19123108Y-2044439D02*
X19122430Y-2043477D01*
X13608017Y-10124974D02*
X13605028Y-10128805D01*
X13591305Y-9937472D02*
X13594984Y-9940646D01*
X10583523Y-2035651D02*
X10583507Y-2035670D01*
X11468415Y-9963104D02*
X11470810Y-9967332D01*
X18311642Y-2749880D02*
X18306796Y-2749523D01*
X13598503Y-2721003D02*
X13594984Y-2724354D01*
X16094972Y-2536195D02*
X16098146Y-2532516D01*
X11434396Y-2735915D02*
X11430168Y-2738310D01*
X19132793Y-2062864D02*
X19132369Y-2061766D01*
X16774738Y-2504263D02*
X16779352Y-2505787D01*
X13627500Y-2599012D02*
X13627500Y-2650988D01*
X19135281Y-2069816D02*
X19132801Y-2062887D01*
X12874483Y-9955026D02*
X12877472Y-9951195D01*
X11815016Y-2724354D02*
X11811497Y-2721003D01*
X16166642Y-2500120D02*
X16171512Y-2500000D01*
X12540915Y-9963104D02*
X12543310Y-9967332D01*
X12545495Y-9971672D02*
X12547464Y-9976114D01*
X17909964Y-10103886D02*
X17907995Y-10108328D01*
X16078287Y-2684352D02*
X16076763Y-2679738D01*
X12944296Y-2749523D02*
X12939474Y-2748928D01*
X15772023Y-2660704D02*
X15771428Y-2665526D01*
X12944296Y-2500477D02*
X12949142Y-2500120D01*
X19079355Y-2008126D02*
X19078279Y-2007649D01*
X11393204Y-2749523D02*
X11388358Y-2749880D01*
X15739984Y-2724354D02*
X15736305Y-2727528D01*
X11839172Y-2740495D02*
X11834832Y-2738310D01*
X11476712Y-2565648D02*
X11478237Y-2570262D01*
X17234296Y-10164523D02*
X17229474Y-10163928D01*
X17907995Y-9971672D02*
X17909964Y-9976114D01*
X12954012Y-2500000D02*
X13528488Y-2500000D01*
X11782977Y-10004296D02*
X11783572Y-9999474D01*
X13625597Y-2670314D02*
X13624533Y-2675055D01*
X16138148Y-2505787D02*
X16142762Y-2504263D01*
X15762995Y-2693328D02*
X15760810Y-2697668D01*
X11786763Y-2570262D02*
X11788287Y-2565648D01*
X12944296Y-9915477D02*
X12949142Y-9915120D01*
X13566385Y-2742464D02*
X13561852Y-2744213D01*
X11482500Y-10014012D02*
X11482500Y-10065988D01*
X15764964Y-9976114D02*
X15766712Y-9980648D01*
X12857967Y-2574945D02*
X12859263Y-2570262D01*
X13929402Y-2670314D02*
X13928572Y-2665526D01*
X13979832Y-2511690D02*
X13984172Y-2509505D01*
X16116499Y-10148315D02*
X16112526Y-10145517D01*
X19139117Y-10165013D02*
X19139068Y-10165008D01*
X10560883Y-2499987D02*
X10560932Y-2499992D01*
X10576222Y-2045496D02*
X10572439Y-2051808D01*
X13601854Y-2532516D02*
X13605028Y-2536195D01*
X13557238Y-10160737D02*
X13552555Y-10162033D01*
X12916114Y-10157464D02*
X12911672Y-10155495D01*
X13979832Y-9926690D02*
X13984172Y-9924505D01*
X15706852Y-2505787D02*
X15711385Y-2507536D01*
X11808146Y-2717484D02*
X11804972Y-2713805D01*
X17177516Y-9940646D02*
X17181195Y-9937472D01*
X19139068Y-2750008D02*
X19139019Y-2750006D01*
X12532528Y-9951195D02*
X12535517Y-9955026D01*
X11871796Y-9915477D02*
X11876642Y-9915120D01*
X13587474Y-2519483D02*
X13591305Y-2522472D01*
X13927619Y-2655858D02*
X13927500Y-2650988D01*
X13547814Y-10163097D02*
X13543026Y-10163928D01*
X11474964Y-2561114D02*
X11476712Y-2565648D01*
X11442474Y-10145517D02*
X11438501Y-10148315D01*
X11482380Y-10070858D02*
X11482023Y-10075704D01*
X18218572Y-10080526D02*
X18217977Y-10075704D01*
X11848148Y-2744213D02*
X11843614Y-2742464D01*
X12891195Y-10142528D02*
X12887516Y-10139354D01*
X16760526Y-9916072D02*
X16765314Y-9916903D01*
X13975604Y-2735915D02*
X13971499Y-2733315D01*
X16837464Y-2561114D02*
X16839213Y-2565648D01*
X12939474Y-2501072D02*
X12944296Y-2500477D01*
X11472995Y-9971672D02*
X11474964Y-9976114D01*
X11446305Y-2727528D02*
X11442474Y-2730517D01*
X13566385Y-2507536D02*
X13570828Y-2509505D01*
X10612853Y-2011846D02*
X10611829Y-2012426D01*
X10630957Y-10660658D02*
X10631004Y-10660672D01*
X19060699Y-10662780D02*
X19067838Y-10660992D01*
X17900815Y-9958999D02*
X17903415Y-9963104D01*
X19139941Y-10566201D02*
X19140000Y-10563797D01*
X16105016Y-9940646D02*
X16108695Y-9937472D01*
X19077136Y-10657793D02*
X19078234Y-10657369D01*
X19132350Y-2061721D02*
X19131873Y-2060644D01*
X17911713Y-2565648D02*
X17913237Y-2570262D01*
X18221763Y-2679738D02*
X18220467Y-2675055D01*
X10560658Y-10575991D02*
X10560662Y-10576016D01*
X13566385Y-10157464D02*
X13561852Y-10159213D01*
X17888503Y-10136003D02*
X17884984Y-10139354D01*
X19135289Y-10595161D02*
X19135658Y-10594043D01*
X13953146Y-2717484D02*
X13949972Y-2713805D01*
X17909964Y-9976114D02*
X17911713Y-9980648D01*
X11790036Y-2561114D02*
X11792005Y-2556672D01*
X10560013Y-2499117D02*
X10560020Y-2499166D01*
X18239972Y-10128805D02*
X18236983Y-10124974D01*
X17911713Y-2684352D02*
X17909964Y-2688886D01*
X11383488Y-9915000D02*
X11388358Y-9915120D01*
X17895028Y-9951195D02*
X17898017Y-9955026D01*
X15758415Y-10116896D02*
X15755815Y-10121001D01*
X12455988Y-9915000D02*
X12455988Y-9915000D01*
X10560834Y-9914980D02*
X10560883Y-9914987D01*
X15743503Y-2528997D02*
X15746854Y-2532516D01*
X10560352Y-10165248D02*
X10560316Y-10165281D01*
X12522484Y-9940646D02*
X12526003Y-9943997D01*
X19139570Y-2499812D02*
X19139610Y-2499783D01*
X13941585Y-9963104D02*
X13944185Y-9958999D01*
X10571846Y-2052853D02*
X10571823Y-2052896D01*
X13552555Y-2747033D02*
X13547814Y-2748097D01*
X10597527Y-10643017D02*
X10597546Y-10643032D01*
X11383488Y-2500000D02*
X11388358Y-2500120D01*
X17150787Y-2684352D02*
X17149263Y-2679738D01*
X12857967Y-10090055D02*
X12856902Y-10085314D01*
X19139487Y-2499865D02*
X19139530Y-2499839D01*
X13594984Y-2525646D02*
X13598503Y-2528997D01*
X11388358Y-9915120D02*
X11393204Y-9915477D01*
X12880646Y-2717484D02*
X12877472Y-2713805D01*
X15702238Y-2504263D02*
X15706852Y-2505787D01*
X11785467Y-9989945D02*
X11786763Y-9985262D01*
X19132350Y-10603279D02*
X19132369Y-10603234D01*
X12887516Y-2525646D02*
X12891195Y-2522472D01*
X13547814Y-2748097D02*
X13543026Y-2748928D01*
X19132369Y-2061766D02*
X19132350Y-2061721D01*
X10560390Y-2750217D02*
X10560352Y-2750248D01*
X16835495Y-2556672D02*
X16837464Y-2561114D01*
X12862536Y-9976114D02*
X12864505Y-9971672D01*
X17903415Y-10116896D02*
X17900815Y-10121001D01*
X17159085Y-2701896D02*
X17156690Y-2697668D01*
X18311642Y-10164880D02*
X18306796Y-10164523D01*
X17146903Y-9994686D02*
X17147967Y-9989945D01*
X10564719Y-2069816D02*
X10564711Y-2069839D01*
X15746854Y-9947516D02*
X15750028Y-9951195D01*
X17907995Y-10108328D02*
X17905810Y-10112668D01*
X16084190Y-2552332D02*
X16086585Y-2548104D01*
X14021642Y-2749880D02*
X14016796Y-2749523D01*
X11822526Y-2730517D02*
X11818695Y-2727528D01*
X19139400Y-2750091D02*
X19139354Y-2750072D01*
X11783572Y-2665526D02*
X11782977Y-2660704D01*
X19110707Y-10635672D02*
X19111518Y-10634819D01*
X10560008Y-9914068D02*
X10560013Y-9914117D01*
X17818488Y-2500000D02*
X17818488Y-2500000D01*
X10589293Y-10635672D02*
X10589328Y-10635707D01*
X10561956Y-2080473D02*
X10561947Y-2080521D01*
X10639324Y-10662786D02*
X10640473Y-10663044D01*
X11434396Y-9929085D02*
X11438501Y-9931685D01*
X13624533Y-2574945D02*
X13625597Y-2579686D01*
X13933287Y-9980648D02*
X13935036Y-9976114D01*
X19116493Y-2035670D02*
X19116477Y-2035651D01*
X19139888Y-9914444D02*
X19139909Y-9914400D01*
X11479533Y-9989945D02*
X11480597Y-9994686D01*
X15688026Y-9916072D02*
X15692814Y-9916903D01*
X11468415Y-2701896D02*
X11465815Y-2706001D01*
X19127574Y-10613171D02*
X19128154Y-10612147D01*
X19102454Y-2021968D02*
X19096543Y-2017584D01*
X16835495Y-2693328D02*
X16833310Y-2697668D01*
X18297186Y-9916903D02*
X18301974Y-9916072D01*
X11788287Y-10099352D02*
X11786763Y-10094738D01*
X19139214Y-2499970D02*
X19139261Y-2499958D01*
X12526003Y-2528997D02*
X12529354Y-2532516D01*
X17193104Y-2514085D02*
X17197332Y-2511690D01*
X18225036Y-10103886D02*
X18223287Y-10099352D01*
X17828204Y-2749523D02*
X17823358Y-2749880D01*
X15692814Y-2501903D02*
X15697555Y-2502967D01*
X19139888Y-2499444D02*
X19139909Y-2499400D01*
X19138773Y-2500000D02*
X19138797Y-2500000D01*
X12856902Y-9994686D02*
X12857967Y-9989945D01*
X11783572Y-10080526D02*
X11782977Y-10075704D01*
X19131863Y-2060622D02*
X19128717Y-2053970D01*
X13623237Y-2679738D02*
X13621712Y-2684352D01*
X12553928Y-2584474D02*
X12554523Y-2589296D01*
X19058319Y-10663255D02*
X19059479Y-10663053D01*
X12511001Y-2516685D02*
X12514974Y-2519483D01*
X10560834Y-2750020D02*
X10560786Y-2750030D01*
X15769533Y-2574945D02*
X15770597Y-2579686D01*
X17146072Y-10080526D02*
X17145477Y-10075704D01*
X19128154Y-10612147D02*
X19128177Y-10612104D01*
X19139530Y-2499839D02*
X19139570Y-2499812D01*
X12939474Y-2748928D02*
X12934686Y-2748097D01*
X17823358Y-2500120D02*
X17828204Y-2500477D01*
X11834832Y-2738310D02*
X11830604Y-2735915D01*
X11481428Y-10080526D02*
X11480597Y-10085314D01*
X15770597Y-2579686D02*
X15771428Y-2584474D01*
X12883997Y-10136003D02*
X12880646Y-10132484D01*
X19078234Y-10657369D02*
X19078279Y-10657350D01*
X10640521Y-10663053D02*
X10641681Y-10663255D01*
X12550737Y-9985262D02*
X12552033Y-9989945D01*
X11786763Y-10094738D02*
X11785467Y-10090055D01*
X12480055Y-10162033D02*
X12475314Y-10163097D01*
X10595651Y-10641477D02*
X10595670Y-10641493D01*
X16788328Y-2509505D02*
X16792668Y-2511690D01*
X19132801Y-2062887D02*
X19132793Y-2062864D01*
X10576235Y-2045475D02*
X10576222Y-2045496D01*
X11421385Y-2742464D02*
X11416852Y-2744213D01*
X15760810Y-2697668D02*
X15758415Y-2701896D01*
X10603457Y-10647416D02*
X10603477Y-10647430D01*
X13533358Y-2749880D02*
X13528488Y-2750000D01*
X10612853Y-10653154D02*
X10612896Y-10653177D01*
X13561852Y-2505787D02*
X13566385Y-2507536D01*
X11412238Y-9919263D02*
X11416852Y-9920787D01*
X16801001Y-10148315D02*
X16796896Y-10150915D01*
X10560470Y-9914839D02*
X10560513Y-9914865D01*
X16072977Y-2589296D02*
X16073572Y-2584474D01*
X13927619Y-2594142D02*
X13927977Y-2589296D01*
X11782500Y-10065988D02*
X11782500Y-10014012D01*
X11848148Y-9920787D02*
X11852762Y-9919263D01*
X17185026Y-10145517D02*
X17181195Y-10142528D01*
X17181195Y-10142528D02*
X17177516Y-10139354D01*
X12470526Y-2501072D02*
X12475314Y-2501903D01*
X11866974Y-10163928D02*
X11862186Y-10163097D01*
X10568127Y-10604355D02*
X10568137Y-10604378D01*
X13949972Y-2713805D02*
X13946983Y-2709974D01*
X11476712Y-10099352D02*
X11474964Y-10103886D01*
X19139941Y-2098799D02*
X19139940Y-2098774D01*
X10611829Y-10652574D02*
X10612853Y-10653154D01*
X16129172Y-2509505D02*
X16133614Y-2507536D01*
X18234185Y-10121001D02*
X18231585Y-10116896D01*
X19139214Y-10165030D02*
X19139166Y-10165020D01*
X10581983Y-2037527D02*
X10581968Y-2037546D01*
X12506896Y-10150915D02*
X12502668Y-10153310D01*
X17145000Y-10065988D02*
X17145000Y-10014012D01*
X10658799Y-10664941D02*
X10661203Y-10665000D01*
X16844880Y-2655858D02*
X16844523Y-2660704D01*
X19139994Y-10165981D02*
X19139992Y-10165932D01*
X11480597Y-2670314D02*
X11479533Y-2675055D01*
X17177516Y-2724354D02*
X17173997Y-2721003D01*
X12514974Y-9934483D02*
X12518805Y-9937472D01*
X11456854Y-2717484D02*
X11453503Y-2721003D01*
X18218572Y-9999474D02*
X18219403Y-9994686D01*
X12543310Y-10112668D02*
X12540915Y-10116896D01*
X17833026Y-2501072D02*
X17837814Y-2501903D01*
X19123765Y-2045475D02*
X19123135Y-2044480D01*
X12470526Y-9916072D02*
X12475314Y-9916903D01*
X10560000Y-10563773D02*
X10560000Y-10563797D01*
X18220467Y-10090055D02*
X18219403Y-10085314D01*
X17917500Y-10014012D02*
X17917500Y-10065988D01*
X12859263Y-10094738D02*
X12857967Y-10090055D01*
X16812484Y-2525646D02*
X16816003Y-2528997D01*
X19139980Y-2750834D02*
X19139970Y-2750786D01*
X19070161Y-10660289D02*
X19070184Y-10660281D01*
X10560248Y-9914648D02*
X10560281Y-9914684D01*
X18246497Y-10136003D02*
X18243146Y-10132484D01*
X13937005Y-2556672D02*
X13939190Y-2552332D01*
X13949972Y-2536195D02*
X13953146Y-2532516D01*
X19140000Y-10166227D02*
X19140000Y-10166203D01*
X10604439Y-2016892D02*
X10603477Y-2017570D01*
X12903104Y-10150915D02*
X12898999Y-10148315D01*
X12532528Y-2713805D02*
X12529354Y-2717484D01*
X18246497Y-2528997D02*
X18250016Y-2525646D01*
X11442474Y-2519483D02*
X11446305Y-2522472D01*
X11482500Y-10065988D02*
X11482380Y-10070858D01*
X16837464Y-9976114D02*
X16839213Y-9980648D01*
X17900815Y-2543999D02*
X17903415Y-2548104D01*
X19104349Y-2023523D02*
X19104330Y-2023507D01*
X19094525Y-2016235D02*
X19094504Y-2016222D01*
X16076763Y-9985262D02*
X16078287Y-9980648D01*
X12554880Y-2594142D02*
X12555000Y-2599012D01*
X17860828Y-10155495D02*
X17856386Y-10157464D01*
X19041201Y-2000059D02*
X19038797Y-2000000D01*
X15697555Y-2747033D02*
X15692814Y-2748097D01*
X19102473Y-2021983D02*
X19102454Y-2021968D01*
X10577570Y-10621523D02*
X10577584Y-10621543D01*
X11801983Y-9955026D02*
X11804972Y-9951195D01*
X10629839Y-10660289D02*
X10630957Y-10660658D01*
X11862186Y-9916903D02*
X11866974Y-9916072D01*
X19139783Y-9914610D02*
X19139812Y-9914570D01*
X18221763Y-9985262D02*
X18223287Y-9980648D01*
X17903415Y-9963104D02*
X17905810Y-9967332D01*
X13566385Y-9922536D02*
X13570828Y-9924505D01*
X12954012Y-9915000D02*
X13528488Y-9915000D01*
X19109819Y-2028482D02*
X19109801Y-2028465D01*
X19103439Y-10642262D02*
X19104330Y-10641493D01*
X19139839Y-9914530D02*
X19139865Y-9914487D01*
X11788287Y-9980648D02*
X11790036Y-9976114D01*
X18246497Y-9943997D02*
X18250016Y-9940646D01*
X12883997Y-2528997D02*
X12887516Y-2525646D01*
X13583501Y-9931685D02*
X13587474Y-9934483D01*
X17152536Y-2561114D02*
X17154505Y-2556672D01*
X10560042Y-9914261D02*
X10560056Y-9914308D01*
X10561203Y-10165000D02*
X10560981Y-10165006D01*
X10560042Y-10165739D02*
X10560030Y-10165786D01*
X12543310Y-9967332D02*
X12545495Y-9971672D01*
X11826499Y-2516685D02*
X11830604Y-2514085D01*
X11465815Y-9958999D02*
X11468415Y-9963104D01*
X10560056Y-2750692D02*
X10560042Y-2750739D01*
X12862536Y-2561114D02*
X12864505Y-2556672D01*
X11398026Y-9916072D02*
X11402814Y-9916903D01*
X11412238Y-2745737D02*
X11407555Y-2747033D01*
X12929945Y-2747033D02*
X12925262Y-2745737D01*
X17891854Y-9947516D02*
X17895028Y-9951195D01*
X19139992Y-10165932D02*
X19139987Y-10165883D01*
X10560060Y-2098774D02*
X10560059Y-2098799D01*
X17837814Y-9916903D02*
X17842555Y-9917967D01*
X10629839Y-2004711D02*
X10629816Y-2004719D01*
X10560091Y-2750600D02*
X10560072Y-2750646D01*
X17851852Y-10159213D02*
X17847238Y-10160737D01*
X11785467Y-2574945D02*
X11786763Y-2570262D01*
X17145120Y-10070858D02*
X17145000Y-10065988D01*
X10622864Y-2007207D02*
X10621766Y-2007631D01*
X10564342Y-10594043D02*
X10564711Y-10595161D01*
X17197332Y-2738310D02*
X17193104Y-2735915D01*
X18243146Y-2717484D02*
X18239972Y-2713805D01*
X13937005Y-10108328D02*
X13935036Y-10103886D01*
X11476712Y-2684352D02*
X11474964Y-2688886D01*
X10564008Y-10592838D02*
X10564014Y-10592862D01*
X11470810Y-2552332D02*
X11472995Y-2556672D01*
X12866690Y-9967332D02*
X12869085Y-9963104D01*
X18229190Y-2552332D02*
X18231585Y-2548104D01*
X10561947Y-10584479D02*
X10561956Y-10584527D01*
X19138259Y-2081705D02*
X19138255Y-2081681D01*
X10560556Y-2750112D02*
X10560513Y-2750135D01*
X10597546Y-10643032D02*
X10603457Y-10647416D01*
X12538315Y-9958999D02*
X12540915Y-9963104D01*
X11407555Y-9917967D02*
X11412238Y-9919263D01*
X19118017Y-10627473D02*
X19118032Y-10627454D01*
X11818695Y-2727528D02*
X11815016Y-2724354D01*
X18292445Y-10162033D02*
X18287762Y-10160737D01*
X13956497Y-2721003D02*
X13953146Y-2717484D01*
X14011974Y-9916072D02*
X14016796Y-9915477D01*
X19138053Y-10584479D02*
X19138255Y-10583319D01*
X19058295Y-2001741D02*
X19051016Y-2000662D01*
X10560112Y-9914444D02*
X10560135Y-9914487D01*
X19139068Y-9914992D02*
X19139117Y-9914987D01*
X13583501Y-2733315D02*
X13579396Y-2735915D01*
X10605475Y-10648765D02*
X10605496Y-10648778D01*
X16822528Y-9951195D02*
X16825517Y-9955026D01*
X13960016Y-10139354D02*
X13956497Y-10136003D01*
X17909964Y-2561114D02*
X17911713Y-2565648D01*
X15766712Y-2565648D02*
X15768237Y-2570262D01*
X12554880Y-10009142D02*
X12555000Y-10014012D01*
X10560281Y-9914684D02*
X10560316Y-9914719D01*
X16843097Y-9994686D02*
X16843928Y-9999474D01*
X12907332Y-2511690D02*
X12911672Y-2509505D01*
X10571823Y-2052896D02*
X10571294Y-2053948D01*
X12460858Y-9915120D02*
X12465704Y-9915477D01*
X16138148Y-10159213D02*
X16133614Y-10157464D01*
X10611808Y-2012439D02*
X10605496Y-2016222D01*
X12929945Y-10162033D02*
X12925262Y-10160737D01*
X15762995Y-9971672D02*
X15764964Y-9976114D01*
X19122416Y-2043457D02*
X19118032Y-2037546D01*
X18218572Y-2665526D02*
X18217977Y-2660704D01*
X12554523Y-10004296D02*
X12554880Y-10009142D01*
X16816003Y-10136003D02*
X16812484Y-10139354D01*
X19123765Y-10619525D02*
X19123778Y-10619504D01*
X12506896Y-9929085D02*
X12511001Y-9931685D01*
X16073572Y-10080526D02*
X16072977Y-10075704D01*
X11416852Y-9920787D02*
X11421385Y-9922536D01*
X10567207Y-2062864D02*
X10567199Y-2062887D01*
X19138044Y-2080473D02*
X19137786Y-2079324D01*
X18223287Y-9980648D02*
X18225036Y-9976114D01*
X12511001Y-2733315D02*
X12506896Y-2735915D01*
X16844880Y-2594142D02*
X16845000Y-2599012D01*
X19139909Y-10165600D02*
X19139888Y-10165556D01*
X12535517Y-9955026D02*
X12538315Y-9958999D01*
X16830915Y-9963104D02*
X16833310Y-9967332D01*
X13613415Y-10116896D02*
X13610815Y-10121001D01*
X10560059Y-2098799D02*
X10560000Y-2101203D01*
X19038773Y-2000000D02*
X10661227Y-2000000D01*
X10560981Y-2750006D02*
X10560932Y-2750008D01*
X19122416Y-10621543D02*
X19122430Y-10621523D01*
X11830604Y-10150915D02*
X11826499Y-10148315D01*
X15760810Y-9967332D02*
X15762995Y-9971672D01*
X10605496Y-2016222D02*
X10605475Y-2016235D01*
X15772380Y-10070858D02*
X15772023Y-10075704D01*
X12949142Y-9915120D02*
X12954012Y-9915000D01*
X19122430Y-2043477D02*
X19122416Y-2043457D01*
X13944185Y-9958999D02*
X13946983Y-9955026D01*
X17913237Y-10094738D02*
X17911713Y-10099352D01*
X19139684Y-10165281D02*
X19139648Y-10165248D01*
X16788328Y-10155495D02*
X16783886Y-10157464D01*
X17818488Y-2500000D02*
X17823358Y-2500120D01*
X12547464Y-9976114D02*
X12549212Y-9980648D01*
X12475314Y-2501903D02*
X12480055Y-2502967D01*
X19139019Y-2750006D02*
X19138797Y-2750000D01*
X11438501Y-2733315D02*
X11434396Y-2735915D01*
X16822528Y-10128805D02*
X16819354Y-10132484D01*
X10560006Y-2499019D02*
X10560008Y-2499068D01*
X16074402Y-9994686D02*
X16075467Y-9989945D01*
X14002445Y-2747033D02*
X13997762Y-2745737D01*
X18257526Y-9934483D02*
X18261499Y-9931685D01*
X16147445Y-9917967D02*
X16152186Y-9916903D01*
X12895026Y-2730517D02*
X12891195Y-2727528D01*
X17837814Y-2748097D02*
X17833026Y-2748928D01*
X19041201Y-10664941D02*
X19041226Y-10664940D01*
X11472995Y-10108328D02*
X11470810Y-10112668D01*
X12554880Y-10070858D02*
X12554523Y-10075704D01*
X17215262Y-10160737D02*
X17210648Y-10159213D01*
X19138797Y-2750000D02*
X19138773Y-2750000D01*
X19138053Y-2080521D02*
X19138044Y-2080473D01*
X17916428Y-2665526D02*
X17915597Y-2670314D01*
X13944185Y-2706001D02*
X13941585Y-2701896D01*
X11472995Y-2693328D02*
X11470810Y-2697668D01*
X16770055Y-2502967D02*
X16774738Y-2504263D01*
X13543026Y-9916072D02*
X13547814Y-9916903D01*
X16842033Y-10090055D02*
X16840737Y-10094738D01*
X12954012Y-2750000D02*
X12949142Y-2749880D01*
X10561203Y-2750000D02*
X10560981Y-2750006D01*
X10560281Y-2499684D02*
X10560316Y-2499719D01*
X11465815Y-2543999D02*
X11468415Y-2548104D01*
X11449984Y-10139354D02*
X11446305Y-10142528D01*
X13993148Y-9920787D02*
X13997762Y-9919263D01*
X16801001Y-2733315D02*
X16796896Y-2735915D01*
X11811497Y-9943997D02*
X11815016Y-9940646D01*
X19139944Y-10165692D02*
X19139928Y-10165646D01*
X17915597Y-10085314D02*
X17914533Y-10090055D01*
X19139752Y-10165352D02*
X19139719Y-10165316D01*
X11834832Y-9926690D02*
X11839172Y-9924505D01*
X17244012Y-2500000D02*
X17818488Y-2500000D01*
X10620622Y-2008137D02*
X10613970Y-2011283D01*
X10560739Y-2499958D02*
X10560786Y-2499970D01*
X11818695Y-9937472D02*
X11822526Y-9934483D01*
X11881512Y-2500000D02*
X12455988Y-2500000D01*
X17177516Y-2525646D02*
X17181195Y-2522472D01*
X18220467Y-2675055D02*
X18219403Y-2670314D01*
X13988614Y-10157464D02*
X13984172Y-10155495D01*
X12907332Y-9926690D02*
X12911672Y-9924505D01*
X12869085Y-10116896D02*
X12866690Y-10112668D01*
X17865168Y-10153310D02*
X17860828Y-10155495D01*
X17881305Y-9937472D02*
X17884984Y-9940646D01*
X13533358Y-10164880D02*
X13528488Y-10165000D01*
X16156974Y-2748928D02*
X16152186Y-2748097D01*
X11482023Y-10075704D02*
X11481428Y-10080526D01*
X10560217Y-9914610D02*
X10560248Y-9914648D01*
X10560056Y-9914308D02*
X10560072Y-9914354D01*
X13579396Y-9929085D02*
X13583501Y-9931685D01*
X10560662Y-10576016D02*
X10561741Y-10583295D01*
X17150787Y-2565648D02*
X17152536Y-2561114D01*
X16812484Y-9940646D02*
X16816003Y-9943997D01*
X11788287Y-2684352D02*
X11786763Y-2679738D01*
X12949142Y-2749880D02*
X12944296Y-2749523D01*
X16774738Y-2745737D02*
X16770055Y-2747033D01*
X17898017Y-2709974D02*
X17895028Y-2713805D01*
X19140000Y-10563797D02*
X19140000Y-10563773D01*
X17917500Y-2650988D02*
X17917380Y-2655858D01*
X13610815Y-2543999D02*
X13613415Y-2548104D01*
X13927977Y-2660704D02*
X13927619Y-2655858D01*
X15766712Y-2684352D02*
X15764964Y-2688886D01*
X19139958Y-10165739D02*
X19139944Y-10165692D01*
X11794190Y-9967332D02*
X11796585Y-9963104D01*
X19059527Y-10663044D02*
X19060676Y-10662786D01*
X18217500Y-2650988D02*
X18217500Y-2599012D01*
X12859263Y-2570262D02*
X12860787Y-2565648D01*
X19139940Y-10566226D02*
X19139941Y-10566201D01*
X13615810Y-9967332D02*
X13617995Y-9971672D01*
X18231585Y-2701896D02*
X18229190Y-2697668D01*
X12553097Y-2670314D02*
X12552033Y-2675055D01*
X12465704Y-10164523D02*
X12460858Y-10164880D01*
X10560786Y-2499970D02*
X10560834Y-2499980D01*
X12866690Y-2697668D02*
X12864505Y-2693328D01*
X11412238Y-2504263D02*
X11416852Y-2505787D01*
X15769533Y-2675055D02*
X15768237Y-2679738D01*
X12898999Y-2516685D02*
X12903104Y-2514085D01*
X17837814Y-10163097D02*
X17833026Y-10163928D01*
X17181195Y-2522472D02*
X17185026Y-2519483D01*
X19139338Y-2088984D02*
X19138259Y-2081705D01*
X11843614Y-2742464D02*
X11839172Y-2740495D01*
X19139579Y-2091424D02*
X19139577Y-2091399D01*
X10560600Y-2499909D02*
X10560646Y-2499928D01*
X12543310Y-2697668D02*
X12540915Y-2701896D01*
X11794190Y-2697668D02*
X11792005Y-2693328D01*
X13967526Y-10145517D02*
X13963695Y-10142528D01*
X12934686Y-10163097D02*
X12929945Y-10162033D01*
X15750028Y-2536195D02*
X15753017Y-2540026D01*
X19060699Y-2002220D02*
X19060676Y-2002214D01*
X15702238Y-2745737D02*
X15697555Y-2747033D01*
X12514974Y-10145517D02*
X12511001Y-10148315D01*
X17159085Y-9963104D02*
X17161685Y-9958999D01*
X16120604Y-9929085D02*
X16124832Y-9926690D01*
X11482380Y-2594142D02*
X11482500Y-2599012D01*
X15711385Y-2507536D02*
X15715828Y-2509505D01*
X12856072Y-2584474D02*
X12856902Y-2579686D01*
X15673488Y-10165000D02*
X14026512Y-10165000D01*
X17239142Y-2749880D02*
X17234296Y-2749523D01*
X18236983Y-2540026D02*
X18239972Y-2536195D01*
X10629816Y-10660281D02*
X10629839Y-10660289D01*
X17156690Y-2552332D02*
X17159085Y-2548104D01*
X13619964Y-9976114D02*
X13621712Y-9980648D01*
X16828315Y-2543999D02*
X16830915Y-2548104D01*
X10560509Y-2090226D02*
X10560423Y-2091399D01*
X13543026Y-10163928D02*
X13538204Y-10164523D01*
X16816003Y-9943997D02*
X16819354Y-9947516D01*
X11416852Y-2505787D02*
X11421385Y-2507536D01*
X12862536Y-2688886D02*
X12860787Y-2684352D01*
X19139166Y-2499980D02*
X19139214Y-2499970D01*
X13944185Y-2543999D02*
X13946983Y-2540026D01*
X12949142Y-2500120D02*
X12954012Y-2500000D01*
X11804972Y-2713805D02*
X11801983Y-2709974D01*
X11470810Y-2697668D02*
X11468415Y-2701896D01*
X11421385Y-10157464D02*
X11416852Y-10159213D01*
X16120604Y-10150915D02*
X16116499Y-10148315D01*
X10560188Y-9914570D02*
X10560217Y-9914610D01*
X15724396Y-2514085D02*
X15728501Y-2516685D01*
X19139980Y-2499166D02*
X19139987Y-2499117D01*
X10560000Y-2751227D02*
X10560000Y-9913773D01*
X16843928Y-9999474D02*
X16844523Y-10004296D01*
X10640473Y-2001956D02*
X10639324Y-2002214D01*
X17161685Y-2706001D02*
X17159085Y-2701896D01*
X16845000Y-10065988D02*
X16844880Y-10070858D01*
X10582707Y-10628401D02*
X10582738Y-10628439D01*
X12511001Y-10148315D02*
X12506896Y-10150915D01*
X12855477Y-2660704D02*
X12855119Y-2655858D01*
X11442474Y-9934483D02*
X11446305Y-9937472D01*
X13575168Y-10153310D02*
X13570828Y-10155495D01*
X16750858Y-2749880D02*
X16745988Y-2750000D01*
X12877472Y-2536195D02*
X12880646Y-2532516D01*
X10560390Y-2499783D02*
X10560430Y-2499812D01*
X13939190Y-2552332D02*
X13941585Y-2548104D01*
X10568127Y-2060644D02*
X10567650Y-2061721D01*
X13533358Y-9915120D02*
X13538204Y-9915477D01*
X10560739Y-10165042D02*
X10560692Y-10165056D01*
X19127561Y-2051808D02*
X19123778Y-2045496D01*
X17234296Y-2749523D02*
X17229474Y-2748928D01*
X10562214Y-10585676D02*
X10562220Y-10585699D01*
X11482380Y-2655858D02*
X11482023Y-2660704D01*
X18287762Y-9919263D02*
X18292445Y-9917967D01*
X16819354Y-9947516D02*
X16822528Y-9951195D01*
X12864505Y-2693328D02*
X12862536Y-2688886D01*
X12529354Y-10132484D02*
X12526003Y-10136003D01*
X11463017Y-9955026D02*
X11465815Y-9958999D01*
X17828204Y-2500477D02*
X17833026Y-2501072D01*
X11482500Y-2599012D02*
X11482500Y-2650988D01*
X10582707Y-2036599D02*
X10581983Y-2037527D01*
X12475314Y-10163097D02*
X12470526Y-10163928D01*
X13984172Y-9924505D02*
X13988614Y-9922536D01*
X19139994Y-9914019D02*
X19140000Y-9913797D01*
X15732474Y-2730517D02*
X15728501Y-2733315D01*
X11815016Y-9940646D02*
X11818695Y-9937472D01*
X19139342Y-10575991D02*
X19139486Y-10574823D01*
X19118017Y-2037527D02*
X19117293Y-2036599D01*
X19117262Y-2036561D02*
X19116493Y-2035670D01*
X10622887Y-10657801D02*
X10629816Y-10660281D01*
X11857445Y-10162033D02*
X11852762Y-10160737D01*
X15760810Y-2552332D02*
X15762995Y-2556672D01*
X10560000Y-2498797D02*
X10560006Y-2499019D01*
X13931763Y-2570262D02*
X13933287Y-2565648D01*
X16142762Y-10160737D02*
X16138148Y-10159213D01*
X13570828Y-9924505D02*
X13575168Y-9926690D01*
X19138255Y-2081681D02*
X19138053Y-2080521D01*
X13960016Y-9940646D02*
X13963695Y-9937472D01*
X13937005Y-9971672D02*
X13939190Y-9967332D01*
X10658774Y-2000060D02*
X10651424Y-2000421D01*
X16816003Y-2528997D02*
X16819354Y-2532516D01*
X13538204Y-9915477D02*
X13543026Y-9916072D01*
X16152186Y-10163097D02*
X16147445Y-10162033D01*
X12553928Y-9999474D02*
X12554523Y-10004296D01*
X19038797Y-10665000D02*
X19041201Y-10664941D01*
X12552033Y-2675055D02*
X12550737Y-2679738D01*
X10560352Y-2750248D02*
X10560316Y-2750281D01*
X12934686Y-9916903D02*
X12939474Y-9916072D01*
X19110672Y-10635707D02*
X19110707Y-10635672D01*
X19139839Y-2499530D02*
X19139865Y-2499487D01*
X11818695Y-10142528D02*
X11815016Y-10139354D01*
X13621712Y-2684352D02*
X13619964Y-2688886D01*
X10595670Y-2023507D02*
X10595651Y-2023523D01*
X12549212Y-2684352D02*
X12547464Y-2688886D01*
X12911672Y-2740495D02*
X12907332Y-2738310D01*
X13594984Y-9940646D02*
X13598503Y-9943997D01*
X19139261Y-9914958D02*
X19139308Y-9914944D01*
X14016796Y-2500477D02*
X14021642Y-2500120D01*
X12493885Y-2742464D02*
X12489352Y-2744213D01*
X10641681Y-2001745D02*
X10640521Y-2001946D01*
X18316512Y-9915000D02*
X19138773Y-9915000D01*
X19139812Y-10165430D02*
X19139783Y-10165390D01*
X13627023Y-2589296D02*
X13627380Y-2594142D01*
X12522484Y-2525646D02*
X12526003Y-2528997D01*
X12540915Y-2548104D02*
X12543310Y-2552332D01*
X10604480Y-2016865D02*
X10604439Y-2016892D01*
X18229190Y-10112668D02*
X18227005Y-10108328D01*
X10560042Y-2750739D02*
X10560030Y-2750786D01*
X16819354Y-2717484D02*
X16816003Y-2721003D01*
X10560662Y-2088984D02*
X10560658Y-2089009D01*
X10581968Y-10627454D02*
X10581983Y-10627473D01*
X12925262Y-10160737D02*
X12920648Y-10159213D01*
X18269832Y-2511690D02*
X18274172Y-2509505D01*
X16774738Y-9919263D02*
X16779352Y-9920787D01*
X19139958Y-9914261D02*
X19139970Y-9914214D01*
X19139444Y-10165112D02*
X19139400Y-10165091D01*
X17905810Y-2697668D02*
X17903415Y-2701896D01*
X12518805Y-2522472D02*
X12522484Y-2525646D01*
X10661227Y-2000000D02*
X10661203Y-2000000D01*
X16094972Y-2713805D02*
X16091983Y-2709974D01*
X11811497Y-2721003D02*
X11808146Y-2717484D01*
X17856386Y-2507536D02*
X17860828Y-2509505D01*
X16804974Y-9934483D02*
X16808805Y-9937472D01*
X11811497Y-2528997D02*
X11815016Y-2525646D01*
X19140000Y-10563773D02*
X19140000Y-10166227D01*
X12911672Y-10155495D02*
X12907332Y-10153310D01*
X15736305Y-2727528D02*
X15732474Y-2730517D01*
X15760810Y-10112668D02*
X15758415Y-10116896D01*
X11801983Y-10124974D02*
X11799185Y-10121001D01*
X13931763Y-10094738D02*
X13930467Y-10090055D01*
X15755815Y-2543999D02*
X15758415Y-2548104D01*
X16080036Y-2688886D02*
X16078287Y-2684352D01*
X10622864Y-10657793D02*
X10622887Y-10657801D01*
X10564014Y-2072138D02*
X10564008Y-2072162D01*
X11786763Y-9985262D02*
X11788287Y-9980648D01*
X10564014Y-10592862D02*
X10564328Y-10593996D01*
X18301974Y-2748928D02*
X18297186Y-2748097D01*
X17913237Y-9985262D02*
X17914533Y-9989945D01*
X15702238Y-9919263D02*
X15706852Y-9920787D01*
X13935036Y-10103886D02*
X13933287Y-10099352D01*
X13933287Y-2565648D02*
X13935036Y-2561114D01*
X14021642Y-9915120D02*
X14026512Y-9915000D01*
X14021642Y-2500120D02*
X14026512Y-2500000D01*
X19111535Y-10634801D02*
X19116477Y-10629349D01*
X17895028Y-10128805D02*
X17891854Y-10132484D01*
X17847238Y-9919263D02*
X17851852Y-9920787D01*
X13946983Y-9955026D02*
X13949972Y-9951195D01*
X11799185Y-10121001D02*
X11796585Y-10116896D01*
X15692814Y-2748097D02*
X15688026Y-2748928D01*
X10639301Y-10662780D02*
X10639324Y-10662786D01*
X16837464Y-2688886D02*
X16835495Y-2693328D01*
X10632138Y-10660986D02*
X10632162Y-10660992D01*
X17895028Y-2713805D02*
X17891854Y-2717484D01*
X18278614Y-2742464D02*
X18274172Y-2740495D01*
X13946983Y-10124974D02*
X13944185Y-10121001D01*
X18261499Y-2733315D02*
X18257526Y-2730517D01*
X16073572Y-9999474D02*
X16074402Y-9994686D01*
X14026512Y-9915000D02*
X15673488Y-9915000D01*
X11799185Y-2706001D02*
X11796585Y-2701896D01*
X12475314Y-9916903D02*
X12480055Y-9917967D01*
X14026512Y-2500000D02*
X15673488Y-2500000D01*
X13623237Y-9985262D02*
X13624533Y-9989945D01*
X19139019Y-10165006D02*
X19138797Y-10165000D01*
X12903104Y-2735915D02*
X12898999Y-2733315D01*
X11848148Y-2505787D02*
X11852762Y-2504263D01*
X13587474Y-2730517D02*
X13583501Y-2733315D01*
X18301974Y-9916072D02*
X18306796Y-9915477D01*
X19139839Y-10165470D02*
X19139812Y-10165430D01*
X13984172Y-2509505D02*
X13988614Y-2507536D01*
X19139214Y-9914970D02*
X19139261Y-9914958D01*
X17193104Y-10150915D02*
X17188999Y-10148315D01*
X19139444Y-2750112D02*
X19139400Y-2750091D01*
X16770055Y-9917967D02*
X16774738Y-9919263D01*
X10561745Y-2081681D02*
X10561741Y-2081705D01*
X18243146Y-2532516D02*
X18246497Y-2528997D01*
X19078279Y-2007649D02*
X19078234Y-2007631D01*
X19139987Y-10165883D02*
X19139980Y-10165834D01*
X16147445Y-2502967D02*
X16152186Y-2501903D01*
X17170646Y-10132484D02*
X17167472Y-10128805D01*
X12864505Y-10108328D02*
X12862536Y-10103886D01*
X19139308Y-2750056D02*
X19139261Y-2750042D01*
X11481428Y-2584474D02*
X11482023Y-2589296D01*
X11438501Y-2516685D02*
X11442474Y-2519483D01*
X15697555Y-9917967D02*
X15702238Y-9919263D01*
X13617995Y-2693328D02*
X13615810Y-2697668D01*
X10651424Y-10664579D02*
X10658774Y-10664940D01*
X11463017Y-2709974D02*
X11460028Y-2713805D01*
X17877474Y-2730517D02*
X17873501Y-2733315D01*
X10560161Y-10165470D02*
X10560135Y-10165513D01*
X13927977Y-2589296D02*
X13928572Y-2584474D01*
X11862186Y-10163097D02*
X11857445Y-10162033D01*
X18227005Y-2693328D02*
X18225036Y-2688886D01*
X15762995Y-10108328D02*
X15760810Y-10112668D01*
X17197332Y-2511690D02*
X17201672Y-2509505D01*
X17905810Y-10112668D02*
X17903415Y-10116896D01*
X19069043Y-10660658D02*
X19070161Y-10660289D01*
X12538315Y-2706001D02*
X12535517Y-2709974D01*
X19138773Y-9915000D02*
X19138797Y-9915000D01*
X17842555Y-10162033D02*
X17837814Y-10163097D01*
X19117293Y-2036599D02*
X19117262Y-2036561D01*
X17847238Y-2504263D02*
X17851852Y-2505787D01*
X10651424Y-2000421D02*
X10651400Y-2000423D01*
X12480055Y-2747033D02*
X12475314Y-2748097D01*
X12855000Y-10014012D02*
X12855119Y-10009142D01*
X13929402Y-9994686D02*
X13930467Y-9989945D01*
X19138797Y-2500000D02*
X19139019Y-2499994D01*
X14011974Y-2501072D02*
X14016796Y-2500477D01*
X11393204Y-2500477D02*
X11398026Y-2501072D01*
X10560513Y-2499865D02*
X10560556Y-2499888D01*
X17891854Y-2532516D02*
X17895028Y-2536195D01*
X16792668Y-2511690D02*
X16796896Y-2514085D01*
X13605028Y-10128805D02*
X13601854Y-10132484D01*
X10560316Y-10165281D02*
X10560281Y-10165316D01*
X16844523Y-10004296D02*
X16844880Y-10009142D01*
X18261499Y-10148315D02*
X18257526Y-10145517D01*
X19139684Y-9914719D02*
X19139719Y-9914684D01*
X12484738Y-10160737D02*
X12480055Y-10162033D01*
X17833026Y-9916072D02*
X17837814Y-9916903D01*
X17888503Y-9943997D02*
X17891854Y-9947516D01*
X18283148Y-10159213D02*
X18278614Y-10157464D01*
X18278614Y-9922536D02*
X18283148Y-9920787D01*
X13930467Y-10090055D02*
X13929402Y-10085314D01*
X19139068Y-10165008D02*
X19139019Y-10165006D01*
X17201672Y-9924505D02*
X17206114Y-9922536D01*
X19139342Y-2089009D02*
X19139338Y-2088984D01*
X19067838Y-2004008D02*
X19060699Y-2002220D01*
X12532528Y-2536195D02*
X12535517Y-2540026D01*
X10576892Y-2044439D02*
X10576865Y-2044480D01*
X13601854Y-10132484D02*
X13598503Y-10136003D01*
X19139812Y-2499570D02*
X19139839Y-2499530D01*
X17851852Y-2505787D02*
X17856386Y-2507536D01*
X18231585Y-9963104D02*
X18234185Y-9958999D01*
X16765314Y-2748097D02*
X16760526Y-2748928D01*
X10560513Y-2750135D02*
X10560470Y-2750161D01*
X16843097Y-2670314D02*
X16842033Y-2675055D01*
X11834832Y-10153310D02*
X11830604Y-10150915D01*
X10560932Y-9914992D02*
X10560981Y-9914994D01*
X16101497Y-10136003D02*
X16098146Y-10132484D01*
X16133614Y-9922536D02*
X16138148Y-9920787D01*
X10639324Y-2002214D02*
X10639301Y-2002220D01*
X19139719Y-2499684D02*
X19139752Y-2499648D01*
X10560739Y-2750042D02*
X10560692Y-2750056D01*
X10621721Y-2007649D02*
X10620645Y-2008126D01*
X16112526Y-2519483D02*
X16116499Y-2516685D01*
X19087147Y-2011846D02*
X19087104Y-2011823D01*
X11446305Y-9937472D02*
X11449984Y-9940646D01*
X13552555Y-9917967D02*
X13557238Y-9919263D01*
X17219945Y-9917967D02*
X17224686Y-9916903D01*
X12498328Y-2740495D02*
X12493885Y-2742464D01*
X13528488Y-9915000D02*
X13533358Y-9915120D01*
X16082005Y-2693328D02*
X16080036Y-2688886D01*
X12869085Y-2701896D02*
X12866690Y-2697668D01*
X14011974Y-2748928D02*
X14007186Y-2748097D01*
X18236983Y-10124974D02*
X18234185Y-10121001D01*
X19109801Y-2028465D02*
X19104349Y-2023523D01*
X19139019Y-9914994D02*
X19139068Y-9914992D01*
X16783886Y-10157464D02*
X16779352Y-10159213D01*
X11784402Y-2670314D02*
X11783572Y-2665526D01*
X10560513Y-10165135D02*
X10560470Y-10165161D01*
X18269832Y-2738310D02*
X18265604Y-2735915D01*
X13627500Y-2650988D02*
X13627380Y-2655858D01*
X13543026Y-2501072D02*
X13547814Y-2501903D01*
X19139865Y-2499487D02*
X19139888Y-2499444D01*
X17917023Y-10075704D02*
X17916428Y-10080526D01*
X11796585Y-2701896D02*
X11794190Y-2697668D01*
X10560188Y-2499570D02*
X10560217Y-2499610D01*
X15764964Y-2688886D02*
X15762995Y-2693328D01*
X14016796Y-2749523D02*
X14011974Y-2748928D01*
X19135658Y-10594043D02*
X19135672Y-10593996D01*
X13975604Y-9929085D02*
X13979832Y-9926690D01*
X11480597Y-2579686D02*
X11481428Y-2584474D01*
X19060676Y-10662786D02*
X19060699Y-10662780D01*
X11826499Y-9931685D02*
X11830604Y-9929085D01*
X10560030Y-10165786D02*
X10560020Y-10165834D01*
X17173997Y-10136003D02*
X17170646Y-10132484D01*
X13619964Y-10103886D02*
X13617995Y-10108328D01*
X10560556Y-9914888D02*
X10560600Y-9914909D01*
X15772500Y-2650988D02*
X15772380Y-2655858D01*
X12855119Y-2594142D02*
X12855477Y-2589296D01*
X11862186Y-2501903D02*
X11866974Y-2501072D01*
X13627380Y-2594142D02*
X13627500Y-2599012D01*
X18236983Y-2709974D02*
X18234185Y-2706001D01*
X12911672Y-2509505D02*
X12916114Y-2507536D01*
X19139530Y-9914839D02*
X19139570Y-9914812D01*
X19049774Y-2000509D02*
X19048600Y-2000423D01*
X16745988Y-9915000D02*
X16750858Y-9915120D01*
X11425828Y-10155495D02*
X11421385Y-10157464D01*
X19139865Y-10165513D02*
X19139839Y-10165470D01*
X10560883Y-9914987D02*
X10560932Y-9914992D01*
X10560020Y-9914166D02*
X10560030Y-9914214D01*
X16078287Y-9980648D02*
X16080036Y-9976114D01*
X16072977Y-10075704D02*
X16072619Y-10070858D01*
X19139308Y-10165056D02*
X19139261Y-10165042D01*
X11843614Y-2507536D02*
X11848148Y-2505787D01*
X13953146Y-10132484D02*
X13949972Y-10128805D01*
X13583501Y-2516685D02*
X13587474Y-2519483D01*
X12526003Y-10136003D02*
X12522484Y-10139354D01*
X13538204Y-10164523D02*
X13533358Y-10164880D01*
X18253695Y-9937472D02*
X18257526Y-9934483D01*
X11815016Y-2525646D02*
X11818695Y-2522472D01*
X17833026Y-10163928D02*
X17828204Y-10164523D01*
X18292445Y-2502967D02*
X18297186Y-2501903D01*
X10661203Y-2000000D02*
X10658799Y-2000059D01*
X15724396Y-10150915D02*
X15720168Y-10153310D01*
X19131863Y-10604378D02*
X19131873Y-10604355D01*
X17167472Y-2536195D02*
X17170646Y-2532516D01*
X19111518Y-2030181D02*
X19110707Y-2029328D01*
X11792005Y-10108328D02*
X11790036Y-10103886D01*
X18217977Y-10075704D02*
X18217620Y-10070858D01*
X16844523Y-2660704D02*
X16843928Y-2665526D01*
X10560000Y-2498773D02*
X10560000Y-2498797D01*
X17210648Y-2505787D02*
X17215262Y-2504263D01*
X17210648Y-10159213D02*
X17206114Y-10157464D01*
X15772380Y-2594142D02*
X15772500Y-2599012D01*
X12555000Y-10014012D02*
X12555000Y-10065988D01*
X11804972Y-2536195D02*
X11808146Y-2532516D01*
X15772380Y-10009142D02*
X15772500Y-10014012D01*
X10560981Y-2499994D02*
X10561203Y-2500000D01*
X19139992Y-9914068D02*
X19139994Y-9914019D01*
X15673488Y-2500000D02*
X15678358Y-2500120D01*
X10560000Y-2751203D02*
X10560000Y-2751227D01*
X16840737Y-2570262D02*
X16842033Y-2574945D01*
X17847238Y-2745737D02*
X17842555Y-2747033D01*
X13939190Y-2697668D02*
X13937005Y-2693328D01*
X13627380Y-10070858D02*
X13627023Y-10075704D01*
X16830915Y-2701896D02*
X16828315Y-2706001D01*
X15702238Y-10160737D02*
X15697555Y-10162033D01*
X10560390Y-10165217D02*
X10560352Y-10165248D01*
X10571823Y-10612104D02*
X10571846Y-10612147D01*
X17916428Y-9999474D02*
X17917023Y-10004296D01*
X16120604Y-2514085D02*
X16124832Y-2511690D01*
X19140000Y-2101227D02*
X19140000Y-2101203D01*
X12538315Y-10121001D02*
X12535517Y-10124974D01*
X16816003Y-2721003D02*
X16812484Y-2724354D01*
X11782500Y-10014012D02*
X11782619Y-10009142D01*
X17185026Y-2519483D02*
X17188999Y-2516685D01*
X16779352Y-2744213D02*
X16774738Y-2745737D01*
X19068996Y-10660672D02*
X19069043Y-10660658D01*
X17818488Y-10165000D02*
X17244012Y-10165000D01*
X16156974Y-9916072D02*
X16161796Y-9915477D01*
X13610815Y-9958999D02*
X13613415Y-9963104D01*
X18236983Y-9955026D02*
X18239972Y-9951195D01*
X13927500Y-10014012D02*
X13927619Y-10009142D01*
X18217620Y-10070858D02*
X18217500Y-10065988D01*
X12907332Y-10153310D02*
X12903104Y-10150915D01*
X18217620Y-10009142D02*
X18217977Y-10004296D01*
X12535517Y-2540026D02*
X12538315Y-2543999D01*
X16755704Y-2500477D02*
X16760526Y-2501072D01*
X19139400Y-10165091D02*
X19139354Y-10165072D01*
X13971499Y-9931685D02*
X13975604Y-9929085D01*
X14002445Y-10162033D02*
X13997762Y-10160737D01*
X12498328Y-9924505D02*
X12502668Y-9926690D01*
X19135992Y-10592838D02*
X19137780Y-10585699D01*
X11866974Y-9916072D02*
X11871796Y-9915477D01*
X16755704Y-2749523D02*
X16750858Y-2749880D01*
X19078234Y-2007631D02*
X19077136Y-2007207D01*
X19128706Y-10611052D02*
X19128717Y-10611030D01*
X19139648Y-2499752D02*
X19139684Y-2499719D01*
X13621712Y-9980648D02*
X13623237Y-9985262D01*
X19139487Y-9914865D02*
X19139530Y-9914839D01*
X19139992Y-2499068D02*
X19139994Y-2499019D01*
X16844523Y-10075704D02*
X16843928Y-10080526D01*
X16825517Y-2709974D02*
X16822528Y-2713805D01*
X17917023Y-2589296D02*
X17917380Y-2594142D01*
X10560600Y-9914909D02*
X10560646Y-9914928D01*
X16075467Y-2574945D02*
X16076763Y-2570262D01*
X10560352Y-2499752D02*
X10560390Y-2499783D01*
X10581983Y-10627473D02*
X10582707Y-10628401D01*
X10560000Y-9913773D02*
X10560000Y-9913797D01*
X19139719Y-9914684D02*
X19139752Y-9914648D01*
X13579396Y-2514085D02*
X13583501Y-2516685D01*
X12925262Y-9919263D02*
X12929945Y-9917967D01*
X18311642Y-9915120D02*
X18316512Y-9915000D01*
X10612896Y-2011823D02*
X10612853Y-2011846D01*
X10590181Y-10636518D02*
X10590199Y-10636535D01*
X17206114Y-2742464D02*
X17201672Y-2740495D01*
X17915597Y-9994686D02*
X17916428Y-9999474D01*
X17177516Y-10139354D02*
X17173997Y-10136003D01*
X10560008Y-10165932D02*
X10560006Y-10165981D01*
X13956497Y-2528997D02*
X13960016Y-2525646D01*
X16129172Y-2740495D02*
X16124832Y-2738310D01*
X15683204Y-2749523D02*
X15678358Y-2749880D01*
X10632138Y-2004014D02*
X10631004Y-2004328D01*
X17146903Y-10085314D02*
X17146072Y-10080526D01*
X10560135Y-2499487D02*
X10560161Y-2499530D01*
X10560188Y-10165430D02*
X10560161Y-10165470D01*
X13993148Y-10159213D02*
X13988614Y-10157464D01*
X10561741Y-10583295D02*
X10561745Y-10583319D01*
X16101497Y-2528997D02*
X16105016Y-2525646D01*
X17914533Y-9989945D02*
X17915597Y-9994686D01*
X16844880Y-10070858D02*
X16844523Y-10075704D01*
X10560692Y-2499944D02*
X10560739Y-2499958D01*
X13557238Y-2504263D02*
X13561852Y-2505787D01*
X13960016Y-2724354D02*
X13956497Y-2721003D01*
X10560514Y-2090177D02*
X10560509Y-2090226D01*
X19139888Y-2750556D02*
X19139865Y-2750513D01*
X16098146Y-2532516D02*
X16101497Y-2528997D01*
X16750858Y-10164880D02*
X16745988Y-10165000D01*
X13967526Y-9934483D02*
X13971499Y-9931685D01*
X19077113Y-10657801D02*
X19077136Y-10657793D01*
X10561956Y-10584527D02*
X10562214Y-10585676D01*
X15697555Y-10162033D02*
X15692814Y-10163097D01*
X19094504Y-10648778D02*
X19094525Y-10648765D01*
X19140000Y-2101203D02*
X19139941Y-2098799D01*
X18225036Y-9976114D02*
X18227005Y-9971672D01*
X16072619Y-2594142D02*
X16072977Y-2589296D01*
X11784402Y-10085314D02*
X11783572Y-10080526D01*
X13619964Y-2688886D02*
X13617995Y-2693328D01*
X19139944Y-2750692D02*
X19139928Y-2750646D01*
X15772500Y-2599012D02*
X15772500Y-2650988D01*
X12549212Y-2565648D02*
X12550737Y-2570262D01*
X10560020Y-2750834D02*
X10560013Y-2750883D01*
X15673488Y-2750000D02*
X14026512Y-2750000D01*
X16845000Y-2650988D02*
X16844880Y-2655858D01*
X19077113Y-2007198D02*
X19070184Y-2004719D01*
X13626428Y-10080526D02*
X13625597Y-10085314D01*
X13627023Y-2660704D02*
X13626428Y-2665526D01*
X16072977Y-10004296D02*
X16073572Y-9999474D01*
X10603477Y-2017570D02*
X10603457Y-2017584D01*
X19123135Y-2044480D02*
X19123108Y-2044439D01*
X10562220Y-10585699D02*
X10564008Y-10592838D01*
X17917380Y-2594142D02*
X17917500Y-2599012D01*
X18250016Y-9940646D02*
X18253695Y-9937472D01*
X12855119Y-10070858D02*
X12855000Y-10065988D01*
X18239972Y-9951195D02*
X18243146Y-9947516D01*
X10567650Y-2061721D02*
X10567631Y-2061766D01*
X15673488Y-9915000D02*
X15678358Y-9915120D01*
X12925262Y-2745737D02*
X12920648Y-2744213D01*
X17917380Y-10070858D02*
X17917023Y-10075704D01*
X11871796Y-2500477D02*
X11876642Y-2500120D01*
X11834832Y-2511690D02*
X11839172Y-2509505D01*
X13610815Y-2706001D02*
X13608017Y-2709974D01*
X15728501Y-9931685D02*
X15732474Y-9934483D01*
X16089185Y-2543999D02*
X16091983Y-2540026D01*
X11468415Y-10116896D02*
X11465815Y-10121001D01*
X11438501Y-10148315D02*
X11434396Y-10150915D01*
X19087104Y-2011823D02*
X19086052Y-2011294D01*
X13927500Y-2599012D02*
X13927619Y-2594142D01*
X18297186Y-2501903D02*
X18301974Y-2501072D01*
X19131873Y-10604355D02*
X19132350Y-10603279D01*
X19079355Y-10656873D02*
X19079378Y-10656863D01*
X11460028Y-10128805D02*
X11456854Y-10132484D01*
X10589328Y-10635707D02*
X10590181Y-10636518D01*
X16089185Y-10121001D02*
X16086585Y-10116896D01*
X12855000Y-2650988D02*
X12855000Y-2599012D01*
X10560981Y-9914994D02*
X10561203Y-9915000D01*
X15728501Y-10148315D02*
X15724396Y-10150915D01*
X10560072Y-10165646D02*
X10560056Y-10165692D01*
X11792005Y-2556672D02*
X11794190Y-2552332D01*
X11460028Y-2713805D02*
X11456854Y-2717484D01*
X19139354Y-10165072D02*
X19139308Y-10165056D01*
X17154505Y-2693328D02*
X17152536Y-2688886D01*
X13928572Y-2665526D02*
X13927977Y-2660704D01*
X14007186Y-9916903D02*
X14011974Y-9916072D01*
X19138259Y-10583295D02*
X19139338Y-10576016D01*
X15688026Y-10163928D02*
X15683204Y-10164523D01*
X13627380Y-10009142D02*
X13627500Y-10014012D01*
X18223287Y-2684352D02*
X18221763Y-2679738D01*
X12514974Y-2730517D02*
X12511001Y-2733315D01*
X11430168Y-9926690D02*
X11434396Y-9929085D01*
X16076763Y-2679738D02*
X16075467Y-2675055D01*
X15720168Y-2738310D02*
X15715828Y-2740495D01*
X12555000Y-2599012D02*
X12555000Y-2650988D01*
X17145477Y-2589296D02*
X17146072Y-2584474D01*
X15770597Y-9994686D02*
X15771428Y-9999474D01*
X10560112Y-10165556D02*
X10560091Y-10165600D01*
X10576235Y-10619525D02*
X10576865Y-10620520D01*
X13594984Y-10139354D02*
X13591305Y-10142528D01*
X12866690Y-10112668D02*
X12864505Y-10108328D01*
X19116477Y-10629349D02*
X19116493Y-10629330D01*
X17888503Y-2528997D02*
X17891854Y-2532516D01*
X16078287Y-10099352D02*
X16076763Y-10094738D01*
X16840737Y-10094738D02*
X16839213Y-10099352D01*
X13997762Y-2745737D02*
X13993148Y-2744213D01*
X16080036Y-10103886D02*
X16078287Y-10099352D01*
X11472995Y-2556672D02*
X11474964Y-2561114D01*
X19139812Y-2750430D02*
X19139783Y-2750390D01*
X17828204Y-10164523D02*
X17823358Y-10164880D01*
X10561947Y-2080521D02*
X10561745Y-2081681D01*
X13963695Y-2522472D02*
X13967526Y-2519483D01*
X11790036Y-10103886D02*
X11788287Y-10099352D01*
X11482023Y-10004296D02*
X11482380Y-10009142D01*
X13528488Y-2500000D02*
X13533358Y-2500120D01*
X10560112Y-2499444D02*
X10560135Y-2499487D01*
X13552555Y-2502967D02*
X13557238Y-2504263D01*
X17905810Y-2552332D02*
X17907995Y-2556672D01*
X19139992Y-2750932D02*
X19139987Y-2750883D01*
X15711385Y-9922536D02*
X15715828Y-9924505D01*
X16072619Y-2655858D02*
X16072500Y-2650988D01*
X10560430Y-10165188D02*
X10560390Y-10165217D01*
X16078287Y-2565648D02*
X16080036Y-2561114D01*
X17914533Y-2675055D02*
X17913237Y-2679738D01*
X10560470Y-2499839D02*
X10560513Y-2499865D01*
X10560281Y-2750316D02*
X10560248Y-2750352D01*
X16779352Y-10159213D02*
X16774738Y-10160737D01*
X11782500Y-2599012D02*
X11782619Y-2594142D01*
X13605028Y-2713805D02*
X13601854Y-2717484D01*
X11830604Y-9929085D02*
X11834832Y-9926690D01*
X13608017Y-2709974D02*
X13605028Y-2713805D01*
X19104330Y-10641493D02*
X19104349Y-10641477D01*
X17833026Y-2748928D02*
X17828204Y-2749523D01*
X10560072Y-2499354D02*
X10560091Y-2499400D01*
X15706852Y-2744213D02*
X15702238Y-2745737D01*
X16112526Y-2730517D02*
X16108695Y-2727528D01*
X19138773Y-2750000D02*
X18316512Y-2750000D01*
X16765314Y-10163097D02*
X16760526Y-10163928D01*
X16808805Y-10142528D02*
X16804974Y-10145517D01*
X10560000Y-2101203D02*
X10560000Y-2101227D01*
X17197332Y-10153310D02*
X17193104Y-10150915D01*
X19096543Y-2017584D02*
X19096523Y-2017570D01*
X19096523Y-2017570D02*
X19095561Y-2016892D01*
X17884984Y-10139354D02*
X17881305Y-10142528D01*
X15720168Y-10153310D02*
X15715828Y-10155495D01*
X13949972Y-10128805D02*
X13946983Y-10124974D01*
X11839172Y-2509505D02*
X11843614Y-2507536D01*
X17842555Y-2502967D02*
X17847238Y-2504263D01*
X12493885Y-9922536D02*
X12498328Y-9924505D01*
X10620622Y-10656863D02*
X10620645Y-10656873D01*
X11826499Y-2733315D02*
X11822526Y-2730517D01*
X18219403Y-2579686D02*
X18220467Y-2574945D01*
X10560981Y-10165006D02*
X10560932Y-10165008D01*
X11790036Y-9976114D02*
X11792005Y-9971672D01*
X16108695Y-2727528D02*
X16105016Y-2724354D01*
X12887516Y-10139354D02*
X12883997Y-10136003D01*
X12871685Y-2706001D02*
X12869085Y-2701896D01*
X17884984Y-2724354D02*
X17881305Y-2727528D01*
X18257526Y-2730517D02*
X18253695Y-2727528D01*
X17152536Y-9976114D02*
X17154505Y-9971672D01*
X19135992Y-2072162D02*
X19135986Y-2072138D01*
X16152186Y-2501903D02*
X16156974Y-2501072D01*
X17188999Y-10148315D02*
X17185026Y-10145517D01*
X17900815Y-10121001D02*
X17898017Y-10124974D01*
X12493885Y-2507536D02*
X12498328Y-2509505D01*
X16745988Y-2500000D02*
X16750858Y-2500120D01*
X10560248Y-10165352D02*
X10560217Y-10165390D01*
X17145120Y-10009142D02*
X17145477Y-10004296D01*
X19139117Y-9914987D02*
X19139166Y-9914980D01*
X19138797Y-10165000D02*
X19138773Y-10165000D01*
X13570828Y-10155495D02*
X13566385Y-10157464D01*
X11456854Y-2532516D02*
X11460028Y-2536195D01*
X18217977Y-10004296D02*
X18218572Y-9999474D01*
X16750858Y-2500120D02*
X16755704Y-2500477D01*
X19096523Y-10647430D02*
X19096543Y-10647416D01*
X15753017Y-10124974D02*
X15750028Y-10128805D01*
X12887516Y-9940646D02*
X12891195Y-9937472D01*
X19109819Y-10636518D02*
X19110672Y-10635707D01*
X10561227Y-9915000D02*
X11383488Y-9915000D01*
X13941585Y-2548104D02*
X13944185Y-2543999D01*
X11818695Y-2522472D02*
X11822526Y-2519483D01*
X19139928Y-2750646D02*
X19139909Y-2750600D01*
X13956497Y-10136003D02*
X13953146Y-10132484D01*
X13528488Y-9915000D02*
X13528488Y-9915000D01*
X13627023Y-10075704D02*
X13626428Y-10080526D01*
X17173997Y-9943997D02*
X17177516Y-9940646D01*
X17915597Y-2579686D02*
X17916428Y-2584474D01*
X19059479Y-2001946D02*
X19058319Y-2001745D01*
X19123108Y-10620561D02*
X19123135Y-10620520D01*
X10576865Y-10620520D02*
X10576892Y-10620561D01*
X19139928Y-2499354D02*
X19139944Y-2499308D01*
X10561227Y-10165000D02*
X10561203Y-10165000D01*
X11479533Y-10090055D02*
X11478237Y-10094738D01*
X12522484Y-10139354D02*
X12518805Y-10142528D01*
X17895028Y-2536195D02*
X17898017Y-2540026D01*
X10577584Y-10621543D02*
X10581968Y-10627454D01*
X19117293Y-10628401D02*
X19118017Y-10627473D01*
X12856902Y-2670314D02*
X12856072Y-2665526D01*
X19059527Y-2001956D02*
X19059479Y-2001946D01*
X12532528Y-10128805D02*
X12529354Y-10132484D01*
X18278614Y-10157464D02*
X18274172Y-10155495D01*
X10588482Y-2030181D02*
X10588465Y-2030199D01*
X11456854Y-9947516D02*
X11460028Y-9951195D01*
X15692814Y-10163097D02*
X15688026Y-10163928D01*
X18253695Y-2522472D02*
X18257526Y-2519483D01*
X13623237Y-2570262D02*
X13624533Y-2574945D01*
X11876642Y-2500120D02*
X11881512Y-2500000D01*
X16124832Y-2511690D02*
X16129172Y-2509505D01*
X16755704Y-9915477D02*
X16760526Y-9916072D01*
X11852762Y-2745737D02*
X11848148Y-2744213D01*
X19060676Y-2002214D02*
X19059527Y-2001956D01*
X19140000Y-2751203D02*
X19139994Y-2750981D01*
X12502668Y-10153310D02*
X12498328Y-10155495D01*
X10661227Y-10665000D02*
X19038773Y-10665000D01*
X15688026Y-2748928D02*
X15683204Y-2749523D01*
X19048600Y-10664577D02*
X19049774Y-10664491D01*
X19139530Y-2750161D02*
X19139487Y-2750135D01*
X16084190Y-2697668D02*
X16082005Y-2693328D01*
X18278614Y-2507536D02*
X18283148Y-2505787D01*
X11476712Y-9980648D02*
X11478237Y-9985262D01*
X18219403Y-2670314D02*
X18218572Y-2665526D01*
X16839213Y-10099352D02*
X16837464Y-10103886D01*
X16072500Y-10065988D02*
X16072500Y-10014012D01*
X19139752Y-9914648D02*
X19139783Y-9914610D01*
X17156690Y-2697668D02*
X17154505Y-2693328D01*
X12540915Y-10116896D02*
X12538315Y-10121001D01*
X10560135Y-10165513D02*
X10560112Y-10165556D01*
X19139909Y-9914400D02*
X19139928Y-9914354D01*
X13963695Y-9937472D02*
X13967526Y-9934483D01*
X13570828Y-2509505D02*
X13575168Y-2511690D01*
X17244012Y-10165000D02*
X17239142Y-10164880D01*
X16108695Y-9937472D02*
X16112526Y-9934483D01*
X10604480Y-10648135D02*
X10605475Y-10648765D01*
X11438501Y-9931685D02*
X11442474Y-9934483D01*
X18234185Y-2706001D02*
X18231585Y-2701896D01*
X10560248Y-2499648D02*
X10560281Y-2499684D01*
X19051016Y-2000662D02*
X19050991Y-2000658D01*
X10560135Y-2750513D02*
X10560112Y-2750556D01*
X11857445Y-2502967D02*
X11862186Y-2501903D01*
X19050991Y-10664342D02*
X19051016Y-10664338D01*
X19135658Y-2070957D02*
X19135289Y-2069839D01*
X10589328Y-2029293D02*
X10589293Y-2029328D01*
X17877474Y-9934483D02*
X17881305Y-9937472D01*
X11801983Y-2540026D02*
X11804972Y-2536195D01*
X18223287Y-2565648D02*
X18225036Y-2561114D01*
X17873501Y-10148315D02*
X17869396Y-10150915D01*
X19127561Y-10613192D02*
X19127574Y-10613171D01*
X12939474Y-9916072D02*
X12944296Y-9915477D01*
X17818488Y-9915000D02*
X17818488Y-9915000D01*
X15768237Y-2679738D02*
X15766712Y-2684352D01*
X19132369Y-10603234D02*
X19132793Y-10602136D01*
X10576892Y-10620561D02*
X10577570Y-10621523D01*
X10560091Y-9914400D02*
X10560112Y-9914444D01*
X13929402Y-2579686D02*
X13930467Y-2574945D01*
X13935036Y-2561114D02*
X13937005Y-2556672D01*
X16086585Y-9963104D02*
X16089185Y-9958999D01*
X16091983Y-2709974D02*
X16089185Y-2706001D01*
X19140000Y-2751227D02*
X19140000Y-2751203D01*
X13626428Y-2665526D02*
X13625597Y-2670314D01*
X18225036Y-2561114D02*
X18227005Y-2556672D01*
X13988614Y-2742464D02*
X13984172Y-2740495D01*
X19087104Y-10653177D02*
X19087147Y-10653154D01*
X12465704Y-9915477D02*
X12470526Y-9916072D01*
X15764964Y-10103886D02*
X15762995Y-10108328D01*
X17164483Y-9955026D02*
X17167472Y-9951195D01*
X12480055Y-9917967D02*
X12484738Y-9919263D01*
X18217977Y-2589296D02*
X18218572Y-2584474D01*
X16745988Y-10165000D02*
X16171512Y-10165000D01*
X11796585Y-10116896D02*
X11794190Y-10112668D01*
X10632162Y-10660992D02*
X10639301Y-10662780D01*
X19139648Y-10165248D02*
X19139610Y-10165217D01*
X18306796Y-2749523D02*
X18301974Y-2748928D01*
X10560056Y-10165692D02*
X10560042Y-10165739D01*
X17146903Y-2579686D02*
X17147967Y-2574945D01*
X12484738Y-2504263D02*
X12489352Y-2505787D01*
X16825517Y-9955026D02*
X16828315Y-9958999D01*
X12860787Y-10099352D02*
X12859263Y-10094738D01*
X13984172Y-10155495D02*
X13979832Y-10153310D01*
X19140000Y-9913797D02*
X19140000Y-9913773D01*
X18306796Y-10164523D02*
X18301974Y-10163928D01*
X12553928Y-10080526D02*
X12553097Y-10085314D01*
X15753017Y-2709974D02*
X15750028Y-2713805D01*
X13575168Y-9926690D02*
X13579396Y-9929085D01*
X17823358Y-10164880D02*
X17818488Y-10165000D01*
X12891195Y-2727528D02*
X12887516Y-2724354D01*
X13967526Y-2519483D02*
X13971499Y-2516685D01*
X10560030Y-2750786D02*
X10560020Y-2750834D01*
X18229190Y-9967332D02*
X18231585Y-9963104D01*
X12864505Y-2556672D02*
X12866690Y-2552332D01*
X16779352Y-2505787D02*
X16783886Y-2507536D01*
X15750028Y-10128805D02*
X15746854Y-10132484D01*
X18229190Y-2697668D02*
X18227005Y-2693328D01*
X10560739Y-9914958D02*
X10560786Y-9914970D01*
X16112526Y-9934483D02*
X16116499Y-9931685D01*
X13930467Y-2574945D02*
X13931763Y-2570262D01*
X13591305Y-2522472D02*
X13594984Y-2525646D01*
X13975604Y-10150915D02*
X13971499Y-10148315D01*
X10588482Y-10634819D02*
X10589293Y-10635672D01*
X13935036Y-2688886D02*
X13933287Y-2684352D01*
X10560692Y-10165056D02*
X10560646Y-10165072D01*
X13929402Y-10085314D02*
X13928572Y-10080526D01*
X10571283Y-2053970D02*
X10568137Y-2060622D01*
X13935036Y-9976114D02*
X13937005Y-9971672D01*
X19139648Y-9914752D02*
X19139684Y-9914719D01*
X10560556Y-2499888D02*
X10560600Y-2499909D01*
X17900815Y-2706001D02*
X17898017Y-2709974D01*
X13610815Y-10121001D02*
X13608017Y-10124974D01*
X12920648Y-9920787D02*
X12925262Y-9919263D01*
X17851852Y-2744213D02*
X17847238Y-2745737D01*
X12506896Y-2514085D02*
X12511001Y-2516685D01*
X10567631Y-2061766D02*
X10567207Y-2062864D01*
X16152186Y-9916903D02*
X16156974Y-9916072D01*
X10596599Y-2022707D02*
X10596561Y-2022738D01*
X12522484Y-2724354D02*
X12518805Y-2727528D01*
X10582738Y-2036561D02*
X10582707Y-2036599D01*
X16765314Y-2501903D02*
X16770055Y-2502967D01*
X16073572Y-2665526D02*
X16072977Y-2660704D01*
X12484738Y-9919263D02*
X12489352Y-9920787D01*
X19128177Y-10612104D02*
X19128706Y-10611052D01*
X13579396Y-2735915D02*
X13575168Y-2738310D01*
X19123778Y-10619504D02*
X19127561Y-10613192D01*
X16839213Y-9980648D02*
X16840737Y-9985262D01*
X15771428Y-10080526D02*
X15770597Y-10085314D01*
X10560217Y-2750390D02*
X10560188Y-2750430D01*
X13624533Y-10090055D02*
X13623237Y-10094738D01*
X13615810Y-10112668D02*
X13613415Y-10116896D01*
X13528488Y-2750000D02*
X12954012Y-2750000D01*
X14002445Y-2502967D02*
X14007186Y-2501903D01*
X15762995Y-2556672D02*
X15764964Y-2561114D01*
X10560423Y-2091399D02*
X10560421Y-2091424D01*
X12489352Y-10159213D02*
X12484738Y-10160737D01*
X11881512Y-10165000D02*
X11876642Y-10164880D01*
X17149263Y-9985262D02*
X17150787Y-9980648D01*
X13967526Y-2730517D02*
X13963695Y-2727528D01*
X19086052Y-10653706D02*
X19087104Y-10653177D01*
X16801001Y-9931685D02*
X16804974Y-9934483D01*
X18234185Y-9958999D02*
X18236983Y-9955026D01*
X19139261Y-2750042D02*
X19139214Y-2750030D01*
X11808146Y-2532516D02*
X11811497Y-2528997D01*
X10560692Y-2750056D02*
X10560646Y-2750072D01*
X18219403Y-10085314D02*
X18218572Y-10080526D01*
X10597546Y-2021968D02*
X10597527Y-2021983D01*
X18227005Y-10108328D02*
X18225036Y-10103886D01*
X17229474Y-2748928D02*
X17224686Y-2748097D01*
X15728501Y-2516685D02*
X15732474Y-2519483D01*
X10596561Y-10642262D02*
X10596599Y-10642293D01*
X11876642Y-10164880D02*
X11871796Y-10164523D01*
X12455988Y-10165000D02*
X11881512Y-10165000D01*
X18250016Y-10139354D02*
X18246497Y-10136003D01*
X12545495Y-2556672D02*
X12547464Y-2561114D01*
X19067862Y-2004014D02*
X19067838Y-2004008D01*
X17219945Y-10162033D02*
X17215262Y-10160737D01*
X10641681Y-10663255D02*
X10641705Y-10663259D01*
X17149263Y-10094738D02*
X17147967Y-10090055D01*
X11460028Y-2536195D02*
X11463017Y-2540026D01*
X13627380Y-2655858D02*
X13627023Y-2660704D01*
X18219403Y-9994686D02*
X18220467Y-9989945D01*
X19095561Y-2016892D02*
X19095520Y-2016865D01*
X16796896Y-2735915D02*
X16792668Y-2738310D01*
X12550737Y-2679738D02*
X12549212Y-2684352D01*
X17210648Y-9920787D02*
X17215262Y-9919263D01*
X16075467Y-9989945D02*
X16076763Y-9985262D01*
X10612896Y-10653177D02*
X10613948Y-10653706D01*
X12455988Y-2750000D02*
X11881512Y-2750000D01*
X12455988Y-9915000D02*
X12460858Y-9915120D01*
X14021642Y-10164880D02*
X14016796Y-10164523D01*
X19139865Y-9914487D02*
X19139888Y-9914444D01*
X16116499Y-2733315D02*
X16112526Y-2730517D01*
X12860787Y-9980648D02*
X12862536Y-9976114D01*
X17164483Y-2709974D02*
X17161685Y-2706001D01*
X16788328Y-2740495D02*
X16783886Y-2742464D01*
X12856902Y-2579686D02*
X12857967Y-2574945D01*
X16098146Y-9947516D02*
X16101497Y-9943997D01*
X15755815Y-2706001D02*
X15753017Y-2709974D01*
X10621766Y-10657369D02*
X10622864Y-10657793D01*
X17197332Y-9926690D02*
X17201672Y-9924505D01*
X17193104Y-2735915D02*
X17188999Y-2733315D01*
X17818488Y-9915000D02*
X17823358Y-9915120D01*
X13617995Y-2556672D02*
X13619964Y-2561114D01*
X19111535Y-2030199D02*
X19111518Y-2030181D01*
X12934686Y-2501903D02*
X12939474Y-2501072D01*
X16830915Y-2548104D02*
X16833310Y-2552332D01*
X10631004Y-2004328D02*
X10630957Y-2004342D01*
X12864505Y-9971672D02*
X12866690Y-9967332D01*
X11468415Y-2548104D02*
X11470810Y-2552332D01*
X19139719Y-2750316D02*
X19139684Y-2750281D01*
X14007186Y-10163097D02*
X14002445Y-10162033D01*
X13927500Y-2599012D02*
X13927500Y-2599012D01*
X19078279Y-10657350D02*
X19079355Y-10656873D01*
X12871685Y-9958999D02*
X12874483Y-9955026D01*
X17823358Y-9915120D02*
X17828204Y-9915477D01*
X19139958Y-2499261D02*
X19139970Y-2499214D01*
X16089185Y-9958999D02*
X16091983Y-9955026D01*
X13626428Y-9999474D02*
X13627023Y-10004296D01*
X10560316Y-2499719D02*
X10560352Y-2499752D01*
X11407555Y-2747033D02*
X11402814Y-2748097D01*
X16156974Y-2501072D02*
X16161796Y-2500477D01*
X10561741Y-2081705D02*
X10560662Y-2088984D01*
X11782500Y-2650988D02*
X11782500Y-2599012D01*
X16845000Y-2599012D02*
X16845000Y-2650988D01*
X15678358Y-2749880D02*
X15673488Y-2750000D01*
X17145120Y-2594142D02*
X17145477Y-2589296D01*
X17156690Y-9967332D02*
X17159085Y-9963104D01*
X12529354Y-9947516D02*
X12532528Y-9951195D01*
X19135672Y-10593996D02*
X19135986Y-10592862D01*
X10613948Y-10653706D02*
X10613970Y-10653717D01*
X19139166Y-10165020D02*
X19139117Y-10165013D01*
X19139909Y-2750600D02*
X19139888Y-2750556D01*
X10577584Y-2043457D02*
X10577570Y-2043477D01*
X13591305Y-10142528D02*
X13587474Y-10145517D01*
X11416852Y-2744213D02*
X11412238Y-2745737D01*
X12929945Y-9917967D02*
X12934686Y-9916903D01*
X11465815Y-10121001D02*
X11463017Y-10124974D01*
X19139648Y-2750248D02*
X19139610Y-2750217D01*
X17916428Y-2584474D02*
X17917023Y-2589296D01*
X12526003Y-9943997D02*
X12529354Y-9947516D01*
X17917500Y-10065988D02*
X17917380Y-10070858D01*
X10560161Y-2499530D02*
X10560188Y-2499570D01*
X12502668Y-9926690D02*
X12506896Y-9929085D01*
X17156690Y-10112668D02*
X17154505Y-10108328D01*
X16822528Y-2713805D02*
X16819354Y-2717484D01*
X10560008Y-2750932D02*
X10560006Y-2750981D01*
X10604439Y-10648108D02*
X10604480Y-10648135D01*
X13931763Y-2679738D02*
X13930467Y-2675055D01*
X15772500Y-10065988D02*
X15772380Y-10070858D01*
X12480055Y-2502967D02*
X12484738Y-2504263D01*
X10590199Y-10636535D02*
X10595651Y-10641477D01*
X16133614Y-2507536D02*
X16138148Y-2505787D01*
X11465815Y-2706001D02*
X11463017Y-2709974D01*
X18306796Y-2500477D02*
X18311642Y-2500120D01*
X19103401Y-10642293D02*
X19103439Y-10642262D01*
X11808146Y-9947516D02*
X11811497Y-9943997D01*
X16788328Y-9924505D02*
X16792668Y-9926690D01*
X18311642Y-2500120D02*
X18316512Y-2500000D01*
X13561852Y-9920787D02*
X13566385Y-9922536D01*
X13956497Y-9943997D02*
X13960016Y-9940646D01*
X17234296Y-9915477D02*
X17239142Y-9915120D01*
X12860787Y-2684352D02*
X12859263Y-2679738D01*
X15739984Y-9940646D02*
X15743503Y-9943997D01*
X13988614Y-2507536D02*
X13993148Y-2505787D01*
X15769533Y-10090055D02*
X15768237Y-10094738D01*
X12529354Y-2717484D02*
X12526003Y-2721003D01*
X11794190Y-10112668D02*
X11792005Y-10108328D01*
X16086585Y-2548104D02*
X16089185Y-2543999D01*
X10560000Y-9913797D02*
X10560006Y-9914019D01*
X19139684Y-2499719D02*
X19139719Y-2499684D01*
X15711385Y-2742464D02*
X15706852Y-2744213D01*
X17917380Y-2655858D02*
X17917023Y-2660704D01*
X12920648Y-10159213D02*
X12916114Y-10157464D01*
X19139970Y-10165786D02*
X19139958Y-10165739D01*
X19137786Y-10585676D02*
X19138044Y-10584527D01*
X13594984Y-2724354D02*
X13591305Y-2727528D01*
X19139486Y-10574823D02*
X19139491Y-10574774D01*
X16840737Y-2679738D02*
X16839213Y-2684352D01*
X10560390Y-9914783D02*
X10560430Y-9914812D01*
X16765314Y-9916903D02*
X16770055Y-9917967D01*
X17856386Y-10157464D02*
X17851852Y-10159213D01*
X10639301Y-2002220D02*
X10632162Y-2004008D01*
X17877474Y-2519483D02*
X17881305Y-2522472D01*
X15736305Y-2522472D02*
X15739984Y-2525646D01*
X17154505Y-2556672D02*
X17156690Y-2552332D01*
X15732474Y-9934483D02*
X15736305Y-9937472D01*
X10560834Y-10165020D02*
X10560786Y-10165030D01*
X17884984Y-2525646D02*
X17888503Y-2528997D01*
X16116499Y-2516685D02*
X16120604Y-2514085D01*
X17851852Y-9920787D02*
X17856386Y-9922536D01*
X13927500Y-2650988D02*
X13927500Y-2599012D01*
X12514974Y-2519483D02*
X12518805Y-2522472D01*
X10661203Y-10665000D02*
X10661227Y-10665000D01*
X12553097Y-9994686D02*
X12553928Y-9999474D01*
X10562214Y-2079324D02*
X10561956Y-2080473D01*
X16796896Y-10150915D02*
X16792668Y-10153310D01*
X13971499Y-10148315D02*
X13967526Y-10145517D01*
X19117262Y-10628439D02*
X19117293Y-10628401D01*
X12856072Y-9999474D02*
X12856902Y-9994686D01*
X10596561Y-2022738D02*
X10595670Y-2023507D01*
X17181195Y-2727528D02*
X17177516Y-2724354D01*
X10588465Y-2030199D02*
X10583523Y-2035651D01*
X13963695Y-2727528D02*
X13960016Y-2724354D01*
X11478237Y-2570262D02*
X11479533Y-2574945D01*
X10651400Y-10664577D02*
X10651424Y-10664579D01*
X11402814Y-10163097D02*
X11398026Y-10163928D01*
X16082005Y-2556672D02*
X16084190Y-2552332D01*
X17873501Y-2516685D02*
X17877474Y-2519483D01*
X11393204Y-9915477D02*
X11398026Y-9916072D01*
X15758415Y-2701896D02*
X15755815Y-2706001D01*
X14016796Y-9915477D02*
X14021642Y-9915120D01*
X19068996Y-2004328D02*
X19067862Y-2004014D01*
X18261499Y-9931685D02*
X18265604Y-9929085D01*
X13927619Y-10009142D02*
X13927977Y-10004296D01*
X11794190Y-2552332D02*
X11796585Y-2548104D01*
X15743503Y-10136003D02*
X15739984Y-10139354D01*
X10560883Y-10165013D02*
X10560834Y-10165020D01*
X13538204Y-2500477D02*
X13543026Y-2501072D01*
X12498328Y-2509505D02*
X12502668Y-2511690D01*
X10560020Y-10165834D02*
X10560013Y-10165883D01*
X11788287Y-2565648D02*
X11790036Y-2561114D01*
X19139839Y-2750470D02*
X19139812Y-2750430D01*
X12916114Y-9922536D02*
X12920648Y-9920787D01*
X11881512Y-2750000D02*
X11876642Y-2749880D01*
X10583507Y-2035670D02*
X10582738Y-2036561D01*
X12518805Y-10142528D02*
X12514974Y-10145517D01*
X12880646Y-2532516D02*
X12883997Y-2528997D01*
X16830915Y-10116896D02*
X16828315Y-10121001D01*
X11782977Y-2660704D02*
X11782619Y-2655858D01*
X17145120Y-2655858D02*
X17145000Y-2650988D01*
X10560600Y-10165091D02*
X10560556Y-10165112D01*
X11482380Y-10009142D02*
X11482500Y-10014012D01*
X19139166Y-9914980D02*
X19139214Y-9914970D01*
X12855477Y-2589296D02*
X12856072Y-2584474D01*
X10631004Y-10660672D02*
X10632138Y-10660986D01*
X17152536Y-2688886D02*
X17150787Y-2684352D01*
X11804972Y-9951195D02*
X11808146Y-9947516D01*
X10560060Y-10566226D02*
X10560421Y-10573576D01*
X17881305Y-2727528D02*
X17877474Y-2730517D01*
X18283148Y-2505787D02*
X18287762Y-2504263D01*
X18257526Y-2519483D02*
X18261499Y-2516685D01*
X11449984Y-2525646D02*
X11453503Y-2528997D01*
X13979832Y-2738310D02*
X13975604Y-2735915D01*
X15772023Y-10004296D02*
X15772380Y-10009142D01*
X13927619Y-10070858D02*
X13927500Y-10065988D01*
X19139865Y-2750513D02*
X19139839Y-2750470D01*
X19094525Y-10648765D02*
X19095520Y-10648135D01*
X13575168Y-2511690D02*
X13579396Y-2514085D01*
X10641705Y-10663259D02*
X10648984Y-10664338D01*
X10560135Y-9914487D02*
X10560161Y-9914530D01*
X17206114Y-9922536D02*
X17210648Y-9920787D01*
X15728501Y-2733315D02*
X15724396Y-2735915D01*
X16843928Y-2665526D02*
X16843097Y-2670314D01*
X17823358Y-2749880D02*
X17818488Y-2750000D01*
X18274172Y-2740495D02*
X18269832Y-2738310D01*
X19139783Y-2750390D02*
X19139752Y-2750352D01*
X17873501Y-9931685D02*
X17877474Y-9934483D01*
X13624533Y-9989945D02*
X13625597Y-9994686D01*
X10588465Y-10634801D02*
X10588482Y-10634819D01*
X17907995Y-2556672D02*
X17909964Y-2561114D01*
X10613970Y-10653717D02*
X10620622Y-10656863D01*
X16796896Y-2514085D02*
X16801001Y-2516685D01*
X18217620Y-2655858D02*
X18217500Y-2650988D01*
X10611808Y-10652561D02*
X10611829Y-10652574D01*
X16133614Y-2742464D02*
X16129172Y-2740495D01*
X11782619Y-10009142D02*
X11782977Y-10004296D01*
X17888503Y-2721003D02*
X17884984Y-2724354D01*
X12857967Y-9989945D02*
X12859263Y-9985262D01*
X13946983Y-2540026D02*
X13949972Y-2536195D01*
X13601854Y-2717484D02*
X13598503Y-2721003D01*
X16133614Y-10157464D02*
X16129172Y-10155495D01*
X13979832Y-10153310D02*
X13975604Y-10150915D01*
X10560430Y-9914812D02*
X10560470Y-9914839D01*
X12498328Y-10155495D02*
X12493885Y-10157464D01*
X15692814Y-9916903D02*
X15697555Y-9917967D01*
X10560006Y-10165981D02*
X10560000Y-10166203D01*
X12460858Y-2500120D02*
X12465704Y-2500477D01*
X18231585Y-2548104D02*
X18234185Y-2543999D01*
X12939474Y-10163928D02*
X12934686Y-10163097D01*
X15743503Y-2721003D02*
X15739984Y-2724354D01*
X19139354Y-2499928D02*
X19139400Y-2499909D01*
X10597527Y-2021983D02*
X10596599Y-2022707D01*
X19139610Y-2750217D02*
X19139570Y-2750188D01*
X10561203Y-2500000D02*
X10561227Y-2500000D01*
X13605028Y-2536195D02*
X13608017Y-2540026D01*
X16072619Y-10070858D02*
X16072500Y-10065988D01*
X13927500Y-10014012D02*
X13927500Y-10014012D01*
X15750028Y-2713805D02*
X15746854Y-2717484D01*
X13626428Y-2584474D02*
X13627023Y-2589296D01*
X10561227Y-2500000D02*
X11383488Y-2500000D01*
X16072500Y-2599012D02*
X16072619Y-2594142D01*
X10560646Y-9914928D02*
X10560692Y-9914944D01*
X16833310Y-9967332D02*
X16835495Y-9971672D01*
X13605028Y-9951195D02*
X13608017Y-9955026D01*
X13538204Y-2749523D02*
X13533358Y-2749880D01*
X10560013Y-10165883D02*
X10560008Y-10165932D01*
X19088192Y-10652561D02*
X19094504Y-10648778D01*
X16161796Y-2500477D02*
X16166642Y-2500120D01*
X17146072Y-2665526D02*
X17145477Y-2660704D01*
X19139970Y-2499214D02*
X19139980Y-2499166D01*
X15769533Y-9989945D02*
X15770597Y-9994686D01*
X19140000Y-2498797D02*
X19140000Y-2498773D01*
X13933287Y-10099352D02*
X13931763Y-10094738D01*
X10605496Y-10648778D02*
X10611808Y-10652561D01*
X10560161Y-2750470D02*
X10560135Y-2750513D01*
X10651400Y-2000423D02*
X10650226Y-2000509D01*
X15746854Y-2532516D02*
X15750028Y-2536195D01*
X15772500Y-10014012D02*
X15772500Y-10065988D01*
X18274172Y-9924505D02*
X18278614Y-9922536D01*
X19111518Y-10634819D02*
X19111535Y-10634801D01*
X18316512Y-10165000D02*
X18311642Y-10164880D01*
X11782619Y-2655858D02*
X11782500Y-2650988D01*
X19139970Y-9914214D02*
X19139980Y-9914166D01*
X11843614Y-10157464D02*
X11839172Y-10155495D01*
X12856072Y-2665526D02*
X12855477Y-2660704D01*
X12470526Y-2748928D02*
X12465704Y-2749523D01*
X14002445Y-9917967D02*
X14007186Y-9916903D01*
X17145477Y-10075704D02*
X17145120Y-10070858D01*
X17224686Y-2748097D02*
X17219945Y-2747033D01*
X18316512Y-2750000D02*
X18311642Y-2749880D01*
X19137780Y-2079300D02*
X19135992Y-2072162D01*
X11848148Y-10159213D02*
X11843614Y-10157464D01*
X15768237Y-9985262D02*
X15769533Y-9989945D01*
X17891854Y-2717484D02*
X17888503Y-2721003D01*
X11453503Y-9943997D02*
X11456854Y-9947516D01*
X13963695Y-10142528D02*
X13960016Y-10139354D01*
X12871685Y-10121001D02*
X12869085Y-10116896D01*
X12538315Y-2543999D02*
X12540915Y-2548104D01*
X19139928Y-10165646D02*
X19139909Y-10165600D01*
X19139570Y-2750188D02*
X19139530Y-2750161D01*
X19139261Y-2499958D02*
X19139308Y-2499944D01*
X10560316Y-2750281D02*
X10560281Y-2750316D01*
X10560020Y-2499166D02*
X10560030Y-2499214D01*
X19139400Y-9914909D02*
X19139444Y-9914888D01*
X17154505Y-9971672D02*
X17156690Y-9967332D01*
X11407555Y-10162033D02*
X11402814Y-10163097D01*
X10560161Y-9914530D02*
X10560188Y-9914570D01*
X17173997Y-2721003D02*
X17170646Y-2717484D01*
X15724396Y-2735915D02*
X15720168Y-2738310D01*
X16166642Y-10164880D02*
X16161796Y-10164523D01*
X16166642Y-9915120D02*
X16171512Y-9915000D01*
X17905810Y-9967332D02*
X17907995Y-9971672D01*
X13960016Y-2525646D02*
X13963695Y-2522472D01*
X10560056Y-2499308D02*
X10560072Y-2499354D01*
X10560013Y-2750883D02*
X10560008Y-2750932D01*
X19139987Y-9914117D02*
X19139992Y-9914068D01*
X13613415Y-9963104D02*
X13615810Y-9967332D01*
X10650226Y-10664491D02*
X10651400Y-10664577D01*
X11792005Y-9971672D02*
X11794190Y-9967332D01*
X10640473Y-10663044D02*
X10640521Y-10663053D01*
X16147445Y-10162033D02*
X16142762Y-10160737D01*
X19138773Y-10165000D02*
X18316512Y-10165000D01*
X19132801Y-10602113D02*
X19135281Y-10595184D01*
X13944185Y-10121001D02*
X13941585Y-10116896D01*
X17907995Y-2693328D02*
X17905810Y-2697668D01*
X19139400Y-2499909D02*
X19139444Y-2499888D01*
X19139944Y-2499308D02*
X19139958Y-2499261D01*
X11862186Y-2748097D02*
X11857445Y-2747033D01*
X13927977Y-10004296D02*
X13928572Y-9999474D01*
X17911713Y-9980648D02*
X17913237Y-9985262D01*
X13623237Y-10094738D02*
X13621712Y-10099352D01*
X17159085Y-2548104D02*
X17161685Y-2543999D01*
X13601854Y-9947516D02*
X13605028Y-9951195D01*
X15750028Y-9951195D02*
X15753017Y-9955026D01*
X17201672Y-2740495D02*
X17197332Y-2738310D01*
X12553928Y-2665526D02*
X12553097Y-2670314D01*
X12506896Y-2735915D02*
X12502668Y-2738310D01*
X12934686Y-2748097D02*
X12929945Y-2747033D01*
X12944296Y-10164523D02*
X12939474Y-10163928D01*
X17147967Y-10090055D02*
X17146903Y-10085314D01*
X11881512Y-9915000D02*
X12455988Y-9915000D01*
X18253695Y-2727528D02*
X18250016Y-2724354D01*
X12920648Y-2505787D02*
X12925262Y-2504263D01*
X19135986Y-10592862D02*
X19135992Y-10592838D01*
X16843097Y-2579686D02*
X16843928Y-2584474D01*
X12554523Y-10075704D02*
X12553928Y-10080526D01*
X11456854Y-10132484D02*
X11453503Y-10136003D01*
X17818488Y-2750000D02*
X17244012Y-2750000D01*
X19139980Y-10165834D02*
X19139970Y-10165786D01*
X11421385Y-9922536D02*
X11425828Y-9924505D01*
X19139940Y-2098774D02*
X19139579Y-2091424D01*
X11481428Y-2665526D02*
X11480597Y-2670314D01*
X19131873Y-2060644D02*
X19131863Y-2060622D01*
X19139812Y-9914570D02*
X19139839Y-9914530D01*
X12857967Y-2675055D02*
X12856902Y-2670314D01*
X10590181Y-2028482D02*
X10589328Y-2029293D01*
X17188999Y-9931685D02*
X17193104Y-9929085D01*
X11470810Y-9967332D02*
X11472995Y-9971672D01*
X10560281Y-10165316D02*
X10560248Y-10165352D01*
X11398026Y-2748928D02*
X11393204Y-2749523D01*
X15732474Y-2519483D02*
X15736305Y-2522472D01*
X11402814Y-2748097D02*
X11398026Y-2748928D01*
X16774738Y-10160737D02*
X16770055Y-10162033D01*
X17909964Y-2688886D02*
X17907995Y-2693328D01*
X11783572Y-2584474D02*
X11784402Y-2579686D01*
X16084190Y-10112668D02*
X16082005Y-10108328D01*
X17229474Y-2501072D02*
X17234296Y-2500477D01*
X17860828Y-2509505D02*
X17865168Y-2511690D01*
X19038797Y-2000000D02*
X19038773Y-2000000D01*
X11857445Y-9917967D02*
X11862186Y-9916903D01*
X11801983Y-2709974D02*
X11799185Y-2706001D01*
X10583507Y-10629330D02*
X10583523Y-10629349D01*
X17865168Y-2738310D02*
X17860828Y-2740495D01*
X16839213Y-2565648D02*
X16840737Y-2570262D01*
X19140000Y-10166203D02*
X19139994Y-10165981D01*
X15683204Y-2500477D02*
X15688026Y-2501072D01*
X16076763Y-2570262D02*
X16078287Y-2565648D01*
X16098146Y-10132484D02*
X16094972Y-10128805D01*
X17865168Y-9926690D02*
X17869396Y-9929085D01*
X18217500Y-10065988D02*
X18217500Y-10014012D01*
X13587474Y-10145517D02*
X13583501Y-10148315D01*
X19050991Y-2000658D02*
X19049823Y-2000514D01*
X12502668Y-2738310D02*
X12498328Y-2740495D01*
X12552033Y-9989945D02*
X12553097Y-9994686D01*
X13941585Y-10116896D02*
X13939190Y-10112668D01*
X12535517Y-2709974D02*
X12532528Y-2713805D01*
X10567650Y-10603279D02*
X10568127Y-10604355D01*
X19128177Y-2052896D02*
X19128154Y-2052853D01*
X10641705Y-2001741D02*
X10641681Y-2001745D01*
X11799185Y-2543999D02*
X11801983Y-2540026D01*
X17147967Y-2675055D02*
X17146903Y-2670314D01*
X10560600Y-2750091D02*
X10560556Y-2750112D01*
X18269832Y-9926690D02*
X18274172Y-9924505D01*
X19058319Y-2001745D02*
X19058295Y-2001741D01*
X13619964Y-2561114D02*
X13621712Y-2565648D01*
X16844523Y-2589296D02*
X16844880Y-2594142D01*
X18217500Y-10014012D02*
X18217620Y-10009142D01*
X12465704Y-2500477D02*
X12470526Y-2501072D01*
X19103401Y-2022707D02*
X19102473Y-2021983D01*
X11463017Y-10124974D02*
X11460028Y-10128805D01*
X13598503Y-9943997D02*
X13601854Y-9947516D01*
X17210648Y-2744213D02*
X17206114Y-2742464D01*
X13598503Y-10136003D02*
X13594984Y-10139354D01*
X10560000Y-10563797D02*
X10560059Y-10566201D01*
X11388358Y-2749880D02*
X11383488Y-2750000D01*
X10629816Y-2004719D02*
X10622887Y-2007198D01*
X15720168Y-2511690D02*
X15724396Y-2514085D01*
X19103439Y-2022738D02*
X19103401Y-2022707D01*
X18227005Y-9971672D02*
X18229190Y-9967332D01*
X12862536Y-10103886D02*
X12860787Y-10099352D01*
X11782619Y-2594142D02*
X11782977Y-2589296D01*
X15758415Y-2548104D02*
X15760810Y-2552332D01*
X16147445Y-2747033D02*
X16142762Y-2745737D01*
X18234185Y-2543999D02*
X18236983Y-2540026D01*
X10572426Y-2051829D02*
X10571846Y-2052853D01*
X16808805Y-2727528D02*
X16804974Y-2730517D01*
X15772380Y-2655858D02*
X15772023Y-2660704D01*
X10620645Y-2008126D02*
X10620622Y-2008137D01*
X11482023Y-2660704D02*
X11481428Y-2665526D01*
X10648984Y-2000662D02*
X10641705Y-2001741D01*
X11808146Y-10132484D02*
X11804972Y-10128805D01*
X18220467Y-2574945D02*
X18221763Y-2570262D01*
X12475314Y-2748097D02*
X12470526Y-2748928D01*
X13624533Y-2675055D02*
X13623237Y-2679738D01*
X19118032Y-2037546D02*
X19118017Y-2037527D01*
X15753017Y-2540026D02*
X15755815Y-2543999D01*
X17181195Y-9937472D02*
X17185026Y-9934483D01*
X12877472Y-10128805D02*
X12874483Y-10124974D01*
X10560421Y-10573576D02*
X10560423Y-10573600D01*
X16091983Y-9955026D02*
X16094972Y-9951195D01*
X12553097Y-10085314D02*
X12552033Y-10090055D01*
X15683204Y-9915477D02*
X15688026Y-9916072D01*
X19139579Y-10573576D02*
X19139940Y-10566226D01*
X19067862Y-10660986D02*
X19068996Y-10660672D01*
X17215262Y-2745737D02*
X17210648Y-2744213D01*
X18301974Y-10163928D02*
X18297186Y-10163097D01*
X19123778Y-2045496D02*
X19123765Y-2045475D01*
X16842033Y-9989945D02*
X16843097Y-9994686D01*
X17170646Y-2532516D02*
X17173997Y-2528997D01*
X11479533Y-2675055D02*
X11478237Y-2679738D01*
X11446305Y-2522472D02*
X11449984Y-2525646D01*
X16072500Y-10014012D02*
X16072619Y-10009142D01*
X16101497Y-9943997D02*
X16105016Y-9940646D01*
X11876642Y-2749880D02*
X11871796Y-2749523D01*
X17239142Y-2500120D02*
X17244012Y-2500000D01*
X13984172Y-2740495D02*
X13979832Y-2738310D01*
X11425828Y-9924505D02*
X11430168Y-9926690D01*
X17154505Y-10108328D02*
X17152536Y-10103886D01*
X17146072Y-9999474D02*
X17146903Y-9994686D01*
X16812484Y-10139354D02*
X16808805Y-10142528D01*
X12549212Y-10099352D02*
X12547464Y-10103886D01*
X19095520Y-2016865D02*
X19094525Y-2016235D01*
X16840737Y-9985262D02*
X16842033Y-9989945D01*
X12855119Y-10009142D02*
X12855477Y-10004296D01*
X17145477Y-2660704D02*
X17145120Y-2655858D01*
X12554880Y-2655858D02*
X12554523Y-2660704D01*
X10560042Y-2499261D02*
X10560056Y-2499308D01*
X10560658Y-2089009D02*
X10560514Y-2090177D01*
X15706852Y-9920787D02*
X15711385Y-9922536D01*
X19086030Y-2011283D02*
X19079378Y-2008137D01*
X12877472Y-2713805D02*
X12874483Y-2709974D01*
X10582738Y-10628439D02*
X10583507Y-10629330D01*
X10568137Y-10604378D02*
X10571283Y-10611030D01*
X15743503Y-9943997D02*
X15746854Y-9947516D01*
X12470526Y-10163928D02*
X12465704Y-10164523D01*
X16822528Y-2536195D02*
X16825517Y-2540026D01*
X12869085Y-2548104D02*
X12871685Y-2543999D01*
X19070161Y-2004711D02*
X19069043Y-2004342D01*
X17884984Y-9940646D02*
X17888503Y-9943997D01*
X19139444Y-2499888D02*
X19139487Y-2499865D01*
X12460858Y-2749880D02*
X12455988Y-2750000D01*
X10632162Y-2004008D02*
X10632138Y-2004014D01*
X19139752Y-2750352D02*
X19139719Y-2750316D01*
X16124832Y-10153310D02*
X16120604Y-10150915D01*
X18253695Y-10142528D02*
X18250016Y-10139354D01*
X13561852Y-2744213D02*
X13557238Y-2745737D01*
X11782977Y-10075704D02*
X11782619Y-10070858D01*
X11839172Y-9924505D02*
X11843614Y-9922536D01*
X15746854Y-10132484D02*
X15743503Y-10136003D01*
X19077136Y-2007207D02*
X19077113Y-2007198D01*
X13617995Y-10108328D02*
X13615810Y-10112668D01*
X13941585Y-2701896D02*
X13939190Y-2697668D01*
X16101497Y-2721003D02*
X16098146Y-2717484D01*
X16760526Y-10163928D02*
X16755704Y-10164523D01*
X19087147Y-10653154D02*
X19088171Y-10652574D01*
X10650177Y-2000514D02*
X10649009Y-2000658D01*
X15720168Y-9926690D02*
X15724396Y-9929085D01*
X16745988Y-9915000D02*
X16745988Y-9915000D01*
X13543026Y-2748928D02*
X13538204Y-2749523D01*
X11784402Y-9994686D02*
X11785467Y-9989945D01*
X17911713Y-10099352D02*
X17909964Y-10103886D01*
X19139980Y-9914166D02*
X19139987Y-9914117D01*
X12866690Y-2552332D02*
X12869085Y-2548104D01*
X16792668Y-2738310D02*
X16788328Y-2740495D01*
X18274172Y-10155495D02*
X18269832Y-10153310D01*
X10560352Y-9914752D02*
X10560390Y-9914783D01*
X11857445Y-2747033D02*
X11852762Y-2745737D01*
X11804972Y-10128805D02*
X11801983Y-10124974D01*
X11852762Y-2504263D02*
X11857445Y-2502967D01*
X19139068Y-2499992D02*
X19139117Y-2499987D01*
X11480597Y-10085314D02*
X11479533Y-10090055D01*
X17161685Y-10121001D02*
X17159085Y-10116896D01*
X13625597Y-2579686D02*
X13626428Y-2584474D01*
X19116477Y-2035651D02*
X19111535Y-2030199D01*
X17916428Y-10080526D02*
X17915597Y-10085314D01*
X18250016Y-2525646D02*
X18253695Y-2522472D01*
X15739984Y-2525646D02*
X15743503Y-2528997D01*
X13625597Y-9994686D02*
X13626428Y-9999474D01*
X10572439Y-2051808D02*
X10572426Y-2051829D01*
X16120604Y-2735915D02*
X16116499Y-2733315D01*
X11402814Y-2501903D02*
X11407555Y-2502967D01*
X18265604Y-9929085D02*
X18269832Y-9926690D01*
X13598503Y-2528997D02*
X13601854Y-2532516D01*
X12550737Y-2570262D02*
X12552033Y-2574945D01*
X12455988Y-2500000D02*
X12460858Y-2500120D01*
X17145000Y-2650988D02*
X17145000Y-2599012D01*
X11785467Y-10090055D02*
X11784402Y-10085314D01*
X11470810Y-10112668D02*
X11468415Y-10116896D01*
X16086585Y-10116896D02*
X16084190Y-10112668D01*
X16082005Y-10108328D02*
X16080036Y-10103886D01*
X13575168Y-2738310D02*
X13570828Y-2740495D01*
X16770055Y-2747033D02*
X16765314Y-2748097D01*
X17869396Y-9929085D02*
X17873501Y-9931685D01*
X17865168Y-2511690D02*
X17869396Y-2514085D01*
X18231585Y-10116896D02*
X18229190Y-10112668D01*
X13927500Y-10065988D02*
X13927500Y-10014012D01*
X11388358Y-10164880D02*
X11383488Y-10165000D01*
X16171512Y-10165000D02*
X16166642Y-10164880D01*
X17898017Y-2540026D02*
X17900815Y-2543999D01*
X19137780Y-10585699D02*
X19137786Y-10585676D01*
X10595670Y-10641493D02*
X10596561Y-10642262D01*
X15715828Y-10155495D02*
X15711385Y-10157464D01*
X19067838Y-10660992D02*
X19067862Y-10660986D01*
X13953146Y-2532516D02*
X13956497Y-2528997D01*
X11474964Y-2688886D02*
X11472995Y-2693328D01*
X10560072Y-9914354D02*
X10560091Y-9914400D01*
X12911672Y-9924505D02*
X12916114Y-9922536D01*
X19088171Y-10652574D02*
X19088192Y-10652561D01*
X10596599Y-10642293D02*
X10597527Y-10643017D01*
X10567199Y-2062887D02*
X10564719Y-2069816D01*
X11460028Y-9951195D02*
X11463017Y-9955026D01*
X12545495Y-10108328D02*
X12543310Y-10112668D01*
X10560509Y-10574774D02*
X10560514Y-10574823D01*
X10562220Y-2079300D02*
X10562214Y-2079324D01*
X19086030Y-10653717D02*
X19086052Y-10653706D01*
X11425828Y-2740495D02*
X11421385Y-2742464D01*
X16842033Y-2675055D02*
X16840737Y-2679738D01*
X18265604Y-2735915D02*
X18261499Y-2733315D01*
X19048600Y-2000423D02*
X19048576Y-2000421D01*
X11478237Y-9985262D02*
X11479533Y-9989945D01*
X19139214Y-2750030D02*
X19139166Y-2750020D01*
X12916114Y-2507536D02*
X12920648Y-2505787D01*
X12907332Y-2738310D02*
X12903104Y-2735915D01*
X12460858Y-10164880D02*
X12455988Y-10165000D01*
X12895026Y-10145517D02*
X12891195Y-10142528D01*
X16084190Y-9967332D02*
X16086585Y-9963104D01*
X17856386Y-2742464D02*
X17851852Y-2744213D01*
X15753017Y-9955026D02*
X15755815Y-9958999D01*
X16837464Y-10103886D02*
X16835495Y-10108328D01*
X17167472Y-9951195D02*
X17170646Y-9947516D01*
X11783572Y-9999474D02*
X11784402Y-9994686D01*
X13552555Y-10162033D02*
X13547814Y-10163097D01*
X17860828Y-9924505D02*
X17865168Y-9926690D01*
X17860828Y-2740495D02*
X17856386Y-2742464D01*
X16138148Y-9920787D02*
X16142762Y-9919263D01*
X12465704Y-2749523D02*
X12460858Y-2749880D01*
X12526003Y-2721003D02*
X12522484Y-2724354D01*
X19137786Y-2079324D02*
X19137780Y-2079300D01*
X19128706Y-2053948D02*
X19128177Y-2052896D01*
X19140000Y-9913773D02*
X19140000Y-2751227D01*
X16080036Y-9976114D02*
X16082005Y-9971672D01*
X12856902Y-10085314D02*
X12856072Y-10080526D01*
X19135672Y-2071004D02*
X19135658Y-2070957D01*
X12916114Y-2742464D02*
X12911672Y-2740495D01*
X17215262Y-2504263D02*
X17219945Y-2502967D01*
X11480597Y-9994686D02*
X11481428Y-9999474D01*
X16091983Y-2540026D02*
X16094972Y-2536195D01*
X10560217Y-10165390D02*
X10560188Y-10165430D01*
X17244012Y-9915000D02*
X17818488Y-9915000D01*
X13615810Y-2552332D02*
X13617995Y-2556672D01*
X17856386Y-9922536D02*
X17860828Y-9924505D01*
X17914533Y-10090055D02*
X17913237Y-10094738D01*
X19109801Y-10636535D02*
X19109819Y-10636518D01*
X16142762Y-2504263D02*
X16147445Y-2502967D01*
X15739984Y-10139354D02*
X15736305Y-10142528D01*
X18269832Y-10153310D02*
X18265604Y-10150915D01*
X16072619Y-10009142D02*
X16072977Y-10004296D01*
X16074402Y-2670314D02*
X16073572Y-2665526D01*
X19051016Y-10664338D02*
X19058295Y-10663259D01*
X16796896Y-9929085D02*
X16801001Y-9931685D01*
X16075467Y-10090055D02*
X16074402Y-10085314D01*
X17917023Y-10004296D02*
X17917380Y-10009142D01*
X11402814Y-9916903D02*
X11407555Y-9917967D01*
X16812484Y-2724354D02*
X16808805Y-2727528D01*
X10560932Y-2750008D02*
X10560883Y-2750013D01*
X19102473Y-10643017D02*
X19103401Y-10642293D01*
X18287762Y-10160737D02*
X18283148Y-10159213D01*
X11449984Y-9940646D02*
X11453503Y-9943997D01*
X10595651Y-2023523D02*
X10590199Y-2028465D01*
X18283148Y-2744213D02*
X18278614Y-2742464D01*
X11784402Y-2579686D02*
X11785467Y-2574945D01*
X10560932Y-10165008D02*
X10560883Y-10165013D01*
X12552033Y-2574945D02*
X12553097Y-2579686D01*
X18218572Y-2584474D02*
X18219403Y-2579686D01*
X10577570Y-2043477D02*
X10576892Y-2044439D01*
D11*
D12*
X10728000Y-9077500D02*
X10758000Y-9107500D01*
X10758000Y-9077500D02*
X10728000Y-9107500D01*
X10850000Y-6860000D02*
X10880000Y-6890000D01*
X10880000Y-6860000D02*
X10850000Y-6890000D01*
X10873000Y-8487500D02*
X10903000Y-8517500D01*
X10903000Y-8487500D02*
X10873000Y-8517500D01*
X10953000Y-8712500D02*
X10983000Y-8742500D01*
X10983000Y-8712500D02*
X10953000Y-8742500D01*
X11162999Y-9082500D02*
X11192999Y-9112500D01*
X11192999Y-9082500D02*
X11162999Y-9112500D01*
X11350000Y-7870000D02*
X11380000Y-7900000D01*
X11380000Y-7870000D02*
X11350000Y-7900000D01*
X11520000Y-6892500D02*
X11550000Y-6922500D01*
X11550000Y-6892500D02*
X11520000Y-6922500D01*
X11613000Y-9107500D02*
X11643000Y-9137500D01*
X11643000Y-9107500D02*
X11613000Y-9137500D01*
X11905000Y-7885000D02*
X11935000Y-7915000D01*
X11935000Y-7885000D02*
X11905000Y-7915000D01*
X11920000Y-8200000D02*
X11950000Y-8230000D01*
X11950000Y-8200000D02*
X11920000Y-8230000D01*
X11925000Y-8070000D02*
X11955000Y-8100000D01*
X11955000Y-8070000D02*
X11925000Y-8100000D01*
X11965000Y-7820000D02*
X11995000Y-7850000D01*
X11995000Y-7820000D02*
X11965000Y-7850000D01*
X12025000Y-7704829D02*
X12055000Y-7734829D01*
X12055000Y-7704829D02*
X12025000Y-7734829D01*
X12145000Y-5085000D02*
X12175000Y-5115000D01*
X12175000Y-5085000D02*
X12145000Y-5115000D01*
X12145000Y-5565000D02*
X12175000Y-5595000D01*
X12175000Y-5565000D02*
X12145000Y-5595000D01*
X12150000Y-3105000D02*
X12180000Y-3135000D01*
X12180000Y-3105000D02*
X12150000Y-3135000D01*
X12150000Y-3610000D02*
X12180000Y-3640000D01*
X12180000Y-3610000D02*
X12150000Y-3640000D01*
X12150000Y-4100000D02*
X12180000Y-4130000D01*
X12180000Y-4100000D02*
X12150000Y-4130000D01*
X12150000Y-4600000D02*
X12180000Y-4630000D01*
X12180000Y-4600000D02*
X12150000Y-4630000D01*
X12285000Y-7305000D02*
X12315000Y-7335000D01*
X12315000Y-7305000D02*
X12285000Y-7335000D01*
X12290000Y-8210000D02*
X12320000Y-8240000D01*
X12320000Y-8210000D02*
X12290000Y-8240000D01*
X12350000Y-3050000D02*
X12380000Y-3080000D01*
X12380000Y-3050000D02*
X12350000Y-3080000D01*
X12755117Y-3100034D02*
X12785117Y-3130034D01*
X12785117Y-3100034D02*
X12755117Y-3130034D01*
X12770000Y-8015000D02*
X12800000Y-8045000D01*
X12800000Y-8015000D02*
X12770000Y-8045000D01*
X12770000Y-8150000D02*
X12800000Y-8180000D01*
X12800000Y-8150000D02*
X12770000Y-8180000D01*
X12773895Y-4574494D02*
X12803895Y-4604494D01*
X12803895Y-4574494D02*
X12773895Y-4604494D01*
X12775000Y-3585000D02*
X12805000Y-3615000D01*
X12805000Y-3585000D02*
X12775000Y-3615000D01*
X12775000Y-4073136D02*
X12805000Y-4103136D01*
X12805000Y-4073136D02*
X12775000Y-4103136D01*
X12776206Y-5062530D02*
X12806206Y-5092530D01*
X12806206Y-5062530D02*
X12776206Y-5092530D01*
X12780000Y-4325000D02*
X12810000Y-4355000D01*
X12810000Y-4325000D02*
X12780000Y-4355000D01*
X12780000Y-5310000D02*
X12810000Y-5340000D01*
X12810000Y-5310000D02*
X12780000Y-5340000D01*
X12781346Y-5557042D02*
X12811346Y-5587042D01*
X12811346Y-5557042D02*
X12781346Y-5587042D01*
X12785000Y-3315000D02*
X12815000Y-3345000D01*
X12815000Y-3315000D02*
X12785000Y-3345000D01*
X12785000Y-3835000D02*
X12815000Y-3865000D01*
X12815000Y-3835000D02*
X12785000Y-3865000D01*
X12785000Y-4795000D02*
X12815000Y-4825000D01*
X12815000Y-4795000D02*
X12785000Y-4825000D01*
X12785000Y-5785000D02*
X12815000Y-5815000D01*
X12815000Y-5785000D02*
X12785000Y-5815000D01*
X12834613Y-5952431D02*
X12864613Y-5982431D01*
X12864613Y-5952431D02*
X12834613Y-5982431D01*
X12846538Y-6031538D02*
X12876538Y-6061538D01*
X12876538Y-6031538D02*
X12846538Y-6061538D01*
X12910000Y-8010000D02*
X12940000Y-8040000D01*
X12940000Y-8010000D02*
X12910000Y-8040000D01*
X12910000Y-8150000D02*
X12940000Y-8180000D01*
X12940000Y-8150000D02*
X12910000Y-8180000D01*
X13015000Y-4340000D02*
X13045000Y-4370000D01*
X13045000Y-4340000D02*
X13015000Y-4370000D01*
X13020000Y-3355000D02*
X13050000Y-3385000D01*
X13050000Y-3355000D02*
X13020000Y-3385000D01*
X13025000Y-3850000D02*
X13055000Y-3880000D01*
X13055000Y-3850000D02*
X13025000Y-3880000D01*
X13035000Y-4840000D02*
X13065000Y-4870000D01*
X13065000Y-4840000D02*
X13035000Y-4870000D01*
X13035000Y-5325000D02*
X13065000Y-5355000D01*
X13065000Y-5325000D02*
X13035000Y-5355000D01*
X13040000Y-5855000D02*
X13070000Y-5885000D01*
X13070000Y-5855000D02*
X13040000Y-5885000D01*
X13255000Y-3390000D02*
X13285000Y-3420000D01*
X13285000Y-3390000D02*
X13255000Y-3420000D01*
X13300000Y-3915000D02*
X13330000Y-3945000D01*
X13330000Y-3915000D02*
X13300000Y-3945000D01*
X13313957Y-4880000D02*
X13343957Y-4910000D01*
X13343957Y-4880000D02*
X13313957Y-4910000D01*
X13315000Y-2885000D02*
X13345000Y-2915000D01*
X13345000Y-2885000D02*
X13315000Y-2915000D01*
X13315000Y-4420000D02*
X13345000Y-4450000D01*
X13345000Y-4420000D02*
X13315000Y-4450000D01*
X13315000Y-5360000D02*
X13345000Y-5390000D01*
X13345000Y-5360000D02*
X13315000Y-5390000D01*
X13500000Y-3829999D02*
X13530000Y-3859999D01*
X13530000Y-3829999D02*
X13500000Y-3859999D01*
X13510000Y-4810000D02*
X13540000Y-4840000D01*
X13540000Y-4810000D02*
X13510000Y-4840000D01*
X13540000Y-5865000D02*
X13570000Y-5895000D01*
X13570000Y-5865000D02*
X13540000Y-5895000D01*
X13540000Y-5945000D02*
X13570000Y-5975000D01*
X13570000Y-5945000D02*
X13540000Y-5975000D01*
X13545000Y-5770000D02*
X13575000Y-5800000D01*
X13575000Y-5770000D02*
X13545000Y-5800000D01*
X13595000Y-5210000D02*
X13625000Y-5240000D01*
X13625000Y-5210000D02*
X13595000Y-5240000D01*
X13655000Y-3830000D02*
X13685000Y-3860000D01*
X13685000Y-3830000D02*
X13655000Y-3860000D01*
X13660000Y-4810000D02*
X13690000Y-4840000D01*
X13690000Y-4810000D02*
X13660000Y-4840000D01*
X13725000Y-7310000D02*
X13755000Y-7340000D01*
X13755000Y-7310000D02*
X13725000Y-7340000D01*
X13855000Y-3100000D02*
X13885000Y-3130000D01*
X13885000Y-3100000D02*
X13855000Y-3130000D01*
X14020001Y-3160000D02*
X14050001Y-3190000D01*
X14050001Y-3160000D02*
X14020001Y-3190000D01*
X14089702Y-3559105D02*
X14119702Y-3589105D01*
X14119702Y-3559105D02*
X14089702Y-3589105D01*
X14125001Y-3635000D02*
X14155001Y-3665000D01*
X14155001Y-3635000D02*
X14125001Y-3665000D01*
X14165000Y-4030000D02*
X14195000Y-4060000D01*
X14195000Y-4030000D02*
X14165000Y-4060000D01*
X14215000Y-4095000D02*
X14245000Y-4125000D01*
X14245000Y-4095000D02*
X14215000Y-4125000D01*
X14245000Y-4560000D02*
X14275000Y-4590000D01*
X14275000Y-4560000D02*
X14245000Y-4590000D01*
X14295000Y-4625000D02*
X14325000Y-4655000D01*
X14325000Y-4625000D02*
X14295000Y-4655000D01*
X14323553Y-5063310D02*
X14353553Y-5093310D01*
X14353553Y-5063310D02*
X14323553Y-5093310D01*
X14380000Y-5130000D02*
X14410000Y-5160000D01*
X14410000Y-5130000D02*
X14380000Y-5160000D01*
X14400000Y-5540000D02*
X14430000Y-5570000D01*
X14430000Y-5540000D02*
X14400000Y-5570000D01*
X14440000Y-5610000D02*
X14470000Y-5640000D01*
X14470000Y-5610000D02*
X14440000Y-5640000D01*
X14530000Y-5210000D02*
X14560000Y-5240000D01*
X14560000Y-5210000D02*
X14530000Y-5240000D01*
X14540000Y-5770000D02*
X14570000Y-5800000D01*
X14570000Y-5770000D02*
X14540000Y-5800000D01*
X14565000Y-5865000D02*
X14595000Y-5895000D01*
X14595000Y-5865000D02*
X14565000Y-5895000D01*
X14625007Y-5945003D02*
X14655007Y-5975003D01*
X14655007Y-5945003D02*
X14625007Y-5975003D01*
X15018000Y-9077500D02*
X15048000Y-9107500D01*
X15048000Y-9077500D02*
X15018000Y-9107500D01*
X15140000Y-6860000D02*
X15170000Y-6890000D01*
X15170000Y-6860000D02*
X15140000Y-6890000D01*
X15163000Y-8487500D02*
X15193000Y-8517500D01*
X15193000Y-8487500D02*
X15163000Y-8517500D01*
X15243000Y-8712500D02*
X15273000Y-8742500D01*
X15273000Y-8712500D02*
X15243000Y-8742500D01*
X15452999Y-9082500D02*
X15482999Y-9112500D01*
X15482999Y-9082500D02*
X15452999Y-9112500D01*
X15640000Y-7870000D02*
X15670000Y-7900000D01*
X15670000Y-7870000D02*
X15640000Y-7900000D01*
X15810000Y-6892500D02*
X15840000Y-6922500D01*
X15840000Y-6892500D02*
X15810000Y-6922500D01*
X15903000Y-9107500D02*
X15933000Y-9137500D01*
X15933000Y-9107500D02*
X15903000Y-9137500D01*
X16195000Y-7885000D02*
X16225000Y-7915000D01*
X16225000Y-7885000D02*
X16195000Y-7915000D01*
X16210000Y-8200000D02*
X16240000Y-8230000D01*
X16240000Y-8200000D02*
X16210000Y-8230000D01*
X16215000Y-8070000D02*
X16245000Y-8100000D01*
X16245000Y-8070000D02*
X16215000Y-8100000D01*
X16255000Y-7820000D02*
X16285000Y-7850000D01*
X16285000Y-7820000D02*
X16255000Y-7850000D01*
X16315000Y-7704829D02*
X16345000Y-7734829D01*
X16345000Y-7704829D02*
X16315000Y-7734829D01*
X16435000Y-5085000D02*
X16465000Y-5115000D01*
X16465000Y-5085000D02*
X16435000Y-5115000D01*
X16435000Y-5565000D02*
X16465000Y-5595000D01*
X16465000Y-5565000D02*
X16435000Y-5595000D01*
X16440000Y-3105000D02*
X16470000Y-3135000D01*
X16470000Y-3105000D02*
X16440000Y-3135000D01*
X16440000Y-3610000D02*
X16470000Y-3640000D01*
X16470000Y-3610000D02*
X16440000Y-3640000D01*
X16440000Y-4100000D02*
X16470000Y-4130000D01*
X16470000Y-4100000D02*
X16440000Y-4130000D01*
X16440000Y-4600000D02*
X16470000Y-4630000D01*
X16470000Y-4600000D02*
X16440000Y-4630000D01*
X16575000Y-7305000D02*
X16605000Y-7335000D01*
X16605000Y-7305000D02*
X16575000Y-7335000D01*
X16580000Y-8210000D02*
X16610000Y-8240000D01*
X16610000Y-8210000D02*
X16580000Y-8240000D01*
X16640000Y-3050000D02*
X16670000Y-3080000D01*
X16670000Y-3050000D02*
X16640000Y-3080000D01*
X17045117Y-3100034D02*
X17075117Y-3130034D01*
X17075117Y-3100034D02*
X17045117Y-3130034D01*
X17060000Y-8015000D02*
X17090000Y-8045000D01*
X17090000Y-8015000D02*
X17060000Y-8045000D01*
X17060000Y-8150000D02*
X17090000Y-8180000D01*
X17090000Y-8150000D02*
X17060000Y-8180000D01*
X17063895Y-4574494D02*
X17093895Y-4604494D01*
X17093895Y-4574494D02*
X17063895Y-4604494D01*
X17065000Y-3585000D02*
X17095000Y-3615000D01*
X17095000Y-3585000D02*
X17065000Y-3615000D01*
X17065000Y-4073136D02*
X17095000Y-4103136D01*
X17095000Y-4073136D02*
X17065000Y-4103136D01*
X17066206Y-5062530D02*
X17096206Y-5092530D01*
X17096206Y-5062530D02*
X17066206Y-5092530D01*
X17070000Y-4325000D02*
X17100000Y-4355000D01*
X17100000Y-4325000D02*
X17070000Y-4355000D01*
X17070000Y-5310000D02*
X17100000Y-5340000D01*
X17100000Y-5310000D02*
X17070000Y-5340000D01*
X17071346Y-5557042D02*
X17101346Y-5587042D01*
X17101346Y-5557042D02*
X17071346Y-5587042D01*
X17075000Y-3315000D02*
X17105000Y-3345000D01*
X17105000Y-3315000D02*
X17075000Y-3345000D01*
X17075000Y-3835000D02*
X17105000Y-3865000D01*
X17105000Y-3835000D02*
X17075000Y-3865000D01*
X17075000Y-4795000D02*
X17105000Y-4825000D01*
X17105000Y-4795000D02*
X17075000Y-4825000D01*
X17075000Y-5785000D02*
X17105000Y-5815000D01*
X17105000Y-5785000D02*
X17075000Y-5815000D01*
X17124613Y-5952431D02*
X17154613Y-5982431D01*
X17154613Y-5952431D02*
X17124613Y-5982431D01*
X17136538Y-6031538D02*
X17166538Y-6061538D01*
X17166538Y-6031538D02*
X17136538Y-6061538D01*
X17200000Y-8010000D02*
X17230000Y-8040000D01*
X17230000Y-8010000D02*
X17200000Y-8040000D01*
X17200000Y-8150000D02*
X17230000Y-8180000D01*
X17230000Y-8150000D02*
X17200000Y-8180000D01*
X17305000Y-4340000D02*
X17335000Y-4370000D01*
X17335000Y-4340000D02*
X17305000Y-4370000D01*
X17310000Y-3355000D02*
X17340000Y-3385000D01*
X17340000Y-3355000D02*
X17310000Y-3385000D01*
X17315000Y-3850000D02*
X17345000Y-3880000D01*
X17345000Y-3850000D02*
X17315000Y-3880000D01*
X17325000Y-4840000D02*
X17355000Y-4870000D01*
X17355000Y-4840000D02*
X17325000Y-4870000D01*
X17325000Y-5325000D02*
X17355000Y-5355000D01*
X17355000Y-5325000D02*
X17325000Y-5355000D01*
X17330000Y-5855000D02*
X17360000Y-5885000D01*
X17360000Y-5855000D02*
X17330000Y-5885000D01*
X17545000Y-3390000D02*
X17575000Y-3420000D01*
X17575000Y-3390000D02*
X17545000Y-3420000D01*
X17590000Y-3915000D02*
X17620000Y-3945000D01*
X17620000Y-3915000D02*
X17590000Y-3945000D01*
X17603957Y-4880000D02*
X17633957Y-4910000D01*
X17633957Y-4880000D02*
X17603957Y-4910000D01*
X17605000Y-2885000D02*
X17635000Y-2915000D01*
X17635000Y-2885000D02*
X17605000Y-2915000D01*
X17605000Y-4420000D02*
X17635000Y-4450000D01*
X17635000Y-4420000D02*
X17605000Y-4450000D01*
X17605000Y-5360000D02*
X17635000Y-5390000D01*
X17635000Y-5360000D02*
X17605000Y-5390000D01*
X17790000Y-3829999D02*
X17820000Y-3859999D01*
X17820000Y-3829999D02*
X17790000Y-3859999D01*
X17800000Y-4810000D02*
X17830000Y-4840000D01*
X17830000Y-4810000D02*
X17800000Y-4840000D01*
X17830000Y-5865000D02*
X17860000Y-5895000D01*
X17860000Y-5865000D02*
X17830000Y-5895000D01*
X17830000Y-5945000D02*
X17860000Y-5975000D01*
X17860000Y-5945000D02*
X17830000Y-5975000D01*
X17835000Y-5770000D02*
X17865000Y-5800000D01*
X17865000Y-5770000D02*
X17835000Y-5800000D01*
X17885000Y-5210000D02*
X17915000Y-5240000D01*
X17915000Y-5210000D02*
X17885000Y-5240000D01*
X17945000Y-3830000D02*
X17975000Y-3860000D01*
X17975000Y-3830000D02*
X17945000Y-3860000D01*
X17950000Y-4810000D02*
X17980000Y-4840000D01*
X17980000Y-4810000D02*
X17950000Y-4840000D01*
X18015000Y-7310000D02*
X18045000Y-7340000D01*
X18045000Y-7310000D02*
X18015000Y-7340000D01*
X18145000Y-3100000D02*
X18175000Y-3130000D01*
X18175000Y-3100000D02*
X18145000Y-3130000D01*
X18310001Y-3160000D02*
X18340001Y-3190000D01*
X18340001Y-3160000D02*
X18310001Y-3190000D01*
X18379702Y-3559105D02*
X18409702Y-3589105D01*
X18409702Y-3559105D02*
X18379702Y-3589105D01*
X18415001Y-3635000D02*
X18445001Y-3665000D01*
X18445001Y-3635000D02*
X18415001Y-3665000D01*
X18455000Y-4030000D02*
X18485000Y-4060000D01*
X18485000Y-4030000D02*
X18455000Y-4060000D01*
X18505000Y-4095000D02*
X18535000Y-4125000D01*
X18535000Y-4095000D02*
X18505000Y-4125000D01*
X18535000Y-4560000D02*
X18565000Y-4590000D01*
X18565000Y-4560000D02*
X18535000Y-4590000D01*
X18585000Y-4625000D02*
X18615000Y-4655000D01*
X18615000Y-4625000D02*
X18585000Y-4655000D01*
X18613553Y-5063310D02*
X18643553Y-5093310D01*
X18643553Y-5063310D02*
X18613553Y-5093310D01*
X18670000Y-5130000D02*
X18700000Y-5160000D01*
X18700000Y-5130000D02*
X18670000Y-5160000D01*
X18690000Y-5540000D02*
X18720000Y-5570000D01*
X18720000Y-5540000D02*
X18690000Y-5570000D01*
X18730000Y-5610000D02*
X18760000Y-5640000D01*
X18760000Y-5610000D02*
X18730000Y-5640000D01*
X18820000Y-5210000D02*
X18850000Y-5240000D01*
X18850000Y-5210000D02*
X18820000Y-5240000D01*
X18830000Y-5770000D02*
X18860000Y-5800000D01*
X18860000Y-5770000D02*
X18830000Y-5800000D01*
X18855000Y-5865000D02*
X18885000Y-5895000D01*
X18885000Y-5865000D02*
X18855000Y-5895000D01*
X18915007Y-5945003D02*
X18945007Y-5975003D01*
X18945007Y-5945003D02*
X18915007Y-5975003D01*
D13*
X10796000Y-9327000D02*
G75*
G03*
X10796000Y-9327000I-30000J0D01*
G01*
D11*
X10736000Y-9272000D02*
X10736000Y-9382000D01*
X10736000Y-9382000D02*
G75*
G03*
X10796000Y-9382000I30000J0D01*
G01*
X10796000Y-9382000D02*
X10796000Y-9272000D01*
X10796000Y-9272000D02*
G75*
G03*
X10736000Y-9272000I-30000J0D01*
G01*
D13*
X10796000Y-9745000D02*
G75*
G03*
X10796000Y-9745000I-30000J0D01*
G01*
D11*
X10736000Y-9715000D02*
X10736000Y-9775000D01*
X10736000Y-9775000D02*
G75*
G03*
X10796000Y-9775000I30000J0D01*
G01*
X10796000Y-9775000D02*
X10796000Y-9715000D01*
X10796000Y-9715000D02*
G75*
G03*
X10736000Y-9715000I-30000J0D01*
G01*
D13*
X11660000Y-9327000D02*
G75*
G03*
X11660000Y-9327000I-30000J0D01*
G01*
D11*
X11600000Y-9272000D02*
X11600000Y-9382000D01*
X11600000Y-9382000D02*
G75*
G03*
X11660000Y-9382000I30000J0D01*
G01*
X11660000Y-9382000D02*
X11660000Y-9272000D01*
X11660000Y-9272000D02*
G75*
G03*
X11600000Y-9272000I-30000J0D01*
G01*
D13*
X11660000Y-9745000D02*
G75*
G03*
X11660000Y-9745000I-30000J0D01*
G01*
D11*
X11600000Y-9715000D02*
X11600000Y-9775000D01*
X11600000Y-9775000D02*
G75*
G03*
X11660000Y-9775000I30000J0D01*
G01*
X11660000Y-9775000D02*
X11660000Y-9715000D01*
X11660000Y-9715000D02*
G75*
G03*
X11600000Y-9715000I-30000J0D01*
G01*
D13*
X15086000Y-9327000D02*
G75*
G03*
X15086000Y-9327000I-30000J0D01*
G01*
D11*
X15026000Y-9272000D02*
X15026000Y-9382000D01*
X15026000Y-9382000D02*
G75*
G03*
X15086000Y-9382000I30000J0D01*
G01*
X15086000Y-9382000D02*
X15086000Y-9272000D01*
X15086000Y-9272000D02*
G75*
G03*
X15026000Y-9272000I-30000J0D01*
G01*
D13*
X15086000Y-9745000D02*
G75*
G03*
X15086000Y-9745000I-30000J0D01*
G01*
D11*
X15026000Y-9715000D02*
X15026000Y-9775000D01*
X15026000Y-9775000D02*
G75*
G03*
X15086000Y-9775000I30000J0D01*
G01*
X15086000Y-9775000D02*
X15086000Y-9715000D01*
X15086000Y-9715000D02*
G75*
G03*
X15026000Y-9715000I-30000J0D01*
G01*
D13*
X15950000Y-9327000D02*
G75*
G03*
X15950000Y-9327000I-30000J0D01*
G01*
D11*
X15890000Y-9272000D02*
X15890000Y-9382000D01*
X15890000Y-9382000D02*
G75*
G03*
X15950000Y-9382000I30000J0D01*
G01*
X15950000Y-9382000D02*
X15950000Y-9272000D01*
X15950000Y-9272000D02*
G75*
G03*
X15890000Y-9272000I-30000J0D01*
G01*
D13*
X15950000Y-9745000D02*
G75*
G03*
X15950000Y-9745000I-30000J0D01*
G01*
D11*
X15890000Y-9715000D02*
X15890000Y-9775000D01*
X15890000Y-9775000D02*
G75*
G03*
X15950000Y-9775000I30000J0D01*
G01*
X15950000Y-9775000D02*
X15950000Y-9715000D01*
X15950000Y-9715000D02*
G75*
G03*
X15890000Y-9715000I-30000J0D01*
G01*
X10815777Y-10981484D02*
X10815777Y-10781484D01*
X10815777Y-10781484D02*
X10863396Y-10781484D01*
X10863396Y-10781484D02*
X10891967Y-10791008D01*
X10891967Y-10791008D02*
X10911015Y-10810055D01*
X10911015Y-10810055D02*
X10920539Y-10829103D01*
X10920539Y-10829103D02*
X10930063Y-10867198D01*
X10930063Y-10867198D02*
X10930063Y-10895770D01*
X10930063Y-10895770D02*
X10920539Y-10933865D01*
X10920539Y-10933865D02*
X10911015Y-10952912D01*
X10911015Y-10952912D02*
X10891967Y-10971960D01*
X10891967Y-10971960D02*
X10863396Y-10981484D01*
X10863396Y-10981484D02*
X10815777Y-10981484D01*
X11015777Y-10981484D02*
X11015777Y-10848150D01*
X11015777Y-10886246D02*
X11025301Y-10867198D01*
X11025301Y-10867198D02*
X11034824Y-10857674D01*
X11034824Y-10857674D02*
X11053872Y-10848150D01*
X11053872Y-10848150D02*
X11072920Y-10848150D01*
X11139586Y-10981484D02*
X11139586Y-10848150D01*
X11139586Y-10781484D02*
X11130063Y-10791008D01*
X11130063Y-10791008D02*
X11139586Y-10800531D01*
X11139586Y-10800531D02*
X11149110Y-10791008D01*
X11149110Y-10791008D02*
X11139586Y-10781484D01*
X11139586Y-10781484D02*
X11139586Y-10800531D01*
X11263396Y-10981484D02*
X11244348Y-10971960D01*
X11244348Y-10971960D02*
X11234824Y-10952912D01*
X11234824Y-10952912D02*
X11234824Y-10781484D01*
X11368158Y-10981484D02*
X11349110Y-10971960D01*
X11349110Y-10971960D02*
X11339586Y-10952912D01*
X11339586Y-10952912D02*
X11339586Y-10781484D01*
X11596729Y-10981484D02*
X11596729Y-10781484D01*
X11596729Y-10781484D02*
X11663396Y-10924341D01*
X11663396Y-10924341D02*
X11730062Y-10781484D01*
X11730062Y-10781484D02*
X11730062Y-10981484D01*
X11911015Y-10981484D02*
X11911015Y-10876722D01*
X11911015Y-10876722D02*
X11901491Y-10857674D01*
X11901491Y-10857674D02*
X11882443Y-10848150D01*
X11882443Y-10848150D02*
X11844348Y-10848150D01*
X11844348Y-10848150D02*
X11825301Y-10857674D01*
X11911015Y-10971960D02*
X11891967Y-10981484D01*
X11891967Y-10981484D02*
X11844348Y-10981484D01*
X11844348Y-10981484D02*
X11825301Y-10971960D01*
X11825301Y-10971960D02*
X11815777Y-10952912D01*
X11815777Y-10952912D02*
X11815777Y-10933865D01*
X11815777Y-10933865D02*
X11825301Y-10914817D01*
X11825301Y-10914817D02*
X11844348Y-10905293D01*
X11844348Y-10905293D02*
X11891967Y-10905293D01*
X11891967Y-10905293D02*
X11911015Y-10895770D01*
X12006253Y-10848150D02*
X12006253Y-11048150D01*
X12006253Y-10857674D02*
X12025301Y-10848150D01*
X12025301Y-10848150D02*
X12063396Y-10848150D01*
X12063396Y-10848150D02*
X12082443Y-10857674D01*
X12082443Y-10857674D02*
X12091967Y-10867198D01*
X12091967Y-10867198D02*
X12101491Y-10886246D01*
X12101491Y-10886246D02*
X12101491Y-10943389D01*
X12101491Y-10943389D02*
X12091967Y-10962436D01*
X12091967Y-10962436D02*
X12082443Y-10971960D01*
X12082443Y-10971960D02*
X12063396Y-10981484D01*
X12063396Y-10981484D02*
X12025301Y-10981484D01*
X12025301Y-10981484D02*
X12006253Y-10971960D01*
X12187205Y-10962436D02*
X12196729Y-10971960D01*
X12196729Y-10971960D02*
X12187205Y-10981484D01*
X12187205Y-10981484D02*
X12177682Y-10971960D01*
X12177682Y-10971960D02*
X12187205Y-10962436D01*
X12187205Y-10962436D02*
X12187205Y-10981484D01*
X12187205Y-10857674D02*
X12196729Y-10867198D01*
X12196729Y-10867198D02*
X12187205Y-10876722D01*
X12187205Y-10876722D02*
X12177682Y-10867198D01*
X12177682Y-10867198D02*
X12187205Y-10857674D01*
X12187205Y-10857674D02*
X12187205Y-10876722D01*
D12*
X10525000Y-11295000D02*
X10555000Y-11325000D01*
X10555000Y-11295000D02*
X10525000Y-11325000D01*
D11*
X10853872Y-11201484D02*
X10872920Y-11201484D01*
X10872920Y-11201484D02*
X10891967Y-11211008D01*
X10891967Y-11211008D02*
X10901491Y-11220531D01*
X10901491Y-11220531D02*
X10911015Y-11239579D01*
X10911015Y-11239579D02*
X10920539Y-11277674D01*
X10920539Y-11277674D02*
X10920539Y-11325293D01*
X10920539Y-11325293D02*
X10911015Y-11363388D01*
X10911015Y-11363388D02*
X10901491Y-11382436D01*
X10901491Y-11382436D02*
X10891967Y-11391960D01*
X10891967Y-11391960D02*
X10872920Y-11401484D01*
X10872920Y-11401484D02*
X10853872Y-11401484D01*
X10853872Y-11401484D02*
X10834824Y-11391960D01*
X10834824Y-11391960D02*
X10825301Y-11382436D01*
X10825301Y-11382436D02*
X10815777Y-11363388D01*
X10815777Y-11363388D02*
X10806253Y-11325293D01*
X10806253Y-11325293D02*
X10806253Y-11277674D01*
X10806253Y-11277674D02*
X10815777Y-11239579D01*
X10815777Y-11239579D02*
X10825301Y-11220531D01*
X10825301Y-11220531D02*
X10834824Y-11211008D01*
X10834824Y-11211008D02*
X10853872Y-11201484D01*
X11006253Y-11382436D02*
X11015777Y-11391960D01*
X11015777Y-11391960D02*
X11006253Y-11401484D01*
X11006253Y-11401484D02*
X10996729Y-11391960D01*
X10996729Y-11391960D02*
X11006253Y-11382436D01*
X11006253Y-11382436D02*
X11006253Y-11401484D01*
X11082444Y-11201484D02*
X11206253Y-11201484D01*
X11206253Y-11201484D02*
X11139586Y-11277674D01*
X11139586Y-11277674D02*
X11168158Y-11277674D01*
X11168158Y-11277674D02*
X11187205Y-11287198D01*
X11187205Y-11287198D02*
X11196729Y-11296722D01*
X11196729Y-11296722D02*
X11206253Y-11315769D01*
X11206253Y-11315769D02*
X11206253Y-11363388D01*
X11206253Y-11363388D02*
X11196729Y-11382436D01*
X11196729Y-11382436D02*
X11187205Y-11391960D01*
X11187205Y-11391960D02*
X11168158Y-11401484D01*
X11168158Y-11401484D02*
X11111015Y-11401484D01*
X11111015Y-11401484D02*
X11091967Y-11391960D01*
X11091967Y-11391960D02*
X11082444Y-11382436D01*
X11330062Y-11201484D02*
X11349110Y-11201484D01*
X11349110Y-11201484D02*
X11368158Y-11211008D01*
X11368158Y-11211008D02*
X11377682Y-11220531D01*
X11377682Y-11220531D02*
X11387205Y-11239579D01*
X11387205Y-11239579D02*
X11396729Y-11277674D01*
X11396729Y-11277674D02*
X11396729Y-11325293D01*
X11396729Y-11325293D02*
X11387205Y-11363388D01*
X11387205Y-11363388D02*
X11377682Y-11382436D01*
X11377682Y-11382436D02*
X11368158Y-11391960D01*
X11368158Y-11391960D02*
X11349110Y-11401484D01*
X11349110Y-11401484D02*
X11330062Y-11401484D01*
X11330062Y-11401484D02*
X11311015Y-11391960D01*
X11311015Y-11391960D02*
X11301491Y-11382436D01*
X11301491Y-11382436D02*
X11291967Y-11363388D01*
X11291967Y-11363388D02*
X11282443Y-11325293D01*
X11282443Y-11325293D02*
X11282443Y-11277674D01*
X11282443Y-11277674D02*
X11291967Y-11239579D01*
X11291967Y-11239579D02*
X11301491Y-11220531D01*
X11301491Y-11220531D02*
X11311015Y-11211008D01*
X11311015Y-11211008D02*
X11330062Y-11201484D01*
X11520539Y-11201484D02*
X11539586Y-11201484D01*
X11539586Y-11201484D02*
X11558634Y-11211008D01*
X11558634Y-11211008D02*
X11568158Y-11220531D01*
X11568158Y-11220531D02*
X11577682Y-11239579D01*
X11577682Y-11239579D02*
X11587205Y-11277674D01*
X11587205Y-11277674D02*
X11587205Y-11325293D01*
X11587205Y-11325293D02*
X11577682Y-11363388D01*
X11577682Y-11363388D02*
X11568158Y-11382436D01*
X11568158Y-11382436D02*
X11558634Y-11391960D01*
X11558634Y-11391960D02*
X11539586Y-11401484D01*
X11539586Y-11401484D02*
X11520539Y-11401484D01*
X11520539Y-11401484D02*
X11501491Y-11391960D01*
X11501491Y-11391960D02*
X11491967Y-11382436D01*
X11491967Y-11382436D02*
X11482443Y-11363388D01*
X11482443Y-11363388D02*
X11472920Y-11325293D01*
X11472920Y-11325293D02*
X11472920Y-11277674D01*
X11472920Y-11277674D02*
X11482443Y-11239579D01*
X11482443Y-11239579D02*
X11491967Y-11220531D01*
X11491967Y-11220531D02*
X11501491Y-11211008D01*
X11501491Y-11211008D02*
X11520539Y-11201484D01*
X11672920Y-11401484D02*
X11672920Y-11268150D01*
X11672920Y-11287198D02*
X11682443Y-11277674D01*
X11682443Y-11277674D02*
X11701491Y-11268150D01*
X11701491Y-11268150D02*
X11730063Y-11268150D01*
X11730063Y-11268150D02*
X11749110Y-11277674D01*
X11749110Y-11277674D02*
X11758634Y-11296722D01*
X11758634Y-11296722D02*
X11758634Y-11401484D01*
X11758634Y-11296722D02*
X11768158Y-11277674D01*
X11768158Y-11277674D02*
X11787205Y-11268150D01*
X11787205Y-11268150D02*
X11815777Y-11268150D01*
X11815777Y-11268150D02*
X11834824Y-11277674D01*
X11834824Y-11277674D02*
X11844348Y-11296722D01*
X11844348Y-11296722D02*
X11844348Y-11401484D01*
X11939586Y-11401484D02*
X11939586Y-11268150D01*
X11939586Y-11287198D02*
X11949110Y-11277674D01*
X11949110Y-11277674D02*
X11968158Y-11268150D01*
X11968158Y-11268150D02*
X11996729Y-11268150D01*
X11996729Y-11268150D02*
X12015777Y-11277674D01*
X12015777Y-11277674D02*
X12025301Y-11296722D01*
X12025301Y-11296722D02*
X12025301Y-11401484D01*
X12025301Y-11296722D02*
X12034824Y-11277674D01*
X12034824Y-11277674D02*
X12053872Y-11268150D01*
X12053872Y-11268150D02*
X12082443Y-11268150D01*
X12082443Y-11268150D02*
X12101491Y-11277674D01*
X12101491Y-11277674D02*
X12111015Y-11296722D01*
X12111015Y-11296722D02*
X12111015Y-11401484D01*
X12501491Y-11191960D02*
X12330063Y-11449103D01*
X12758634Y-11201484D02*
X12777682Y-11201484D01*
X12777682Y-11201484D02*
X12796729Y-11211008D01*
X12796729Y-11211008D02*
X12806253Y-11220531D01*
X12806253Y-11220531D02*
X12815777Y-11239579D01*
X12815777Y-11239579D02*
X12825301Y-11277674D01*
X12825301Y-11277674D02*
X12825301Y-11325293D01*
X12825301Y-11325293D02*
X12815777Y-11363388D01*
X12815777Y-11363388D02*
X12806253Y-11382436D01*
X12806253Y-11382436D02*
X12796729Y-11391960D01*
X12796729Y-11391960D02*
X12777682Y-11401484D01*
X12777682Y-11401484D02*
X12758634Y-11401484D01*
X12758634Y-11401484D02*
X12739586Y-11391960D01*
X12739586Y-11391960D02*
X12730063Y-11382436D01*
X12730063Y-11382436D02*
X12720539Y-11363388D01*
X12720539Y-11363388D02*
X12711015Y-11325293D01*
X12711015Y-11325293D02*
X12711015Y-11277674D01*
X12711015Y-11277674D02*
X12720539Y-11239579D01*
X12720539Y-11239579D02*
X12730063Y-11220531D01*
X12730063Y-11220531D02*
X12739586Y-11211008D01*
X12739586Y-11211008D02*
X12758634Y-11201484D01*
X12911015Y-11382436D02*
X12920539Y-11391960D01*
X12920539Y-11391960D02*
X12911015Y-11401484D01*
X12911015Y-11401484D02*
X12901491Y-11391960D01*
X12901491Y-11391960D02*
X12911015Y-11382436D01*
X12911015Y-11382436D02*
X12911015Y-11401484D01*
X13044348Y-11201484D02*
X13063396Y-11201484D01*
X13063396Y-11201484D02*
X13082444Y-11211008D01*
X13082444Y-11211008D02*
X13091967Y-11220531D01*
X13091967Y-11220531D02*
X13101491Y-11239579D01*
X13101491Y-11239579D02*
X13111015Y-11277674D01*
X13111015Y-11277674D02*
X13111015Y-11325293D01*
X13111015Y-11325293D02*
X13101491Y-11363388D01*
X13101491Y-11363388D02*
X13091967Y-11382436D01*
X13091967Y-11382436D02*
X13082444Y-11391960D01*
X13082444Y-11391960D02*
X13063396Y-11401484D01*
X13063396Y-11401484D02*
X13044348Y-11401484D01*
X13044348Y-11401484D02*
X13025301Y-11391960D01*
X13025301Y-11391960D02*
X13015777Y-11382436D01*
X13015777Y-11382436D02*
X13006253Y-11363388D01*
X13006253Y-11363388D02*
X12996729Y-11325293D01*
X12996729Y-11325293D02*
X12996729Y-11277674D01*
X12996729Y-11277674D02*
X13006253Y-11239579D01*
X13006253Y-11239579D02*
X13015777Y-11220531D01*
X13015777Y-11220531D02*
X13025301Y-11211008D01*
X13025301Y-11211008D02*
X13044348Y-11201484D01*
X13301491Y-11401484D02*
X13187206Y-11401484D01*
X13244348Y-11401484D02*
X13244348Y-11201484D01*
X13244348Y-11201484D02*
X13225301Y-11230055D01*
X13225301Y-11230055D02*
X13206253Y-11249103D01*
X13206253Y-11249103D02*
X13187206Y-11258627D01*
X13491967Y-11401484D02*
X13377682Y-11401484D01*
X13434825Y-11401484D02*
X13434825Y-11201484D01*
X13434825Y-11201484D02*
X13415777Y-11230055D01*
X13415777Y-11230055D02*
X13396729Y-11249103D01*
X13396729Y-11249103D02*
X13377682Y-11258627D01*
X13606253Y-11287198D02*
X13587206Y-11277674D01*
X13587206Y-11277674D02*
X13577682Y-11268150D01*
X13577682Y-11268150D02*
X13568158Y-11249103D01*
X13568158Y-11249103D02*
X13568158Y-11239579D01*
X13568158Y-11239579D02*
X13577682Y-11220531D01*
X13577682Y-11220531D02*
X13587206Y-11211008D01*
X13587206Y-11211008D02*
X13606253Y-11201484D01*
X13606253Y-11201484D02*
X13644348Y-11201484D01*
X13644348Y-11201484D02*
X13663396Y-11211008D01*
X13663396Y-11211008D02*
X13672920Y-11220531D01*
X13672920Y-11220531D02*
X13682444Y-11239579D01*
X13682444Y-11239579D02*
X13682444Y-11249103D01*
X13682444Y-11249103D02*
X13672920Y-11268150D01*
X13672920Y-11268150D02*
X13663396Y-11277674D01*
X13663396Y-11277674D02*
X13644348Y-11287198D01*
X13644348Y-11287198D02*
X13606253Y-11287198D01*
X13606253Y-11287198D02*
X13587206Y-11296722D01*
X13587206Y-11296722D02*
X13577682Y-11306246D01*
X13577682Y-11306246D02*
X13568158Y-11325293D01*
X13568158Y-11325293D02*
X13568158Y-11363388D01*
X13568158Y-11363388D02*
X13577682Y-11382436D01*
X13577682Y-11382436D02*
X13587206Y-11391960D01*
X13587206Y-11391960D02*
X13606253Y-11401484D01*
X13606253Y-11401484D02*
X13644348Y-11401484D01*
X13644348Y-11401484D02*
X13663396Y-11391960D01*
X13663396Y-11391960D02*
X13672920Y-11382436D01*
X13672920Y-11382436D02*
X13682444Y-11363388D01*
X13682444Y-11363388D02*
X13682444Y-11325293D01*
X13682444Y-11325293D02*
X13672920Y-11306246D01*
X13672920Y-11306246D02*
X13663396Y-11296722D01*
X13663396Y-11296722D02*
X13644348Y-11287198D01*
X13758634Y-11201484D02*
X13758634Y-11239579D01*
X13834825Y-11201484D02*
X13834825Y-11239579D01*
X14130063Y-11477674D02*
X14120539Y-11468150D01*
X14120539Y-11468150D02*
X14101491Y-11439579D01*
X14101491Y-11439579D02*
X14091968Y-11420531D01*
X14091968Y-11420531D02*
X14082444Y-11391960D01*
X14082444Y-11391960D02*
X14072920Y-11344341D01*
X14072920Y-11344341D02*
X14072920Y-11306246D01*
X14072920Y-11306246D02*
X14082444Y-11258627D01*
X14082444Y-11258627D02*
X14091968Y-11230055D01*
X14091968Y-11230055D02*
X14101491Y-11211008D01*
X14101491Y-11211008D02*
X14120539Y-11182436D01*
X14120539Y-11182436D02*
X14130063Y-11172912D01*
X14311015Y-11401484D02*
X14196729Y-11401484D01*
X14253872Y-11401484D02*
X14253872Y-11201484D01*
X14253872Y-11201484D02*
X14234825Y-11230055D01*
X14234825Y-11230055D02*
X14215777Y-11249103D01*
X14215777Y-11249103D02*
X14196729Y-11258627D01*
X14491968Y-11201484D02*
X14396729Y-11201484D01*
X14396729Y-11201484D02*
X14387206Y-11296722D01*
X14387206Y-11296722D02*
X14396729Y-11287198D01*
X14396729Y-11287198D02*
X14415777Y-11277674D01*
X14415777Y-11277674D02*
X14463396Y-11277674D01*
X14463396Y-11277674D02*
X14482444Y-11287198D01*
X14482444Y-11287198D02*
X14491968Y-11296722D01*
X14491968Y-11296722D02*
X14501491Y-11315769D01*
X14501491Y-11315769D02*
X14501491Y-11363388D01*
X14501491Y-11363388D02*
X14491968Y-11382436D01*
X14491968Y-11382436D02*
X14482444Y-11391960D01*
X14482444Y-11391960D02*
X14463396Y-11401484D01*
X14463396Y-11401484D02*
X14415777Y-11401484D01*
X14415777Y-11401484D02*
X14396729Y-11391960D01*
X14396729Y-11391960D02*
X14387206Y-11382436D01*
X14672920Y-11268150D02*
X14672920Y-11401484D01*
X14625301Y-11191960D02*
X14577682Y-11334817D01*
X14577682Y-11334817D02*
X14701491Y-11334817D01*
X14930063Y-11401484D02*
X14930063Y-11201484D01*
X15015777Y-11401484D02*
X15015777Y-11296722D01*
X15015777Y-11296722D02*
X15006253Y-11277674D01*
X15006253Y-11277674D02*
X14987206Y-11268150D01*
X14987206Y-11268150D02*
X14958634Y-11268150D01*
X14958634Y-11268150D02*
X14939587Y-11277674D01*
X14939587Y-11277674D02*
X14930063Y-11287198D01*
X15139587Y-11401484D02*
X15120539Y-11391960D01*
X15120539Y-11391960D02*
X15111015Y-11382436D01*
X15111015Y-11382436D02*
X15101491Y-11363388D01*
X15101491Y-11363388D02*
X15101491Y-11306246D01*
X15101491Y-11306246D02*
X15111015Y-11287198D01*
X15111015Y-11287198D02*
X15120539Y-11277674D01*
X15120539Y-11277674D02*
X15139587Y-11268150D01*
X15139587Y-11268150D02*
X15168158Y-11268150D01*
X15168158Y-11268150D02*
X15187206Y-11277674D01*
X15187206Y-11277674D02*
X15196730Y-11287198D01*
X15196730Y-11287198D02*
X15206253Y-11306246D01*
X15206253Y-11306246D02*
X15206253Y-11363388D01*
X15206253Y-11363388D02*
X15196730Y-11382436D01*
X15196730Y-11382436D02*
X15187206Y-11391960D01*
X15187206Y-11391960D02*
X15168158Y-11401484D01*
X15168158Y-11401484D02*
X15139587Y-11401484D01*
X15320539Y-11401484D02*
X15301491Y-11391960D01*
X15301491Y-11391960D02*
X15291968Y-11372912D01*
X15291968Y-11372912D02*
X15291968Y-11201484D01*
X15472920Y-11391960D02*
X15453872Y-11401484D01*
X15453872Y-11401484D02*
X15415777Y-11401484D01*
X15415777Y-11401484D02*
X15396730Y-11391960D01*
X15396730Y-11391960D02*
X15387206Y-11372912D01*
X15387206Y-11372912D02*
X15387206Y-11296722D01*
X15387206Y-11296722D02*
X15396730Y-11277674D01*
X15396730Y-11277674D02*
X15415777Y-11268150D01*
X15415777Y-11268150D02*
X15453872Y-11268150D01*
X15453872Y-11268150D02*
X15472920Y-11277674D01*
X15472920Y-11277674D02*
X15482444Y-11296722D01*
X15482444Y-11296722D02*
X15482444Y-11315769D01*
X15482444Y-11315769D02*
X15387206Y-11334817D01*
X15558634Y-11391960D02*
X15577682Y-11401484D01*
X15577682Y-11401484D02*
X15615777Y-11401484D01*
X15615777Y-11401484D02*
X15634825Y-11391960D01*
X15634825Y-11391960D02*
X15644349Y-11372912D01*
X15644349Y-11372912D02*
X15644349Y-11363388D01*
X15644349Y-11363388D02*
X15634825Y-11344341D01*
X15634825Y-11344341D02*
X15615777Y-11334817D01*
X15615777Y-11334817D02*
X15587206Y-11334817D01*
X15587206Y-11334817D02*
X15568158Y-11325293D01*
X15568158Y-11325293D02*
X15558634Y-11306246D01*
X15558634Y-11306246D02*
X15558634Y-11296722D01*
X15558634Y-11296722D02*
X15568158Y-11277674D01*
X15568158Y-11277674D02*
X15587206Y-11268150D01*
X15587206Y-11268150D02*
X15615777Y-11268150D01*
X15615777Y-11268150D02*
X15634825Y-11277674D01*
X15711015Y-11477674D02*
X15720539Y-11468150D01*
X15720539Y-11468150D02*
X15739587Y-11439579D01*
X15739587Y-11439579D02*
X15749111Y-11420531D01*
X15749111Y-11420531D02*
X15758634Y-11391960D01*
X15758634Y-11391960D02*
X15768158Y-11344341D01*
X15768158Y-11344341D02*
X15768158Y-11306246D01*
X15768158Y-11306246D02*
X15758634Y-11258627D01*
X15758634Y-11258627D02*
X15749111Y-11230055D01*
X15749111Y-11230055D02*
X15739587Y-11211008D01*
X15739587Y-11211008D02*
X15720539Y-11182436D01*
X15720539Y-11182436D02*
X15711015Y-11172912D01*
D13*
X10555000Y-11574000D02*
G75*
G03*
X10555000Y-11574000I-30000J0D01*
G01*
D11*
X10853872Y-11465484D02*
X10872920Y-11465484D01*
X10872920Y-11465484D02*
X10891967Y-11475008D01*
X10891967Y-11475008D02*
X10901491Y-11484531D01*
X10901491Y-11484531D02*
X10911015Y-11503579D01*
X10911015Y-11503579D02*
X10920539Y-11541674D01*
X10920539Y-11541674D02*
X10920539Y-11589293D01*
X10920539Y-11589293D02*
X10911015Y-11627388D01*
X10911015Y-11627388D02*
X10901491Y-11646436D01*
X10901491Y-11646436D02*
X10891967Y-11655960D01*
X10891967Y-11655960D02*
X10872920Y-11665484D01*
X10872920Y-11665484D02*
X10853872Y-11665484D01*
X10853872Y-11665484D02*
X10834824Y-11655960D01*
X10834824Y-11655960D02*
X10825301Y-11646436D01*
X10825301Y-11646436D02*
X10815777Y-11627388D01*
X10815777Y-11627388D02*
X10806253Y-11589293D01*
X10806253Y-11589293D02*
X10806253Y-11541674D01*
X10806253Y-11541674D02*
X10815777Y-11503579D01*
X10815777Y-11503579D02*
X10825301Y-11484531D01*
X10825301Y-11484531D02*
X10834824Y-11475008D01*
X10834824Y-11475008D02*
X10853872Y-11465484D01*
X11006253Y-11646436D02*
X11015777Y-11655960D01*
X11015777Y-11655960D02*
X11006253Y-11665484D01*
X11006253Y-11665484D02*
X10996729Y-11655960D01*
X10996729Y-11655960D02*
X11006253Y-11646436D01*
X11006253Y-11646436D02*
X11006253Y-11665484D01*
X11187205Y-11465484D02*
X11149110Y-11465484D01*
X11149110Y-11465484D02*
X11130063Y-11475008D01*
X11130063Y-11475008D02*
X11120539Y-11484531D01*
X11120539Y-11484531D02*
X11101491Y-11513103D01*
X11101491Y-11513103D02*
X11091967Y-11551198D01*
X11091967Y-11551198D02*
X11091967Y-11627388D01*
X11091967Y-11627388D02*
X11101491Y-11646436D01*
X11101491Y-11646436D02*
X11111015Y-11655960D01*
X11111015Y-11655960D02*
X11130063Y-11665484D01*
X11130063Y-11665484D02*
X11168158Y-11665484D01*
X11168158Y-11665484D02*
X11187205Y-11655960D01*
X11187205Y-11655960D02*
X11196729Y-11646436D01*
X11196729Y-11646436D02*
X11206253Y-11627388D01*
X11206253Y-11627388D02*
X11206253Y-11579769D01*
X11206253Y-11579769D02*
X11196729Y-11560722D01*
X11196729Y-11560722D02*
X11187205Y-11551198D01*
X11187205Y-11551198D02*
X11168158Y-11541674D01*
X11168158Y-11541674D02*
X11130063Y-11541674D01*
X11130063Y-11541674D02*
X11111015Y-11551198D01*
X11111015Y-11551198D02*
X11101491Y-11560722D01*
X11101491Y-11560722D02*
X11091967Y-11579769D01*
X11330062Y-11465484D02*
X11349110Y-11465484D01*
X11349110Y-11465484D02*
X11368158Y-11475008D01*
X11368158Y-11475008D02*
X11377682Y-11484531D01*
X11377682Y-11484531D02*
X11387205Y-11503579D01*
X11387205Y-11503579D02*
X11396729Y-11541674D01*
X11396729Y-11541674D02*
X11396729Y-11589293D01*
X11396729Y-11589293D02*
X11387205Y-11627388D01*
X11387205Y-11627388D02*
X11377682Y-11646436D01*
X11377682Y-11646436D02*
X11368158Y-11655960D01*
X11368158Y-11655960D02*
X11349110Y-11665484D01*
X11349110Y-11665484D02*
X11330062Y-11665484D01*
X11330062Y-11665484D02*
X11311015Y-11655960D01*
X11311015Y-11655960D02*
X11301491Y-11646436D01*
X11301491Y-11646436D02*
X11291967Y-11627388D01*
X11291967Y-11627388D02*
X11282443Y-11589293D01*
X11282443Y-11589293D02*
X11282443Y-11541674D01*
X11282443Y-11541674D02*
X11291967Y-11503579D01*
X11291967Y-11503579D02*
X11301491Y-11484531D01*
X11301491Y-11484531D02*
X11311015Y-11475008D01*
X11311015Y-11475008D02*
X11330062Y-11465484D01*
X11520539Y-11465484D02*
X11539586Y-11465484D01*
X11539586Y-11465484D02*
X11558634Y-11475008D01*
X11558634Y-11475008D02*
X11568158Y-11484531D01*
X11568158Y-11484531D02*
X11577682Y-11503579D01*
X11577682Y-11503579D02*
X11587205Y-11541674D01*
X11587205Y-11541674D02*
X11587205Y-11589293D01*
X11587205Y-11589293D02*
X11577682Y-11627388D01*
X11577682Y-11627388D02*
X11568158Y-11646436D01*
X11568158Y-11646436D02*
X11558634Y-11655960D01*
X11558634Y-11655960D02*
X11539586Y-11665484D01*
X11539586Y-11665484D02*
X11520539Y-11665484D01*
X11520539Y-11665484D02*
X11501491Y-11655960D01*
X11501491Y-11655960D02*
X11491967Y-11646436D01*
X11491967Y-11646436D02*
X11482443Y-11627388D01*
X11482443Y-11627388D02*
X11472920Y-11589293D01*
X11472920Y-11589293D02*
X11472920Y-11541674D01*
X11472920Y-11541674D02*
X11482443Y-11503579D01*
X11482443Y-11503579D02*
X11491967Y-11484531D01*
X11491967Y-11484531D02*
X11501491Y-11475008D01*
X11501491Y-11475008D02*
X11520539Y-11465484D01*
X11672920Y-11665484D02*
X11672920Y-11532150D01*
X11672920Y-11551198D02*
X11682443Y-11541674D01*
X11682443Y-11541674D02*
X11701491Y-11532150D01*
X11701491Y-11532150D02*
X11730063Y-11532150D01*
X11730063Y-11532150D02*
X11749110Y-11541674D01*
X11749110Y-11541674D02*
X11758634Y-11560722D01*
X11758634Y-11560722D02*
X11758634Y-11665484D01*
X11758634Y-11560722D02*
X11768158Y-11541674D01*
X11768158Y-11541674D02*
X11787205Y-11532150D01*
X11787205Y-11532150D02*
X11815777Y-11532150D01*
X11815777Y-11532150D02*
X11834824Y-11541674D01*
X11834824Y-11541674D02*
X11844348Y-11560722D01*
X11844348Y-11560722D02*
X11844348Y-11665484D01*
X11939586Y-11665484D02*
X11939586Y-11532150D01*
X11939586Y-11551198D02*
X11949110Y-11541674D01*
X11949110Y-11541674D02*
X11968158Y-11532150D01*
X11968158Y-11532150D02*
X11996729Y-11532150D01*
X11996729Y-11532150D02*
X12015777Y-11541674D01*
X12015777Y-11541674D02*
X12025301Y-11560722D01*
X12025301Y-11560722D02*
X12025301Y-11665484D01*
X12025301Y-11560722D02*
X12034824Y-11541674D01*
X12034824Y-11541674D02*
X12053872Y-11532150D01*
X12053872Y-11532150D02*
X12082443Y-11532150D01*
X12082443Y-11532150D02*
X12101491Y-11541674D01*
X12101491Y-11541674D02*
X12111015Y-11560722D01*
X12111015Y-11560722D02*
X12111015Y-11665484D01*
X12501491Y-11455960D02*
X12330063Y-11713103D01*
X12758634Y-11465484D02*
X12777682Y-11465484D01*
X12777682Y-11465484D02*
X12796729Y-11475008D01*
X12796729Y-11475008D02*
X12806253Y-11484531D01*
X12806253Y-11484531D02*
X12815777Y-11503579D01*
X12815777Y-11503579D02*
X12825301Y-11541674D01*
X12825301Y-11541674D02*
X12825301Y-11589293D01*
X12825301Y-11589293D02*
X12815777Y-11627388D01*
X12815777Y-11627388D02*
X12806253Y-11646436D01*
X12806253Y-11646436D02*
X12796729Y-11655960D01*
X12796729Y-11655960D02*
X12777682Y-11665484D01*
X12777682Y-11665484D02*
X12758634Y-11665484D01*
X12758634Y-11665484D02*
X12739586Y-11655960D01*
X12739586Y-11655960D02*
X12730063Y-11646436D01*
X12730063Y-11646436D02*
X12720539Y-11627388D01*
X12720539Y-11627388D02*
X12711015Y-11589293D01*
X12711015Y-11589293D02*
X12711015Y-11541674D01*
X12711015Y-11541674D02*
X12720539Y-11503579D01*
X12720539Y-11503579D02*
X12730063Y-11484531D01*
X12730063Y-11484531D02*
X12739586Y-11475008D01*
X12739586Y-11475008D02*
X12758634Y-11465484D01*
X12911015Y-11646436D02*
X12920539Y-11655960D01*
X12920539Y-11655960D02*
X12911015Y-11665484D01*
X12911015Y-11665484D02*
X12901491Y-11655960D01*
X12901491Y-11655960D02*
X12911015Y-11646436D01*
X12911015Y-11646436D02*
X12911015Y-11665484D01*
X13044348Y-11465484D02*
X13063396Y-11465484D01*
X13063396Y-11465484D02*
X13082444Y-11475008D01*
X13082444Y-11475008D02*
X13091967Y-11484531D01*
X13091967Y-11484531D02*
X13101491Y-11503579D01*
X13101491Y-11503579D02*
X13111015Y-11541674D01*
X13111015Y-11541674D02*
X13111015Y-11589293D01*
X13111015Y-11589293D02*
X13101491Y-11627388D01*
X13101491Y-11627388D02*
X13091967Y-11646436D01*
X13091967Y-11646436D02*
X13082444Y-11655960D01*
X13082444Y-11655960D02*
X13063396Y-11665484D01*
X13063396Y-11665484D02*
X13044348Y-11665484D01*
X13044348Y-11665484D02*
X13025301Y-11655960D01*
X13025301Y-11655960D02*
X13015777Y-11646436D01*
X13015777Y-11646436D02*
X13006253Y-11627388D01*
X13006253Y-11627388D02*
X12996729Y-11589293D01*
X12996729Y-11589293D02*
X12996729Y-11541674D01*
X12996729Y-11541674D02*
X13006253Y-11503579D01*
X13006253Y-11503579D02*
X13015777Y-11484531D01*
X13015777Y-11484531D02*
X13025301Y-11475008D01*
X13025301Y-11475008D02*
X13044348Y-11465484D01*
X13187206Y-11484531D02*
X13196729Y-11475008D01*
X13196729Y-11475008D02*
X13215777Y-11465484D01*
X13215777Y-11465484D02*
X13263396Y-11465484D01*
X13263396Y-11465484D02*
X13282444Y-11475008D01*
X13282444Y-11475008D02*
X13291967Y-11484531D01*
X13291967Y-11484531D02*
X13301491Y-11503579D01*
X13301491Y-11503579D02*
X13301491Y-11522627D01*
X13301491Y-11522627D02*
X13291967Y-11551198D01*
X13291967Y-11551198D02*
X13177682Y-11665484D01*
X13177682Y-11665484D02*
X13301491Y-11665484D01*
X13368158Y-11465484D02*
X13491967Y-11465484D01*
X13491967Y-11465484D02*
X13425301Y-11541674D01*
X13425301Y-11541674D02*
X13453872Y-11541674D01*
X13453872Y-11541674D02*
X13472920Y-11551198D01*
X13472920Y-11551198D02*
X13482444Y-11560722D01*
X13482444Y-11560722D02*
X13491967Y-11579769D01*
X13491967Y-11579769D02*
X13491967Y-11627388D01*
X13491967Y-11627388D02*
X13482444Y-11646436D01*
X13482444Y-11646436D02*
X13472920Y-11655960D01*
X13472920Y-11655960D02*
X13453872Y-11665484D01*
X13453872Y-11665484D02*
X13396729Y-11665484D01*
X13396729Y-11665484D02*
X13377682Y-11655960D01*
X13377682Y-11655960D02*
X13368158Y-11646436D01*
X13663396Y-11465484D02*
X13625301Y-11465484D01*
X13625301Y-11465484D02*
X13606253Y-11475008D01*
X13606253Y-11475008D02*
X13596729Y-11484531D01*
X13596729Y-11484531D02*
X13577682Y-11513103D01*
X13577682Y-11513103D02*
X13568158Y-11551198D01*
X13568158Y-11551198D02*
X13568158Y-11627388D01*
X13568158Y-11627388D02*
X13577682Y-11646436D01*
X13577682Y-11646436D02*
X13587206Y-11655960D01*
X13587206Y-11655960D02*
X13606253Y-11665484D01*
X13606253Y-11665484D02*
X13644348Y-11665484D01*
X13644348Y-11665484D02*
X13663396Y-11655960D01*
X13663396Y-11655960D02*
X13672920Y-11646436D01*
X13672920Y-11646436D02*
X13682444Y-11627388D01*
X13682444Y-11627388D02*
X13682444Y-11579769D01*
X13682444Y-11579769D02*
X13672920Y-11560722D01*
X13672920Y-11560722D02*
X13663396Y-11551198D01*
X13663396Y-11551198D02*
X13644348Y-11541674D01*
X13644348Y-11541674D02*
X13606253Y-11541674D01*
X13606253Y-11541674D02*
X13587206Y-11551198D01*
X13587206Y-11551198D02*
X13577682Y-11560722D01*
X13577682Y-11560722D02*
X13568158Y-11579769D01*
X13758634Y-11465484D02*
X13758634Y-11503579D01*
X13834825Y-11465484D02*
X13834825Y-11503579D01*
X14130063Y-11741674D02*
X14120539Y-11732150D01*
X14120539Y-11732150D02*
X14101491Y-11703579D01*
X14101491Y-11703579D02*
X14091968Y-11684531D01*
X14091968Y-11684531D02*
X14082444Y-11655960D01*
X14082444Y-11655960D02*
X14072920Y-11608341D01*
X14072920Y-11608341D02*
X14072920Y-11570246D01*
X14072920Y-11570246D02*
X14082444Y-11522627D01*
X14082444Y-11522627D02*
X14091968Y-11494055D01*
X14091968Y-11494055D02*
X14101491Y-11475008D01*
X14101491Y-11475008D02*
X14120539Y-11446436D01*
X14120539Y-11446436D02*
X14130063Y-11436912D01*
X14244348Y-11465484D02*
X14263396Y-11465484D01*
X14263396Y-11465484D02*
X14282444Y-11475008D01*
X14282444Y-11475008D02*
X14291968Y-11484531D01*
X14291968Y-11484531D02*
X14301491Y-11503579D01*
X14301491Y-11503579D02*
X14311015Y-11541674D01*
X14311015Y-11541674D02*
X14311015Y-11589293D01*
X14311015Y-11589293D02*
X14301491Y-11627388D01*
X14301491Y-11627388D02*
X14291968Y-11646436D01*
X14291968Y-11646436D02*
X14282444Y-11655960D01*
X14282444Y-11655960D02*
X14263396Y-11665484D01*
X14263396Y-11665484D02*
X14244348Y-11665484D01*
X14244348Y-11665484D02*
X14225301Y-11655960D01*
X14225301Y-11655960D02*
X14215777Y-11646436D01*
X14215777Y-11646436D02*
X14206253Y-11627388D01*
X14206253Y-11627388D02*
X14196729Y-11589293D01*
X14196729Y-11589293D02*
X14196729Y-11541674D01*
X14196729Y-11541674D02*
X14206253Y-11503579D01*
X14206253Y-11503579D02*
X14215777Y-11484531D01*
X14215777Y-11484531D02*
X14225301Y-11475008D01*
X14225301Y-11475008D02*
X14244348Y-11465484D01*
X14549110Y-11665484D02*
X14549110Y-11465484D01*
X14634825Y-11665484D02*
X14634825Y-11560722D01*
X14634825Y-11560722D02*
X14625301Y-11541674D01*
X14625301Y-11541674D02*
X14606253Y-11532150D01*
X14606253Y-11532150D02*
X14577682Y-11532150D01*
X14577682Y-11532150D02*
X14558634Y-11541674D01*
X14558634Y-11541674D02*
X14549110Y-11551198D01*
X14758634Y-11665484D02*
X14739587Y-11655960D01*
X14739587Y-11655960D02*
X14730063Y-11646436D01*
X14730063Y-11646436D02*
X14720539Y-11627388D01*
X14720539Y-11627388D02*
X14720539Y-11570246D01*
X14720539Y-11570246D02*
X14730063Y-11551198D01*
X14730063Y-11551198D02*
X14739587Y-11541674D01*
X14739587Y-11541674D02*
X14758634Y-11532150D01*
X14758634Y-11532150D02*
X14787206Y-11532150D01*
X14787206Y-11532150D02*
X14806253Y-11541674D01*
X14806253Y-11541674D02*
X14815777Y-11551198D01*
X14815777Y-11551198D02*
X14825301Y-11570246D01*
X14825301Y-11570246D02*
X14825301Y-11627388D01*
X14825301Y-11627388D02*
X14815777Y-11646436D01*
X14815777Y-11646436D02*
X14806253Y-11655960D01*
X14806253Y-11655960D02*
X14787206Y-11665484D01*
X14787206Y-11665484D02*
X14758634Y-11665484D01*
X14939587Y-11665484D02*
X14920539Y-11655960D01*
X14920539Y-11655960D02*
X14911015Y-11636912D01*
X14911015Y-11636912D02*
X14911015Y-11465484D01*
X15091968Y-11655960D02*
X15072920Y-11665484D01*
X15072920Y-11665484D02*
X15034825Y-11665484D01*
X15034825Y-11665484D02*
X15015777Y-11655960D01*
X15015777Y-11655960D02*
X15006253Y-11636912D01*
X15006253Y-11636912D02*
X15006253Y-11560722D01*
X15006253Y-11560722D02*
X15015777Y-11541674D01*
X15015777Y-11541674D02*
X15034825Y-11532150D01*
X15034825Y-11532150D02*
X15072920Y-11532150D01*
X15072920Y-11532150D02*
X15091968Y-11541674D01*
X15091968Y-11541674D02*
X15101491Y-11560722D01*
X15101491Y-11560722D02*
X15101491Y-11579769D01*
X15101491Y-11579769D02*
X15006253Y-11598817D01*
X15177682Y-11655960D02*
X15196730Y-11665484D01*
X15196730Y-11665484D02*
X15234825Y-11665484D01*
X15234825Y-11665484D02*
X15253872Y-11655960D01*
X15253872Y-11655960D02*
X15263396Y-11636912D01*
X15263396Y-11636912D02*
X15263396Y-11627388D01*
X15263396Y-11627388D02*
X15253872Y-11608341D01*
X15253872Y-11608341D02*
X15234825Y-11598817D01*
X15234825Y-11598817D02*
X15206253Y-11598817D01*
X15206253Y-11598817D02*
X15187206Y-11589293D01*
X15187206Y-11589293D02*
X15177682Y-11570246D01*
X15177682Y-11570246D02*
X15177682Y-11560722D01*
X15177682Y-11560722D02*
X15187206Y-11541674D01*
X15187206Y-11541674D02*
X15206253Y-11532150D01*
X15206253Y-11532150D02*
X15234825Y-11532150D01*
X15234825Y-11532150D02*
X15253872Y-11541674D01*
X15501492Y-11589293D02*
X15653873Y-11589293D01*
X15577682Y-11665484D02*
X15577682Y-11513103D01*
X15930063Y-11551198D02*
X15911015Y-11541674D01*
X15911015Y-11541674D02*
X15901492Y-11532150D01*
X15901492Y-11532150D02*
X15891968Y-11513103D01*
X15891968Y-11513103D02*
X15891968Y-11503579D01*
X15891968Y-11503579D02*
X15901492Y-11484531D01*
X15901492Y-11484531D02*
X15911015Y-11475008D01*
X15911015Y-11475008D02*
X15930063Y-11465484D01*
X15930063Y-11465484D02*
X15968158Y-11465484D01*
X15968158Y-11465484D02*
X15987206Y-11475008D01*
X15987206Y-11475008D02*
X15996730Y-11484531D01*
X15996730Y-11484531D02*
X16006253Y-11503579D01*
X16006253Y-11503579D02*
X16006253Y-11513103D01*
X16006253Y-11513103D02*
X15996730Y-11532150D01*
X15996730Y-11532150D02*
X15987206Y-11541674D01*
X15987206Y-11541674D02*
X15968158Y-11551198D01*
X15968158Y-11551198D02*
X15930063Y-11551198D01*
X15930063Y-11551198D02*
X15911015Y-11560722D01*
X15911015Y-11560722D02*
X15901492Y-11570246D01*
X15901492Y-11570246D02*
X15891968Y-11589293D01*
X15891968Y-11589293D02*
X15891968Y-11627388D01*
X15891968Y-11627388D02*
X15901492Y-11646436D01*
X15901492Y-11646436D02*
X15911015Y-11655960D01*
X15911015Y-11655960D02*
X15930063Y-11665484D01*
X15930063Y-11665484D02*
X15968158Y-11665484D01*
X15968158Y-11665484D02*
X15987206Y-11655960D01*
X15987206Y-11655960D02*
X15996730Y-11646436D01*
X15996730Y-11646436D02*
X16006253Y-11627388D01*
X16006253Y-11627388D02*
X16006253Y-11589293D01*
X16006253Y-11589293D02*
X15996730Y-11570246D01*
X15996730Y-11570246D02*
X15987206Y-11560722D01*
X15987206Y-11560722D02*
X15968158Y-11551198D01*
X16234825Y-11655960D02*
X16253873Y-11665484D01*
X16253873Y-11665484D02*
X16291968Y-11665484D01*
X16291968Y-11665484D02*
X16311015Y-11655960D01*
X16311015Y-11655960D02*
X16320539Y-11636912D01*
X16320539Y-11636912D02*
X16320539Y-11627388D01*
X16320539Y-11627388D02*
X16311015Y-11608341D01*
X16311015Y-11608341D02*
X16291968Y-11598817D01*
X16291968Y-11598817D02*
X16263396Y-11598817D01*
X16263396Y-11598817D02*
X16244349Y-11589293D01*
X16244349Y-11589293D02*
X16234825Y-11570246D01*
X16234825Y-11570246D02*
X16234825Y-11560722D01*
X16234825Y-11560722D02*
X16244349Y-11541674D01*
X16244349Y-11541674D02*
X16263396Y-11532150D01*
X16263396Y-11532150D02*
X16291968Y-11532150D01*
X16291968Y-11532150D02*
X16311015Y-11541674D01*
X16434825Y-11665484D02*
X16415777Y-11655960D01*
X16415777Y-11655960D02*
X16406254Y-11636912D01*
X16406254Y-11636912D02*
X16406254Y-11465484D01*
X16539587Y-11665484D02*
X16520539Y-11655960D01*
X16520539Y-11655960D02*
X16511015Y-11646436D01*
X16511015Y-11646436D02*
X16501492Y-11627388D01*
X16501492Y-11627388D02*
X16501492Y-11570246D01*
X16501492Y-11570246D02*
X16511015Y-11551198D01*
X16511015Y-11551198D02*
X16520539Y-11541674D01*
X16520539Y-11541674D02*
X16539587Y-11532150D01*
X16539587Y-11532150D02*
X16568158Y-11532150D01*
X16568158Y-11532150D02*
X16587206Y-11541674D01*
X16587206Y-11541674D02*
X16596730Y-11551198D01*
X16596730Y-11551198D02*
X16606254Y-11570246D01*
X16606254Y-11570246D02*
X16606254Y-11627388D01*
X16606254Y-11627388D02*
X16596730Y-11646436D01*
X16596730Y-11646436D02*
X16587206Y-11655960D01*
X16587206Y-11655960D02*
X16568158Y-11665484D01*
X16568158Y-11665484D02*
X16539587Y-11665484D01*
X16663396Y-11532150D02*
X16739587Y-11532150D01*
X16691968Y-11465484D02*
X16691968Y-11636912D01*
X16691968Y-11636912D02*
X16701492Y-11655960D01*
X16701492Y-11655960D02*
X16720539Y-11665484D01*
X16720539Y-11665484D02*
X16739587Y-11665484D01*
X16796730Y-11655960D02*
X16815777Y-11665484D01*
X16815777Y-11665484D02*
X16853873Y-11665484D01*
X16853873Y-11665484D02*
X16872920Y-11655960D01*
X16872920Y-11655960D02*
X16882444Y-11636912D01*
X16882444Y-11636912D02*
X16882444Y-11627388D01*
X16882444Y-11627388D02*
X16872920Y-11608341D01*
X16872920Y-11608341D02*
X16853873Y-11598817D01*
X16853873Y-11598817D02*
X16825301Y-11598817D01*
X16825301Y-11598817D02*
X16806254Y-11589293D01*
X16806254Y-11589293D02*
X16796730Y-11570246D01*
X16796730Y-11570246D02*
X16796730Y-11560722D01*
X16796730Y-11560722D02*
X16806254Y-11541674D01*
X16806254Y-11541674D02*
X16825301Y-11532150D01*
X16825301Y-11532150D02*
X16853873Y-11532150D01*
X16853873Y-11532150D02*
X16872920Y-11541674D01*
X16949111Y-11741674D02*
X16958635Y-11732150D01*
X16958635Y-11732150D02*
X16977682Y-11703579D01*
X16977682Y-11703579D02*
X16987206Y-11684531D01*
X16987206Y-11684531D02*
X16996730Y-11655960D01*
X16996730Y-11655960D02*
X17006254Y-11608341D01*
X17006254Y-11608341D02*
X17006254Y-11570246D01*
X17006254Y-11570246D02*
X16996730Y-11522627D01*
X16996730Y-11522627D02*
X16987206Y-11494055D01*
X16987206Y-11494055D02*
X16977682Y-11475008D01*
X16977682Y-11475008D02*
X16958635Y-11446436D01*
X16958635Y-11446436D02*
X16949111Y-11436912D01*
M02*
