%TF.GenerationSoftware,KiCad,Pcbnew,7.0.5*%
%TF.CreationDate,2023-07-03T18:15:23+02:00*%
%TF.ProjectId,motherboard_panel,6d6f7468-6572-4626-9f61-72645f70616e,rev?*%
%TF.SameCoordinates,Original*%
%TF.FileFunction,Profile,NP*%
%FSLAX46Y46*%
G04 Gerber Fmt 4.6, Leading zero omitted, Abs format (unit mm)*
G04 Created by KiCad (PCBNEW 7.0.5) date 2023-07-03 18:15:23*
%MOMM*%
%LPD*%
G01*
G04 APERTURE LIST*
%TA.AperFunction,Profile*%
%ADD10C,0.100000*%
%TD*%
G04 APERTURE END LIST*
D10*
X182399721Y-25361952D02*
X182431460Y-25325158D01*
X191394905Y-105747743D02*
X191395771Y-105736004D01*
X191399583Y-27507387D02*
X191399440Y-27506917D01*
X161521861Y-27480974D02*
X161474450Y-27470328D01*
X157682368Y-100947380D02*
X157667125Y-100993519D01*
X139304671Y-99899450D02*
X139317631Y-99852619D01*
X135333576Y-25001195D02*
X135382036Y-25004770D01*
X105601122Y-27505558D02*
X105600912Y-27506002D01*
X191396840Y-27502811D02*
X191396477Y-27502482D01*
X191224302Y-106215228D02*
X191231080Y-106205605D01*
X190485759Y-20004213D02*
X190412257Y-20000602D01*
X190497743Y-106644905D02*
X190498231Y-106644857D01*
X161617963Y-101645229D02*
X161569737Y-101639281D01*
X179132368Y-25702619D02*
X179145328Y-25749450D01*
X171450000Y-100140122D02*
X171451195Y-100091423D01*
X118306039Y-25140851D02*
X118348318Y-25116900D01*
X114343960Y-101509148D02*
X114301681Y-101533099D01*
X191327928Y-106021358D02*
X191328014Y-106021128D01*
X105901986Y-20284651D02*
X105901806Y-20284818D01*
X125188047Y-99374721D02*
X125224841Y-99406460D01*
X191382547Y-105833193D02*
X191382586Y-105832950D01*
X161248318Y-27383099D02*
X161206039Y-27359148D01*
X171450000Y-25990122D02*
X171451195Y-25941423D01*
X139279770Y-100757036D02*
X139276195Y-100708576D01*
X171644826Y-25400259D02*
X171674721Y-25361952D01*
X191399942Y-24990190D02*
X191399996Y-24987972D01*
X182431460Y-101324841D02*
X182399721Y-101288047D01*
X182217631Y-25702619D02*
X182232874Y-25656480D01*
X105724388Y-106131923D02*
X105762221Y-106195043D01*
X118527619Y-101607368D02*
X118481480Y-101592125D01*
X191391655Y-27500201D02*
X191391169Y-27500129D01*
X129031039Y-25140851D02*
X129073318Y-25116900D01*
X156975549Y-25029671D02*
X157022380Y-25042631D01*
X157158278Y-27404946D02*
X157113855Y-27424637D01*
X190582950Y-106632586D02*
X190583193Y-106632547D01*
X161427619Y-27457368D02*
X161381480Y-27442125D01*
X183165122Y-25000000D02*
X191387727Y-25000000D01*
X168010012Y-25166847D02*
X168049740Y-25194826D01*
X161291721Y-101554946D02*
X161248318Y-101533099D01*
X114168519Y-101592125D02*
X114122380Y-101607368D01*
X172152619Y-99192631D02*
X172199450Y-99179671D01*
X171469025Y-26703138D02*
X171460718Y-26655262D01*
X139931480Y-25057874D02*
X139977619Y-25042631D01*
X128989987Y-101483152D02*
X128950259Y-101455173D01*
X161291721Y-99245053D02*
X161336144Y-99225362D01*
X128950259Y-25194826D02*
X128989987Y-25166847D01*
X168430974Y-100853138D02*
X168420328Y-100900549D01*
X191393383Y-105760156D02*
X191393417Y-105759913D01*
X178693960Y-27359148D02*
X178651681Y-27383099D01*
X156783576Y-99151195D02*
X156832036Y-99154770D01*
X168439281Y-100805262D02*
X168430974Y-100853138D01*
X125474637Y-25611144D02*
X125492125Y-25656480D01*
X128607874Y-25656480D02*
X128625362Y-25611144D01*
X190485759Y-106645786D02*
X190486004Y-106645771D01*
X114258278Y-25095053D02*
X114301681Y-25116900D01*
X139285718Y-25844737D02*
X139294025Y-25796861D01*
X182464966Y-27210033D02*
X182431460Y-27174841D01*
X125545229Y-26607036D02*
X125539281Y-26655262D01*
X190498231Y-106644857D02*
X190509913Y-106643417D01*
X139977619Y-99192631D02*
X140024450Y-99179671D01*
X114463047Y-101425278D02*
X114424740Y-101455173D01*
X168354946Y-99716721D02*
X168374637Y-99761144D01*
X118717963Y-101645229D02*
X118669737Y-101639281D01*
X191399870Y-24991169D02*
X191399918Y-24990681D01*
X128550000Y-100659877D02*
X128550000Y-100140122D01*
X105606455Y-101650724D02*
X105606002Y-101650912D01*
X191107065Y-20293281D02*
X191106718Y-20292934D01*
X125188047Y-27275278D02*
X125149740Y-27305173D01*
X191394441Y-99148877D02*
X191394874Y-99148646D01*
X106139476Y-20112939D02*
X106128963Y-20118231D01*
X135478138Y-99169025D02*
X135525549Y-99179671D01*
X172016721Y-25095053D02*
X172061144Y-25075362D01*
X157558152Y-99589987D02*
X157584148Y-99631039D01*
X105640077Y-20721619D02*
X105622196Y-20793005D01*
X128554770Y-100042963D02*
X128560718Y-99994737D01*
X114535033Y-101360033D02*
X114499841Y-101393539D01*
X179175000Y-25990122D02*
X179175000Y-26509877D01*
X118391721Y-101554946D02*
X118348318Y-101533099D01*
X179170229Y-26607036D02*
X179164281Y-26655262D01*
X105605558Y-101651122D02*
X105605125Y-101651353D01*
X136270229Y-100042963D02*
X136273804Y-100091423D01*
X125550000Y-100659877D02*
X125548804Y-100708576D01*
X139531460Y-99475158D02*
X139564966Y-99439966D01*
X105612027Y-99149996D02*
X105612272Y-99150000D01*
X139304671Y-26750549D02*
X139294025Y-26703138D01*
X172061144Y-25075362D02*
X172106480Y-25057874D01*
X125409148Y-27018960D02*
X125383152Y-27060012D01*
X105712831Y-106110302D02*
X105712939Y-106110523D01*
X105604213Y-20914240D02*
X105600602Y-20987742D01*
X128744826Y-27099740D02*
X128716847Y-27060012D01*
X171492631Y-26797380D02*
X171479671Y-26750549D01*
X167926681Y-101533099D02*
X167883278Y-101554946D01*
X128744826Y-101249740D02*
X128716847Y-101210012D01*
X179155974Y-26703138D02*
X179145328Y-26750549D01*
X171850259Y-99344826D02*
X171889987Y-99316847D01*
X105676307Y-106032340D02*
X105676495Y-106032793D01*
X113883576Y-25001195D02*
X113932036Y-25004770D01*
X168049740Y-25194826D02*
X168088047Y-25224721D01*
X105712939Y-106110523D02*
X105718231Y-106121036D01*
X105604296Y-27501878D02*
X105603902Y-27502170D01*
X156783576Y-101648804D02*
X156734877Y-101650000D01*
X139977619Y-25042631D02*
X140024450Y-25029671D01*
X178282036Y-99154770D02*
X178330262Y-99160718D01*
X105606455Y-24999275D02*
X105606917Y-24999440D01*
X105647194Y-105951839D02*
X105671985Y-106021128D01*
X139499721Y-99511952D02*
X139531460Y-99475158D01*
X191396097Y-101652170D02*
X191395703Y-101651878D01*
X114749637Y-101038855D02*
X114729946Y-101083278D01*
X191400000Y-24987727D02*
X191400000Y-21012272D01*
X191287168Y-20539697D02*
X191287060Y-20539476D01*
X157682368Y-25702619D02*
X157695328Y-25749450D01*
X168255173Y-25400259D02*
X168283152Y-25439987D01*
X182656039Y-25140851D02*
X182698318Y-25116900D01*
X106139697Y-20112831D02*
X106139476Y-20112939D01*
X161617963Y-99154770D02*
X161666423Y-99151195D01*
X117920053Y-26933278D02*
X117900362Y-26888855D01*
X156783576Y-25001195D02*
X156832036Y-25004770D01*
X160949721Y-99511952D02*
X160981460Y-99475158D01*
X178693960Y-101509148D02*
X178651681Y-101533099D01*
X179034148Y-25481039D02*
X179058099Y-25523318D01*
X118669737Y-27489281D02*
X118621861Y-27480974D01*
X128806460Y-101324841D02*
X128774721Y-101288047D01*
X125530974Y-25796861D02*
X125539281Y-25844737D01*
X106228871Y-20071985D02*
X106228641Y-20072071D01*
X168283152Y-99589987D02*
X168309148Y-99631039D01*
X105600724Y-27506455D02*
X105600559Y-27506917D01*
X171739966Y-25289966D02*
X171775158Y-25256460D01*
X157720229Y-25892963D02*
X157723804Y-25941423D01*
X190498231Y-20005142D02*
X190497743Y-20005094D01*
X113980262Y-25010718D02*
X114028138Y-25019025D01*
X105600000Y-21012272D02*
X105600000Y-24987727D01*
X182656039Y-101509148D02*
X182614987Y-101483152D01*
X183067963Y-99154770D02*
X183116423Y-99151195D01*
X135913047Y-27275278D02*
X135874740Y-27305173D01*
X182204671Y-99899450D02*
X182217631Y-99852619D01*
X161666423Y-27498804D02*
X161617963Y-27495229D01*
X190412257Y-20000602D02*
X190412012Y-20000593D01*
X161050158Y-25256460D02*
X161086952Y-25224721D01*
X171889987Y-27333152D02*
X171850259Y-27305173D01*
X106309568Y-20043422D02*
X106298392Y-20047114D01*
X172391423Y-101648804D02*
X172342963Y-101645229D01*
X105643422Y-20709568D02*
X105643279Y-20710038D01*
X191399275Y-99143544D02*
X191399440Y-99143082D01*
X118225259Y-101455173D02*
X118186952Y-101425278D01*
X168392125Y-26843519D02*
X168374637Y-26888855D01*
X105605142Y-105748231D02*
X105606582Y-105759913D01*
X135284877Y-101650000D02*
X129540122Y-101650000D01*
X139391900Y-101126681D02*
X139370053Y-101083278D01*
X136255974Y-100853138D02*
X136245328Y-100900549D01*
X105672071Y-106021358D02*
X105676307Y-106032340D01*
X136134148Y-27018960D02*
X136108152Y-27060012D01*
X128690851Y-99631039D02*
X128716847Y-99589987D01*
X171889987Y-25166847D02*
X171931039Y-25140851D01*
X167926681Y-99266900D02*
X167968960Y-99290851D01*
X191393082Y-24999440D02*
X191393544Y-24999275D01*
X135793960Y-101509148D02*
X135751681Y-101533099D01*
X161248318Y-99266900D02*
X161291721Y-99245053D01*
X129252619Y-25042631D02*
X129299450Y-25029671D01*
X172246861Y-101630974D02*
X172199450Y-101620328D01*
X129299450Y-25029671D02*
X129346861Y-25019025D01*
X191391169Y-24999870D02*
X191391655Y-24999798D01*
X106405209Y-20019465D02*
X106404728Y-20019561D01*
X125454946Y-26933278D02*
X125433099Y-26976681D01*
X191281537Y-20528530D02*
X191275735Y-20518288D01*
X178425549Y-99179671D02*
X178472380Y-99192631D01*
X171590851Y-101168960D02*
X171566900Y-101126681D01*
X105647114Y-20698392D02*
X105643422Y-20709568D01*
X160744025Y-100853138D02*
X160735718Y-100805262D01*
X139317631Y-99852619D02*
X139332874Y-99806480D01*
X168354946Y-101083278D02*
X168333099Y-101126681D01*
X128839966Y-99439966D02*
X128875158Y-99406460D01*
X105602170Y-24996097D02*
X105602482Y-24996477D01*
X128744826Y-25400259D02*
X128774721Y-25361952D01*
X135572380Y-27457368D02*
X135525549Y-27470328D01*
X172294737Y-101639281D02*
X172246861Y-101630974D01*
X139370053Y-26933278D02*
X139350362Y-26888855D01*
X178980173Y-99550259D02*
X179008152Y-99589987D01*
X190945043Y-20162221D02*
X190881923Y-20124388D01*
X125474637Y-26888855D02*
X125454946Y-26933278D01*
X157705974Y-100853138D02*
X157695328Y-100900549D01*
X135284877Y-25000000D02*
X135284877Y-25000000D01*
X106206445Y-106568734D02*
X106217206Y-106573504D01*
X157324740Y-101455173D02*
X157285012Y-101483152D01*
X157649637Y-25611144D02*
X157667125Y-25656480D01*
X179132368Y-26797380D02*
X179117125Y-26843519D01*
X160729770Y-26607036D02*
X160726195Y-26558576D01*
X114075549Y-25029671D02*
X114122380Y-25042631D01*
X191393082Y-99149440D02*
X191393544Y-99149275D01*
X125110012Y-99316847D02*
X125149740Y-99344826D01*
X160820053Y-99716721D02*
X160841900Y-99673318D01*
X182270053Y-25566721D02*
X182291900Y-25523318D01*
X168420328Y-25749450D02*
X168430974Y-25796861D01*
X118436144Y-99225362D02*
X118481480Y-99207874D01*
X129031039Y-99290851D02*
X129073318Y-99266900D01*
X191395771Y-105736004D02*
X191395786Y-105735759D01*
X160725000Y-26509877D02*
X160725000Y-25990122D01*
X106217206Y-106573504D02*
X106217659Y-106573692D01*
X191024535Y-106430321D02*
X191024731Y-106430172D01*
X114782368Y-26797380D02*
X114767125Y-26843519D01*
X129491423Y-101648804D02*
X129442963Y-101645229D01*
X106034572Y-20175841D02*
X105975464Y-20219678D01*
X105601878Y-27504296D02*
X105601605Y-27504704D01*
X114795328Y-25749450D02*
X114805974Y-25796861D01*
X135478138Y-25019025D02*
X135525549Y-25029671D01*
X157714281Y-26655262D02*
X157705974Y-26703138D01*
X114782368Y-100947380D02*
X114767125Y-100993519D01*
X191394905Y-20902256D02*
X191394857Y-20901768D01*
X191043486Y-106414768D02*
X191098013Y-106365348D01*
X168049740Y-27305173D02*
X168010012Y-27333152D01*
X129206480Y-27442125D02*
X129161144Y-27424637D01*
X105600000Y-101662272D02*
X105600000Y-105637727D01*
X106587987Y-20000593D02*
X106587742Y-20000602D01*
X191396097Y-24997829D02*
X191396477Y-24997517D01*
X124559877Y-25000000D02*
X124559877Y-25000000D01*
X190701839Y-20047194D02*
X190701607Y-20047114D01*
X118225259Y-25194826D02*
X118264987Y-25166847D01*
X178378138Y-25019025D02*
X178425549Y-25029671D01*
X125355173Y-101249740D02*
X125325278Y-101288047D01*
X106489843Y-106643383D02*
X106490086Y-106643417D01*
X139469826Y-27099740D02*
X139441847Y-27060012D01*
X105718462Y-106121469D02*
X105724264Y-106131711D01*
X114535033Y-25289966D02*
X114568539Y-25325158D01*
X105681367Y-20606222D02*
X105681265Y-20606445D01*
X105600297Y-24992136D02*
X105600416Y-24992612D01*
X182741721Y-25095053D02*
X182786144Y-25075362D01*
X157243960Y-99290851D02*
X157285012Y-99316847D01*
X124893519Y-27442125D02*
X124847380Y-27457368D01*
X128989987Y-27333152D02*
X128950259Y-27305173D01*
X191397829Y-101653902D02*
X191397517Y-101653522D01*
X171850259Y-27305173D02*
X171811952Y-27275278D01*
X114820229Y-25892963D02*
X114823804Y-25941423D01*
X157363047Y-101425278D02*
X157324740Y-101455173D01*
X160754671Y-26750549D02*
X160744025Y-26703138D01*
X106217659Y-20076307D02*
X106217206Y-20076495D01*
X178980173Y-101249740D02*
X178950278Y-101288047D01*
X117867631Y-26797380D02*
X117854671Y-26750549D01*
X125507368Y-100947380D02*
X125492125Y-100993519D01*
X191397517Y-24996477D02*
X191397829Y-24996097D01*
X135618519Y-101592125D02*
X135572380Y-101607368D01*
X191395771Y-20913995D02*
X191394905Y-20902256D01*
X157714281Y-25844737D02*
X157720229Y-25892963D01*
X124847380Y-27457368D02*
X124800549Y-27470328D01*
X128989987Y-99316847D02*
X129031039Y-99290851D01*
X172016721Y-101554946D02*
X171973318Y-101533099D01*
X191398877Y-101655558D02*
X191398646Y-101655125D01*
X105608830Y-27500129D02*
X105608344Y-27500201D01*
X157113855Y-101574637D02*
X157068519Y-101592125D01*
X105600081Y-24990681D02*
X105600129Y-24991169D01*
X114814281Y-99994737D02*
X114820229Y-100042963D01*
X171507874Y-100993519D02*
X171492631Y-100947380D01*
X161050158Y-27243539D02*
X161014966Y-27210033D01*
X105604228Y-105736004D02*
X105605094Y-105747743D01*
X160744025Y-25796861D02*
X160754671Y-25749450D01*
X105604704Y-27501605D02*
X105604296Y-27501878D01*
X191387972Y-99149996D02*
X191390190Y-99149942D01*
X172199450Y-27470328D02*
X172152619Y-27457368D01*
X139931480Y-27442125D02*
X139886144Y-27424637D01*
X128806460Y-99475158D02*
X128839966Y-99439966D01*
X105612272Y-27500000D02*
X105612027Y-27500003D01*
X171931039Y-99290851D02*
X171973318Y-99266900D01*
X139332874Y-26843519D02*
X139317631Y-26797380D01*
X136158099Y-26976681D02*
X136134148Y-27018960D01*
X128911952Y-99374721D02*
X128950259Y-99344826D01*
X105647114Y-105951607D02*
X105647194Y-105951839D01*
X117991847Y-99589987D02*
X118019826Y-99550259D01*
X182971861Y-101630974D02*
X182924450Y-101620328D01*
X129540122Y-101650000D02*
X129491423Y-101648804D01*
X190594790Y-106630534D02*
X190595271Y-106630438D01*
X191359859Y-20721382D02*
X191356720Y-20710038D01*
X157558152Y-101210012D02*
X157530173Y-101249740D01*
X118766423Y-99151195D02*
X118815122Y-99150000D01*
X172294737Y-99160718D02*
X172342963Y-99154770D01*
X172061144Y-101574637D02*
X172016721Y-101554946D01*
X113834877Y-101650000D02*
X105612272Y-101650000D01*
X157667125Y-99806480D02*
X157682368Y-99852619D01*
X105724264Y-106131711D02*
X105724388Y-106131923D01*
X135572380Y-99192631D02*
X135618519Y-99207874D01*
X156880262Y-25010718D02*
X156928138Y-25019025D01*
X105607863Y-99149702D02*
X105608344Y-99149798D01*
X113932036Y-101645229D02*
X113883576Y-101648804D01*
X157714281Y-99994737D02*
X157720229Y-100042963D01*
X157584148Y-99631039D02*
X157608099Y-99673318D01*
X125474637Y-101038855D02*
X125454946Y-101083278D01*
X172199450Y-25029671D02*
X172246861Y-25019025D01*
X172246861Y-99169025D02*
X172294737Y-99160718D01*
X191392612Y-101650416D02*
X191392136Y-101650297D01*
X118306039Y-27359148D02*
X118264987Y-27333152D01*
X171616847Y-99589987D02*
X171644826Y-99550259D01*
X161715122Y-99150000D02*
X167459877Y-99150000D01*
X161086952Y-101425278D02*
X161050158Y-101393539D01*
X191399087Y-24993997D02*
X191399275Y-24993544D01*
X139886144Y-99225362D02*
X139931480Y-99207874D01*
X118717963Y-27495229D02*
X118669737Y-27489281D01*
X168049740Y-101455173D02*
X168010012Y-101483152D01*
X190690431Y-20043422D02*
X190689961Y-20043279D01*
X182217631Y-100947380D02*
X182204671Y-100900549D01*
X157363047Y-99374721D02*
X157399841Y-99406460D01*
X167508576Y-99151195D02*
X167557036Y-99154770D01*
X191396097Y-99147829D02*
X191396477Y-99147517D01*
X105605125Y-99148646D02*
X105605558Y-99148877D01*
X171674721Y-101288047D02*
X171644826Y-101249740D01*
X125550000Y-26509877D02*
X125548804Y-26558576D01*
X182575259Y-101455173D02*
X182536952Y-101425278D01*
X182179770Y-26607036D02*
X182176195Y-26558576D01*
X161164987Y-99316847D02*
X161206039Y-99290851D01*
X171525362Y-101038855D02*
X171507874Y-100993519D01*
X136217125Y-25656480D02*
X136232368Y-25702619D01*
X182399721Y-27138047D02*
X182369826Y-27099740D01*
X182614987Y-25166847D02*
X182656039Y-25140851D01*
X182500158Y-27243539D02*
X182464966Y-27210033D01*
X105607863Y-27500297D02*
X105607387Y-27500416D01*
X136217125Y-100993519D02*
X136199637Y-101038855D01*
X191393544Y-99149275D02*
X191393997Y-99149087D01*
X191380438Y-105845271D02*
X191380534Y-105844790D01*
X179173804Y-100091423D02*
X179175000Y-100140122D01*
X106490086Y-20006582D02*
X106489843Y-20006616D01*
X191352805Y-105951839D02*
X191352885Y-105951607D01*
X136080173Y-99550259D02*
X136108152Y-99589987D01*
X105712939Y-20539476D02*
X105712831Y-20539697D01*
X125026681Y-25116900D02*
X125068960Y-25140851D01*
X191106718Y-20292934D02*
X191098193Y-20284818D01*
X114749637Y-99761144D02*
X114767125Y-99806480D01*
X105607863Y-101650297D02*
X105607387Y-101650416D01*
X191043302Y-20235068D02*
X191034389Y-20227380D01*
X182250362Y-26888855D02*
X182232874Y-26843519D01*
X106034771Y-106474302D02*
X106044394Y-106481080D01*
X140071861Y-25019025D02*
X140119737Y-25010718D01*
X182877619Y-25042631D02*
X182924450Y-25029671D01*
X191231352Y-106205197D02*
X191237650Y-106195252D01*
X182924450Y-99179671D02*
X182971861Y-99169025D01*
X182232874Y-100993519D02*
X182217631Y-100947380D01*
X105603159Y-99147188D02*
X105603522Y-99147517D01*
X191395703Y-101651878D02*
X191395295Y-101651605D01*
X139714987Y-25166847D02*
X139756039Y-25140851D01*
X140071861Y-27480974D02*
X140024450Y-27470328D01*
X190955605Y-106481080D02*
X190965228Y-106474302D01*
X105600057Y-27509809D02*
X105600003Y-27512027D01*
X182877619Y-27457368D02*
X182831480Y-27442125D01*
X161569737Y-101639281D02*
X161521861Y-101630974D01*
X114630173Y-25400259D02*
X114658152Y-25439987D01*
X168333099Y-25523318D02*
X168354946Y-25566721D01*
X105768647Y-20444802D02*
X105762349Y-20454747D01*
X105835231Y-106293486D02*
X105884651Y-106348013D01*
X139285718Y-99994737D02*
X139294025Y-99946861D01*
X160800362Y-25611144D02*
X160820053Y-25566721D01*
X171706460Y-27174841D02*
X171674721Y-27138047D01*
X191393544Y-27500724D02*
X191393082Y-27500559D01*
X113980262Y-101639281D02*
X113932036Y-101645229D01*
X105671985Y-106021128D02*
X105672071Y-106021358D01*
X178425549Y-27470328D02*
X178378138Y-27480974D01*
X172246861Y-25019025D02*
X172294737Y-25010718D01*
X114535033Y-27210033D02*
X114499841Y-27243539D01*
X172391423Y-99151195D02*
X172440122Y-99150000D01*
X168439281Y-25844737D02*
X168445229Y-25892963D01*
X140167963Y-101645229D02*
X140119737Y-101639281D01*
X118669737Y-25010718D02*
X118717963Y-25004770D01*
X171644826Y-101249740D02*
X171616847Y-101210012D01*
X106587742Y-106649397D02*
X106587987Y-106649406D01*
X167838855Y-99225362D02*
X167883278Y-99245053D01*
X190955197Y-106481352D02*
X190955605Y-106481080D01*
X113834877Y-27500000D02*
X105612272Y-27500000D01*
X171674721Y-27138047D02*
X171644826Y-27099740D01*
X128560718Y-100805262D02*
X128554770Y-100757036D01*
X171492631Y-25702619D02*
X171507874Y-25656480D01*
X191394874Y-101651353D02*
X191394441Y-101651122D01*
X182971861Y-27480974D02*
X182924450Y-27470328D01*
X136080173Y-25400259D02*
X136108152Y-25439987D01*
X125433099Y-25523318D02*
X125454946Y-25566721D01*
X125545229Y-25892963D02*
X125548804Y-25941423D01*
X160919826Y-101249740D02*
X160891847Y-101210012D01*
X105609318Y-24999918D02*
X105609809Y-24999942D01*
X128950259Y-99344826D02*
X128989987Y-99316847D01*
X178918539Y-101324841D02*
X178885033Y-101360033D01*
X105600057Y-24990190D02*
X105600057Y-24990190D01*
X171460718Y-25844737D02*
X171469025Y-25796861D01*
X171616847Y-25439987D02*
X171644826Y-25400259D01*
X157158278Y-99245053D02*
X157201681Y-99266900D01*
X114343960Y-25140851D02*
X114385012Y-25166847D01*
X160735718Y-25844737D02*
X160744025Y-25796861D01*
X171706460Y-99475158D02*
X171739966Y-99439966D01*
X117829770Y-25892963D02*
X117835718Y-25844737D01*
X105762221Y-106195043D02*
X105762349Y-106195252D01*
X161050158Y-101393539D02*
X161014966Y-101360033D01*
X172440122Y-27500000D02*
X172391423Y-27498804D01*
X191395295Y-101651605D02*
X191394874Y-101651353D01*
X168193539Y-25325158D02*
X168225278Y-25361952D01*
X190387727Y-106650000D02*
X190387972Y-106649996D01*
X106502256Y-20005094D02*
X106501768Y-20005142D01*
X106490086Y-106643417D02*
X106501768Y-106644857D01*
X179145328Y-25749450D02*
X179155974Y-25796861D01*
X114301681Y-27383099D02*
X114258278Y-27404946D01*
X161427619Y-99192631D02*
X161474450Y-99179671D01*
X125520328Y-100900549D02*
X125507368Y-100947380D01*
X182924450Y-27470328D02*
X182877619Y-27457368D01*
X171479671Y-99899450D02*
X171492631Y-99852619D01*
X157705974Y-26703138D02*
X157695328Y-26750549D01*
X167838855Y-27424637D02*
X167793519Y-27442125D01*
X114499841Y-27243539D02*
X114463047Y-27275278D01*
X157068519Y-101592125D02*
X157022380Y-101607368D01*
X161715122Y-25000000D02*
X167459877Y-25000000D01*
X135874740Y-99344826D02*
X135913047Y-99374721D01*
X168193539Y-101324841D02*
X168160033Y-101360033D01*
X178813047Y-101425278D02*
X178774740Y-101455173D01*
X105643279Y-105939961D02*
X105643422Y-105940431D01*
X128554770Y-100757036D02*
X128551195Y-100708576D01*
X157468539Y-27174841D02*
X157435033Y-27210033D01*
X105600912Y-24993997D02*
X105601122Y-24994441D01*
X190965427Y-106474158D02*
X191024535Y-106430321D01*
X191395703Y-99148121D02*
X191396097Y-99147829D01*
X124938855Y-101574637D02*
X124893519Y-101592125D01*
X167605262Y-27489281D02*
X167557036Y-27495229D01*
X157158278Y-25095053D02*
X157201681Y-25116900D01*
X167557036Y-101645229D02*
X167508576Y-101648804D01*
X118225259Y-99344826D02*
X118264987Y-99316847D01*
X139285718Y-100805262D02*
X139279770Y-100757036D01*
X105602482Y-27503522D02*
X105602170Y-27503902D01*
X157720229Y-100757036D02*
X157714281Y-100805262D01*
X190793777Y-106568632D02*
X190860302Y-106537168D01*
X118264987Y-101483152D02*
X118225259Y-101455173D01*
X106501768Y-106644857D02*
X106502256Y-106644905D01*
X114213855Y-25075362D02*
X114258278Y-25095053D01*
X182176195Y-25941423D02*
X182179770Y-25892963D01*
X140265122Y-101650000D02*
X140216423Y-101648804D01*
X114825000Y-26509877D02*
X114823804Y-26558576D01*
X128592631Y-99852619D02*
X128607874Y-99806480D01*
X167459877Y-25000000D02*
X167459877Y-25000000D01*
X191399942Y-27509809D02*
X191399918Y-27509318D01*
X160865851Y-27018960D02*
X160841900Y-26976681D01*
X114424740Y-27305173D02*
X114385012Y-27333152D01*
X105604296Y-24998121D02*
X105604704Y-24998394D01*
X191352885Y-20698392D02*
X191352805Y-20698160D01*
X136134148Y-25481039D02*
X136158099Y-25523318D01*
X125492125Y-99806480D02*
X125507368Y-99852619D01*
X178472380Y-101607368D02*
X178425549Y-101620328D01*
X191180321Y-106274535D02*
X191224158Y-106215427D01*
X191164931Y-106293302D02*
X191172619Y-106284389D01*
X105606455Y-27500724D02*
X105606002Y-27500912D01*
X168448804Y-100091423D02*
X168450000Y-100140122D01*
X161125259Y-101455173D02*
X161086952Y-101425278D01*
X105892934Y-20293281D02*
X105884818Y-20301806D01*
X168283152Y-101210012D02*
X168255173Y-101249740D01*
X136275000Y-100140122D02*
X136275000Y-100659877D01*
X118150158Y-101393539D02*
X118114966Y-101360033D01*
X190860523Y-20112939D02*
X190860302Y-20112831D01*
X128774721Y-99511952D02*
X128806460Y-99475158D01*
X118527619Y-99192631D02*
X118574450Y-99179671D01*
X124893519Y-25057874D02*
X124938855Y-25075362D01*
X117826195Y-100708576D02*
X117825000Y-100659877D01*
X191399870Y-27508830D02*
X191399798Y-27508344D01*
X117965851Y-25481039D02*
X117991847Y-25439987D01*
X139756039Y-25140851D02*
X139798318Y-25116900D01*
X105617452Y-105833193D02*
X105619465Y-105844790D01*
X128839966Y-27210033D02*
X128806460Y-27174841D01*
X167793519Y-99207874D02*
X167838855Y-99225362D01*
X118114966Y-101360033D02*
X118081460Y-101324841D01*
X105600003Y-101662027D02*
X105600000Y-101662272D01*
X117965851Y-99631039D02*
X117991847Y-99589987D01*
X161715122Y-27500000D02*
X161666423Y-27498804D01*
X160891847Y-27060012D02*
X160865851Y-27018960D01*
X135835012Y-101483152D02*
X135793960Y-101509148D01*
X191394857Y-20901768D02*
X191393417Y-20890086D01*
X167838855Y-25075362D02*
X167883278Y-25095053D01*
X105819678Y-20375464D02*
X105775841Y-20434572D01*
X168450000Y-100140122D02*
X168450000Y-100659877D01*
X191391169Y-27500129D02*
X191390681Y-27500081D01*
X168333099Y-26976681D02*
X168309148Y-27018960D01*
X128550000Y-25990122D02*
X128551195Y-25941423D01*
X105600129Y-99141169D02*
X105600201Y-99141655D01*
X168088047Y-99374721D02*
X168124841Y-99406460D01*
X182831480Y-99207874D02*
X182877619Y-99192631D01*
X105604704Y-101651605D02*
X105604296Y-101651878D01*
X124893519Y-99207874D02*
X124938855Y-99225362D01*
X178774740Y-101455173D02*
X178735012Y-101483152D01*
X105600912Y-101656002D02*
X105600724Y-101656455D01*
X160949721Y-101288047D02*
X160919826Y-101249740D01*
X139714987Y-27333152D02*
X139675259Y-27305173D01*
X161617963Y-27495229D02*
X161569737Y-27489281D01*
X105600593Y-105662012D02*
X105600602Y-105662257D01*
X172342963Y-25004770D02*
X172391423Y-25001195D01*
X128911952Y-25224721D02*
X128950259Y-25194826D01*
X191397188Y-101653159D02*
X191396840Y-101652811D01*
X191397829Y-24996097D02*
X191398121Y-24995703D01*
X168283152Y-27060012D02*
X168255173Y-27099740D01*
X105600057Y-99140190D02*
X105600081Y-99140681D01*
X182175000Y-25990122D02*
X182176195Y-25941423D01*
X167459877Y-27500000D02*
X161715122Y-27500000D01*
X190412257Y-106649397D02*
X190485759Y-106645786D01*
X125293539Y-25325158D02*
X125325278Y-25361952D01*
X183019737Y-25010718D02*
X183067963Y-25004770D01*
X191394874Y-27501353D02*
X191394441Y-27501122D01*
X171454770Y-100042963D02*
X171460718Y-99994737D01*
X114301681Y-101533099D02*
X114258278Y-101554946D01*
X114301681Y-25116900D02*
X114343960Y-25140851D01*
X106118288Y-20124264D02*
X106118076Y-20124388D01*
X136179946Y-99716721D02*
X136199637Y-99761144D01*
X117900362Y-26888855D02*
X117882874Y-26843519D01*
X190881711Y-20124264D02*
X190871469Y-20118462D01*
X160981460Y-27174841D02*
X160949721Y-27138047D01*
X167605262Y-25010718D02*
X167653138Y-25019025D01*
X139977619Y-101607368D02*
X139931480Y-101592125D01*
X178813047Y-25224721D02*
X178849841Y-25256460D01*
X105600297Y-99142136D02*
X105600416Y-99142612D01*
X105606917Y-99149440D02*
X105607387Y-99149583D01*
X191399702Y-27507863D02*
X191399583Y-27507387D01*
X171507874Y-99806480D02*
X171525362Y-99761144D01*
X182431460Y-99475158D02*
X182464966Y-99439966D01*
X128875158Y-27243539D02*
X128839966Y-27210033D01*
X157667125Y-100993519D02*
X157649637Y-101038855D01*
X161381480Y-27442125D02*
X161336144Y-27424637D01*
X156832036Y-101645229D02*
X156783576Y-101648804D01*
X191287168Y-106110302D02*
X191318632Y-106043777D01*
X190701839Y-106602805D02*
X190771128Y-106578014D01*
X140119737Y-101639281D02*
X140071861Y-101630974D01*
X128551195Y-26558576D02*
X128550000Y-26509877D01*
X171479671Y-25749450D02*
X171492631Y-25702619D01*
X139391900Y-99673318D02*
X139415851Y-99631039D01*
X114122380Y-101607368D02*
X114075549Y-101620328D01*
X135708278Y-27404946D02*
X135663855Y-27424637D01*
X178693960Y-25140851D02*
X178735012Y-25166847D01*
X178735012Y-27333152D02*
X178693960Y-27359148D01*
X161086952Y-25224721D02*
X161125259Y-25194826D01*
X191390190Y-24999942D02*
X191390681Y-24999918D01*
X106054747Y-20162349D02*
X106044802Y-20168647D01*
X168333099Y-101126681D02*
X168309148Y-101168960D01*
X190881923Y-20124388D02*
X190881711Y-20124264D01*
X128716847Y-25439987D02*
X128744826Y-25400259D01*
X190793777Y-20081367D02*
X190793554Y-20081265D01*
X168088047Y-25224721D02*
X168124841Y-25256460D01*
X191275735Y-20518288D02*
X191275611Y-20518076D01*
X179034148Y-27018960D02*
X179008152Y-27060012D01*
X167700549Y-101620328D02*
X167653138Y-101630974D01*
X128592631Y-26797380D02*
X128579671Y-26750549D01*
X191399440Y-99143082D02*
X191399583Y-99142612D01*
X140265122Y-27500000D02*
X140216423Y-27498804D01*
X105608344Y-24999798D02*
X105608830Y-24999870D01*
X160767631Y-100947380D02*
X160754671Y-100900549D01*
X168255173Y-101249740D02*
X168225278Y-101288047D01*
X117854671Y-26750549D02*
X117844025Y-26703138D01*
X105643279Y-20710038D02*
X105640140Y-20721382D01*
X136275000Y-100659877D02*
X136273804Y-100708576D01*
X191231080Y-20444394D02*
X191224302Y-20434771D01*
X136080173Y-101249740D02*
X136050278Y-101288047D01*
X135913047Y-99374721D02*
X135949841Y-99406460D01*
X105835231Y-20356513D02*
X105835068Y-20356697D01*
X114684148Y-99631039D02*
X114708099Y-99673318D01*
X183116423Y-27498804D02*
X183067963Y-27495229D01*
X135985033Y-27210033D02*
X135949841Y-27243539D01*
X160949721Y-25361952D02*
X160981460Y-25325158D01*
X114343960Y-27359148D02*
X114301681Y-27383099D01*
X191327928Y-20628641D02*
X191323692Y-20617659D01*
X167747380Y-25042631D02*
X167793519Y-25057874D01*
X136275000Y-25990122D02*
X136275000Y-26509877D01*
X191352805Y-20698160D02*
X191328014Y-20628871D01*
X128744826Y-99550259D02*
X128774721Y-99511952D01*
X118150158Y-27243539D02*
X118114966Y-27210033D01*
X161666423Y-25001195D02*
X161715122Y-25000000D01*
X125409148Y-99631039D02*
X125433099Y-99673318D01*
X125454946Y-99716721D02*
X125474637Y-99761144D01*
X179099637Y-101038855D02*
X179079946Y-101083278D01*
X160782874Y-26843519D02*
X160767631Y-26797380D01*
X129442963Y-27495229D02*
X129394737Y-27489281D01*
X157720229Y-26607036D02*
X157714281Y-26655262D01*
X129442963Y-25004770D02*
X129491423Y-25001195D01*
X190793554Y-20081265D02*
X190782793Y-20076495D01*
X113932036Y-27495229D02*
X113883576Y-27498804D01*
X157399841Y-27243539D02*
X157363047Y-27275278D01*
X118391721Y-27404946D02*
X118348318Y-27383099D01*
X114767125Y-25656480D02*
X114782368Y-25702619D01*
X172342963Y-101645229D02*
X172294737Y-101639281D01*
X179079946Y-99716721D02*
X179099637Y-99761144D01*
X129540122Y-25000000D02*
X135284877Y-25000000D01*
X117829770Y-100042963D02*
X117835718Y-99994737D01*
X136255974Y-26703138D02*
X136245328Y-26750549D01*
X161381480Y-25057874D02*
X161427619Y-25042631D01*
X157629946Y-26933278D02*
X157608099Y-26976681D01*
X117867631Y-25702619D02*
X117882874Y-25656480D01*
X129442963Y-99154770D02*
X129491423Y-99151195D01*
X135663855Y-27424637D02*
X135618519Y-27442125D01*
X114825000Y-100140122D02*
X114825000Y-100659877D01*
X157649637Y-99761144D02*
X157667125Y-99806480D01*
X128579671Y-25749450D02*
X128592631Y-25702619D01*
X139294025Y-26703138D02*
X139285718Y-26655262D01*
X139798318Y-25116900D02*
X139841721Y-25095053D01*
X161164987Y-101483152D02*
X161125259Y-101455173D01*
X191391169Y-101650129D02*
X191390681Y-101650081D01*
X105608830Y-24999870D02*
X105609318Y-24999918D01*
X105762221Y-20454956D02*
X105724388Y-20518076D01*
X136018539Y-25325158D02*
X136050278Y-25361952D01*
X135572380Y-101607368D02*
X135525549Y-101620328D01*
X129161144Y-101574637D02*
X129116721Y-101554946D01*
X139798318Y-99266900D02*
X139841721Y-99245053D01*
X157068519Y-25057874D02*
X157113855Y-25075362D01*
X118081460Y-27174841D02*
X118049721Y-27138047D01*
X171775158Y-99406460D02*
X171811952Y-99374721D01*
X191390681Y-27500081D02*
X191390190Y-27500057D01*
X125325278Y-99511952D02*
X125355173Y-99550259D01*
X118717963Y-99154770D02*
X118766423Y-99151195D01*
X135874740Y-25194826D02*
X135913047Y-25224721D01*
X139276195Y-26558576D02*
X139275000Y-26509877D01*
X135478138Y-101630974D02*
X135430262Y-101639281D01*
X114749637Y-25611144D02*
X114767125Y-25656480D01*
X114424740Y-101455173D02*
X114385012Y-101483152D01*
X114823804Y-100708576D02*
X114820229Y-100757036D01*
X182185718Y-100805262D02*
X182179770Y-100757036D01*
X118481480Y-27442125D02*
X118436144Y-27424637D01*
X128911952Y-101425278D02*
X128875158Y-101393539D01*
X167605262Y-99160718D02*
X167653138Y-99169025D01*
X139756039Y-27359148D02*
X139714987Y-27333152D01*
X168374637Y-25611144D02*
X168392125Y-25656480D01*
X129394737Y-25010718D02*
X129442963Y-25004770D01*
X114729946Y-99716721D02*
X114749637Y-99761144D01*
X114463047Y-27275278D02*
X114424740Y-27305173D01*
X135663855Y-25075362D02*
X135708278Y-25095053D01*
X106128530Y-20118462D02*
X106118288Y-20124264D01*
X106309568Y-106606577D02*
X106310038Y-106606720D01*
X190606994Y-106627803D02*
X190678380Y-106609922D01*
X179008152Y-99589987D02*
X179034148Y-99631039D01*
X191399406Y-105662012D02*
X191399996Y-105637972D01*
X161050158Y-99406460D02*
X161086952Y-99374721D01*
X190771358Y-106577928D02*
X190782340Y-106573692D01*
X191323504Y-20617206D02*
X191318734Y-20606445D01*
X179117125Y-25656480D02*
X179132368Y-25702619D01*
X182217631Y-26797380D02*
X182204671Y-26750549D01*
X105606582Y-105759913D02*
X105606616Y-105760156D01*
X135663855Y-101574637D02*
X135618519Y-101592125D01*
X178885033Y-101360033D02*
X178849841Y-101393539D01*
X191352885Y-105951607D02*
X191356577Y-105940431D01*
X139531460Y-27174841D02*
X139499721Y-27138047D01*
X179099637Y-99761144D02*
X179117125Y-99806480D01*
X117900362Y-25611144D02*
X117920053Y-25566721D01*
X105600129Y-24991169D02*
X105600201Y-24991655D01*
X182399721Y-101288047D02*
X182369826Y-101249740D01*
X179117125Y-26843519D02*
X179099637Y-26888855D01*
X113834877Y-99150000D02*
X113883576Y-99151195D01*
X178950278Y-99511952D02*
X178980173Y-99550259D01*
X157584148Y-101168960D02*
X157558152Y-101210012D01*
X124559877Y-99150000D02*
X124559877Y-99150000D01*
X105608344Y-99149798D02*
X105608830Y-99149870D01*
X157435033Y-25289966D02*
X157468539Y-25325158D01*
X105603522Y-101652482D02*
X105603159Y-101652811D01*
X125224841Y-99406460D02*
X125260033Y-99439966D01*
X191395703Y-24998121D02*
X191396097Y-24997829D01*
X139415851Y-99631039D02*
X139441847Y-99589987D01*
X105718462Y-20528530D02*
X105718231Y-20528963D01*
X135525549Y-27470328D02*
X135478138Y-27480974D01*
X105975268Y-106430172D02*
X105975464Y-106430321D01*
X113834877Y-25000000D02*
X113883576Y-25001195D01*
X171507874Y-26843519D02*
X171492631Y-26797380D01*
X128579671Y-100900549D02*
X128569025Y-100853138D01*
X191394874Y-24998646D02*
X191395295Y-24998394D01*
X135949841Y-25256460D02*
X135985033Y-25289966D01*
X113883576Y-99151195D02*
X113932036Y-99154770D01*
X128806460Y-27174841D02*
X128774721Y-27138047D01*
X157022380Y-25042631D02*
X157068519Y-25057874D01*
X117854671Y-99899450D02*
X117867631Y-99852619D01*
X191323504Y-106032793D02*
X191323692Y-106032340D01*
X128875158Y-25256460D02*
X128911952Y-25224721D01*
X135478138Y-27480974D02*
X135430262Y-27489281D01*
X191323692Y-20617659D02*
X191323504Y-20617206D01*
X105603902Y-27502170D02*
X105603522Y-27502482D01*
X168354946Y-25566721D02*
X168374637Y-25611144D01*
X128625362Y-99761144D02*
X128645053Y-99716721D01*
X179034148Y-101168960D02*
X179008152Y-101210012D01*
X171590851Y-27018960D02*
X171566900Y-26976681D01*
X183116423Y-101648804D02*
X183067963Y-101645229D01*
X171469025Y-99946861D02*
X171479671Y-99899450D01*
X105647194Y-20698160D02*
X105647114Y-20698392D01*
X157468539Y-99475158D02*
X157500278Y-99511952D01*
X179079946Y-101083278D02*
X179058099Y-101126681D01*
X160841900Y-25523318D02*
X160865851Y-25481039D01*
X140216423Y-27498804D02*
X140167963Y-27495229D01*
X118225259Y-27305173D02*
X118186952Y-27275278D01*
X191393997Y-27500912D02*
X191393544Y-27500724D01*
X117835718Y-26655262D02*
X117829770Y-26607036D01*
X191107065Y-106356718D02*
X191115181Y-106348193D01*
X105600081Y-99140681D02*
X105600129Y-99141169D01*
X178184877Y-25000000D02*
X178184877Y-25000000D01*
X105892934Y-106356718D02*
X105893281Y-106357065D01*
X105619561Y-20804728D02*
X105619465Y-20805209D01*
X106393243Y-106627860D02*
X106404728Y-106630438D01*
X114343960Y-99290851D02*
X114385012Y-99316847D01*
X136245328Y-25749450D02*
X136255974Y-25796861D01*
X139332874Y-99806480D02*
X139350362Y-99761144D01*
X191164931Y-20356697D02*
X191164768Y-20356513D01*
X191398877Y-99144441D02*
X191399087Y-99143997D01*
X114795328Y-99899450D02*
X114805974Y-99946861D01*
X156880262Y-99160718D02*
X156928138Y-99169025D01*
X114684148Y-27018960D02*
X114658152Y-27060012D01*
X191275735Y-106131711D02*
X191281537Y-106121469D01*
X191024535Y-20219678D02*
X190965427Y-20175841D01*
X168354946Y-26933278D02*
X168333099Y-26976681D01*
X182971861Y-99169025D02*
X183019737Y-99160718D01*
X117882874Y-100993519D02*
X117867631Y-100947380D01*
X191392136Y-24999702D02*
X191392612Y-24999583D01*
X125260033Y-25289966D02*
X125293539Y-25325158D01*
X171931039Y-25140851D02*
X171973318Y-25116900D01*
X182250362Y-101038855D02*
X182232874Y-100993519D01*
X178282036Y-27495229D02*
X178233576Y-27498804D01*
X156928138Y-25019025D02*
X156975549Y-25029671D01*
X191398877Y-24994441D02*
X191399087Y-24993997D01*
X191387727Y-25000000D02*
X191387972Y-24999996D01*
X128569025Y-99946861D02*
X128579671Y-99899450D01*
X117835718Y-100805262D02*
X117829770Y-100757036D01*
X191318632Y-20606222D02*
X191287168Y-20539697D01*
X136232368Y-26797380D02*
X136217125Y-26843519D01*
X125539281Y-25844737D02*
X125545229Y-25892963D01*
X190583193Y-106632547D02*
X190594790Y-106630534D01*
X125110012Y-25166847D02*
X125149740Y-25194826D01*
X105608344Y-27500201D02*
X105607863Y-27500297D01*
X157695328Y-25749450D02*
X157705974Y-25796861D01*
X171460718Y-100805262D02*
X171454770Y-100757036D01*
X191281537Y-106121469D02*
X191281768Y-106121036D01*
X191395295Y-24998394D02*
X191395703Y-24998121D01*
X129394737Y-27489281D02*
X129346861Y-27480974D01*
X178233576Y-25001195D02*
X178282036Y-25004770D01*
X118348318Y-27383099D02*
X118306039Y-27359148D01*
X114814281Y-100805262D02*
X114805974Y-100853138D01*
X157705974Y-25796861D02*
X157714281Y-25844737D01*
X128839966Y-101360033D02*
X128806460Y-101324841D01*
X190782340Y-106573692D02*
X190782793Y-106573504D01*
X106405209Y-106630534D02*
X106416806Y-106632547D01*
X125507368Y-99852619D02*
X125520328Y-99899450D01*
X117867631Y-100947380D02*
X117854671Y-100900549D01*
X124800549Y-101620328D02*
X124753138Y-101630974D01*
X105956513Y-106414768D02*
X105956697Y-106414931D01*
X167883278Y-25095053D02*
X167926681Y-25116900D01*
X191328014Y-20628871D02*
X191327928Y-20628641D01*
X105762349Y-20454747D02*
X105762221Y-20454956D01*
X114213855Y-27424637D02*
X114168519Y-27442125D01*
X157608099Y-26976681D02*
X157584148Y-27018960D01*
X106034572Y-106474158D02*
X106034771Y-106474302D01*
X135333576Y-27498804D02*
X135284877Y-27500000D01*
X106128530Y-106531537D02*
X106128963Y-106531768D01*
X135618519Y-25057874D02*
X135663855Y-25075362D01*
X114122380Y-99192631D02*
X114168519Y-99207874D01*
X168010012Y-101483152D02*
X167968960Y-101509148D01*
X105604704Y-99148394D02*
X105605125Y-99148646D01*
X160729770Y-25892963D02*
X160735718Y-25844737D01*
X139276195Y-25941423D02*
X139279770Y-25892963D01*
X117825000Y-100659877D02*
X117825000Y-100140122D01*
X118481480Y-99207874D02*
X118527619Y-99192631D01*
X171850259Y-101455173D02*
X171811952Y-101425278D01*
X171811952Y-101425278D02*
X171775158Y-101393539D01*
X124705262Y-25010718D02*
X124753138Y-25019025D01*
X118669737Y-101639281D02*
X118621861Y-101630974D01*
X105681265Y-106043554D02*
X105681367Y-106043777D01*
X139499721Y-27138047D02*
X139469826Y-27099740D01*
X114767125Y-100993519D02*
X114749637Y-101038855D01*
X191399406Y-20987987D02*
X191399397Y-20987742D01*
X106118288Y-106525735D02*
X106128530Y-106531537D01*
X161291721Y-25095053D02*
X161336144Y-25075362D01*
X182341847Y-101210012D02*
X182315851Y-101168960D01*
X191392136Y-101650297D02*
X191391655Y-101650201D01*
X105819827Y-20375268D02*
X105819678Y-20375464D01*
X125068960Y-101509148D02*
X125026681Y-101533099D01*
X171450000Y-100659877D02*
X171450000Y-100140122D01*
X106587987Y-106649406D02*
X106612027Y-106649996D01*
X168448804Y-26558576D02*
X168445229Y-26607036D01*
X191399942Y-101659809D02*
X191399918Y-101659318D01*
X114805974Y-26703138D02*
X114795328Y-26750549D01*
X171775158Y-27243539D02*
X171739966Y-27210033D01*
X125149740Y-99344826D02*
X125188047Y-99374721D01*
X114568539Y-27174841D02*
X114535033Y-27210033D01*
X182185718Y-99994737D02*
X182194025Y-99946861D01*
X125433099Y-101126681D02*
X125409148Y-101168960D01*
X178330262Y-25010718D02*
X178378138Y-25019025D01*
X191237650Y-20454747D02*
X191231352Y-20444802D01*
X124705262Y-99160718D02*
X124753138Y-99169025D01*
X105600000Y-105637727D02*
X105600003Y-105637972D01*
X182204671Y-100900549D02*
X182194025Y-100853138D01*
X179175000Y-100140122D02*
X179175000Y-100659877D01*
X128592631Y-100947380D02*
X128579671Y-100900549D01*
X168124841Y-25256460D02*
X168160033Y-25289966D01*
X191399798Y-27508344D02*
X191399702Y-27507863D01*
X190701607Y-106602885D02*
X190701839Y-106602805D01*
X105602482Y-99146477D02*
X105602811Y-99146840D01*
X182464966Y-101360033D02*
X182431460Y-101324841D01*
X139370053Y-25566721D02*
X139391900Y-25523318D01*
X139499721Y-25361952D02*
X139531460Y-25325158D01*
X191400000Y-101662272D02*
X191399996Y-101662027D01*
X106044394Y-20168919D02*
X106034771Y-20175697D01*
X129031039Y-101509148D02*
X128989987Y-101483152D01*
X125325278Y-27138047D02*
X125293539Y-27174841D01*
X182464966Y-25289966D02*
X182500158Y-25256460D01*
X114424740Y-25194826D02*
X114463047Y-25224721D01*
X114825000Y-100659877D02*
X114823804Y-100708576D01*
X168374637Y-99761144D02*
X168392125Y-99806480D01*
X179008152Y-25439987D02*
X179034148Y-25481039D01*
X191043486Y-20235231D02*
X191043302Y-20235068D01*
X190945252Y-20162349D02*
X190945043Y-20162221D01*
X160767631Y-99852619D02*
X160782874Y-99806480D01*
X125548804Y-25941423D02*
X125550000Y-25990122D01*
X178608278Y-101554946D02*
X178563855Y-101574637D01*
X190412012Y-20000593D02*
X190387972Y-20000003D01*
X156975549Y-27470328D02*
X156928138Y-27480974D01*
X191024731Y-20219827D02*
X191024535Y-20219678D01*
X105775697Y-106215228D02*
X105775841Y-106215427D01*
X118019826Y-99550259D02*
X118049721Y-99511952D01*
X106298392Y-106602885D02*
X106309568Y-106606577D01*
X118621861Y-99169025D02*
X118669737Y-99160718D01*
X191397829Y-99146097D02*
X191398121Y-99145703D01*
X182217631Y-99852619D02*
X182232874Y-99806480D01*
X179034148Y-99631039D02*
X179058099Y-99673318D01*
X135663855Y-99225362D02*
X135708278Y-99245053D01*
X129540122Y-99150000D02*
X135284877Y-99150000D01*
X191098193Y-20284818D02*
X191098013Y-20284651D01*
X191034389Y-106422619D02*
X191043302Y-106414931D01*
X191398394Y-99145295D02*
X191398646Y-99144874D01*
X117882874Y-99806480D02*
X117900362Y-99761144D01*
X182464966Y-99439966D02*
X182500158Y-99406460D01*
X128839966Y-25289966D02*
X128875158Y-25256460D01*
X135835012Y-99316847D02*
X135874740Y-99344826D01*
X171525362Y-25611144D02*
X171545053Y-25566721D01*
X105600416Y-99142612D02*
X105600559Y-99143082D01*
X105612027Y-101650003D02*
X105609809Y-101650057D01*
X105600416Y-101657387D02*
X105600297Y-101657863D01*
X125433099Y-99673318D02*
X125454946Y-99716721D01*
X118264987Y-25166847D02*
X118306039Y-25140851D01*
X114658152Y-99589987D02*
X114684148Y-99631039D01*
X105600559Y-27506917D02*
X105600416Y-27507387D01*
X128625362Y-25611144D02*
X128645053Y-25566721D01*
X113980262Y-99160718D02*
X114028138Y-99169025D01*
X114122380Y-27457368D02*
X114075549Y-27470328D01*
X129299450Y-27470328D02*
X129252619Y-27457368D01*
X178918539Y-99475158D02*
X178950278Y-99511952D01*
X191399918Y-101659318D02*
X191399870Y-101658830D01*
X105600602Y-20987742D02*
X105600593Y-20987987D01*
X178378138Y-99169025D02*
X178425549Y-99179671D01*
X106298392Y-20047114D02*
X106298160Y-20047194D01*
X105600912Y-27506002D02*
X105600724Y-27506455D01*
X178518519Y-101592125D02*
X178472380Y-101607368D01*
X117854671Y-25749450D02*
X117867631Y-25702619D01*
X171451195Y-100708576D02*
X171450000Y-100659877D01*
X106228641Y-20072071D02*
X106217659Y-20076307D01*
X105643422Y-105940431D02*
X105647114Y-105951607D01*
X171973318Y-27383099D02*
X171931039Y-27359148D01*
X182431460Y-27174841D02*
X182399721Y-27138047D01*
X139370053Y-101083278D02*
X139350362Y-101038855D01*
X114767125Y-26843519D02*
X114749637Y-26888855D01*
X105640077Y-105928380D02*
X105640140Y-105928617D01*
X114708099Y-25523318D02*
X114729946Y-25566721D01*
X128666900Y-99673318D02*
X128690851Y-99631039D01*
X182291900Y-25523318D02*
X182315851Y-25481039D01*
X105619465Y-105844790D02*
X105619561Y-105845271D01*
X191382586Y-20817049D02*
X191382547Y-20816806D01*
X105605558Y-27501122D02*
X105605125Y-27501353D01*
X105975464Y-106430321D02*
X106034572Y-106474158D01*
X125383152Y-99589987D02*
X125409148Y-99631039D01*
X114075549Y-99179671D02*
X114122380Y-99192631D01*
X191180172Y-106274731D02*
X191180321Y-106274535D01*
X118186952Y-27275278D02*
X118150158Y-27243539D01*
X182924450Y-101620328D02*
X182877619Y-101607368D01*
X139564966Y-27210033D02*
X139531460Y-27174841D01*
X140119737Y-99160718D02*
X140167963Y-99154770D01*
X191380534Y-105844790D02*
X191382547Y-105833193D01*
X190582950Y-20017413D02*
X190510156Y-20006616D01*
X105601122Y-99144441D02*
X105601353Y-99144874D01*
X191390681Y-99149918D02*
X191391169Y-99149870D01*
X135835012Y-27333152D02*
X135793960Y-27359148D01*
X106054747Y-106487650D02*
X106054956Y-106487778D01*
X168225278Y-99511952D02*
X168255173Y-99550259D01*
X139600158Y-101393539D02*
X139564966Y-101360033D01*
X179099637Y-25611144D02*
X179117125Y-25656480D01*
X157667125Y-25656480D02*
X157682368Y-25702619D01*
X125548804Y-100091423D02*
X125550000Y-100140122D01*
X105602811Y-99146840D02*
X105603159Y-99147188D01*
X168430974Y-99946861D02*
X168439281Y-99994737D01*
X129073318Y-25116900D02*
X129116721Y-25095053D01*
X105718231Y-20528963D02*
X105712939Y-20539476D01*
X124608576Y-99151195D02*
X124657036Y-99154770D01*
X161381480Y-101592125D02*
X161336144Y-101574637D01*
X106118076Y-20124388D02*
X106054956Y-20162221D01*
X129299450Y-101620328D02*
X129252619Y-101607368D01*
X157629946Y-99716721D02*
X157649637Y-99761144D01*
X191224158Y-20434572D02*
X191180321Y-20375464D01*
X182185718Y-26655262D02*
X182179770Y-26607036D01*
X125545229Y-100042963D02*
X125548804Y-100091423D01*
X168160033Y-101360033D02*
X168124841Y-101393539D01*
X191237650Y-106195252D02*
X191237778Y-106195043D01*
X125068960Y-99290851D02*
X125110012Y-99316847D01*
X160735718Y-100805262D02*
X160729770Y-100757036D01*
X114168519Y-99207874D02*
X114213855Y-99225362D01*
X105672071Y-20628641D02*
X105671985Y-20628871D01*
X191380438Y-20804728D02*
X191377860Y-20793243D01*
X182232874Y-99806480D02*
X182250362Y-99761144D01*
X125110012Y-27333152D02*
X125068960Y-27359148D01*
X168448804Y-25941423D02*
X168450000Y-25990122D01*
X191399087Y-101656002D02*
X191398877Y-101655558D01*
X125355173Y-99550259D02*
X125383152Y-99589987D01*
X168309148Y-99631039D02*
X168333099Y-99673318D01*
X136134148Y-101168960D02*
X136108152Y-101210012D01*
X105600593Y-20987987D02*
X105600003Y-21012027D01*
X190387727Y-20000000D02*
X106612272Y-20000000D01*
X105609809Y-27500057D02*
X105609318Y-27500081D01*
X191224158Y-106215427D02*
X191224302Y-106215228D01*
X118306039Y-101509148D02*
X118264987Y-101483152D01*
X157608099Y-99673318D02*
X157629946Y-99716721D01*
X106054956Y-20162221D02*
X106054747Y-20162349D01*
X157723804Y-100708576D02*
X157720229Y-100757036D01*
X129491423Y-99151195D02*
X129540122Y-99150000D01*
X191224302Y-20434771D02*
X191224158Y-20434572D01*
X139441847Y-99589987D02*
X139469826Y-99550259D01*
X179132368Y-100947380D02*
X179117125Y-100993519D01*
X191396840Y-101652811D02*
X191396477Y-101652482D01*
X167883278Y-101554946D02*
X167838855Y-101574637D01*
X178184877Y-25000000D02*
X178233576Y-25001195D01*
X125474637Y-99761144D02*
X125492125Y-99806480D01*
X124753138Y-25019025D02*
X124800549Y-25029671D01*
X191390190Y-27500057D02*
X191387972Y-27500003D01*
X114385012Y-27333152D02*
X114343960Y-27359148D01*
X168225278Y-101288047D02*
X168193539Y-101324841D01*
X105600057Y-24990190D02*
X105600081Y-24990681D01*
X160744025Y-99946861D02*
X160754671Y-99899450D01*
X140024450Y-27470328D02*
X139977619Y-27457368D01*
X182575259Y-99344826D02*
X182614987Y-99316847D01*
X161474450Y-99179671D02*
X161521861Y-99169025D01*
X128950259Y-27305173D02*
X128911952Y-27275278D01*
X178378138Y-27480974D02*
X178330262Y-27489281D01*
X190412012Y-106649406D02*
X190412257Y-106649397D01*
X114729946Y-101083278D02*
X114708099Y-101126681D01*
X125548804Y-100708576D02*
X125545229Y-100757036D01*
X172152619Y-101607368D02*
X172106480Y-101592125D01*
X191387972Y-27500003D02*
X191387727Y-27500000D01*
X191380534Y-20805209D02*
X191380438Y-20804728D01*
X179164281Y-26655262D02*
X179155974Y-26703138D01*
X139441847Y-27060012D02*
X139415851Y-27018960D01*
X114729946Y-26933278D02*
X114708099Y-26976681D01*
X167700549Y-25029671D02*
X167747380Y-25042631D01*
X135430262Y-99160718D02*
X135478138Y-99169025D01*
X168420328Y-100900549D02*
X168407368Y-100947380D01*
X129540122Y-27500000D02*
X129491423Y-27498804D01*
X105612027Y-27500003D02*
X105609809Y-27500057D01*
X105602811Y-24996840D02*
X105603159Y-24997188D01*
X114658152Y-25439987D02*
X114684148Y-25481039D01*
X114499841Y-101393539D02*
X114463047Y-101425278D01*
X139931480Y-99207874D02*
X139977619Y-99192631D01*
X168010012Y-27333152D02*
X167968960Y-27359148D01*
X118114966Y-99439966D02*
X118150158Y-99406460D01*
X191399440Y-101656917D02*
X191399275Y-101656455D01*
X179155974Y-100853138D02*
X179145328Y-100900549D01*
X191397517Y-101653522D02*
X191397188Y-101653159D01*
X118348318Y-99266900D02*
X118391721Y-99245053D01*
X172440122Y-25000000D02*
X178184877Y-25000000D01*
X106206222Y-20081367D02*
X106139697Y-20112831D01*
X105607387Y-24999583D02*
X105607863Y-24999702D01*
X118186952Y-99374721D02*
X118225259Y-99344826D01*
X118815122Y-25000000D02*
X124559877Y-25000000D01*
X171775158Y-25256460D02*
X171811952Y-25224721D01*
X182204671Y-26750549D02*
X182194025Y-26703138D01*
X139886144Y-101574637D02*
X139841721Y-101554946D01*
X129073318Y-99266900D02*
X129116721Y-99245053D01*
X128690851Y-101168960D02*
X128666900Y-101126681D01*
X178651681Y-101533099D02*
X178608278Y-101554946D01*
X178813047Y-99374721D02*
X178849841Y-99406460D01*
X135333576Y-101648804D02*
X135284877Y-101650000D01*
X161569737Y-27489281D02*
X161521861Y-27480974D01*
X114820229Y-100757036D02*
X114814281Y-100805262D01*
X105602170Y-99146097D02*
X105602482Y-99146477D01*
X105600559Y-99143082D02*
X105600724Y-99143544D01*
X135793960Y-99290851D02*
X135835012Y-99316847D01*
X105606616Y-105760156D02*
X105617413Y-105832950D01*
X171507874Y-25656480D02*
X171525362Y-25611144D01*
X168124841Y-99406460D02*
X168160033Y-99439966D01*
X117882874Y-26843519D02*
X117867631Y-26797380D01*
X129491423Y-27498804D02*
X129442963Y-27495229D01*
X167747380Y-27457368D02*
X167700549Y-27470328D01*
X178980173Y-27099740D02*
X178950278Y-27138047D01*
X191399996Y-105637972D02*
X191400000Y-105637727D01*
X179175000Y-26509877D02*
X179173804Y-26558576D01*
X136108152Y-25439987D02*
X136134148Y-25481039D01*
X139279770Y-26607036D02*
X139276195Y-26558576D01*
X157667125Y-26843519D02*
X157649637Y-26888855D01*
X191399583Y-101657387D02*
X191399440Y-101656917D01*
X117941900Y-99673318D02*
X117965851Y-99631039D01*
X190595271Y-106630438D02*
X190606756Y-106627860D01*
X182175000Y-26509877D02*
X182175000Y-25990122D01*
X128592631Y-25702619D02*
X128607874Y-25656480D01*
X191399397Y-105662257D02*
X191399406Y-105662012D01*
X136158099Y-99673318D02*
X136179946Y-99716721D01*
X182315851Y-27018960D02*
X182291900Y-26976681D01*
X125530974Y-26703138D02*
X125520328Y-26750549D01*
X124657036Y-101645229D02*
X124608576Y-101648804D01*
X105607863Y-24999702D02*
X105608344Y-24999798D01*
X128666900Y-26976681D02*
X128645053Y-26933278D01*
X114122380Y-25042631D02*
X114168519Y-25057874D01*
X157695328Y-26750549D02*
X157682368Y-26797380D01*
X128989987Y-25166847D02*
X129031039Y-25140851D01*
X178378138Y-101630974D02*
X178330262Y-101639281D01*
X171811952Y-25224721D02*
X171850259Y-25194826D01*
X191393383Y-20889843D02*
X191382586Y-20817049D01*
X118436144Y-27424637D02*
X118391721Y-27404946D01*
X191395786Y-20914240D02*
X191395771Y-20913995D01*
X105606002Y-24999087D02*
X105606455Y-24999275D01*
X125433099Y-26976681D02*
X125409148Y-27018960D01*
X117941900Y-26976681D02*
X117920053Y-26933278D01*
X139675259Y-101455173D02*
X139636952Y-101425278D01*
X129346861Y-101630974D02*
X129299450Y-101620328D01*
X157500278Y-25361952D02*
X157530173Y-25400259D01*
X190606994Y-20022196D02*
X190606756Y-20022139D01*
X157022380Y-27457368D02*
X156975549Y-27470328D01*
X125149740Y-101455173D02*
X125110012Y-101483152D01*
X171590851Y-99631039D02*
X171616847Y-99589987D01*
X161206039Y-99290851D02*
X161248318Y-99266900D01*
X114823804Y-25941423D02*
X114825000Y-25990122D01*
X157113855Y-25075362D02*
X157158278Y-25095053D01*
X128560718Y-25844737D02*
X128569025Y-25796861D01*
X156734877Y-101650000D02*
X140265122Y-101650000D01*
X172391423Y-27498804D02*
X172342963Y-27495229D01*
X182369826Y-25400259D02*
X182399721Y-25361952D01*
X106298160Y-106602805D02*
X106298392Y-106602885D01*
X171566900Y-25523318D02*
X171590851Y-25481039D01*
X136199637Y-99761144D02*
X136217125Y-99806480D01*
X168283152Y-25439987D02*
X168309148Y-25481039D01*
X105605094Y-20902256D02*
X105604228Y-20913995D01*
X135430262Y-101639281D02*
X135382036Y-101645229D01*
X168160033Y-99439966D02*
X168193539Y-99475158D01*
X114168519Y-25057874D02*
X114213855Y-25075362D01*
X128625362Y-26888855D02*
X128607874Y-26843519D01*
X191391655Y-24999798D02*
X191392136Y-24999702D01*
X139441847Y-25439987D02*
X139469826Y-25400259D01*
X129491423Y-25001195D02*
X129540122Y-25000000D01*
X118049721Y-27138047D02*
X118019826Y-27099740D01*
X114708099Y-26976681D02*
X114684148Y-27018960D01*
X114213855Y-101574637D02*
X114168519Y-101592125D01*
X161206039Y-101509148D02*
X161164987Y-101483152D01*
X105601878Y-99145703D02*
X105602170Y-99146097D01*
X157243960Y-25140851D02*
X157285012Y-25166847D01*
X191399798Y-24991655D02*
X191399870Y-24991169D01*
X105600000Y-27512272D02*
X105600000Y-99137727D01*
X168439281Y-99994737D02*
X168445229Y-100042963D01*
X106404728Y-20019561D02*
X106393243Y-20022139D01*
X171616847Y-27060012D02*
X171590851Y-27018960D01*
X168450000Y-100659877D02*
X168448804Y-100708576D01*
X105827069Y-106284010D02*
X105827380Y-106284389D01*
X125110012Y-101483152D02*
X125068960Y-101509148D01*
X128554770Y-26607036D02*
X128551195Y-26558576D01*
X114424740Y-99344826D02*
X114463047Y-99374721D01*
X135751681Y-101533099D02*
X135708278Y-101554946D01*
X167508576Y-27498804D02*
X167459877Y-27500000D01*
X128774721Y-25361952D02*
X128806460Y-25325158D01*
X105603902Y-24997829D02*
X105604296Y-24998121D01*
X139391900Y-25523318D02*
X139415851Y-25481039D01*
X105681265Y-20606445D02*
X105676495Y-20617206D01*
X135333576Y-99151195D02*
X135382036Y-99154770D01*
X105607387Y-101650416D02*
X105606917Y-101650559D01*
X191275611Y-20518076D02*
X191237778Y-20454956D01*
X172342963Y-27495229D02*
X172294737Y-27489281D01*
X105622139Y-105856756D02*
X105622196Y-105856994D01*
X114823804Y-26558576D02*
X114820229Y-26607036D01*
X182877619Y-99192631D02*
X182924450Y-99179671D01*
X168193539Y-99475158D02*
X168225278Y-99511952D01*
X128645053Y-26933278D02*
X128625362Y-26888855D01*
X125293539Y-101324841D02*
X125260033Y-101360033D01*
X114630173Y-99550259D02*
X114658152Y-99589987D01*
X178282036Y-25004770D02*
X178330262Y-25010718D01*
X114825000Y-25990122D02*
X114825000Y-26509877D01*
X105827069Y-20365989D02*
X105819827Y-20375268D01*
X124753138Y-101630974D02*
X124705262Y-101639281D01*
X139841721Y-99245053D02*
X139886144Y-99225362D01*
X191399942Y-99140190D02*
X191399996Y-99137972D01*
X157324740Y-27305173D02*
X157285012Y-27333152D01*
X118150158Y-99406460D02*
X118186952Y-99374721D01*
X191393417Y-105759913D02*
X191394857Y-105748231D01*
X191180172Y-20375268D02*
X191172930Y-20365989D01*
X191172619Y-20365610D02*
X191164931Y-20356697D01*
X106228871Y-106578014D02*
X106298160Y-106602805D01*
X118574450Y-101620328D02*
X118527619Y-101607368D01*
X157608099Y-25523318D02*
X157629946Y-25566721D01*
X105600003Y-24987972D02*
X105600057Y-24990190D01*
X139317631Y-25702619D02*
X139332874Y-25656480D01*
X161427619Y-101607368D02*
X161381480Y-101592125D01*
X135708278Y-99245053D02*
X135751681Y-99266900D01*
X191382547Y-20816806D02*
X191380534Y-20805209D01*
X139600158Y-99406460D02*
X139636952Y-99374721D01*
X139370053Y-99716721D02*
X139391900Y-99673318D01*
X106587742Y-20000602D02*
X106514240Y-20004213D01*
X168160033Y-25289966D02*
X168193539Y-25325158D01*
X135382036Y-99154770D02*
X135430262Y-99160718D01*
X161521861Y-101630974D02*
X161474450Y-101620328D01*
X125539281Y-99994737D02*
X125545229Y-100042963D01*
X190387972Y-106649996D02*
X190412012Y-106649406D01*
X125520328Y-26750549D02*
X125507368Y-26797380D01*
X105603522Y-27502482D02*
X105603159Y-27502811D01*
X129346861Y-99169025D02*
X129394737Y-99160718D01*
X191106718Y-106357065D02*
X191107065Y-106356718D01*
X191398394Y-24995295D02*
X191398646Y-24994874D01*
X118186952Y-101425278D02*
X118150158Y-101393539D01*
X136217125Y-26843519D02*
X136199637Y-26888855D01*
X105956697Y-20235068D02*
X105956513Y-20235231D01*
X125492125Y-26843519D02*
X125474637Y-26888855D01*
X129116721Y-27404946D02*
X129073318Y-27383099D01*
X135949841Y-99406460D02*
X135985033Y-99439966D01*
X191392612Y-99149583D02*
X191393082Y-99149440D01*
X140167963Y-25004770D02*
X140216423Y-25001195D01*
X124938855Y-27424637D02*
X124893519Y-27442125D01*
X106416806Y-20017452D02*
X106405209Y-20019465D01*
X183165122Y-99150000D02*
X191387727Y-99150000D01*
X191398121Y-101654296D02*
X191397829Y-101653902D01*
X136270229Y-25892963D02*
X136273804Y-25941423D01*
X125224841Y-25256460D02*
X125260033Y-25289966D01*
X125409148Y-25481039D02*
X125433099Y-25523318D01*
X106044802Y-20168647D02*
X106044394Y-20168919D01*
X182291900Y-101126681D02*
X182270053Y-101083278D01*
X105600416Y-27507387D02*
X105600297Y-27507863D01*
X168193539Y-27174841D02*
X168160033Y-27210033D01*
X105606616Y-20889843D02*
X105606582Y-20890086D01*
X105819678Y-106274535D02*
X105819827Y-106274731D01*
X129252619Y-101607368D02*
X129206480Y-101592125D01*
X182698318Y-25116900D02*
X182741721Y-25095053D01*
X167747380Y-99192631D02*
X167793519Y-99207874D01*
X191399583Y-99142612D02*
X191399702Y-99142136D01*
X191394441Y-101651122D02*
X191393997Y-101650912D01*
X179058099Y-26976681D02*
X179034148Y-27018960D01*
X125188047Y-25224721D02*
X125224841Y-25256460D01*
X106612272Y-20000000D02*
X106612027Y-20000003D01*
X160949721Y-27138047D02*
X160919826Y-27099740D01*
X118114966Y-27210033D02*
X118081460Y-27174841D01*
X178563855Y-25075362D02*
X178608278Y-25095053D01*
X168049740Y-99344826D02*
X168088047Y-99374721D01*
X118114966Y-25289966D02*
X118150158Y-25256460D01*
X191400000Y-105637727D02*
X191400000Y-101662272D01*
X129116721Y-101554946D02*
X129073318Y-101533099D01*
X157363047Y-27275278D02*
X157324740Y-27305173D01*
X157608099Y-101126681D02*
X157584148Y-101168960D01*
X118019826Y-101249740D02*
X117991847Y-101210012D01*
X139317631Y-100947380D02*
X139304671Y-100900549D01*
X157558152Y-25439987D02*
X157584148Y-25481039D01*
X160800362Y-26888855D02*
X160782874Y-26843519D01*
X106228641Y-106577928D02*
X106228871Y-106578014D01*
X105640140Y-20721382D02*
X105640077Y-20721619D01*
X117867631Y-99852619D02*
X117882874Y-99806480D01*
X105640140Y-105928617D02*
X105643279Y-105939961D01*
X183019737Y-27489281D02*
X182971861Y-27480974D01*
X179132368Y-99852619D02*
X179145328Y-99899450D01*
X157022380Y-99192631D02*
X157068519Y-99207874D01*
X139350362Y-101038855D02*
X139332874Y-100993519D01*
X139332874Y-25656480D02*
X139350362Y-25611144D01*
X140216423Y-99151195D02*
X140265122Y-99150000D01*
X140216423Y-25001195D02*
X140265122Y-25000000D01*
X191115348Y-106348013D02*
X191164768Y-106293486D01*
X178950278Y-101288047D02*
X178918539Y-101324841D01*
X178472380Y-99192631D02*
X178518519Y-99207874D01*
X139469826Y-99550259D02*
X139499721Y-99511952D01*
X117991847Y-101210012D02*
X117965851Y-101168960D01*
X156928138Y-27480974D02*
X156880262Y-27489281D01*
X106393005Y-106627803D02*
X106393243Y-106627860D01*
X168374637Y-26888855D02*
X168354946Y-26933278D01*
X106321382Y-106609859D02*
X106321619Y-106609922D01*
X178950278Y-27138047D02*
X178918539Y-27174841D01*
X182786144Y-27424637D02*
X182741721Y-27404946D01*
X139469826Y-101249740D02*
X139441847Y-101210012D01*
X182614987Y-27333152D02*
X182575259Y-27305173D01*
X160735718Y-99994737D02*
X160744025Y-99946861D01*
X140265122Y-99150000D02*
X156734877Y-99150000D01*
X117991847Y-27060012D02*
X117965851Y-27018960D01*
X124753138Y-99169025D02*
X124800549Y-99179671D01*
X140265122Y-25000000D02*
X156734877Y-25000000D01*
X136232368Y-99852619D02*
X136245328Y-99899450D01*
X191390190Y-101650057D02*
X191387972Y-101650003D01*
X129031039Y-27359148D02*
X128989987Y-27333152D01*
X118481480Y-25057874D02*
X118527619Y-25042631D01*
X135874740Y-27305173D02*
X135835012Y-27333152D01*
X183019737Y-99160718D02*
X183067963Y-99154770D01*
X191398394Y-101654704D02*
X191398121Y-101654296D01*
X139841721Y-25095053D02*
X139886144Y-25075362D01*
X191392136Y-99149702D02*
X191392612Y-99149583D01*
X171931039Y-101509148D02*
X171889987Y-101483152D01*
X191394441Y-27501122D02*
X191393997Y-27500912D01*
X167700549Y-99179671D02*
X167747380Y-99192631D01*
X105617452Y-20816806D02*
X105617413Y-20817049D01*
X182431460Y-25325158D02*
X182464966Y-25289966D01*
X190782793Y-20076495D02*
X190782340Y-20076307D01*
X191399870Y-101658830D02*
X191399798Y-101658344D01*
X161474450Y-25029671D02*
X161521861Y-25019025D01*
X171706460Y-101324841D02*
X171674721Y-101288047D01*
X128645053Y-101083278D02*
X128625362Y-101038855D01*
X191393082Y-27500559D02*
X191392612Y-27500416D01*
X114814281Y-25844737D02*
X114820229Y-25892963D01*
X114385012Y-25166847D02*
X114424740Y-25194826D01*
X156975549Y-99179671D02*
X157022380Y-99192631D01*
X136179946Y-26933278D02*
X136158099Y-26976681D01*
X106514240Y-106645786D02*
X106587742Y-106649397D01*
X114630173Y-27099740D02*
X114600278Y-27138047D01*
X178774740Y-27305173D02*
X178735012Y-27333152D01*
X105601605Y-101654704D02*
X105601353Y-101655125D01*
X139279770Y-25892963D02*
X139285718Y-25844737D01*
X118621861Y-101630974D02*
X118574450Y-101620328D01*
X182270053Y-26933278D02*
X182250362Y-26888855D01*
X157629946Y-101083278D02*
X157608099Y-101126681D01*
X171973318Y-25116900D02*
X172016721Y-25095053D01*
X179058099Y-101126681D02*
X179034148Y-101168960D01*
X190690431Y-106606577D02*
X190701607Y-106602885D01*
X125383152Y-27060012D02*
X125355173Y-27099740D01*
X191387727Y-99150000D02*
X191387972Y-99149996D01*
X178425549Y-101620328D02*
X178378138Y-101630974D01*
X191172930Y-20365989D02*
X191172619Y-20365610D01*
X178472380Y-25042631D02*
X178518519Y-25057874D01*
X106514240Y-20004213D02*
X106513995Y-20004228D01*
X124800549Y-27470328D02*
X124753138Y-27480974D01*
X128550000Y-100140122D02*
X128551195Y-100091423D01*
X139294025Y-99946861D02*
X139304671Y-99899450D01*
X191387972Y-24999996D02*
X191390190Y-24999942D01*
X140119737Y-25010718D02*
X140167963Y-25004770D01*
X113932036Y-25004770D02*
X113980262Y-25010718D01*
X105605125Y-24998646D02*
X105605558Y-24998877D01*
X178918539Y-25325158D02*
X178950278Y-25361952D01*
X167926681Y-25116900D02*
X167968960Y-25140851D01*
X136050278Y-101288047D02*
X136018539Y-101324841D01*
X105603159Y-101652811D02*
X105602811Y-101653159D01*
X168445229Y-100042963D02*
X168448804Y-100091423D01*
X182614987Y-101483152D02*
X182575259Y-101455173D01*
X191396840Y-99147188D02*
X191397188Y-99146840D01*
X124847380Y-101607368D02*
X124800549Y-101620328D01*
X178330262Y-99160718D02*
X178378138Y-99169025D01*
X178885033Y-99439966D02*
X178918539Y-99475158D01*
X182831480Y-101592125D02*
X182786144Y-101574637D01*
X182786144Y-99225362D02*
X182831480Y-99207874D01*
X139304671Y-100900549D02*
X139294025Y-100853138D01*
X191390681Y-101650081D02*
X191390190Y-101650057D01*
X172016721Y-99245053D02*
X172061144Y-99225362D01*
X191393417Y-20890086D02*
X191393383Y-20889843D01*
X190678380Y-20040077D02*
X190606994Y-20022196D01*
X125325278Y-25361952D02*
X125355173Y-25400259D01*
X105768919Y-20444394D02*
X105768647Y-20444802D01*
X136018539Y-101324841D02*
X135985033Y-101360033D01*
X191398121Y-24995703D02*
X191398394Y-24995295D01*
X178518519Y-25057874D02*
X178563855Y-25075362D01*
X182315851Y-99631039D02*
X182341847Y-99589987D01*
X167653138Y-27480974D02*
X167605262Y-27489281D01*
X105605125Y-27501353D02*
X105604704Y-27501605D01*
X168430974Y-26703138D02*
X168420328Y-26750549D01*
X118348318Y-101533099D02*
X118306039Y-101509148D01*
X105609318Y-99149918D02*
X105609809Y-99149942D01*
X161014966Y-101360033D02*
X160981460Y-101324841D01*
X161336144Y-99225362D02*
X161381480Y-99207874D01*
X106393243Y-20022139D02*
X106393005Y-20022196D01*
X191397188Y-24996840D02*
X191397517Y-24996477D01*
X105607387Y-27500416D02*
X105606917Y-27500559D01*
X106217206Y-20076495D02*
X106206445Y-20081265D01*
X161125259Y-25194826D02*
X161164987Y-25166847D01*
X190871469Y-20118462D02*
X190871036Y-20118231D01*
X114463047Y-99374721D02*
X114499841Y-99406460D01*
X135525549Y-99179671D02*
X135572380Y-99192631D01*
X172199450Y-99179671D02*
X172246861Y-99169025D01*
X124983278Y-27404946D02*
X124938855Y-27424637D01*
X135284877Y-99150000D02*
X135333576Y-99151195D01*
X160820053Y-26933278D02*
X160800362Y-26888855D01*
X128690851Y-27018960D02*
X128666900Y-26976681D01*
X140119737Y-27489281D02*
X140071861Y-27480974D01*
X182369826Y-101249740D02*
X182341847Y-101210012D01*
X191098013Y-20284651D02*
X191043486Y-20235231D01*
X191390190Y-99149942D02*
X191390681Y-99149918D01*
X167838855Y-101574637D02*
X167793519Y-101592125D01*
X117844025Y-26703138D02*
X117835718Y-26655262D01*
X105605125Y-101651353D02*
X105604704Y-101651605D01*
X182698318Y-27383099D02*
X182656039Y-27359148D01*
X136275000Y-26509877D02*
X136273804Y-26558576D01*
X135430262Y-25010718D02*
X135478138Y-25019025D01*
X191398646Y-24994874D02*
X191398877Y-24994441D01*
X179170229Y-100757036D02*
X179164281Y-100805262D01*
X117965851Y-27018960D02*
X117941900Y-26976681D01*
X105601878Y-24995703D02*
X105602170Y-24996097D01*
X157649637Y-26888855D02*
X157629946Y-26933278D01*
X140167963Y-27495229D02*
X140119737Y-27489281D01*
X191356577Y-105940431D02*
X191356720Y-105939961D01*
X139756039Y-99290851D02*
X139798318Y-99266900D01*
X114805974Y-25796861D02*
X114814281Y-25844737D01*
X190606756Y-106627860D02*
X190606994Y-106627803D01*
X118264987Y-99316847D02*
X118306039Y-99290851D01*
X105600297Y-101657863D02*
X105600201Y-101658344D01*
X171739966Y-101360033D02*
X171706460Y-101324841D01*
X136199637Y-101038855D02*
X136179946Y-101083278D01*
X105605558Y-99148877D02*
X105606002Y-99149087D01*
X157725000Y-26509877D02*
X157723804Y-26558576D01*
X128551195Y-25941423D02*
X128554770Y-25892963D01*
X118621861Y-25019025D02*
X118669737Y-25010718D01*
X136273804Y-25941423D02*
X136275000Y-25990122D01*
X182369826Y-27099740D02*
X182341847Y-27060012D01*
X129116721Y-25095053D02*
X129161144Y-25075362D01*
X191395295Y-99148394D02*
X191395703Y-99148121D01*
X190497743Y-20005094D02*
X190486004Y-20004228D01*
X167459877Y-99150000D02*
X167508576Y-99151195D01*
X114258278Y-101554946D02*
X114213855Y-101574637D01*
X191398646Y-101655125D02*
X191398394Y-101654704D01*
X105608830Y-99149870D02*
X105609318Y-99149918D01*
X105600201Y-99141655D02*
X105600297Y-99142136D01*
X160782874Y-99806480D02*
X160800362Y-99761144D01*
X160729770Y-100757036D02*
X160726195Y-100708576D01*
X191393082Y-101650559D02*
X191392612Y-101650416D01*
X118436144Y-25075362D02*
X118481480Y-25057874D01*
X139531460Y-101324841D02*
X139499721Y-101288047D01*
X135835012Y-25166847D02*
X135874740Y-25194826D01*
X125260033Y-101360033D02*
X125224841Y-101393539D01*
X135382036Y-101645229D02*
X135333576Y-101648804D01*
X182536952Y-99374721D02*
X182575259Y-99344826D01*
X118150158Y-25256460D02*
X118186952Y-25224721D01*
X178330262Y-101639281D02*
X178282036Y-101645229D01*
X182924450Y-25029671D02*
X182971861Y-25019025D01*
X106612027Y-20000003D02*
X106587987Y-20000593D01*
X157243960Y-101509148D02*
X157201681Y-101533099D01*
X191318632Y-106043777D02*
X191318734Y-106043554D01*
X171674721Y-25361952D02*
X171706460Y-25325158D01*
X191115181Y-20301806D02*
X191107065Y-20293281D01*
X117920053Y-101083278D02*
X117900362Y-101038855D01*
X182179770Y-100757036D02*
X182176195Y-100708576D01*
X168445229Y-26607036D02*
X168439281Y-26655262D01*
X105600000Y-24987727D02*
X105600003Y-24987972D01*
X172106480Y-25057874D02*
X172152619Y-25042631D01*
X172106480Y-101592125D02*
X172061144Y-101574637D01*
X157723804Y-25941423D02*
X157725000Y-25990122D01*
X125550000Y-100140122D02*
X125550000Y-100659877D01*
X118049721Y-25361952D02*
X118081460Y-25325158D01*
X157723804Y-100091423D02*
X157725000Y-100140122D01*
X105609809Y-24999942D02*
X105612027Y-24999996D01*
X191399918Y-99140681D02*
X191399942Y-99140190D01*
X156734877Y-25000000D02*
X156783576Y-25001195D01*
X105600003Y-27512027D02*
X105600000Y-27512272D01*
X168407368Y-25702619D02*
X168420328Y-25749450D01*
X178472380Y-27457368D02*
X178425549Y-27470328D01*
X139391900Y-26976681D02*
X139370053Y-26933278D01*
X136273804Y-100708576D02*
X136270229Y-100757036D01*
X168309148Y-27018960D02*
X168283152Y-27060012D01*
X157022380Y-101607368D02*
X156975549Y-101620328D01*
X105603902Y-101652170D02*
X105603522Y-101652482D01*
X105718231Y-106121036D02*
X105718462Y-106121469D01*
X179164281Y-99994737D02*
X179170229Y-100042963D01*
X161206039Y-25140851D02*
X161248318Y-25116900D01*
X191400000Y-21012272D02*
X191399996Y-21012027D01*
X125383152Y-101210012D02*
X125355173Y-101249740D01*
X168160033Y-27210033D02*
X168124841Y-27243539D01*
X117825000Y-100140122D02*
X117826195Y-100091423D01*
X171850259Y-25194826D02*
X171889987Y-25166847D01*
X167793519Y-27442125D02*
X167747380Y-27457368D01*
X190689961Y-106606720D02*
X190690431Y-106606577D01*
X178184877Y-101650000D02*
X172440122Y-101650000D01*
X161569737Y-99160718D02*
X161617963Y-99154770D01*
X136108152Y-99589987D02*
X136134148Y-99631039D01*
X182369826Y-99550259D02*
X182399721Y-99511952D01*
X139275000Y-100140122D02*
X139276195Y-100091423D01*
X182176195Y-100708576D02*
X182175000Y-100659877D01*
X129073318Y-101533099D02*
X129031039Y-101509148D01*
X182176195Y-100091423D02*
X182179770Y-100042963D01*
X125355173Y-25400259D02*
X125383152Y-25439987D01*
X167557036Y-25004770D02*
X167605262Y-25010718D01*
X191393997Y-101650912D02*
X191393544Y-101650724D01*
X139714987Y-99316847D02*
X139756039Y-99290851D01*
X140024450Y-101620328D02*
X139977619Y-101607368D01*
X124983278Y-99245053D02*
X125026681Y-99266900D01*
X191359922Y-105928380D02*
X191377803Y-105856994D01*
X118669737Y-99160718D02*
X118717963Y-99154770D01*
X167557036Y-27495229D02*
X167508576Y-27498804D01*
X190782340Y-20076307D02*
X190771358Y-20072071D01*
X191287060Y-106110523D02*
X191287168Y-106110302D01*
X191396477Y-24997517D02*
X191396840Y-24997188D01*
X136217125Y-99806480D02*
X136232368Y-99852619D01*
X191394874Y-99148646D02*
X191395295Y-99148394D01*
X191399918Y-24990681D02*
X191399942Y-24990190D01*
X168445229Y-100757036D02*
X168439281Y-100805262D01*
X168255173Y-27099740D02*
X168225278Y-27138047D01*
X179170229Y-25892963D02*
X179173804Y-25941423D01*
X105606002Y-99149087D02*
X105606455Y-99149275D01*
X160754671Y-25749450D02*
X160767631Y-25702619D01*
X105603522Y-24997517D02*
X105603902Y-24997829D01*
X105819827Y-106274731D02*
X105827069Y-106284010D01*
X105600000Y-99137727D02*
X105600003Y-99137972D01*
X191397188Y-99146840D02*
X191397517Y-99146477D01*
X135793960Y-25140851D02*
X135835012Y-25166847D01*
X129252619Y-99192631D02*
X129299450Y-99179671D01*
X183116423Y-99151195D02*
X183165122Y-99150000D01*
X106128963Y-20118231D02*
X106128530Y-20118462D01*
X105901806Y-106365181D02*
X105901986Y-106365348D01*
X172061144Y-27424637D02*
X172016721Y-27404946D01*
X179155974Y-99946861D02*
X179164281Y-99994737D01*
X171775158Y-101393539D02*
X171739966Y-101360033D01*
X105600081Y-101659318D02*
X105600057Y-101659809D01*
X139564966Y-25289966D02*
X139600158Y-25256460D01*
X161291721Y-27404946D02*
X161248318Y-27383099D01*
X156832036Y-27495229D02*
X156783576Y-27498804D01*
X106321382Y-20040140D02*
X106310038Y-20043279D01*
X171469025Y-100853138D02*
X171460718Y-100805262D01*
X105601353Y-24994874D02*
X105601605Y-24995295D01*
X105601878Y-101654296D02*
X105601605Y-101654704D01*
X139931480Y-101592125D02*
X139886144Y-101574637D01*
X105617413Y-105832950D02*
X105617452Y-105833193D01*
X161014966Y-25289966D02*
X161050158Y-25256460D01*
X179145328Y-99899450D02*
X179155974Y-99946861D01*
X168448804Y-100708576D02*
X168445229Y-100757036D01*
X105606917Y-24999440D02*
X105607387Y-24999583D01*
X135572380Y-25042631D02*
X135618519Y-25057874D01*
X139600158Y-27243539D02*
X139564966Y-27210033D01*
X105605142Y-20901768D02*
X105605094Y-20902256D01*
X191398877Y-27505558D02*
X191398646Y-27505125D01*
X160981460Y-25325158D02*
X161014966Y-25289966D01*
X167508576Y-101648804D02*
X167459877Y-101650000D01*
X139675259Y-99344826D02*
X139714987Y-99316847D01*
X190771128Y-106578014D02*
X190771358Y-106577928D01*
X105619561Y-105845271D02*
X105622139Y-105856756D01*
X156975549Y-101620328D02*
X156928138Y-101630974D01*
X190945043Y-106487778D02*
X190945252Y-106487650D01*
X191399996Y-21012027D02*
X191399406Y-20987987D01*
X182250362Y-99761144D02*
X182270053Y-99716721D01*
X160726195Y-25941423D02*
X160729770Y-25892963D01*
X117844025Y-100853138D02*
X117835718Y-100805262D01*
X136199637Y-26888855D02*
X136179946Y-26933278D01*
X191399440Y-27506917D02*
X191399275Y-27506455D01*
X157725000Y-25990122D02*
X157725000Y-26509877D01*
X125492125Y-25656480D02*
X125507368Y-25702619D01*
X105600201Y-27508344D02*
X105600129Y-27508830D01*
X156734877Y-27500000D02*
X140265122Y-27500000D01*
X168450000Y-26509877D02*
X168448804Y-26558576D01*
X190771128Y-20071985D02*
X190701839Y-20047194D01*
X136264281Y-100805262D02*
X136255974Y-100853138D01*
X136270229Y-26607036D02*
X136264281Y-26655262D01*
X160729770Y-100042963D02*
X160735718Y-99994737D01*
X106034771Y-20175697D02*
X106034572Y-20175841D01*
X191231352Y-20444802D02*
X191231080Y-20444394D01*
X105622196Y-105856994D02*
X105640077Y-105928380D01*
X179173804Y-25941423D02*
X179175000Y-25990122D01*
X182500158Y-99406460D02*
X182536952Y-99374721D01*
X128551195Y-100708576D02*
X128550000Y-100659877D01*
X182399721Y-99511952D02*
X182431460Y-99475158D01*
X105676495Y-20617206D02*
X105676307Y-20617659D01*
X156734877Y-99150000D02*
X156783576Y-99151195D01*
X129252619Y-27457368D02*
X129206480Y-27442125D01*
X179173804Y-100708576D02*
X179170229Y-100757036D01*
X118717963Y-25004770D02*
X118766423Y-25001195D01*
X118348318Y-25116900D02*
X118391721Y-25095053D01*
X136108152Y-27060012D02*
X136080173Y-27099740D01*
X157285012Y-99316847D02*
X157324740Y-99344826D01*
X160891847Y-25439987D02*
X160919826Y-25400259D01*
X114684148Y-101168960D02*
X114658152Y-101210012D01*
X114385012Y-101483152D02*
X114343960Y-101509148D01*
X190871036Y-20118231D02*
X190860523Y-20112939D01*
X139275000Y-25990122D02*
X139276195Y-25941423D01*
X182971861Y-25019025D02*
X183019737Y-25010718D01*
X191318734Y-106043554D02*
X191323504Y-106032793D01*
X190793554Y-106568734D02*
X190793777Y-106568632D01*
X114600278Y-101288047D02*
X114568539Y-101324841D01*
X105893281Y-106357065D02*
X105901806Y-106365181D01*
X160891847Y-101210012D02*
X160865851Y-101168960D01*
X128550000Y-26509877D02*
X128550000Y-25990122D01*
X105609809Y-99149942D02*
X105612027Y-99149996D01*
X157285012Y-101483152D02*
X157243960Y-101509148D01*
X105600724Y-101656455D02*
X105600559Y-101656917D01*
X117920053Y-25566721D02*
X117941900Y-25523318D01*
X114600278Y-27138047D02*
X114568539Y-27174841D01*
X191393544Y-101650724D02*
X191393082Y-101650559D01*
X171545053Y-26933278D02*
X171525362Y-26888855D01*
X139285718Y-26655262D02*
X139279770Y-26607036D01*
X140071861Y-99169025D02*
X140119737Y-99160718D01*
X191382586Y-105832950D02*
X191393383Y-105760156D01*
X156880262Y-101639281D02*
X156832036Y-101645229D01*
X136273804Y-100091423D02*
X136275000Y-100140122D01*
X182232874Y-26843519D02*
X182217631Y-26797380D01*
X125149740Y-27305173D02*
X125110012Y-27333152D01*
X114301681Y-99266900D02*
X114343960Y-99290851D01*
X160767631Y-26797380D02*
X160754671Y-26750549D01*
X157201681Y-27383099D02*
X157158278Y-27404946D01*
X125550000Y-25990122D02*
X125550000Y-26509877D01*
X171454770Y-25892963D02*
X171460718Y-25844737D01*
X157705974Y-99946861D02*
X157714281Y-99994737D01*
X105601122Y-101655558D02*
X105600912Y-101656002D01*
X105762349Y-106195252D02*
X105768647Y-106205197D01*
X135949841Y-101393539D02*
X135913047Y-101425278D01*
X128666900Y-101126681D02*
X128645053Y-101083278D01*
X191164768Y-106293486D02*
X191164931Y-106293302D01*
X178885033Y-25289966D02*
X178918539Y-25325158D01*
X160782874Y-100993519D02*
X160767631Y-100947380D01*
X168407368Y-100947380D02*
X168392125Y-100993519D01*
X139977619Y-27457368D02*
X139931480Y-27442125D01*
X160800362Y-101038855D02*
X160782874Y-100993519D01*
X114729946Y-25566721D02*
X114749637Y-25611144D01*
X191398121Y-27504296D02*
X191397829Y-27503902D01*
X178282036Y-101645229D02*
X178233576Y-101648804D01*
X105619465Y-20805209D02*
X105617452Y-20816806D01*
X139636952Y-25224721D02*
X139675259Y-25194826D01*
X117900362Y-101038855D02*
X117882874Y-100993519D01*
X114820229Y-100042963D02*
X114823804Y-100091423D01*
X135284877Y-25000000D02*
X135333576Y-25001195D01*
X105601122Y-24994441D02*
X105601353Y-24994874D01*
X135525549Y-25029671D02*
X135572380Y-25042631D01*
X179058099Y-25523318D02*
X179079946Y-25566721D01*
X191399918Y-27509318D02*
X191399870Y-27508830D01*
X157113855Y-99225362D02*
X157158278Y-99245053D01*
X160726195Y-26558576D02*
X160725000Y-26509877D01*
X105604296Y-101651878D02*
X105603902Y-101652170D01*
X160782874Y-25656480D02*
X160800362Y-25611144D01*
X179145328Y-26750549D02*
X179132368Y-26797380D01*
X105604704Y-24998394D02*
X105605125Y-24998646D01*
X105602811Y-27503159D02*
X105602482Y-27503522D01*
X167793519Y-101592125D02*
X167747380Y-101607368D01*
X117825000Y-25990122D02*
X117826195Y-25941423D01*
X136050278Y-27138047D02*
X136018539Y-27174841D01*
X118306039Y-99290851D02*
X118348318Y-99266900D01*
X136080173Y-27099740D02*
X136050278Y-27138047D01*
X191043302Y-106414931D02*
X191043486Y-106414768D01*
X178330262Y-27489281D02*
X178282036Y-27495229D01*
X105600724Y-24993544D02*
X105600912Y-24993997D01*
X157068519Y-27442125D02*
X157022380Y-27457368D01*
X161125259Y-27305173D02*
X161086952Y-27275278D01*
X191387727Y-27500000D02*
X183165122Y-27500000D01*
X167653138Y-101630974D02*
X167605262Y-101639281D01*
X168088047Y-101425278D02*
X168049740Y-101455173D01*
X105600003Y-21012027D02*
X105600000Y-21012272D01*
X171973318Y-101533099D02*
X171931039Y-101509148D01*
X190965427Y-20175841D02*
X190965228Y-20175697D01*
X190965228Y-20175697D02*
X190955605Y-20168919D01*
X178849841Y-101393539D02*
X178813047Y-101425278D01*
X157201681Y-101533099D02*
X157158278Y-101554946D01*
X139499721Y-101288047D02*
X139469826Y-101249740D01*
X118391721Y-25095053D02*
X118436144Y-25075362D01*
X178425549Y-25029671D02*
X178472380Y-25042631D01*
X124938855Y-99225362D02*
X124983278Y-99245053D01*
X106206222Y-106568632D02*
X106206445Y-106568734D01*
X118264987Y-27333152D02*
X118225259Y-27305173D01*
X182194025Y-25796861D02*
X182204671Y-25749450D01*
X105609809Y-101650057D02*
X105609318Y-101650081D01*
X117900362Y-99761144D02*
X117920053Y-99716721D01*
X161086952Y-27275278D02*
X161050158Y-27243539D01*
X128875158Y-101393539D02*
X128839966Y-101360033D01*
X128716847Y-27060012D02*
X128690851Y-27018960D01*
X178849841Y-27243539D02*
X178813047Y-27275278D01*
X182575259Y-27305173D02*
X182536952Y-27275278D01*
X171525362Y-99761144D02*
X171545053Y-99716721D01*
X191359922Y-20721619D02*
X191359859Y-20721382D01*
X161521861Y-25019025D02*
X161569737Y-25010718D01*
X171889987Y-101483152D02*
X171850259Y-101455173D01*
X179008152Y-101210012D02*
X178980173Y-101249740D01*
X124938855Y-25075362D02*
X124983278Y-25095053D01*
X167459877Y-25000000D02*
X167508576Y-25001195D01*
X105602482Y-101653522D02*
X105602170Y-101653902D01*
X171451195Y-100091423D02*
X171454770Y-100042963D01*
X191391169Y-99149870D02*
X191391655Y-99149798D01*
X191387972Y-101650003D02*
X191387727Y-101650000D01*
X135708278Y-101554946D02*
X135663855Y-101574637D01*
X114568539Y-25325158D02*
X114600278Y-25361952D01*
X182179770Y-100042963D02*
X182185718Y-99994737D01*
X167508576Y-25001195D02*
X167557036Y-25004770D01*
X190965228Y-106474302D02*
X190965427Y-106474158D01*
X157530173Y-101249740D02*
X157500278Y-101288047D01*
X128875158Y-99406460D02*
X128911952Y-99374721D01*
X191098193Y-106365181D02*
X191106718Y-106357065D01*
X105612272Y-99150000D02*
X113834877Y-99150000D01*
X139415851Y-25481039D02*
X139441847Y-25439987D01*
X118186952Y-25224721D02*
X118225259Y-25194826D01*
X191399275Y-27506455D02*
X191399087Y-27506002D01*
X139564966Y-101360033D02*
X139531460Y-101324841D01*
X135284877Y-99150000D02*
X135284877Y-99150000D01*
X136270229Y-100757036D02*
X136264281Y-100805262D01*
X171739966Y-99439966D02*
X171775158Y-99406460D01*
X179155974Y-25796861D02*
X179164281Y-25844737D01*
X190594790Y-20019465D02*
X190583193Y-20017452D01*
X191231080Y-106205605D02*
X191231352Y-106205197D01*
X105768647Y-106205197D02*
X105768919Y-106205605D01*
X191399275Y-24993544D02*
X191399440Y-24993082D01*
X105612272Y-101650000D02*
X105612027Y-101650003D01*
X114795328Y-100900549D02*
X114782368Y-100947380D01*
X125224841Y-101393539D02*
X125188047Y-101425278D01*
X178950278Y-25361952D02*
X178980173Y-25400259D01*
X105775841Y-106215427D02*
X105819678Y-106274535D01*
X191172930Y-106284010D02*
X191180172Y-106274731D01*
X128569025Y-26703138D02*
X128560718Y-26655262D01*
X190595271Y-20019561D02*
X190594790Y-20019465D01*
X125325278Y-101288047D02*
X125293539Y-101324841D01*
X182786144Y-101574637D02*
X182741721Y-101554946D01*
X105884818Y-20301806D02*
X105884651Y-20301986D01*
X114568539Y-99475158D02*
X114600278Y-99511952D01*
X156928138Y-101630974D02*
X156880262Y-101639281D01*
X182536952Y-25224721D02*
X182575259Y-25194826D01*
X136232368Y-25702619D02*
X136245328Y-25749450D01*
X118766423Y-25001195D02*
X118815122Y-25000000D01*
X161248318Y-25116900D02*
X161291721Y-25095053D01*
X167557036Y-99154770D02*
X167605262Y-99160718D01*
X118527619Y-27457368D02*
X118481480Y-27442125D01*
X190606756Y-20022139D02*
X190595271Y-20019561D01*
X191399996Y-27512027D02*
X191399942Y-27509809D01*
X125026681Y-101533099D02*
X124983278Y-101554946D01*
X106612272Y-106650000D02*
X190387727Y-106650000D01*
X156880262Y-27489281D02*
X156832036Y-27495229D01*
X190486004Y-106645771D02*
X190497743Y-106644905D01*
X191395295Y-27501605D02*
X191394874Y-27501353D01*
X160841900Y-26976681D02*
X160820053Y-26933278D01*
X182786144Y-25075362D02*
X182831480Y-25057874D01*
X114767125Y-99806480D02*
X114782368Y-99852619D01*
X182194025Y-26703138D02*
X182185718Y-26655262D01*
X168392125Y-100993519D02*
X168374637Y-101038855D01*
X160725000Y-100659877D02*
X160725000Y-100140122D01*
X191397517Y-99146477D02*
X191397829Y-99146097D01*
X171566900Y-26976681D02*
X171545053Y-26933278D01*
X125409148Y-101168960D02*
X125383152Y-101210012D01*
X105601353Y-101655125D02*
X105601122Y-101655558D01*
X191399087Y-99143997D02*
X191399275Y-99143544D01*
X139636952Y-99374721D02*
X139675259Y-99344826D01*
X135708278Y-25095053D02*
X135751681Y-25116900D01*
X172440122Y-101650000D02*
X172391423Y-101648804D01*
X161086952Y-99374721D02*
X161125259Y-99344826D01*
X106044802Y-106481352D02*
X106054747Y-106487650D01*
X114385012Y-99316847D02*
X114424740Y-99344826D01*
X182341847Y-27060012D02*
X182315851Y-27018960D01*
X105602482Y-24996477D02*
X105602811Y-24996840D01*
X190510156Y-20006616D02*
X190509913Y-20006582D01*
X105601353Y-27505125D02*
X105601122Y-27505558D01*
X118574450Y-25029671D02*
X118621861Y-25019025D01*
X190509913Y-106643417D02*
X190510156Y-106643383D01*
X191356577Y-20709568D02*
X191352885Y-20698392D01*
X105893281Y-20292934D02*
X105892934Y-20293281D01*
X178774740Y-99344826D02*
X178813047Y-99374721D01*
X118019826Y-25400259D02*
X118049721Y-25361952D01*
X182232874Y-25656480D02*
X182250362Y-25611144D01*
X178735012Y-101483152D02*
X178693960Y-101509148D01*
X191275611Y-106131923D02*
X191275735Y-106131711D01*
X129394737Y-99160718D02*
X129442963Y-99154770D01*
X178184877Y-99150000D02*
X178184877Y-99150000D01*
X157682368Y-26797380D02*
X157667125Y-26843519D01*
X191323692Y-106032340D02*
X191327928Y-106021358D01*
X105768919Y-106205605D02*
X105775697Y-106215228D01*
X105600912Y-99143997D02*
X105601122Y-99144441D01*
X139294025Y-25796861D02*
X139304671Y-25749450D01*
X139350362Y-25611144D02*
X139370053Y-25566721D01*
X160865851Y-99631039D02*
X160891847Y-99589987D01*
X160919826Y-27099740D02*
X160891847Y-27060012D01*
X191400000Y-27512272D02*
X191399996Y-27512027D01*
X136264281Y-26655262D02*
X136255974Y-26703138D01*
X182250362Y-25611144D02*
X182270053Y-25566721D01*
X139886144Y-27424637D02*
X139841721Y-27404946D01*
X190871036Y-106531768D02*
X190871469Y-106531537D01*
X124657036Y-99154770D02*
X124705262Y-99160718D01*
X157649637Y-101038855D02*
X157629946Y-101083278D01*
X171644826Y-99550259D02*
X171674721Y-99511952D01*
X124800549Y-99179671D02*
X124847380Y-99192631D01*
X182179770Y-25892963D02*
X182185718Y-25844737D01*
X167459877Y-101650000D02*
X161715122Y-101650000D01*
X117965851Y-101168960D02*
X117941900Y-101126681D01*
X106321619Y-106609922D02*
X106393005Y-106627803D01*
X191396477Y-101652482D02*
X191396097Y-101652170D01*
X183067963Y-27495229D02*
X183019737Y-27489281D01*
X105600559Y-101656917D02*
X105600416Y-101657387D01*
X171469025Y-25796861D02*
X171479671Y-25749450D01*
X124847380Y-25042631D02*
X124893519Y-25057874D01*
X168255173Y-99550259D02*
X168283152Y-99589987D01*
X128607874Y-100993519D02*
X128592631Y-100947380D01*
X139841721Y-101554946D02*
X139798318Y-101533099D01*
X191399996Y-99137972D02*
X191400000Y-99137727D01*
X183067963Y-101645229D02*
X183019737Y-101639281D01*
X125539281Y-100805262D02*
X125530974Y-100853138D01*
X157530173Y-27099740D02*
X157500278Y-27138047D01*
X135751681Y-99266900D02*
X135793960Y-99290851D01*
X178233576Y-101648804D02*
X178184877Y-101650000D01*
X128911952Y-27275278D02*
X128875158Y-27243539D01*
X139675259Y-25194826D02*
X139714987Y-25166847D01*
X105600297Y-27507863D02*
X105600201Y-27508344D01*
X182291900Y-99673318D02*
X182315851Y-99631039D01*
X128645053Y-25566721D02*
X128666900Y-25523318D01*
X167793519Y-25057874D02*
X167838855Y-25075362D01*
X157500278Y-101288047D02*
X157468539Y-101324841D01*
X182291900Y-26976681D02*
X182270053Y-26933278D01*
X105607387Y-99149583D02*
X105607863Y-99149702D01*
X161125259Y-99344826D02*
X161164987Y-99316847D01*
X139304671Y-25749450D02*
X139317631Y-25702619D01*
X135913047Y-25224721D02*
X135949841Y-25256460D01*
X139756039Y-101509148D02*
X139714987Y-101483152D01*
X105884818Y-106348193D02*
X105892934Y-106356718D01*
X139350362Y-26888855D02*
X139332874Y-26843519D01*
X105606917Y-101650559D02*
X105606455Y-101650724D01*
X139294025Y-100853138D02*
X139285718Y-100805262D01*
X105712831Y-20539697D02*
X105681367Y-20606222D01*
X139350362Y-99761144D02*
X139370053Y-99716721D01*
X191396477Y-99147517D02*
X191396840Y-99147188D01*
X105605558Y-24998877D02*
X105606002Y-24999087D01*
X179008152Y-27060012D02*
X178980173Y-27099740D01*
X136108152Y-101210012D02*
X136080173Y-101249740D01*
X129206480Y-99207874D02*
X129252619Y-99192631D01*
X178518519Y-27442125D02*
X178472380Y-27457368D01*
X125068960Y-25140851D02*
X125110012Y-25166847D01*
X105676307Y-20617659D02*
X105672071Y-20628641D01*
X161521861Y-99169025D02*
X161569737Y-99160718D01*
X105965989Y-20227069D02*
X105965610Y-20227380D01*
X125224841Y-27243539D02*
X125188047Y-27275278D01*
X105827380Y-20365610D02*
X105827069Y-20365989D01*
X167653138Y-25019025D02*
X167700549Y-25029671D01*
X160735718Y-26655262D02*
X160729770Y-26607036D01*
X124847380Y-99192631D02*
X124893519Y-99207874D01*
X191281768Y-106121036D02*
X191287060Y-106110523D01*
X135793960Y-27359148D02*
X135751681Y-27383099D01*
X191237778Y-106195043D02*
X191275611Y-106131923D01*
X168392125Y-99806480D02*
X168407368Y-99852619D01*
X157714281Y-100805262D02*
X157705974Y-100853138D01*
X105602170Y-27503902D02*
X105601878Y-27504296D01*
X136245328Y-100900549D02*
X136232368Y-100947380D01*
X136158099Y-101126681D02*
X136134148Y-101168960D01*
X135284877Y-27500000D02*
X129540122Y-27500000D01*
X140024450Y-25029671D02*
X140071861Y-25019025D01*
X157629946Y-25566721D02*
X157649637Y-25611144D01*
X105604228Y-20913995D02*
X105604213Y-20914240D01*
X124893519Y-101592125D02*
X124847380Y-101607368D01*
X118815122Y-101650000D02*
X118766423Y-101648804D01*
X171492631Y-99852619D02*
X171507874Y-99806480D01*
X139675259Y-27305173D02*
X139636952Y-27275278D01*
X190860523Y-106537060D02*
X190871036Y-106531768D01*
X168010012Y-99316847D02*
X168049740Y-99344826D01*
X182341847Y-99589987D02*
X182369826Y-99550259D01*
X191392612Y-27500416D02*
X191392136Y-27500297D01*
X118081460Y-25325158D02*
X118114966Y-25289966D01*
X105606917Y-27500559D02*
X105606455Y-27500724D01*
X182194025Y-100853138D02*
X182185718Y-100805262D01*
X105975464Y-20219678D02*
X105975268Y-20219827D01*
X182270053Y-101083278D02*
X182250362Y-101038855D01*
X172294737Y-27489281D02*
X172246861Y-27480974D01*
X157285012Y-25166847D02*
X157324740Y-25194826D01*
X105965610Y-106422619D02*
X105965989Y-106422930D01*
X118766423Y-101648804D02*
X118717963Y-101645229D01*
X124559877Y-101650000D02*
X118815122Y-101650000D01*
X182500158Y-101393539D02*
X182464966Y-101360033D01*
X125454946Y-25566721D02*
X125474637Y-25611144D01*
X190678617Y-20040140D02*
X190678380Y-20040077D01*
X172199450Y-101620328D02*
X172152619Y-101607368D01*
X106416806Y-106632547D02*
X106417049Y-106632586D01*
X171492631Y-100947380D02*
X171479671Y-100900549D01*
X114600278Y-25361952D02*
X114630173Y-25400259D01*
X136273804Y-26558576D02*
X136270229Y-26607036D01*
X182194025Y-99946861D02*
X182204671Y-99899450D01*
X190955605Y-20168919D02*
X190955197Y-20168647D01*
X167968960Y-27359148D02*
X167926681Y-27383099D01*
X125507368Y-26797380D02*
X125492125Y-26843519D01*
X172106480Y-99207874D02*
X172152619Y-99192631D01*
X160754671Y-99899450D02*
X160767631Y-99852619D01*
X106128963Y-106531768D02*
X106139476Y-106537060D01*
X124559877Y-27500000D02*
X118815122Y-27500000D01*
X124559877Y-99150000D02*
X124608576Y-99151195D01*
X140216423Y-101648804D02*
X140167963Y-101645229D01*
X191398646Y-99144874D02*
X191398877Y-99144441D01*
X161164987Y-27333152D02*
X161125259Y-27305173D01*
X128607874Y-99806480D02*
X128625362Y-99761144D01*
X171644826Y-27099740D02*
X171616847Y-27060012D01*
X167883278Y-27404946D02*
X167838855Y-27424637D01*
X128569025Y-25796861D02*
X128579671Y-25749450D01*
X160981460Y-99475158D02*
X161014966Y-99439966D01*
X157558152Y-27060012D02*
X157530173Y-27099740D01*
X106217659Y-106573692D02*
X106228641Y-106577928D01*
X171973318Y-99266900D02*
X172016721Y-99245053D01*
X171931039Y-27359148D02*
X171889987Y-27333152D01*
X178184877Y-99150000D02*
X178233576Y-99151195D01*
X136179946Y-25566721D02*
X136199637Y-25611144D01*
X191115348Y-20301986D02*
X191115181Y-20301806D01*
X129346861Y-25019025D02*
X129394737Y-25010718D01*
X168309148Y-25481039D02*
X168333099Y-25523318D01*
X106310038Y-20043279D02*
X106309568Y-20043422D01*
X128645053Y-99716721D02*
X128666900Y-99673318D01*
X114684148Y-25481039D02*
X114708099Y-25523318D01*
X191397188Y-27503159D02*
X191396840Y-27502811D01*
X140071861Y-101630974D02*
X140024450Y-101620328D01*
X139275000Y-25990122D02*
X139275000Y-25990122D01*
X190782793Y-106573504D02*
X190793554Y-106568734D01*
X128716847Y-99589987D02*
X128744826Y-99550259D01*
X178233576Y-99151195D02*
X178282036Y-99154770D01*
X191399583Y-24992612D02*
X191399702Y-24992136D01*
X160891847Y-99589987D02*
X160919826Y-99550259D01*
X136264281Y-99994737D02*
X136270229Y-100042963D01*
X105603159Y-24997188D02*
X105603522Y-24997517D01*
X114075549Y-27470328D02*
X114028138Y-27480974D01*
X161569737Y-25010718D02*
X161617963Y-25004770D01*
X105617413Y-20817049D02*
X105606616Y-20889843D01*
X117825000Y-26509877D02*
X117825000Y-25990122D01*
X168450000Y-25990122D02*
X168450000Y-26509877D01*
X156783576Y-27498804D02*
X156734877Y-27500000D01*
X171451195Y-25941423D02*
X171454770Y-25892963D01*
X171566900Y-99673318D02*
X171590851Y-99631039D01*
X125293539Y-99475158D02*
X125325278Y-99511952D01*
X191356720Y-105939961D02*
X191359859Y-105928617D01*
X106139476Y-106537060D02*
X106139697Y-106537168D01*
X191391655Y-101650201D02*
X191391169Y-101650129D01*
X191399087Y-27506002D02*
X191398877Y-27505558D01*
X105775841Y-20434572D02*
X105775697Y-20434771D01*
X135913047Y-101425278D02*
X135874740Y-101455173D01*
X114168519Y-27442125D02*
X114122380Y-27457368D01*
X129299450Y-99179671D02*
X129346861Y-99169025D01*
X114658152Y-101210012D02*
X114630173Y-101249740D01*
X191396477Y-27502482D02*
X191396097Y-27502170D01*
X179164281Y-25844737D02*
X179170229Y-25892963D01*
X125260033Y-99439966D02*
X125293539Y-99475158D01*
X179175000Y-100659877D02*
X179173804Y-100708576D01*
X105601605Y-24995295D02*
X105601878Y-24995703D01*
X125026681Y-99266900D02*
X125068960Y-99290851D01*
X171566900Y-101126681D02*
X171545053Y-101083278D01*
X168225278Y-27138047D02*
X168193539Y-27174841D01*
X105600081Y-27509318D02*
X105600057Y-27509809D01*
X106044394Y-106481080D02*
X106044802Y-106481352D01*
X139317631Y-26797380D02*
X139304671Y-26750549D01*
X157725000Y-100659877D02*
X157723804Y-100708576D01*
X124800549Y-25029671D02*
X124847380Y-25042631D01*
X105901986Y-106365348D02*
X105956513Y-106414768D01*
X161336144Y-25075362D02*
X161381480Y-25057874D01*
X114658152Y-27060012D02*
X114630173Y-27099740D01*
X183067963Y-25004770D02*
X183116423Y-25001195D01*
X191034010Y-106422930D02*
X191034389Y-106422619D01*
X118081460Y-99475158D02*
X118114966Y-99439966D01*
X167883278Y-99245053D02*
X167926681Y-99266900D01*
X183116423Y-25001195D02*
X183165122Y-25000000D01*
X135618519Y-99207874D02*
X135663855Y-99225362D01*
X139564966Y-99439966D02*
X139600158Y-99406460D01*
X172342963Y-99154770D02*
X172391423Y-99151195D01*
X128607874Y-26843519D02*
X128592631Y-26797380D01*
X157399841Y-99406460D02*
X157435033Y-99439966D01*
X139886144Y-25075362D02*
X139931480Y-25057874D01*
X157695328Y-100900549D02*
X157682368Y-100947380D01*
X125293539Y-27174841D02*
X125260033Y-27210033D01*
X117941900Y-101126681D02*
X117920053Y-101083278D01*
X160865851Y-25481039D02*
X160891847Y-25439987D01*
X105600003Y-99137972D02*
X105600057Y-99140190D01*
X191396840Y-24997188D02*
X191397188Y-24996840D01*
X157113855Y-27424637D02*
X157068519Y-27442125D01*
X179173804Y-26558576D02*
X179170229Y-26607036D01*
X129206480Y-101592125D02*
X129161144Y-101574637D01*
X191399702Y-101657863D02*
X191399583Y-101657387D01*
X191377860Y-105856756D02*
X191380438Y-105845271D01*
X135949841Y-27243539D02*
X135913047Y-27275278D01*
X191394857Y-105748231D02*
X191394905Y-105747743D01*
X168407368Y-26797380D02*
X168392125Y-26843519D01*
X105603902Y-99147829D02*
X105604296Y-99148121D01*
X167653138Y-99169025D02*
X167700549Y-99179671D01*
X178563855Y-101574637D02*
X178518519Y-101592125D01*
X106393005Y-20022196D02*
X106321619Y-20040077D01*
X178774740Y-25194826D02*
X178813047Y-25224721D01*
X157363047Y-25224721D02*
X157399841Y-25256460D01*
X171545053Y-25566721D02*
X171566900Y-25523318D01*
X157324740Y-99344826D02*
X157363047Y-99374721D01*
X105608344Y-101650201D02*
X105607863Y-101650297D01*
X178849841Y-25256460D02*
X178885033Y-25289966D01*
X161164987Y-25166847D02*
X161206039Y-25140851D01*
X178518519Y-99207874D02*
X178563855Y-99225362D01*
X139275000Y-26509877D02*
X139275000Y-25990122D01*
X125149740Y-25194826D02*
X125188047Y-25224721D01*
X106612027Y-106649996D02*
X106612272Y-106650000D01*
X125530974Y-99946861D02*
X125539281Y-99994737D01*
X105622139Y-20793243D02*
X105619561Y-20804728D01*
X167968960Y-101509148D02*
X167926681Y-101533099D01*
X139714987Y-101483152D02*
X139675259Y-101455173D01*
X191172619Y-106284389D02*
X191172930Y-106284010D01*
X128560718Y-99994737D02*
X128569025Y-99946861D01*
X105965610Y-20227380D02*
X105956697Y-20235068D01*
X171811952Y-27275278D02*
X171775158Y-27243539D01*
X105884651Y-20301986D02*
X105835231Y-20356513D01*
X139636952Y-27275278D02*
X139600158Y-27243539D01*
X114782368Y-25702619D02*
X114795328Y-25749450D01*
X106513995Y-106645771D02*
X106514240Y-106645786D01*
X114028138Y-101630974D02*
X113980262Y-101639281D01*
X160820053Y-25566721D02*
X160841900Y-25523318D01*
X178735012Y-25166847D02*
X178774740Y-25194826D01*
X113932036Y-99154770D02*
X113980262Y-99160718D01*
X157584148Y-27018960D02*
X157558152Y-27060012D01*
X140167963Y-99154770D02*
X140216423Y-99151195D01*
X190689961Y-20043279D02*
X190678617Y-20040140D01*
X182614987Y-99316847D02*
X182656039Y-99290851D01*
X139276195Y-100091423D02*
X139279770Y-100042963D01*
X117941900Y-25523318D02*
X117965851Y-25481039D01*
X157435033Y-101360033D02*
X157399841Y-101393539D01*
X105608830Y-101650129D02*
X105608344Y-101650201D01*
X135382036Y-25004770D02*
X135430262Y-25010718D01*
X124983278Y-25095053D02*
X125026681Y-25116900D01*
X105600201Y-101658344D02*
X105600129Y-101658830D01*
X117882874Y-25656480D02*
X117900362Y-25611144D01*
X191398394Y-27504704D02*
X191398121Y-27504296D01*
X129161144Y-99225362D02*
X129206480Y-99207874D01*
X118815122Y-27500000D02*
X118766423Y-27498804D01*
X105835068Y-20356697D02*
X105827380Y-20365610D01*
X125188047Y-101425278D02*
X125149740Y-101455173D01*
X128806460Y-25325158D02*
X128839966Y-25289966D01*
X168309148Y-101168960D02*
X168283152Y-101210012D01*
X117829770Y-26607036D02*
X117826195Y-26558576D01*
X171451195Y-26558576D02*
X171450000Y-26509877D01*
X105606002Y-101650912D02*
X105605558Y-101651122D01*
X114823804Y-100091423D02*
X114825000Y-100140122D01*
X191391655Y-99149798D02*
X191392136Y-99149702D01*
X128554770Y-25892963D02*
X128560718Y-25844737D01*
X106310038Y-106606720D02*
X106321382Y-106609859D01*
X171525362Y-26888855D02*
X171507874Y-26843519D01*
X118049721Y-99511952D02*
X118081460Y-99475158D01*
X105600602Y-105662257D02*
X105604213Y-105735759D01*
X178813047Y-27275278D02*
X178774740Y-27305173D01*
X182831480Y-25057874D02*
X182877619Y-25042631D01*
X182575259Y-25194826D02*
X182614987Y-25166847D01*
X114499841Y-25256460D02*
X114535033Y-25289966D01*
X139798318Y-27383099D02*
X139756039Y-27359148D01*
X157720229Y-100042963D02*
X157723804Y-100091423D01*
X139276195Y-100708576D02*
X139275000Y-100659877D01*
X191398646Y-27505125D02*
X191398394Y-27504704D01*
X190945252Y-106487650D02*
X190955197Y-106481352D01*
X135751681Y-25116900D02*
X135793960Y-25140851D01*
X106417049Y-106632586D02*
X106489843Y-106643383D01*
X105601353Y-99144874D02*
X105601605Y-99145295D01*
X172061144Y-99225362D02*
X172106480Y-99207874D01*
X157285012Y-27333152D02*
X157243960Y-27359148D01*
X168439281Y-26655262D02*
X168430974Y-26703138D01*
X178233576Y-27498804D02*
X178184877Y-27500000D01*
X182741721Y-27404946D02*
X182698318Y-27383099D01*
X191397829Y-27503902D02*
X191397517Y-27503522D01*
X178735012Y-99316847D02*
X178774740Y-99344826D01*
X136245328Y-99899450D02*
X136255974Y-99946861D01*
X105884651Y-106348013D02*
X105884818Y-106348193D01*
X179079946Y-25566721D02*
X179099637Y-25611144D01*
X106139697Y-106537168D02*
X106206222Y-106568632D01*
X167968960Y-25140851D02*
X168010012Y-25166847D01*
X182176195Y-26558576D02*
X182175000Y-26509877D01*
X106118076Y-106525611D02*
X106118288Y-106525735D01*
X161336144Y-27424637D02*
X161291721Y-27404946D01*
X117826195Y-100091423D02*
X117829770Y-100042963D01*
X178885033Y-27210033D02*
X178849841Y-27243539D01*
X128579671Y-99899450D02*
X128592631Y-99852619D01*
X139469826Y-25400259D02*
X139499721Y-25361952D01*
X136018539Y-27174841D02*
X135985033Y-27210033D01*
X161336144Y-101574637D02*
X161291721Y-101554946D01*
X139798318Y-101533099D02*
X139756039Y-101509148D01*
X105604296Y-99148121D02*
X105604704Y-99148394D01*
X124983278Y-101554946D02*
X124938855Y-101574637D01*
X156928138Y-99169025D02*
X156975549Y-99179671D01*
X105600057Y-101659809D02*
X105600003Y-101662027D01*
X124608576Y-25001195D02*
X124657036Y-25004770D01*
X182315851Y-25481039D02*
X182341847Y-25439987D01*
X129394737Y-101639281D02*
X129346861Y-101630974D01*
X157435033Y-27210033D02*
X157399841Y-27243539D01*
X191393544Y-24999275D02*
X191393997Y-24999087D01*
X105975268Y-20219827D02*
X105965989Y-20227069D01*
X191396097Y-27502170D02*
X191395703Y-27501878D01*
X105612027Y-24999996D02*
X105612272Y-25000000D01*
X136050278Y-25361952D02*
X136080173Y-25400259D01*
X160726195Y-100708576D02*
X160725000Y-100659877D01*
X139275000Y-100140122D02*
X139275000Y-100140122D01*
X157500278Y-27138047D02*
X157468539Y-27174841D01*
X136264281Y-25844737D02*
X136270229Y-25892963D01*
X105612272Y-25000000D02*
X113834877Y-25000000D01*
X160725000Y-25990122D02*
X160726195Y-25941423D01*
X105606455Y-99149275D02*
X105606917Y-99149440D01*
X168333099Y-99673318D02*
X168354946Y-99716721D01*
X136050278Y-99511952D02*
X136080173Y-99550259D01*
X135382036Y-27495229D02*
X135333576Y-27498804D01*
X105600129Y-101658830D02*
X105600081Y-101659318D01*
X190881923Y-106525611D02*
X190945043Y-106487778D01*
X161617963Y-25004770D02*
X161666423Y-25001195D01*
X171460718Y-26655262D02*
X171454770Y-26607036D01*
X191399702Y-24992136D02*
X191399798Y-24991655D01*
X157695328Y-99899450D02*
X157705974Y-99946861D01*
X191399996Y-24987972D02*
X191400000Y-24987727D01*
X139332874Y-100993519D02*
X139317631Y-100947380D01*
X106054956Y-106487778D02*
X106118076Y-106525611D01*
X105601605Y-27504704D02*
X105601353Y-27505125D01*
X106513995Y-20004228D02*
X106502256Y-20005094D01*
X157468539Y-25325158D02*
X157500278Y-25361952D01*
X157725000Y-100140122D02*
X157725000Y-100659877D01*
X182741721Y-99245053D02*
X182786144Y-99225362D01*
X191115181Y-106348193D02*
X191115348Y-106348013D01*
X183165122Y-101650000D02*
X183116423Y-101648804D01*
X117826195Y-26558576D02*
X117825000Y-26509877D01*
X191399702Y-99142136D02*
X191399798Y-99141655D01*
X118436144Y-101574637D02*
X118391721Y-101554946D01*
X128560718Y-26655262D02*
X128554770Y-26607036D01*
X124705262Y-27489281D02*
X124657036Y-27495229D01*
X140024450Y-99179671D02*
X140071861Y-99169025D01*
X171454770Y-100757036D02*
X171451195Y-100708576D01*
X172246861Y-27480974D02*
X172199450Y-27470328D01*
X183165122Y-27500000D02*
X183116423Y-27498804D01*
X191377803Y-20793005D02*
X191359922Y-20721619D01*
X118481480Y-101592125D02*
X118436144Y-101574637D01*
X157682368Y-99852619D02*
X157695328Y-99899450D01*
X178918539Y-27174841D02*
X178885033Y-27210033D01*
X114535033Y-99439966D02*
X114568539Y-99475158D01*
X139636952Y-101425278D02*
X139600158Y-101393539D01*
X128716847Y-101210012D02*
X128690851Y-101168960D01*
X125383152Y-25439987D02*
X125409148Y-25481039D01*
X191399275Y-101656455D02*
X191399087Y-101656002D01*
X191395703Y-27501878D02*
X191395295Y-27501605D01*
X191392612Y-24999583D02*
X191393082Y-24999440D01*
X105603159Y-27502811D02*
X105602811Y-27503159D01*
X105600201Y-24991655D02*
X105600297Y-24992136D01*
X191393997Y-99149087D02*
X191394441Y-99148877D01*
X171545053Y-99716721D02*
X171566900Y-99673318D01*
X114075549Y-101620328D02*
X114028138Y-101630974D01*
X105601605Y-99145295D02*
X105601878Y-99145703D01*
X171739966Y-27210033D02*
X171706460Y-27174841D01*
X157243960Y-27359148D02*
X157201681Y-27383099D01*
X161666423Y-101648804D02*
X161617963Y-101645229D01*
X161666423Y-99151195D02*
X161715122Y-99150000D01*
X179058099Y-99673318D02*
X179079946Y-99716721D01*
X139600158Y-25256460D02*
X139636952Y-25224721D01*
X105600559Y-24993082D02*
X105600724Y-24993544D01*
X105600129Y-27508830D02*
X105600081Y-27509318D01*
X191399870Y-99141169D02*
X191399918Y-99140681D01*
X136134148Y-99631039D02*
X136158099Y-99673318D01*
X106502256Y-106644905D02*
X106513995Y-106645771D01*
X117920053Y-99716721D02*
X117941900Y-99673318D01*
X106404728Y-106630438D02*
X106405209Y-106630534D01*
X161474450Y-101620328D02*
X161427619Y-101607368D01*
X191387727Y-101650000D02*
X183165122Y-101650000D01*
X191328014Y-106021128D02*
X191352805Y-105951839D01*
X139441847Y-101210012D02*
X139415851Y-101168960D01*
X179079946Y-26933278D02*
X179058099Y-26976681D01*
X191393997Y-24999087D02*
X191394441Y-24998877D01*
X191399440Y-24993082D02*
X191399583Y-24992612D01*
X118621861Y-27480974D02*
X118574450Y-27470328D01*
X139279770Y-100042963D02*
X139285718Y-99994737D01*
X179117125Y-99806480D02*
X179132368Y-99852619D01*
X136232368Y-100947380D02*
X136217125Y-100993519D01*
X171590851Y-25481039D02*
X171616847Y-25439987D01*
X136018539Y-99475158D02*
X136050278Y-99511952D01*
X157500278Y-99511952D02*
X157530173Y-99550259D01*
X172016721Y-27404946D02*
X171973318Y-27383099D01*
X125539281Y-26655262D02*
X125530974Y-26703138D01*
X125068960Y-27359148D02*
X125026681Y-27383099D01*
X129346861Y-27480974D02*
X129299450Y-27470328D01*
X129442963Y-101645229D02*
X129394737Y-101639281D01*
X171479671Y-100900549D02*
X171469025Y-100853138D01*
X118815122Y-99150000D02*
X124559877Y-99150000D01*
X182536952Y-27275278D02*
X182500158Y-27243539D01*
X129206480Y-25057874D02*
X129252619Y-25042631D01*
X191359859Y-105928617D02*
X191359922Y-105928380D01*
X168430974Y-25796861D02*
X168439281Y-25844737D01*
X125545229Y-100757036D02*
X125539281Y-100805262D01*
X114568539Y-101324841D02*
X114535033Y-101360033D01*
X178184877Y-27500000D02*
X172440122Y-27500000D01*
X191399798Y-101658344D02*
X191399702Y-101657863D01*
X114213855Y-99225362D02*
X114258278Y-99245053D01*
X191399397Y-20987742D02*
X191395786Y-20914240D01*
X114814281Y-26655262D02*
X114805974Y-26703138D01*
X191318734Y-20606445D02*
X191318632Y-20606222D01*
X191398121Y-99145703D02*
X191398394Y-99145295D01*
X128579671Y-26750549D02*
X128569025Y-26703138D01*
X105901806Y-20284818D02*
X105893281Y-20292934D01*
X171889987Y-99316847D02*
X171931039Y-99290851D01*
X114708099Y-99673318D02*
X114729946Y-99716721D01*
X105602811Y-101653159D02*
X105602482Y-101653522D01*
X113980262Y-27489281D02*
X113932036Y-27495229D01*
X157324740Y-25194826D02*
X157363047Y-25224721D01*
X114028138Y-27480974D02*
X113980262Y-27489281D01*
X167747380Y-101607368D02*
X167700549Y-101620328D01*
X179099637Y-26888855D02*
X179079946Y-26933278D01*
X117835718Y-25844737D02*
X117844025Y-25796861D01*
X160841900Y-101126681D02*
X160820053Y-101083278D01*
X172294737Y-25010718D02*
X172342963Y-25004770D01*
X178608278Y-25095053D02*
X178651681Y-25116900D01*
X190387972Y-20000003D02*
X190387727Y-20000000D01*
X118574450Y-99179671D02*
X118621861Y-99169025D01*
X118019826Y-27099740D02*
X117991847Y-27060012D01*
X105835068Y-106293302D02*
X105835231Y-106293486D01*
X178651681Y-27383099D02*
X178608278Y-27404946D01*
X168392125Y-25656480D02*
X168407368Y-25702619D01*
X191399996Y-101662027D02*
X191399942Y-101659809D01*
X156832036Y-25004770D02*
X156880262Y-25010718D01*
X160767631Y-25702619D02*
X160782874Y-25656480D01*
X160981460Y-101324841D02*
X160949721Y-101288047D01*
X178651681Y-99266900D02*
X178693960Y-99290851D01*
X182175000Y-100659877D02*
X182175000Y-100140122D01*
X135874740Y-101455173D02*
X135835012Y-101483152D01*
X190509913Y-20006582D02*
X190498231Y-20005142D01*
X125026681Y-27383099D02*
X124983278Y-27404946D01*
X125520328Y-99899450D02*
X125530974Y-99946861D01*
X139415851Y-101168960D02*
X139391900Y-101126681D01*
X125355173Y-27099740D02*
X125325278Y-27138047D01*
X105676495Y-106032793D02*
X105681265Y-106043554D01*
X191281768Y-20528963D02*
X191281537Y-20528530D01*
X106417049Y-20017413D02*
X106416806Y-20017452D01*
X117991847Y-25439987D02*
X118019826Y-25400259D01*
X171479671Y-26750549D02*
X171469025Y-26703138D01*
X105606002Y-27500912D02*
X105605558Y-27501122D01*
X182698318Y-99266900D02*
X182741721Y-99245053D01*
X190583193Y-20017452D02*
X190582950Y-20017413D01*
X136199637Y-25611144D02*
X136217125Y-25656480D01*
X168445229Y-25892963D02*
X168448804Y-25941423D01*
X182175000Y-100140122D02*
X182176195Y-100091423D01*
X124657036Y-25004770D02*
X124705262Y-25010718D01*
X191034010Y-20227069D02*
X191024731Y-20219827D01*
X114630173Y-101249740D02*
X114600278Y-101288047D01*
X135985033Y-99439966D02*
X136018539Y-99475158D01*
X172106480Y-27442125D02*
X172061144Y-27424637D01*
X135985033Y-101360033D02*
X135949841Y-101393539D01*
X105600003Y-105637972D02*
X105600593Y-105662012D01*
X113883576Y-27498804D02*
X113834877Y-27500000D01*
X106298160Y-20047194D02*
X106228871Y-20071985D01*
X157201681Y-25116900D02*
X157243960Y-25140851D01*
X191034389Y-20227380D02*
X191034010Y-20227069D01*
X182270053Y-99716721D02*
X182291900Y-99673318D01*
X128625362Y-101038855D02*
X128607874Y-100993519D01*
X117826195Y-25941423D02*
X117829770Y-25892963D01*
X157584148Y-25481039D02*
X157608099Y-25523318D01*
X161474450Y-27470328D02*
X161427619Y-27457368D01*
X182341847Y-25439987D02*
X182369826Y-25400259D01*
X105724264Y-20518288D02*
X105718462Y-20528530D01*
X168088047Y-27275278D02*
X168049740Y-27305173D01*
X157723804Y-26558576D02*
X157720229Y-26607036D01*
X106206445Y-20081265D02*
X106206222Y-20081367D01*
X114820229Y-26607036D02*
X114814281Y-26655262D01*
X106489843Y-20006616D02*
X106417049Y-20017413D01*
X118081460Y-101324841D02*
X118049721Y-101288047D01*
X182204671Y-25749450D02*
X182217631Y-25702619D01*
X124753138Y-27480974D02*
X124705262Y-27489281D01*
X136245328Y-26750549D02*
X136232368Y-26797380D01*
X191180321Y-20375464D02*
X191180172Y-20375268D01*
X157530173Y-25400259D02*
X157558152Y-25439987D01*
X171811952Y-99374721D02*
X171850259Y-99344826D01*
X128774721Y-101288047D02*
X128744826Y-101249740D01*
X105604213Y-105735759D02*
X105604228Y-105736004D01*
X160919826Y-99550259D02*
X160949721Y-99511952D01*
X125530974Y-100853138D02*
X125520328Y-100900549D01*
X156832036Y-99154770D02*
X156880262Y-99160718D01*
X191395786Y-105735759D02*
X191399397Y-105662257D01*
X190678617Y-106609859D02*
X190689961Y-106606720D01*
X172152619Y-27457368D02*
X172106480Y-27442125D01*
X183019737Y-101639281D02*
X182971861Y-101630974D01*
X191237778Y-20454956D02*
X191237650Y-20454747D01*
X168420328Y-99899450D02*
X168430974Y-99946861D01*
X171706460Y-25325158D02*
X171739966Y-25289966D01*
X114795328Y-26750549D02*
X114782368Y-26797380D01*
X114463047Y-25224721D02*
X114499841Y-25256460D01*
X160725000Y-100140122D02*
X160726195Y-100091423D01*
X161014966Y-99439966D02*
X161050158Y-99406460D01*
X118766423Y-27498804D02*
X118717963Y-27495229D01*
X172391423Y-25001195D02*
X172440122Y-25000000D01*
X139841721Y-27404946D02*
X139798318Y-27383099D01*
X114258278Y-99245053D02*
X114301681Y-99266900D01*
X171545053Y-101083278D02*
X171525362Y-101038855D01*
X171460718Y-99994737D02*
X171469025Y-99946861D01*
X168124841Y-101393539D02*
X168088047Y-101425278D01*
X125492125Y-100993519D02*
X125474637Y-101038855D01*
X190955197Y-20168647D02*
X190945252Y-20162349D01*
X168407368Y-99852619D02*
X168420328Y-99899450D01*
X128551195Y-100091423D02*
X128554770Y-100042963D01*
X171454770Y-26607036D02*
X171451195Y-26558576D01*
X125548804Y-26558576D02*
X125545229Y-26607036D01*
X105600416Y-24992612D02*
X105600559Y-24993082D01*
X105606582Y-20890086D02*
X105605142Y-20901768D01*
X157068519Y-99207874D02*
X157113855Y-99225362D01*
X190860302Y-20112831D02*
X190793777Y-20081367D01*
X128774721Y-27138047D02*
X128744826Y-27099740D01*
X105827380Y-106284389D02*
X105835068Y-106293302D01*
X105681367Y-106043777D02*
X105712831Y-106110302D01*
X157435033Y-99439966D02*
X157468539Y-99475158D01*
X124705262Y-101639281D02*
X124657036Y-101645229D01*
X168225278Y-25361952D02*
X168255173Y-25400259D01*
X128690851Y-25481039D02*
X128716847Y-25439987D01*
X190701607Y-20047114D02*
X190690431Y-20043422D01*
X178849841Y-99406460D02*
X178885033Y-99439966D01*
X191394441Y-24998877D02*
X191394874Y-24998646D01*
X124608576Y-27498804D02*
X124559877Y-27500000D01*
X106321619Y-20040077D02*
X106321382Y-20040140D01*
X191397517Y-27503522D02*
X191397188Y-27503159D01*
X161248318Y-101533099D02*
X161206039Y-101509148D01*
X182536952Y-101425278D02*
X182500158Y-101393539D01*
X135618519Y-27442125D02*
X135572380Y-27457368D01*
X117829770Y-100757036D02*
X117826195Y-100708576D01*
X118391721Y-99245053D02*
X118436144Y-99225362D01*
X157468539Y-101324841D02*
X157435033Y-101360033D01*
X190771358Y-20072071D02*
X190771128Y-20071985D01*
X136179946Y-101083278D02*
X136158099Y-101126681D01*
X139415851Y-27018960D02*
X139391900Y-26976681D01*
X161014966Y-27210033D02*
X160981460Y-27174841D01*
X167605262Y-101639281D02*
X167557036Y-101645229D01*
X190871469Y-106531537D02*
X190881711Y-106525735D01*
X106501768Y-20005142D02*
X106490086Y-20006582D01*
X157201681Y-99266900D02*
X157243960Y-99290851D01*
X167459877Y-99150000D02*
X167459877Y-99150000D01*
X135430262Y-27489281D02*
X135382036Y-27495229D01*
X117844025Y-99946861D02*
X117854671Y-99899450D01*
X179117125Y-100993519D02*
X179099637Y-101038855D01*
X191399798Y-99141655D02*
X191399870Y-99141169D01*
X128666900Y-25523318D02*
X128690851Y-25481039D01*
X167926681Y-27383099D02*
X167883278Y-27404946D01*
X182741721Y-101554946D02*
X182698318Y-101533099D01*
X105603522Y-99147517D02*
X105603902Y-99147829D01*
X118574450Y-27470328D02*
X118527619Y-27457368D01*
X118049721Y-101288047D02*
X118019826Y-101249740D01*
X118527619Y-25042631D02*
X118574450Y-25029671D01*
X191390681Y-24999918D02*
X191391169Y-24999870D01*
X114805974Y-100853138D02*
X114795328Y-100900549D01*
X171616847Y-101210012D02*
X171590851Y-101168960D01*
X136255974Y-25796861D02*
X136264281Y-25844737D01*
X191164768Y-20356513D02*
X191115348Y-20301986D01*
X179164281Y-100805262D02*
X179155974Y-100853138D01*
X182500158Y-25256460D02*
X182536952Y-25224721D01*
X157399841Y-25256460D02*
X157435033Y-25289966D01*
X136255974Y-99946861D02*
X136264281Y-99994737D01*
X105724388Y-20518076D02*
X105724264Y-20518288D01*
X161206039Y-27359148D02*
X161164987Y-27333152D01*
X114028138Y-25019025D02*
X114075549Y-25029671D01*
X182656039Y-99290851D02*
X182698318Y-99266900D01*
X135985033Y-25289966D02*
X136018539Y-25325158D01*
X125507368Y-25702619D02*
X125520328Y-25749450D01*
X124559877Y-25000000D02*
X124608576Y-25001195D01*
X171450000Y-26509877D02*
X171450000Y-25990122D01*
X117854671Y-100900549D02*
X117844025Y-100853138D01*
X114708099Y-101126681D02*
X114684148Y-101168960D01*
X160865851Y-101168960D02*
X160841900Y-101126681D01*
X160820053Y-101083278D02*
X160800362Y-101038855D01*
X135751681Y-27383099D02*
X135708278Y-27404946D01*
X167700549Y-27470328D02*
X167653138Y-27480974D01*
X178693960Y-99290851D02*
X178735012Y-99316847D01*
X178651681Y-25116900D02*
X178693960Y-25140851D01*
X182315851Y-101168960D02*
X182291900Y-101126681D01*
X139275000Y-100659877D02*
X139275000Y-100140122D01*
X113883576Y-101648804D02*
X113834877Y-101650000D01*
X161715122Y-101650000D02*
X161666423Y-101648804D01*
X178980173Y-25400259D02*
X179008152Y-25439987D01*
X191377803Y-105856994D02*
X191377860Y-105856756D01*
X105956697Y-106414931D02*
X105965610Y-106422619D01*
X157158278Y-101554946D02*
X157113855Y-101574637D01*
X190678380Y-106609922D02*
X190678617Y-106609859D01*
X139531460Y-25325158D02*
X139564966Y-25289966D01*
X114749637Y-26888855D02*
X114729946Y-26933278D01*
X105600724Y-99143544D02*
X105600912Y-99143997D01*
X129116721Y-99245053D02*
X129161144Y-99225362D01*
X190881711Y-106525735D02*
X190881923Y-106525611D01*
X105965989Y-106422930D02*
X105975268Y-106430172D01*
X105671985Y-20628871D02*
X105647194Y-20698160D01*
X114600278Y-99511952D02*
X114630173Y-99550259D01*
X125454946Y-101083278D02*
X125433099Y-101126681D01*
X105605094Y-105747743D02*
X105605142Y-105748231D01*
X105622196Y-20793005D02*
X105622139Y-20793243D01*
X190860302Y-106537168D02*
X190860523Y-106537060D01*
X114258278Y-27404946D02*
X114213855Y-27424637D01*
X168420328Y-26750549D02*
X168407368Y-26797380D01*
X182656039Y-27359148D02*
X182614987Y-27333152D01*
X190486004Y-20004228D02*
X190485759Y-20004213D01*
X114782368Y-99852619D02*
X114795328Y-99899450D01*
X191392136Y-27500297D02*
X191391655Y-27500201D01*
X129161144Y-25075362D02*
X129206480Y-25057874D01*
X129073318Y-27383099D02*
X129031039Y-27359148D01*
X124608576Y-101648804D02*
X124559877Y-101650000D01*
X128950259Y-101455173D02*
X128911952Y-101425278D01*
X160841900Y-99673318D02*
X160865851Y-99631039D01*
X178563855Y-27424637D02*
X178518519Y-27442125D01*
X157530173Y-99550259D02*
X157558152Y-99589987D01*
X168374637Y-101038855D02*
X168354946Y-101083278D01*
X171674721Y-99511952D02*
X171706460Y-99475158D01*
X117835718Y-99994737D02*
X117844025Y-99946861D01*
X135525549Y-101620328D02*
X135478138Y-101630974D01*
X178608278Y-99245053D02*
X178651681Y-99266900D01*
X178608278Y-27404946D02*
X178563855Y-27424637D01*
X161381480Y-99207874D02*
X161427619Y-99192631D01*
X124657036Y-27495229D02*
X124608576Y-27498804D01*
X125260033Y-27210033D02*
X125224841Y-27243539D01*
X191377860Y-20793243D02*
X191377803Y-20793005D01*
X191287060Y-20539476D02*
X191281768Y-20528963D01*
X191400000Y-99137727D02*
X191400000Y-27512272D01*
X160800362Y-99761144D02*
X160820053Y-99716721D01*
X128569025Y-100853138D02*
X128560718Y-100805262D01*
X191356720Y-20710038D02*
X191356577Y-20709568D01*
X129161144Y-27424637D02*
X129116721Y-27404946D01*
X172152619Y-25042631D02*
X172199450Y-25029671D01*
X114805974Y-99946861D02*
X114814281Y-99994737D01*
X160919826Y-25400259D02*
X160949721Y-25361952D01*
X105602170Y-101653902D02*
X105601878Y-101654296D01*
X172440122Y-99150000D02*
X178184877Y-99150000D01*
X136158099Y-25523318D02*
X136179946Y-25566721D01*
X178563855Y-99225362D02*
X178608278Y-99245053D01*
X179145328Y-100900549D02*
X179132368Y-100947380D01*
X191098013Y-106365348D02*
X191098193Y-106365181D01*
X161427619Y-25042631D02*
X161474450Y-25029671D01*
X157399841Y-101393539D02*
X157363047Y-101425278D01*
X182698318Y-101533099D02*
X182656039Y-101509148D01*
X160726195Y-100091423D02*
X160729770Y-100042963D01*
X160744025Y-26703138D02*
X160735718Y-26655262D01*
X190510156Y-106643383D02*
X190582950Y-106632586D01*
X167968960Y-99290851D02*
X168010012Y-99316847D01*
X160754671Y-100900549D02*
X160744025Y-100853138D01*
X179170229Y-100042963D02*
X179173804Y-100091423D01*
X114028138Y-99169025D02*
X114075549Y-99179671D01*
X168124841Y-27243539D02*
X168088047Y-27275278D01*
X105609318Y-27500081D02*
X105608830Y-27500129D01*
X191024731Y-106430172D02*
X191034010Y-106422930D01*
X182877619Y-101607368D02*
X182831480Y-101592125D01*
X114499841Y-99406460D02*
X114535033Y-99439966D01*
X105956513Y-20235231D02*
X105901986Y-20284651D01*
X182831480Y-27442125D02*
X182786144Y-27424637D01*
X117844025Y-25796861D02*
X117854671Y-25749450D01*
X105609318Y-101650081D02*
X105608830Y-101650129D01*
X125520328Y-25749450D02*
X125530974Y-25796861D01*
X182185718Y-25844737D02*
X182194025Y-25796861D01*
X105775697Y-20434771D02*
X105768919Y-20444394D01*
M02*
