%TF.GenerationSoftware,KiCad,Pcbnew,7.0.5*%
%TF.CreationDate,2023-07-03T18:15:23+02:00*%
%TF.ProjectId,motherboard_panel,6d6f7468-6572-4626-9f61-72645f70616e,rev?*%
%TF.SameCoordinates,Original*%
%TF.FileFunction,Copper,L1,Top*%
%TF.FilePolarity,Positive*%
%FSLAX46Y46*%
G04 Gerber Fmt 4.6, Leading zero omitted, Abs format (unit mm)*
G04 Created by KiCad (PCBNEW 7.0.5) date 2023-07-03 18:15:23*
%MOMM*%
%LPD*%
G01*
G04 APERTURE LIST*
G04 Aperture macros list*
%AMRoundRect*
0 Rectangle with rounded corners*
0 $1 Rounding radius*
0 $2 $3 $4 $5 $6 $7 $8 $9 X,Y pos of 4 corners*
0 Add a 4 corners polygon primitive as box body*
4,1,4,$2,$3,$4,$5,$6,$7,$8,$9,$2,$3,0*
0 Add four circle primitives for the rounded corners*
1,1,$1+$1,$2,$3*
1,1,$1+$1,$4,$5*
1,1,$1+$1,$6,$7*
1,1,$1+$1,$8,$9*
0 Add four rect primitives between the rounded corners*
20,1,$1+$1,$2,$3,$4,$5,0*
20,1,$1+$1,$4,$5,$6,$7,0*
20,1,$1+$1,$6,$7,$8,$9,0*
20,1,$1+$1,$8,$9,$2,$3,0*%
G04 Aperture macros list end*
%TA.AperFunction,SMDPad,CuDef*%
%ADD10R,1.050000X0.650000*%
%TD*%
%TA.AperFunction,SMDPad,CuDef*%
%ADD11RoundRect,0.200000X-0.200000X-0.275000X0.200000X-0.275000X0.200000X0.275000X-0.200000X0.275000X0*%
%TD*%
%TA.AperFunction,SMDPad,CuDef*%
%ADD12RoundRect,0.225000X0.250000X-0.225000X0.250000X0.225000X-0.250000X0.225000X-0.250000X-0.225000X0*%
%TD*%
%TA.AperFunction,SMDPad,CuDef*%
%ADD13RoundRect,0.200000X0.200000X0.275000X-0.200000X0.275000X-0.200000X-0.275000X0.200000X-0.275000X0*%
%TD*%
%TA.AperFunction,SMDPad,CuDef*%
%ADD14RoundRect,0.100000X-0.100000X-0.575000X0.100000X-0.575000X0.100000X0.575000X-0.100000X0.575000X0*%
%TD*%
%TA.AperFunction,SMDPad,CuDef*%
%ADD15RoundRect,0.562500X-0.562500X-0.637500X0.562500X-0.637500X0.562500X0.637500X-0.562500X0.637500X0*%
%TD*%
%TA.AperFunction,SMDPad,CuDef*%
%ADD16RoundRect,0.150000X-0.512500X-0.150000X0.512500X-0.150000X0.512500X0.150000X-0.512500X0.150000X0*%
%TD*%
%TA.AperFunction,SMDPad,CuDef*%
%ADD17RoundRect,0.225000X-0.225000X-0.250000X0.225000X-0.250000X0.225000X0.250000X-0.225000X0.250000X0*%
%TD*%
%TA.AperFunction,SMDPad,CuDef*%
%ADD18R,0.300000X1.150000*%
%TD*%
%TA.AperFunction,ComponentPad*%
%ADD19O,1.000000X2.100000*%
%TD*%
%TA.AperFunction,ComponentPad*%
%ADD20O,1.000000X1.600000*%
%TD*%
%TA.AperFunction,SMDPad,CuDef*%
%ADD21RoundRect,0.225000X-0.250000X0.225000X-0.250000X-0.225000X0.250000X-0.225000X0.250000X0.225000X0*%
%TD*%
%TA.AperFunction,SMDPad,CuDef*%
%ADD22C,2.000000*%
%TD*%
%TA.AperFunction,SMDPad,CuDef*%
%ADD23RoundRect,0.150000X0.150000X-0.512500X0.150000X0.512500X-0.150000X0.512500X-0.150000X-0.512500X0*%
%TD*%
%TA.AperFunction,SMDPad,CuDef*%
%ADD24RoundRect,0.250000X-1.450000X0.250000X-1.450000X-0.250000X1.450000X-0.250000X1.450000X0.250000X0*%
%TD*%
%TA.AperFunction,SMDPad,CuDef*%
%ADD25R,1.500000X0.900000*%
%TD*%
%TA.AperFunction,SMDPad,CuDef*%
%ADD26R,0.900000X1.500000*%
%TD*%
%TA.AperFunction,SMDPad,CuDef*%
%ADD27R,0.900000X0.900000*%
%TD*%
%TA.AperFunction,SMDPad,CuDef*%
%ADD28RoundRect,0.200000X0.275000X-0.200000X0.275000X0.200000X-0.275000X0.200000X-0.275000X-0.200000X0*%
%TD*%
%TA.AperFunction,ViaPad*%
%ADD29C,0.600000*%
%TD*%
%TA.AperFunction,Conductor*%
%ADD30C,0.200000*%
%TD*%
%TA.AperFunction,Conductor*%
%ADD31C,0.250000*%
%TD*%
%TA.AperFunction,Conductor*%
%ADD32C,0.300000*%
%TD*%
G04 APERTURE END LIST*
D10*
%TO.P,SW1,1,1*%
%TO.N,Board_0-GND*%
X115675000Y-77775000D03*
X111525000Y-77775000D03*
%TO.P,SW1,2,2*%
%TO.N,Board_0-Net-(U3-EN)*%
X115675000Y-75625000D03*
X111525000Y-75625000D03*
%TD*%
D11*
%TO.P,R2,1*%
%TO.N,Board_0-Net-(J7-CC2)*%
X114505000Y-90025000D03*
%TO.P,R2,2*%
%TO.N,Board_0-GND*%
X116155000Y-90025000D03*
%TD*%
D10*
%TO.P,SW2,1,1*%
%TO.N,Board_0-GND*%
X111525000Y-79875000D03*
X115675000Y-79875000D03*
%TO.P,SW2,2,2*%
%TO.N,Board_0-Net-(U3-GPIO0{slash}BOOT)*%
X111525000Y-82025000D03*
X115675000Y-82025000D03*
%TD*%
D12*
%TO.P,C4,1*%
%TO.N,Board_0-/VDD*%
X119250000Y-74650000D03*
%TO.P,C4,2*%
%TO.N,Board_0-GND*%
X119250000Y-73100000D03*
%TD*%
D13*
%TO.P,R5,1*%
%TO.N,Board_1-/VDD*%
X157275000Y-73600000D03*
%TO.P,R5,2*%
%TO.N,Board_1-Net-(U3-EN)*%
X155625000Y-73600000D03*
%TD*%
D11*
%TO.P,R3,1*%
%TO.N,Board_0-Net-(U2-FB)*%
X115275000Y-65725000D03*
%TO.P,R3,2*%
%TO.N,Board_0-/VDD*%
X116925000Y-65725000D03*
%TD*%
D14*
%TO.P,J3,1,Pin_1*%
%TO.N,Board_0-/VIN*%
X127200000Y-47250000D03*
%TO.P,J3,2,Pin_2*%
%TO.N,Board_0-/SDA3*%
X127700000Y-45100000D03*
%TO.P,J3,3,Pin_3*%
%TO.N,Board_0-/SCL3*%
X128200000Y-47250000D03*
%TO.P,J3,4,Pin_4*%
%TO.N,Board_0-/IN+*%
X128700000Y-45100000D03*
%TO.P,J3,5,Pin_5*%
%TO.N,Board_0-/IN-*%
X129200000Y-47250000D03*
%TO.P,J3,6,Pin_6*%
%TO.N,Board_0-/VDD*%
X129700000Y-45100000D03*
%TO.P,J3,7,Pin_7*%
%TO.N,Board_0-/MISO2*%
X130200000Y-47250000D03*
%TO.P,J3,8,Pin_8*%
%TO.N,Board_0-/MISO3*%
X130700000Y-45100000D03*
%TO.P,J3,9,Pin_9*%
%TO.N,Board_0-/SCLK*%
X131200000Y-47250000D03*
%TO.P,J3,10,Pin_10*%
%TO.N,Board_0-/SS*%
X131700000Y-45100000D03*
%TO.P,J3,11,Pin_11*%
%TO.N,Board_0-/POL1*%
X132200000Y-47250000D03*
%TO.P,J3,12,Pin_12*%
%TO.N,Board_0-GND*%
X132700000Y-45100000D03*
D15*
%TO.P,J3,MP,MountPin*%
X125450000Y-46150000D03*
X134450000Y-46150000D03*
%TD*%
D16*
%TO.P,U2,1,RUN*%
%TO.N,Board_1-/VIN*%
X154062500Y-65775000D03*
%TO.P,U2,2,GND*%
%TO.N,Board_1-GND*%
X154062500Y-66725000D03*
%TO.P,U2,3,SW*%
%TO.N,Board_1-Net-(U2-SW)*%
X154062500Y-67675000D03*
%TO.P,U2,4,VIN*%
%TO.N,Board_1-/VIN*%
X156337500Y-67675000D03*
%TO.P,U2,5,FB*%
%TO.N,Board_1-Net-(U2-FB)*%
X156337500Y-65775000D03*
%TD*%
D17*
%TO.P,C1,1*%
%TO.N,Board_0-GND*%
X110055000Y-85025000D03*
%TO.P,C1,2*%
%TO.N,Board_0-/VIN*%
X111605000Y-85025000D03*
%TD*%
D11*
%TO.P,R3,1*%
%TO.N,Board_1-Net-(U2-FB)*%
X158175000Y-65725000D03*
%TO.P,R3,2*%
%TO.N,Board_1-/VDD*%
X159825000Y-65725000D03*
%TD*%
D14*
%TO.P,J5,1,Pin_1*%
%TO.N,Board_0-/VIN*%
X127200000Y-37300000D03*
%TO.P,J5,2,Pin_2*%
%TO.N,Board_0-/SDA5*%
X127700000Y-35150000D03*
%TO.P,J5,3,Pin_3*%
%TO.N,Board_0-/SCL5*%
X128200000Y-37300000D03*
%TO.P,J5,4,Pin_4*%
%TO.N,Board_0-/IN+*%
X128700000Y-35150000D03*
%TO.P,J5,5,Pin_5*%
%TO.N,Board_0-/IN-*%
X129200000Y-37300000D03*
%TO.P,J5,6,Pin_6*%
%TO.N,Board_0-/VDD*%
X129700000Y-35150000D03*
%TO.P,J5,7,Pin_7*%
%TO.N,Board_0-/MISO4*%
X130200000Y-37300000D03*
%TO.P,J5,8,Pin_8*%
%TO.N,Board_0-/MISO5*%
X130700000Y-35150000D03*
%TO.P,J5,9,Pin_9*%
%TO.N,Board_0-/SCLK*%
X131200000Y-37300000D03*
%TO.P,J5,10,Pin_10*%
%TO.N,Board_0-/SS*%
X131700000Y-35150000D03*
%TO.P,J5,11,Pin_11*%
%TO.N,Board_0-/POL1*%
X132200000Y-37300000D03*
%TO.P,J5,12,Pin_12*%
%TO.N,Board_0-GND*%
X132700000Y-35150000D03*
D15*
%TO.P,J5,MP,MountPin*%
X125450000Y-36200000D03*
X134450000Y-36200000D03*
%TD*%
D14*
%TO.P,J2,1,Pin_1*%
%TO.N,Board_0-/VIN*%
X127200000Y-52100000D03*
%TO.P,J2,2,Pin_2*%
%TO.N,Board_0-/SDA2*%
X127700000Y-49950000D03*
%TO.P,J2,3,Pin_3*%
%TO.N,Board_0-/SCL2*%
X128200000Y-52100000D03*
%TO.P,J2,4,Pin_4*%
%TO.N,Board_0-/IN+*%
X128700000Y-49950000D03*
%TO.P,J2,5,Pin_5*%
%TO.N,Board_0-/IN-*%
X129200000Y-52100000D03*
%TO.P,J2,6,Pin_6*%
%TO.N,Board_0-/VDD*%
X129700000Y-49950000D03*
%TO.P,J2,7,Pin_7*%
%TO.N,Board_0-/MISO1*%
X130200000Y-52100000D03*
%TO.P,J2,8,Pin_8*%
%TO.N,Board_0-/MISO2*%
X130700000Y-49950000D03*
%TO.P,J2,9,Pin_9*%
%TO.N,Board_0-/SCLK*%
X131200000Y-52100000D03*
%TO.P,J2,10,Pin_10*%
%TO.N,Board_0-/SS*%
X131700000Y-49950000D03*
%TO.P,J2,11,Pin_11*%
%TO.N,Board_0-/POL2*%
X132200000Y-52100000D03*
%TO.P,J2,12,Pin_12*%
%TO.N,Board_0-GND*%
X132700000Y-49950000D03*
D15*
%TO.P,J2,MP,MountPin*%
X125450000Y-51000000D03*
X134450000Y-51000000D03*
%TD*%
D14*
%TO.P,J1,1,Pin_1*%
%TO.N,Board_0-/VIN*%
X127200000Y-56900000D03*
%TO.P,J1,2,Pin_2*%
%TO.N,Board_0-/SDA1*%
X127700000Y-54750000D03*
%TO.P,J1,3,Pin_3*%
%TO.N,Board_0-/SCL1*%
X128200000Y-56900000D03*
%TO.P,J1,4,Pin_4*%
%TO.N,Board_0-/IN+*%
X128700000Y-54750000D03*
%TO.P,J1,5,Pin_5*%
%TO.N,Board_0-/IN-*%
X129200000Y-56900000D03*
%TO.P,J1,6,Pin_6*%
%TO.N,Board_0-/VDD*%
X129700000Y-54750000D03*
%TO.P,J1,7,Pin_7*%
%TO.N,Board_0-/MOSI1*%
X130200000Y-56900000D03*
%TO.P,J1,8,Pin_8*%
%TO.N,Board_0-/MISO1*%
X130700000Y-54750000D03*
%TO.P,J1,9,Pin_9*%
%TO.N,Board_0-/SCLK*%
X131200000Y-56900000D03*
%TO.P,J1,10,Pin_10*%
%TO.N,Board_0-/SS*%
X131700000Y-54750000D03*
%TO.P,J1,11,Pin_11*%
%TO.N,Board_0-/POL1*%
X132200000Y-56900000D03*
%TO.P,J1,12,Pin_12*%
%TO.N,Board_0-GND*%
X132700000Y-54750000D03*
D15*
%TO.P,J1,MP,MountPin*%
X125450000Y-55800000D03*
X134450000Y-55800000D03*
%TD*%
D12*
%TO.P,C4,1*%
%TO.N,Board_1-/VDD*%
X162150000Y-74650000D03*
%TO.P,C4,2*%
%TO.N,Board_1-GND*%
X162150000Y-73100000D03*
%TD*%
D18*
%TO.P,J7,A1,GND*%
%TO.N,Board_0-GND*%
X108630000Y-92705000D03*
%TO.P,J7,A4,VBUS*%
%TO.N,Board_0-/VIN*%
X109430000Y-92705000D03*
%TO.P,J7,A5,CC1*%
%TO.N,Board_0-Net-(J7-CC1)*%
X110730000Y-92705000D03*
%TO.P,J7,A6,D+*%
%TO.N,Board_0-/D+*%
X111730000Y-92705000D03*
%TO.P,J7,A7,D-*%
%TO.N,Board_0-/D-*%
X112230000Y-92705000D03*
%TO.P,J7,A8,SBU1*%
%TO.N,Board_0-unconnected-(J7-SBU1-PadA8)*%
X113230000Y-92705000D03*
%TO.P,J7,A9,VBUS*%
%TO.N,Board_0-/VIN*%
X114530000Y-92705000D03*
%TO.P,J7,A12,GND*%
%TO.N,Board_0-GND*%
X115330000Y-92705000D03*
%TO.P,J7,B1,GND*%
X115030000Y-92705000D03*
%TO.P,J7,B4,VBUS*%
%TO.N,Board_0-/VIN*%
X114230000Y-92705000D03*
%TO.P,J7,B5,CC2*%
%TO.N,Board_0-Net-(J7-CC2)*%
X113730000Y-92705000D03*
%TO.P,J7,B6,D+*%
%TO.N,Board_0-/D+*%
X112730000Y-92705000D03*
%TO.P,J7,B7,D-*%
%TO.N,Board_0-/D-*%
X111230000Y-92705000D03*
%TO.P,J7,B8,SBU2*%
%TO.N,Board_0-unconnected-(J7-SBU2-PadB8)*%
X110230000Y-92705000D03*
%TO.P,J7,B9,VBUS*%
%TO.N,Board_0-/VIN*%
X109730000Y-92705000D03*
%TO.P,J7,B12,GND*%
%TO.N,Board_0-GND*%
X108930000Y-92705000D03*
D19*
%TO.P,J7,S1,SHIELD*%
X107660000Y-93270000D03*
D20*
X107660000Y-97450000D03*
D19*
X116300000Y-93270000D03*
D20*
X116300000Y-97450000D03*
%TD*%
D21*
%TO.P,C2,1*%
%TO.N,Board_0-/VIN*%
X109250000Y-65800000D03*
%TO.P,C2,2*%
%TO.N,Board_0-GND*%
X109250000Y-67350000D03*
%TD*%
D17*
%TO.P,C1,1*%
%TO.N,Board_1-GND*%
X152955000Y-85025000D03*
%TO.P,C1,2*%
%TO.N,Board_1-/VIN*%
X154505000Y-85025000D03*
%TD*%
D22*
%TO.P,KiKit_FID_T_1,*%
%TO.N,*%
X113100000Y-22500000D03*
%TD*%
D23*
%TO.P,U1,1,IO1*%
%TO.N,Board_0-/D-*%
X110830000Y-89450000D03*
%TO.P,U1,2,VN*%
%TO.N,Board_0-GND*%
X111780000Y-89450000D03*
%TO.P,U1,3,IO2*%
%TO.N,Board_0-/D+*%
X112730000Y-89450000D03*
%TO.P,U1,4,IO3*%
%TO.N,Board_0-unconnected-(U1-IO3-Pad4)*%
X112730000Y-87175000D03*
%TO.P,U1,5,VP*%
%TO.N,Board_0-/VIN*%
X111780000Y-87175000D03*
%TO.P,U1,6,IO4*%
%TO.N,Board_0-unconnected-(U1-IO4-Pad6)*%
X110830000Y-87175000D03*
%TD*%
D16*
%TO.P,U2,1,RUN*%
%TO.N,Board_0-/VIN*%
X111162500Y-65775000D03*
%TO.P,U2,2,GND*%
%TO.N,Board_0-GND*%
X111162500Y-66725000D03*
%TO.P,U2,3,SW*%
%TO.N,Board_0-Net-(U2-SW)*%
X111162500Y-67675000D03*
%TO.P,U2,4,VIN*%
%TO.N,Board_0-/VIN*%
X113437500Y-67675000D03*
%TO.P,U2,5,FB*%
%TO.N,Board_0-Net-(U2-FB)*%
X113437500Y-65775000D03*
%TD*%
D24*
%TO.P,L1,1,1*%
%TO.N,Board_1-Net-(U2-SW)*%
X154050000Y-69475000D03*
%TO.P,L1,2,2*%
%TO.N,Board_1-/VDD*%
X154050000Y-71575000D03*
%TD*%
D18*
%TO.P,J7,A1,GND*%
%TO.N,Board_1-GND*%
X151530000Y-92705000D03*
%TO.P,J7,A4,VBUS*%
%TO.N,Board_1-/VIN*%
X152330000Y-92705000D03*
%TO.P,J7,A5,CC1*%
%TO.N,Board_1-Net-(J7-CC1)*%
X153630000Y-92705000D03*
%TO.P,J7,A6,D+*%
%TO.N,Board_1-/D+*%
X154630000Y-92705000D03*
%TO.P,J7,A7,D-*%
%TO.N,Board_1-/D-*%
X155130000Y-92705000D03*
%TO.P,J7,A8,SBU1*%
%TO.N,Board_1-unconnected-(J7-SBU1-PadA8)*%
X156130000Y-92705000D03*
%TO.P,J7,A9,VBUS*%
%TO.N,Board_1-/VIN*%
X157430000Y-92705000D03*
%TO.P,J7,A12,GND*%
%TO.N,Board_1-GND*%
X158230000Y-92705000D03*
%TO.P,J7,B1,GND*%
X157930000Y-92705000D03*
%TO.P,J7,B4,VBUS*%
%TO.N,Board_1-/VIN*%
X157130000Y-92705000D03*
%TO.P,J7,B5,CC2*%
%TO.N,Board_1-Net-(J7-CC2)*%
X156630000Y-92705000D03*
%TO.P,J7,B6,D+*%
%TO.N,Board_1-/D+*%
X155630000Y-92705000D03*
%TO.P,J7,B7,D-*%
%TO.N,Board_1-/D-*%
X154130000Y-92705000D03*
%TO.P,J7,B8,SBU2*%
%TO.N,Board_1-unconnected-(J7-SBU2-PadB8)*%
X153130000Y-92705000D03*
%TO.P,J7,B9,VBUS*%
%TO.N,Board_1-/VIN*%
X152630000Y-92705000D03*
%TO.P,J7,B12,GND*%
%TO.N,Board_1-GND*%
X151830000Y-92705000D03*
D19*
%TO.P,J7,S1,SHIELD*%
X150560000Y-93270000D03*
D20*
X150560000Y-97450000D03*
D19*
X159200000Y-93270000D03*
D20*
X159200000Y-97450000D03*
%TD*%
D22*
%TO.P,KiKit_FID_T_2,*%
%TO.N,*%
X183900000Y-22500000D03*
%TD*%
D13*
%TO.P,R4,1*%
%TO.N,Board_1-GND*%
X159825000Y-67325000D03*
%TO.P,R4,2*%
%TO.N,Board_1-Net-(U2-FB)*%
X158175000Y-67325000D03*
%TD*%
%TO.P,R4,1*%
%TO.N,Board_0-GND*%
X116925000Y-67325000D03*
%TO.P,R4,2*%
%TO.N,Board_0-Net-(U2-FB)*%
X115275000Y-67325000D03*
%TD*%
D14*
%TO.P,J2,1,Pin_1*%
%TO.N,Board_1-/VIN*%
X170100000Y-52100000D03*
%TO.P,J2,2,Pin_2*%
%TO.N,Board_1-/SDA2*%
X170600000Y-49950000D03*
%TO.P,J2,3,Pin_3*%
%TO.N,Board_1-/SCL2*%
X171100000Y-52100000D03*
%TO.P,J2,4,Pin_4*%
%TO.N,Board_1-/IN+*%
X171600000Y-49950000D03*
%TO.P,J2,5,Pin_5*%
%TO.N,Board_1-/IN-*%
X172100000Y-52100000D03*
%TO.P,J2,6,Pin_6*%
%TO.N,Board_1-/VDD*%
X172600000Y-49950000D03*
%TO.P,J2,7,Pin_7*%
%TO.N,Board_1-/MISO1*%
X173100000Y-52100000D03*
%TO.P,J2,8,Pin_8*%
%TO.N,Board_1-/MISO2*%
X173600000Y-49950000D03*
%TO.P,J2,9,Pin_9*%
%TO.N,Board_1-/SCLK*%
X174100000Y-52100000D03*
%TO.P,J2,10,Pin_10*%
%TO.N,Board_1-/SS*%
X174600000Y-49950000D03*
%TO.P,J2,11,Pin_11*%
%TO.N,Board_1-/POL2*%
X175100000Y-52100000D03*
%TO.P,J2,12,Pin_12*%
%TO.N,Board_1-GND*%
X175600000Y-49950000D03*
D15*
%TO.P,J2,MP,MountPin*%
X168350000Y-51000000D03*
X177350000Y-51000000D03*
%TD*%
D11*
%TO.P,R2,1*%
%TO.N,Board_1-Net-(J7-CC2)*%
X157405000Y-90025000D03*
%TO.P,R2,2*%
%TO.N,Board_1-GND*%
X159055000Y-90025000D03*
%TD*%
D21*
%TO.P,C2,1*%
%TO.N,Board_1-/VIN*%
X152150000Y-65800000D03*
%TO.P,C2,2*%
%TO.N,Board_1-GND*%
X152150000Y-67350000D03*
%TD*%
D10*
%TO.P,SW1,1,1*%
%TO.N,Board_1-GND*%
X158575000Y-77775000D03*
X154425000Y-77775000D03*
%TO.P,SW1,2,2*%
%TO.N,Board_1-Net-(U3-EN)*%
X158575000Y-75625000D03*
X154425000Y-75625000D03*
%TD*%
D24*
%TO.P,L1,1,1*%
%TO.N,Board_0-Net-(U2-SW)*%
X111150000Y-69475000D03*
%TO.P,L1,2,2*%
%TO.N,Board_0-/VDD*%
X111150000Y-71575000D03*
%TD*%
D23*
%TO.P,U1,1,IO1*%
%TO.N,Board_1-/D-*%
X153730000Y-89450000D03*
%TO.P,U1,2,VN*%
%TO.N,Board_1-GND*%
X154680000Y-89450000D03*
%TO.P,U1,3,IO2*%
%TO.N,Board_1-/D+*%
X155630000Y-89450000D03*
%TO.P,U1,4,IO3*%
%TO.N,Board_1-unconnected-(U1-IO3-Pad4)*%
X155630000Y-87175000D03*
%TO.P,U1,5,VP*%
%TO.N,Board_1-/VIN*%
X154680000Y-87175000D03*
%TO.P,U1,6,IO4*%
%TO.N,Board_1-unconnected-(U1-IO4-Pad6)*%
X153730000Y-87175000D03*
%TD*%
D14*
%TO.P,J4,1,Pin_1*%
%TO.N,Board_1-/VIN*%
X170100000Y-42250000D03*
%TO.P,J4,2,Pin_2*%
%TO.N,Board_1-/SDA4*%
X170600000Y-40100000D03*
%TO.P,J4,3,Pin_3*%
%TO.N,Board_1-/SCL4*%
X171100000Y-42250000D03*
%TO.P,J4,4,Pin_4*%
%TO.N,Board_1-/IN+*%
X171600000Y-40100000D03*
%TO.P,J4,5,Pin_5*%
%TO.N,Board_1-/IN-*%
X172100000Y-42250000D03*
%TO.P,J4,6,Pin_6*%
%TO.N,Board_1-/VDD*%
X172600000Y-40100000D03*
%TO.P,J4,7,Pin_7*%
%TO.N,Board_1-/MISO3*%
X173100000Y-42250000D03*
%TO.P,J4,8,Pin_8*%
%TO.N,Board_1-/MISO4*%
X173600000Y-40100000D03*
%TO.P,J4,9,Pin_9*%
%TO.N,Board_1-/SCLK*%
X174100000Y-42250000D03*
%TO.P,J4,10,Pin_10*%
%TO.N,Board_1-/SS*%
X174600000Y-40100000D03*
%TO.P,J4,11,Pin_11*%
%TO.N,Board_1-/POL2*%
X175100000Y-42250000D03*
%TO.P,J4,12,Pin_12*%
%TO.N,Board_1-GND*%
X175600000Y-40100000D03*
D15*
%TO.P,J4,MP,MountPin*%
X168350000Y-41150000D03*
X177350000Y-41150000D03*
%TD*%
D14*
%TO.P,J1,1,Pin_1*%
%TO.N,Board_1-/VIN*%
X170100000Y-56900000D03*
%TO.P,J1,2,Pin_2*%
%TO.N,Board_1-/SDA1*%
X170600000Y-54750000D03*
%TO.P,J1,3,Pin_3*%
%TO.N,Board_1-/SCL1*%
X171100000Y-56900000D03*
%TO.P,J1,4,Pin_4*%
%TO.N,Board_1-/IN+*%
X171600000Y-54750000D03*
%TO.P,J1,5,Pin_5*%
%TO.N,Board_1-/IN-*%
X172100000Y-56900000D03*
%TO.P,J1,6,Pin_6*%
%TO.N,Board_1-/VDD*%
X172600000Y-54750000D03*
%TO.P,J1,7,Pin_7*%
%TO.N,Board_1-/MOSI1*%
X173100000Y-56900000D03*
%TO.P,J1,8,Pin_8*%
%TO.N,Board_1-/MISO1*%
X173600000Y-54750000D03*
%TO.P,J1,9,Pin_9*%
%TO.N,Board_1-/SCLK*%
X174100000Y-56900000D03*
%TO.P,J1,10,Pin_10*%
%TO.N,Board_1-/SS*%
X174600000Y-54750000D03*
%TO.P,J1,11,Pin_11*%
%TO.N,Board_1-/POL1*%
X175100000Y-56900000D03*
%TO.P,J1,12,Pin_12*%
%TO.N,Board_1-GND*%
X175600000Y-54750000D03*
D15*
%TO.P,J1,MP,MountPin*%
X168350000Y-55800000D03*
X177350000Y-55800000D03*
%TD*%
D14*
%TO.P,J4,1,Pin_1*%
%TO.N,Board_0-/VIN*%
X127200000Y-42250000D03*
%TO.P,J4,2,Pin_2*%
%TO.N,Board_0-/SDA4*%
X127700000Y-40100000D03*
%TO.P,J4,3,Pin_3*%
%TO.N,Board_0-/SCL4*%
X128200000Y-42250000D03*
%TO.P,J4,4,Pin_4*%
%TO.N,Board_0-/IN+*%
X128700000Y-40100000D03*
%TO.P,J4,5,Pin_5*%
%TO.N,Board_0-/IN-*%
X129200000Y-42250000D03*
%TO.P,J4,6,Pin_6*%
%TO.N,Board_0-/VDD*%
X129700000Y-40100000D03*
%TO.P,J4,7,Pin_7*%
%TO.N,Board_0-/MISO3*%
X130200000Y-42250000D03*
%TO.P,J4,8,Pin_8*%
%TO.N,Board_0-/MISO4*%
X130700000Y-40100000D03*
%TO.P,J4,9,Pin_9*%
%TO.N,Board_0-/SCLK*%
X131200000Y-42250000D03*
%TO.P,J4,10,Pin_10*%
%TO.N,Board_0-/SS*%
X131700000Y-40100000D03*
%TO.P,J4,11,Pin_11*%
%TO.N,Board_0-/POL2*%
X132200000Y-42250000D03*
%TO.P,J4,12,Pin_12*%
%TO.N,Board_0-GND*%
X132700000Y-40100000D03*
D15*
%TO.P,J4,MP,MountPin*%
X125450000Y-41150000D03*
X134450000Y-41150000D03*
%TD*%
D14*
%TO.P,J6,1,Pin_1*%
%TO.N,Board_1-/VIN*%
X170100000Y-32300000D03*
%TO.P,J6,2,Pin_2*%
%TO.N,Board_1-/SDA6*%
X170600000Y-30150000D03*
%TO.P,J6,3,Pin_3*%
%TO.N,Board_1-/SCL6*%
X171100000Y-32300000D03*
%TO.P,J6,4,Pin_4*%
%TO.N,Board_1-/IN+*%
X171600000Y-30150000D03*
%TO.P,J6,5,Pin_5*%
%TO.N,Board_1-/IN-*%
X172100000Y-32300000D03*
%TO.P,J6,6,Pin_6*%
%TO.N,Board_1-/VDD*%
X172600000Y-30150000D03*
%TO.P,J6,7,Pin_7*%
%TO.N,Board_1-/MISO5*%
X173100000Y-32300000D03*
%TO.P,J6,8,Pin_8*%
%TO.N,Board_1-/MISO6*%
X173600000Y-30150000D03*
%TO.P,J6,9,Pin_9*%
%TO.N,Board_1-/SCLK*%
X174100000Y-32300000D03*
%TO.P,J6,10,Pin_10*%
%TO.N,Board_1-/SS*%
X174600000Y-30150000D03*
%TO.P,J6,11,Pin_11*%
%TO.N,Board_1-/POL2*%
X175100000Y-32300000D03*
%TO.P,J6,12,Pin_12*%
%TO.N,Board_1-GND*%
X175600000Y-30150000D03*
D15*
%TO.P,J6,MP,MountPin*%
X168350000Y-31200000D03*
X177350000Y-31200000D03*
%TD*%
D13*
%TO.P,R5,1*%
%TO.N,Board_0-/VDD*%
X114375000Y-73600000D03*
%TO.P,R5,2*%
%TO.N,Board_0-Net-(U3-EN)*%
X112725000Y-73600000D03*
%TD*%
D25*
%TO.P,U3,1,GND*%
%TO.N,Board_0-GND*%
X121350000Y-73180000D03*
%TO.P,U3,2,3V3*%
%TO.N,Board_0-/VDD*%
X121350000Y-74450000D03*
%TO.P,U3,3,EN*%
%TO.N,Board_0-Net-(U3-EN)*%
X121350000Y-75720000D03*
%TO.P,U3,4,GPIO4/TOUCH4/ADC1_CH3*%
%TO.N,Board_0-/IN-*%
X121350000Y-76990000D03*
%TO.P,U3,5,GPIO5/TOUCH5/ADC1_CH4*%
%TO.N,Board_0-/IN+*%
X121350000Y-78260000D03*
%TO.P,U3,6,GPIO6/TOUCH6/ADC1_CH5*%
%TO.N,Board_0-/MOSI1*%
X121350000Y-79530000D03*
%TO.P,U3,7,GPIO7/TOUCH7/ADC1_CH6*%
%TO.N,Board_0-/MISO6*%
X121350000Y-80800000D03*
%TO.P,U3,8,GPIO15/U0RTS/ADC2_CH4/XTAL_32K_P*%
%TO.N,Board_0-/microcontroller/GPIO15*%
X121350000Y-82070000D03*
%TO.P,U3,9,GPIO16/U0CTS/ADC2_CH5/XTAL_32K_N*%
%TO.N,Board_0-/microcontroller/GPIO16*%
X121350000Y-83340000D03*
%TO.P,U3,10,GPIO17/U1TXD/ADC2_CH6*%
%TO.N,Board_0-/microcontroller/GPIO17*%
X121350000Y-84610000D03*
%TO.P,U3,11,GPIO18/U1RXD/ADC2_CH7/CLK_OUT3*%
%TO.N,Board_0-/microcontroller/GPIO18*%
X121350000Y-85880000D03*
%TO.P,U3,12,GPIO8/TOUCH8/ADC1_CH7/SUBSPICS1*%
%TO.N,Board_0-/microcontroller/GPIO8*%
X121350000Y-87150000D03*
%TO.P,U3,13,GPIO19/U1RTS/ADC2_CH8/CLK_OUT2/USB_D-*%
%TO.N,Board_0-/D-*%
X121350000Y-88420000D03*
%TO.P,U3,14,GPIO20/U1CTS/ADC2_CH9/CLK_OUT1/USB_D+*%
%TO.N,Board_0-/D+*%
X121350000Y-89690000D03*
D26*
%TO.P,U3,15,GPIO3/TOUCH3/ADC1_CH2*%
%TO.N,Board_0-/microcontroller/GPIO3*%
X123115000Y-90940000D03*
%TO.P,U3,16,GPIO46*%
%TO.N,Board_0-/microcontroller/GPIO46*%
X124385000Y-90940000D03*
%TO.P,U3,17,GPIO9/TOUCH9/ADC1_CH8/FSPIHD/SUBSPIHD*%
%TO.N,Board_0-/SCLK*%
X125655000Y-90940000D03*
%TO.P,U3,18,GPIO10/TOUCH10/ADC1_CH9/FSPICS0/FSPIIO4/SUBSPICS0*%
%TO.N,Board_0-/SS*%
X126925000Y-90940000D03*
%TO.P,U3,19,GPIO11/TOUCH11/ADC2_CH0/FSPID/FSPIIO5/SUBSPID*%
%TO.N,Board_0-/microcontroller/GPIO11*%
X128195000Y-90940000D03*
%TO.P,U3,20,GPIO12/TOUCH12/ADC2_CH1/FSPICLK/FSPIIO6/SUBSPICLK*%
%TO.N,Board_0-/POL1*%
X129465000Y-90940000D03*
%TO.P,U3,21,GPIO13/TOUCH13/ADC2_CH2/FSPIQ/FSPIIO7/SUBSPIQ*%
%TO.N,Board_0-/POL2*%
X130735000Y-90940000D03*
%TO.P,U3,22,GPIO14/TOUCH14/ADC2_CH3/FSPIWP/FSPIDQS/SUBSPIWP*%
%TO.N,Board_0-/microcontroller/GPIO14*%
X132005000Y-90940000D03*
%TO.P,U3,23,GPIO21*%
%TO.N,Board_0-/SCL1*%
X133275000Y-90940000D03*
%TO.P,U3,24,GPIO47/SPICLK_P/SUBSPICLK_P_DIFF*%
%TO.N,Board_0-/SDA1*%
X134545000Y-90940000D03*
%TO.P,U3,25,GPIO48/SPICLK_N/SUBSPICLK_N_DIFF*%
%TO.N,Board_0-/SCL2*%
X135815000Y-90940000D03*
%TO.P,U3,26,GPIO45*%
%TO.N,Board_0-/SDA2*%
X137085000Y-90940000D03*
D25*
%TO.P,U3,27,GPIO0/BOOT*%
%TO.N,Board_0-Net-(U3-GPIO0{slash}BOOT)*%
X138850000Y-89690000D03*
%TO.P,U3,28,SPIIO6/GPIO35/FSPID/SUBSPID*%
%TO.N,Board_0-unconnected-(U3-SPIIO6{slash}GPIO35{slash}FSPID{slash}SUBSPID-Pad28)*%
X138850000Y-88420000D03*
%TO.P,U3,29,SPIIO7/GPIO36/FSPICLK/SUBSPICLK*%
%TO.N,Board_0-unconnected-(U3-SPIIO7{slash}GPIO36{slash}FSPICLK{slash}SUBSPICLK-Pad29)*%
X138850000Y-87150000D03*
%TO.P,U3,30,SPIDQS/GPIO37/FSPIQ/SUBSPIQ*%
%TO.N,Board_0-unconnected-(U3-SPIDQS{slash}GPIO37{slash}FSPIQ{slash}SUBSPIQ-Pad30)*%
X138850000Y-85880000D03*
%TO.P,U3,31,GPIO38/FSPIWP/SUBSPIWP*%
%TO.N,Board_0-/microcontroller/GPIO38*%
X138850000Y-84610000D03*
%TO.P,U3,32,MTCK/GPIO39/CLK_OUT3/SUBSPICS1*%
%TO.N,Board_0-/SCL3*%
X138850000Y-83340000D03*
%TO.P,U3,33,MTDO/GPIO40/CLK_OUT2*%
%TO.N,Board_0-/SDA3*%
X138850000Y-82070000D03*
%TO.P,U3,34,MTDI/GPIO41/CLK_OUT1*%
%TO.N,Board_0-/SCL4*%
X138850000Y-80800000D03*
%TO.P,U3,35,MTMS/GPIO42*%
%TO.N,Board_0-/SDA4*%
X138850000Y-79530000D03*
%TO.P,U3,36,U0RXD/GPIO44/CLK_OUT2*%
%TO.N,Board_0-/SCL5*%
X138850000Y-78260000D03*
%TO.P,U3,37,U0TXD/GPIO43/CLK_OUT1*%
%TO.N,Board_0-/SDA5*%
X138850000Y-76990000D03*
%TO.P,U3,38,GPIO2/TOUCH2/ADC1_CH1*%
%TO.N,Board_0-/SCL6*%
X138850000Y-75720000D03*
%TO.P,U3,39,GPIO1/TOUCH1/ADC1_CH0*%
%TO.N,Board_0-/SDA6*%
X138850000Y-74450000D03*
%TO.P,U3,40,GND*%
%TO.N,Board_0-GND*%
X138850000Y-73180000D03*
D27*
%TO.P,U3,41,GND*%
X127200000Y-79500000D03*
X127200000Y-80900000D03*
X127200000Y-82300000D03*
X127200000Y-82300000D03*
X128600000Y-79500000D03*
X128600000Y-79500000D03*
X128600000Y-80900000D03*
X128600000Y-82300000D03*
X130000000Y-79500000D03*
X130000000Y-80900000D03*
X130000000Y-82300000D03*
%TD*%
D12*
%TO.P,C3,1*%
%TO.N,Board_1-/VDD*%
X157050000Y-71650000D03*
%TO.P,C3,2*%
%TO.N,Board_1-GND*%
X157050000Y-70100000D03*
%TD*%
D28*
%TO.P,R1,1*%
%TO.N,Board_0-Net-(J7-CC1)*%
X109180000Y-89750000D03*
%TO.P,R1,2*%
%TO.N,Board_0-GND*%
X109180000Y-88100000D03*
%TD*%
D25*
%TO.P,U3,1,GND*%
%TO.N,Board_1-GND*%
X164250000Y-73180000D03*
%TO.P,U3,2,3V3*%
%TO.N,Board_1-/VDD*%
X164250000Y-74450000D03*
%TO.P,U3,3,EN*%
%TO.N,Board_1-Net-(U3-EN)*%
X164250000Y-75720000D03*
%TO.P,U3,4,GPIO4/TOUCH4/ADC1_CH3*%
%TO.N,Board_1-/IN-*%
X164250000Y-76990000D03*
%TO.P,U3,5,GPIO5/TOUCH5/ADC1_CH4*%
%TO.N,Board_1-/IN+*%
X164250000Y-78260000D03*
%TO.P,U3,6,GPIO6/TOUCH6/ADC1_CH5*%
%TO.N,Board_1-/MOSI1*%
X164250000Y-79530000D03*
%TO.P,U3,7,GPIO7/TOUCH7/ADC1_CH6*%
%TO.N,Board_1-/MISO6*%
X164250000Y-80800000D03*
%TO.P,U3,8,GPIO15/U0RTS/ADC2_CH4/XTAL_32K_P*%
%TO.N,Board_1-/microcontroller/GPIO15*%
X164250000Y-82070000D03*
%TO.P,U3,9,GPIO16/U0CTS/ADC2_CH5/XTAL_32K_N*%
%TO.N,Board_1-/microcontroller/GPIO16*%
X164250000Y-83340000D03*
%TO.P,U3,10,GPIO17/U1TXD/ADC2_CH6*%
%TO.N,Board_1-/microcontroller/GPIO17*%
X164250000Y-84610000D03*
%TO.P,U3,11,GPIO18/U1RXD/ADC2_CH7/CLK_OUT3*%
%TO.N,Board_1-/microcontroller/GPIO18*%
X164250000Y-85880000D03*
%TO.P,U3,12,GPIO8/TOUCH8/ADC1_CH7/SUBSPICS1*%
%TO.N,Board_1-/microcontroller/GPIO8*%
X164250000Y-87150000D03*
%TO.P,U3,13,GPIO19/U1RTS/ADC2_CH8/CLK_OUT2/USB_D-*%
%TO.N,Board_1-/D-*%
X164250000Y-88420000D03*
%TO.P,U3,14,GPIO20/U1CTS/ADC2_CH9/CLK_OUT1/USB_D+*%
%TO.N,Board_1-/D+*%
X164250000Y-89690000D03*
D26*
%TO.P,U3,15,GPIO3/TOUCH3/ADC1_CH2*%
%TO.N,Board_1-/microcontroller/GPIO3*%
X166015000Y-90940000D03*
%TO.P,U3,16,GPIO46*%
%TO.N,Board_1-/microcontroller/GPIO46*%
X167285000Y-90940000D03*
%TO.P,U3,17,GPIO9/TOUCH9/ADC1_CH8/FSPIHD/SUBSPIHD*%
%TO.N,Board_1-/SCLK*%
X168555000Y-90940000D03*
%TO.P,U3,18,GPIO10/TOUCH10/ADC1_CH9/FSPICS0/FSPIIO4/SUBSPICS0*%
%TO.N,Board_1-/SS*%
X169825000Y-90940000D03*
%TO.P,U3,19,GPIO11/TOUCH11/ADC2_CH0/FSPID/FSPIIO5/SUBSPID*%
%TO.N,Board_1-/microcontroller/GPIO11*%
X171095000Y-90940000D03*
%TO.P,U3,20,GPIO12/TOUCH12/ADC2_CH1/FSPICLK/FSPIIO6/SUBSPICLK*%
%TO.N,Board_1-/POL1*%
X172365000Y-90940000D03*
%TO.P,U3,21,GPIO13/TOUCH13/ADC2_CH2/FSPIQ/FSPIIO7/SUBSPIQ*%
%TO.N,Board_1-/POL2*%
X173635000Y-90940000D03*
%TO.P,U3,22,GPIO14/TOUCH14/ADC2_CH3/FSPIWP/FSPIDQS/SUBSPIWP*%
%TO.N,Board_1-/microcontroller/GPIO14*%
X174905000Y-90940000D03*
%TO.P,U3,23,GPIO21*%
%TO.N,Board_1-/SCL1*%
X176175000Y-90940000D03*
%TO.P,U3,24,GPIO47/SPICLK_P/SUBSPICLK_P_DIFF*%
%TO.N,Board_1-/SDA1*%
X177445000Y-90940000D03*
%TO.P,U3,25,GPIO48/SPICLK_N/SUBSPICLK_N_DIFF*%
%TO.N,Board_1-/SCL2*%
X178715000Y-90940000D03*
%TO.P,U3,26,GPIO45*%
%TO.N,Board_1-/SDA2*%
X179985000Y-90940000D03*
D25*
%TO.P,U3,27,GPIO0/BOOT*%
%TO.N,Board_1-Net-(U3-GPIO0{slash}BOOT)*%
X181750000Y-89690000D03*
%TO.P,U3,28,SPIIO6/GPIO35/FSPID/SUBSPID*%
%TO.N,Board_1-unconnected-(U3-SPIIO6{slash}GPIO35{slash}FSPID{slash}SUBSPID-Pad28)*%
X181750000Y-88420000D03*
%TO.P,U3,29,SPIIO7/GPIO36/FSPICLK/SUBSPICLK*%
%TO.N,Board_1-unconnected-(U3-SPIIO7{slash}GPIO36{slash}FSPICLK{slash}SUBSPICLK-Pad29)*%
X181750000Y-87150000D03*
%TO.P,U3,30,SPIDQS/GPIO37/FSPIQ/SUBSPIQ*%
%TO.N,Board_1-unconnected-(U3-SPIDQS{slash}GPIO37{slash}FSPIQ{slash}SUBSPIQ-Pad30)*%
X181750000Y-85880000D03*
%TO.P,U3,31,GPIO38/FSPIWP/SUBSPIWP*%
%TO.N,Board_1-/microcontroller/GPIO38*%
X181750000Y-84610000D03*
%TO.P,U3,32,MTCK/GPIO39/CLK_OUT3/SUBSPICS1*%
%TO.N,Board_1-/SCL3*%
X181750000Y-83340000D03*
%TO.P,U3,33,MTDO/GPIO40/CLK_OUT2*%
%TO.N,Board_1-/SDA3*%
X181750000Y-82070000D03*
%TO.P,U3,34,MTDI/GPIO41/CLK_OUT1*%
%TO.N,Board_1-/SCL4*%
X181750000Y-80800000D03*
%TO.P,U3,35,MTMS/GPIO42*%
%TO.N,Board_1-/SDA4*%
X181750000Y-79530000D03*
%TO.P,U3,36,U0RXD/GPIO44/CLK_OUT2*%
%TO.N,Board_1-/SCL5*%
X181750000Y-78260000D03*
%TO.P,U3,37,U0TXD/GPIO43/CLK_OUT1*%
%TO.N,Board_1-/SDA5*%
X181750000Y-76990000D03*
%TO.P,U3,38,GPIO2/TOUCH2/ADC1_CH1*%
%TO.N,Board_1-/SCL6*%
X181750000Y-75720000D03*
%TO.P,U3,39,GPIO1/TOUCH1/ADC1_CH0*%
%TO.N,Board_1-/SDA6*%
X181750000Y-74450000D03*
%TO.P,U3,40,GND*%
%TO.N,Board_1-GND*%
X181750000Y-73180000D03*
D27*
%TO.P,U3,41,GND*%
X170100000Y-79500000D03*
X170100000Y-80900000D03*
X170100000Y-82300000D03*
X170100000Y-82300000D03*
X171500000Y-79500000D03*
X171500000Y-79500000D03*
X171500000Y-80900000D03*
X171500000Y-82300000D03*
X172900000Y-79500000D03*
X172900000Y-80900000D03*
X172900000Y-82300000D03*
%TD*%
D12*
%TO.P,C3,1*%
%TO.N,Board_0-/VDD*%
X114150000Y-71650000D03*
%TO.P,C3,2*%
%TO.N,Board_0-GND*%
X114150000Y-70100000D03*
%TD*%
D28*
%TO.P,R1,1*%
%TO.N,Board_1-Net-(J7-CC1)*%
X152080000Y-89750000D03*
%TO.P,R1,2*%
%TO.N,Board_1-GND*%
X152080000Y-88100000D03*
%TD*%
D22*
%TO.P,KiKit_FID_T_3,*%
%TO.N,*%
X113100000Y-104150000D03*
%TD*%
D14*
%TO.P,J3,1,Pin_1*%
%TO.N,Board_1-/VIN*%
X170100000Y-47250000D03*
%TO.P,J3,2,Pin_2*%
%TO.N,Board_1-/SDA3*%
X170600000Y-45100000D03*
%TO.P,J3,3,Pin_3*%
%TO.N,Board_1-/SCL3*%
X171100000Y-47250000D03*
%TO.P,J3,4,Pin_4*%
%TO.N,Board_1-/IN+*%
X171600000Y-45100000D03*
%TO.P,J3,5,Pin_5*%
%TO.N,Board_1-/IN-*%
X172100000Y-47250000D03*
%TO.P,J3,6,Pin_6*%
%TO.N,Board_1-/VDD*%
X172600000Y-45100000D03*
%TO.P,J3,7,Pin_7*%
%TO.N,Board_1-/MISO2*%
X173100000Y-47250000D03*
%TO.P,J3,8,Pin_8*%
%TO.N,Board_1-/MISO3*%
X173600000Y-45100000D03*
%TO.P,J3,9,Pin_9*%
%TO.N,Board_1-/SCLK*%
X174100000Y-47250000D03*
%TO.P,J3,10,Pin_10*%
%TO.N,Board_1-/SS*%
X174600000Y-45100000D03*
%TO.P,J3,11,Pin_11*%
%TO.N,Board_1-/POL1*%
X175100000Y-47250000D03*
%TO.P,J3,12,Pin_12*%
%TO.N,Board_1-GND*%
X175600000Y-45100000D03*
D15*
%TO.P,J3,MP,MountPin*%
X168350000Y-46150000D03*
X177350000Y-46150000D03*
%TD*%
D10*
%TO.P,SW2,1,1*%
%TO.N,Board_1-GND*%
X154425000Y-79875000D03*
X158575000Y-79875000D03*
%TO.P,SW2,2,2*%
%TO.N,Board_1-Net-(U3-GPIO0{slash}BOOT)*%
X154425000Y-82025000D03*
X158575000Y-82025000D03*
%TD*%
D14*
%TO.P,J5,1,Pin_1*%
%TO.N,Board_1-/VIN*%
X170100000Y-37300000D03*
%TO.P,J5,2,Pin_2*%
%TO.N,Board_1-/SDA5*%
X170600000Y-35150000D03*
%TO.P,J5,3,Pin_3*%
%TO.N,Board_1-/SCL5*%
X171100000Y-37300000D03*
%TO.P,J5,4,Pin_4*%
%TO.N,Board_1-/IN+*%
X171600000Y-35150000D03*
%TO.P,J5,5,Pin_5*%
%TO.N,Board_1-/IN-*%
X172100000Y-37300000D03*
%TO.P,J5,6,Pin_6*%
%TO.N,Board_1-/VDD*%
X172600000Y-35150000D03*
%TO.P,J5,7,Pin_7*%
%TO.N,Board_1-/MISO4*%
X173100000Y-37300000D03*
%TO.P,J5,8,Pin_8*%
%TO.N,Board_1-/MISO5*%
X173600000Y-35150000D03*
%TO.P,J5,9,Pin_9*%
%TO.N,Board_1-/SCLK*%
X174100000Y-37300000D03*
%TO.P,J5,10,Pin_10*%
%TO.N,Board_1-/SS*%
X174600000Y-35150000D03*
%TO.P,J5,11,Pin_11*%
%TO.N,Board_1-/POL1*%
X175100000Y-37300000D03*
%TO.P,J5,12,Pin_12*%
%TO.N,Board_1-GND*%
X175600000Y-35150000D03*
D15*
%TO.P,J5,MP,MountPin*%
X168350000Y-36200000D03*
X177350000Y-36200000D03*
%TD*%
D14*
%TO.P,J6,1,Pin_1*%
%TO.N,Board_0-/VIN*%
X127200000Y-32300000D03*
%TO.P,J6,2,Pin_2*%
%TO.N,Board_0-/SDA6*%
X127700000Y-30150000D03*
%TO.P,J6,3,Pin_3*%
%TO.N,Board_0-/SCL6*%
X128200000Y-32300000D03*
%TO.P,J6,4,Pin_4*%
%TO.N,Board_0-/IN+*%
X128700000Y-30150000D03*
%TO.P,J6,5,Pin_5*%
%TO.N,Board_0-/IN-*%
X129200000Y-32300000D03*
%TO.P,J6,6,Pin_6*%
%TO.N,Board_0-/VDD*%
X129700000Y-30150000D03*
%TO.P,J6,7,Pin_7*%
%TO.N,Board_0-/MISO5*%
X130200000Y-32300000D03*
%TO.P,J6,8,Pin_8*%
%TO.N,Board_0-/MISO6*%
X130700000Y-30150000D03*
%TO.P,J6,9,Pin_9*%
%TO.N,Board_0-/SCLK*%
X131200000Y-32300000D03*
%TO.P,J6,10,Pin_10*%
%TO.N,Board_0-/SS*%
X131700000Y-30150000D03*
%TO.P,J6,11,Pin_11*%
%TO.N,Board_0-/POL2*%
X132200000Y-32300000D03*
%TO.P,J6,12,Pin_12*%
%TO.N,Board_0-GND*%
X132700000Y-30150000D03*
D15*
%TO.P,J6,MP,MountPin*%
X125450000Y-31200000D03*
X134450000Y-31200000D03*
%TD*%
D29*
%TO.N,Board_0-/IN+*%
X128496128Y-59674315D03*
X119800000Y-78350000D03*
%TO.N,Board_0-/IN-*%
X128615380Y-60465380D03*
X120400000Y-77198286D03*
%TO.N,Board_0-/MISO1*%
X130500000Y-53400000D03*
%TO.N,Board_0-/MISO2*%
X130500000Y-48550000D03*
%TO.N,Board_0-/MISO3*%
X130300000Y-43550000D03*
%TO.N,Board_0-/MISO4*%
X130400000Y-38650000D03*
%TO.N,Board_0-/MISO5*%
X130350000Y-33700000D03*
%TO.N,Board_0-/MISO6*%
X119400000Y-80850000D03*
X123650000Y-30650000D03*
%TO.N,Board_0-/MOSI1*%
X130550000Y-58700000D03*
X119200000Y-79000000D03*
%TO.N,Board_0-/POL1*%
X136700000Y-38450000D03*
X135250000Y-48250000D03*
X135150000Y-38449992D03*
X135600000Y-57850000D03*
X145549996Y-57850000D03*
X136750000Y-48250000D03*
%TO.N,Board_0-/POL2*%
X136100000Y-52250000D03*
X145450000Y-52250004D03*
%TO.N,Board_0-/SCL1*%
X128000000Y-58000000D03*
X144550000Y-56250000D03*
%TO.N,Board_0-/SCL2*%
X143950000Y-51450000D03*
X127950000Y-53250000D03*
%TO.N,Board_0-/SCL3*%
X128000000Y-48100000D03*
X143100000Y-46400000D03*
%TO.N,Board_0-/SCL4*%
X127950000Y-43400000D03*
X142300000Y-41100000D03*
%TO.N,Board_0-/SCL5*%
X141400008Y-36500000D03*
X128000000Y-38500000D03*
%TO.N,Board_0-/SCL6*%
X128000000Y-33300000D03*
X140350014Y-31750000D03*
%TO.N,Board_0-/SCLK*%
X146400074Y-59600026D03*
X135550000Y-59600000D03*
%TO.N,Board_0-/SDA1*%
X127963463Y-55720422D03*
X144150000Y-55550000D03*
%TO.N,Board_0-/SDA2*%
X143385532Y-50783097D03*
X127912056Y-50775297D03*
%TO.N,Board_0-/SDA3*%
X127888948Y-45894936D03*
X142600000Y-45750000D03*
%TO.N,Board_0-/SDA4*%
X141800000Y-40450000D03*
X127900002Y-40881364D03*
%TO.N,Board_0-/SDA5*%
X141047017Y-35741051D03*
X127900000Y-36000000D03*
%TO.N,Board_0-/SDA6*%
X138700000Y-31150000D03*
X127701173Y-31150337D03*
%TO.N,Board_0-/SS*%
X145800000Y-58800000D03*
X135550000Y-58800000D03*
%TO.N,Board_0-GND*%
X129250000Y-81650000D03*
X129250000Y-80250000D03*
X111779992Y-90975000D03*
X133289572Y-48950000D03*
X127850000Y-81650000D03*
X121650000Y-46150000D03*
X133300000Y-53750000D03*
X127850000Y-80300000D03*
X133150000Y-39300000D03*
X116280000Y-91225000D03*
X132700000Y-34050000D03*
X133300000Y-29000000D03*
X121650000Y-31200000D03*
X113650000Y-78850000D03*
X109680000Y-87275000D03*
X108650000Y-68750000D03*
X121650000Y-36250000D03*
X107430000Y-90925000D03*
X137400000Y-73250000D03*
X133300000Y-44350000D03*
X121600000Y-51000000D03*
X121650000Y-41150000D03*
X108880000Y-85025000D03*
X115350000Y-69075000D03*
X123000000Y-73200000D03*
X121600000Y-55800000D03*
%TO.N,Board_0-Net-(U3-GPIO0{slash}BOOT)*%
X119350000Y-82150000D03*
X123050000Y-82250000D03*
%TO.N,Board_1-/IN+*%
X171396128Y-59674315D03*
X162700000Y-78350000D03*
%TO.N,Board_1-/IN-*%
X163300000Y-77198286D03*
X171515380Y-60465380D03*
%TO.N,Board_1-/MISO1*%
X173400000Y-53400000D03*
%TO.N,Board_1-/MISO2*%
X173400000Y-48550000D03*
%TO.N,Board_1-/MISO3*%
X173200000Y-43550000D03*
%TO.N,Board_1-/MISO4*%
X173300000Y-38650000D03*
%TO.N,Board_1-/MISO5*%
X173250000Y-33700000D03*
%TO.N,Board_1-/MISO6*%
X162300000Y-80850000D03*
X166550000Y-30650000D03*
%TO.N,Board_1-/MOSI1*%
X173450000Y-58700000D03*
X162100000Y-79000000D03*
%TO.N,Board_1-/POL1*%
X188449996Y-57850000D03*
X179650000Y-48250000D03*
X179600000Y-38450000D03*
X178500000Y-57850000D03*
X178150000Y-48250000D03*
X178050000Y-38449992D03*
%TO.N,Board_1-/POL2*%
X179000000Y-52250000D03*
X188350000Y-52250004D03*
%TO.N,Board_1-/SCL1*%
X170900000Y-58000000D03*
X187450000Y-56250000D03*
%TO.N,Board_1-/SCL2*%
X186850000Y-51450000D03*
X170850000Y-53250000D03*
%TO.N,Board_1-/SCL3*%
X170900000Y-48100000D03*
X186000000Y-46400000D03*
%TO.N,Board_1-/SCL4*%
X170850000Y-43400000D03*
X185200000Y-41100000D03*
%TO.N,Board_1-/SCL5*%
X170900000Y-38500000D03*
X184300008Y-36500000D03*
%TO.N,Board_1-/SCL6*%
X183250014Y-31750000D03*
X170900000Y-33300000D03*
%TO.N,Board_1-/SCLK*%
X189300074Y-59600026D03*
X178450000Y-59600000D03*
%TO.N,Board_1-/SDA1*%
X170863463Y-55720422D03*
X187050000Y-55550000D03*
%TO.N,Board_1-/SDA2*%
X170812056Y-50775297D03*
X186285532Y-50783097D03*
%TO.N,Board_1-/SDA3*%
X170788948Y-45894936D03*
X185500000Y-45750000D03*
%TO.N,Board_1-/SDA4*%
X184700000Y-40450000D03*
X170800002Y-40881364D03*
%TO.N,Board_1-/SDA5*%
X170800000Y-36000000D03*
X183947017Y-35741051D03*
%TO.N,Board_1-/SDA6*%
X170601173Y-31150337D03*
X181600000Y-31150000D03*
%TO.N,Board_1-/SS*%
X178450000Y-58800000D03*
X188700000Y-58800000D03*
%TO.N,Board_1-GND*%
X156550000Y-78850000D03*
X180300000Y-73250000D03*
X151550000Y-68750000D03*
X176189572Y-48950000D03*
X164500000Y-55800000D03*
X172150000Y-81650000D03*
X150330000Y-90925000D03*
X175600000Y-34050000D03*
X164550000Y-31200000D03*
X172150000Y-80250000D03*
X164550000Y-46150000D03*
X154679992Y-90975000D03*
X176200000Y-29000000D03*
X158250000Y-69075000D03*
X176200000Y-44350000D03*
X159180000Y-91225000D03*
X176050000Y-39300000D03*
X151780000Y-85025000D03*
X164500000Y-51000000D03*
X170750000Y-81650000D03*
X170750000Y-80300000D03*
X164550000Y-36250000D03*
X165900000Y-73200000D03*
X176200000Y-53750000D03*
X164550000Y-41150000D03*
X152580000Y-87275000D03*
%TO.N,Board_1-Net-(U3-GPIO0{slash}BOOT)*%
X165950000Y-82250000D03*
X162250000Y-82150000D03*
%TD*%
D30*
%TO.N,Board_0-/D+*%
X111730000Y-92705000D02*
X111730000Y-91880000D01*
X119490000Y-89075000D02*
X120030000Y-89615000D01*
X112922893Y-89075000D02*
X119490000Y-89075000D01*
X112730000Y-89450000D02*
X112730000Y-89267893D01*
X111780000Y-91830000D02*
X112680000Y-91830000D01*
X112680000Y-91830000D02*
X112730000Y-91880000D01*
X120030000Y-89615000D02*
X120980000Y-89615000D01*
X111730000Y-91880000D02*
X111780000Y-91830000D01*
X112730000Y-89267893D02*
X112922893Y-89075000D01*
X112680000Y-91830000D02*
X112680000Y-89500000D01*
X112730000Y-91880000D02*
X112730000Y-92705000D01*
X112680000Y-89500000D02*
X112730000Y-89450000D01*
%TO.N,Board_0-/D-*%
X110830000Y-89101104D02*
X111586104Y-88345000D01*
X111586104Y-88345000D02*
X120980000Y-88345000D01*
X110830000Y-91414314D02*
X110830000Y-89450000D01*
X112180000Y-93580000D02*
X111280000Y-93580000D01*
X111230000Y-92705000D02*
X111230000Y-91814314D01*
X112230000Y-93530000D02*
X112180000Y-93580000D01*
X110830000Y-89450000D02*
X110830000Y-89101104D01*
X111280000Y-93580000D02*
X111230000Y-93530000D01*
X111230000Y-91814314D02*
X110830000Y-91414314D01*
X112230000Y-92705000D02*
X112230000Y-93530000D01*
X111230000Y-93530000D02*
X111230000Y-92705000D01*
%TO.N,Board_0-/IN+*%
X128700000Y-45100000D02*
X128700000Y-49950000D01*
X128700000Y-30150000D02*
X128700000Y-35150000D01*
X121350000Y-78260000D02*
X119890000Y-78260000D01*
X128700000Y-54750000D02*
X128700000Y-59470443D01*
X128700000Y-59470443D02*
X128496128Y-59674315D01*
X128700000Y-49950000D02*
X128700000Y-54750000D01*
X128700000Y-40100000D02*
X128700000Y-45100000D01*
X119890000Y-78260000D02*
X119800000Y-78350000D01*
X128700000Y-35150000D02*
X128700000Y-40100000D01*
%TO.N,Board_0-/IN-*%
X121350000Y-76990000D02*
X120608286Y-76990000D01*
X129200000Y-37300000D02*
X129200000Y-32300000D01*
X120608286Y-76990000D02*
X120400000Y-77198286D01*
X129200000Y-59880760D02*
X128615380Y-60465380D01*
X129200000Y-47250000D02*
X129200000Y-42250000D01*
X129200000Y-42250000D02*
X129200000Y-37300000D01*
X129200000Y-56900000D02*
X129200000Y-59880760D01*
X129200000Y-56900000D02*
X129200000Y-52100000D01*
X129200000Y-52100000D02*
X129200000Y-47250000D01*
%TO.N,Board_0-/MISO1*%
X130700000Y-53550000D02*
X130200000Y-53050000D01*
X130700000Y-54750000D02*
X130700000Y-53550000D01*
X130200000Y-53050000D02*
X130200000Y-52100000D01*
%TO.N,Board_0-/MISO2*%
X130700000Y-48750000D02*
X130200000Y-48250000D01*
X130200000Y-48250000D02*
X130200000Y-47250000D01*
X130700000Y-49950000D02*
X130700000Y-48750000D01*
%TO.N,Board_0-/MISO3*%
X130700000Y-43900000D02*
X130200000Y-43400000D01*
X130200000Y-43400000D02*
X130200000Y-42250000D01*
X130700000Y-45100000D02*
X130700000Y-43900000D01*
%TO.N,Board_0-/MISO4*%
X130700000Y-40100000D02*
X130700000Y-38950000D01*
X130700000Y-38950000D02*
X130200000Y-38450000D01*
X130200000Y-38450000D02*
X130200000Y-37300000D01*
%TO.N,Board_0-/MISO5*%
X130700000Y-34050000D02*
X130200000Y-33550000D01*
X130700000Y-35150000D02*
X130700000Y-34050000D01*
X130200000Y-33550000D02*
X130200000Y-32300000D01*
%TO.N,Board_0-/MISO6*%
X119400000Y-80850000D02*
X121300000Y-80850000D01*
X125080241Y-29150000D02*
X123650000Y-30580241D01*
X129940685Y-29150000D02*
X125080241Y-29150000D01*
X123650000Y-30580241D02*
X123650000Y-30650000D01*
X130700000Y-29909315D02*
X129940685Y-29150000D01*
X121300000Y-80850000D02*
X121350000Y-80800000D01*
X130700000Y-30150000D02*
X130700000Y-29909315D01*
D31*
%TO.N,Board_0-/MOSI1*%
X130200000Y-58350000D02*
X130550000Y-58700000D01*
X130200000Y-56900000D02*
X130200000Y-58350000D01*
X121350000Y-79530000D02*
X119730000Y-79530000D01*
X119730000Y-79530000D02*
X119200000Y-79000000D01*
D30*
%TO.N,Board_0-/POL1*%
X132200000Y-56900000D02*
X132200000Y-57574999D01*
X135550000Y-57850000D02*
X135600000Y-57850000D01*
X145200000Y-88150000D02*
X145200000Y-58199996D01*
X132200000Y-38050000D02*
X132599992Y-38449992D01*
X135600000Y-57800000D02*
X136750000Y-56650000D01*
X136750000Y-48250000D02*
X136750000Y-38500000D01*
X129465000Y-91890000D02*
X131165000Y-93590000D01*
X132450000Y-48250000D02*
X132200000Y-48000000D01*
X132200000Y-37300000D02*
X132200000Y-38050000D01*
X136750000Y-56650000D02*
X136750000Y-48250000D01*
X139760000Y-93590000D02*
X145200000Y-88150000D01*
X135250000Y-48250000D02*
X132450000Y-48250000D01*
X145200000Y-58199996D02*
X145549996Y-57850000D01*
X135600000Y-57850000D02*
X135600000Y-57800000D01*
X131165000Y-93590000D02*
X139760000Y-93590000D01*
X136750000Y-38500000D02*
X136700000Y-38450000D01*
X132200000Y-57574999D02*
X132475001Y-57850000D01*
X132200000Y-48000000D02*
X132200000Y-47250000D01*
X132599992Y-38449992D02*
X135150000Y-38449992D01*
X132475001Y-57850000D02*
X135550000Y-57850000D01*
X129465000Y-90940000D02*
X129465000Y-91890000D01*
%TO.N,Board_0-/POL2*%
X132035000Y-93190000D02*
X139560000Y-93190000D01*
X136100000Y-43450000D02*
X132650000Y-43450000D01*
X132200000Y-32300000D02*
X133350000Y-33450000D01*
X132950000Y-52850000D02*
X135650000Y-52850000D01*
X132200000Y-52100000D02*
X132950000Y-52850000D01*
X132650000Y-43450000D02*
X132200000Y-43000000D01*
X130735000Y-91890000D02*
X132035000Y-93190000D01*
X135650000Y-52850000D02*
X136100000Y-52400000D01*
X136100000Y-52400000D02*
X136100000Y-52250000D01*
X136100000Y-34700000D02*
X136100000Y-52250000D01*
X132200000Y-43000000D02*
X132200000Y-42250000D01*
X139560000Y-93190000D02*
X144800000Y-87950000D01*
X133350000Y-33450000D02*
X134850000Y-33450000D01*
X130735000Y-90940000D02*
X130735000Y-91890000D01*
X134850000Y-33450000D02*
X136100000Y-34700000D01*
X145450000Y-56300000D02*
X145450000Y-52250004D01*
X144800000Y-87950000D02*
X144800000Y-56950000D01*
X144800000Y-56950000D02*
X145450000Y-56300000D01*
%TO.N,Board_0-/SCL1*%
X139310000Y-92790000D02*
X144350000Y-87750000D01*
X144350000Y-87750000D02*
X144350000Y-56450000D01*
X134175000Y-92790000D02*
X139310000Y-92790000D01*
X128200000Y-57800000D02*
X128000000Y-58000000D01*
X144350000Y-56450000D02*
X144550000Y-56250000D01*
X128200000Y-56900000D02*
X128200000Y-57800000D01*
X133275000Y-91890000D02*
X134175000Y-92790000D01*
X133275000Y-90940000D02*
X133275000Y-91890000D01*
%TO.N,Board_0-/SCL2*%
X138915685Y-91990000D02*
X143550000Y-87355685D01*
X143550000Y-87355685D02*
X143550000Y-51850000D01*
X135815000Y-91890000D02*
X135915000Y-91990000D01*
X135915000Y-91990000D02*
X138915685Y-91990000D01*
X128200000Y-53000000D02*
X127950000Y-53250000D01*
X135815000Y-90940000D02*
X135815000Y-91890000D01*
X128200000Y-52100000D02*
X128200000Y-53000000D01*
X143550000Y-51850000D02*
X143950000Y-51450000D01*
%TO.N,Board_0-/SCL3*%
X138850000Y-83340000D02*
X139800000Y-83340000D01*
X142700000Y-46800000D02*
X143100000Y-46400000D01*
X139800000Y-83340000D02*
X142700000Y-80440000D01*
X128200000Y-47250000D02*
X128200000Y-47900000D01*
X142700000Y-80440000D02*
X142700000Y-46800000D01*
X128200000Y-47900000D02*
X128000000Y-48100000D01*
%TO.N,Board_0-/SCL4*%
X141900002Y-41499998D02*
X142300000Y-41100000D01*
X141900002Y-78699998D02*
X141900002Y-41499998D01*
X128200000Y-43150000D02*
X127950000Y-43400000D01*
X139800000Y-80800000D02*
X141900002Y-78699998D01*
X128200000Y-42250000D02*
X128200000Y-43150000D01*
X138850000Y-80800000D02*
X139800000Y-80800000D01*
%TO.N,Board_0-/SCL5*%
X141100006Y-36800002D02*
X141400008Y-36500000D01*
X128200000Y-37300000D02*
X128200000Y-38300000D01*
X138850000Y-78260000D02*
X139800000Y-78260000D01*
X139800000Y-78260000D02*
X141100006Y-76959994D01*
X141100006Y-76959994D02*
X141100006Y-36800002D01*
X128200000Y-38300000D02*
X128000000Y-38500000D01*
%TO.N,Board_0-/SCL6*%
X140299990Y-75220010D02*
X140299990Y-31800024D01*
X128200000Y-32300000D02*
X128200000Y-33100000D01*
X138850000Y-75720000D02*
X139800000Y-75720000D01*
X128200000Y-33100000D02*
X128000000Y-33300000D01*
X140299990Y-31800024D02*
X140350014Y-31750000D01*
X139800000Y-75720000D02*
X140299990Y-75220010D01*
%TO.N,Board_0-/SCLK*%
X146000000Y-88550000D02*
X146000000Y-60000100D01*
X131200000Y-47250000D02*
X131200000Y-52100000D01*
X131200000Y-56900000D02*
X131200000Y-57706370D01*
X131200000Y-57706370D02*
X133093630Y-59600000D01*
X140160003Y-94389997D02*
X146000000Y-88550000D01*
X131200000Y-37300000D02*
X131200000Y-42250000D01*
X131200000Y-52100000D02*
X131200000Y-56900000D01*
X128089997Y-94389997D02*
X140160003Y-94389997D01*
X125655000Y-91955000D02*
X128089997Y-94389997D01*
X146000000Y-60000100D02*
X146400074Y-59600026D01*
X125655000Y-90940000D02*
X125655000Y-91955000D01*
X131200000Y-32300000D02*
X131200000Y-37300000D01*
X133093630Y-59600000D02*
X135550000Y-59600000D01*
X131200000Y-42250000D02*
X131200000Y-47250000D01*
%TO.N,Board_0-/SDA1*%
X134545000Y-90940000D02*
X134545000Y-91945000D01*
X143950000Y-55750000D02*
X144150000Y-55550000D01*
X127700000Y-54750000D02*
X127700000Y-55456959D01*
X127700000Y-55456959D02*
X127963463Y-55720422D01*
X134545000Y-91945000D02*
X134990000Y-92390000D01*
X139081370Y-92390000D02*
X143950000Y-87521370D01*
X134990000Y-92390000D02*
X139081370Y-92390000D01*
X143950000Y-87521370D02*
X143950000Y-55750000D01*
%TO.N,Board_0-/SDA2*%
X137085000Y-90940000D02*
X139400000Y-90940000D01*
X139400000Y-90940000D02*
X143150000Y-87190000D01*
X143150000Y-51018629D02*
X143385532Y-50783097D01*
X127700000Y-50563241D02*
X127912056Y-50775297D01*
X143150000Y-87190000D02*
X143150000Y-51018629D01*
X127700000Y-49950000D02*
X127700000Y-50563241D01*
%TO.N,Board_0-/SDA3*%
X138850000Y-82070000D02*
X139800000Y-82070000D01*
X127700000Y-45100000D02*
X127700000Y-45705988D01*
X142300000Y-46050000D02*
X142600000Y-45750000D01*
X139800000Y-82070000D02*
X142300000Y-79570000D01*
X142300000Y-79570000D02*
X142300000Y-46050000D01*
X127700000Y-45705988D02*
X127888948Y-45894936D01*
%TO.N,Board_0-/SDA4*%
X138850000Y-79530000D02*
X139800000Y-79530000D01*
X139800000Y-79530000D02*
X141500004Y-77829996D01*
X127700000Y-40100000D02*
X127700000Y-40681362D01*
X141500004Y-40749996D02*
X141800000Y-40450000D01*
X141500004Y-77829996D02*
X141500004Y-40749996D01*
X127700000Y-40681362D02*
X127900002Y-40881364D01*
%TO.N,Board_0-/SDA5*%
X140700008Y-76089992D02*
X140700008Y-36088060D01*
X138850000Y-76990000D02*
X139800000Y-76990000D01*
X127700000Y-35800000D02*
X127900000Y-36000000D01*
X140700008Y-36088060D02*
X141047017Y-35741051D01*
X139800000Y-76990000D02*
X140700008Y-76089992D01*
X127700000Y-35150000D02*
X127700000Y-35800000D01*
%TO.N,Board_0-/SDA6*%
X127700000Y-30150000D02*
X127700000Y-31149164D01*
X139750000Y-74450000D02*
X138850000Y-74450000D01*
X139900000Y-74300000D02*
X139750000Y-74450000D01*
X139900000Y-32350000D02*
X139900000Y-74300000D01*
X127700000Y-31149164D02*
X127701173Y-31150337D01*
X138700000Y-31150000D02*
X139900000Y-32350000D01*
%TO.N,Board_0-/SS*%
X139960003Y-93989997D02*
X145600000Y-88350000D01*
X131700000Y-54750000D02*
X131700000Y-57640685D01*
X131700000Y-40100000D02*
X131700000Y-35150000D01*
X145600000Y-88350000D02*
X145600000Y-59000000D01*
X132859315Y-58800000D02*
X135550000Y-58800000D01*
X131700000Y-57640685D02*
X132859315Y-58800000D01*
X126925000Y-91890000D02*
X129024997Y-93989997D01*
X129024997Y-93989997D02*
X139960003Y-93989997D01*
X131700000Y-35150000D02*
X131700000Y-30150000D01*
X126925000Y-90940000D02*
X126925000Y-91890000D01*
X131700000Y-54750000D02*
X131700000Y-49950000D01*
X131700000Y-45100000D02*
X131700000Y-40100000D01*
X145600000Y-59000000D02*
X145800000Y-58800000D01*
X131700000Y-49950000D02*
X131700000Y-45100000D01*
%TO.N,Board_0-/VDD*%
X129700000Y-30150000D02*
X129700000Y-35150000D01*
X129700000Y-35150000D02*
X129700000Y-40100000D01*
D32*
X116925000Y-65725000D02*
X117800000Y-66600000D01*
X117800000Y-68400000D02*
X114550000Y-71650000D01*
X121450000Y-61200000D02*
X128799999Y-61200000D01*
X111150000Y-71575000D02*
X114075000Y-71575000D01*
X115225000Y-72725000D02*
X114150000Y-71650000D01*
D30*
X129700000Y-54750000D02*
X129700000Y-58200000D01*
X129700000Y-45100000D02*
X129700000Y-49950000D01*
D32*
X128799999Y-61200000D02*
X129700000Y-60299999D01*
X117150000Y-74650000D02*
X115225000Y-72725000D01*
X116925000Y-65725000D02*
X121450000Y-61200000D01*
D30*
X129700000Y-49950000D02*
X129700000Y-54750000D01*
D32*
X119250000Y-74650000D02*
X117150000Y-74650000D01*
X119250000Y-74650000D02*
X120705000Y-74650000D01*
X129700000Y-60299999D02*
X129700000Y-58200000D01*
D30*
X115225000Y-72750000D02*
X115225000Y-72725000D01*
D32*
X120705000Y-74650000D02*
X120980000Y-74375000D01*
D30*
X129700000Y-40100000D02*
X129700000Y-45100000D01*
D32*
X114075000Y-71575000D02*
X114150000Y-71650000D01*
X114400000Y-71650000D02*
X114150000Y-71650000D01*
D30*
X114375000Y-73600000D02*
X115225000Y-72750000D01*
D32*
X117800000Y-66600000D02*
X117800000Y-68400000D01*
X114550000Y-71650000D02*
X114150000Y-71650000D01*
D31*
%TO.N,Board_0-/VIN*%
X127118618Y-42331382D02*
X127200000Y-42250000D01*
D32*
X111605000Y-86075000D02*
X111605000Y-85025000D01*
D31*
X127125000Y-52025000D02*
X127125000Y-47325000D01*
D32*
X111605000Y-87000000D02*
X111780000Y-87175000D01*
X109730000Y-92705000D02*
X109730000Y-91664339D01*
X111539339Y-84489339D02*
X109950000Y-82900000D01*
X107900000Y-67150000D02*
X109250000Y-65800000D01*
X109950000Y-82900000D02*
X109950000Y-74350000D01*
D31*
X127200000Y-37300000D02*
X127175000Y-37275000D01*
X127175000Y-32325000D02*
X127200000Y-32300000D01*
D32*
X109250000Y-65800000D02*
X115400000Y-59650000D01*
X107900000Y-72300000D02*
X107900000Y-67150000D01*
D31*
X127175000Y-37275000D02*
X127175000Y-32325000D01*
D30*
X113437500Y-67675000D02*
X111537500Y-65775000D01*
D32*
X109950000Y-74350000D02*
X107900000Y-72300000D01*
X109730000Y-93430000D02*
X110330000Y-94030000D01*
D31*
X127175000Y-37325000D02*
X127200000Y-37300000D01*
D32*
X108355000Y-90289339D02*
X108355000Y-87650000D01*
D31*
X127175000Y-42225000D02*
X127175000Y-37325000D01*
D32*
X111605000Y-84489339D02*
X111539339Y-84489339D01*
X127200000Y-57800000D02*
X127200000Y-56900000D01*
D30*
X111137500Y-65800000D02*
X111162500Y-65775000D01*
D32*
X114230000Y-93480000D02*
X114050000Y-93660000D01*
D31*
X127118618Y-47168618D02*
X127118618Y-42331382D01*
D32*
X109730000Y-91664339D02*
X108355000Y-90289339D01*
D31*
X127150000Y-52150000D02*
X127200000Y-52100000D01*
D30*
X114050000Y-93660000D02*
X114045000Y-93660000D01*
D32*
X114230000Y-92705000D02*
X114230000Y-93480000D01*
X108355000Y-87650000D02*
X109930000Y-86075000D01*
X115400000Y-59650000D02*
X125350000Y-59650000D01*
X109250000Y-65800000D02*
X111137500Y-65800000D01*
X109730000Y-92705000D02*
X109730000Y-93430000D01*
X113675000Y-94030000D02*
X114045000Y-93660000D01*
X111605000Y-86075000D02*
X111605000Y-87000000D01*
X111605000Y-85025000D02*
X111605000Y-84489339D01*
D31*
X127150000Y-56850000D02*
X127150000Y-52150000D01*
D32*
X110330000Y-94030000D02*
X113675000Y-94030000D01*
D31*
X127200000Y-52100000D02*
X127125000Y-52025000D01*
X127200000Y-56900000D02*
X127150000Y-56850000D01*
X127200000Y-47250000D02*
X127118618Y-47168618D01*
X127200000Y-42250000D02*
X127175000Y-42225000D01*
D32*
X109930000Y-86075000D02*
X111605000Y-86075000D01*
D31*
X127125000Y-47325000D02*
X127200000Y-47250000D01*
D30*
X111537500Y-65775000D02*
X111162500Y-65775000D01*
D32*
X125350000Y-59650000D02*
X127200000Y-57800000D01*
D30*
%TO.N,Board_0-GND*%
X132700000Y-40100000D02*
X133400000Y-40100000D01*
X115350000Y-69075000D02*
X115350000Y-68900000D01*
X112625000Y-79875000D02*
X113650000Y-78850000D01*
X115675000Y-77825000D02*
X115625000Y-77775000D01*
X128550000Y-82350000D02*
X129950000Y-82350000D01*
X132700000Y-49950000D02*
X132700000Y-49539572D01*
X115350000Y-68900000D02*
X116925000Y-67325000D01*
X127150000Y-82350000D02*
X128550000Y-82350000D01*
X127850000Y-80300000D02*
X127900000Y-80300000D01*
X132700000Y-49950000D02*
X133400000Y-49950000D01*
X133400000Y-30150000D02*
X134450000Y-31200000D01*
X132700000Y-54750000D02*
X132700000Y-54350000D01*
X127150000Y-79550000D02*
X128550000Y-79550000D01*
X127200000Y-81000000D02*
X127200000Y-82400000D01*
X114325000Y-70100000D02*
X115350000Y-69075000D01*
X132700000Y-39750000D02*
X133150000Y-39300000D01*
X115930000Y-91575000D02*
X116280000Y-91225000D01*
X127200000Y-81000000D02*
X127200000Y-79600000D01*
X110055000Y-85025000D02*
X108880000Y-85025000D01*
X132700000Y-35150000D02*
X133400000Y-35150000D01*
X111780000Y-90974992D02*
X111779992Y-90975000D01*
X128550000Y-79550000D02*
X129950000Y-79550000D01*
D32*
X138850000Y-73180000D02*
X137470000Y-73180000D01*
D30*
X133400000Y-45100000D02*
X134450000Y-46150000D01*
X108630000Y-92125000D02*
X107430000Y-90925000D01*
X125450000Y-46150000D02*
X121650000Y-46150000D01*
X132700000Y-54750000D02*
X133400000Y-54750000D01*
D32*
X119250000Y-73100000D02*
X119255000Y-73105000D01*
D30*
X109875000Y-66725000D02*
X109250000Y-67350000D01*
X125450000Y-41150000D02*
X121650000Y-41150000D01*
X109250000Y-67350000D02*
X108650000Y-67950000D01*
X129950000Y-82350000D02*
X129950000Y-80950000D01*
X133400000Y-40100000D02*
X134450000Y-41150000D01*
X111162500Y-66725000D02*
X109875000Y-66725000D01*
X132700000Y-54350000D02*
X133300000Y-53750000D01*
X132700000Y-49539572D02*
X133289572Y-48950000D01*
X133300000Y-44500000D02*
X133300000Y-44350000D01*
X132700000Y-30150000D02*
X133400000Y-30150000D01*
X109180000Y-87775000D02*
X109680000Y-87275000D01*
X133400000Y-35150000D02*
X134450000Y-36200000D01*
X125450000Y-55800000D02*
X121600000Y-55800000D01*
X115675000Y-79875000D02*
X115675000Y-77825000D01*
X109180000Y-88100000D02*
X109180000Y-87775000D01*
X125450000Y-51000000D02*
X121600000Y-51000000D01*
X113650000Y-78850000D02*
X114725000Y-77775000D01*
X133400000Y-49950000D02*
X134450000Y-51000000D01*
X114150000Y-70100000D02*
X114325000Y-70100000D01*
D32*
X119255000Y-73105000D02*
X120980000Y-73105000D01*
D30*
X113650000Y-78850000D02*
X112575000Y-77775000D01*
X128550000Y-80950000D02*
X128550000Y-79550000D01*
X121700000Y-31250000D02*
X121650000Y-31200000D01*
X113650000Y-78850000D02*
X114675000Y-79875000D01*
X114725000Y-77775000D02*
X115675000Y-77775000D01*
D32*
X137470000Y-73180000D02*
X137400000Y-73250000D01*
D30*
X132700000Y-45100000D02*
X133400000Y-45100000D01*
X121700000Y-36200000D02*
X121650000Y-36250000D01*
X122980000Y-73180000D02*
X123000000Y-73200000D01*
X128550000Y-82350000D02*
X128550000Y-80950000D01*
X115330000Y-92175000D02*
X115930000Y-91575000D01*
X115930000Y-91575000D02*
X116155000Y-91350000D01*
X125450000Y-31200000D02*
X125400000Y-31250000D01*
X114675000Y-79875000D02*
X115675000Y-79875000D01*
X111525000Y-79875000D02*
X112625000Y-79875000D01*
X108630000Y-92705000D02*
X108630000Y-92125000D01*
X111525000Y-77825000D02*
X111475000Y-77775000D01*
X112575000Y-77775000D02*
X111525000Y-77775000D01*
X108650000Y-67950000D02*
X108650000Y-68750000D01*
X125400000Y-31250000D02*
X121700000Y-31250000D01*
X111525000Y-79875000D02*
X111525000Y-77825000D01*
X128550000Y-80950000D02*
X127850000Y-81650000D01*
X132700000Y-40100000D02*
X132700000Y-39750000D01*
X128550000Y-80950000D02*
X129250000Y-81650000D01*
X129950000Y-79550000D02*
X129950000Y-80950000D01*
X132700000Y-35150000D02*
X132700000Y-34050000D01*
X128550000Y-80950000D02*
X127150000Y-80950000D01*
X132700000Y-30150000D02*
X132700000Y-29600000D01*
X128550000Y-80950000D02*
X129250000Y-80250000D01*
X132700000Y-29600000D02*
X133300000Y-29000000D01*
X129950000Y-80950000D02*
X128550000Y-80950000D01*
X116155000Y-91350000D02*
X116155000Y-90025000D01*
X132700000Y-45100000D02*
X133300000Y-44500000D01*
X115330000Y-92705000D02*
X115330000Y-92175000D01*
X127900000Y-80300000D02*
X128550000Y-80950000D01*
X133400000Y-54750000D02*
X134450000Y-55800000D01*
D32*
X121350000Y-73180000D02*
X122980000Y-73180000D01*
D30*
X125450000Y-36200000D02*
X121700000Y-36200000D01*
X111780000Y-89450000D02*
X111780000Y-90974992D01*
%TO.N,Board_0-Net-(J7-CC1)*%
X110730000Y-92705000D02*
X110730000Y-91880000D01*
X109180000Y-90330000D02*
X109180000Y-89750000D01*
X110730000Y-91880000D02*
X109180000Y-90330000D01*
%TO.N,Board_0-Net-(J7-CC2)*%
X113730000Y-91100000D02*
X114580000Y-90250000D01*
X113730000Y-92705000D02*
X113730000Y-91100000D01*
%TO.N,Board_0-Net-(U2-FB)*%
X113437500Y-65775000D02*
X115225000Y-65775000D01*
X115225000Y-65775000D02*
X115275000Y-65725000D01*
X115275000Y-65725000D02*
X115275000Y-67325000D01*
%TO.N,Board_0-Net-(U2-SW)*%
X111150000Y-69475000D02*
X111150000Y-67687500D01*
X111150000Y-67687500D02*
X111162500Y-67675000D01*
%TO.N,Board_0-Net-(U3-EN)*%
X121255000Y-75625000D02*
X121350000Y-75720000D01*
X111525000Y-75625000D02*
X111525000Y-74800000D01*
X115675000Y-75625000D02*
X121255000Y-75625000D01*
X115675000Y-75625000D02*
X111525000Y-75625000D01*
X111525000Y-74800000D02*
X112725000Y-73600000D01*
%TO.N,Board_0-Net-(U3-GPIO0{slash}BOOT)*%
X119225000Y-82025000D02*
X115675000Y-82025000D01*
X115675000Y-82025000D02*
X111525000Y-82025000D01*
X130490000Y-89690000D02*
X123050000Y-82250000D01*
X138850000Y-89690000D02*
X130490000Y-89690000D01*
X119350000Y-82150000D02*
X119225000Y-82025000D01*
%TO.N,Board_1-/D+*%
X155822893Y-89075000D02*
X162390000Y-89075000D01*
X154680000Y-91830000D02*
X155580000Y-91830000D01*
X155630000Y-89450000D02*
X155630000Y-89267893D01*
X155630000Y-91880000D02*
X155630000Y-92705000D01*
X162930000Y-89615000D02*
X163880000Y-89615000D01*
X155630000Y-89267893D02*
X155822893Y-89075000D01*
X155580000Y-89500000D02*
X155630000Y-89450000D01*
X154630000Y-91880000D02*
X154680000Y-91830000D01*
X154630000Y-92705000D02*
X154630000Y-91880000D01*
X155580000Y-91830000D02*
X155630000Y-91880000D01*
X155580000Y-91830000D02*
X155580000Y-89500000D01*
X162390000Y-89075000D02*
X162930000Y-89615000D01*
%TO.N,Board_1-/D-*%
X153730000Y-89450000D02*
X153730000Y-89101104D01*
X155130000Y-92705000D02*
X155130000Y-93530000D01*
X153730000Y-91414314D02*
X153730000Y-89450000D01*
X154130000Y-93530000D02*
X154130000Y-92705000D01*
X154130000Y-91814314D02*
X153730000Y-91414314D01*
X154486104Y-88345000D02*
X163880000Y-88345000D01*
X153730000Y-89101104D02*
X154486104Y-88345000D01*
X154180000Y-93580000D02*
X154130000Y-93530000D01*
X155130000Y-93530000D02*
X155080000Y-93580000D01*
X155080000Y-93580000D02*
X154180000Y-93580000D01*
X154130000Y-92705000D02*
X154130000Y-91814314D01*
%TO.N,Board_1-/IN+*%
X171600000Y-54750000D02*
X171600000Y-59470443D01*
X171600000Y-49950000D02*
X171600000Y-54750000D01*
X171600000Y-30150000D02*
X171600000Y-35150000D01*
X171600000Y-45100000D02*
X171600000Y-49950000D01*
X171600000Y-35150000D02*
X171600000Y-40100000D01*
X171600000Y-59470443D02*
X171396128Y-59674315D01*
X164250000Y-78260000D02*
X162790000Y-78260000D01*
X171600000Y-40100000D02*
X171600000Y-45100000D01*
X162790000Y-78260000D02*
X162700000Y-78350000D01*
%TO.N,Board_1-/IN-*%
X172100000Y-52100000D02*
X172100000Y-47250000D01*
X172100000Y-47250000D02*
X172100000Y-42250000D01*
X172100000Y-37300000D02*
X172100000Y-32300000D01*
X172100000Y-56900000D02*
X172100000Y-59880760D01*
X164250000Y-76990000D02*
X163508286Y-76990000D01*
X172100000Y-56900000D02*
X172100000Y-52100000D01*
X172100000Y-59880760D02*
X171515380Y-60465380D01*
X172100000Y-42250000D02*
X172100000Y-37300000D01*
X163508286Y-76990000D02*
X163300000Y-77198286D01*
%TO.N,Board_1-/MISO1*%
X173600000Y-54750000D02*
X173600000Y-53550000D01*
X173600000Y-53550000D02*
X173100000Y-53050000D01*
X173100000Y-53050000D02*
X173100000Y-52100000D01*
%TO.N,Board_1-/MISO2*%
X173600000Y-49950000D02*
X173600000Y-48750000D01*
X173600000Y-48750000D02*
X173100000Y-48250000D01*
X173100000Y-48250000D02*
X173100000Y-47250000D01*
%TO.N,Board_1-/MISO3*%
X173600000Y-45100000D02*
X173600000Y-43900000D01*
X173100000Y-43400000D02*
X173100000Y-42250000D01*
X173600000Y-43900000D02*
X173100000Y-43400000D01*
%TO.N,Board_1-/MISO4*%
X173600000Y-40100000D02*
X173600000Y-38950000D01*
X173600000Y-38950000D02*
X173100000Y-38450000D01*
X173100000Y-38450000D02*
X173100000Y-37300000D01*
%TO.N,Board_1-/MISO5*%
X173600000Y-35150000D02*
X173600000Y-34050000D01*
X173100000Y-33550000D02*
X173100000Y-32300000D01*
X173600000Y-34050000D02*
X173100000Y-33550000D01*
%TO.N,Board_1-/MISO6*%
X167980241Y-29150000D02*
X166550000Y-30580241D01*
X173600000Y-29909315D02*
X172840685Y-29150000D01*
X172840685Y-29150000D02*
X167980241Y-29150000D01*
X162300000Y-80850000D02*
X164200000Y-80850000D01*
X164200000Y-80850000D02*
X164250000Y-80800000D01*
X173600000Y-30150000D02*
X173600000Y-29909315D01*
X166550000Y-30580241D02*
X166550000Y-30650000D01*
D31*
%TO.N,Board_1-/MOSI1*%
X162630000Y-79530000D02*
X162100000Y-79000000D01*
X173100000Y-58350000D02*
X173450000Y-58700000D01*
X164250000Y-79530000D02*
X162630000Y-79530000D01*
X173100000Y-56900000D02*
X173100000Y-58350000D01*
D30*
%TO.N,Board_1-/POL1*%
X175499992Y-38449992D02*
X178050000Y-38449992D01*
X175100000Y-37300000D02*
X175100000Y-38050000D01*
X178450000Y-57850000D02*
X178500000Y-57850000D01*
X172365000Y-91890000D02*
X174065000Y-93590000D01*
X179650000Y-56650000D02*
X179650000Y-48250000D01*
X188100000Y-58199996D02*
X188449996Y-57850000D01*
X175100000Y-57574999D02*
X175375001Y-57850000D01*
X178500000Y-57800000D02*
X179650000Y-56650000D01*
X174065000Y-93590000D02*
X182660000Y-93590000D01*
X178150000Y-48250000D02*
X175350000Y-48250000D01*
X172365000Y-90940000D02*
X172365000Y-91890000D01*
X179650000Y-48250000D02*
X179650000Y-38500000D01*
X179650000Y-38500000D02*
X179600000Y-38450000D01*
X175100000Y-38050000D02*
X175499992Y-38449992D01*
X175100000Y-56900000D02*
X175100000Y-57574999D01*
X182660000Y-93590000D02*
X188100000Y-88150000D01*
X175375001Y-57850000D02*
X178450000Y-57850000D01*
X188100000Y-88150000D02*
X188100000Y-58199996D01*
X175350000Y-48250000D02*
X175100000Y-48000000D01*
X175100000Y-48000000D02*
X175100000Y-47250000D01*
X178500000Y-57850000D02*
X178500000Y-57800000D01*
%TO.N,Board_1-/POL2*%
X187700000Y-56950000D02*
X188350000Y-56300000D01*
X175550000Y-43450000D02*
X175100000Y-43000000D01*
X176250000Y-33450000D02*
X177750000Y-33450000D01*
X179000000Y-43450000D02*
X175550000Y-43450000D01*
X187700000Y-87950000D02*
X187700000Y-56950000D01*
X174935000Y-93190000D02*
X182460000Y-93190000D01*
X175100000Y-52100000D02*
X175850000Y-52850000D01*
X175100000Y-32300000D02*
X176250000Y-33450000D01*
X173635000Y-91890000D02*
X174935000Y-93190000D01*
X179000000Y-34700000D02*
X179000000Y-52250000D01*
X175100000Y-43000000D02*
X175100000Y-42250000D01*
X175850000Y-52850000D02*
X178550000Y-52850000D01*
X177750000Y-33450000D02*
X179000000Y-34700000D01*
X182460000Y-93190000D02*
X187700000Y-87950000D01*
X179000000Y-52400000D02*
X179000000Y-52250000D01*
X178550000Y-52850000D02*
X179000000Y-52400000D01*
X188350000Y-56300000D02*
X188350000Y-52250004D01*
X173635000Y-90940000D02*
X173635000Y-91890000D01*
%TO.N,Board_1-/SCL1*%
X176175000Y-91890000D02*
X177075000Y-92790000D01*
X171100000Y-56900000D02*
X171100000Y-57800000D01*
X187250000Y-87750000D02*
X187250000Y-56450000D01*
X182210000Y-92790000D02*
X187250000Y-87750000D01*
X187250000Y-56450000D02*
X187450000Y-56250000D01*
X177075000Y-92790000D02*
X182210000Y-92790000D01*
X171100000Y-57800000D02*
X170900000Y-58000000D01*
X176175000Y-90940000D02*
X176175000Y-91890000D01*
%TO.N,Board_1-/SCL2*%
X171100000Y-52100000D02*
X171100000Y-53000000D01*
X178815000Y-91990000D02*
X181815685Y-91990000D01*
X178715000Y-90940000D02*
X178715000Y-91890000D01*
X181815685Y-91990000D02*
X186450000Y-87355685D01*
X186450000Y-51850000D02*
X186850000Y-51450000D01*
X178715000Y-91890000D02*
X178815000Y-91990000D01*
X171100000Y-53000000D02*
X170850000Y-53250000D01*
X186450000Y-87355685D02*
X186450000Y-51850000D01*
%TO.N,Board_1-/SCL3*%
X182700000Y-83340000D02*
X185600000Y-80440000D01*
X185600000Y-46800000D02*
X186000000Y-46400000D01*
X171100000Y-47900000D02*
X170900000Y-48100000D01*
X181750000Y-83340000D02*
X182700000Y-83340000D01*
X185600000Y-80440000D02*
X185600000Y-46800000D01*
X171100000Y-47250000D02*
X171100000Y-47900000D01*
%TO.N,Board_1-/SCL4*%
X182700000Y-80800000D02*
X184800002Y-78699998D01*
X171100000Y-42250000D02*
X171100000Y-43150000D01*
X171100000Y-43150000D02*
X170850000Y-43400000D01*
X184800002Y-78699998D02*
X184800002Y-41499998D01*
X181750000Y-80800000D02*
X182700000Y-80800000D01*
X184800002Y-41499998D02*
X185200000Y-41100000D01*
%TO.N,Board_1-/SCL5*%
X181750000Y-78260000D02*
X182700000Y-78260000D01*
X171100000Y-37300000D02*
X171100000Y-38300000D01*
X184000006Y-76959994D02*
X184000006Y-36800002D01*
X182700000Y-78260000D02*
X184000006Y-76959994D01*
X171100000Y-38300000D02*
X170900000Y-38500000D01*
X184000006Y-36800002D02*
X184300008Y-36500000D01*
%TO.N,Board_1-/SCL6*%
X183199990Y-75220010D02*
X183199990Y-31800024D01*
X182700000Y-75720000D02*
X183199990Y-75220010D01*
X171100000Y-32300000D02*
X171100000Y-33100000D01*
X183199990Y-31800024D02*
X183250014Y-31750000D01*
X171100000Y-33100000D02*
X170900000Y-33300000D01*
X181750000Y-75720000D02*
X182700000Y-75720000D01*
%TO.N,Board_1-/SCLK*%
X174100000Y-47250000D02*
X174100000Y-52100000D01*
X175993630Y-59600000D02*
X178450000Y-59600000D01*
X174100000Y-37300000D02*
X174100000Y-42250000D01*
X174100000Y-57706370D02*
X175993630Y-59600000D01*
X174100000Y-52100000D02*
X174100000Y-56900000D01*
X174100000Y-32300000D02*
X174100000Y-37300000D01*
X183060003Y-94389997D02*
X188900000Y-88550000D01*
X170989997Y-94389997D02*
X183060003Y-94389997D01*
X188900000Y-88550000D02*
X188900000Y-60000100D01*
X168555000Y-91955000D02*
X170989997Y-94389997D01*
X188900000Y-60000100D02*
X189300074Y-59600026D01*
X174100000Y-56900000D02*
X174100000Y-57706370D01*
X168555000Y-90940000D02*
X168555000Y-91955000D01*
X174100000Y-42250000D02*
X174100000Y-47250000D01*
%TO.N,Board_1-/SDA1*%
X170600000Y-54750000D02*
X170600000Y-55456959D01*
X177890000Y-92390000D02*
X181981370Y-92390000D01*
X177445000Y-90940000D02*
X177445000Y-91945000D01*
X181981370Y-92390000D02*
X186850000Y-87521370D01*
X186850000Y-87521370D02*
X186850000Y-55750000D01*
X170600000Y-55456959D02*
X170863463Y-55720422D01*
X177445000Y-91945000D02*
X177890000Y-92390000D01*
X186850000Y-55750000D02*
X187050000Y-55550000D01*
%TO.N,Board_1-/SDA2*%
X179985000Y-90940000D02*
X182300000Y-90940000D01*
X170600000Y-49950000D02*
X170600000Y-50563241D01*
X182300000Y-90940000D02*
X186050000Y-87190000D01*
X170600000Y-50563241D02*
X170812056Y-50775297D01*
X186050000Y-51018629D02*
X186285532Y-50783097D01*
X186050000Y-87190000D02*
X186050000Y-51018629D01*
%TO.N,Board_1-/SDA3*%
X181750000Y-82070000D02*
X182700000Y-82070000D01*
X185200000Y-46050000D02*
X185500000Y-45750000D01*
X182700000Y-82070000D02*
X185200000Y-79570000D01*
X185200000Y-79570000D02*
X185200000Y-46050000D01*
X170600000Y-45100000D02*
X170600000Y-45705988D01*
X170600000Y-45705988D02*
X170788948Y-45894936D01*
%TO.N,Board_1-/SDA4*%
X181750000Y-79530000D02*
X182700000Y-79530000D01*
X184400004Y-77829996D02*
X184400004Y-40749996D01*
X182700000Y-79530000D02*
X184400004Y-77829996D01*
X170600000Y-40100000D02*
X170600000Y-40681362D01*
X170600000Y-40681362D02*
X170800002Y-40881364D01*
X184400004Y-40749996D02*
X184700000Y-40450000D01*
%TO.N,Board_1-/SDA5*%
X182700000Y-76990000D02*
X183600008Y-76089992D01*
X170600000Y-35150000D02*
X170600000Y-35800000D01*
X170600000Y-35800000D02*
X170800000Y-36000000D01*
X183600008Y-36088060D02*
X183947017Y-35741051D01*
X181750000Y-76990000D02*
X182700000Y-76990000D01*
X183600008Y-76089992D02*
X183600008Y-36088060D01*
%TO.N,Board_1-/SDA6*%
X182800000Y-74300000D02*
X182650000Y-74450000D01*
X170600000Y-30150000D02*
X170600000Y-31149164D01*
X182800000Y-32350000D02*
X182800000Y-74300000D01*
X181600000Y-31150000D02*
X182800000Y-32350000D01*
X182650000Y-74450000D02*
X181750000Y-74450000D01*
X170600000Y-31149164D02*
X170601173Y-31150337D01*
%TO.N,Board_1-/SS*%
X174600000Y-54750000D02*
X174600000Y-57640685D01*
X182860003Y-93989997D02*
X188500000Y-88350000D01*
X174600000Y-57640685D02*
X175759315Y-58800000D01*
X169825000Y-91890000D02*
X171924997Y-93989997D01*
X171924997Y-93989997D02*
X182860003Y-93989997D01*
X174600000Y-45100000D02*
X174600000Y-40100000D01*
X188500000Y-88350000D02*
X188500000Y-59000000D01*
X174600000Y-49950000D02*
X174600000Y-45100000D01*
X169825000Y-90940000D02*
X169825000Y-91890000D01*
X188500000Y-59000000D02*
X188700000Y-58800000D01*
X175759315Y-58800000D02*
X178450000Y-58800000D01*
X174600000Y-40100000D02*
X174600000Y-35150000D01*
X174600000Y-35150000D02*
X174600000Y-30150000D01*
X174600000Y-54750000D02*
X174600000Y-49950000D01*
D32*
%TO.N,Board_1-/VDD*%
X157450000Y-71650000D02*
X157050000Y-71650000D01*
X160050000Y-74650000D02*
X158125000Y-72725000D01*
D30*
X172600000Y-49950000D02*
X172600000Y-54750000D01*
D32*
X162150000Y-74650000D02*
X160050000Y-74650000D01*
X162150000Y-74650000D02*
X163605000Y-74650000D01*
D30*
X172600000Y-45100000D02*
X172600000Y-49950000D01*
X157275000Y-73600000D02*
X158125000Y-72750000D01*
D32*
X171699999Y-61200000D02*
X172600000Y-60299999D01*
D30*
X172600000Y-54750000D02*
X172600000Y-58200000D01*
D32*
X160700000Y-68400000D02*
X157450000Y-71650000D01*
X156975000Y-71575000D02*
X157050000Y-71650000D01*
X160700000Y-66600000D02*
X160700000Y-68400000D01*
D30*
X172600000Y-40100000D02*
X172600000Y-45100000D01*
X172600000Y-30150000D02*
X172600000Y-35150000D01*
D32*
X164350000Y-61200000D02*
X171699999Y-61200000D01*
X158125000Y-72725000D02*
X157050000Y-71650000D01*
X154050000Y-71575000D02*
X156975000Y-71575000D01*
X157300000Y-71650000D02*
X157050000Y-71650000D01*
X159825000Y-65725000D02*
X164350000Y-61200000D01*
X172600000Y-60299999D02*
X172600000Y-58200000D01*
D30*
X172600000Y-35150000D02*
X172600000Y-40100000D01*
D32*
X163605000Y-74650000D02*
X163880000Y-74375000D01*
D30*
X158125000Y-72750000D02*
X158125000Y-72725000D01*
D32*
X159825000Y-65725000D02*
X160700000Y-66600000D01*
D30*
%TO.N,Board_1-/VIN*%
X156950000Y-93660000D02*
X156945000Y-93660000D01*
D32*
X170100000Y-57800000D02*
X170100000Y-56900000D01*
X158300000Y-59650000D02*
X168250000Y-59650000D01*
X151255000Y-87650000D02*
X152830000Y-86075000D01*
X154505000Y-86075000D02*
X154505000Y-85025000D01*
X150800000Y-72300000D02*
X150800000Y-67150000D01*
D31*
X170075000Y-32325000D02*
X170100000Y-32300000D01*
D32*
X153230000Y-94030000D02*
X156575000Y-94030000D01*
D31*
X170075000Y-37325000D02*
X170100000Y-37300000D01*
X170100000Y-52100000D02*
X170025000Y-52025000D01*
D32*
X154505000Y-86075000D02*
X154505000Y-87000000D01*
X154439339Y-84489339D02*
X152850000Y-82900000D01*
D31*
X170100000Y-42250000D02*
X170075000Y-42225000D01*
X170018618Y-42331382D02*
X170100000Y-42250000D01*
D30*
X154437500Y-65775000D02*
X154062500Y-65775000D01*
D31*
X170075000Y-42225000D02*
X170075000Y-37325000D01*
D32*
X154505000Y-85025000D02*
X154505000Y-84489339D01*
X157130000Y-92705000D02*
X157130000Y-93480000D01*
D31*
X170100000Y-56900000D02*
X170050000Y-56850000D01*
D32*
X152850000Y-82900000D02*
X152850000Y-74350000D01*
D30*
X154037500Y-65800000D02*
X154062500Y-65775000D01*
D32*
X156575000Y-94030000D02*
X156945000Y-93660000D01*
D31*
X170018618Y-47168618D02*
X170018618Y-42331382D01*
X170075000Y-37275000D02*
X170075000Y-32325000D01*
X170100000Y-37300000D02*
X170075000Y-37275000D01*
D32*
X152850000Y-74350000D02*
X150800000Y-72300000D01*
D30*
X156337500Y-67675000D02*
X154437500Y-65775000D01*
D32*
X152630000Y-91664339D02*
X151255000Y-90289339D01*
D31*
X170025000Y-47325000D02*
X170100000Y-47250000D01*
D32*
X152630000Y-92705000D02*
X152630000Y-93430000D01*
X157130000Y-93480000D02*
X156950000Y-93660000D01*
D31*
X170100000Y-47250000D02*
X170018618Y-47168618D01*
D32*
X152830000Y-86075000D02*
X154505000Y-86075000D01*
X151255000Y-90289339D02*
X151255000Y-87650000D01*
D31*
X170025000Y-52025000D02*
X170025000Y-47325000D01*
D32*
X154505000Y-84489339D02*
X154439339Y-84489339D01*
X152150000Y-65800000D02*
X158300000Y-59650000D01*
D31*
X170050000Y-52150000D02*
X170100000Y-52100000D01*
D32*
X152630000Y-92705000D02*
X152630000Y-91664339D01*
X152630000Y-93430000D02*
X153230000Y-94030000D01*
X168250000Y-59650000D02*
X170100000Y-57800000D01*
X154505000Y-87000000D02*
X154680000Y-87175000D01*
D31*
X170050000Y-56850000D02*
X170050000Y-52150000D01*
D32*
X150800000Y-67150000D02*
X152150000Y-65800000D01*
X152150000Y-65800000D02*
X154037500Y-65800000D01*
%TO.N,Board_1-GND*%
X180370000Y-73180000D02*
X180300000Y-73250000D01*
D30*
X176300000Y-49950000D02*
X177350000Y-51000000D01*
X171450000Y-80950000D02*
X170050000Y-80950000D01*
X170750000Y-80300000D02*
X170800000Y-80300000D01*
X158575000Y-79875000D02*
X158575000Y-77825000D01*
X171450000Y-80950000D02*
X171450000Y-79550000D01*
D32*
X181750000Y-73180000D02*
X180370000Y-73180000D01*
D30*
X175600000Y-39750000D02*
X176050000Y-39300000D01*
X158230000Y-92705000D02*
X158230000Y-92175000D01*
X170050000Y-79550000D02*
X171450000Y-79550000D01*
X175600000Y-35150000D02*
X176300000Y-35150000D01*
X170050000Y-82350000D02*
X171450000Y-82350000D01*
X154425000Y-79875000D02*
X155525000Y-79875000D01*
X157050000Y-70100000D02*
X157225000Y-70100000D01*
X151530000Y-92125000D02*
X150330000Y-90925000D01*
X176300000Y-30150000D02*
X177350000Y-31200000D01*
X175600000Y-49539572D02*
X176189572Y-48950000D01*
X170100000Y-81000000D02*
X170100000Y-79600000D01*
X172850000Y-80950000D02*
X171450000Y-80950000D01*
X159055000Y-91350000D02*
X159055000Y-90025000D01*
X171450000Y-82350000D02*
X171450000Y-80950000D01*
X175600000Y-40100000D02*
X176300000Y-40100000D01*
X154680000Y-90974992D02*
X154679992Y-90975000D01*
X168350000Y-51000000D02*
X164500000Y-51000000D01*
X175600000Y-49950000D02*
X175600000Y-49539572D01*
X158250000Y-69075000D02*
X158250000Y-68900000D01*
X175600000Y-49950000D02*
X176300000Y-49950000D01*
X175600000Y-54350000D02*
X176200000Y-53750000D01*
X170100000Y-81000000D02*
X170100000Y-82400000D01*
X175600000Y-45100000D02*
X176300000Y-45100000D01*
X175600000Y-29600000D02*
X176200000Y-29000000D01*
X176300000Y-54750000D02*
X177350000Y-55800000D01*
X156550000Y-78850000D02*
X157625000Y-77775000D01*
X176300000Y-40100000D02*
X177350000Y-41150000D01*
X176200000Y-44500000D02*
X176200000Y-44350000D01*
X168350000Y-41150000D02*
X164550000Y-41150000D01*
X164600000Y-31250000D02*
X164550000Y-31200000D01*
X175600000Y-54750000D02*
X175600000Y-54350000D01*
X152955000Y-85025000D02*
X151780000Y-85025000D01*
X158830000Y-91575000D02*
X159055000Y-91350000D01*
X155475000Y-77775000D02*
X154425000Y-77775000D01*
D32*
X164250000Y-73180000D02*
X165880000Y-73180000D01*
D30*
X168300000Y-31250000D02*
X164600000Y-31250000D01*
X157225000Y-70100000D02*
X158250000Y-69075000D01*
X172850000Y-79550000D02*
X172850000Y-80950000D01*
X158230000Y-92175000D02*
X158830000Y-91575000D01*
X171450000Y-79550000D02*
X172850000Y-79550000D01*
D32*
X162150000Y-73100000D02*
X162155000Y-73105000D01*
D30*
X158830000Y-91575000D02*
X159180000Y-91225000D01*
X175600000Y-30150000D02*
X175600000Y-29600000D01*
X168350000Y-55800000D02*
X164500000Y-55800000D01*
X171450000Y-80950000D02*
X170750000Y-81650000D01*
X155525000Y-79875000D02*
X156550000Y-78850000D01*
X151530000Y-92705000D02*
X151530000Y-92125000D01*
X165880000Y-73180000D02*
X165900000Y-73200000D01*
X151550000Y-67950000D02*
X151550000Y-68750000D01*
X175600000Y-45100000D02*
X176200000Y-44500000D01*
X168350000Y-46150000D02*
X164550000Y-46150000D01*
X152150000Y-67350000D02*
X151550000Y-67950000D01*
X176300000Y-35150000D02*
X177350000Y-36200000D01*
X156550000Y-78850000D02*
X155475000Y-77775000D01*
X175600000Y-54750000D02*
X176300000Y-54750000D01*
X172850000Y-82350000D02*
X172850000Y-80950000D01*
D32*
X162155000Y-73105000D02*
X163880000Y-73105000D01*
D30*
X176300000Y-45100000D02*
X177350000Y-46150000D01*
X170800000Y-80300000D02*
X171450000Y-80950000D01*
X168350000Y-31200000D02*
X168300000Y-31250000D01*
X168350000Y-36200000D02*
X164600000Y-36200000D01*
X171450000Y-82350000D02*
X172850000Y-82350000D01*
X164600000Y-36200000D02*
X164550000Y-36250000D01*
X154425000Y-77825000D02*
X154375000Y-77775000D01*
X152080000Y-87775000D02*
X152580000Y-87275000D01*
X156550000Y-78850000D02*
X157575000Y-79875000D01*
X175600000Y-40100000D02*
X175600000Y-39750000D01*
X175600000Y-35150000D02*
X175600000Y-34050000D01*
X157575000Y-79875000D02*
X158575000Y-79875000D01*
X171450000Y-80950000D02*
X172150000Y-80250000D01*
X158575000Y-77825000D02*
X158525000Y-77775000D01*
X175600000Y-30150000D02*
X176300000Y-30150000D01*
X154680000Y-89450000D02*
X154680000Y-90974992D01*
X152080000Y-88100000D02*
X152080000Y-87775000D01*
X158250000Y-68900000D02*
X159825000Y-67325000D01*
X171450000Y-80950000D02*
X172150000Y-81650000D01*
X154062500Y-66725000D02*
X152775000Y-66725000D01*
X157625000Y-77775000D02*
X158575000Y-77775000D01*
X152775000Y-66725000D02*
X152150000Y-67350000D01*
X154425000Y-79875000D02*
X154425000Y-77825000D01*
%TO.N,Board_1-Net-(J7-CC1)*%
X153630000Y-91880000D02*
X152080000Y-90330000D01*
X153630000Y-92705000D02*
X153630000Y-91880000D01*
X152080000Y-90330000D02*
X152080000Y-89750000D01*
%TO.N,Board_1-Net-(J7-CC2)*%
X156630000Y-91100000D02*
X157480000Y-90250000D01*
X156630000Y-92705000D02*
X156630000Y-91100000D01*
%TO.N,Board_1-Net-(U2-FB)*%
X158175000Y-65725000D02*
X158175000Y-67325000D01*
X156337500Y-65775000D02*
X158125000Y-65775000D01*
X158125000Y-65775000D02*
X158175000Y-65725000D01*
%TO.N,Board_1-Net-(U2-SW)*%
X154050000Y-69475000D02*
X154050000Y-67687500D01*
X154050000Y-67687500D02*
X154062500Y-67675000D01*
%TO.N,Board_1-Net-(U3-EN)*%
X164155000Y-75625000D02*
X164250000Y-75720000D01*
X154425000Y-75625000D02*
X154425000Y-74800000D01*
X158575000Y-75625000D02*
X164155000Y-75625000D01*
X154425000Y-74800000D02*
X155625000Y-73600000D01*
X158575000Y-75625000D02*
X154425000Y-75625000D01*
%TO.N,Board_1-Net-(U3-GPIO0{slash}BOOT)*%
X162125000Y-82025000D02*
X158575000Y-82025000D01*
X158575000Y-82025000D02*
X154425000Y-82025000D01*
X181750000Y-89690000D02*
X173390000Y-89690000D01*
X162250000Y-82150000D02*
X162125000Y-82025000D01*
X173390000Y-89690000D02*
X165950000Y-82250000D01*
%TD*%
M02*
