M48
; DRILL file {KiCad 7.0.5} date Mon Jul  3 18:15:26 2023
; FORMAT={-:-/ absolute / inch / decimal}
; #@! TF.CreationDate,2023-07-03T18:15:26+02:00
; #@! TF.GenerationSoftware,Kicad,Pcbnew,7.0.5
; #@! TF.FileFunction,Plated,1,2,PTH
FMAT,2
INCH
; #@! TA.AperFunction,Plated,PTH,ViaDrill
T1C0.0118
; #@! TA.AperFunction,Plated,PTH,ComponentDrill
T2C0.0236
%
G90
G05
T1
X4.2295Y-3.5797
X4.2776Y-2.7067
X4.2866Y-3.3474
X4.3181Y-3.436
X4.4008Y-3.5817
X4.4744Y-3.1043
X4.5413Y-2.7195
X4.578Y-3.5915
X4.6929Y-3.1102
X4.6988Y-3.2343
X4.7008Y-3.1831
X4.7165Y-3.0846
X4.7402Y-3.0393
X4.7874Y-2.0079
X4.7874Y-2.1969
X4.7894Y-1.2283
X4.7894Y-1.4272
X4.7894Y-1.6201
X4.7894Y-1.8169
X4.8425Y-2.8819
X4.8445Y-3.2382
X4.8681Y-1.2067
X5.0276Y-1.2264
X5.0335Y-3.1614
X5.0335Y-3.2146
X5.035Y-1.8069
X5.0354Y-1.4173
X5.0354Y-1.6095
X5.0359Y-1.999
X5.0374Y-1.7087
X5.0374Y-2.0965
X5.0379Y-2.1937
X5.0394Y-1.311
X5.0394Y-1.5157
X5.0394Y-1.8937
X5.0394Y-2.2835
X5.0589Y-2.3494
X5.0636Y-2.3805
X5.0886Y-3.1594
X5.0886Y-3.2146
X5.1299Y-1.7146
X5.1319Y-1.3268
X5.1339Y-1.5217
X5.1378Y-1.9114
X5.1378Y-2.1024
X5.1398Y-2.311
X5.2244Y-1.3406
X5.2421Y-1.5472
X5.2476Y-1.9272
X5.248Y-1.1417
X5.248Y-1.7461
X5.248Y-2.1161
X5.3209Y-1.5138
X5.3248Y-1.8996
X5.3366Y-2.315
X5.3366Y-2.3465
X5.3386Y-2.2776
X5.3583Y-2.0571
X5.3819Y-1.5138
X5.3839Y-1.8996
X5.4094Y-2.8839
X5.4606Y-1.2264
X5.5256Y-1.25
X5.553Y-1.4071
X5.5669Y-1.437
X5.5827Y-1.5925
X5.6024Y-1.6181
X5.6142Y-1.8012
X5.6339Y-1.8268
X5.6451Y-1.9993
X5.6673Y-2.0256
X5.6752Y-2.187
X5.6909Y-2.2146
X5.7264Y-2.0571
X5.7303Y-2.2776
X5.7402Y-2.315
X5.7638Y-2.3465
X5.9185Y-3.5797
X5.9665Y-2.7067
X5.9756Y-3.3474
X6.0071Y-3.436
X6.0898Y-3.5817
X6.1634Y-3.1043
X6.2303Y-2.7195
X6.2669Y-3.5915
X6.3819Y-3.1102
X6.3878Y-3.2343
X6.3898Y-3.1831
X6.4055Y-3.0846
X6.4291Y-3.0393
X6.4764Y-2.0079
X6.4764Y-2.1969
X6.4783Y-1.2283
X6.4783Y-1.4272
X6.4783Y-1.6201
X6.4783Y-1.8169
X6.5315Y-2.8819
X6.5335Y-3.2382
X6.5571Y-1.2067
X6.7166Y-1.2264
X6.7224Y-3.1614
X6.7224Y-3.2146
X6.724Y-1.8069
X6.7244Y-1.4173
X6.7244Y-1.6095
X6.7249Y-1.999
X6.7264Y-1.7087
X6.7264Y-2.0965
X6.7269Y-2.1937
X6.7283Y-1.311
X6.7283Y-1.5157
X6.7283Y-1.8937
X6.7283Y-2.2835
X6.7479Y-2.3494
X6.7526Y-2.3805
X6.7776Y-3.1594
X6.7776Y-3.2146
X6.8189Y-1.7146
X6.8209Y-1.3268
X6.8228Y-1.5217
X6.8268Y-1.9114
X6.8268Y-2.1024
X6.8287Y-2.311
X6.9134Y-1.3406
X6.9311Y-1.5472
X6.9366Y-1.9272
X6.937Y-1.1417
X6.937Y-1.7461
X6.937Y-2.1161
X7.0098Y-1.5138
X7.0138Y-1.8996
X7.0256Y-2.315
X7.0256Y-2.3465
X7.0276Y-2.2776
X7.0472Y-2.0571
X7.0709Y-1.5138
X7.0728Y-1.8996
X7.0984Y-2.8839
X7.1496Y-1.2264
X7.2146Y-1.25
X7.242Y-1.4071
X7.2559Y-1.437
X7.2717Y-1.5925
X7.2913Y-1.6181
X7.3031Y-1.8012
X7.3228Y-1.8268
X7.3341Y-1.9993
X7.3563Y-2.0256
X7.3642Y-2.187
X7.3799Y-2.2146
X7.4154Y-2.0571
X7.4193Y-2.2776
X7.4291Y-2.315
X7.4528Y-2.3465
T2
G00X4.2386Y-3.6504
M15
G01X4.2386Y-3.6937
M16
G05
G00X4.2386Y-3.8248
M15
G01X4.2386Y-3.8484
M16
G05
G00X4.5787Y-3.6504
M15
G01X4.5787Y-3.6937
M16
G05
G00X4.5787Y-3.8248
M15
G01X4.5787Y-3.8484
M16
G05
G00X5.9276Y-3.6504
M15
G01X5.9276Y-3.6937
M16
G05
G00X5.9276Y-3.8248
M15
G01X5.9276Y-3.8484
M16
G05
G00X6.2677Y-3.6504
M15
G01X6.2677Y-3.6937
M16
G05
G00X6.2677Y-3.8248
M15
G01X6.2677Y-3.8484
M16
G05
T0
M30
