%TF.GenerationSoftware,KiCad,Pcbnew,7.0.5*%
%TF.CreationDate,2023-07-03T18:15:23+02:00*%
%TF.ProjectId,motherboard_panel,6d6f7468-6572-4626-9f61-72645f70616e,rev?*%
%TF.SameCoordinates,Original*%
%TF.FileFunction,Soldermask,Top*%
%TF.FilePolarity,Negative*%
%FSLAX46Y46*%
G04 Gerber Fmt 4.6, Leading zero omitted, Abs format (unit mm)*
G04 Created by KiCad (PCBNEW 7.0.5) date 2023-07-03 18:15:23*
%MOMM*%
%LPD*%
G01*
G04 APERTURE LIST*
G04 Aperture macros list*
%AMRoundRect*
0 Rectangle with rounded corners*
0 $1 Rounding radius*
0 $2 $3 $4 $5 $6 $7 $8 $9 X,Y pos of 4 corners*
0 Add a 4 corners polygon primitive as box body*
4,1,4,$2,$3,$4,$5,$6,$7,$8,$9,$2,$3,0*
0 Add four circle primitives for the rounded corners*
1,1,$1+$1,$2,$3*
1,1,$1+$1,$4,$5*
1,1,$1+$1,$6,$7*
1,1,$1+$1,$8,$9*
0 Add four rect primitives between the rounded corners*
20,1,$1+$1,$2,$3,$4,$5,0*
20,1,$1+$1,$4,$5,$6,$7,0*
20,1,$1+$1,$6,$7,$8,$9,0*
20,1,$1+$1,$8,$9,$2,$3,0*%
G04 Aperture macros list end*
%ADD10R,1.050000X0.650000*%
%ADD11RoundRect,0.200000X-0.200000X-0.275000X0.200000X-0.275000X0.200000X0.275000X-0.200000X0.275000X0*%
%ADD12RoundRect,0.225000X0.250000X-0.225000X0.250000X0.225000X-0.250000X0.225000X-0.250000X-0.225000X0*%
%ADD13RoundRect,0.200000X0.200000X0.275000X-0.200000X0.275000X-0.200000X-0.275000X0.200000X-0.275000X0*%
%ADD14RoundRect,0.100000X-0.100000X-0.575000X0.100000X-0.575000X0.100000X0.575000X-0.100000X0.575000X0*%
%ADD15RoundRect,0.562500X-0.562500X-0.637500X0.562500X-0.637500X0.562500X0.637500X-0.562500X0.637500X0*%
%ADD16RoundRect,0.150000X-0.512500X-0.150000X0.512500X-0.150000X0.512500X0.150000X-0.512500X0.150000X0*%
%ADD17RoundRect,0.225000X-0.225000X-0.250000X0.225000X-0.250000X0.225000X0.250000X-0.225000X0.250000X0*%
%ADD18C,2.510000*%
%ADD19C,0.650000*%
%ADD20R,0.300000X1.150000*%
%ADD21O,1.000000X2.100000*%
%ADD22O,1.000000X1.600000*%
%ADD23RoundRect,0.225000X-0.250000X0.225000X-0.250000X-0.225000X0.250000X-0.225000X0.250000X0.225000X0*%
%ADD24C,1.000000*%
%ADD25RoundRect,0.150000X0.150000X-0.512500X0.150000X0.512500X-0.150000X0.512500X-0.150000X-0.512500X0*%
%ADD26RoundRect,0.250000X-1.450000X0.250000X-1.450000X-0.250000X1.450000X-0.250000X1.450000X0.250000X0*%
%ADD27R,1.500000X0.900000*%
%ADD28R,0.900000X1.500000*%
%ADD29R,0.900000X0.900000*%
%ADD30RoundRect,0.200000X0.275000X-0.200000X0.275000X0.200000X-0.275000X0.200000X-0.275000X-0.200000X0*%
G04 APERTURE END LIST*
D10*
%TO.C,SW1*%
X115675000Y-77775000D03*
X111525000Y-77775000D03*
X115675000Y-75625000D03*
X111525000Y-75625000D03*
%TD*%
D11*
%TO.C,R2*%
X114505000Y-90025000D03*
X116155000Y-90025000D03*
%TD*%
D10*
%TO.C,SW2*%
X111525000Y-79875000D03*
X115675000Y-79875000D03*
X111525000Y-82025000D03*
X115675000Y-82025000D03*
%TD*%
D12*
%TO.C,C4*%
X119250000Y-74650000D03*
X119250000Y-73100000D03*
%TD*%
D13*
%TO.C,R5*%
X157275000Y-73600000D03*
X155625000Y-73600000D03*
%TD*%
D11*
%TO.C,R3*%
X115275000Y-65725000D03*
X116925000Y-65725000D03*
%TD*%
D14*
%TO.C,J3*%
X127200000Y-47250000D03*
X127700000Y-45100000D03*
X128200000Y-47250000D03*
X128700000Y-45100000D03*
X129200000Y-47250000D03*
X129700000Y-45100000D03*
X130200000Y-47250000D03*
X130700000Y-45100000D03*
X131200000Y-47250000D03*
X131700000Y-45100000D03*
X132200000Y-47250000D03*
X132700000Y-45100000D03*
D15*
X125450000Y-46150000D03*
X134450000Y-46150000D03*
%TD*%
D16*
%TO.C,U2*%
X154062500Y-65775000D03*
X154062500Y-66725000D03*
X154062500Y-67675000D03*
X156337500Y-67675000D03*
X156337500Y-65775000D03*
%TD*%
D17*
%TO.C,C1*%
X110055000Y-85025000D03*
X111605000Y-85025000D03*
%TD*%
D11*
%TO.C,R3*%
X158175000Y-65725000D03*
X159825000Y-65725000D03*
%TD*%
D18*
%TO.C,REF\u002A\u002A*%
X108100000Y-102500000D03*
%TD*%
D14*
%TO.C,J5*%
X127200000Y-37300000D03*
X127700000Y-35150000D03*
X128200000Y-37300000D03*
X128700000Y-35150000D03*
X129200000Y-37300000D03*
X129700000Y-35150000D03*
X130200000Y-37300000D03*
X130700000Y-35150000D03*
X131200000Y-37300000D03*
X131700000Y-35150000D03*
X132200000Y-37300000D03*
X132700000Y-35150000D03*
D15*
X125450000Y-36200000D03*
X134450000Y-36200000D03*
%TD*%
D14*
%TO.C,J2*%
X127200000Y-52100000D03*
X127700000Y-49950000D03*
X128200000Y-52100000D03*
X128700000Y-49950000D03*
X129200000Y-52100000D03*
X129700000Y-49950000D03*
X130200000Y-52100000D03*
X130700000Y-49950000D03*
X131200000Y-52100000D03*
X131700000Y-49950000D03*
X132200000Y-52100000D03*
X132700000Y-49950000D03*
D15*
X125450000Y-51000000D03*
X134450000Y-51000000D03*
%TD*%
D14*
%TO.C,J1*%
X127200000Y-56900000D03*
X127700000Y-54750000D03*
X128200000Y-56900000D03*
X128700000Y-54750000D03*
X129200000Y-56900000D03*
X129700000Y-54750000D03*
X130200000Y-56900000D03*
X130700000Y-54750000D03*
X131200000Y-56900000D03*
X131700000Y-54750000D03*
X132200000Y-56900000D03*
X132700000Y-54750000D03*
D15*
X125450000Y-55800000D03*
X134450000Y-55800000D03*
%TD*%
D12*
%TO.C,C4*%
X162150000Y-74650000D03*
X162150000Y-73100000D03*
%TD*%
D19*
%TO.C,J7*%
X109090000Y-93770000D03*
X114870000Y-93770000D03*
D20*
X108630000Y-92705000D03*
X109430000Y-92705000D03*
X110730000Y-92705000D03*
X111730000Y-92705000D03*
X112230000Y-92705000D03*
X113230000Y-92705000D03*
X114530000Y-92705000D03*
X115330000Y-92705000D03*
X115030000Y-92705000D03*
X114230000Y-92705000D03*
X113730000Y-92705000D03*
X112730000Y-92705000D03*
X111230000Y-92705000D03*
X110230000Y-92705000D03*
X109730000Y-92705000D03*
X108930000Y-92705000D03*
D21*
X107660000Y-93270000D03*
D22*
X107660000Y-97450000D03*
D21*
X116300000Y-93270000D03*
D22*
X116300000Y-97450000D03*
%TD*%
D23*
%TO.C,C2*%
X109250000Y-65800000D03*
X109250000Y-67350000D03*
%TD*%
D17*
%TO.C,C1*%
X152955000Y-85025000D03*
X154505000Y-85025000D03*
%TD*%
D24*
%TO.C,KiKit_FID_T_1*%
X113100000Y-22500000D03*
%TD*%
D25*
%TO.C,U1*%
X110830000Y-89450000D03*
X111780000Y-89450000D03*
X112730000Y-89450000D03*
X112730000Y-87175000D03*
X111780000Y-87175000D03*
X110830000Y-87175000D03*
%TD*%
D16*
%TO.C,U2*%
X111162500Y-65775000D03*
X111162500Y-66725000D03*
X111162500Y-67675000D03*
X113437500Y-67675000D03*
X113437500Y-65775000D03*
%TD*%
D26*
%TO.C,L1*%
X154050000Y-69475000D03*
X154050000Y-71575000D03*
%TD*%
D19*
%TO.C,J7*%
X151990000Y-93770000D03*
X157770000Y-93770000D03*
D20*
X151530000Y-92705000D03*
X152330000Y-92705000D03*
X153630000Y-92705000D03*
X154630000Y-92705000D03*
X155130000Y-92705000D03*
X156130000Y-92705000D03*
X157430000Y-92705000D03*
X158230000Y-92705000D03*
X157930000Y-92705000D03*
X157130000Y-92705000D03*
X156630000Y-92705000D03*
X155630000Y-92705000D03*
X154130000Y-92705000D03*
X153130000Y-92705000D03*
X152630000Y-92705000D03*
X151830000Y-92705000D03*
D21*
X150560000Y-93270000D03*
D22*
X150560000Y-97450000D03*
D21*
X159200000Y-93270000D03*
D22*
X159200000Y-97450000D03*
%TD*%
D24*
%TO.C,KiKit_FID_T_2*%
X183900000Y-22500000D03*
%TD*%
D13*
%TO.C,R4*%
X159825000Y-67325000D03*
X158175000Y-67325000D03*
%TD*%
D18*
%TO.C,REF\u002A\u002A*%
X188100000Y-102500000D03*
%TD*%
D13*
%TO.C,R4*%
X116925000Y-67325000D03*
X115275000Y-67325000D03*
%TD*%
D14*
%TO.C,J2*%
X170100000Y-52100000D03*
X170600000Y-49950000D03*
X171100000Y-52100000D03*
X171600000Y-49950000D03*
X172100000Y-52100000D03*
X172600000Y-49950000D03*
X173100000Y-52100000D03*
X173600000Y-49950000D03*
X174100000Y-52100000D03*
X174600000Y-49950000D03*
X175100000Y-52100000D03*
X175600000Y-49950000D03*
D15*
X168350000Y-51000000D03*
X177350000Y-51000000D03*
%TD*%
D11*
%TO.C,R2*%
X157405000Y-90025000D03*
X159055000Y-90025000D03*
%TD*%
D23*
%TO.C,C2*%
X152150000Y-65800000D03*
X152150000Y-67350000D03*
%TD*%
D10*
%TO.C,SW1*%
X158575000Y-77775000D03*
X154425000Y-77775000D03*
X158575000Y-75625000D03*
X154425000Y-75625000D03*
%TD*%
D26*
%TO.C,L1*%
X111150000Y-69475000D03*
X111150000Y-71575000D03*
%TD*%
D25*
%TO.C,U1*%
X153730000Y-89450000D03*
X154680000Y-89450000D03*
X155630000Y-89450000D03*
X155630000Y-87175000D03*
X154680000Y-87175000D03*
X153730000Y-87175000D03*
%TD*%
D14*
%TO.C,J4*%
X170100000Y-42250000D03*
X170600000Y-40100000D03*
X171100000Y-42250000D03*
X171600000Y-40100000D03*
X172100000Y-42250000D03*
X172600000Y-40100000D03*
X173100000Y-42250000D03*
X173600000Y-40100000D03*
X174100000Y-42250000D03*
X174600000Y-40100000D03*
X175100000Y-42250000D03*
X175600000Y-40100000D03*
D15*
X168350000Y-41150000D03*
X177350000Y-41150000D03*
%TD*%
D14*
%TO.C,J1*%
X170100000Y-56900000D03*
X170600000Y-54750000D03*
X171100000Y-56900000D03*
X171600000Y-54750000D03*
X172100000Y-56900000D03*
X172600000Y-54750000D03*
X173100000Y-56900000D03*
X173600000Y-54750000D03*
X174100000Y-56900000D03*
X174600000Y-54750000D03*
X175100000Y-56900000D03*
X175600000Y-54750000D03*
D15*
X168350000Y-55800000D03*
X177350000Y-55800000D03*
%TD*%
D14*
%TO.C,J4*%
X127200000Y-42250000D03*
X127700000Y-40100000D03*
X128200000Y-42250000D03*
X128700000Y-40100000D03*
X129200000Y-42250000D03*
X129700000Y-40100000D03*
X130200000Y-42250000D03*
X130700000Y-40100000D03*
X131200000Y-42250000D03*
X131700000Y-40100000D03*
X132200000Y-42250000D03*
X132700000Y-40100000D03*
D15*
X125450000Y-41150000D03*
X134450000Y-41150000D03*
%TD*%
D14*
%TO.C,J6*%
X170100000Y-32300000D03*
X170600000Y-30150000D03*
X171100000Y-32300000D03*
X171600000Y-30150000D03*
X172100000Y-32300000D03*
X172600000Y-30150000D03*
X173100000Y-32300000D03*
X173600000Y-30150000D03*
X174100000Y-32300000D03*
X174600000Y-30150000D03*
X175100000Y-32300000D03*
X175600000Y-30150000D03*
D15*
X168350000Y-31200000D03*
X177350000Y-31200000D03*
%TD*%
D13*
%TO.C,R5*%
X114375000Y-73600000D03*
X112725000Y-73600000D03*
%TD*%
D27*
%TO.C,U3*%
X121350000Y-73180000D03*
X121350000Y-74450000D03*
X121350000Y-75720000D03*
X121350000Y-76990000D03*
X121350000Y-78260000D03*
X121350000Y-79530000D03*
X121350000Y-80800000D03*
X121350000Y-82070000D03*
X121350000Y-83340000D03*
X121350000Y-84610000D03*
X121350000Y-85880000D03*
X121350000Y-87150000D03*
X121350000Y-88420000D03*
X121350000Y-89690000D03*
D28*
X123115000Y-90940000D03*
X124385000Y-90940000D03*
X125655000Y-90940000D03*
X126925000Y-90940000D03*
X128195000Y-90940000D03*
X129465000Y-90940000D03*
X130735000Y-90940000D03*
X132005000Y-90940000D03*
X133275000Y-90940000D03*
X134545000Y-90940000D03*
X135815000Y-90940000D03*
X137085000Y-90940000D03*
D27*
X138850000Y-89690000D03*
X138850000Y-88420000D03*
X138850000Y-87150000D03*
X138850000Y-85880000D03*
X138850000Y-84610000D03*
X138850000Y-83340000D03*
X138850000Y-82070000D03*
X138850000Y-80800000D03*
X138850000Y-79530000D03*
X138850000Y-78260000D03*
X138850000Y-76990000D03*
X138850000Y-75720000D03*
X138850000Y-74450000D03*
X138850000Y-73180000D03*
D29*
X127200000Y-79500000D03*
X127200000Y-80900000D03*
X127200000Y-82300000D03*
X127200000Y-82300000D03*
X128600000Y-79500000D03*
X128600000Y-79500000D03*
X128600000Y-80900000D03*
X128600000Y-82300000D03*
X130000000Y-79500000D03*
X130000000Y-80900000D03*
X130000000Y-82300000D03*
%TD*%
D12*
%TO.C,C3*%
X157050000Y-71650000D03*
X157050000Y-70100000D03*
%TD*%
D30*
%TO.C,R1*%
X109180000Y-89750000D03*
X109180000Y-88100000D03*
%TD*%
D27*
%TO.C,U3*%
X164250000Y-73180000D03*
X164250000Y-74450000D03*
X164250000Y-75720000D03*
X164250000Y-76990000D03*
X164250000Y-78260000D03*
X164250000Y-79530000D03*
X164250000Y-80800000D03*
X164250000Y-82070000D03*
X164250000Y-83340000D03*
X164250000Y-84610000D03*
X164250000Y-85880000D03*
X164250000Y-87150000D03*
X164250000Y-88420000D03*
X164250000Y-89690000D03*
D28*
X166015000Y-90940000D03*
X167285000Y-90940000D03*
X168555000Y-90940000D03*
X169825000Y-90940000D03*
X171095000Y-90940000D03*
X172365000Y-90940000D03*
X173635000Y-90940000D03*
X174905000Y-90940000D03*
X176175000Y-90940000D03*
X177445000Y-90940000D03*
X178715000Y-90940000D03*
X179985000Y-90940000D03*
D27*
X181750000Y-89690000D03*
X181750000Y-88420000D03*
X181750000Y-87150000D03*
X181750000Y-85880000D03*
X181750000Y-84610000D03*
X181750000Y-83340000D03*
X181750000Y-82070000D03*
X181750000Y-80800000D03*
X181750000Y-79530000D03*
X181750000Y-78260000D03*
X181750000Y-76990000D03*
X181750000Y-75720000D03*
X181750000Y-74450000D03*
X181750000Y-73180000D03*
D29*
X170100000Y-79500000D03*
X170100000Y-80900000D03*
X170100000Y-82300000D03*
X170100000Y-82300000D03*
X171500000Y-79500000D03*
X171500000Y-79500000D03*
X171500000Y-80900000D03*
X171500000Y-82300000D03*
X172900000Y-79500000D03*
X172900000Y-80900000D03*
X172900000Y-82300000D03*
%TD*%
D12*
%TO.C,C3*%
X114150000Y-71650000D03*
X114150000Y-70100000D03*
%TD*%
D30*
%TO.C,R1*%
X152080000Y-89750000D03*
X152080000Y-88100000D03*
%TD*%
D24*
%TO.C,KiKit_FID_T_3*%
X113100000Y-104150000D03*
%TD*%
D14*
%TO.C,J3*%
X170100000Y-47250000D03*
X170600000Y-45100000D03*
X171100000Y-47250000D03*
X171600000Y-45100000D03*
X172100000Y-47250000D03*
X172600000Y-45100000D03*
X173100000Y-47250000D03*
X173600000Y-45100000D03*
X174100000Y-47250000D03*
X174600000Y-45100000D03*
X175100000Y-47250000D03*
X175600000Y-45100000D03*
D15*
X168350000Y-46150000D03*
X177350000Y-46150000D03*
%TD*%
D10*
%TO.C,SW2*%
X154425000Y-79875000D03*
X158575000Y-79875000D03*
X154425000Y-82025000D03*
X158575000Y-82025000D03*
%TD*%
D14*
%TO.C,J5*%
X170100000Y-37300000D03*
X170600000Y-35150000D03*
X171100000Y-37300000D03*
X171600000Y-35150000D03*
X172100000Y-37300000D03*
X172600000Y-35150000D03*
X173100000Y-37300000D03*
X173600000Y-35150000D03*
X174100000Y-37300000D03*
X174600000Y-35150000D03*
X175100000Y-37300000D03*
X175600000Y-35150000D03*
D15*
X168350000Y-36200000D03*
X177350000Y-36200000D03*
%TD*%
D14*
%TO.C,J6*%
X127200000Y-32300000D03*
X127700000Y-30150000D03*
X128200000Y-32300000D03*
X128700000Y-30150000D03*
X129200000Y-32300000D03*
X129700000Y-30150000D03*
X130200000Y-32300000D03*
X130700000Y-30150000D03*
X131200000Y-32300000D03*
X131700000Y-30150000D03*
X132200000Y-32300000D03*
X132700000Y-30150000D03*
D15*
X125450000Y-31200000D03*
X134450000Y-31200000D03*
%TD*%
M02*
