%TF.GenerationSoftware,KiCad,Pcbnew,7.0.5*%
%TF.CreationDate,2023-07-03T18:15:23+02:00*%
%TF.ProjectId,motherboard_panel,6d6f7468-6572-4626-9f61-72645f70616e,rev?*%
%TF.SameCoordinates,Original*%
%TF.FileFunction,Copper,L2,Bot*%
%TF.FilePolarity,Positive*%
%FSLAX46Y46*%
G04 Gerber Fmt 4.6, Leading zero omitted, Abs format (unit mm)*
G04 Created by KiCad (PCBNEW 7.0.5) date 2023-07-03 18:15:23*
%MOMM*%
%LPD*%
G01*
G04 APERTURE LIST*
G04 Aperture macros list*
%AMFreePoly0*
4,1,19,0.500000,-0.750000,0.000000,-0.750000,0.000000,-0.744911,-0.071157,-0.744911,-0.207708,-0.704816,-0.327430,-0.627875,-0.420627,-0.520320,-0.479746,-0.390866,-0.500000,-0.250000,-0.500000,0.250000,-0.479746,0.390866,-0.420627,0.520320,-0.327430,0.627875,-0.207708,0.704816,-0.071157,0.744911,0.000000,0.744911,0.000000,0.750000,0.500000,0.750000,0.500000,-0.750000,0.500000,-0.750000,
$1*%
%AMFreePoly1*
4,1,19,0.000000,0.744911,0.071157,0.744911,0.207708,0.704816,0.327430,0.627875,0.420627,0.520320,0.479746,0.390866,0.500000,0.250000,0.500000,-0.250000,0.479746,-0.390866,0.420627,-0.520320,0.327430,-0.627875,0.207708,-0.704816,0.071157,-0.744911,0.000000,-0.744911,0.000000,-0.750000,-0.500000,-0.750000,-0.500000,0.750000,0.000000,0.750000,0.000000,0.744911,0.000000,0.744911,
$1*%
G04 Aperture macros list end*
%TA.AperFunction,ComponentPad*%
%ADD10O,1.000000X2.100000*%
%TD*%
%TA.AperFunction,ComponentPad*%
%ADD11O,1.000000X1.600000*%
%TD*%
%TA.AperFunction,SMDPad,CuDef*%
%ADD12FreePoly0,270.000000*%
%TD*%
%TA.AperFunction,SMDPad,CuDef*%
%ADD13FreePoly1,270.000000*%
%TD*%
%TA.AperFunction,SMDPad,CuDef*%
%ADD14C,2.000000*%
%TD*%
%TA.AperFunction,ViaPad*%
%ADD15C,0.600000*%
%TD*%
%TA.AperFunction,Conductor*%
%ADD16C,0.200000*%
%TD*%
%TA.AperFunction,Conductor*%
%ADD17C,0.250000*%
%TD*%
G04 APERTURE END LIST*
%TA.AperFunction,EtchedComponent*%
%TO.C,JP3*%
G36*
X125500000Y-46400000D02*
G01*
X124900000Y-46400000D01*
X124900000Y-45900000D01*
X125500000Y-45900000D01*
X125500000Y-46400000D01*
G37*
%TD.AperFunction*%
%TA.AperFunction,EtchedComponent*%
%TO.C,JP6*%
G36*
X125500000Y-31450000D02*
G01*
X124900000Y-31450000D01*
X124900000Y-30950000D01*
X125500000Y-30950000D01*
X125500000Y-31450000D01*
G37*
%TD.AperFunction*%
%TA.AperFunction,EtchedComponent*%
%TO.C,JP2*%
G36*
X168400000Y-51250000D02*
G01*
X167800000Y-51250000D01*
X167800000Y-50750000D01*
X168400000Y-50750000D01*
X168400000Y-51250000D01*
G37*
%TD.AperFunction*%
%TA.AperFunction,EtchedComponent*%
%TO.C,JP5*%
G36*
X168400000Y-36450000D02*
G01*
X167800000Y-36450000D01*
X167800000Y-35950000D01*
X168400000Y-35950000D01*
X168400000Y-36450000D01*
G37*
%TD.AperFunction*%
%TA.AperFunction,EtchedComponent*%
%TO.C,JP2*%
G36*
X125500000Y-51250000D02*
G01*
X124900000Y-51250000D01*
X124900000Y-50750000D01*
X125500000Y-50750000D01*
X125500000Y-51250000D01*
G37*
%TD.AperFunction*%
%TA.AperFunction,EtchedComponent*%
%TO.C,JP4*%
G36*
X125500000Y-41400000D02*
G01*
X124900000Y-41400000D01*
X124900000Y-40900000D01*
X125500000Y-40900000D01*
X125500000Y-41400000D01*
G37*
%TD.AperFunction*%
%TA.AperFunction,EtchedComponent*%
%TO.C,JP5*%
G36*
X125500000Y-36450000D02*
G01*
X124900000Y-36450000D01*
X124900000Y-35950000D01*
X125500000Y-35950000D01*
X125500000Y-36450000D01*
G37*
%TD.AperFunction*%
%TA.AperFunction,EtchedComponent*%
%TO.C,JP6*%
G36*
X168400000Y-31450000D02*
G01*
X167800000Y-31450000D01*
X167800000Y-30950000D01*
X168400000Y-30950000D01*
X168400000Y-31450000D01*
G37*
%TD.AperFunction*%
%TA.AperFunction,EtchedComponent*%
%TO.C,JP3*%
G36*
X168400000Y-46400000D02*
G01*
X167800000Y-46400000D01*
X167800000Y-45900000D01*
X168400000Y-45900000D01*
X168400000Y-46400000D01*
G37*
%TD.AperFunction*%
%TA.AperFunction,EtchedComponent*%
%TO.C,JP4*%
G36*
X168400000Y-41400000D02*
G01*
X167800000Y-41400000D01*
X167800000Y-40900000D01*
X168400000Y-40900000D01*
X168400000Y-41400000D01*
G37*
%TD.AperFunction*%
%TD*%
D10*
%TO.P,J7,S1,SHIELD*%
%TO.N,Board_0-GND*%
X107660000Y-93270000D03*
D11*
X107660000Y-97450000D03*
D10*
X116300000Y-93270000D03*
D11*
X116300000Y-97450000D03*
%TD*%
D10*
%TO.P,J7,S1,SHIELD*%
%TO.N,Board_1-GND*%
X150560000Y-93270000D03*
D11*
X150560000Y-97450000D03*
D10*
X159200000Y-93270000D03*
D11*
X159200000Y-97450000D03*
%TD*%
D12*
%TO.P,JP3,1,A*%
%TO.N,Board_0-/MISO3*%
X125200000Y-45500000D03*
D13*
%TO.P,JP3,2,B*%
%TO.N,Board_0-/MISO2*%
X125200000Y-46800000D03*
%TD*%
D12*
%TO.P,JP6,1,A*%
%TO.N,Board_0-/MISO6*%
X125200000Y-30550000D03*
D13*
%TO.P,JP6,2,B*%
%TO.N,Board_0-/MISO5*%
X125200000Y-31850000D03*
%TD*%
D12*
%TO.P,JP2,1,A*%
%TO.N,Board_1-/MISO2*%
X168100000Y-50350000D03*
D13*
%TO.P,JP2,2,B*%
%TO.N,Board_1-/MISO1*%
X168100000Y-51650000D03*
%TD*%
D12*
%TO.P,JP1,1,A*%
%TO.N,Board_0-/MISO1*%
X125200000Y-55150000D03*
D13*
%TO.P,JP1,2,B*%
%TO.N,Board_0-/MOSI1*%
X125200000Y-56450000D03*
%TD*%
D12*
%TO.P,JP5,1,A*%
%TO.N,Board_1-/MISO5*%
X168100000Y-35550000D03*
D13*
%TO.P,JP5,2,B*%
%TO.N,Board_1-/MISO4*%
X168100000Y-36850000D03*
%TD*%
D14*
%TO.P,KiKit_FID_B_3,*%
%TO.N,*%
X113100000Y-104150000D03*
%TD*%
%TO.P,KiKit_FID_B_1,*%
%TO.N,*%
X113100000Y-22500000D03*
%TD*%
D12*
%TO.P,JP2,1,A*%
%TO.N,Board_0-/MISO2*%
X125200000Y-50350000D03*
D13*
%TO.P,JP2,2,B*%
%TO.N,Board_0-/MISO1*%
X125200000Y-51650000D03*
%TD*%
D14*
%TO.P,KiKit_FID_B_2,*%
%TO.N,*%
X183900000Y-22500000D03*
%TD*%
D12*
%TO.P,JP4,1,A*%
%TO.N,Board_0-/MISO4*%
X125200000Y-40500000D03*
D13*
%TO.P,JP4,2,B*%
%TO.N,Board_0-/MISO3*%
X125200000Y-41800000D03*
%TD*%
D12*
%TO.P,JP5,1,A*%
%TO.N,Board_0-/MISO5*%
X125200000Y-35550000D03*
D13*
%TO.P,JP5,2,B*%
%TO.N,Board_0-/MISO4*%
X125200000Y-36850000D03*
%TD*%
D12*
%TO.P,JP6,1,A*%
%TO.N,Board_1-/MISO6*%
X168100000Y-30550000D03*
D13*
%TO.P,JP6,2,B*%
%TO.N,Board_1-/MISO5*%
X168100000Y-31850000D03*
%TD*%
D12*
%TO.P,JP3,1,A*%
%TO.N,Board_1-/MISO3*%
X168100000Y-45500000D03*
D13*
%TO.P,JP3,2,B*%
%TO.N,Board_1-/MISO2*%
X168100000Y-46800000D03*
%TD*%
D12*
%TO.P,JP4,1,A*%
%TO.N,Board_1-/MISO4*%
X168100000Y-40500000D03*
D13*
%TO.P,JP4,2,B*%
%TO.N,Board_1-/MISO3*%
X168100000Y-41800000D03*
%TD*%
D12*
%TO.P,JP1,1,A*%
%TO.N,Board_1-/MISO1*%
X168100000Y-55150000D03*
D13*
%TO.P,JP1,2,B*%
%TO.N,Board_1-/MOSI1*%
X168100000Y-56450000D03*
%TD*%
D15*
%TO.N,Board_0-/IN+*%
X128496128Y-59674315D03*
X119800000Y-78350000D03*
%TO.N,Board_0-/IN-*%
X128615380Y-60465380D03*
X120400000Y-77198286D03*
%TO.N,Board_0-/MISO1*%
X130500000Y-53400000D03*
%TO.N,Board_0-/MISO2*%
X130500000Y-48550000D03*
%TO.N,Board_0-/MISO3*%
X130300000Y-43550000D03*
%TO.N,Board_0-/MISO4*%
X130400000Y-38650000D03*
%TO.N,Board_0-/MISO5*%
X130350000Y-33700000D03*
%TO.N,Board_0-/MISO6*%
X119400000Y-80850000D03*
X123650000Y-30650000D03*
%TO.N,Board_0-/MOSI1*%
X130550000Y-58700000D03*
X119200000Y-79000000D03*
%TO.N,Board_0-/POL1*%
X136700000Y-38450000D03*
X135250000Y-48250000D03*
X135150000Y-38449992D03*
X135600000Y-57850000D03*
X145549996Y-57850000D03*
X136750000Y-48250000D03*
%TO.N,Board_0-/POL2*%
X136100000Y-52250000D03*
X145450000Y-52250004D03*
%TO.N,Board_0-/SCL1*%
X128000000Y-58000000D03*
X144550000Y-56250000D03*
%TO.N,Board_0-/SCL2*%
X143950000Y-51450000D03*
X127950000Y-53250000D03*
%TO.N,Board_0-/SCL3*%
X128000000Y-48100000D03*
X143100000Y-46400000D03*
%TO.N,Board_0-/SCL4*%
X127950000Y-43400000D03*
X142300000Y-41100000D03*
%TO.N,Board_0-/SCL5*%
X141400008Y-36500000D03*
X128000000Y-38500000D03*
%TO.N,Board_0-/SCL6*%
X128000000Y-33300000D03*
X140350014Y-31750000D03*
%TO.N,Board_0-/SCLK*%
X146400074Y-59600026D03*
X135550000Y-59600000D03*
%TO.N,Board_0-/SDA1*%
X127963463Y-55720422D03*
X144150000Y-55550000D03*
%TO.N,Board_0-/SDA2*%
X143385532Y-50783097D03*
X127912056Y-50775297D03*
%TO.N,Board_0-/SDA3*%
X127888948Y-45894936D03*
X142600000Y-45750000D03*
%TO.N,Board_0-/SDA4*%
X141800000Y-40450000D03*
X127900002Y-40881364D03*
%TO.N,Board_0-/SDA5*%
X141047017Y-35741051D03*
X127900000Y-36000000D03*
%TO.N,Board_0-/SDA6*%
X138700000Y-31150000D03*
X127701173Y-31150337D03*
%TO.N,Board_0-/SS*%
X145800000Y-58800000D03*
X135550000Y-58800000D03*
%TO.N,Board_0-GND*%
X129250000Y-81650000D03*
X129250000Y-80250000D03*
X111779992Y-90975000D03*
X133289572Y-48950000D03*
X127850000Y-81650000D03*
X121650000Y-46150000D03*
X133300000Y-53750000D03*
X127850000Y-80300000D03*
X133150000Y-39300000D03*
X116280000Y-91225000D03*
X132700000Y-34050000D03*
X133300000Y-29000000D03*
X121650000Y-31200000D03*
X113650000Y-78850000D03*
X109680000Y-87275000D03*
X108650000Y-68750000D03*
X121650000Y-36250000D03*
X107430000Y-90925000D03*
X137400000Y-73250000D03*
X133300000Y-44350000D03*
X121600000Y-51000000D03*
X121650000Y-41150000D03*
X108880000Y-85025000D03*
X115350000Y-69075000D03*
X123000000Y-73200000D03*
X121600000Y-55800000D03*
%TO.N,Board_0-Net-(U3-GPIO0{slash}BOOT)*%
X119350000Y-82150000D03*
X123050000Y-82250000D03*
%TO.N,Board_1-/IN+*%
X171396128Y-59674315D03*
X162700000Y-78350000D03*
%TO.N,Board_1-/IN-*%
X163300000Y-77198286D03*
X171515380Y-60465380D03*
%TO.N,Board_1-/MISO1*%
X173400000Y-53400000D03*
%TO.N,Board_1-/MISO2*%
X173400000Y-48550000D03*
%TO.N,Board_1-/MISO3*%
X173200000Y-43550000D03*
%TO.N,Board_1-/MISO4*%
X173300000Y-38650000D03*
%TO.N,Board_1-/MISO5*%
X173250000Y-33700000D03*
%TO.N,Board_1-/MISO6*%
X162300000Y-80850000D03*
X166550000Y-30650000D03*
%TO.N,Board_1-/MOSI1*%
X173450000Y-58700000D03*
X162100000Y-79000000D03*
%TO.N,Board_1-/POL1*%
X188449996Y-57850000D03*
X179650000Y-48250000D03*
X179600000Y-38450000D03*
X178500000Y-57850000D03*
X178150000Y-48250000D03*
X178050000Y-38449992D03*
%TO.N,Board_1-/POL2*%
X179000000Y-52250000D03*
X188350000Y-52250004D03*
%TO.N,Board_1-/SCL1*%
X170900000Y-58000000D03*
X187450000Y-56250000D03*
%TO.N,Board_1-/SCL2*%
X186850000Y-51450000D03*
X170850000Y-53250000D03*
%TO.N,Board_1-/SCL3*%
X170900000Y-48100000D03*
X186000000Y-46400000D03*
%TO.N,Board_1-/SCL4*%
X170850000Y-43400000D03*
X185200000Y-41100000D03*
%TO.N,Board_1-/SCL5*%
X170900000Y-38500000D03*
X184300008Y-36500000D03*
%TO.N,Board_1-/SCL6*%
X183250014Y-31750000D03*
X170900000Y-33300000D03*
%TO.N,Board_1-/SCLK*%
X189300074Y-59600026D03*
X178450000Y-59600000D03*
%TO.N,Board_1-/SDA1*%
X170863463Y-55720422D03*
X187050000Y-55550000D03*
%TO.N,Board_1-/SDA2*%
X170812056Y-50775297D03*
X186285532Y-50783097D03*
%TO.N,Board_1-/SDA3*%
X170788948Y-45894936D03*
X185500000Y-45750000D03*
%TO.N,Board_1-/SDA4*%
X184700000Y-40450000D03*
X170800002Y-40881364D03*
%TO.N,Board_1-/SDA5*%
X170800000Y-36000000D03*
X183947017Y-35741051D03*
%TO.N,Board_1-/SDA6*%
X170601173Y-31150337D03*
X181600000Y-31150000D03*
%TO.N,Board_1-/SS*%
X178450000Y-58800000D03*
X188700000Y-58800000D03*
%TO.N,Board_1-GND*%
X156550000Y-78850000D03*
X180300000Y-73250000D03*
X151550000Y-68750000D03*
X176189572Y-48950000D03*
X164500000Y-55800000D03*
X172150000Y-81650000D03*
X150330000Y-90925000D03*
X175600000Y-34050000D03*
X164550000Y-31200000D03*
X172150000Y-80250000D03*
X164550000Y-46150000D03*
X154679992Y-90975000D03*
X176200000Y-29000000D03*
X158250000Y-69075000D03*
X176200000Y-44350000D03*
X159180000Y-91225000D03*
X176050000Y-39300000D03*
X151780000Y-85025000D03*
X164500000Y-51000000D03*
X170750000Y-81650000D03*
X170750000Y-80300000D03*
X164550000Y-36250000D03*
X165900000Y-73200000D03*
X176200000Y-53750000D03*
X164550000Y-41150000D03*
X152580000Y-87275000D03*
%TO.N,Board_1-Net-(U3-GPIO0{slash}BOOT)*%
X165950000Y-82250000D03*
X162250000Y-82150000D03*
%TD*%
D16*
%TO.N,Board_0-/IN+*%
X126368578Y-59674315D02*
X128496128Y-59674315D01*
X119800000Y-66242893D02*
X126368578Y-59674315D01*
X119800000Y-78350000D02*
X119800000Y-66242893D01*
%TO.N,Board_0-/IN-*%
X120200000Y-66408578D02*
X126143198Y-60465380D01*
X126143198Y-60465380D02*
X128615380Y-60465380D01*
X120400000Y-77198286D02*
X120200000Y-76998286D01*
X120200000Y-76998286D02*
X120200000Y-66408578D01*
D17*
%TO.N,Board_0-/MISO1*%
X125250000Y-55100000D02*
X125200000Y-55150000D01*
X125250000Y-51700000D02*
X125250000Y-55100000D01*
X125200000Y-55150000D02*
X127150000Y-55150000D01*
X127150000Y-55150000D02*
X128900000Y-53400000D01*
X128900000Y-53400000D02*
X130500000Y-53400000D01*
X125200000Y-51650000D02*
X125250000Y-51700000D01*
%TO.N,Board_0-/MISO2*%
X125250000Y-46850000D02*
X125250000Y-50300000D01*
X128800000Y-48550000D02*
X130500000Y-48550000D01*
X125250000Y-50300000D02*
X125200000Y-50350000D01*
X127000000Y-50350000D02*
X128800000Y-48550000D01*
X125200000Y-46800000D02*
X125250000Y-46850000D01*
X125200000Y-50350000D02*
X127000000Y-50350000D01*
%TO.N,Board_0-/MISO3*%
X125200000Y-45500000D02*
X125200000Y-41800000D01*
X129350000Y-43550000D02*
X130300000Y-43550000D01*
X125200000Y-45500000D02*
X127400000Y-45500000D01*
X127400000Y-45500000D02*
X129350000Y-43550000D01*
%TO.N,Board_0-/MISO4*%
X125200000Y-40500000D02*
X125200000Y-36850000D01*
X127200000Y-40500000D02*
X129050000Y-38650000D01*
X129050000Y-38650000D02*
X130400000Y-38650000D01*
X125200000Y-40500000D02*
X127200000Y-40500000D01*
%TO.N,Board_0-/MISO5*%
X129000000Y-33700000D02*
X130350000Y-33700000D01*
X125200000Y-35550000D02*
X127150000Y-35550000D01*
X127150000Y-35550000D02*
X129000000Y-33700000D01*
X125200000Y-35550000D02*
X125200000Y-31850000D01*
D16*
%TO.N,Board_0-/MISO6*%
X119400000Y-80850000D02*
X118600000Y-80050000D01*
X118600000Y-80050000D02*
X118600000Y-66150000D01*
X125200000Y-30550000D02*
X125100000Y-30650000D01*
X118600000Y-66150000D02*
X123650000Y-61100000D01*
X125100000Y-30650000D02*
X123650000Y-30650000D01*
X123650000Y-61100000D02*
X123650000Y-30650000D01*
D17*
%TO.N,Board_0-/MOSI1*%
X125200000Y-56450000D02*
X127500000Y-58750000D01*
X130500000Y-58750000D02*
X130550000Y-58700000D01*
D16*
X119150000Y-78950000D02*
X119200000Y-79000000D01*
X125200000Y-56450000D02*
X125200000Y-60200000D01*
X125200000Y-60200000D02*
X119150000Y-66250000D01*
D17*
X127500000Y-58750000D02*
X130500000Y-58750000D01*
D16*
X119150000Y-66250000D02*
X119150000Y-78950000D01*
%TO.N,Board_0-/POL1*%
X136750000Y-48250000D02*
X135250000Y-48250000D01*
X135600000Y-57850000D02*
X145549996Y-57850000D01*
X135150000Y-38449992D02*
X136699992Y-38449992D01*
X136699992Y-38449992D02*
X136700000Y-38450000D01*
%TO.N,Board_0-/POL2*%
X136100000Y-52250000D02*
X145449996Y-52250000D01*
X145449996Y-52250000D02*
X145450000Y-52250004D01*
%TO.N,Board_0-/SCL1*%
X129750000Y-56250000D02*
X144550000Y-56250000D01*
X128000000Y-58000000D02*
X129750000Y-56250000D01*
%TO.N,Board_0-/SCL2*%
X127950000Y-53250000D02*
X129750000Y-51450000D01*
X129750000Y-51450000D02*
X143950000Y-51450000D01*
%TO.N,Board_0-/SCL3*%
X129700000Y-46400000D02*
X143100000Y-46400000D01*
X128000000Y-48100000D02*
X129700000Y-46400000D01*
%TO.N,Board_0-/SCL4*%
X127950000Y-43400000D02*
X130250000Y-41100000D01*
X130250000Y-41100000D02*
X142300000Y-41100000D01*
%TO.N,Board_0-/SCL5*%
X128000000Y-38500000D02*
X130000000Y-36500000D01*
X130000000Y-36500000D02*
X141400008Y-36500000D01*
%TO.N,Board_0-/SCL6*%
X129550004Y-31749996D02*
X140350010Y-31749996D01*
X140350010Y-31749996D02*
X140350014Y-31750000D01*
X128000000Y-33300000D02*
X129550004Y-31749996D01*
%TO.N,Board_0-/SCLK*%
X146400048Y-59600000D02*
X146400074Y-59600026D01*
X135550000Y-59600000D02*
X146400048Y-59600000D01*
%TO.N,Board_0-/SDA1*%
X128133885Y-55550000D02*
X144150000Y-55550000D01*
X127963463Y-55720422D02*
X128133885Y-55550000D01*
%TO.N,Board_0-/SDA2*%
X127912056Y-50775297D02*
X127936759Y-50800000D01*
X143368629Y-50800000D02*
X143385532Y-50783097D01*
X127936759Y-50800000D02*
X143368629Y-50800000D01*
%TO.N,Board_0-/SDA3*%
X128033884Y-45750000D02*
X142600000Y-45750000D01*
X127888948Y-45894936D02*
X128033884Y-45750000D01*
%TO.N,Board_0-/SDA4*%
X127900002Y-40881364D02*
X128331366Y-40450000D01*
X128331366Y-40450000D02*
X141800000Y-40450000D01*
%TO.N,Board_0-/SDA5*%
X140788068Y-36000000D02*
X141047017Y-35741051D01*
X127900000Y-36000000D02*
X140788068Y-36000000D01*
%TO.N,Board_0-/SDA6*%
X127751510Y-31100000D02*
X138650000Y-31100000D01*
X138650000Y-31100000D02*
X138700000Y-31150000D01*
X127701173Y-31150337D02*
X127751510Y-31100000D01*
%TO.N,Board_0-/SS*%
X135550000Y-58800000D02*
X145800000Y-58800000D01*
%TO.N,Board_0-Net-(U3-GPIO0{slash}BOOT)*%
X123050000Y-82250000D02*
X119450000Y-82250000D01*
X119450000Y-82250000D02*
X119350000Y-82150000D01*
%TO.N,Board_1-/IN+*%
X162700000Y-66242893D02*
X169268578Y-59674315D01*
X169268578Y-59674315D02*
X171396128Y-59674315D01*
X162700000Y-78350000D02*
X162700000Y-66242893D01*
%TO.N,Board_1-/IN-*%
X169043198Y-60465380D02*
X171515380Y-60465380D01*
X163100000Y-76998286D02*
X163100000Y-66408578D01*
X163300000Y-77198286D02*
X163100000Y-76998286D01*
X163100000Y-66408578D02*
X169043198Y-60465380D01*
D17*
%TO.N,Board_1-/MISO1*%
X168150000Y-51700000D02*
X168150000Y-55100000D01*
X168100000Y-51650000D02*
X168150000Y-51700000D01*
X168100000Y-55150000D02*
X170050000Y-55150000D01*
X170050000Y-55150000D02*
X171800000Y-53400000D01*
X171800000Y-53400000D02*
X173400000Y-53400000D01*
X168150000Y-55100000D02*
X168100000Y-55150000D01*
%TO.N,Board_1-/MISO2*%
X169900000Y-50350000D02*
X171700000Y-48550000D01*
X171700000Y-48550000D02*
X173400000Y-48550000D01*
X168100000Y-50350000D02*
X169900000Y-50350000D01*
X168100000Y-46800000D02*
X168150000Y-46850000D01*
X168150000Y-50300000D02*
X168100000Y-50350000D01*
X168150000Y-46850000D02*
X168150000Y-50300000D01*
%TO.N,Board_1-/MISO3*%
X170300000Y-45500000D02*
X172250000Y-43550000D01*
X168100000Y-45500000D02*
X170300000Y-45500000D01*
X168100000Y-45500000D02*
X168100000Y-41800000D01*
X172250000Y-43550000D02*
X173200000Y-43550000D01*
%TO.N,Board_1-/MISO4*%
X168100000Y-40500000D02*
X170100000Y-40500000D01*
X168100000Y-40500000D02*
X168100000Y-36850000D01*
X171950000Y-38650000D02*
X173300000Y-38650000D01*
X170100000Y-40500000D02*
X171950000Y-38650000D01*
%TO.N,Board_1-/MISO5*%
X168100000Y-35550000D02*
X168100000Y-31850000D01*
X171900000Y-33700000D02*
X173250000Y-33700000D01*
X168100000Y-35550000D02*
X170050000Y-35550000D01*
X170050000Y-35550000D02*
X171900000Y-33700000D01*
D16*
%TO.N,Board_1-/MISO6*%
X168000000Y-30650000D02*
X166550000Y-30650000D01*
X161500000Y-80050000D02*
X161500000Y-66150000D01*
X161500000Y-66150000D02*
X166550000Y-61100000D01*
X166550000Y-61100000D02*
X166550000Y-30650000D01*
X162300000Y-80850000D02*
X161500000Y-80050000D01*
X168100000Y-30550000D02*
X168000000Y-30650000D01*
%TO.N,Board_1-/MOSI1*%
X162050000Y-66250000D02*
X162050000Y-78950000D01*
D17*
X170400000Y-58750000D02*
X173400000Y-58750000D01*
D16*
X162050000Y-78950000D02*
X162100000Y-79000000D01*
D17*
X173400000Y-58750000D02*
X173450000Y-58700000D01*
D16*
X168100000Y-60200000D02*
X162050000Y-66250000D01*
D17*
X168100000Y-56450000D02*
X170400000Y-58750000D01*
D16*
X168100000Y-56450000D02*
X168100000Y-60200000D01*
%TO.N,Board_1-/POL1*%
X178050000Y-38449992D02*
X179599992Y-38449992D01*
X179599992Y-38449992D02*
X179600000Y-38450000D01*
X179650000Y-48250000D02*
X178150000Y-48250000D01*
X178500000Y-57850000D02*
X188449996Y-57850000D01*
%TO.N,Board_1-/POL2*%
X188349996Y-52250000D02*
X188350000Y-52250004D01*
X179000000Y-52250000D02*
X188349996Y-52250000D01*
%TO.N,Board_1-/SCL1*%
X172650000Y-56250000D02*
X187450000Y-56250000D01*
X170900000Y-58000000D02*
X172650000Y-56250000D01*
%TO.N,Board_1-/SCL2*%
X170850000Y-53250000D02*
X172650000Y-51450000D01*
X172650000Y-51450000D02*
X186850000Y-51450000D01*
%TO.N,Board_1-/SCL3*%
X172600000Y-46400000D02*
X186000000Y-46400000D01*
X170900000Y-48100000D02*
X172600000Y-46400000D01*
%TO.N,Board_1-/SCL4*%
X170850000Y-43400000D02*
X173150000Y-41100000D01*
X173150000Y-41100000D02*
X185200000Y-41100000D01*
%TO.N,Board_1-/SCL5*%
X172900000Y-36500000D02*
X184300008Y-36500000D01*
X170900000Y-38500000D02*
X172900000Y-36500000D01*
%TO.N,Board_1-/SCL6*%
X172450004Y-31749996D02*
X183250010Y-31749996D01*
X183250010Y-31749996D02*
X183250014Y-31750000D01*
X170900000Y-33300000D02*
X172450004Y-31749996D01*
%TO.N,Board_1-/SCLK*%
X189300048Y-59600000D02*
X189300074Y-59600026D01*
X178450000Y-59600000D02*
X189300048Y-59600000D01*
%TO.N,Board_1-/SDA1*%
X171033885Y-55550000D02*
X187050000Y-55550000D01*
X170863463Y-55720422D02*
X171033885Y-55550000D01*
%TO.N,Board_1-/SDA2*%
X186268629Y-50800000D02*
X186285532Y-50783097D01*
X170812056Y-50775297D02*
X170836759Y-50800000D01*
X170836759Y-50800000D02*
X186268629Y-50800000D01*
%TO.N,Board_1-/SDA3*%
X170933884Y-45750000D02*
X185500000Y-45750000D01*
X170788948Y-45894936D02*
X170933884Y-45750000D01*
%TO.N,Board_1-/SDA4*%
X170800002Y-40881364D02*
X171231366Y-40450000D01*
X171231366Y-40450000D02*
X184700000Y-40450000D01*
%TO.N,Board_1-/SDA5*%
X170800000Y-36000000D02*
X183688068Y-36000000D01*
X183688068Y-36000000D02*
X183947017Y-35741051D01*
%TO.N,Board_1-/SDA6*%
X170601173Y-31150337D02*
X170651510Y-31100000D01*
X170651510Y-31100000D02*
X181550000Y-31100000D01*
X181550000Y-31100000D02*
X181600000Y-31150000D01*
%TO.N,Board_1-/SS*%
X178450000Y-58800000D02*
X188700000Y-58800000D01*
%TO.N,Board_1-Net-(U3-GPIO0{slash}BOOT)*%
X162350000Y-82250000D02*
X162250000Y-82150000D01*
X165950000Y-82250000D02*
X162350000Y-82250000D01*
%TD*%
%TA.AperFunction,Conductor*%
%TO.N,Board_0-GND*%
G36*
X147643089Y-27869752D02*
G01*
X147688907Y-27922501D01*
X147700175Y-27973973D01*
X147799824Y-98425973D01*
X147780234Y-98493040D01*
X147727495Y-98538869D01*
X147675972Y-98550148D01*
X117173596Y-98586634D01*
X117106533Y-98567030D01*
X117060715Y-98514280D01*
X117050689Y-98445134D01*
X117071674Y-98391796D01*
X117178855Y-98237805D01*
X117259059Y-98050907D01*
X117300000Y-97851690D01*
X117300000Y-97700000D01*
X116600000Y-97700000D01*
X116600000Y-97200000D01*
X117300000Y-97200000D01*
X117300000Y-97099286D01*
X117284581Y-96947661D01*
X117223700Y-96753618D01*
X117223695Y-96753608D01*
X117124994Y-96575784D01*
X117124994Y-96575783D01*
X116992521Y-96421469D01*
X116992520Y-96421468D01*
X116831695Y-96296981D01*
X116649093Y-96207411D01*
X116550000Y-96181753D01*
X116550000Y-96983889D01*
X116525543Y-96944390D01*
X116436038Y-96876799D01*
X116328160Y-96846105D01*
X116216479Y-96856454D01*
X116116078Y-96906448D01*
X116049999Y-96978930D01*
X116049999Y-96176633D01*
X116048053Y-96176931D01*
X116048047Y-96176933D01*
X115857342Y-96247562D01*
X115857335Y-96247565D01*
X115684732Y-96355149D01*
X115537331Y-96495264D01*
X115537330Y-96495266D01*
X115421143Y-96662195D01*
X115340940Y-96849092D01*
X115300000Y-97048309D01*
X115300000Y-97200000D01*
X116000000Y-97200000D01*
X116000000Y-97700000D01*
X115300000Y-97700000D01*
X115300000Y-97800713D01*
X115315418Y-97952338D01*
X115376299Y-98146381D01*
X115376304Y-98146391D01*
X115475005Y-98324215D01*
X115526283Y-98383948D01*
X115555014Y-98447636D01*
X115544751Y-98516748D01*
X115498753Y-98569341D01*
X115432344Y-98588717D01*
X108526397Y-98596977D01*
X108459334Y-98577373D01*
X108413516Y-98524623D01*
X108403490Y-98455477D01*
X108424475Y-98402139D01*
X108538855Y-98237805D01*
X108619059Y-98050907D01*
X108660000Y-97851690D01*
X108660000Y-97700000D01*
X107960000Y-97700000D01*
X107960000Y-97200000D01*
X108660000Y-97200000D01*
X108660000Y-97099286D01*
X108644581Y-96947661D01*
X108583700Y-96753618D01*
X108583695Y-96753608D01*
X108484994Y-96575784D01*
X108484994Y-96575783D01*
X108352521Y-96421469D01*
X108352520Y-96421468D01*
X108191695Y-96296981D01*
X108009093Y-96207411D01*
X107910000Y-96181753D01*
X107910000Y-96983889D01*
X107885543Y-96944390D01*
X107796038Y-96876799D01*
X107688160Y-96846105D01*
X107576479Y-96856454D01*
X107476078Y-96906448D01*
X107409999Y-96978930D01*
X107409999Y-96176633D01*
X107408053Y-96176931D01*
X107408047Y-96176933D01*
X107217342Y-96247562D01*
X107217335Y-96247565D01*
X107044732Y-96355149D01*
X106897331Y-96495264D01*
X106897330Y-96495266D01*
X106781143Y-96662195D01*
X106700940Y-96849092D01*
X106660000Y-97048309D01*
X106660000Y-97200000D01*
X107360000Y-97200000D01*
X107360000Y-97700000D01*
X106660000Y-97700000D01*
X106660000Y-97800713D01*
X106675418Y-97952338D01*
X106736299Y-98146381D01*
X106736304Y-98146391D01*
X106835005Y-98324215D01*
X106835005Y-98324216D01*
X106895146Y-98394271D01*
X106923878Y-98457959D01*
X106913616Y-98527071D01*
X106867618Y-98579664D01*
X106801208Y-98599041D01*
X106124235Y-98599851D01*
X106057172Y-98580247D01*
X106011354Y-98527497D01*
X106000087Y-98475766D01*
X106003344Y-93870713D01*
X106660000Y-93870713D01*
X106675418Y-94022338D01*
X106736299Y-94216381D01*
X106736304Y-94216391D01*
X106835005Y-94394215D01*
X106835005Y-94394216D01*
X106967478Y-94548530D01*
X106967479Y-94548531D01*
X107128304Y-94673018D01*
X107310907Y-94762589D01*
X107410000Y-94788244D01*
X107410000Y-93986110D01*
X107434457Y-94025610D01*
X107523962Y-94093201D01*
X107631840Y-94123895D01*
X107743521Y-94113546D01*
X107843922Y-94063552D01*
X107910000Y-93991069D01*
X107910000Y-94793366D01*
X107911944Y-94793069D01*
X107911945Y-94793069D01*
X108102660Y-94722436D01*
X108102664Y-94722434D01*
X108275267Y-94614850D01*
X108422668Y-94474735D01*
X108422669Y-94474733D01*
X108538857Y-94307803D01*
X108612959Y-94135122D01*
X108657485Y-94081278D01*
X108724053Y-94060054D01*
X108791529Y-94078189D01*
X108814591Y-94096340D01*
X108836774Y-94118523D01*
X108836778Y-94118526D01*
X108836780Y-94118528D01*
X108956874Y-94179719D01*
X108956876Y-94179719D01*
X108956878Y-94179720D01*
X109056507Y-94195500D01*
X109056512Y-94195500D01*
X109123493Y-94195500D01*
X109223121Y-94179720D01*
X109223121Y-94179719D01*
X109223126Y-94179719D01*
X109343220Y-94118528D01*
X109438528Y-94023220D01*
X109499719Y-93903126D01*
X109504853Y-93870713D01*
X109520804Y-93770002D01*
X114439196Y-93770002D01*
X114460279Y-93903121D01*
X114460280Y-93903124D01*
X114460281Y-93903126D01*
X114499790Y-93980666D01*
X114521473Y-94023221D01*
X114521476Y-94023225D01*
X114616774Y-94118523D01*
X114616778Y-94118526D01*
X114616780Y-94118528D01*
X114736874Y-94179719D01*
X114736876Y-94179719D01*
X114736878Y-94179720D01*
X114836507Y-94195500D01*
X114836512Y-94195500D01*
X114903493Y-94195500D01*
X115003121Y-94179720D01*
X115003121Y-94179719D01*
X115003126Y-94179719D01*
X115123220Y-94118528D01*
X115147766Y-94093981D01*
X115209087Y-94060497D01*
X115278779Y-94065481D01*
X115334713Y-94107351D01*
X115353760Y-94144542D01*
X115376299Y-94216381D01*
X115376304Y-94216391D01*
X115475005Y-94394215D01*
X115475005Y-94394216D01*
X115607478Y-94548530D01*
X115607479Y-94548531D01*
X115768304Y-94673018D01*
X115950907Y-94762589D01*
X116050000Y-94788244D01*
X116050000Y-93986110D01*
X116074457Y-94025610D01*
X116163962Y-94093201D01*
X116271840Y-94123895D01*
X116383521Y-94113546D01*
X116483922Y-94063552D01*
X116550000Y-93991069D01*
X116550000Y-94793366D01*
X116551944Y-94793069D01*
X116551945Y-94793069D01*
X116742660Y-94722436D01*
X116742664Y-94722434D01*
X116915267Y-94614850D01*
X117062668Y-94474735D01*
X117062669Y-94474733D01*
X117178856Y-94307804D01*
X117259059Y-94120907D01*
X117300000Y-93921690D01*
X117300000Y-93520000D01*
X116600000Y-93520000D01*
X116600000Y-93020000D01*
X117300000Y-93020000D01*
X117300000Y-92669286D01*
X117284581Y-92517661D01*
X117223700Y-92323618D01*
X117223695Y-92323608D01*
X117124994Y-92145784D01*
X117124994Y-92145783D01*
X116992521Y-91991469D01*
X116992520Y-91991468D01*
X116831695Y-91866981D01*
X116649093Y-91777411D01*
X116549999Y-91751753D01*
X116549999Y-92553887D01*
X116525543Y-92514390D01*
X116436038Y-92446799D01*
X116328160Y-92416105D01*
X116216479Y-92426454D01*
X116116078Y-92476448D01*
X116049999Y-92548931D01*
X116050000Y-91746633D01*
X116048053Y-91746931D01*
X116048047Y-91746933D01*
X115857342Y-91817562D01*
X115857335Y-91817565D01*
X115684732Y-91925149D01*
X115537331Y-92065264D01*
X115537330Y-92065266D01*
X115421143Y-92232195D01*
X115340940Y-92419092D01*
X115300000Y-92618309D01*
X115300000Y-93020000D01*
X116000000Y-93020000D01*
X116000000Y-93520000D01*
X115273111Y-93520000D01*
X115206072Y-93500315D01*
X115185430Y-93483681D01*
X115123225Y-93421476D01*
X115123221Y-93421473D01*
X115123221Y-93421472D01*
X115123220Y-93421472D01*
X115003126Y-93360281D01*
X115003124Y-93360280D01*
X115003121Y-93360279D01*
X114903493Y-93344500D01*
X114903488Y-93344500D01*
X114836512Y-93344500D01*
X114836507Y-93344500D01*
X114736878Y-93360279D01*
X114616778Y-93421473D01*
X114616774Y-93421476D01*
X114521476Y-93516774D01*
X114521473Y-93516778D01*
X114460279Y-93636878D01*
X114439196Y-93769997D01*
X114439196Y-93770002D01*
X109520804Y-93770002D01*
X109520804Y-93769997D01*
X109499720Y-93636878D01*
X109499719Y-93636876D01*
X109499719Y-93636874D01*
X109438528Y-93516780D01*
X109438526Y-93516778D01*
X109438523Y-93516774D01*
X109343225Y-93421476D01*
X109343221Y-93421473D01*
X109343221Y-93421472D01*
X109343220Y-93421472D01*
X109223126Y-93360281D01*
X109223124Y-93360280D01*
X109223121Y-93360279D01*
X109123493Y-93344500D01*
X109123488Y-93344500D01*
X109056512Y-93344500D01*
X109056507Y-93344500D01*
X108956878Y-93360279D01*
X108836778Y-93421473D01*
X108836774Y-93421476D01*
X108774570Y-93483681D01*
X108713247Y-93517166D01*
X108686889Y-93520000D01*
X107960000Y-93520000D01*
X107960000Y-93020000D01*
X108660000Y-93020000D01*
X108660000Y-92669286D01*
X108644581Y-92517661D01*
X108583700Y-92323618D01*
X108583695Y-92323608D01*
X108484994Y-92145784D01*
X108484994Y-92145783D01*
X108352521Y-91991469D01*
X108352520Y-91991468D01*
X108191695Y-91866981D01*
X108009093Y-91777411D01*
X107910000Y-91751753D01*
X107910000Y-92553889D01*
X107885543Y-92514390D01*
X107796038Y-92446799D01*
X107688160Y-92416105D01*
X107576479Y-92426454D01*
X107476078Y-92476448D01*
X107409999Y-92548931D01*
X107410000Y-91746633D01*
X107408053Y-91746931D01*
X107408047Y-91746933D01*
X107217342Y-91817562D01*
X107217335Y-91817565D01*
X107044732Y-91925149D01*
X106897331Y-92065264D01*
X106897330Y-92065266D01*
X106781143Y-92232195D01*
X106700940Y-92419092D01*
X106660000Y-92618309D01*
X106660000Y-93020000D01*
X107360000Y-93020000D01*
X107360000Y-93520000D01*
X106660000Y-93520000D01*
X106660000Y-93870713D01*
X106003344Y-93870713D01*
X106013118Y-80050000D01*
X117994318Y-80050000D01*
X117999500Y-80089360D01*
X118014955Y-80206760D01*
X118014956Y-80206762D01*
X118075464Y-80352841D01*
X118171718Y-80478282D01*
X118199995Y-80499980D01*
X118206085Y-80505320D01*
X118550761Y-80849996D01*
X118569298Y-80868533D01*
X118602783Y-80929856D01*
X118604837Y-80942330D01*
X118614630Y-81029249D01*
X118674210Y-81199521D01*
X118770184Y-81352262D01*
X118770185Y-81352263D01*
X118805241Y-81387320D01*
X118838726Y-81448643D01*
X118833740Y-81518335D01*
X118805241Y-81562681D01*
X118720183Y-81647739D01*
X118624211Y-81800476D01*
X118564631Y-81970745D01*
X118564630Y-81970750D01*
X118544435Y-82149996D01*
X118544435Y-82150003D01*
X118564630Y-82329249D01*
X118564631Y-82329254D01*
X118624211Y-82499523D01*
X118687045Y-82599522D01*
X118720184Y-82652262D01*
X118847738Y-82779816D01*
X118938080Y-82836581D01*
X119000474Y-82875787D01*
X119000478Y-82875789D01*
X119011984Y-82879815D01*
X119170745Y-82935368D01*
X119170750Y-82935369D01*
X119349996Y-82955565D01*
X119350000Y-82955565D01*
X119350004Y-82955565D01*
X119529249Y-82935369D01*
X119529252Y-82935368D01*
X119529255Y-82935368D01*
X119699522Y-82875789D01*
X119700488Y-82875181D01*
X119709523Y-82869506D01*
X119775494Y-82850500D01*
X122467588Y-82850500D01*
X122534627Y-82870185D01*
X122544903Y-82877555D01*
X122547736Y-82879814D01*
X122547738Y-82879816D01*
X122700478Y-82975789D01*
X122870745Y-83035367D01*
X122870745Y-83035368D01*
X122870750Y-83035369D01*
X123049996Y-83055565D01*
X123050000Y-83055565D01*
X123050004Y-83055565D01*
X123229249Y-83035369D01*
X123229252Y-83035368D01*
X123229255Y-83035368D01*
X123399522Y-82975789D01*
X123552262Y-82879816D01*
X123679816Y-82752262D01*
X123775789Y-82599522D01*
X123835368Y-82429255D01*
X123835369Y-82429249D01*
X123855565Y-82250003D01*
X123855565Y-82249996D01*
X123835369Y-82070750D01*
X123835368Y-82070745D01*
X123775788Y-81900476D01*
X123712955Y-81800478D01*
X123679816Y-81747738D01*
X123552262Y-81620184D01*
X123541117Y-81613181D01*
X123399523Y-81524211D01*
X123229254Y-81464631D01*
X123229249Y-81464630D01*
X123050004Y-81444435D01*
X123049996Y-81444435D01*
X122870750Y-81464630D01*
X122870745Y-81464631D01*
X122700476Y-81524211D01*
X122547736Y-81620185D01*
X122544903Y-81622445D01*
X122542724Y-81623334D01*
X122541842Y-81623889D01*
X122541744Y-81623734D01*
X122480217Y-81648855D01*
X122467588Y-81649500D01*
X120032941Y-81649500D01*
X119965902Y-81629815D01*
X119945260Y-81613181D01*
X119944759Y-81612680D01*
X119911274Y-81551357D01*
X119916258Y-81481665D01*
X119944755Y-81437322D01*
X120029816Y-81352262D01*
X120125789Y-81199522D01*
X120185368Y-81029255D01*
X120195162Y-80942330D01*
X120205565Y-80850003D01*
X120205565Y-80849996D01*
X120185369Y-80670750D01*
X120185368Y-80670745D01*
X120125788Y-80500476D01*
X120029815Y-80347737D01*
X119902262Y-80220184D01*
X119749521Y-80124210D01*
X119579249Y-80064630D01*
X119492330Y-80054837D01*
X119427916Y-80027770D01*
X119418533Y-80019298D01*
X119374603Y-79975368D01*
X119341118Y-79914045D01*
X119346102Y-79844353D01*
X119387974Y-79788420D01*
X119421328Y-79770645D01*
X119549522Y-79725789D01*
X119702262Y-79629816D01*
X119829816Y-79502262D01*
X119925789Y-79349522D01*
X119983998Y-79183169D01*
X120024719Y-79126395D01*
X120060084Y-79107084D01*
X120149522Y-79075789D01*
X120302262Y-78979816D01*
X120429816Y-78852262D01*
X120525789Y-78699522D01*
X120585368Y-78529255D01*
X120605565Y-78350000D01*
X120585368Y-78170745D01*
X120585367Y-78170743D01*
X120585366Y-78170737D01*
X120567332Y-78119199D01*
X120563770Y-78049420D01*
X120598498Y-77988793D01*
X120643419Y-77961202D01*
X120749522Y-77924075D01*
X120902262Y-77828102D01*
X121029816Y-77700548D01*
X121125789Y-77547808D01*
X121185368Y-77377541D01*
X121205565Y-77198286D01*
X121185368Y-77019031D01*
X121125789Y-76848764D01*
X121029816Y-76696024D01*
X120902262Y-76568470D01*
X120902261Y-76568469D01*
X120858528Y-76540990D01*
X120812237Y-76488656D01*
X120800500Y-76435996D01*
X120800500Y-66708675D01*
X120820185Y-66641636D01*
X120836819Y-66620994D01*
X120888319Y-66569494D01*
X120949642Y-66536009D01*
X121019334Y-66540993D01*
X121075267Y-66582865D01*
X121099684Y-66648329D01*
X121100000Y-66657175D01*
X121100000Y-71650000D01*
X139100000Y-71650000D01*
X139100000Y-65700000D01*
X122057175Y-65700000D01*
X121990136Y-65680315D01*
X121944381Y-65627511D01*
X121934437Y-65558353D01*
X121963462Y-65494797D01*
X121969494Y-65488319D01*
X126355614Y-61102199D01*
X126416937Y-61068714D01*
X126443295Y-61065880D01*
X128032968Y-61065880D01*
X128100007Y-61085565D01*
X128110283Y-61092935D01*
X128113116Y-61095194D01*
X128113118Y-61095196D01*
X128265858Y-61191169D01*
X128436125Y-61250747D01*
X128436125Y-61250748D01*
X128436130Y-61250749D01*
X128615376Y-61270945D01*
X128615380Y-61270945D01*
X128615384Y-61270945D01*
X128794629Y-61250749D01*
X128794632Y-61250748D01*
X128794635Y-61250748D01*
X128964902Y-61191169D01*
X129117642Y-61095196D01*
X129245196Y-60967642D01*
X129341169Y-60814902D01*
X129400748Y-60644635D01*
X129420945Y-60465380D01*
X129414208Y-60405591D01*
X129400749Y-60286130D01*
X129400748Y-60286125D01*
X129379748Y-60226111D01*
X129341169Y-60115858D01*
X129332642Y-60102288D01*
X129275660Y-60011601D01*
X129256660Y-59944364D01*
X129263611Y-59904679D01*
X129281496Y-59853570D01*
X129281497Y-59853564D01*
X129301693Y-59674318D01*
X129301693Y-59674311D01*
X129283561Y-59513383D01*
X129295616Y-59444562D01*
X129342965Y-59393182D01*
X129406781Y-59375500D01*
X130084720Y-59375500D01*
X130150693Y-59394507D01*
X130200475Y-59425788D01*
X130370745Y-59485368D01*
X130370750Y-59485369D01*
X130549996Y-59505565D01*
X130550000Y-59505565D01*
X130550004Y-59505565D01*
X130729249Y-59485369D01*
X130729252Y-59485368D01*
X130729255Y-59485368D01*
X130899522Y-59425789D01*
X131052262Y-59329816D01*
X131179816Y-59202262D01*
X131275789Y-59049522D01*
X131335368Y-58879255D01*
X131335369Y-58879249D01*
X131355565Y-58700003D01*
X131355565Y-58699996D01*
X131335369Y-58520750D01*
X131335368Y-58520745D01*
X131335367Y-58520745D01*
X131275789Y-58350478D01*
X131179816Y-58197738D01*
X131052262Y-58070184D01*
X130987124Y-58029255D01*
X130899523Y-57974211D01*
X130729254Y-57914631D01*
X130729249Y-57914630D01*
X130550004Y-57894435D01*
X130549996Y-57894435D01*
X130370750Y-57914630D01*
X130370745Y-57914631D01*
X130200476Y-57974211D01*
X130047737Y-58070184D01*
X130029741Y-58088181D01*
X129968418Y-58121666D01*
X129942060Y-58124500D01*
X129024096Y-58124500D01*
X128957057Y-58104815D01*
X128911302Y-58052011D01*
X128901358Y-57982853D01*
X128930383Y-57919297D01*
X128936415Y-57912819D01*
X129426279Y-57422956D01*
X129962415Y-56886819D01*
X130023739Y-56853334D01*
X130050097Y-56850500D01*
X135302886Y-56850500D01*
X135369925Y-56870185D01*
X135415680Y-56922989D01*
X135425624Y-56992147D01*
X135396599Y-57055703D01*
X135343840Y-57091542D01*
X135250478Y-57124210D01*
X135097737Y-57220184D01*
X134970184Y-57347737D01*
X134874211Y-57500476D01*
X134814631Y-57670745D01*
X134814630Y-57670750D01*
X134794435Y-57849996D01*
X134794435Y-57850003D01*
X134814630Y-58029249D01*
X134814631Y-58029254D01*
X134874212Y-58199525D01*
X134886600Y-58219241D01*
X134905600Y-58286478D01*
X134886600Y-58351183D01*
X134824212Y-58450474D01*
X134764631Y-58620745D01*
X134764630Y-58620750D01*
X134744435Y-58799996D01*
X134744435Y-58800003D01*
X134764630Y-58979249D01*
X134764631Y-58979254D01*
X134826511Y-59156095D01*
X134824366Y-59156845D01*
X134833959Y-59215162D01*
X134825612Y-59243592D01*
X134826510Y-59243906D01*
X134764633Y-59420737D01*
X134764630Y-59420750D01*
X134744435Y-59599996D01*
X134744435Y-59600003D01*
X134764630Y-59779249D01*
X134764631Y-59779254D01*
X134824211Y-59949523D01*
X134903187Y-60075211D01*
X134920184Y-60102262D01*
X135047738Y-60229816D01*
X135200478Y-60325789D01*
X135370745Y-60385368D01*
X135370750Y-60385369D01*
X135549996Y-60405565D01*
X135550000Y-60405565D01*
X135550004Y-60405565D01*
X135729249Y-60385369D01*
X135729252Y-60385368D01*
X135729255Y-60385368D01*
X135899522Y-60325789D01*
X136052262Y-60229816D01*
X136052267Y-60229810D01*
X136055097Y-60227555D01*
X136057275Y-60226665D01*
X136058158Y-60226111D01*
X136058255Y-60226265D01*
X136119783Y-60201145D01*
X136132412Y-60200500D01*
X145817629Y-60200500D01*
X145884668Y-60220185D01*
X145894942Y-60227553D01*
X145897811Y-60229841D01*
X145897812Y-60229842D01*
X145987386Y-60286125D01*
X146050510Y-60325789D01*
X146050552Y-60325815D01*
X146220745Y-60385368D01*
X146220819Y-60385394D01*
X146220824Y-60385395D01*
X146400070Y-60405591D01*
X146400074Y-60405591D01*
X146400078Y-60405591D01*
X146579323Y-60385395D01*
X146579326Y-60385394D01*
X146579329Y-60385394D01*
X146749596Y-60325815D01*
X146902336Y-60229842D01*
X147029890Y-60102288D01*
X147125863Y-59949548D01*
X147185442Y-59779281D01*
X147185446Y-59779249D01*
X147205639Y-59600029D01*
X147205639Y-59600022D01*
X147185443Y-59420776D01*
X147185442Y-59420771D01*
X147125862Y-59250502D01*
X147029889Y-59097763D01*
X146902336Y-58970210D01*
X146749596Y-58874236D01*
X146749592Y-58874235D01*
X146681902Y-58850549D01*
X146625126Y-58809828D01*
X146599637Y-58747390D01*
X146585369Y-58620750D01*
X146585368Y-58620745D01*
X146525788Y-58450476D01*
X146497953Y-58406177D01*
X146429816Y-58297738D01*
X146345345Y-58213267D01*
X146311861Y-58151943D01*
X146315985Y-58084633D01*
X146335364Y-58029255D01*
X146335365Y-58029249D01*
X146355561Y-57850003D01*
X146355561Y-57849996D01*
X146335365Y-57670750D01*
X146335364Y-57670745D01*
X146275784Y-57500476D01*
X146209277Y-57394632D01*
X146179812Y-57347738D01*
X146052258Y-57220184D01*
X146043419Y-57214630D01*
X145899519Y-57124211D01*
X145729250Y-57064631D01*
X145729245Y-57064630D01*
X145550000Y-57044435D01*
X145549992Y-57044435D01*
X145370746Y-57064630D01*
X145370741Y-57064631D01*
X145200472Y-57124211D01*
X145047732Y-57220185D01*
X145044899Y-57222445D01*
X145042720Y-57223334D01*
X145041838Y-57223889D01*
X145041740Y-57223734D01*
X144980213Y-57248855D01*
X144967584Y-57249500D01*
X144847114Y-57249500D01*
X144780075Y-57229815D01*
X144734320Y-57177011D01*
X144724376Y-57107853D01*
X144753401Y-57044297D01*
X144806160Y-57008458D01*
X144842531Y-56995730D01*
X144899522Y-56975789D01*
X145052262Y-56879816D01*
X145179816Y-56752262D01*
X145275789Y-56599522D01*
X145335368Y-56429255D01*
X145335920Y-56424359D01*
X145355565Y-56250003D01*
X145355565Y-56249996D01*
X145335369Y-56070750D01*
X145335368Y-56070745D01*
X145275788Y-55900476D01*
X145236582Y-55838080D01*
X145179816Y-55747738D01*
X145052262Y-55620184D01*
X145007269Y-55591913D01*
X144960979Y-55539579D01*
X144950022Y-55500803D01*
X144935369Y-55370750D01*
X144935368Y-55370745D01*
X144875788Y-55200476D01*
X144779815Y-55047737D01*
X144652262Y-54920184D01*
X144499523Y-54824211D01*
X144329254Y-54764631D01*
X144329249Y-54764630D01*
X144150004Y-54744435D01*
X144149996Y-54744435D01*
X143970750Y-54764630D01*
X143970745Y-54764631D01*
X143800476Y-54824211D01*
X143647736Y-54920185D01*
X143644903Y-54922445D01*
X143642724Y-54923334D01*
X143641842Y-54923889D01*
X143641744Y-54923734D01*
X143580217Y-54948855D01*
X143567588Y-54949500D01*
X128534452Y-54949500D01*
X128467413Y-54929815D01*
X128421658Y-54877011D01*
X128411714Y-54807853D01*
X128440739Y-54744297D01*
X128446771Y-54737819D01*
X129122771Y-54061819D01*
X129184094Y-54028334D01*
X129210452Y-54025500D01*
X129955145Y-54025500D01*
X130021117Y-54044506D01*
X130130770Y-54113406D01*
X130150478Y-54125789D01*
X130249199Y-54160333D01*
X130320745Y-54185368D01*
X130320750Y-54185369D01*
X130499996Y-54205565D01*
X130500000Y-54205565D01*
X130500004Y-54205565D01*
X130679249Y-54185369D01*
X130679252Y-54185368D01*
X130679255Y-54185368D01*
X130849522Y-54125789D01*
X131002262Y-54029816D01*
X131129816Y-53902262D01*
X131225789Y-53749522D01*
X131285368Y-53579255D01*
X131302269Y-53429254D01*
X131305565Y-53400003D01*
X131305565Y-53399996D01*
X131285369Y-53220750D01*
X131285368Y-53220745D01*
X131232882Y-53070750D01*
X131225789Y-53050478D01*
X131216295Y-53035369D01*
X131178858Y-52975788D01*
X131129816Y-52897738D01*
X131002262Y-52770184D01*
X130978883Y-52755494D01*
X130849523Y-52674211D01*
X130679254Y-52614631D01*
X130679249Y-52614630D01*
X130500004Y-52594435D01*
X130499996Y-52594435D01*
X130320750Y-52614630D01*
X130320745Y-52614631D01*
X130150476Y-52674211D01*
X130021117Y-52755494D01*
X129955145Y-52774500D01*
X129574097Y-52774500D01*
X129507058Y-52754815D01*
X129461303Y-52702011D01*
X129451359Y-52632853D01*
X129480384Y-52569297D01*
X129486416Y-52562819D01*
X129962416Y-52086819D01*
X130023739Y-52053334D01*
X130050097Y-52050500D01*
X135178157Y-52050500D01*
X135245196Y-52070185D01*
X135290951Y-52122989D01*
X135301377Y-52188383D01*
X135294435Y-52249996D01*
X135294435Y-52250003D01*
X135314630Y-52429249D01*
X135314631Y-52429254D01*
X135374211Y-52599523D01*
X135438609Y-52702011D01*
X135470184Y-52752262D01*
X135597738Y-52879816D01*
X135750478Y-52975789D01*
X135920745Y-53035368D01*
X135920750Y-53035369D01*
X136099996Y-53055565D01*
X136100000Y-53055565D01*
X136100004Y-53055565D01*
X136279249Y-53035369D01*
X136279252Y-53035368D01*
X136279255Y-53035368D01*
X136449522Y-52975789D01*
X136602262Y-52879816D01*
X136602267Y-52879810D01*
X136605097Y-52877555D01*
X136607275Y-52876665D01*
X136608158Y-52876111D01*
X136608255Y-52876265D01*
X136669783Y-52851145D01*
X136682412Y-52850500D01*
X144867583Y-52850500D01*
X144934622Y-52870185D01*
X144944898Y-52877555D01*
X144947736Y-52879818D01*
X144947738Y-52879820D01*
X145061269Y-52951156D01*
X145100471Y-52975789D01*
X145100478Y-52975793D01*
X145270734Y-53035368D01*
X145270745Y-53035372D01*
X145270750Y-53035373D01*
X145449996Y-53055569D01*
X145450000Y-53055569D01*
X145450004Y-53055569D01*
X145629249Y-53035373D01*
X145629252Y-53035372D01*
X145629255Y-53035372D01*
X145799522Y-52975793D01*
X145952262Y-52879820D01*
X146079816Y-52752266D01*
X146175789Y-52599526D01*
X146235368Y-52429259D01*
X146235368Y-52429256D01*
X146235369Y-52429253D01*
X146255565Y-52250007D01*
X146255565Y-52250000D01*
X146235369Y-52070754D01*
X146235368Y-52070749D01*
X146175788Y-51900480D01*
X146079815Y-51747741D01*
X145952262Y-51620188D01*
X145799523Y-51524215D01*
X145629254Y-51464635D01*
X145629249Y-51464634D01*
X145450004Y-51444439D01*
X145449996Y-51444439D01*
X145270750Y-51464634D01*
X145270745Y-51464635D01*
X145100476Y-51524215D01*
X144941842Y-51623893D01*
X144940837Y-51622295D01*
X144884861Y-51645133D01*
X144816169Y-51632362D01*
X144765285Y-51584481D01*
X144748366Y-51516690D01*
X144749042Y-51507890D01*
X144755565Y-51450001D01*
X144755565Y-51449996D01*
X144735369Y-51270750D01*
X144735368Y-51270745D01*
X144684306Y-51124819D01*
X144675789Y-51100478D01*
X144579816Y-50947738D01*
X144452262Y-50820184D01*
X144452261Y-50820183D01*
X144299521Y-50724210D01*
X144253282Y-50708031D01*
X144196506Y-50667310D01*
X144173290Y-50610439D01*
X144172450Y-50610631D01*
X144171284Y-50605522D01*
X144171015Y-50604863D01*
X144170900Y-50603842D01*
X144111321Y-50433575D01*
X144015348Y-50280835D01*
X143887794Y-50153281D01*
X143875380Y-50145481D01*
X143735055Y-50057308D01*
X143564786Y-49997728D01*
X143564781Y-49997727D01*
X143385536Y-49977532D01*
X143385528Y-49977532D01*
X143206282Y-49997727D01*
X143206277Y-49997728D01*
X143036008Y-50057308D01*
X142883269Y-50153281D01*
X142873370Y-50163181D01*
X142812047Y-50196666D01*
X142785689Y-50199500D01*
X128519699Y-50199500D01*
X128452660Y-50179815D01*
X128432018Y-50163181D01*
X128414318Y-50145481D01*
X128346258Y-50102716D01*
X128299967Y-50050381D01*
X128289319Y-49981327D01*
X128317694Y-49917479D01*
X128324549Y-49910041D01*
X129022772Y-49211819D01*
X129084095Y-49178334D01*
X129110453Y-49175500D01*
X129955145Y-49175500D01*
X130021116Y-49194505D01*
X130150478Y-49275789D01*
X130320745Y-49335368D01*
X130320750Y-49335369D01*
X130499996Y-49355565D01*
X130500000Y-49355565D01*
X130500004Y-49355565D01*
X130679249Y-49335369D01*
X130679252Y-49335368D01*
X130679255Y-49335368D01*
X130849522Y-49275789D01*
X131002262Y-49179816D01*
X131129816Y-49052262D01*
X131225789Y-48899522D01*
X131285368Y-48729255D01*
X131299985Y-48599523D01*
X131305565Y-48550003D01*
X131305565Y-48549996D01*
X131285369Y-48370750D01*
X131285368Y-48370745D01*
X131253352Y-48279249D01*
X131243118Y-48250003D01*
X134444435Y-48250003D01*
X134464630Y-48429249D01*
X134464631Y-48429254D01*
X134524211Y-48599523D01*
X134605724Y-48729249D01*
X134620184Y-48752262D01*
X134747738Y-48879816D01*
X134900478Y-48975789D01*
X135070745Y-49035368D01*
X135070750Y-49035369D01*
X135249996Y-49055565D01*
X135250000Y-49055565D01*
X135250004Y-49055565D01*
X135429249Y-49035369D01*
X135429252Y-49035368D01*
X135429255Y-49035368D01*
X135599522Y-48975789D01*
X135752262Y-48879816D01*
X135752267Y-48879810D01*
X135755097Y-48877555D01*
X135757275Y-48876665D01*
X135758158Y-48876111D01*
X135758255Y-48876265D01*
X135819783Y-48851145D01*
X135832412Y-48850500D01*
X136167588Y-48850500D01*
X136234627Y-48870185D01*
X136244903Y-48877555D01*
X136247736Y-48879814D01*
X136247738Y-48879816D01*
X136400478Y-48975789D01*
X136570745Y-49035368D01*
X136570750Y-49035369D01*
X136749996Y-49055565D01*
X136750000Y-49055565D01*
X136750004Y-49055565D01*
X136929249Y-49035369D01*
X136929252Y-49035368D01*
X136929255Y-49035368D01*
X137099522Y-48975789D01*
X137252262Y-48879816D01*
X137379816Y-48752262D01*
X137475789Y-48599522D01*
X137535368Y-48429255D01*
X137541960Y-48370750D01*
X137555565Y-48250003D01*
X137555565Y-48249996D01*
X137535369Y-48070750D01*
X137535368Y-48070745D01*
X137535367Y-48070744D01*
X137475789Y-47900478D01*
X137379816Y-47747738D01*
X137252262Y-47620184D01*
X137231418Y-47607087D01*
X137099523Y-47524211D01*
X136929254Y-47464631D01*
X136929249Y-47464630D01*
X136750004Y-47444435D01*
X136749996Y-47444435D01*
X136570750Y-47464630D01*
X136570745Y-47464631D01*
X136400476Y-47524211D01*
X136247736Y-47620185D01*
X136244903Y-47622445D01*
X136242724Y-47623334D01*
X136241842Y-47623889D01*
X136241744Y-47623734D01*
X136180217Y-47648855D01*
X136167588Y-47649500D01*
X135832412Y-47649500D01*
X135765373Y-47629815D01*
X135755097Y-47622445D01*
X135752263Y-47620185D01*
X135752263Y-47620184D01*
X135752262Y-47620184D01*
X135695496Y-47584515D01*
X135599523Y-47524211D01*
X135429254Y-47464631D01*
X135429249Y-47464630D01*
X135250004Y-47444435D01*
X135249996Y-47444435D01*
X135070750Y-47464630D01*
X135070745Y-47464631D01*
X134900476Y-47524211D01*
X134747737Y-47620184D01*
X134620184Y-47747737D01*
X134524211Y-47900476D01*
X134464631Y-48070745D01*
X134464630Y-48070750D01*
X134444435Y-48249996D01*
X134444435Y-48250003D01*
X131243118Y-48250003D01*
X131225789Y-48200478D01*
X131129816Y-48047738D01*
X131002262Y-47920184D01*
X130978883Y-47905494D01*
X130849523Y-47824211D01*
X130679254Y-47764631D01*
X130679249Y-47764630D01*
X130500004Y-47744435D01*
X130499996Y-47744435D01*
X130320750Y-47764630D01*
X130320745Y-47764631D01*
X130150476Y-47824211D01*
X130021117Y-47905494D01*
X129955145Y-47924500D01*
X129324097Y-47924500D01*
X129257058Y-47904815D01*
X129211303Y-47852011D01*
X129201359Y-47782853D01*
X129230384Y-47719297D01*
X129236416Y-47712819D01*
X129912416Y-47036819D01*
X129973739Y-47003334D01*
X130000097Y-47000500D01*
X142517588Y-47000500D01*
X142584627Y-47020185D01*
X142594903Y-47027555D01*
X142597736Y-47029814D01*
X142597738Y-47029816D01*
X142750478Y-47125789D01*
X142920745Y-47185368D01*
X142920750Y-47185369D01*
X143099996Y-47205565D01*
X143100000Y-47205565D01*
X143100004Y-47205565D01*
X143279249Y-47185369D01*
X143279252Y-47185368D01*
X143279255Y-47185368D01*
X143449522Y-47125789D01*
X143602262Y-47029816D01*
X143729816Y-46902262D01*
X143825789Y-46749522D01*
X143885368Y-46579255D01*
X143889314Y-46544237D01*
X143905565Y-46400003D01*
X143905565Y-46399996D01*
X143885369Y-46220750D01*
X143885368Y-46220745D01*
X143825788Y-46050476D01*
X143729815Y-45897737D01*
X143602262Y-45770184D01*
X143449522Y-45674211D01*
X143449519Y-45674210D01*
X143443626Y-45670507D01*
X143445283Y-45667869D01*
X143403642Y-45629972D01*
X143386340Y-45579375D01*
X143385368Y-45570745D01*
X143325789Y-45400478D01*
X143229816Y-45247738D01*
X143102262Y-45120184D01*
X143033553Y-45077011D01*
X142949523Y-45024211D01*
X142779254Y-44964631D01*
X142779249Y-44964630D01*
X142600004Y-44944435D01*
X142599996Y-44944435D01*
X142420750Y-44964630D01*
X142420745Y-44964631D01*
X142250476Y-45024211D01*
X142097736Y-45120185D01*
X142094903Y-45122445D01*
X142092724Y-45123334D01*
X142091842Y-45123889D01*
X142091744Y-45123734D01*
X142030217Y-45148855D01*
X142017588Y-45149500D01*
X128934452Y-45149500D01*
X128867413Y-45129815D01*
X128821658Y-45077011D01*
X128811714Y-45007853D01*
X128840739Y-44944297D01*
X128846771Y-44937819D01*
X129133548Y-44651043D01*
X129572771Y-44211819D01*
X129634095Y-44178334D01*
X129660453Y-44175500D01*
X129755145Y-44175500D01*
X129821116Y-44194505D01*
X129950478Y-44275789D01*
X130120744Y-44335368D01*
X130120745Y-44335368D01*
X130120750Y-44335369D01*
X130299996Y-44355565D01*
X130300000Y-44355565D01*
X130300004Y-44355565D01*
X130479249Y-44335369D01*
X130479252Y-44335368D01*
X130479255Y-44335368D01*
X130649522Y-44275789D01*
X130802262Y-44179816D01*
X130929816Y-44052262D01*
X131025789Y-43899522D01*
X131085368Y-43729255D01*
X131102269Y-43579254D01*
X131105565Y-43550003D01*
X131105565Y-43549996D01*
X131085369Y-43370750D01*
X131085368Y-43370745D01*
X131032882Y-43220750D01*
X131025789Y-43200478D01*
X130929816Y-43047738D01*
X130802262Y-42920184D01*
X130778883Y-42905494D01*
X130649523Y-42824211D01*
X130479254Y-42764631D01*
X130479249Y-42764630D01*
X130300004Y-42744435D01*
X130299996Y-42744435D01*
X130120750Y-42764630D01*
X130120745Y-42764631D01*
X129950476Y-42824211D01*
X129821117Y-42905494D01*
X129755145Y-42924500D01*
X129574096Y-42924500D01*
X129507057Y-42904815D01*
X129461302Y-42852011D01*
X129451358Y-42782853D01*
X129480383Y-42719297D01*
X129486415Y-42712819D01*
X129916014Y-42283221D01*
X130462415Y-41736819D01*
X130523739Y-41703334D01*
X130550097Y-41700500D01*
X141717588Y-41700500D01*
X141784627Y-41720185D01*
X141794903Y-41727555D01*
X141797736Y-41729814D01*
X141797738Y-41729816D01*
X141950478Y-41825789D01*
X142082216Y-41871886D01*
X142120745Y-41885368D01*
X142120750Y-41885369D01*
X142299996Y-41905565D01*
X142300000Y-41905565D01*
X142300004Y-41905565D01*
X142479249Y-41885369D01*
X142479252Y-41885368D01*
X142479255Y-41885368D01*
X142649522Y-41825789D01*
X142802262Y-41729816D01*
X142929816Y-41602262D01*
X143025789Y-41449522D01*
X143085368Y-41279255D01*
X143093335Y-41208546D01*
X143105565Y-41100003D01*
X143105565Y-41099996D01*
X143085369Y-40920750D01*
X143085368Y-40920745D01*
X143025788Y-40750476D01*
X142929815Y-40597737D01*
X142802262Y-40470184D01*
X142802261Y-40470184D01*
X142649522Y-40374211D01*
X142649519Y-40374210D01*
X142643626Y-40370507D01*
X142645283Y-40367869D01*
X142603642Y-40329972D01*
X142586340Y-40279375D01*
X142585368Y-40270745D01*
X142525789Y-40100478D01*
X142429816Y-39947738D01*
X142302262Y-39820184D01*
X142233553Y-39777011D01*
X142149523Y-39724211D01*
X141979254Y-39664631D01*
X141979249Y-39664630D01*
X141800004Y-39644435D01*
X141799996Y-39644435D01*
X141620750Y-39664630D01*
X141620745Y-39664631D01*
X141450476Y-39724211D01*
X141297736Y-39820185D01*
X141294903Y-39822445D01*
X141292724Y-39823334D01*
X141291842Y-39823889D01*
X141291744Y-39823734D01*
X141230217Y-39848855D01*
X141217588Y-39849500D01*
X129034453Y-39849500D01*
X128967414Y-39829815D01*
X128921659Y-39777011D01*
X128911715Y-39707853D01*
X128940740Y-39644297D01*
X128946772Y-39637819D01*
X129272772Y-39311819D01*
X129334095Y-39278334D01*
X129360453Y-39275500D01*
X129855145Y-39275500D01*
X129921116Y-39294505D01*
X130050478Y-39375789D01*
X130220745Y-39435368D01*
X130220750Y-39435369D01*
X130399996Y-39455565D01*
X130400000Y-39455565D01*
X130400004Y-39455565D01*
X130579249Y-39435369D01*
X130579252Y-39435368D01*
X130579255Y-39435368D01*
X130749522Y-39375789D01*
X130902262Y-39279816D01*
X131029816Y-39152262D01*
X131125789Y-38999522D01*
X131185368Y-38829255D01*
X131202269Y-38679254D01*
X131205565Y-38650003D01*
X131205565Y-38649996D01*
X131185369Y-38470750D01*
X131185368Y-38470745D01*
X131178107Y-38449995D01*
X134344435Y-38449995D01*
X134364630Y-38629241D01*
X134364631Y-38629246D01*
X134424211Y-38799515D01*
X134520184Y-38952253D01*
X134520184Y-38952254D01*
X134647738Y-39079808D01*
X134800478Y-39175781D01*
X134970745Y-39235360D01*
X134970750Y-39235361D01*
X135149996Y-39255557D01*
X135150000Y-39255557D01*
X135150004Y-39255557D01*
X135329249Y-39235361D01*
X135329252Y-39235360D01*
X135329255Y-39235360D01*
X135499522Y-39175781D01*
X135652262Y-39079808D01*
X135652267Y-39079802D01*
X135655097Y-39077547D01*
X135657275Y-39076657D01*
X135658158Y-39076103D01*
X135658255Y-39076257D01*
X135719783Y-39051137D01*
X135732412Y-39050492D01*
X136117578Y-39050492D01*
X136184617Y-39070177D01*
X136194893Y-39077547D01*
X136197736Y-39079814D01*
X136197738Y-39079816D01*
X136285149Y-39134740D01*
X136350463Y-39175780D01*
X136350478Y-39175789D01*
X136520722Y-39235360D01*
X136520745Y-39235368D01*
X136520750Y-39235369D01*
X136699996Y-39255565D01*
X136700000Y-39255565D01*
X136700004Y-39255565D01*
X136879249Y-39235369D01*
X136879252Y-39235368D01*
X136879255Y-39235368D01*
X137049522Y-39175789D01*
X137202262Y-39079816D01*
X137329816Y-38952262D01*
X137425789Y-38799522D01*
X137485368Y-38629255D01*
X137499931Y-38500003D01*
X137505565Y-38450003D01*
X137505565Y-38449996D01*
X137485369Y-38270750D01*
X137485368Y-38270745D01*
X137442326Y-38147738D01*
X137425789Y-38100478D01*
X137329816Y-37947738D01*
X137202262Y-37820184D01*
X137144784Y-37784068D01*
X137049523Y-37724211D01*
X136879254Y-37664631D01*
X136879249Y-37664630D01*
X136700004Y-37644435D01*
X136699996Y-37644435D01*
X136520750Y-37664630D01*
X136520745Y-37664631D01*
X136350476Y-37724211D01*
X136197736Y-37820185D01*
X136194913Y-37822437D01*
X136192742Y-37823323D01*
X136191842Y-37823889D01*
X136191742Y-37823731D01*
X136130227Y-37848847D01*
X136117598Y-37849492D01*
X135732412Y-37849492D01*
X135665373Y-37829807D01*
X135655097Y-37822437D01*
X135652263Y-37820177D01*
X135652263Y-37820176D01*
X135652262Y-37820176D01*
X135579108Y-37774210D01*
X135499523Y-37724203D01*
X135329254Y-37664623D01*
X135329249Y-37664622D01*
X135150004Y-37644427D01*
X135149996Y-37644427D01*
X134970750Y-37664622D01*
X134970745Y-37664623D01*
X134800476Y-37724203D01*
X134647737Y-37820176D01*
X134520184Y-37947729D01*
X134424211Y-38100468D01*
X134364631Y-38270737D01*
X134364630Y-38270742D01*
X134344435Y-38449988D01*
X134344435Y-38449995D01*
X131178107Y-38449995D01*
X131132882Y-38320750D01*
X131125789Y-38300478D01*
X131107106Y-38270745D01*
X131086581Y-38238080D01*
X131029816Y-38147738D01*
X130902262Y-38020184D01*
X130878883Y-38005494D01*
X130749523Y-37924211D01*
X130579254Y-37864631D01*
X130579249Y-37864630D01*
X130400004Y-37844435D01*
X130399996Y-37844435D01*
X130220750Y-37864630D01*
X130220745Y-37864631D01*
X130050476Y-37924211D01*
X129921117Y-38005494D01*
X129855145Y-38024500D01*
X129624097Y-38024500D01*
X129557058Y-38004815D01*
X129511303Y-37952011D01*
X129501359Y-37882853D01*
X129530384Y-37819297D01*
X129536416Y-37812819D01*
X130212416Y-37136819D01*
X130273739Y-37103334D01*
X130300097Y-37100500D01*
X140817596Y-37100500D01*
X140884635Y-37120185D01*
X140894911Y-37127555D01*
X140897744Y-37129814D01*
X140897746Y-37129816D01*
X141011278Y-37201152D01*
X141013103Y-37202300D01*
X141050486Y-37225789D01*
X141220753Y-37285368D01*
X141220758Y-37285369D01*
X141400004Y-37305565D01*
X141400008Y-37305565D01*
X141400012Y-37305565D01*
X141579257Y-37285369D01*
X141579260Y-37285368D01*
X141579263Y-37285368D01*
X141749530Y-37225789D01*
X141902270Y-37129816D01*
X142029824Y-37002262D01*
X142125797Y-36849522D01*
X142185376Y-36679255D01*
X142186082Y-36672989D01*
X142205573Y-36500003D01*
X142205573Y-36499996D01*
X142185377Y-36320750D01*
X142185376Y-36320745D01*
X142181037Y-36308346D01*
X142125797Y-36150478D01*
X142029824Y-35997738D01*
X141902270Y-35870184D01*
X141902269Y-35870183D01*
X141896906Y-35865906D01*
X141856767Y-35808716D01*
X141851001Y-35755077D01*
X141852582Y-35741051D01*
X141832385Y-35561796D01*
X141772806Y-35391529D01*
X141676833Y-35238789D01*
X141549279Y-35111235D01*
X141396540Y-35015262D01*
X141226271Y-34955682D01*
X141226266Y-34955681D01*
X141047021Y-34935486D01*
X141047013Y-34935486D01*
X140867767Y-34955681D01*
X140867762Y-34955682D01*
X140697493Y-35015262D01*
X140544754Y-35111235D01*
X140417201Y-35238788D01*
X140352681Y-35341472D01*
X140300346Y-35387763D01*
X140247687Y-35399500D01*
X128484451Y-35399500D01*
X128417412Y-35379815D01*
X128371657Y-35327011D01*
X128361713Y-35257853D01*
X128390738Y-35194297D01*
X128396770Y-35187819D01*
X128569328Y-35015262D01*
X129222771Y-34361819D01*
X129284095Y-34328334D01*
X129310453Y-34325500D01*
X129805145Y-34325500D01*
X129871116Y-34344505D01*
X130000478Y-34425789D01*
X130170745Y-34485368D01*
X130170750Y-34485369D01*
X130349996Y-34505565D01*
X130350000Y-34505565D01*
X130350004Y-34505565D01*
X130529249Y-34485369D01*
X130529252Y-34485368D01*
X130529255Y-34485368D01*
X130699522Y-34425789D01*
X130852262Y-34329816D01*
X130979816Y-34202262D01*
X131075789Y-34049522D01*
X131135368Y-33879255D01*
X131155565Y-33700000D01*
X131135368Y-33520745D01*
X131075789Y-33350478D01*
X130979816Y-33197738D01*
X130852262Y-33070184D01*
X130828883Y-33055494D01*
X130699523Y-32974211D01*
X130529254Y-32914631D01*
X130529249Y-32914630D01*
X130350004Y-32894435D01*
X130349996Y-32894435D01*
X130170750Y-32914630D01*
X130170745Y-32914631D01*
X130000476Y-32974211D01*
X129871117Y-33055494D01*
X129805145Y-33074500D01*
X129374097Y-33074500D01*
X129307058Y-33054815D01*
X129261303Y-33002011D01*
X129251359Y-32932853D01*
X129280384Y-32869297D01*
X129286416Y-32862819D01*
X129762420Y-32386815D01*
X129823743Y-32353330D01*
X129850101Y-32350496D01*
X139767597Y-32350496D01*
X139834636Y-32370181D01*
X139844912Y-32377551D01*
X139847750Y-32379814D01*
X139847752Y-32379816D01*
X139961284Y-32451152D01*
X139990161Y-32469298D01*
X140000492Y-32475789D01*
X140111493Y-32514630D01*
X140170759Y-32535368D01*
X140170764Y-32535369D01*
X140350010Y-32555565D01*
X140350014Y-32555565D01*
X140350018Y-32555565D01*
X140529263Y-32535369D01*
X140529266Y-32535368D01*
X140529269Y-32535368D01*
X140699536Y-32475789D01*
X140852276Y-32379816D01*
X140979830Y-32252262D01*
X141075803Y-32099522D01*
X141135382Y-31929255D01*
X141136212Y-31921889D01*
X141155579Y-31750003D01*
X141155579Y-31749996D01*
X141135383Y-31570750D01*
X141135382Y-31570745D01*
X141075802Y-31400476D01*
X140998869Y-31278039D01*
X140979830Y-31247738D01*
X140852276Y-31120184D01*
X140699537Y-31024211D01*
X140529268Y-30964631D01*
X140529263Y-30964630D01*
X140350018Y-30944435D01*
X140350010Y-30944435D01*
X140170764Y-30964630D01*
X140170759Y-30964631D01*
X140000490Y-31024211D01*
X139847750Y-31120185D01*
X139844922Y-31122441D01*
X139842747Y-31123328D01*
X139841856Y-31123889D01*
X139841757Y-31123732D01*
X139780236Y-31148851D01*
X139767607Y-31149496D01*
X139616321Y-31149496D01*
X139549282Y-31129811D01*
X139503527Y-31077007D01*
X139493101Y-31039378D01*
X139485369Y-30970750D01*
X139485368Y-30970745D01*
X139476162Y-30944435D01*
X139425789Y-30800478D01*
X139329816Y-30647738D01*
X139202262Y-30520184D01*
X139139096Y-30480494D01*
X139049523Y-30424211D01*
X138879254Y-30364631D01*
X138879249Y-30364630D01*
X138700004Y-30344435D01*
X138699996Y-30344435D01*
X138520750Y-30364630D01*
X138520737Y-30364633D01*
X138350481Y-30424209D01*
X138350477Y-30424210D01*
X138260904Y-30480494D01*
X138194932Y-30499500D01*
X128205704Y-30499500D01*
X128139732Y-30480493D01*
X128050699Y-30424549D01*
X127880427Y-30364968D01*
X127880422Y-30364967D01*
X127701177Y-30344772D01*
X127701169Y-30344772D01*
X127521923Y-30364967D01*
X127521918Y-30364968D01*
X127351649Y-30424548D01*
X127198910Y-30520521D01*
X127071357Y-30648074D01*
X126975384Y-30800813D01*
X126915804Y-30971082D01*
X126915803Y-30971087D01*
X126895608Y-31150333D01*
X126895608Y-31150340D01*
X126915803Y-31329586D01*
X126915804Y-31329591D01*
X126975384Y-31499860D01*
X127071357Y-31652598D01*
X127071357Y-31652599D01*
X127198911Y-31780153D01*
X127351651Y-31876126D01*
X127482426Y-31921886D01*
X127521918Y-31935705D01*
X127521923Y-31935706D01*
X127701169Y-31955902D01*
X127701173Y-31955902D01*
X127701177Y-31955902D01*
X127880422Y-31935706D01*
X127880425Y-31935705D01*
X127880428Y-31935705D01*
X128050695Y-31876126D01*
X128203435Y-31780153D01*
X128246768Y-31736819D01*
X128308092Y-31703334D01*
X128334450Y-31700500D01*
X128450903Y-31700500D01*
X128517942Y-31720185D01*
X128563697Y-31772989D01*
X128573641Y-31842147D01*
X128544616Y-31905703D01*
X128538584Y-31912181D01*
X127981465Y-32469298D01*
X127920142Y-32502783D01*
X127907668Y-32504837D01*
X127820750Y-32514630D01*
X127650478Y-32574210D01*
X127497737Y-32670184D01*
X127370184Y-32797737D01*
X127274211Y-32950476D01*
X127214631Y-33120745D01*
X127214630Y-33120750D01*
X127194435Y-33299996D01*
X127194435Y-33300003D01*
X127214630Y-33479249D01*
X127214631Y-33479254D01*
X127274211Y-33649523D01*
X127305926Y-33699996D01*
X127370184Y-33802262D01*
X127497738Y-33929816D01*
X127604271Y-33996755D01*
X127650561Y-34049089D01*
X127661209Y-34118142D01*
X127632834Y-34181991D01*
X127625979Y-34189429D01*
X126927228Y-34888181D01*
X126865905Y-34921666D01*
X126839547Y-34924500D01*
X126295286Y-34924500D01*
X126228247Y-34904815D01*
X126201573Y-34881703D01*
X126162887Y-34837056D01*
X126054237Y-34742911D01*
X126054216Y-34742896D01*
X125933171Y-34665105D01*
X125933151Y-34665094D01*
X125897986Y-34649034D01*
X125845183Y-34603278D01*
X125825500Y-34536241D01*
X125825500Y-32863758D01*
X125845185Y-32796719D01*
X125897989Y-32750964D01*
X125897990Y-32750963D01*
X125933144Y-32734909D01*
X125933143Y-32734909D01*
X125933155Y-32734904D01*
X126054226Y-32657097D01*
X126162887Y-32562943D01*
X126162890Y-32562940D01*
X126257139Y-32454170D01*
X126334871Y-32333216D01*
X126394658Y-32202300D01*
X126435165Y-32064345D01*
X126455647Y-31921889D01*
X126455647Y-31350000D01*
X126450500Y-31278039D01*
X126441603Y-31247738D01*
X126439546Y-31240733D01*
X126435784Y-31188149D01*
X126440536Y-31155097D01*
X126455647Y-31050000D01*
X126455647Y-30478111D01*
X126435165Y-30335655D01*
X126394658Y-30197700D01*
X126334871Y-30066784D01*
X126257139Y-29945830D01*
X126257136Y-29945826D01*
X126257135Y-29945824D01*
X126162891Y-29837061D01*
X126162889Y-29837058D01*
X126054237Y-29742911D01*
X126054216Y-29742896D01*
X125933166Y-29665102D01*
X125933143Y-29665089D01*
X125801965Y-29605183D01*
X125800242Y-29604743D01*
X125664282Y-29564821D01*
X125664272Y-29564818D01*
X125536321Y-29546422D01*
X125521962Y-29544358D01*
X125521961Y-29544358D01*
X125465603Y-29544358D01*
X125465586Y-29544353D01*
X125414236Y-29544353D01*
X124985764Y-29544353D01*
X124934444Y-29544353D01*
X124934397Y-29544358D01*
X124878038Y-29544358D01*
X124744499Y-29563558D01*
X124735722Y-29564819D01*
X124597631Y-29605367D01*
X124597618Y-29605372D01*
X124466856Y-29665089D01*
X124466833Y-29665102D01*
X124345783Y-29742896D01*
X124345762Y-29742912D01*
X124237130Y-29837041D01*
X124237111Y-29837058D01*
X124237106Y-29837064D01*
X124174100Y-29909777D01*
X124115321Y-29947551D01*
X124045452Y-29947551D01*
X124014417Y-29933569D01*
X123999524Y-29924211D01*
X123829254Y-29864631D01*
X123829249Y-29864630D01*
X123650004Y-29844435D01*
X123649996Y-29844435D01*
X123470750Y-29864630D01*
X123470745Y-29864631D01*
X123300476Y-29924211D01*
X123147737Y-30020184D01*
X123020184Y-30147737D01*
X122924211Y-30300476D01*
X122864631Y-30470745D01*
X122864630Y-30470750D01*
X122844435Y-30649996D01*
X122844435Y-30650003D01*
X122864630Y-30829249D01*
X122864631Y-30829254D01*
X122924211Y-30999523D01*
X122939724Y-31024211D01*
X123018976Y-31150340D01*
X123020185Y-31152263D01*
X123022445Y-31155097D01*
X123023334Y-31157275D01*
X123023889Y-31158158D01*
X123023734Y-31158255D01*
X123048855Y-31219783D01*
X123049500Y-31232412D01*
X123049500Y-60799901D01*
X123029815Y-60866940D01*
X123013181Y-60887582D01*
X118206096Y-65694668D01*
X118199993Y-65700020D01*
X118171718Y-65721717D01*
X118147549Y-65753213D01*
X118147550Y-65753214D01*
X118075464Y-65847158D01*
X118075461Y-65847163D01*
X118014957Y-65993234D01*
X118014955Y-65993239D01*
X117994318Y-66149998D01*
X117994318Y-66149999D01*
X117998969Y-66185326D01*
X117999500Y-66193428D01*
X117999500Y-80006571D01*
X117998969Y-80014673D01*
X117994318Y-80049999D01*
X117994318Y-80050000D01*
X106013118Y-80050000D01*
X106049912Y-28023761D01*
X106069644Y-27956738D01*
X106122480Y-27911020D01*
X106173761Y-27899851D01*
X147576028Y-27850148D01*
X147643089Y-27869752D01*
G37*
%TD.AperFunction*%
%TD*%
%TA.AperFunction,Conductor*%
%TO.N,Board_1-GND*%
G36*
X190543089Y-27869752D02*
G01*
X190588907Y-27922501D01*
X190600175Y-27973973D01*
X190699824Y-98425973D01*
X190680234Y-98493040D01*
X190627495Y-98538869D01*
X190575972Y-98550148D01*
X160073596Y-98586634D01*
X160006533Y-98567030D01*
X159960715Y-98514280D01*
X159950689Y-98445134D01*
X159971674Y-98391796D01*
X160078855Y-98237805D01*
X160159059Y-98050907D01*
X160200000Y-97851690D01*
X160200000Y-97700000D01*
X159500000Y-97700000D01*
X159500000Y-97200000D01*
X160200000Y-97200000D01*
X160200000Y-97099286D01*
X160184581Y-96947661D01*
X160123700Y-96753618D01*
X160123695Y-96753608D01*
X160024994Y-96575784D01*
X160024994Y-96575783D01*
X159892521Y-96421469D01*
X159892520Y-96421468D01*
X159731695Y-96296981D01*
X159549093Y-96207411D01*
X159450000Y-96181753D01*
X159450000Y-96983889D01*
X159425543Y-96944390D01*
X159336038Y-96876799D01*
X159228160Y-96846105D01*
X159116479Y-96856454D01*
X159016078Y-96906448D01*
X158950000Y-96978930D01*
X158950000Y-96176633D01*
X158948053Y-96176931D01*
X158948047Y-96176933D01*
X158757342Y-96247562D01*
X158757335Y-96247565D01*
X158584732Y-96355149D01*
X158437331Y-96495264D01*
X158437330Y-96495266D01*
X158321143Y-96662195D01*
X158240940Y-96849092D01*
X158200000Y-97048309D01*
X158200000Y-97200000D01*
X158900000Y-97200000D01*
X158900000Y-97700000D01*
X158200000Y-97700000D01*
X158200000Y-97800713D01*
X158215418Y-97952338D01*
X158276299Y-98146381D01*
X158276304Y-98146391D01*
X158375005Y-98324215D01*
X158426283Y-98383948D01*
X158455014Y-98447636D01*
X158444751Y-98516748D01*
X158398753Y-98569341D01*
X158332344Y-98588717D01*
X151426397Y-98596977D01*
X151359334Y-98577373D01*
X151313516Y-98524623D01*
X151303490Y-98455477D01*
X151324475Y-98402139D01*
X151438855Y-98237805D01*
X151519059Y-98050907D01*
X151560000Y-97851690D01*
X151560000Y-97700000D01*
X150860000Y-97700000D01*
X150860000Y-97200000D01*
X151560000Y-97200000D01*
X151560000Y-97099286D01*
X151544581Y-96947661D01*
X151483700Y-96753618D01*
X151483695Y-96753608D01*
X151384994Y-96575784D01*
X151384994Y-96575783D01*
X151252521Y-96421469D01*
X151252520Y-96421468D01*
X151091695Y-96296981D01*
X150909093Y-96207411D01*
X150810000Y-96181753D01*
X150810000Y-96983889D01*
X150785543Y-96944390D01*
X150696038Y-96876799D01*
X150588160Y-96846105D01*
X150476479Y-96856454D01*
X150376078Y-96906448D01*
X150310000Y-96978930D01*
X150310000Y-96176633D01*
X150308053Y-96176931D01*
X150308047Y-96176933D01*
X150117342Y-96247562D01*
X150117335Y-96247565D01*
X149944732Y-96355149D01*
X149797331Y-96495264D01*
X149797330Y-96495266D01*
X149681143Y-96662195D01*
X149600940Y-96849092D01*
X149560000Y-97048309D01*
X149560000Y-97200000D01*
X150260000Y-97200000D01*
X150260000Y-97700000D01*
X149560000Y-97700000D01*
X149560000Y-97800713D01*
X149575418Y-97952338D01*
X149636299Y-98146381D01*
X149636304Y-98146391D01*
X149735005Y-98324215D01*
X149735005Y-98324216D01*
X149795146Y-98394271D01*
X149823878Y-98457959D01*
X149813616Y-98527071D01*
X149767618Y-98579664D01*
X149701208Y-98599041D01*
X149024235Y-98599851D01*
X148957172Y-98580247D01*
X148911354Y-98527497D01*
X148900087Y-98475766D01*
X148903344Y-93870713D01*
X149560000Y-93870713D01*
X149575418Y-94022338D01*
X149636299Y-94216381D01*
X149636304Y-94216391D01*
X149735005Y-94394215D01*
X149735005Y-94394216D01*
X149867478Y-94548530D01*
X149867479Y-94548531D01*
X150028304Y-94673018D01*
X150210907Y-94762589D01*
X150310000Y-94788244D01*
X150310000Y-93986110D01*
X150334457Y-94025610D01*
X150423962Y-94093201D01*
X150531840Y-94123895D01*
X150643521Y-94113546D01*
X150743922Y-94063552D01*
X150810000Y-93991069D01*
X150810000Y-94793366D01*
X150811944Y-94793069D01*
X150811945Y-94793069D01*
X151002660Y-94722436D01*
X151002664Y-94722434D01*
X151175267Y-94614850D01*
X151322668Y-94474735D01*
X151322669Y-94474733D01*
X151438857Y-94307803D01*
X151512959Y-94135122D01*
X151557485Y-94081278D01*
X151624053Y-94060054D01*
X151691529Y-94078189D01*
X151714591Y-94096340D01*
X151736774Y-94118523D01*
X151736778Y-94118526D01*
X151736780Y-94118528D01*
X151856874Y-94179719D01*
X151856876Y-94179719D01*
X151856878Y-94179720D01*
X151956507Y-94195500D01*
X151956512Y-94195500D01*
X152023493Y-94195500D01*
X152123121Y-94179720D01*
X152123121Y-94179719D01*
X152123126Y-94179719D01*
X152243220Y-94118528D01*
X152338528Y-94023220D01*
X152399719Y-93903126D01*
X152404853Y-93870713D01*
X152420804Y-93770002D01*
X157339196Y-93770002D01*
X157360279Y-93903121D01*
X157360280Y-93903124D01*
X157360281Y-93903126D01*
X157399790Y-93980666D01*
X157421473Y-94023221D01*
X157421476Y-94023225D01*
X157516774Y-94118523D01*
X157516778Y-94118526D01*
X157516780Y-94118528D01*
X157636874Y-94179719D01*
X157636876Y-94179719D01*
X157636878Y-94179720D01*
X157736507Y-94195500D01*
X157736512Y-94195500D01*
X157803493Y-94195500D01*
X157903121Y-94179720D01*
X157903121Y-94179719D01*
X157903126Y-94179719D01*
X158023220Y-94118528D01*
X158047766Y-94093981D01*
X158109087Y-94060497D01*
X158178779Y-94065481D01*
X158234713Y-94107351D01*
X158253760Y-94144542D01*
X158276299Y-94216381D01*
X158276304Y-94216391D01*
X158375005Y-94394215D01*
X158375005Y-94394216D01*
X158507478Y-94548530D01*
X158507479Y-94548531D01*
X158668304Y-94673018D01*
X158850907Y-94762589D01*
X158950000Y-94788244D01*
X158950000Y-93986110D01*
X158974457Y-94025610D01*
X159063962Y-94093201D01*
X159171840Y-94123895D01*
X159283521Y-94113546D01*
X159383922Y-94063552D01*
X159450000Y-93991069D01*
X159450000Y-94793366D01*
X159451944Y-94793069D01*
X159451945Y-94793069D01*
X159642660Y-94722436D01*
X159642664Y-94722434D01*
X159815267Y-94614850D01*
X159962668Y-94474735D01*
X159962669Y-94474733D01*
X160078856Y-94307804D01*
X160159059Y-94120907D01*
X160200000Y-93921690D01*
X160200000Y-93520000D01*
X159500000Y-93520000D01*
X159500000Y-93020000D01*
X160200000Y-93020000D01*
X160200000Y-92669286D01*
X160184581Y-92517661D01*
X160123700Y-92323618D01*
X160123695Y-92323608D01*
X160024994Y-92145784D01*
X160024994Y-92145783D01*
X159892521Y-91991469D01*
X159892520Y-91991468D01*
X159731695Y-91866981D01*
X159549093Y-91777411D01*
X159450000Y-91751753D01*
X159450000Y-92553889D01*
X159425543Y-92514390D01*
X159336038Y-92446799D01*
X159228160Y-92416105D01*
X159116479Y-92426454D01*
X159016078Y-92476448D01*
X158950000Y-92548930D01*
X158950000Y-91746633D01*
X158948053Y-91746931D01*
X158948047Y-91746933D01*
X158757342Y-91817562D01*
X158757335Y-91817565D01*
X158584732Y-91925149D01*
X158437331Y-92065264D01*
X158437330Y-92065266D01*
X158321143Y-92232195D01*
X158240940Y-92419092D01*
X158200000Y-92618309D01*
X158200000Y-93020000D01*
X158900000Y-93020000D01*
X158900000Y-93520000D01*
X158173111Y-93520000D01*
X158106072Y-93500315D01*
X158085430Y-93483681D01*
X158023225Y-93421476D01*
X158023221Y-93421473D01*
X158023220Y-93421472D01*
X157903126Y-93360281D01*
X157903124Y-93360280D01*
X157903121Y-93360279D01*
X157803493Y-93344500D01*
X157803488Y-93344500D01*
X157736512Y-93344500D01*
X157736507Y-93344500D01*
X157636878Y-93360279D01*
X157516778Y-93421473D01*
X157516774Y-93421476D01*
X157421476Y-93516774D01*
X157421473Y-93516778D01*
X157360279Y-93636878D01*
X157339196Y-93769997D01*
X157339196Y-93770002D01*
X152420804Y-93770002D01*
X152420804Y-93769997D01*
X152399720Y-93636878D01*
X152399719Y-93636876D01*
X152399719Y-93636874D01*
X152338528Y-93516780D01*
X152338526Y-93516778D01*
X152338523Y-93516774D01*
X152243225Y-93421476D01*
X152243221Y-93421473D01*
X152243220Y-93421472D01*
X152123126Y-93360281D01*
X152123124Y-93360280D01*
X152123121Y-93360279D01*
X152023493Y-93344500D01*
X152023488Y-93344500D01*
X151956512Y-93344500D01*
X151956507Y-93344500D01*
X151856878Y-93360279D01*
X151736778Y-93421473D01*
X151736774Y-93421476D01*
X151674570Y-93483681D01*
X151613247Y-93517166D01*
X151586889Y-93520000D01*
X150860000Y-93520000D01*
X150860000Y-93020000D01*
X151560000Y-93020000D01*
X151560000Y-92669286D01*
X151544581Y-92517661D01*
X151483700Y-92323618D01*
X151483695Y-92323608D01*
X151384994Y-92145784D01*
X151384994Y-92145783D01*
X151252521Y-91991469D01*
X151252520Y-91991468D01*
X151091695Y-91866981D01*
X150909093Y-91777411D01*
X150810000Y-91751753D01*
X150810000Y-92553889D01*
X150785543Y-92514390D01*
X150696038Y-92446799D01*
X150588160Y-92416105D01*
X150476479Y-92426454D01*
X150376078Y-92476448D01*
X150310000Y-92548930D01*
X150310000Y-91746633D01*
X150308053Y-91746931D01*
X150308047Y-91746933D01*
X150117342Y-91817562D01*
X150117335Y-91817565D01*
X149944732Y-91925149D01*
X149797331Y-92065264D01*
X149797330Y-92065266D01*
X149681143Y-92232195D01*
X149600940Y-92419092D01*
X149560000Y-92618309D01*
X149560000Y-93020000D01*
X150260000Y-93020000D01*
X150260000Y-93520000D01*
X149560000Y-93520000D01*
X149560000Y-93870713D01*
X148903344Y-93870713D01*
X148913118Y-80050000D01*
X160894318Y-80050000D01*
X160899500Y-80089360D01*
X160914955Y-80206760D01*
X160914956Y-80206762D01*
X160975464Y-80352841D01*
X161071718Y-80478282D01*
X161099995Y-80499980D01*
X161106085Y-80505320D01*
X161450761Y-80849996D01*
X161469298Y-80868533D01*
X161502783Y-80929856D01*
X161504837Y-80942330D01*
X161514630Y-81029249D01*
X161574210Y-81199521D01*
X161670184Y-81352262D01*
X161705241Y-81387319D01*
X161738726Y-81448642D01*
X161733742Y-81518334D01*
X161705241Y-81562681D01*
X161620184Y-81647737D01*
X161524211Y-81800476D01*
X161464631Y-81970745D01*
X161464630Y-81970750D01*
X161444435Y-82149996D01*
X161444435Y-82150003D01*
X161464630Y-82329249D01*
X161464631Y-82329254D01*
X161524211Y-82499523D01*
X161587045Y-82599522D01*
X161620184Y-82652262D01*
X161747738Y-82779816D01*
X161838080Y-82836582D01*
X161900474Y-82875787D01*
X161900478Y-82875789D01*
X161911984Y-82879815D01*
X162070745Y-82935368D01*
X162070750Y-82935369D01*
X162249996Y-82955565D01*
X162250000Y-82955565D01*
X162250004Y-82955565D01*
X162429249Y-82935369D01*
X162429252Y-82935368D01*
X162429255Y-82935368D01*
X162599522Y-82875789D01*
X162600488Y-82875181D01*
X162609523Y-82869506D01*
X162675494Y-82850500D01*
X165367588Y-82850500D01*
X165434627Y-82870185D01*
X165444903Y-82877555D01*
X165447736Y-82879814D01*
X165447738Y-82879816D01*
X165600478Y-82975789D01*
X165770745Y-83035367D01*
X165770745Y-83035368D01*
X165770750Y-83035369D01*
X165949996Y-83055565D01*
X165950000Y-83055565D01*
X165950004Y-83055565D01*
X166129249Y-83035369D01*
X166129252Y-83035368D01*
X166129255Y-83035368D01*
X166299522Y-82975789D01*
X166452262Y-82879816D01*
X166579816Y-82752262D01*
X166675789Y-82599522D01*
X166735368Y-82429255D01*
X166735369Y-82429249D01*
X166755565Y-82250003D01*
X166755565Y-82249996D01*
X166735369Y-82070750D01*
X166735368Y-82070745D01*
X166675788Y-81900476D01*
X166612955Y-81800478D01*
X166579816Y-81747738D01*
X166452262Y-81620184D01*
X166441117Y-81613181D01*
X166299523Y-81524211D01*
X166129254Y-81464631D01*
X166129249Y-81464630D01*
X165950004Y-81444435D01*
X165949996Y-81444435D01*
X165770750Y-81464630D01*
X165770745Y-81464631D01*
X165600476Y-81524211D01*
X165447736Y-81620185D01*
X165444903Y-81622445D01*
X165442724Y-81623334D01*
X165441842Y-81623889D01*
X165441744Y-81623734D01*
X165380217Y-81648855D01*
X165367588Y-81649500D01*
X162932941Y-81649500D01*
X162865902Y-81629815D01*
X162845260Y-81613181D01*
X162844759Y-81612680D01*
X162811274Y-81551357D01*
X162816258Y-81481665D01*
X162844755Y-81437322D01*
X162929816Y-81352262D01*
X163025789Y-81199522D01*
X163085368Y-81029255D01*
X163095162Y-80942330D01*
X163105565Y-80850003D01*
X163105565Y-80849996D01*
X163085369Y-80670750D01*
X163085368Y-80670745D01*
X163025788Y-80500476D01*
X162929815Y-80347737D01*
X162802262Y-80220184D01*
X162649521Y-80124210D01*
X162479249Y-80064630D01*
X162392330Y-80054837D01*
X162327916Y-80027770D01*
X162318533Y-80019298D01*
X162274603Y-79975368D01*
X162241118Y-79914045D01*
X162246102Y-79844353D01*
X162287974Y-79788420D01*
X162321328Y-79770645D01*
X162449522Y-79725789D01*
X162602262Y-79629816D01*
X162729816Y-79502262D01*
X162825789Y-79349522D01*
X162883998Y-79183169D01*
X162924719Y-79126395D01*
X162960084Y-79107084D01*
X163049522Y-79075789D01*
X163202262Y-78979816D01*
X163329816Y-78852262D01*
X163425789Y-78699522D01*
X163485368Y-78529255D01*
X163505565Y-78350000D01*
X163485368Y-78170745D01*
X163485367Y-78170743D01*
X163485366Y-78170737D01*
X163467332Y-78119199D01*
X163463770Y-78049420D01*
X163498498Y-77988793D01*
X163543419Y-77961202D01*
X163649522Y-77924075D01*
X163802262Y-77828102D01*
X163929816Y-77700548D01*
X164025789Y-77547808D01*
X164085368Y-77377541D01*
X164105565Y-77198286D01*
X164085368Y-77019031D01*
X164025789Y-76848764D01*
X163929816Y-76696024D01*
X163802262Y-76568470D01*
X163802261Y-76568470D01*
X163802261Y-76568469D01*
X163758528Y-76540990D01*
X163712237Y-76488656D01*
X163700500Y-76435996D01*
X163700500Y-66708674D01*
X163720185Y-66641635D01*
X163736819Y-66620993D01*
X163788319Y-66569493D01*
X163849642Y-66536008D01*
X163919334Y-66540992D01*
X163975267Y-66582864D01*
X163999684Y-66648328D01*
X164000000Y-66657173D01*
X164000000Y-71650000D01*
X182000000Y-71650000D01*
X182000000Y-65700000D01*
X164957175Y-65700000D01*
X164890136Y-65680315D01*
X164844381Y-65627511D01*
X164834437Y-65558353D01*
X164863462Y-65494797D01*
X164869494Y-65488319D01*
X169255614Y-61102199D01*
X169316937Y-61068714D01*
X169343295Y-61065880D01*
X170932968Y-61065880D01*
X171000007Y-61085565D01*
X171010283Y-61092935D01*
X171013116Y-61095194D01*
X171013118Y-61095196D01*
X171165858Y-61191169D01*
X171336124Y-61250748D01*
X171336125Y-61250748D01*
X171336130Y-61250749D01*
X171515376Y-61270945D01*
X171515380Y-61270945D01*
X171515384Y-61270945D01*
X171694629Y-61250749D01*
X171694632Y-61250748D01*
X171694635Y-61250748D01*
X171864902Y-61191169D01*
X172017642Y-61095196D01*
X172145196Y-60967642D01*
X172241169Y-60814902D01*
X172300748Y-60644635D01*
X172320945Y-60465380D01*
X172314208Y-60405591D01*
X172300749Y-60286130D01*
X172300748Y-60286125D01*
X172279748Y-60226111D01*
X172241169Y-60115858D01*
X172232642Y-60102288D01*
X172175660Y-60011601D01*
X172156660Y-59944364D01*
X172163611Y-59904679D01*
X172181496Y-59853570D01*
X172181497Y-59853564D01*
X172201693Y-59674318D01*
X172201693Y-59674311D01*
X172183561Y-59513383D01*
X172195616Y-59444562D01*
X172242965Y-59393182D01*
X172306781Y-59375500D01*
X172984720Y-59375500D01*
X173050693Y-59394507D01*
X173100475Y-59425788D01*
X173270745Y-59485368D01*
X173270750Y-59485369D01*
X173449996Y-59505565D01*
X173450000Y-59505565D01*
X173450004Y-59505565D01*
X173629249Y-59485369D01*
X173629252Y-59485368D01*
X173629255Y-59485368D01*
X173799522Y-59425789D01*
X173952262Y-59329816D01*
X174079816Y-59202262D01*
X174175789Y-59049522D01*
X174235368Y-58879255D01*
X174235369Y-58879249D01*
X174255565Y-58700003D01*
X174255565Y-58699996D01*
X174235369Y-58520750D01*
X174235368Y-58520745D01*
X174175789Y-58350478D01*
X174079816Y-58197738D01*
X173952262Y-58070184D01*
X173887124Y-58029255D01*
X173799523Y-57974211D01*
X173629254Y-57914631D01*
X173629249Y-57914630D01*
X173450004Y-57894435D01*
X173449996Y-57894435D01*
X173270750Y-57914630D01*
X173270745Y-57914631D01*
X173100476Y-57974211D01*
X172947737Y-58070184D01*
X172929741Y-58088181D01*
X172868418Y-58121666D01*
X172842060Y-58124500D01*
X171924096Y-58124500D01*
X171857057Y-58104815D01*
X171811302Y-58052011D01*
X171801358Y-57982853D01*
X171830383Y-57919297D01*
X171836415Y-57912819D01*
X172326279Y-57422956D01*
X172862415Y-56886819D01*
X172923739Y-56853334D01*
X172950097Y-56850500D01*
X178202886Y-56850500D01*
X178269925Y-56870185D01*
X178315680Y-56922989D01*
X178325624Y-56992147D01*
X178296599Y-57055703D01*
X178243840Y-57091542D01*
X178150478Y-57124210D01*
X177997737Y-57220184D01*
X177870184Y-57347737D01*
X177774211Y-57500476D01*
X177714631Y-57670745D01*
X177714630Y-57670750D01*
X177694435Y-57849996D01*
X177694435Y-57850003D01*
X177714630Y-58029249D01*
X177714631Y-58029254D01*
X177774212Y-58199525D01*
X177786600Y-58219241D01*
X177805600Y-58286478D01*
X177786600Y-58351183D01*
X177724212Y-58450474D01*
X177664631Y-58620745D01*
X177664630Y-58620750D01*
X177644435Y-58799996D01*
X177644435Y-58800003D01*
X177664630Y-58979249D01*
X177664633Y-58979262D01*
X177726510Y-59156094D01*
X177724364Y-59156844D01*
X177733962Y-59215144D01*
X177725609Y-59243590D01*
X177726510Y-59243906D01*
X177664633Y-59420737D01*
X177664630Y-59420750D01*
X177644435Y-59599996D01*
X177644435Y-59600003D01*
X177664630Y-59779249D01*
X177664631Y-59779254D01*
X177724211Y-59949523D01*
X177803188Y-60075213D01*
X177820184Y-60102262D01*
X177947738Y-60229816D01*
X178100478Y-60325789D01*
X178270745Y-60385368D01*
X178270750Y-60385369D01*
X178449996Y-60405565D01*
X178450000Y-60405565D01*
X178450004Y-60405565D01*
X178629249Y-60385369D01*
X178629252Y-60385368D01*
X178629255Y-60385368D01*
X178799522Y-60325789D01*
X178952262Y-60229816D01*
X178952267Y-60229810D01*
X178955097Y-60227555D01*
X178957275Y-60226665D01*
X178958158Y-60226111D01*
X178958255Y-60226265D01*
X179019783Y-60201145D01*
X179032412Y-60200500D01*
X188717629Y-60200500D01*
X188784668Y-60220185D01*
X188794942Y-60227553D01*
X188797811Y-60229841D01*
X188797812Y-60229842D01*
X188887386Y-60286125D01*
X188950510Y-60325789D01*
X188950552Y-60325815D01*
X189120745Y-60385368D01*
X189120819Y-60385394D01*
X189120824Y-60385395D01*
X189300070Y-60405591D01*
X189300074Y-60405591D01*
X189300078Y-60405591D01*
X189479323Y-60385395D01*
X189479326Y-60385394D01*
X189479329Y-60385394D01*
X189649596Y-60325815D01*
X189802336Y-60229842D01*
X189929890Y-60102288D01*
X190025863Y-59949548D01*
X190085442Y-59779281D01*
X190085446Y-59779249D01*
X190105639Y-59600029D01*
X190105639Y-59600022D01*
X190085443Y-59420776D01*
X190085442Y-59420771D01*
X190025862Y-59250502D01*
X189929889Y-59097763D01*
X189802336Y-58970210D01*
X189649596Y-58874236D01*
X189649592Y-58874235D01*
X189581902Y-58850549D01*
X189525126Y-58809828D01*
X189499637Y-58747390D01*
X189485369Y-58620750D01*
X189485368Y-58620745D01*
X189425788Y-58450476D01*
X189397953Y-58406177D01*
X189329816Y-58297738D01*
X189245345Y-58213267D01*
X189211861Y-58151943D01*
X189215985Y-58084633D01*
X189235364Y-58029255D01*
X189235365Y-58029249D01*
X189255561Y-57850003D01*
X189255561Y-57849996D01*
X189235365Y-57670750D01*
X189235364Y-57670745D01*
X189175784Y-57500476D01*
X189109277Y-57394632D01*
X189079812Y-57347738D01*
X188952258Y-57220184D01*
X188943419Y-57214630D01*
X188799519Y-57124211D01*
X188629250Y-57064631D01*
X188629245Y-57064630D01*
X188450000Y-57044435D01*
X188449992Y-57044435D01*
X188270746Y-57064630D01*
X188270741Y-57064631D01*
X188100472Y-57124211D01*
X187947732Y-57220185D01*
X187944899Y-57222445D01*
X187942720Y-57223334D01*
X187941838Y-57223889D01*
X187941740Y-57223734D01*
X187880213Y-57248855D01*
X187867584Y-57249500D01*
X187747114Y-57249500D01*
X187680075Y-57229815D01*
X187634320Y-57177011D01*
X187624376Y-57107853D01*
X187653401Y-57044297D01*
X187706160Y-57008458D01*
X187742531Y-56995730D01*
X187799522Y-56975789D01*
X187952262Y-56879816D01*
X188079816Y-56752262D01*
X188175789Y-56599522D01*
X188235368Y-56429255D01*
X188235920Y-56424359D01*
X188255565Y-56250003D01*
X188255565Y-56249996D01*
X188235369Y-56070750D01*
X188235368Y-56070745D01*
X188175788Y-55900476D01*
X188136582Y-55838080D01*
X188079816Y-55747738D01*
X187952262Y-55620184D01*
X187907269Y-55591913D01*
X187860979Y-55539579D01*
X187850022Y-55500803D01*
X187835369Y-55370750D01*
X187835368Y-55370745D01*
X187775788Y-55200476D01*
X187679815Y-55047737D01*
X187552262Y-54920184D01*
X187399523Y-54824211D01*
X187229254Y-54764631D01*
X187229249Y-54764630D01*
X187050004Y-54744435D01*
X187049996Y-54744435D01*
X186870750Y-54764630D01*
X186870745Y-54764631D01*
X186700476Y-54824211D01*
X186547736Y-54920185D01*
X186544903Y-54922445D01*
X186542724Y-54923334D01*
X186541842Y-54923889D01*
X186541744Y-54923734D01*
X186480217Y-54948855D01*
X186467588Y-54949500D01*
X171434452Y-54949500D01*
X171367413Y-54929815D01*
X171321658Y-54877011D01*
X171311714Y-54807853D01*
X171340739Y-54744297D01*
X171346771Y-54737819D01*
X172022771Y-54061819D01*
X172084094Y-54028334D01*
X172110452Y-54025500D01*
X172855145Y-54025500D01*
X172921117Y-54044506D01*
X173030770Y-54113406D01*
X173050478Y-54125789D01*
X173149199Y-54160333D01*
X173220745Y-54185368D01*
X173220750Y-54185369D01*
X173399996Y-54205565D01*
X173400000Y-54205565D01*
X173400004Y-54205565D01*
X173579249Y-54185369D01*
X173579252Y-54185368D01*
X173579255Y-54185368D01*
X173749522Y-54125789D01*
X173902262Y-54029816D01*
X174029816Y-53902262D01*
X174125789Y-53749522D01*
X174185368Y-53579255D01*
X174202269Y-53429254D01*
X174205565Y-53400003D01*
X174205565Y-53399996D01*
X174185369Y-53220750D01*
X174185368Y-53220745D01*
X174132882Y-53070750D01*
X174125789Y-53050478D01*
X174116295Y-53035369D01*
X174078858Y-52975788D01*
X174029816Y-52897738D01*
X173902262Y-52770184D01*
X173878883Y-52755494D01*
X173749523Y-52674211D01*
X173579254Y-52614631D01*
X173579249Y-52614630D01*
X173400004Y-52594435D01*
X173399996Y-52594435D01*
X173220750Y-52614630D01*
X173220745Y-52614631D01*
X173050476Y-52674211D01*
X172921117Y-52755494D01*
X172855145Y-52774500D01*
X172474097Y-52774500D01*
X172407058Y-52754815D01*
X172361303Y-52702011D01*
X172351359Y-52632853D01*
X172380384Y-52569297D01*
X172386416Y-52562819D01*
X172862416Y-52086819D01*
X172923739Y-52053334D01*
X172950097Y-52050500D01*
X178078157Y-52050500D01*
X178145196Y-52070185D01*
X178190951Y-52122989D01*
X178201377Y-52188383D01*
X178194435Y-52249996D01*
X178194435Y-52250003D01*
X178214630Y-52429249D01*
X178214631Y-52429254D01*
X178274211Y-52599523D01*
X178321141Y-52674211D01*
X178370184Y-52752262D01*
X178497738Y-52879816D01*
X178650478Y-52975789D01*
X178820745Y-53035368D01*
X178820750Y-53035369D01*
X178999996Y-53055565D01*
X179000000Y-53055565D01*
X179000004Y-53055565D01*
X179179249Y-53035369D01*
X179179252Y-53035368D01*
X179179255Y-53035368D01*
X179349522Y-52975789D01*
X179502262Y-52879816D01*
X179502267Y-52879810D01*
X179505097Y-52877555D01*
X179507275Y-52876665D01*
X179508158Y-52876111D01*
X179508255Y-52876265D01*
X179569783Y-52851145D01*
X179582412Y-52850500D01*
X187767583Y-52850500D01*
X187834622Y-52870185D01*
X187844898Y-52877555D01*
X187847736Y-52879818D01*
X187847738Y-52879820D01*
X187961270Y-52951156D01*
X188000471Y-52975789D01*
X188000478Y-52975793D01*
X188170734Y-53035368D01*
X188170745Y-53035372D01*
X188170750Y-53035373D01*
X188349996Y-53055569D01*
X188350000Y-53055569D01*
X188350004Y-53055569D01*
X188529249Y-53035373D01*
X188529252Y-53035372D01*
X188529255Y-53035372D01*
X188699522Y-52975793D01*
X188852262Y-52879820D01*
X188979816Y-52752266D01*
X189075789Y-52599526D01*
X189135368Y-52429259D01*
X189135368Y-52429256D01*
X189135369Y-52429253D01*
X189155565Y-52250007D01*
X189155565Y-52250000D01*
X189135369Y-52070754D01*
X189135368Y-52070749D01*
X189075788Y-51900480D01*
X188979815Y-51747741D01*
X188852262Y-51620188D01*
X188699523Y-51524215D01*
X188529254Y-51464635D01*
X188529249Y-51464634D01*
X188350004Y-51444439D01*
X188349996Y-51444439D01*
X188170750Y-51464634D01*
X188170745Y-51464635D01*
X188000476Y-51524215D01*
X187841842Y-51623893D01*
X187840837Y-51622295D01*
X187784861Y-51645133D01*
X187716169Y-51632362D01*
X187665285Y-51584481D01*
X187648366Y-51516690D01*
X187649042Y-51507890D01*
X187655565Y-51450001D01*
X187655565Y-51449996D01*
X187635369Y-51270750D01*
X187635368Y-51270745D01*
X187584306Y-51124819D01*
X187575789Y-51100478D01*
X187479816Y-50947738D01*
X187352262Y-50820184D01*
X187199521Y-50724210D01*
X187153282Y-50708031D01*
X187096506Y-50667310D01*
X187073290Y-50610439D01*
X187072450Y-50610631D01*
X187071284Y-50605522D01*
X187071015Y-50604863D01*
X187070900Y-50603842D01*
X187011321Y-50433575D01*
X186915348Y-50280835D01*
X186787794Y-50153281D01*
X186775380Y-50145481D01*
X186635055Y-50057308D01*
X186464786Y-49997728D01*
X186464781Y-49997727D01*
X186285536Y-49977532D01*
X186285528Y-49977532D01*
X186106282Y-49997727D01*
X186106277Y-49997728D01*
X185936008Y-50057308D01*
X185783269Y-50153281D01*
X185773370Y-50163181D01*
X185712047Y-50196666D01*
X185685689Y-50199500D01*
X171419699Y-50199500D01*
X171352660Y-50179815D01*
X171332018Y-50163181D01*
X171314318Y-50145481D01*
X171246258Y-50102716D01*
X171199967Y-50050381D01*
X171189319Y-49981327D01*
X171217694Y-49917479D01*
X171224549Y-49910041D01*
X171922772Y-49211819D01*
X171984095Y-49178334D01*
X172010453Y-49175500D01*
X172855145Y-49175500D01*
X172921116Y-49194505D01*
X173050478Y-49275789D01*
X173220744Y-49335368D01*
X173220745Y-49335368D01*
X173220750Y-49335369D01*
X173399996Y-49355565D01*
X173400000Y-49355565D01*
X173400004Y-49355565D01*
X173579249Y-49335369D01*
X173579252Y-49335368D01*
X173579255Y-49335368D01*
X173749522Y-49275789D01*
X173902262Y-49179816D01*
X174029816Y-49052262D01*
X174125789Y-48899522D01*
X174185368Y-48729255D01*
X174199985Y-48599523D01*
X174205565Y-48550003D01*
X174205565Y-48549996D01*
X174185369Y-48370750D01*
X174185368Y-48370745D01*
X174153352Y-48279249D01*
X174143118Y-48250003D01*
X177344435Y-48250003D01*
X177364630Y-48429249D01*
X177364631Y-48429254D01*
X177424211Y-48599523D01*
X177505724Y-48729249D01*
X177520184Y-48752262D01*
X177647738Y-48879816D01*
X177800478Y-48975789D01*
X177970745Y-49035368D01*
X177970750Y-49035369D01*
X178149996Y-49055565D01*
X178150000Y-49055565D01*
X178150004Y-49055565D01*
X178329249Y-49035369D01*
X178329252Y-49035368D01*
X178329255Y-49035368D01*
X178499522Y-48975789D01*
X178652262Y-48879816D01*
X178652267Y-48879810D01*
X178655097Y-48877555D01*
X178657275Y-48876665D01*
X178658158Y-48876111D01*
X178658255Y-48876265D01*
X178719783Y-48851145D01*
X178732412Y-48850500D01*
X179067588Y-48850500D01*
X179134627Y-48870185D01*
X179144903Y-48877555D01*
X179147736Y-48879814D01*
X179147738Y-48879816D01*
X179300478Y-48975789D01*
X179470744Y-49035368D01*
X179470745Y-49035368D01*
X179470750Y-49035369D01*
X179649996Y-49055565D01*
X179650000Y-49055565D01*
X179650004Y-49055565D01*
X179829249Y-49035369D01*
X179829252Y-49035368D01*
X179829255Y-49035368D01*
X179999522Y-48975789D01*
X180152262Y-48879816D01*
X180279816Y-48752262D01*
X180375789Y-48599522D01*
X180435368Y-48429255D01*
X180441960Y-48370750D01*
X180455565Y-48250003D01*
X180455565Y-48249996D01*
X180435369Y-48070750D01*
X180435368Y-48070745D01*
X180435367Y-48070744D01*
X180375789Y-47900478D01*
X180279816Y-47747738D01*
X180152262Y-47620184D01*
X180131418Y-47607087D01*
X179999523Y-47524211D01*
X179829254Y-47464631D01*
X179829249Y-47464630D01*
X179650004Y-47444435D01*
X179649996Y-47444435D01*
X179470750Y-47464630D01*
X179470745Y-47464631D01*
X179300476Y-47524211D01*
X179147736Y-47620185D01*
X179144903Y-47622445D01*
X179142724Y-47623334D01*
X179141842Y-47623889D01*
X179141744Y-47623734D01*
X179080217Y-47648855D01*
X179067588Y-47649500D01*
X178732412Y-47649500D01*
X178665373Y-47629815D01*
X178655097Y-47622445D01*
X178652263Y-47620185D01*
X178652262Y-47620184D01*
X178595496Y-47584515D01*
X178499523Y-47524211D01*
X178329254Y-47464631D01*
X178329249Y-47464630D01*
X178150004Y-47444435D01*
X178149996Y-47444435D01*
X177970750Y-47464630D01*
X177970745Y-47464631D01*
X177800476Y-47524211D01*
X177647737Y-47620184D01*
X177520184Y-47747737D01*
X177424211Y-47900476D01*
X177364631Y-48070745D01*
X177364630Y-48070750D01*
X177344435Y-48249996D01*
X177344435Y-48250003D01*
X174143118Y-48250003D01*
X174125789Y-48200478D01*
X174029816Y-48047738D01*
X173902262Y-47920184D01*
X173878883Y-47905494D01*
X173749523Y-47824211D01*
X173579254Y-47764631D01*
X173579249Y-47764630D01*
X173400004Y-47744435D01*
X173399996Y-47744435D01*
X173220750Y-47764630D01*
X173220745Y-47764631D01*
X173050476Y-47824211D01*
X172921117Y-47905494D01*
X172855145Y-47924500D01*
X172224097Y-47924500D01*
X172157058Y-47904815D01*
X172111303Y-47852011D01*
X172101359Y-47782853D01*
X172130384Y-47719297D01*
X172136416Y-47712819D01*
X172812416Y-47036819D01*
X172873739Y-47003334D01*
X172900097Y-47000500D01*
X185417588Y-47000500D01*
X185484627Y-47020185D01*
X185494903Y-47027555D01*
X185497736Y-47029814D01*
X185497738Y-47029816D01*
X185650478Y-47125789D01*
X185820744Y-47185367D01*
X185820745Y-47185368D01*
X185820750Y-47185369D01*
X185999996Y-47205565D01*
X186000000Y-47205565D01*
X186000004Y-47205565D01*
X186179249Y-47185369D01*
X186179252Y-47185368D01*
X186179255Y-47185368D01*
X186349522Y-47125789D01*
X186502262Y-47029816D01*
X186629816Y-46902262D01*
X186725789Y-46749522D01*
X186785368Y-46579255D01*
X186789314Y-46544237D01*
X186805565Y-46400003D01*
X186805565Y-46399996D01*
X186785369Y-46220750D01*
X186785368Y-46220745D01*
X186725788Y-46050476D01*
X186629815Y-45897737D01*
X186502262Y-45770184D01*
X186502261Y-45770184D01*
X186349522Y-45674211D01*
X186349519Y-45674210D01*
X186343626Y-45670507D01*
X186345283Y-45667869D01*
X186303642Y-45629972D01*
X186286340Y-45579375D01*
X186285368Y-45570745D01*
X186225789Y-45400478D01*
X186129816Y-45247738D01*
X186002262Y-45120184D01*
X185933553Y-45077011D01*
X185849523Y-45024211D01*
X185679254Y-44964631D01*
X185679249Y-44964630D01*
X185500004Y-44944435D01*
X185499996Y-44944435D01*
X185320750Y-44964630D01*
X185320745Y-44964631D01*
X185150476Y-45024211D01*
X184997736Y-45120185D01*
X184994903Y-45122445D01*
X184992724Y-45123334D01*
X184991842Y-45123889D01*
X184991744Y-45123734D01*
X184930217Y-45148855D01*
X184917588Y-45149500D01*
X171834452Y-45149500D01*
X171767413Y-45129815D01*
X171721658Y-45077011D01*
X171711714Y-45007853D01*
X171740739Y-44944297D01*
X171746771Y-44937819D01*
X172033548Y-44651043D01*
X172472771Y-44211819D01*
X172534095Y-44178334D01*
X172560453Y-44175500D01*
X172655145Y-44175500D01*
X172721116Y-44194505D01*
X172850478Y-44275789D01*
X173020744Y-44335367D01*
X173020745Y-44335368D01*
X173020750Y-44335369D01*
X173199996Y-44355565D01*
X173200000Y-44355565D01*
X173200004Y-44355565D01*
X173379249Y-44335369D01*
X173379252Y-44335368D01*
X173379255Y-44335368D01*
X173549522Y-44275789D01*
X173702262Y-44179816D01*
X173829816Y-44052262D01*
X173925789Y-43899522D01*
X173985368Y-43729255D01*
X174002269Y-43579254D01*
X174005565Y-43550003D01*
X174005565Y-43549996D01*
X173985369Y-43370750D01*
X173985368Y-43370745D01*
X173932882Y-43220750D01*
X173925789Y-43200478D01*
X173829816Y-43047738D01*
X173702262Y-42920184D01*
X173678883Y-42905494D01*
X173549523Y-42824211D01*
X173379254Y-42764631D01*
X173379249Y-42764630D01*
X173200004Y-42744435D01*
X173199996Y-42744435D01*
X173020750Y-42764630D01*
X173020745Y-42764631D01*
X172850476Y-42824211D01*
X172721117Y-42905494D01*
X172655145Y-42924500D01*
X172474096Y-42924500D01*
X172407057Y-42904815D01*
X172361302Y-42852011D01*
X172351358Y-42782853D01*
X172380383Y-42719297D01*
X172386415Y-42712819D01*
X172816014Y-42283221D01*
X173362415Y-41736819D01*
X173423739Y-41703334D01*
X173450097Y-41700500D01*
X184617588Y-41700500D01*
X184684627Y-41720185D01*
X184694903Y-41727555D01*
X184697736Y-41729814D01*
X184697738Y-41729816D01*
X184850478Y-41825789D01*
X184982216Y-41871886D01*
X185020745Y-41885368D01*
X185020750Y-41885369D01*
X185199996Y-41905565D01*
X185200000Y-41905565D01*
X185200004Y-41905565D01*
X185379249Y-41885369D01*
X185379252Y-41885368D01*
X185379255Y-41885368D01*
X185549522Y-41825789D01*
X185702262Y-41729816D01*
X185829816Y-41602262D01*
X185925789Y-41449522D01*
X185985368Y-41279255D01*
X185993335Y-41208546D01*
X186005565Y-41100003D01*
X186005565Y-41099996D01*
X185985369Y-40920750D01*
X185985368Y-40920745D01*
X185925788Y-40750476D01*
X185829815Y-40597737D01*
X185702262Y-40470184D01*
X185702261Y-40470183D01*
X185549522Y-40374211D01*
X185549519Y-40374210D01*
X185543626Y-40370507D01*
X185545283Y-40367869D01*
X185503642Y-40329972D01*
X185486340Y-40279375D01*
X185485368Y-40270745D01*
X185425789Y-40100478D01*
X185329816Y-39947738D01*
X185202262Y-39820184D01*
X185133553Y-39777011D01*
X185049523Y-39724211D01*
X184879254Y-39664631D01*
X184879249Y-39664630D01*
X184700004Y-39644435D01*
X184699996Y-39644435D01*
X184520750Y-39664630D01*
X184520745Y-39664631D01*
X184350476Y-39724211D01*
X184197736Y-39820185D01*
X184194903Y-39822445D01*
X184192724Y-39823334D01*
X184191842Y-39823889D01*
X184191744Y-39823734D01*
X184130217Y-39848855D01*
X184117588Y-39849500D01*
X171934453Y-39849500D01*
X171867414Y-39829815D01*
X171821659Y-39777011D01*
X171811715Y-39707853D01*
X171840740Y-39644297D01*
X171846772Y-39637819D01*
X172172772Y-39311819D01*
X172234095Y-39278334D01*
X172260453Y-39275500D01*
X172755145Y-39275500D01*
X172821116Y-39294505D01*
X172950478Y-39375789D01*
X173120745Y-39435367D01*
X173120745Y-39435368D01*
X173120750Y-39435369D01*
X173299996Y-39455565D01*
X173300000Y-39455565D01*
X173300004Y-39455565D01*
X173479249Y-39435369D01*
X173479252Y-39435368D01*
X173479255Y-39435368D01*
X173649522Y-39375789D01*
X173802262Y-39279816D01*
X173929816Y-39152262D01*
X174025789Y-38999522D01*
X174085368Y-38829255D01*
X174102269Y-38679254D01*
X174105565Y-38650003D01*
X174105565Y-38649996D01*
X174085369Y-38470750D01*
X174085368Y-38470745D01*
X174078107Y-38449995D01*
X177244435Y-38449995D01*
X177264630Y-38629241D01*
X177264631Y-38629246D01*
X177324211Y-38799515D01*
X177420184Y-38952253D01*
X177420184Y-38952254D01*
X177547738Y-39079808D01*
X177700478Y-39175781D01*
X177870745Y-39235360D01*
X177870750Y-39235361D01*
X178049996Y-39255557D01*
X178050000Y-39255557D01*
X178050004Y-39255557D01*
X178229249Y-39235361D01*
X178229252Y-39235360D01*
X178229255Y-39235360D01*
X178399522Y-39175781D01*
X178552262Y-39079808D01*
X178552267Y-39079802D01*
X178555097Y-39077547D01*
X178557275Y-39076657D01*
X178558158Y-39076103D01*
X178558255Y-39076257D01*
X178619783Y-39051137D01*
X178632412Y-39050492D01*
X179017578Y-39050492D01*
X179084617Y-39070177D01*
X179094893Y-39077547D01*
X179097736Y-39079814D01*
X179097738Y-39079816D01*
X179185149Y-39134740D01*
X179250463Y-39175780D01*
X179250478Y-39175789D01*
X179420722Y-39235360D01*
X179420745Y-39235368D01*
X179420750Y-39235369D01*
X179599996Y-39255565D01*
X179600000Y-39255565D01*
X179600004Y-39255565D01*
X179779249Y-39235369D01*
X179779252Y-39235368D01*
X179779255Y-39235368D01*
X179949522Y-39175789D01*
X180102262Y-39079816D01*
X180229816Y-38952262D01*
X180325789Y-38799522D01*
X180385368Y-38629255D01*
X180399931Y-38500003D01*
X180405565Y-38450003D01*
X180405565Y-38449996D01*
X180385369Y-38270750D01*
X180385368Y-38270745D01*
X180342326Y-38147738D01*
X180325789Y-38100478D01*
X180229816Y-37947738D01*
X180102262Y-37820184D01*
X180044784Y-37784068D01*
X179949523Y-37724211D01*
X179779254Y-37664631D01*
X179779249Y-37664630D01*
X179600004Y-37644435D01*
X179599996Y-37644435D01*
X179420750Y-37664630D01*
X179420745Y-37664631D01*
X179250476Y-37724211D01*
X179097736Y-37820185D01*
X179094913Y-37822437D01*
X179092742Y-37823323D01*
X179091842Y-37823889D01*
X179091742Y-37823731D01*
X179030227Y-37848847D01*
X179017598Y-37849492D01*
X178632412Y-37849492D01*
X178565373Y-37829807D01*
X178555097Y-37822437D01*
X178552263Y-37820177D01*
X178552262Y-37820176D01*
X178479108Y-37774210D01*
X178399523Y-37724203D01*
X178229254Y-37664623D01*
X178229249Y-37664622D01*
X178050004Y-37644427D01*
X178049996Y-37644427D01*
X177870750Y-37664622D01*
X177870745Y-37664623D01*
X177700476Y-37724203D01*
X177547737Y-37820176D01*
X177420184Y-37947729D01*
X177324211Y-38100468D01*
X177264631Y-38270737D01*
X177264630Y-38270742D01*
X177244435Y-38449988D01*
X177244435Y-38449995D01*
X174078107Y-38449995D01*
X174032882Y-38320750D01*
X174025789Y-38300478D01*
X174007106Y-38270745D01*
X173986581Y-38238080D01*
X173929816Y-38147738D01*
X173802262Y-38020184D01*
X173778883Y-38005494D01*
X173649523Y-37924211D01*
X173479254Y-37864631D01*
X173479249Y-37864630D01*
X173300004Y-37844435D01*
X173299996Y-37844435D01*
X173120750Y-37864630D01*
X173120745Y-37864631D01*
X172950476Y-37924211D01*
X172821117Y-38005494D01*
X172755145Y-38024500D01*
X172524097Y-38024500D01*
X172457058Y-38004815D01*
X172411303Y-37952011D01*
X172401359Y-37882853D01*
X172430384Y-37819297D01*
X172436416Y-37812819D01*
X173112416Y-37136819D01*
X173173739Y-37103334D01*
X173200097Y-37100500D01*
X183717596Y-37100500D01*
X183784635Y-37120185D01*
X183794911Y-37127555D01*
X183797744Y-37129814D01*
X183797746Y-37129816D01*
X183911277Y-37201152D01*
X183913103Y-37202300D01*
X183950486Y-37225789D01*
X184120752Y-37285367D01*
X184120753Y-37285368D01*
X184120758Y-37285369D01*
X184300004Y-37305565D01*
X184300008Y-37305565D01*
X184300012Y-37305565D01*
X184479257Y-37285369D01*
X184479260Y-37285368D01*
X184479263Y-37285368D01*
X184649530Y-37225789D01*
X184802270Y-37129816D01*
X184929824Y-37002262D01*
X185025797Y-36849522D01*
X185085376Y-36679255D01*
X185086082Y-36672989D01*
X185105573Y-36500003D01*
X185105573Y-36499996D01*
X185085377Y-36320750D01*
X185085376Y-36320745D01*
X185081037Y-36308346D01*
X185025797Y-36150478D01*
X184929824Y-35997738D01*
X184802270Y-35870184D01*
X184802269Y-35870183D01*
X184796906Y-35865906D01*
X184756767Y-35808716D01*
X184751001Y-35755077D01*
X184752582Y-35741051D01*
X184732385Y-35561796D01*
X184672806Y-35391529D01*
X184576833Y-35238789D01*
X184449279Y-35111235D01*
X184449278Y-35111235D01*
X184296540Y-35015262D01*
X184126271Y-34955682D01*
X184126266Y-34955681D01*
X183947021Y-34935486D01*
X183947013Y-34935486D01*
X183767767Y-34955681D01*
X183767762Y-34955682D01*
X183597493Y-35015262D01*
X183444754Y-35111235D01*
X183317201Y-35238788D01*
X183252681Y-35341472D01*
X183200346Y-35387763D01*
X183147687Y-35399500D01*
X171384451Y-35399500D01*
X171317412Y-35379815D01*
X171271657Y-35327011D01*
X171261713Y-35257853D01*
X171290738Y-35194297D01*
X171296770Y-35187819D01*
X171469328Y-35015262D01*
X172122771Y-34361819D01*
X172184095Y-34328334D01*
X172210453Y-34325500D01*
X172705145Y-34325500D01*
X172771116Y-34344505D01*
X172900478Y-34425789D01*
X173070744Y-34485367D01*
X173070745Y-34485368D01*
X173070750Y-34485369D01*
X173249996Y-34505565D01*
X173250000Y-34505565D01*
X173250004Y-34505565D01*
X173429249Y-34485369D01*
X173429252Y-34485368D01*
X173429255Y-34485368D01*
X173599522Y-34425789D01*
X173752262Y-34329816D01*
X173879816Y-34202262D01*
X173975789Y-34049522D01*
X174035368Y-33879255D01*
X174055565Y-33700000D01*
X174035368Y-33520745D01*
X173975789Y-33350478D01*
X173879816Y-33197738D01*
X173752262Y-33070184D01*
X173728883Y-33055494D01*
X173599523Y-32974211D01*
X173429254Y-32914631D01*
X173429249Y-32914630D01*
X173250004Y-32894435D01*
X173249996Y-32894435D01*
X173070750Y-32914630D01*
X173070745Y-32914631D01*
X172900476Y-32974211D01*
X172771117Y-33055494D01*
X172705145Y-33074500D01*
X172274097Y-33074500D01*
X172207058Y-33054815D01*
X172161303Y-33002011D01*
X172151359Y-32932853D01*
X172180384Y-32869297D01*
X172186416Y-32862819D01*
X172662420Y-32386815D01*
X172723743Y-32353330D01*
X172750101Y-32350496D01*
X182667597Y-32350496D01*
X182734636Y-32370181D01*
X182744912Y-32377551D01*
X182747750Y-32379814D01*
X182747752Y-32379816D01*
X182861283Y-32451152D01*
X182890161Y-32469298D01*
X182900492Y-32475789D01*
X183011493Y-32514630D01*
X183070759Y-32535368D01*
X183070764Y-32535369D01*
X183250010Y-32555565D01*
X183250014Y-32555565D01*
X183250018Y-32555565D01*
X183429263Y-32535369D01*
X183429266Y-32535368D01*
X183429269Y-32535368D01*
X183599536Y-32475789D01*
X183752276Y-32379816D01*
X183879830Y-32252262D01*
X183975803Y-32099522D01*
X184035382Y-31929255D01*
X184036212Y-31921889D01*
X184055579Y-31750003D01*
X184055579Y-31749996D01*
X184035383Y-31570750D01*
X184035382Y-31570745D01*
X183975802Y-31400476D01*
X183898869Y-31278039D01*
X183879830Y-31247738D01*
X183752276Y-31120184D01*
X183752275Y-31120183D01*
X183599537Y-31024211D01*
X183429268Y-30964631D01*
X183429263Y-30964630D01*
X183250018Y-30944435D01*
X183250010Y-30944435D01*
X183070764Y-30964630D01*
X183070759Y-30964631D01*
X182900490Y-31024211D01*
X182747750Y-31120185D01*
X182744922Y-31122441D01*
X182742747Y-31123328D01*
X182741856Y-31123889D01*
X182741757Y-31123732D01*
X182680236Y-31148851D01*
X182667607Y-31149496D01*
X182516321Y-31149496D01*
X182449282Y-31129811D01*
X182403527Y-31077007D01*
X182393101Y-31039378D01*
X182385369Y-30970750D01*
X182385368Y-30970745D01*
X182376162Y-30944435D01*
X182325789Y-30800478D01*
X182229816Y-30647738D01*
X182102262Y-30520184D01*
X182039096Y-30480494D01*
X181949523Y-30424211D01*
X181779254Y-30364631D01*
X181779249Y-30364630D01*
X181600004Y-30344435D01*
X181599996Y-30344435D01*
X181420750Y-30364630D01*
X181420737Y-30364633D01*
X181250481Y-30424209D01*
X181250477Y-30424210D01*
X181160904Y-30480494D01*
X181094932Y-30499500D01*
X171105704Y-30499500D01*
X171039732Y-30480493D01*
X170950699Y-30424549D01*
X170780427Y-30364968D01*
X170780422Y-30364967D01*
X170601177Y-30344772D01*
X170601169Y-30344772D01*
X170421923Y-30364967D01*
X170421918Y-30364968D01*
X170251649Y-30424548D01*
X170098910Y-30520521D01*
X169971357Y-30648074D01*
X169875384Y-30800813D01*
X169815804Y-30971082D01*
X169815803Y-30971087D01*
X169795608Y-31150333D01*
X169795608Y-31150340D01*
X169815803Y-31329586D01*
X169815804Y-31329591D01*
X169875384Y-31499860D01*
X169971356Y-31652599D01*
X169971357Y-31652599D01*
X170098911Y-31780153D01*
X170251651Y-31876126D01*
X170382426Y-31921886D01*
X170421918Y-31935705D01*
X170421923Y-31935706D01*
X170601169Y-31955902D01*
X170601173Y-31955902D01*
X170601177Y-31955902D01*
X170780422Y-31935706D01*
X170780425Y-31935705D01*
X170780428Y-31935705D01*
X170950695Y-31876126D01*
X171103435Y-31780153D01*
X171146769Y-31736819D01*
X171208092Y-31703334D01*
X171234450Y-31700500D01*
X171350903Y-31700500D01*
X171417942Y-31720185D01*
X171463697Y-31772989D01*
X171473641Y-31842147D01*
X171444616Y-31905703D01*
X171438584Y-31912181D01*
X170881465Y-32469298D01*
X170820142Y-32502783D01*
X170807668Y-32504837D01*
X170720750Y-32514630D01*
X170550478Y-32574210D01*
X170397737Y-32670184D01*
X170270184Y-32797737D01*
X170174211Y-32950476D01*
X170114631Y-33120745D01*
X170114630Y-33120750D01*
X170094435Y-33299996D01*
X170094435Y-33300003D01*
X170114630Y-33479249D01*
X170114631Y-33479254D01*
X170174211Y-33649523D01*
X170205926Y-33699996D01*
X170270184Y-33802262D01*
X170397738Y-33929816D01*
X170504271Y-33996755D01*
X170550561Y-34049089D01*
X170561209Y-34118142D01*
X170532834Y-34181991D01*
X170525979Y-34189429D01*
X169827228Y-34888181D01*
X169765905Y-34921666D01*
X169739547Y-34924500D01*
X169195286Y-34924500D01*
X169128247Y-34904815D01*
X169101573Y-34881703D01*
X169062887Y-34837056D01*
X168954237Y-34742911D01*
X168954216Y-34742896D01*
X168833171Y-34665105D01*
X168833151Y-34665094D01*
X168797986Y-34649034D01*
X168745183Y-34603278D01*
X168725500Y-34536241D01*
X168725500Y-32863758D01*
X168745185Y-32796719D01*
X168797989Y-32750964D01*
X168797990Y-32750963D01*
X168833144Y-32734909D01*
X168833143Y-32734909D01*
X168833155Y-32734904D01*
X168954226Y-32657097D01*
X169062887Y-32562943D01*
X169062890Y-32562940D01*
X169157139Y-32454170D01*
X169234871Y-32333216D01*
X169294658Y-32202300D01*
X169335165Y-32064345D01*
X169355647Y-31921889D01*
X169355647Y-31350000D01*
X169350500Y-31278039D01*
X169341603Y-31247738D01*
X169339546Y-31240733D01*
X169335784Y-31188149D01*
X169340536Y-31155097D01*
X169355647Y-31050000D01*
X169355647Y-30478111D01*
X169335165Y-30335655D01*
X169294658Y-30197700D01*
X169234871Y-30066784D01*
X169157139Y-29945830D01*
X169157136Y-29945826D01*
X169157135Y-29945824D01*
X169062891Y-29837061D01*
X169062889Y-29837058D01*
X168954237Y-29742911D01*
X168954216Y-29742896D01*
X168833166Y-29665102D01*
X168833143Y-29665089D01*
X168701965Y-29605183D01*
X168700242Y-29604743D01*
X168564282Y-29564821D01*
X168564272Y-29564818D01*
X168436321Y-29546422D01*
X168421962Y-29544358D01*
X168421961Y-29544358D01*
X168365603Y-29544358D01*
X168365586Y-29544353D01*
X168314236Y-29544353D01*
X167885764Y-29544353D01*
X167834444Y-29544353D01*
X167834397Y-29544358D01*
X167778038Y-29544358D01*
X167644499Y-29563558D01*
X167635722Y-29564819D01*
X167497631Y-29605367D01*
X167497618Y-29605372D01*
X167366856Y-29665089D01*
X167366833Y-29665102D01*
X167245783Y-29742896D01*
X167245762Y-29742912D01*
X167137130Y-29837041D01*
X167137111Y-29837058D01*
X167137106Y-29837064D01*
X167074100Y-29909777D01*
X167015321Y-29947551D01*
X166945452Y-29947551D01*
X166914417Y-29933569D01*
X166899524Y-29924211D01*
X166729254Y-29864631D01*
X166729249Y-29864630D01*
X166550004Y-29844435D01*
X166549996Y-29844435D01*
X166370750Y-29864630D01*
X166370745Y-29864631D01*
X166200476Y-29924211D01*
X166047737Y-30020184D01*
X165920184Y-30147737D01*
X165824211Y-30300476D01*
X165764631Y-30470745D01*
X165764630Y-30470750D01*
X165744435Y-30649996D01*
X165744435Y-30650003D01*
X165764630Y-30829249D01*
X165764631Y-30829254D01*
X165824211Y-30999523D01*
X165839724Y-31024211D01*
X165918976Y-31150340D01*
X165920185Y-31152263D01*
X165922445Y-31155097D01*
X165923334Y-31157275D01*
X165923889Y-31158158D01*
X165923734Y-31158255D01*
X165948855Y-31219783D01*
X165949500Y-31232412D01*
X165949500Y-60799901D01*
X165929815Y-60866940D01*
X165913181Y-60887582D01*
X161106096Y-65694668D01*
X161099993Y-65700020D01*
X161071718Y-65721717D01*
X161047549Y-65753213D01*
X161047550Y-65753214D01*
X160975464Y-65847158D01*
X160975461Y-65847163D01*
X160914957Y-65993234D01*
X160914955Y-65993239D01*
X160894318Y-66149998D01*
X160894318Y-66150000D01*
X160898969Y-66185326D01*
X160899500Y-66193427D01*
X160899500Y-80006571D01*
X160898969Y-80014673D01*
X160894318Y-80049999D01*
X160894318Y-80050000D01*
X148913118Y-80050000D01*
X148949912Y-28023761D01*
X148969644Y-27956738D01*
X149022480Y-27911020D01*
X149073761Y-27899851D01*
X190476028Y-27850148D01*
X190543089Y-27869752D01*
G37*
%TD.AperFunction*%
%TD*%
M02*
