%TF.GenerationSoftware,KiCad,Pcbnew,7.0.5*%
%TF.CreationDate,2023-07-03T18:18:52+02:00*%
%TF.ProjectId,connector,636f6e6e-6563-4746-9f72-2e6b69636164,rev?*%
%TF.SameCoordinates,Original*%
%TF.FileFunction,Legend,Top*%
%TF.FilePolarity,Positive*%
%FSLAX46Y46*%
G04 Gerber Fmt 4.6, Leading zero omitted, Abs format (unit mm)*
G04 Created by KiCad (PCBNEW 7.0.5) date 2023-07-03 18:18:52*
%MOMM*%
%LPD*%
G01*
G04 APERTURE LIST*
%ADD10C,0.300000*%
%ADD11C,0.120000*%
G04 APERTURE END LIST*
D10*
X59733082Y-55756900D02*
X59947368Y-55828328D01*
X59947368Y-55828328D02*
X60304510Y-55828328D01*
X60304510Y-55828328D02*
X60447368Y-55756900D01*
X60447368Y-55756900D02*
X60518796Y-55685471D01*
X60518796Y-55685471D02*
X60590225Y-55542614D01*
X60590225Y-55542614D02*
X60590225Y-55399757D01*
X60590225Y-55399757D02*
X60518796Y-55256900D01*
X60518796Y-55256900D02*
X60447368Y-55185471D01*
X60447368Y-55185471D02*
X60304510Y-55114042D01*
X60304510Y-55114042D02*
X60018796Y-55042614D01*
X60018796Y-55042614D02*
X59875939Y-54971185D01*
X59875939Y-54971185D02*
X59804510Y-54899757D01*
X59804510Y-54899757D02*
X59733082Y-54756900D01*
X59733082Y-54756900D02*
X59733082Y-54614042D01*
X59733082Y-54614042D02*
X59804510Y-54471185D01*
X59804510Y-54471185D02*
X59875939Y-54399757D01*
X59875939Y-54399757D02*
X60018796Y-54328328D01*
X60018796Y-54328328D02*
X60375939Y-54328328D01*
X60375939Y-54328328D02*
X60590225Y-54399757D01*
X62090224Y-55685471D02*
X62018796Y-55756900D01*
X62018796Y-55756900D02*
X61804510Y-55828328D01*
X61804510Y-55828328D02*
X61661653Y-55828328D01*
X61661653Y-55828328D02*
X61447367Y-55756900D01*
X61447367Y-55756900D02*
X61304510Y-55614042D01*
X61304510Y-55614042D02*
X61233081Y-55471185D01*
X61233081Y-55471185D02*
X61161653Y-55185471D01*
X61161653Y-55185471D02*
X61161653Y-54971185D01*
X61161653Y-54971185D02*
X61233081Y-54685471D01*
X61233081Y-54685471D02*
X61304510Y-54542614D01*
X61304510Y-54542614D02*
X61447367Y-54399757D01*
X61447367Y-54399757D02*
X61661653Y-54328328D01*
X61661653Y-54328328D02*
X61804510Y-54328328D01*
X61804510Y-54328328D02*
X62018796Y-54399757D01*
X62018796Y-54399757D02*
X62090224Y-54471185D01*
X63447367Y-55828328D02*
X62733081Y-55828328D01*
X62733081Y-55828328D02*
X62733081Y-54328328D01*
X63947367Y-55828328D02*
X63947367Y-54328328D01*
X64804510Y-55828328D02*
X64161653Y-54971185D01*
X64804510Y-54328328D02*
X63947367Y-55185471D01*
X59733082Y-40506900D02*
X59947368Y-40578328D01*
X59947368Y-40578328D02*
X60304510Y-40578328D01*
X60304510Y-40578328D02*
X60447368Y-40506900D01*
X60447368Y-40506900D02*
X60518796Y-40435471D01*
X60518796Y-40435471D02*
X60590225Y-40292614D01*
X60590225Y-40292614D02*
X60590225Y-40149757D01*
X60590225Y-40149757D02*
X60518796Y-40006900D01*
X60518796Y-40006900D02*
X60447368Y-39935471D01*
X60447368Y-39935471D02*
X60304510Y-39864042D01*
X60304510Y-39864042D02*
X60018796Y-39792614D01*
X60018796Y-39792614D02*
X59875939Y-39721185D01*
X59875939Y-39721185D02*
X59804510Y-39649757D01*
X59804510Y-39649757D02*
X59733082Y-39506900D01*
X59733082Y-39506900D02*
X59733082Y-39364042D01*
X59733082Y-39364042D02*
X59804510Y-39221185D01*
X59804510Y-39221185D02*
X59875939Y-39149757D01*
X59875939Y-39149757D02*
X60018796Y-39078328D01*
X60018796Y-39078328D02*
X60375939Y-39078328D01*
X60375939Y-39078328D02*
X60590225Y-39149757D01*
X62090224Y-40435471D02*
X62018796Y-40506900D01*
X62018796Y-40506900D02*
X61804510Y-40578328D01*
X61804510Y-40578328D02*
X61661653Y-40578328D01*
X61661653Y-40578328D02*
X61447367Y-40506900D01*
X61447367Y-40506900D02*
X61304510Y-40364042D01*
X61304510Y-40364042D02*
X61233081Y-40221185D01*
X61233081Y-40221185D02*
X61161653Y-39935471D01*
X61161653Y-39935471D02*
X61161653Y-39721185D01*
X61161653Y-39721185D02*
X61233081Y-39435471D01*
X61233081Y-39435471D02*
X61304510Y-39292614D01*
X61304510Y-39292614D02*
X61447367Y-39149757D01*
X61447367Y-39149757D02*
X61661653Y-39078328D01*
X61661653Y-39078328D02*
X61804510Y-39078328D01*
X61804510Y-39078328D02*
X62018796Y-39149757D01*
X62018796Y-39149757D02*
X62090224Y-39221185D01*
X63447367Y-40578328D02*
X62733081Y-40578328D01*
X62733081Y-40578328D02*
X62733081Y-39078328D01*
X59804510Y-43128328D02*
X59804510Y-41628328D01*
X60518796Y-43128328D02*
X60518796Y-41628328D01*
X60518796Y-41628328D02*
X61375939Y-43128328D01*
X61375939Y-43128328D02*
X61375939Y-41628328D01*
X62090225Y-42556900D02*
X63233083Y-42556900D01*
X62661654Y-43128328D02*
X62661654Y-41985471D01*
X59590225Y-46728328D02*
X60090225Y-48228328D01*
X60090225Y-48228328D02*
X60590225Y-46728328D01*
X61090224Y-48228328D02*
X61090224Y-46728328D01*
X61090224Y-46728328D02*
X61447367Y-46728328D01*
X61447367Y-46728328D02*
X61661653Y-46799757D01*
X61661653Y-46799757D02*
X61804510Y-46942614D01*
X61804510Y-46942614D02*
X61875939Y-47085471D01*
X61875939Y-47085471D02*
X61947367Y-47371185D01*
X61947367Y-47371185D02*
X61947367Y-47585471D01*
X61947367Y-47585471D02*
X61875939Y-47871185D01*
X61875939Y-47871185D02*
X61804510Y-48014042D01*
X61804510Y-48014042D02*
X61661653Y-48156900D01*
X61661653Y-48156900D02*
X61447367Y-48228328D01*
X61447367Y-48228328D02*
X61090224Y-48228328D01*
X62590224Y-48228328D02*
X62590224Y-46728328D01*
X62590224Y-46728328D02*
X62947367Y-46728328D01*
X62947367Y-46728328D02*
X63161653Y-46799757D01*
X63161653Y-46799757D02*
X63304510Y-46942614D01*
X63304510Y-46942614D02*
X63375939Y-47085471D01*
X63375939Y-47085471D02*
X63447367Y-47371185D01*
X63447367Y-47371185D02*
X63447367Y-47585471D01*
X63447367Y-47585471D02*
X63375939Y-47871185D01*
X63375939Y-47871185D02*
X63304510Y-48014042D01*
X63304510Y-48014042D02*
X63161653Y-48156900D01*
X63161653Y-48156900D02*
X62947367Y-48228328D01*
X62947367Y-48228328D02*
X62590224Y-48228328D01*
X59733082Y-38006900D02*
X59947368Y-38078328D01*
X59947368Y-38078328D02*
X60304510Y-38078328D01*
X60304510Y-38078328D02*
X60447368Y-38006900D01*
X60447368Y-38006900D02*
X60518796Y-37935471D01*
X60518796Y-37935471D02*
X60590225Y-37792614D01*
X60590225Y-37792614D02*
X60590225Y-37649757D01*
X60590225Y-37649757D02*
X60518796Y-37506900D01*
X60518796Y-37506900D02*
X60447368Y-37435471D01*
X60447368Y-37435471D02*
X60304510Y-37364042D01*
X60304510Y-37364042D02*
X60018796Y-37292614D01*
X60018796Y-37292614D02*
X59875939Y-37221185D01*
X59875939Y-37221185D02*
X59804510Y-37149757D01*
X59804510Y-37149757D02*
X59733082Y-37006900D01*
X59733082Y-37006900D02*
X59733082Y-36864042D01*
X59733082Y-36864042D02*
X59804510Y-36721185D01*
X59804510Y-36721185D02*
X59875939Y-36649757D01*
X59875939Y-36649757D02*
X60018796Y-36578328D01*
X60018796Y-36578328D02*
X60375939Y-36578328D01*
X60375939Y-36578328D02*
X60590225Y-36649757D01*
X61233081Y-38078328D02*
X61233081Y-36578328D01*
X61233081Y-36578328D02*
X61590224Y-36578328D01*
X61590224Y-36578328D02*
X61804510Y-36649757D01*
X61804510Y-36649757D02*
X61947367Y-36792614D01*
X61947367Y-36792614D02*
X62018796Y-36935471D01*
X62018796Y-36935471D02*
X62090224Y-37221185D01*
X62090224Y-37221185D02*
X62090224Y-37435471D01*
X62090224Y-37435471D02*
X62018796Y-37721185D01*
X62018796Y-37721185D02*
X61947367Y-37864042D01*
X61947367Y-37864042D02*
X61804510Y-38006900D01*
X61804510Y-38006900D02*
X61590224Y-38078328D01*
X61590224Y-38078328D02*
X61233081Y-38078328D01*
X62661653Y-37649757D02*
X63375939Y-37649757D01*
X62518796Y-38078328D02*
X63018796Y-36578328D01*
X63018796Y-36578328D02*
X63518796Y-38078328D01*
X59590225Y-33978328D02*
X60090225Y-35478328D01*
X60090225Y-35478328D02*
X60590225Y-33978328D01*
X61090224Y-35478328D02*
X61090224Y-33978328D01*
X61804510Y-35478328D02*
X61804510Y-33978328D01*
X61804510Y-33978328D02*
X62661653Y-35478328D01*
X62661653Y-35478328D02*
X62661653Y-33978328D01*
X59804510Y-60878328D02*
X59804510Y-59378328D01*
X59804510Y-59378328D02*
X60375939Y-59378328D01*
X60375939Y-59378328D02*
X60518796Y-59449757D01*
X60518796Y-59449757D02*
X60590225Y-59521185D01*
X60590225Y-59521185D02*
X60661653Y-59664042D01*
X60661653Y-59664042D02*
X60661653Y-59878328D01*
X60661653Y-59878328D02*
X60590225Y-60021185D01*
X60590225Y-60021185D02*
X60518796Y-60092614D01*
X60518796Y-60092614D02*
X60375939Y-60164042D01*
X60375939Y-60164042D02*
X59804510Y-60164042D01*
X61590225Y-59378328D02*
X61875939Y-59378328D01*
X61875939Y-59378328D02*
X62018796Y-59449757D01*
X62018796Y-59449757D02*
X62161653Y-59592614D01*
X62161653Y-59592614D02*
X62233082Y-59878328D01*
X62233082Y-59878328D02*
X62233082Y-60378328D01*
X62233082Y-60378328D02*
X62161653Y-60664042D01*
X62161653Y-60664042D02*
X62018796Y-60806900D01*
X62018796Y-60806900D02*
X61875939Y-60878328D01*
X61875939Y-60878328D02*
X61590225Y-60878328D01*
X61590225Y-60878328D02*
X61447368Y-60806900D01*
X61447368Y-60806900D02*
X61304510Y-60664042D01*
X61304510Y-60664042D02*
X61233082Y-60378328D01*
X61233082Y-60378328D02*
X61233082Y-59878328D01*
X61233082Y-59878328D02*
X61304510Y-59592614D01*
X61304510Y-59592614D02*
X61447368Y-59449757D01*
X61447368Y-59449757D02*
X61590225Y-59378328D01*
X63590225Y-60878328D02*
X62875939Y-60878328D01*
X62875939Y-60878328D02*
X62875939Y-59378328D01*
X59804510Y-50728328D02*
X59804510Y-49228328D01*
X59804510Y-49228328D02*
X60304510Y-50299757D01*
X60304510Y-50299757D02*
X60804510Y-49228328D01*
X60804510Y-49228328D02*
X60804510Y-50728328D01*
X61804511Y-49228328D02*
X62090225Y-49228328D01*
X62090225Y-49228328D02*
X62233082Y-49299757D01*
X62233082Y-49299757D02*
X62375939Y-49442614D01*
X62375939Y-49442614D02*
X62447368Y-49728328D01*
X62447368Y-49728328D02*
X62447368Y-50228328D01*
X62447368Y-50228328D02*
X62375939Y-50514042D01*
X62375939Y-50514042D02*
X62233082Y-50656900D01*
X62233082Y-50656900D02*
X62090225Y-50728328D01*
X62090225Y-50728328D02*
X61804511Y-50728328D01*
X61804511Y-50728328D02*
X61661654Y-50656900D01*
X61661654Y-50656900D02*
X61518796Y-50514042D01*
X61518796Y-50514042D02*
X61447368Y-50228328D01*
X61447368Y-50228328D02*
X61447368Y-49728328D01*
X61447368Y-49728328D02*
X61518796Y-49442614D01*
X61518796Y-49442614D02*
X61661654Y-49299757D01*
X61661654Y-49299757D02*
X61804511Y-49228328D01*
X63018797Y-50656900D02*
X63233083Y-50728328D01*
X63233083Y-50728328D02*
X63590225Y-50728328D01*
X63590225Y-50728328D02*
X63733083Y-50656900D01*
X63733083Y-50656900D02*
X63804511Y-50585471D01*
X63804511Y-50585471D02*
X63875940Y-50442614D01*
X63875940Y-50442614D02*
X63875940Y-50299757D01*
X63875940Y-50299757D02*
X63804511Y-50156900D01*
X63804511Y-50156900D02*
X63733083Y-50085471D01*
X63733083Y-50085471D02*
X63590225Y-50014042D01*
X63590225Y-50014042D02*
X63304511Y-49942614D01*
X63304511Y-49942614D02*
X63161654Y-49871185D01*
X63161654Y-49871185D02*
X63090225Y-49799757D01*
X63090225Y-49799757D02*
X63018797Y-49656900D01*
X63018797Y-49656900D02*
X63018797Y-49514042D01*
X63018797Y-49514042D02*
X63090225Y-49371185D01*
X63090225Y-49371185D02*
X63161654Y-49299757D01*
X63161654Y-49299757D02*
X63304511Y-49228328D01*
X63304511Y-49228328D02*
X63661654Y-49228328D01*
X63661654Y-49228328D02*
X63875940Y-49299757D01*
X64518796Y-50728328D02*
X64518796Y-49228328D01*
X59804510Y-45678328D02*
X59804510Y-44178328D01*
X60518796Y-45678328D02*
X60518796Y-44178328D01*
X60518796Y-44178328D02*
X61375939Y-45678328D01*
X61375939Y-45678328D02*
X61375939Y-44178328D01*
X62090225Y-45106900D02*
X63233083Y-45106900D01*
X59733082Y-58256900D02*
X59947368Y-58328328D01*
X59947368Y-58328328D02*
X60304510Y-58328328D01*
X60304510Y-58328328D02*
X60447368Y-58256900D01*
X60447368Y-58256900D02*
X60518796Y-58185471D01*
X60518796Y-58185471D02*
X60590225Y-58042614D01*
X60590225Y-58042614D02*
X60590225Y-57899757D01*
X60590225Y-57899757D02*
X60518796Y-57756900D01*
X60518796Y-57756900D02*
X60447368Y-57685471D01*
X60447368Y-57685471D02*
X60304510Y-57614042D01*
X60304510Y-57614042D02*
X60018796Y-57542614D01*
X60018796Y-57542614D02*
X59875939Y-57471185D01*
X59875939Y-57471185D02*
X59804510Y-57399757D01*
X59804510Y-57399757D02*
X59733082Y-57256900D01*
X59733082Y-57256900D02*
X59733082Y-57114042D01*
X59733082Y-57114042D02*
X59804510Y-56971185D01*
X59804510Y-56971185D02*
X59875939Y-56899757D01*
X59875939Y-56899757D02*
X60018796Y-56828328D01*
X60018796Y-56828328D02*
X60375939Y-56828328D01*
X60375939Y-56828328D02*
X60590225Y-56899757D01*
X61161653Y-58256900D02*
X61375939Y-58328328D01*
X61375939Y-58328328D02*
X61733081Y-58328328D01*
X61733081Y-58328328D02*
X61875939Y-58256900D01*
X61875939Y-58256900D02*
X61947367Y-58185471D01*
X61947367Y-58185471D02*
X62018796Y-58042614D01*
X62018796Y-58042614D02*
X62018796Y-57899757D01*
X62018796Y-57899757D02*
X61947367Y-57756900D01*
X61947367Y-57756900D02*
X61875939Y-57685471D01*
X61875939Y-57685471D02*
X61733081Y-57614042D01*
X61733081Y-57614042D02*
X61447367Y-57542614D01*
X61447367Y-57542614D02*
X61304510Y-57471185D01*
X61304510Y-57471185D02*
X61233081Y-57399757D01*
X61233081Y-57399757D02*
X61161653Y-57256900D01*
X61161653Y-57256900D02*
X61161653Y-57114042D01*
X61161653Y-57114042D02*
X61233081Y-56971185D01*
X61233081Y-56971185D02*
X61304510Y-56899757D01*
X61304510Y-56899757D02*
X61447367Y-56828328D01*
X61447367Y-56828328D02*
X61804510Y-56828328D01*
X61804510Y-56828328D02*
X62018796Y-56899757D01*
X60590225Y-61999757D02*
X60447368Y-61928328D01*
X60447368Y-61928328D02*
X60233082Y-61928328D01*
X60233082Y-61928328D02*
X60018796Y-61999757D01*
X60018796Y-61999757D02*
X59875939Y-62142614D01*
X59875939Y-62142614D02*
X59804510Y-62285471D01*
X59804510Y-62285471D02*
X59733082Y-62571185D01*
X59733082Y-62571185D02*
X59733082Y-62785471D01*
X59733082Y-62785471D02*
X59804510Y-63071185D01*
X59804510Y-63071185D02*
X59875939Y-63214042D01*
X59875939Y-63214042D02*
X60018796Y-63356900D01*
X60018796Y-63356900D02*
X60233082Y-63428328D01*
X60233082Y-63428328D02*
X60375939Y-63428328D01*
X60375939Y-63428328D02*
X60590225Y-63356900D01*
X60590225Y-63356900D02*
X60661653Y-63285471D01*
X60661653Y-63285471D02*
X60661653Y-62785471D01*
X60661653Y-62785471D02*
X60375939Y-62785471D01*
X61304510Y-63428328D02*
X61304510Y-61928328D01*
X61304510Y-61928328D02*
X62161653Y-63428328D01*
X62161653Y-63428328D02*
X62161653Y-61928328D01*
X62875939Y-63428328D02*
X62875939Y-61928328D01*
X62875939Y-61928328D02*
X63233082Y-61928328D01*
X63233082Y-61928328D02*
X63447368Y-61999757D01*
X63447368Y-61999757D02*
X63590225Y-62142614D01*
X63590225Y-62142614D02*
X63661654Y-62285471D01*
X63661654Y-62285471D02*
X63733082Y-62571185D01*
X63733082Y-62571185D02*
X63733082Y-62785471D01*
X63733082Y-62785471D02*
X63661654Y-63071185D01*
X63661654Y-63071185D02*
X63590225Y-63214042D01*
X63590225Y-63214042D02*
X63447368Y-63356900D01*
X63447368Y-63356900D02*
X63233082Y-63428328D01*
X63233082Y-63428328D02*
X62875939Y-63428328D01*
X59804510Y-53278328D02*
X59804510Y-51778328D01*
X59804510Y-51778328D02*
X60304510Y-52849757D01*
X60304510Y-52849757D02*
X60804510Y-51778328D01*
X60804510Y-51778328D02*
X60804510Y-53278328D01*
X61518796Y-53278328D02*
X61518796Y-51778328D01*
X62161654Y-53206900D02*
X62375940Y-53278328D01*
X62375940Y-53278328D02*
X62733082Y-53278328D01*
X62733082Y-53278328D02*
X62875940Y-53206900D01*
X62875940Y-53206900D02*
X62947368Y-53135471D01*
X62947368Y-53135471D02*
X63018797Y-52992614D01*
X63018797Y-52992614D02*
X63018797Y-52849757D01*
X63018797Y-52849757D02*
X62947368Y-52706900D01*
X62947368Y-52706900D02*
X62875940Y-52635471D01*
X62875940Y-52635471D02*
X62733082Y-52564042D01*
X62733082Y-52564042D02*
X62447368Y-52492614D01*
X62447368Y-52492614D02*
X62304511Y-52421185D01*
X62304511Y-52421185D02*
X62233082Y-52349757D01*
X62233082Y-52349757D02*
X62161654Y-52206900D01*
X62161654Y-52206900D02*
X62161654Y-52064042D01*
X62161654Y-52064042D02*
X62233082Y-51921185D01*
X62233082Y-51921185D02*
X62304511Y-51849757D01*
X62304511Y-51849757D02*
X62447368Y-51778328D01*
X62447368Y-51778328D02*
X62804511Y-51778328D01*
X62804511Y-51778328D02*
X63018797Y-51849757D01*
X63947368Y-51778328D02*
X64233082Y-51778328D01*
X64233082Y-51778328D02*
X64375939Y-51849757D01*
X64375939Y-51849757D02*
X64518796Y-51992614D01*
X64518796Y-51992614D02*
X64590225Y-52278328D01*
X64590225Y-52278328D02*
X64590225Y-52778328D01*
X64590225Y-52778328D02*
X64518796Y-53064042D01*
X64518796Y-53064042D02*
X64375939Y-53206900D01*
X64375939Y-53206900D02*
X64233082Y-53278328D01*
X64233082Y-53278328D02*
X63947368Y-53278328D01*
X63947368Y-53278328D02*
X63804511Y-53206900D01*
X63804511Y-53206900D02*
X63661653Y-53064042D01*
X63661653Y-53064042D02*
X63590225Y-52778328D01*
X63590225Y-52778328D02*
X63590225Y-52278328D01*
X63590225Y-52278328D02*
X63661653Y-51992614D01*
X63661653Y-51992614D02*
X63804511Y-51849757D01*
X63804511Y-51849757D02*
X63947368Y-51778328D01*
D11*
%TO.C,J3*%
X56120000Y-33480000D02*
X57450000Y-33480000D01*
X56120000Y-34810000D02*
X56120000Y-33480000D01*
X56120000Y-36080000D02*
X56120000Y-64080000D01*
X56120000Y-36080000D02*
X58780000Y-36080000D01*
X56120000Y-64080000D02*
X58780000Y-64080000D01*
X58780000Y-36080000D02*
X58780000Y-64080000D01*
%TO.C,J1*%
X69050000Y-51500000D02*
X65600000Y-51500000D01*
X65600000Y-51500000D02*
X65600000Y-43550000D01*
X65600000Y-43550000D02*
X69050000Y-43550000D01*
X69050000Y-43550000D02*
X69050000Y-51500000D01*
%TO.C,J2*%
X50300000Y-43500000D02*
X53750000Y-43500000D01*
X53750000Y-43500000D02*
X53750000Y-51450000D01*
X53750000Y-51450000D02*
X50300000Y-51450000D01*
X50300000Y-51450000D02*
X50300000Y-43500000D01*
%TD*%
M02*
