%TF.GenerationSoftware,KiCad,Pcbnew,7.0.5*%
%TF.CreationDate,2023-07-03T18:18:55+02:00*%
%TF.ProjectId,connector,636f6e6e-6563-4746-9f72-2e6b69636164,rev?*%
%TF.SameCoordinates,Original*%
%TF.FileFunction,Drillmap*%
%TF.FilePolarity,Positive*%
%FSLAX45Y45*%
G04 Gerber Fmt 4.5, Leading zero omitted, Abs format (unit mm)*
G04 Created by KiCad (PCBNEW 7.0.5) date 2023-07-03 18:18:55*
%MOMM*%
%LPD*%
G01*
G04 APERTURE LIST*
%ADD10C,0.100000*%
%ADD11C,0.200000*%
G04 APERTURE END LIST*
D10*
X6755868Y-6524995D02*
X5154733Y-6523981D01*
X6776019Y-3210000D02*
X5174885Y-3208985D01*
X7101010Y-3555151D02*
G75*
G03*
X6776019Y-3210000I-335070J10081D01*
G01*
X5174885Y-3208983D02*
G75*
G03*
X4829733Y-3533981I-10075J-335077D01*
G01*
X6755868Y-6524989D02*
G75*
G03*
X7101019Y-6200000I10082J335069D01*
G01*
X4829739Y-6178829D02*
G75*
G03*
X5154733Y-6523981I335071J-10081D01*
G01*
X7101014Y-3555151D02*
X7101019Y-6200000D01*
X4829733Y-3533981D02*
X4829738Y-6178829D01*
D11*
X5085364Y-6841624D02*
X5085364Y-6641624D01*
X5085364Y-6641624D02*
X5132983Y-6641624D01*
X5132983Y-6641624D02*
X5161555Y-6651148D01*
X5161555Y-6651148D02*
X5180603Y-6670196D01*
X5180603Y-6670196D02*
X5190126Y-6689243D01*
X5190126Y-6689243D02*
X5199650Y-6727339D01*
X5199650Y-6727339D02*
X5199650Y-6755910D01*
X5199650Y-6755910D02*
X5190126Y-6794005D01*
X5190126Y-6794005D02*
X5180603Y-6813053D01*
X5180603Y-6813053D02*
X5161555Y-6832101D01*
X5161555Y-6832101D02*
X5132983Y-6841624D01*
X5132983Y-6841624D02*
X5085364Y-6841624D01*
X5285364Y-6841624D02*
X5285364Y-6708291D01*
X5285364Y-6746386D02*
X5294888Y-6727339D01*
X5294888Y-6727339D02*
X5304412Y-6717815D01*
X5304412Y-6717815D02*
X5323460Y-6708291D01*
X5323460Y-6708291D02*
X5342507Y-6708291D01*
X5409174Y-6841624D02*
X5409174Y-6708291D01*
X5409174Y-6641624D02*
X5399650Y-6651148D01*
X5399650Y-6651148D02*
X5409174Y-6660672D01*
X5409174Y-6660672D02*
X5418698Y-6651148D01*
X5418698Y-6651148D02*
X5409174Y-6641624D01*
X5409174Y-6641624D02*
X5409174Y-6660672D01*
X5532983Y-6841624D02*
X5513936Y-6832101D01*
X5513936Y-6832101D02*
X5504412Y-6813053D01*
X5504412Y-6813053D02*
X5504412Y-6641624D01*
X5637745Y-6841624D02*
X5618698Y-6832101D01*
X5618698Y-6832101D02*
X5609174Y-6813053D01*
X5609174Y-6813053D02*
X5609174Y-6641624D01*
X5866317Y-6841624D02*
X5866317Y-6641624D01*
X5866317Y-6641624D02*
X5932983Y-6784482D01*
X5932983Y-6784482D02*
X5999650Y-6641624D01*
X5999650Y-6641624D02*
X5999650Y-6841624D01*
X6180602Y-6841624D02*
X6180602Y-6736863D01*
X6180602Y-6736863D02*
X6171079Y-6717815D01*
X6171079Y-6717815D02*
X6152031Y-6708291D01*
X6152031Y-6708291D02*
X6113936Y-6708291D01*
X6113936Y-6708291D02*
X6094888Y-6717815D01*
X6180602Y-6832101D02*
X6161555Y-6841624D01*
X6161555Y-6841624D02*
X6113936Y-6841624D01*
X6113936Y-6841624D02*
X6094888Y-6832101D01*
X6094888Y-6832101D02*
X6085364Y-6813053D01*
X6085364Y-6813053D02*
X6085364Y-6794005D01*
X6085364Y-6794005D02*
X6094888Y-6774958D01*
X6094888Y-6774958D02*
X6113936Y-6765434D01*
X6113936Y-6765434D02*
X6161555Y-6765434D01*
X6161555Y-6765434D02*
X6180602Y-6755910D01*
X6275841Y-6708291D02*
X6275841Y-6908291D01*
X6275841Y-6717815D02*
X6294888Y-6708291D01*
X6294888Y-6708291D02*
X6332983Y-6708291D01*
X6332983Y-6708291D02*
X6352031Y-6717815D01*
X6352031Y-6717815D02*
X6361555Y-6727339D01*
X6361555Y-6727339D02*
X6371079Y-6746386D01*
X6371079Y-6746386D02*
X6371079Y-6803529D01*
X6371079Y-6803529D02*
X6361555Y-6822577D01*
X6361555Y-6822577D02*
X6352031Y-6832101D01*
X6352031Y-6832101D02*
X6332983Y-6841624D01*
X6332983Y-6841624D02*
X6294888Y-6841624D01*
X6294888Y-6841624D02*
X6275841Y-6832101D01*
X6456793Y-6822577D02*
X6466317Y-6832101D01*
X6466317Y-6832101D02*
X6456793Y-6841624D01*
X6456793Y-6841624D02*
X6447269Y-6832101D01*
X6447269Y-6832101D02*
X6456793Y-6822577D01*
X6456793Y-6822577D02*
X6456793Y-6841624D01*
X6456793Y-6717815D02*
X6466317Y-6727339D01*
X6466317Y-6727339D02*
X6456793Y-6736863D01*
X6456793Y-6736863D02*
X6447269Y-6727339D01*
X6447269Y-6727339D02*
X6456793Y-6717815D01*
X6456793Y-6717815D02*
X6456793Y-6736863D01*
M02*
