%TF.GenerationSoftware,KiCad,Pcbnew,7.0.5*%
%TF.CreationDate,2023-07-03T18:18:52+02:00*%
%TF.ProjectId,connector,636f6e6e-6563-4746-9f72-2e6b69636164,rev?*%
%TF.SameCoordinates,Original*%
%TF.FileFunction,Copper,L1,Top*%
%TF.FilePolarity,Positive*%
%FSLAX46Y46*%
G04 Gerber Fmt 4.6, Leading zero omitted, Abs format (unit mm)*
G04 Created by KiCad (PCBNEW 7.0.5) date 2023-07-03 18:18:52*
%MOMM*%
%LPD*%
G01*
G04 APERTURE LIST*
G04 Aperture macros list*
%AMRoundRect*
0 Rectangle with rounded corners*
0 $1 Rounding radius*
0 $2 $3 $4 $5 $6 $7 $8 $9 X,Y pos of 4 corners*
0 Add a 4 corners polygon primitive as box body*
4,1,4,$2,$3,$4,$5,$6,$7,$8,$9,$2,$3,0*
0 Add four circle primitives for the rounded corners*
1,1,$1+$1,$2,$3*
1,1,$1+$1,$4,$5*
1,1,$1+$1,$6,$7*
1,1,$1+$1,$8,$9*
0 Add four rect primitives between the rounded corners*
20,1,$1+$1,$2,$3,$4,$5,0*
20,1,$1+$1,$4,$5,$6,$7,0*
20,1,$1+$1,$6,$7,$8,$9,0*
20,1,$1+$1,$8,$9,$2,$3,0*%
G04 Aperture macros list end*
%TA.AperFunction,ComponentPad*%
%ADD10C,1.700000*%
%TD*%
%TA.AperFunction,ComponentPad*%
%ADD11O,1.700000X1.700000*%
%TD*%
%TA.AperFunction,ComponentPad*%
%ADD12R,1.700000X1.700000*%
%TD*%
%TA.AperFunction,SMDPad,CuDef*%
%ADD13RoundRect,0.075000X0.325000X-0.075000X0.325000X0.075000X-0.325000X0.075000X-0.325000X-0.075000X0*%
%TD*%
%TA.AperFunction,SMDPad,CuDef*%
%ADD14RoundRect,0.125000X0.375000X-0.125000X0.375000X0.125000X-0.375000X0.125000X-0.375000X-0.125000X0*%
%TD*%
%TA.AperFunction,SMDPad,CuDef*%
%ADD15RoundRect,0.075000X-0.325000X0.075000X-0.325000X-0.075000X0.325000X-0.075000X0.325000X0.075000X0*%
%TD*%
%TA.AperFunction,SMDPad,CuDef*%
%ADD16RoundRect,0.125000X-0.375000X0.125000X-0.375000X-0.125000X0.375000X-0.125000X0.375000X0.125000X0*%
%TD*%
%TA.AperFunction,Conductor*%
%ADD17C,0.300000*%
%TD*%
%TA.AperFunction,Conductor*%
%ADD18C,0.200000*%
%TD*%
G04 APERTURE END LIST*
D10*
%TO.P,J3,1,Pin_1*%
%TO.N,/VIN*%
X57450000Y-34810000D03*
D11*
%TO.P,J3,2,Pin_2*%
%TO.N,/SDA1*%
X57450000Y-37350000D03*
%TO.P,J3,3,Pin_3*%
%TO.N,/SCL1*%
X57450000Y-39890000D03*
%TO.P,J3,4,Pin_4*%
%TO.N,/IN+*%
X57450000Y-42430000D03*
%TO.P,J3,5,Pin_5*%
%TO.N,/IN-*%
X57450000Y-44970000D03*
%TO.P,J3,6,Pin_6*%
%TO.N,/VDD*%
X57450000Y-47510000D03*
%TO.P,J3,7,Pin_7*%
%TO.N,/MOSI1*%
X57450000Y-50050000D03*
%TO.P,J3,8,Pin_8*%
%TO.N,/MISO1*%
X57450000Y-52590000D03*
%TO.P,J3,9,Pin_9*%
%TO.N,/SCLK*%
X57450000Y-55130000D03*
%TO.P,J3,10,Pin_10*%
%TO.N,/SS*%
X57450000Y-57670000D03*
%TO.P,J3,11,Pin_11*%
%TO.N,/POL1*%
X57450000Y-60210000D03*
D12*
%TO.P,J3,12,Pin_12*%
%TO.N,/GND*%
X57450000Y-62750000D03*
%TD*%
D13*
%TO.P,J1,1,Pin_1*%
%TO.N,/VIN*%
X66100000Y-44750000D03*
%TO.P,J1,2,Pin_2*%
%TO.N,/SDA1*%
X66100000Y-45250000D03*
%TO.P,J1,3,Pin_3*%
%TO.N,/SCL1*%
X66100000Y-45750000D03*
%TO.P,J1,4,Pin_4*%
%TO.N,/IN+*%
X66100000Y-46250000D03*
%TO.P,J1,5,Pin_5*%
%TO.N,/IN-*%
X66100000Y-46750000D03*
%TO.P,J1,6,Pin_6*%
%TO.N,/VDD*%
X66100000Y-47250000D03*
%TO.P,J1,7,Pin_7*%
%TO.N,/MOSI1*%
X66100000Y-47750000D03*
%TO.P,J1,8,Pin_8*%
%TO.N,/MISO1*%
X66100000Y-48250000D03*
%TO.P,J1,9,Pin_9*%
%TO.N,/SCLK*%
X66100000Y-48750000D03*
%TO.P,J1,10,Pin_10*%
%TO.N,/SS*%
X66100000Y-49250000D03*
%TO.P,J1,11,Pin_11*%
%TO.N,/POL1*%
X66100000Y-49750000D03*
%TO.P,J1,12,Pin_12*%
%TO.N,/GND*%
X66100000Y-50250000D03*
D14*
%TO.P,J1,MP,MountPin*%
%TO.N,unconnected-(J1-MountPin-PadMP)*%
X68600000Y-51250000D03*
X68600000Y-43750000D03*
%TD*%
D15*
%TO.P,J2,1,Pin_1*%
%TO.N,/GND*%
X53250000Y-50250000D03*
%TO.P,J2,2,Pin_2*%
%TO.N,/POL1*%
X53250000Y-49750000D03*
%TO.P,J2,3,Pin_3*%
%TO.N,/SS*%
X53250000Y-49250000D03*
%TO.P,J2,4,Pin_4*%
%TO.N,/SCLK*%
X53250000Y-48750000D03*
%TO.P,J2,5,Pin_5*%
%TO.N,/MISO1*%
X53250000Y-48250000D03*
%TO.P,J2,6,Pin_6*%
%TO.N,/MOSI1*%
X53250000Y-47750000D03*
%TO.P,J2,7,Pin_7*%
%TO.N,/VDD*%
X53250000Y-47250000D03*
%TO.P,J2,8,Pin_8*%
%TO.N,/IN-*%
X53250000Y-46750000D03*
%TO.P,J2,9,Pin_9*%
%TO.N,/IN+*%
X53250000Y-46250000D03*
%TO.P,J2,10,Pin_10*%
%TO.N,/SCL1*%
X53250000Y-45750000D03*
%TO.P,J2,11,Pin_11*%
%TO.N,/SDA1*%
X53250000Y-45250000D03*
%TO.P,J2,12,Pin_12*%
%TO.N,/VIN*%
X53250000Y-44750000D03*
D16*
%TO.P,J2,MP,MountPin*%
%TO.N,unconnected-(J2-MountPin-PadMP)*%
X50750000Y-43750000D03*
X50750000Y-51250000D03*
%TD*%
D17*
%TO.N,/VIN*%
X66100000Y-43460000D02*
X66100000Y-44750000D01*
X53250000Y-39010000D02*
X53250000Y-44750000D01*
X57450000Y-34810000D02*
X53250000Y-39010000D01*
X57450000Y-34810000D02*
X66100000Y-43460000D01*
D18*
%TO.N,/SDA1*%
X65350000Y-45250000D02*
X57450000Y-37350000D01*
X66100000Y-45250000D02*
X65350000Y-45250000D01*
X53950000Y-40850000D02*
X53950000Y-44980330D01*
X53950000Y-44980330D02*
X53680330Y-45250000D01*
X53680330Y-45250000D02*
X53250000Y-45250000D01*
X57450000Y-37350000D02*
X53950000Y-40850000D01*
%TO.N,/SCL1*%
X53900000Y-45750000D02*
X53250000Y-45750000D01*
X66100000Y-45750000D02*
X63310000Y-45750000D01*
X54350000Y-42990000D02*
X54350000Y-45300000D01*
X54350000Y-45300000D02*
X53900000Y-45750000D01*
X57450000Y-39890000D02*
X54350000Y-42990000D01*
X63310000Y-45750000D02*
X57450000Y-39890000D01*
%TO.N,/IN+*%
X61270000Y-46250000D02*
X57450000Y-42430000D01*
X66100000Y-46250000D02*
X61270000Y-46250000D01*
X57450000Y-42430000D02*
X57450000Y-42765686D01*
X57450000Y-42765686D02*
X53965686Y-46250000D01*
X53965686Y-46250000D02*
X53250000Y-46250000D01*
%TO.N,/IN-*%
X59230000Y-46750000D02*
X57450000Y-44970000D01*
X55670000Y-46750000D02*
X53250000Y-46750000D01*
X57450000Y-44970000D02*
X55670000Y-46750000D01*
X66100000Y-46750000D02*
X59230000Y-46750000D01*
%TO.N,/VDD*%
X57710000Y-47250000D02*
X57450000Y-47510000D01*
X57450000Y-47510000D02*
X57190000Y-47250000D01*
X57190000Y-47250000D02*
X53250000Y-47250000D01*
X66100000Y-47250000D02*
X57710000Y-47250000D01*
%TO.N,/MOSI1*%
X57450000Y-50050000D02*
X55150000Y-47750000D01*
X66100000Y-47750000D02*
X59750000Y-47750000D01*
X55150000Y-47750000D02*
X53250000Y-47750000D01*
X59750000Y-47750000D02*
X57450000Y-50050000D01*
%TO.N,/MISO1*%
X56300000Y-50184314D02*
X54365686Y-48250000D01*
X54365686Y-48250000D02*
X53250000Y-48250000D01*
X56300000Y-51440000D02*
X56300000Y-50184314D01*
X61790000Y-48250000D02*
X57450000Y-52590000D01*
X66100000Y-48250000D02*
X61790000Y-48250000D01*
X57450000Y-52590000D02*
X56300000Y-51440000D01*
%TO.N,/SCLK*%
X55900000Y-53580000D02*
X57450000Y-55130000D01*
X63830000Y-48750000D02*
X57450000Y-55130000D01*
X53811700Y-48750000D02*
X55900000Y-50838300D01*
X55900000Y-50838300D02*
X55900000Y-53580000D01*
X53250000Y-48750000D02*
X53811700Y-48750000D01*
X66100000Y-48750000D02*
X63830000Y-48750000D01*
%TO.N,/SS*%
X65603984Y-49250000D02*
X57450000Y-57403984D01*
X66100000Y-49250000D02*
X65603984Y-49250000D01*
X53746015Y-49250000D02*
X55500000Y-51003985D01*
X55500000Y-55720000D02*
X57450000Y-57670000D01*
X57450000Y-57403984D02*
X57450000Y-57670000D01*
X55500000Y-51003985D02*
X55500000Y-55720000D01*
X53250000Y-49250000D02*
X53746015Y-49250000D01*
%TO.N,/POL1*%
X54800000Y-50869670D02*
X54800000Y-57560000D01*
X65669670Y-49750000D02*
X64550000Y-50869670D01*
X53250000Y-49750000D02*
X53680330Y-49750000D01*
X64550000Y-50869670D02*
X64550000Y-53110000D01*
X53680330Y-49750000D02*
X54800000Y-50869670D01*
X54800000Y-57560000D02*
X57450000Y-60210000D01*
X66100000Y-49750000D02*
X65669670Y-49750000D01*
X64550000Y-53110000D02*
X57450000Y-60210000D01*
D17*
%TO.N,/GND*%
X53250000Y-58550000D02*
X57450000Y-62750000D01*
X53250000Y-50250000D02*
X53250000Y-58550000D01*
X66100000Y-54100000D02*
X57450000Y-62750000D01*
X66100000Y-50250000D02*
X66100000Y-54100000D01*
%TD*%
M02*
