%TF.GenerationSoftware,KiCad,Pcbnew,(6.0.1)*%
%TF.CreationDate,2022-02-26T19:35:59+01:00*%
%TF.ProjectId,optacon,6f707461-636f-46e2-9e6b-696361645f70,rev?*%
%TF.SameCoordinates,Original*%
%TF.FileFunction,Copper,L2,Bot*%
%TF.FilePolarity,Positive*%
%FSLAX46Y46*%
G04 Gerber Fmt 4.6, Leading zero omitted, Abs format (unit mm)*
G04 Created by KiCad (PCBNEW (6.0.1)) date 2022-02-26 19:35:59*
%MOMM*%
%LPD*%
G01*
G04 APERTURE LIST*
G04 Aperture macros list*
%AMRoundRect*
0 Rectangle with rounded corners*
0 $1 Rounding radius*
0 $2 $3 $4 $5 $6 $7 $8 $9 X,Y pos of 4 corners*
0 Add a 4 corners polygon primitive as box body*
4,1,4,$2,$3,$4,$5,$6,$7,$8,$9,$2,$3,0*
0 Add four circle primitives for the rounded corners*
1,1,$1+$1,$2,$3*
1,1,$1+$1,$4,$5*
1,1,$1+$1,$6,$7*
1,1,$1+$1,$8,$9*
0 Add four rect primitives between the rounded corners*
20,1,$1+$1,$2,$3,$4,$5,0*
20,1,$1+$1,$4,$5,$6,$7,0*
20,1,$1+$1,$6,$7,$8,$9,0*
20,1,$1+$1,$8,$9,$2,$3,0*%
G04 Aperture macros list end*
%TA.AperFunction,ComponentPad*%
%ADD10R,1.700000X1.700000*%
%TD*%
%TA.AperFunction,ComponentPad*%
%ADD11O,1.700000X1.700000*%
%TD*%
%TA.AperFunction,SMDPad,CuDef*%
%ADD12RoundRect,0.175000X-0.175000X-1.325000X0.175000X-1.325000X0.175000X1.325000X-0.175000X1.325000X0*%
%TD*%
%TA.AperFunction,SMDPad,CuDef*%
%ADD13RoundRect,0.500000X-0.500000X-0.500000X0.500000X-0.500000X0.500000X0.500000X-0.500000X0.500000X0*%
%TD*%
%TA.AperFunction,SMDPad,CuDef*%
%ADD14RoundRect,0.500000X-9.500000X-0.500000X9.500000X-0.500000X9.500000X0.500000X-9.500000X0.500000X0*%
%TD*%
%TA.AperFunction,ViaPad*%
%ADD15C,0.800000*%
%TD*%
%TA.AperFunction,Conductor*%
%ADD16C,0.500000*%
%TD*%
%TA.AperFunction,Conductor*%
%ADD17C,0.200000*%
%TD*%
%TA.AperFunction,Conductor*%
%ADD18C,0.300000*%
%TD*%
G04 APERTURE END LIST*
D10*
%TO.P,J2,1,Pin_1*%
%TO.N,/VDD*%
X91625000Y-64425000D03*
D11*
%TO.P,J2,2,Pin_2*%
%TO.N,/VBIAS*%
X94165000Y-64425000D03*
%TO.P,J2,3,Pin_3*%
%TO.N,/DIN*%
X96705000Y-64425000D03*
%TO.P,J2,4,Pin_4*%
%TO.N,/CLK*%
X99245000Y-64425000D03*
%TO.P,J2,5,Pin_5*%
%TO.N,/POL*%
X101785000Y-64425000D03*
%TO.P,J2,6,Pin_6*%
%TO.N,/LE*%
X104325000Y-64425000D03*
%TO.P,J2,7,Pin_7*%
%TO.N,/DOUT*%
X106865000Y-64425000D03*
%TO.P,J2,8,Pin_8*%
%TO.N,GND*%
X109405000Y-64425000D03*
%TD*%
D10*
%TO.P,J3,1,Pin_1*%
%TO.N,/VPP*%
X117225000Y-64450000D03*
D11*
%TO.P,J3,2,Pin_2*%
%TO.N,GND*%
X114685000Y-64450000D03*
%TD*%
D12*
%TO.P,J1,1,Pin_1*%
%TO.N,/reed1*%
X94640000Y-84000000D03*
%TO.P,J1,2,Pin_2*%
%TO.N,/reed2*%
X95640000Y-84000000D03*
%TO.P,J1,3,Pin_3*%
%TO.N,/reed3*%
X96640000Y-84000000D03*
%TO.P,J1,4,Pin_4*%
%TO.N,/reed4*%
X97640000Y-84000000D03*
%TO.P,J1,5,Pin_5*%
%TO.N,/reed5*%
X98640000Y-84000000D03*
%TO.P,J1,6,Pin_6*%
%TO.N,/reed6*%
X99640000Y-84000000D03*
%TO.P,J1,7,Pin_7*%
%TO.N,/reed7*%
X100640000Y-84000000D03*
%TO.P,J1,8,Pin_8*%
%TO.N,/reed8*%
X101640000Y-84000000D03*
%TO.P,J1,9,Pin_9*%
%TO.N,/reed9*%
X102640000Y-84000000D03*
%TO.P,J1,10,Pin_10*%
%TO.N,/reed10*%
X103640000Y-84000000D03*
%TO.P,J1,11,Pin_11*%
%TO.N,/reed11*%
X104640000Y-84000000D03*
%TO.P,J1,12,Pin_12*%
%TO.N,/reed12*%
X105640000Y-84000000D03*
%TO.P,J1,13,Pin_13*%
%TO.N,/reed13*%
X106640000Y-84000000D03*
%TO.P,J1,14,Pin_14*%
%TO.N,/reed14*%
X107640000Y-84000000D03*
%TO.P,J1,15,Pin_15*%
%TO.N,/reed15*%
X108640000Y-84000000D03*
%TO.P,J1,16,Pin_16*%
%TO.N,/reed16*%
X109640000Y-84000000D03*
%TO.P,J1,17,Pin_17*%
%TO.N,/reed17*%
X110640000Y-84000000D03*
%TO.P,J1,18,Pin_18*%
%TO.N,/reed18*%
X111640000Y-84000000D03*
%TO.P,J1,19,Pin_19*%
%TO.N,/reed19*%
X112640000Y-84000000D03*
%TO.P,J1,20,Pin_20*%
%TO.N,/reed20*%
X113640000Y-84000000D03*
D13*
%TO.P,J1,21,Pin_21*%
%TO.N,/PZT+*%
X117140000Y-87500000D03*
X91140000Y-87500000D03*
D14*
X104140000Y-87500000D03*
D13*
%TO.P,J1,22,Pin_22*%
%TO.N,/PZT-*%
X117140000Y-84500000D03*
X91140000Y-84500000D03*
%TD*%
D15*
%TO.N,/PZT+*%
X98680000Y-87500000D03*
X107680000Y-87500000D03*
X96680000Y-87500000D03*
X117140000Y-87500000D03*
X94680000Y-87500000D03*
X102680000Y-87500000D03*
X113710000Y-87500000D03*
X101680000Y-87500000D03*
X97680000Y-87500000D03*
X99680000Y-87500000D03*
X108680000Y-87500000D03*
X111680000Y-87500000D03*
X109680000Y-87500000D03*
X103680000Y-87500000D03*
X91140000Y-87500000D03*
X110680000Y-87500000D03*
X105680000Y-87500000D03*
X112680000Y-87500000D03*
X95680000Y-87500000D03*
X104680000Y-87500000D03*
X106680000Y-87500000D03*
X100680000Y-87500000D03*
X103475000Y-75925000D03*
%TO.N,/PZT-*%
X91140000Y-84500000D03*
X94150000Y-74750000D03*
X117100000Y-77500000D03*
X104500000Y-75000000D03*
X117140000Y-84500000D03*
%TO.N,Net-(U1-Pad24)*%
X96275000Y-69975000D03*
X109875000Y-68075000D03*
%TO.N,/reed20*%
X113640000Y-83775000D03*
%TO.N,/reed19*%
X112640000Y-84500000D03*
%TO.N,/reed18*%
X111650000Y-83750000D03*
%TO.N,/reed17*%
X110640000Y-84500000D03*
%TO.N,/reed16*%
X109640000Y-83875000D03*
%TO.N,/reed15*%
X108640000Y-84500000D03*
%TO.N,/reed14*%
X107625000Y-83750000D03*
%TO.N,/reed13*%
X106640000Y-84500000D03*
%TO.N,/reed12*%
X105625000Y-83850000D03*
%TO.N,/reed11*%
X104640000Y-84500000D03*
%TO.N,/reed10*%
X103640000Y-83825000D03*
%TO.N,/reed9*%
X102640000Y-84500000D03*
%TO.N,/reed8*%
X101650000Y-83850000D03*
%TO.N,/reed7*%
X100640000Y-84500000D03*
%TO.N,/reed6*%
X99625000Y-83875000D03*
%TO.N,/reed5*%
X98640000Y-84500000D03*
%TO.N,/reed4*%
X97625000Y-83800000D03*
%TO.N,/reed3*%
X96640000Y-84500000D03*
%TO.N,/reed2*%
X95625000Y-83875000D03*
%TO.N,/reed1*%
X94640000Y-84500000D03*
%TO.N,/VDD*%
X105825000Y-66450000D03*
X98573625Y-67875500D03*
%TO.N,/VBIAS*%
X103975000Y-70925000D03*
X95150000Y-71200000D03*
%TO.N,/CLK*%
X108200000Y-67575000D03*
X101181767Y-68063489D03*
X100234542Y-69350500D03*
%TO.N,/POL*%
X98750000Y-69350500D03*
X105391867Y-67365828D03*
X102322237Y-67363989D03*
%TO.N,/LE*%
X104393541Y-67414303D03*
X97700000Y-69350500D03*
%TO.N,/DOUT*%
X106043003Y-68825500D03*
%TO.N,GND*%
X95275000Y-73250000D03*
X102942277Y-72407723D03*
X113000000Y-72150000D03*
%TO.N,/VPP*%
X114947607Y-73230306D03*
X103300000Y-73800000D03*
%TD*%
D16*
%TO.N,/PZT+*%
X91140000Y-87500000D02*
X93070000Y-85570000D01*
X93070000Y-79320000D02*
X96465000Y-75925000D01*
X93070000Y-85570000D02*
X93070000Y-79320000D01*
X96465000Y-75925000D02*
X103475000Y-75925000D01*
%TO.N,/PZT-*%
X104450000Y-74950000D02*
X94350000Y-74950000D01*
X104500000Y-75000000D02*
X104600000Y-75100000D01*
X104500000Y-75000000D02*
X104450000Y-74950000D01*
X94350000Y-74950000D02*
X94150000Y-74750000D01*
X114700000Y-75100000D02*
X117100000Y-77500000D01*
X104600000Y-75100000D02*
X114700000Y-75100000D01*
D17*
%TO.N,Net-(U1-Pad24)*%
X96275000Y-69975000D02*
X96350000Y-70050000D01*
X96350000Y-70050000D02*
X107900000Y-70050000D01*
X107900000Y-70050000D02*
X109875000Y-68075000D01*
D18*
%TO.N,/VDD*%
X98550000Y-66825000D02*
X99160022Y-66214978D01*
X99160022Y-66214978D02*
X105589978Y-66214978D01*
D17*
X98550000Y-66825000D02*
X98573625Y-66848625D01*
D18*
X105589978Y-66214978D02*
X105825000Y-66450000D01*
X94025000Y-66825000D02*
X91625000Y-64425000D01*
D17*
X98573625Y-66848625D02*
X98573625Y-67875500D01*
D18*
X98550000Y-66825000D02*
X94025000Y-66825000D01*
D17*
%TO.N,/VBIAS*%
X103875000Y-71025000D02*
X95325000Y-71025000D01*
X103975000Y-70925000D02*
X103875000Y-71025000D01*
X95325000Y-71025000D02*
X95150000Y-71200000D01*
%TO.N,/CLK*%
X101181767Y-68403275D02*
X101181767Y-68063489D01*
X108200000Y-67575000D02*
X108200000Y-68175000D01*
X103488489Y-68063489D02*
X101181767Y-68063489D01*
X106850000Y-69525000D02*
X104950000Y-69525000D01*
X104950000Y-69525000D02*
X103488489Y-68063489D01*
X108200000Y-68175000D02*
X106850000Y-69525000D01*
X100234542Y-69350500D02*
X101181767Y-68403275D01*
%TO.N,/POL*%
X105391867Y-67405222D02*
X104637895Y-68159194D01*
X100660920Y-67396680D02*
X100664944Y-67392656D01*
X105391867Y-67365828D02*
X105391867Y-67405222D01*
X98750000Y-69310755D02*
X100250787Y-67809968D01*
X100873100Y-67368332D02*
X100887679Y-67368332D01*
X100887679Y-67368332D02*
X100892023Y-67363988D01*
X98750000Y-69350500D02*
X98750000Y-69310755D01*
X103353983Y-67363989D02*
X102322237Y-67363989D01*
X100664944Y-67392656D02*
X100814705Y-67392656D01*
X104149188Y-68159194D02*
X103353983Y-67363989D01*
X100250787Y-67806437D02*
X100660544Y-67396680D01*
X104637895Y-68159194D02*
X104149188Y-68159194D01*
X100250787Y-67809968D02*
X100250787Y-67806437D01*
X100831301Y-67376060D02*
X100865372Y-67376060D01*
X100660544Y-67396680D02*
X100660920Y-67396680D01*
X100814705Y-67392656D02*
X100831301Y-67376060D01*
X100865372Y-67376060D02*
X100873100Y-67368332D01*
X100892023Y-67363988D02*
X102322237Y-67363989D01*
%TO.N,/LE*%
X102676654Y-66729161D02*
X102611981Y-66664488D01*
X100502615Y-66993146D02*
X100499460Y-66993146D01*
X100499460Y-66993146D02*
X100495436Y-66997170D01*
X101967820Y-66729161D02*
X100766600Y-66729161D01*
X103708399Y-66729161D02*
X102676654Y-66729161D01*
X99851277Y-67644484D02*
X98920761Y-68575000D01*
X100495436Y-66997170D02*
X100495060Y-66997170D01*
X102032493Y-66664488D02*
X101967820Y-66729161D01*
X98475500Y-68575000D02*
X97700000Y-69350500D01*
X102611981Y-66664488D02*
X102032493Y-66664488D01*
X100495060Y-66997170D02*
X99851276Y-67640955D01*
X98920761Y-68575000D02*
X98475500Y-68575000D01*
X104393541Y-67414303D02*
X103708399Y-66729161D01*
X99851276Y-67640955D02*
X99851277Y-67644484D01*
X100766600Y-66729161D02*
X100502615Y-66993146D01*
%TO.N,/DOUT*%
X106865000Y-68003503D02*
X106043003Y-68825500D01*
X106865000Y-64425000D02*
X106865000Y-68003503D01*
D16*
%TO.N,/VPP*%
X103300000Y-73800000D02*
X103675000Y-73425000D01*
X114752913Y-73425000D02*
X114947607Y-73230306D01*
X103675000Y-73425000D02*
X114752913Y-73425000D01*
%TD*%
%TA.AperFunction,Conductor*%
%TO.N,GND*%
G36*
X124234121Y-62428002D02*
G01*
X124280614Y-62481658D01*
X124292000Y-62534000D01*
X124292000Y-89866000D01*
X124271998Y-89934121D01*
X124218342Y-89980614D01*
X124166000Y-89992000D01*
X84334000Y-89992000D01*
X84265879Y-89971998D01*
X84219386Y-89918342D01*
X84208000Y-89866000D01*
X84208000Y-88096328D01*
X89631500Y-88096328D01*
X89631808Y-88102408D01*
X89670900Y-88296284D01*
X89746905Y-88478873D01*
X89750332Y-88483992D01*
X89750334Y-88483996D01*
X89853496Y-88638099D01*
X89853500Y-88638104D01*
X89856927Y-88643223D01*
X89996777Y-88783073D01*
X90001896Y-88786500D01*
X90001901Y-88786504D01*
X90156004Y-88889666D01*
X90156008Y-88889668D01*
X90161127Y-88893095D01*
X90343716Y-88969100D01*
X90349752Y-88970317D01*
X90349755Y-88970318D01*
X90533004Y-89007267D01*
X90537592Y-89008192D01*
X90543672Y-89008500D01*
X91736328Y-89008500D01*
X91742408Y-89008192D01*
X91746996Y-89007267D01*
X91930245Y-88970318D01*
X91930248Y-88970317D01*
X91936284Y-88969100D01*
X92118873Y-88893095D01*
X92123992Y-88889668D01*
X92123996Y-88889666D01*
X92278099Y-88786504D01*
X92278104Y-88786500D01*
X92283223Y-88783073D01*
X92423073Y-88643223D01*
X92426500Y-88638104D01*
X92426504Y-88638099D01*
X92529666Y-88483996D01*
X92529668Y-88483992D01*
X92533095Y-88478873D01*
X92609100Y-88296284D01*
X92648192Y-88102408D01*
X92648500Y-88096328D01*
X92648500Y-87116371D01*
X92668502Y-87048250D01*
X92685405Y-87027276D01*
X93558911Y-86153770D01*
X93573323Y-86141384D01*
X93584918Y-86132851D01*
X93584923Y-86132846D01*
X93590818Y-86128508D01*
X93595557Y-86122930D01*
X93595560Y-86122927D01*
X93625035Y-86088232D01*
X93631965Y-86080716D01*
X93637660Y-86075021D01*
X93642518Y-86068880D01*
X93655281Y-86052749D01*
X93658072Y-86049345D01*
X93700591Y-85999297D01*
X93700592Y-85999295D01*
X93705333Y-85993715D01*
X93708661Y-85987199D01*
X93712028Y-85982150D01*
X93715195Y-85977021D01*
X93719734Y-85971284D01*
X93750655Y-85905125D01*
X93752562Y-85901224D01*
X93782611Y-85842378D01*
X93831404Y-85790806D01*
X93900334Y-85773800D01*
X93967516Y-85796761D01*
X93983922Y-85810585D01*
X94040158Y-85866821D01*
X94046660Y-85870758D01*
X94046659Y-85870758D01*
X94122788Y-85916863D01*
X94170695Y-85969260D01*
X94182668Y-86039240D01*
X94154907Y-86104584D01*
X94127612Y-86129341D01*
X93996777Y-86216927D01*
X93856927Y-86356777D01*
X93853500Y-86361896D01*
X93853496Y-86361901D01*
X93750334Y-86516004D01*
X93750332Y-86516008D01*
X93746905Y-86521127D01*
X93670900Y-86703716D01*
X93631808Y-86897592D01*
X93631500Y-86903672D01*
X93631500Y-88096328D01*
X93631808Y-88102408D01*
X93670900Y-88296284D01*
X93746905Y-88478873D01*
X93750332Y-88483992D01*
X93750334Y-88483996D01*
X93853496Y-88638099D01*
X93853500Y-88638104D01*
X93856927Y-88643223D01*
X93996777Y-88783073D01*
X94001896Y-88786500D01*
X94001901Y-88786504D01*
X94156004Y-88889666D01*
X94156008Y-88889668D01*
X94161127Y-88893095D01*
X94343716Y-88969100D01*
X94349752Y-88970317D01*
X94349755Y-88970318D01*
X94533004Y-89007267D01*
X94537592Y-89008192D01*
X94543672Y-89008500D01*
X113736328Y-89008500D01*
X113742408Y-89008192D01*
X113746996Y-89007267D01*
X113930245Y-88970318D01*
X113930248Y-88970317D01*
X113936284Y-88969100D01*
X114118873Y-88893095D01*
X114123992Y-88889668D01*
X114123996Y-88889666D01*
X114278099Y-88786504D01*
X114278104Y-88786500D01*
X114283223Y-88783073D01*
X114423073Y-88643223D01*
X114426500Y-88638104D01*
X114426504Y-88638099D01*
X114529666Y-88483996D01*
X114529668Y-88483992D01*
X114533095Y-88478873D01*
X114609100Y-88296284D01*
X114648192Y-88102408D01*
X114648500Y-88096328D01*
X115631500Y-88096328D01*
X115631808Y-88102408D01*
X115670900Y-88296284D01*
X115746905Y-88478873D01*
X115750332Y-88483992D01*
X115750334Y-88483996D01*
X115853496Y-88638099D01*
X115853500Y-88638104D01*
X115856927Y-88643223D01*
X115996777Y-88783073D01*
X116001896Y-88786500D01*
X116001901Y-88786504D01*
X116156004Y-88889666D01*
X116156008Y-88889668D01*
X116161127Y-88893095D01*
X116343716Y-88969100D01*
X116349752Y-88970317D01*
X116349755Y-88970318D01*
X116533004Y-89007267D01*
X116537592Y-89008192D01*
X116543672Y-89008500D01*
X117736328Y-89008500D01*
X117742408Y-89008192D01*
X117746996Y-89007267D01*
X117930245Y-88970318D01*
X117930248Y-88970317D01*
X117936284Y-88969100D01*
X118118873Y-88893095D01*
X118123992Y-88889668D01*
X118123996Y-88889666D01*
X118278099Y-88786504D01*
X118278104Y-88786500D01*
X118283223Y-88783073D01*
X118423073Y-88643223D01*
X118426500Y-88638104D01*
X118426504Y-88638099D01*
X118529666Y-88483996D01*
X118529668Y-88483992D01*
X118533095Y-88478873D01*
X118609100Y-88296284D01*
X118648192Y-88102408D01*
X118648500Y-88096328D01*
X118648500Y-86903672D01*
X118648192Y-86897592D01*
X118609100Y-86703716D01*
X118533095Y-86521127D01*
X118529668Y-86516008D01*
X118529666Y-86516004D01*
X118426504Y-86361901D01*
X118426500Y-86361896D01*
X118423073Y-86356777D01*
X118283223Y-86216927D01*
X118278104Y-86213500D01*
X118278099Y-86213496D01*
X118118873Y-86106905D01*
X118119765Y-86105573D01*
X118074737Y-86061228D01*
X118059117Y-85991971D01*
X118083420Y-85925263D01*
X118119486Y-85894011D01*
X118118873Y-85893095D01*
X118278099Y-85786504D01*
X118278104Y-85786500D01*
X118283223Y-85783073D01*
X118423073Y-85643223D01*
X118426500Y-85638104D01*
X118426504Y-85638099D01*
X118529666Y-85483996D01*
X118529668Y-85483992D01*
X118533095Y-85478873D01*
X118609100Y-85296284D01*
X118616978Y-85257216D01*
X118647267Y-85106996D01*
X118647267Y-85106995D01*
X118648192Y-85102408D01*
X118648500Y-85096328D01*
X118648500Y-85000000D01*
X120386526Y-85000000D01*
X120406391Y-85252403D01*
X120407545Y-85257210D01*
X120407546Y-85257216D01*
X120418291Y-85301972D01*
X120465495Y-85498591D01*
X120467388Y-85503162D01*
X120467389Y-85503164D01*
X120507950Y-85601086D01*
X120562384Y-85732502D01*
X120694672Y-85948376D01*
X120859102Y-86140898D01*
X121051624Y-86305328D01*
X121267498Y-86437616D01*
X121272068Y-86439509D01*
X121272072Y-86439511D01*
X121496836Y-86532611D01*
X121501409Y-86534505D01*
X121586032Y-86554821D01*
X121742784Y-86592454D01*
X121742790Y-86592455D01*
X121747597Y-86593609D01*
X121847416Y-86601465D01*
X121934345Y-86608307D01*
X121934352Y-86608307D01*
X121936801Y-86608500D01*
X122063199Y-86608500D01*
X122065648Y-86608307D01*
X122065655Y-86608307D01*
X122152584Y-86601465D01*
X122252403Y-86593609D01*
X122257210Y-86592455D01*
X122257216Y-86592454D01*
X122413968Y-86554821D01*
X122498591Y-86534505D01*
X122503164Y-86532611D01*
X122727928Y-86439511D01*
X122727932Y-86439509D01*
X122732502Y-86437616D01*
X122948376Y-86305328D01*
X123140898Y-86140898D01*
X123305328Y-85948376D01*
X123437616Y-85732502D01*
X123492051Y-85601086D01*
X123532611Y-85503164D01*
X123532612Y-85503162D01*
X123534505Y-85498591D01*
X123581709Y-85301972D01*
X123592454Y-85257216D01*
X123592455Y-85257210D01*
X123593609Y-85252403D01*
X123613474Y-85000000D01*
X123593609Y-84747597D01*
X123534505Y-84501409D01*
X123437616Y-84267498D01*
X123305328Y-84051624D01*
X123140898Y-83859102D01*
X122948376Y-83694672D01*
X122732502Y-83562384D01*
X122727932Y-83560491D01*
X122727928Y-83560489D01*
X122503164Y-83467389D01*
X122503162Y-83467388D01*
X122498591Y-83465495D01*
X122413968Y-83445179D01*
X122257216Y-83407546D01*
X122257210Y-83407545D01*
X122252403Y-83406391D01*
X122152584Y-83398535D01*
X122065655Y-83391693D01*
X122065648Y-83391693D01*
X122063199Y-83391500D01*
X121936801Y-83391500D01*
X121934352Y-83391693D01*
X121934345Y-83391693D01*
X121847416Y-83398535D01*
X121747597Y-83406391D01*
X121742790Y-83407545D01*
X121742784Y-83407546D01*
X121586032Y-83445179D01*
X121501409Y-83465495D01*
X121496838Y-83467388D01*
X121496836Y-83467389D01*
X121272072Y-83560489D01*
X121272068Y-83560491D01*
X121267498Y-83562384D01*
X121051624Y-83694672D01*
X120859102Y-83859102D01*
X120694672Y-84051624D01*
X120562384Y-84267498D01*
X120465495Y-84501409D01*
X120406391Y-84747597D01*
X120386526Y-85000000D01*
X118648500Y-85000000D01*
X118648500Y-83903672D01*
X118648192Y-83897592D01*
X118647267Y-83893004D01*
X118610318Y-83709755D01*
X118610317Y-83709752D01*
X118609100Y-83703716D01*
X118533095Y-83521127D01*
X118529668Y-83516008D01*
X118529666Y-83516004D01*
X118426504Y-83361901D01*
X118426500Y-83361896D01*
X118423073Y-83356777D01*
X118283223Y-83216927D01*
X118278104Y-83213500D01*
X118278099Y-83213496D01*
X118123996Y-83110334D01*
X118123992Y-83110332D01*
X118118873Y-83106905D01*
X118113180Y-83104535D01*
X118026525Y-83068464D01*
X117936284Y-83030900D01*
X117930248Y-83029683D01*
X117930245Y-83029682D01*
X117746996Y-82992733D01*
X117746995Y-82992733D01*
X117742408Y-82991808D01*
X117736328Y-82991500D01*
X116543672Y-82991500D01*
X116537592Y-82991808D01*
X116533005Y-82992733D01*
X116533004Y-82992733D01*
X116349755Y-83029682D01*
X116349752Y-83029683D01*
X116343716Y-83030900D01*
X116253475Y-83068464D01*
X116166821Y-83104535D01*
X116161127Y-83106905D01*
X116156008Y-83110332D01*
X116156004Y-83110334D01*
X116001901Y-83213496D01*
X116001896Y-83213500D01*
X115996777Y-83216927D01*
X115856927Y-83356777D01*
X115853500Y-83361896D01*
X115853496Y-83361901D01*
X115750334Y-83516004D01*
X115750332Y-83516008D01*
X115746905Y-83521127D01*
X115670900Y-83703716D01*
X115669683Y-83709752D01*
X115669682Y-83709755D01*
X115632733Y-83893004D01*
X115631808Y-83897592D01*
X115631500Y-83903672D01*
X115631500Y-85096328D01*
X115631808Y-85102408D01*
X115632733Y-85106995D01*
X115632733Y-85106996D01*
X115663023Y-85257216D01*
X115670900Y-85296284D01*
X115746905Y-85478873D01*
X115750332Y-85483992D01*
X115750334Y-85483996D01*
X115853496Y-85638099D01*
X115853500Y-85638104D01*
X115856927Y-85643223D01*
X115996777Y-85783073D01*
X116001896Y-85786500D01*
X116001901Y-85786504D01*
X116161127Y-85893095D01*
X116160235Y-85894427D01*
X116205263Y-85938772D01*
X116220883Y-86008029D01*
X116196580Y-86074737D01*
X116160514Y-86105989D01*
X116161127Y-86106905D01*
X116001901Y-86213496D01*
X116001896Y-86213500D01*
X115996777Y-86216927D01*
X115856927Y-86356777D01*
X115853500Y-86361896D01*
X115853496Y-86361901D01*
X115750334Y-86516004D01*
X115750332Y-86516008D01*
X115746905Y-86521127D01*
X115670900Y-86703716D01*
X115631808Y-86897592D01*
X115631500Y-86903672D01*
X115631500Y-88096328D01*
X114648500Y-88096328D01*
X114648500Y-86903672D01*
X114648192Y-86897592D01*
X114609100Y-86703716D01*
X114533095Y-86521127D01*
X114529668Y-86516008D01*
X114529666Y-86516004D01*
X114426504Y-86361901D01*
X114426500Y-86361896D01*
X114423073Y-86356777D01*
X114283223Y-86216927D01*
X114152389Y-86129342D01*
X114106910Y-86074827D01*
X114098123Y-86004376D01*
X114128820Y-85940359D01*
X114157212Y-85916863D01*
X114233341Y-85870758D01*
X114233340Y-85870758D01*
X114239842Y-85866821D01*
X114356821Y-85749842D01*
X114418393Y-85648174D01*
X114438583Y-85614836D01*
X114438584Y-85614833D01*
X114442519Y-85608336D01*
X114450881Y-85581653D01*
X114489991Y-85456856D01*
X114489992Y-85456853D01*
X114491991Y-85450473D01*
X114498500Y-85379634D01*
X114498500Y-84092732D01*
X114504667Y-84053795D01*
X114506594Y-84047865D01*
X114533542Y-83964928D01*
X114539813Y-83905269D01*
X114552814Y-83781565D01*
X114553504Y-83775000D01*
X114533542Y-83585072D01*
X114504667Y-83496205D01*
X114498500Y-83457268D01*
X114498500Y-82620366D01*
X114491991Y-82549527D01*
X114442519Y-82391664D01*
X114356821Y-82250158D01*
X114239842Y-82133179D01*
X114140000Y-82072713D01*
X114104836Y-82051417D01*
X114104833Y-82051416D01*
X114098336Y-82047481D01*
X114073922Y-82039830D01*
X113946856Y-82000009D01*
X113946853Y-82000008D01*
X113940473Y-81998009D01*
X113869634Y-81991500D01*
X113410366Y-81991500D01*
X113339527Y-81998009D01*
X113333147Y-82000008D01*
X113333144Y-82000009D01*
X113181664Y-82047481D01*
X113181010Y-82045393D01*
X113121538Y-82053686D01*
X113098510Y-82046925D01*
X113098336Y-82047481D01*
X112946856Y-82000009D01*
X112946853Y-82000008D01*
X112940473Y-81998009D01*
X112869634Y-81991500D01*
X112410366Y-81991500D01*
X112339527Y-81998009D01*
X112333147Y-82000008D01*
X112333144Y-82000009D01*
X112181664Y-82047481D01*
X112181010Y-82045393D01*
X112121538Y-82053686D01*
X112098510Y-82046925D01*
X112098336Y-82047481D01*
X111946856Y-82000009D01*
X111946853Y-82000008D01*
X111940473Y-81998009D01*
X111869634Y-81991500D01*
X111410366Y-81991500D01*
X111339527Y-81998009D01*
X111333147Y-82000008D01*
X111333144Y-82000009D01*
X111181664Y-82047481D01*
X111181010Y-82045393D01*
X111121538Y-82053686D01*
X111098510Y-82046925D01*
X111098336Y-82047481D01*
X110946856Y-82000009D01*
X110946853Y-82000008D01*
X110940473Y-81998009D01*
X110869634Y-81991500D01*
X110410366Y-81991500D01*
X110339527Y-81998009D01*
X110333147Y-82000008D01*
X110333144Y-82000009D01*
X110181664Y-82047481D01*
X110181010Y-82045393D01*
X110121538Y-82053686D01*
X110098510Y-82046925D01*
X110098336Y-82047481D01*
X109946856Y-82000009D01*
X109946853Y-82000008D01*
X109940473Y-81998009D01*
X109869634Y-81991500D01*
X109410366Y-81991500D01*
X109339527Y-81998009D01*
X109333147Y-82000008D01*
X109333144Y-82000009D01*
X109181664Y-82047481D01*
X109181010Y-82045393D01*
X109121538Y-82053686D01*
X109098510Y-82046925D01*
X109098336Y-82047481D01*
X108946856Y-82000009D01*
X108946853Y-82000008D01*
X108940473Y-81998009D01*
X108869634Y-81991500D01*
X108410366Y-81991500D01*
X108339527Y-81998009D01*
X108333147Y-82000008D01*
X108333144Y-82000009D01*
X108181664Y-82047481D01*
X108181010Y-82045393D01*
X108121538Y-82053686D01*
X108098510Y-82046925D01*
X108098336Y-82047481D01*
X107946856Y-82000009D01*
X107946853Y-82000008D01*
X107940473Y-81998009D01*
X107869634Y-81991500D01*
X107410366Y-81991500D01*
X107339527Y-81998009D01*
X107333147Y-82000008D01*
X107333144Y-82000009D01*
X107181664Y-82047481D01*
X107181010Y-82045393D01*
X107121538Y-82053686D01*
X107098510Y-82046925D01*
X107098336Y-82047481D01*
X106946856Y-82000009D01*
X106946853Y-82000008D01*
X106940473Y-81998009D01*
X106869634Y-81991500D01*
X106410366Y-81991500D01*
X106339527Y-81998009D01*
X106333147Y-82000008D01*
X106333144Y-82000009D01*
X106181664Y-82047481D01*
X106181010Y-82045393D01*
X106121538Y-82053686D01*
X106098510Y-82046925D01*
X106098336Y-82047481D01*
X105946856Y-82000009D01*
X105946853Y-82000008D01*
X105940473Y-81998009D01*
X105869634Y-81991500D01*
X105410366Y-81991500D01*
X105339527Y-81998009D01*
X105333147Y-82000008D01*
X105333144Y-82000009D01*
X105181664Y-82047481D01*
X105181010Y-82045393D01*
X105121538Y-82053686D01*
X105098510Y-82046925D01*
X105098336Y-82047481D01*
X104946856Y-82000009D01*
X104946853Y-82000008D01*
X104940473Y-81998009D01*
X104869634Y-81991500D01*
X104410366Y-81991500D01*
X104339527Y-81998009D01*
X104333147Y-82000008D01*
X104333144Y-82000009D01*
X104181664Y-82047481D01*
X104181010Y-82045393D01*
X104121538Y-82053686D01*
X104098510Y-82046925D01*
X104098336Y-82047481D01*
X103946856Y-82000009D01*
X103946853Y-82000008D01*
X103940473Y-81998009D01*
X103869634Y-81991500D01*
X103410366Y-81991500D01*
X103339527Y-81998009D01*
X103333147Y-82000008D01*
X103333144Y-82000009D01*
X103181664Y-82047481D01*
X103181010Y-82045393D01*
X103121538Y-82053686D01*
X103098510Y-82046925D01*
X103098336Y-82047481D01*
X102946856Y-82000009D01*
X102946853Y-82000008D01*
X102940473Y-81998009D01*
X102869634Y-81991500D01*
X102410366Y-81991500D01*
X102339527Y-81998009D01*
X102333147Y-82000008D01*
X102333144Y-82000009D01*
X102181664Y-82047481D01*
X102181010Y-82045393D01*
X102121538Y-82053686D01*
X102098510Y-82046925D01*
X102098336Y-82047481D01*
X101946856Y-82000009D01*
X101946853Y-82000008D01*
X101940473Y-81998009D01*
X101869634Y-81991500D01*
X101410366Y-81991500D01*
X101339527Y-81998009D01*
X101333147Y-82000008D01*
X101333144Y-82000009D01*
X101181664Y-82047481D01*
X101181010Y-82045393D01*
X101121538Y-82053686D01*
X101098510Y-82046925D01*
X101098336Y-82047481D01*
X100946856Y-82000009D01*
X100946853Y-82000008D01*
X100940473Y-81998009D01*
X100869634Y-81991500D01*
X100410366Y-81991500D01*
X100339527Y-81998009D01*
X100333147Y-82000008D01*
X100333144Y-82000009D01*
X100181664Y-82047481D01*
X100181010Y-82045393D01*
X100121538Y-82053686D01*
X100098510Y-82046925D01*
X100098336Y-82047481D01*
X99946856Y-82000009D01*
X99946853Y-82000008D01*
X99940473Y-81998009D01*
X99869634Y-81991500D01*
X99410366Y-81991500D01*
X99339527Y-81998009D01*
X99333147Y-82000008D01*
X99333144Y-82000009D01*
X99181664Y-82047481D01*
X99181010Y-82045393D01*
X99121538Y-82053686D01*
X99098510Y-82046925D01*
X99098336Y-82047481D01*
X98946856Y-82000009D01*
X98946853Y-82000008D01*
X98940473Y-81998009D01*
X98869634Y-81991500D01*
X98410366Y-81991500D01*
X98339527Y-81998009D01*
X98333147Y-82000008D01*
X98333144Y-82000009D01*
X98181664Y-82047481D01*
X98181010Y-82045393D01*
X98121538Y-82053686D01*
X98098510Y-82046925D01*
X98098336Y-82047481D01*
X97946856Y-82000009D01*
X97946853Y-82000008D01*
X97940473Y-81998009D01*
X97869634Y-81991500D01*
X97410366Y-81991500D01*
X97339527Y-81998009D01*
X97333147Y-82000008D01*
X97333144Y-82000009D01*
X97181664Y-82047481D01*
X97181010Y-82045393D01*
X97121538Y-82053686D01*
X97098510Y-82046925D01*
X97098336Y-82047481D01*
X96946856Y-82000009D01*
X96946853Y-82000008D01*
X96940473Y-81998009D01*
X96869634Y-81991500D01*
X96410366Y-81991500D01*
X96339527Y-81998009D01*
X96333147Y-82000008D01*
X96333144Y-82000009D01*
X96181664Y-82047481D01*
X96181010Y-82045393D01*
X96121538Y-82053686D01*
X96098510Y-82046925D01*
X96098336Y-82047481D01*
X95946856Y-82000009D01*
X95946853Y-82000008D01*
X95940473Y-81998009D01*
X95869634Y-81991500D01*
X95410366Y-81991500D01*
X95339527Y-81998009D01*
X95333147Y-82000008D01*
X95333144Y-82000009D01*
X95181664Y-82047481D01*
X95181010Y-82045393D01*
X95121538Y-82053686D01*
X95098510Y-82046925D01*
X95098336Y-82047481D01*
X94946856Y-82000009D01*
X94946853Y-82000008D01*
X94940473Y-81998009D01*
X94869634Y-81991500D01*
X94410366Y-81991500D01*
X94339527Y-81998009D01*
X94333147Y-82000008D01*
X94333144Y-82000009D01*
X94206078Y-82039830D01*
X94181664Y-82047481D01*
X94175167Y-82051416D01*
X94175164Y-82051417D01*
X94140000Y-82072713D01*
X94040158Y-82133179D01*
X94034782Y-82138555D01*
X94032248Y-82140542D01*
X93966300Y-82166835D01*
X93896605Y-82153301D01*
X93845292Y-82104235D01*
X93828500Y-82041389D01*
X93828500Y-79686371D01*
X93848502Y-79618250D01*
X93865405Y-79597276D01*
X96742276Y-76720405D01*
X96804588Y-76686379D01*
X96831371Y-76683500D01*
X102932413Y-76683500D01*
X103006472Y-76707563D01*
X103012902Y-76712235D01*
X103012909Y-76712239D01*
X103018248Y-76716118D01*
X103024276Y-76718802D01*
X103024278Y-76718803D01*
X103186681Y-76791109D01*
X103192712Y-76793794D01*
X103286112Y-76813647D01*
X103373056Y-76832128D01*
X103373061Y-76832128D01*
X103379513Y-76833500D01*
X103570487Y-76833500D01*
X103576939Y-76832128D01*
X103576944Y-76832128D01*
X103663888Y-76813647D01*
X103757288Y-76793794D01*
X103763319Y-76791109D01*
X103925722Y-76718803D01*
X103925724Y-76718802D01*
X103931752Y-76716118D01*
X103937097Y-76712235D01*
X104077751Y-76610043D01*
X104086253Y-76603866D01*
X104214040Y-76461944D01*
X104309527Y-76296556D01*
X104368542Y-76114928D01*
X104378380Y-76021329D01*
X104405392Y-75955673D01*
X104463613Y-75915043D01*
X104503689Y-75908500D01*
X104595487Y-75908500D01*
X104601939Y-75907128D01*
X104601944Y-75907128D01*
X104775831Y-75870167D01*
X104775836Y-75870166D01*
X104782288Y-75868794D01*
X104788319Y-75866109D01*
X104792756Y-75864667D01*
X104831693Y-75858500D01*
X114333629Y-75858500D01*
X114401750Y-75878502D01*
X114422724Y-75895405D01*
X116179875Y-77652556D01*
X116210613Y-77702714D01*
X116265473Y-77871556D01*
X116360960Y-78036944D01*
X116488747Y-78178866D01*
X116643248Y-78291118D01*
X116649276Y-78293802D01*
X116649278Y-78293803D01*
X116811681Y-78366109D01*
X116817712Y-78368794D01*
X116911113Y-78388647D01*
X116998056Y-78407128D01*
X116998061Y-78407128D01*
X117004513Y-78408500D01*
X117195487Y-78408500D01*
X117201939Y-78407128D01*
X117201944Y-78407128D01*
X117288887Y-78388647D01*
X117382288Y-78368794D01*
X117388319Y-78366109D01*
X117550722Y-78293803D01*
X117550724Y-78293802D01*
X117556752Y-78291118D01*
X117711253Y-78178866D01*
X117839040Y-78036944D01*
X117934527Y-77871556D01*
X117993542Y-77689928D01*
X118013504Y-77500000D01*
X117993542Y-77310072D01*
X117934527Y-77128444D01*
X117839040Y-76963056D01*
X117722388Y-76833500D01*
X117715675Y-76826045D01*
X117715674Y-76826044D01*
X117711253Y-76821134D01*
X117570407Y-76718803D01*
X117562094Y-76712763D01*
X117562093Y-76712762D01*
X117556752Y-76708882D01*
X117550724Y-76706198D01*
X117550722Y-76706197D01*
X117388319Y-76633891D01*
X117388318Y-76633891D01*
X117382288Y-76631206D01*
X117375833Y-76629834D01*
X117375824Y-76629831D01*
X117319228Y-76617801D01*
X117256331Y-76583650D01*
X115283770Y-74611089D01*
X115271384Y-74596677D01*
X115262851Y-74585082D01*
X115262846Y-74585077D01*
X115258508Y-74579182D01*
X115252930Y-74574443D01*
X115252927Y-74574440D01*
X115218232Y-74544965D01*
X115210716Y-74538035D01*
X115205021Y-74532340D01*
X115198880Y-74527482D01*
X115182749Y-74514719D01*
X115179345Y-74511928D01*
X115129297Y-74469409D01*
X115129295Y-74469408D01*
X115123715Y-74464667D01*
X115117199Y-74461339D01*
X115112150Y-74457972D01*
X115107021Y-74454805D01*
X115101284Y-74450266D01*
X115035125Y-74419345D01*
X115031225Y-74417439D01*
X114966192Y-74384231D01*
X114966915Y-74382816D01*
X114916937Y-74345480D01*
X114892060Y-74278984D01*
X114907083Y-74209595D01*
X114957235Y-74159343D01*
X114974739Y-74151432D01*
X114988693Y-74146367D01*
X115031684Y-74138806D01*
X115043094Y-74138806D01*
X115049546Y-74137434D01*
X115049551Y-74137434D01*
X115136495Y-74118953D01*
X115229895Y-74099100D01*
X115292708Y-74071134D01*
X115398329Y-74024109D01*
X115398331Y-74024108D01*
X115404359Y-74021424D01*
X115558860Y-73909172D01*
X115686647Y-73767250D01*
X115782134Y-73601862D01*
X115841149Y-73420234D01*
X115861111Y-73230306D01*
X115841149Y-73040378D01*
X115782134Y-72858750D01*
X115770815Y-72839144D01*
X115737930Y-72782186D01*
X115686647Y-72693362D01*
X115670606Y-72675546D01*
X115563282Y-72556351D01*
X115563281Y-72556350D01*
X115558860Y-72551440D01*
X115404359Y-72439188D01*
X115398331Y-72436504D01*
X115398329Y-72436503D01*
X115235926Y-72364197D01*
X115235925Y-72364197D01*
X115229895Y-72361512D01*
X115136494Y-72341659D01*
X115049551Y-72323178D01*
X115049546Y-72323178D01*
X115043094Y-72321806D01*
X114852120Y-72321806D01*
X114845668Y-72323178D01*
X114845663Y-72323178D01*
X114758720Y-72341659D01*
X114665319Y-72361512D01*
X114659289Y-72364197D01*
X114659288Y-72364197D01*
X114496885Y-72436503D01*
X114496883Y-72436504D01*
X114490855Y-72439188D01*
X114336354Y-72551440D01*
X114270290Y-72624812D01*
X114209847Y-72662050D01*
X114176656Y-72666500D01*
X103742070Y-72666500D01*
X103723120Y-72665067D01*
X103708885Y-72662901D01*
X103708881Y-72662901D01*
X103701651Y-72661801D01*
X103694359Y-72662394D01*
X103694356Y-72662394D01*
X103648982Y-72666085D01*
X103638767Y-72666500D01*
X103630707Y-72666500D01*
X103617417Y-72668049D01*
X103602493Y-72669789D01*
X103598118Y-72670222D01*
X103532661Y-72675546D01*
X103532658Y-72675547D01*
X103525363Y-72676140D01*
X103518399Y-72678396D01*
X103512440Y-72679587D01*
X103506585Y-72680971D01*
X103499319Y-72681818D01*
X103430673Y-72706735D01*
X103426545Y-72708152D01*
X103364064Y-72728393D01*
X103364062Y-72728394D01*
X103357101Y-72730649D01*
X103350846Y-72734445D01*
X103345372Y-72736951D01*
X103339942Y-72739670D01*
X103333063Y-72742167D01*
X103326943Y-72746180D01*
X103326942Y-72746180D01*
X103272024Y-72782186D01*
X103268320Y-72784523D01*
X103205893Y-72822405D01*
X103197516Y-72829803D01*
X103197492Y-72829776D01*
X103194500Y-72832429D01*
X103191267Y-72835132D01*
X103185148Y-72839144D01*
X103180116Y-72844456D01*
X103145110Y-72881408D01*
X103079836Y-72918000D01*
X103024176Y-72929831D01*
X103024167Y-72929834D01*
X103017712Y-72931206D01*
X103011682Y-72933891D01*
X103011681Y-72933891D01*
X102849278Y-73006197D01*
X102849276Y-73006198D01*
X102843248Y-73008882D01*
X102837907Y-73012762D01*
X102837906Y-73012763D01*
X102799898Y-73040378D01*
X102688747Y-73121134D01*
X102560960Y-73263056D01*
X102465473Y-73428444D01*
X102406458Y-73610072D01*
X102386496Y-73800000D01*
X102406458Y-73989928D01*
X102417565Y-74024109D01*
X102418362Y-74026563D01*
X102420390Y-74097531D01*
X102383728Y-74158329D01*
X102320016Y-74189654D01*
X102298529Y-74191500D01*
X94925729Y-74191500D01*
X94857608Y-74171498D01*
X94832093Y-74149810D01*
X94825535Y-74142526D01*
X94761253Y-74071134D01*
X94606752Y-73958882D01*
X94600724Y-73956198D01*
X94600722Y-73956197D01*
X94438319Y-73883891D01*
X94438318Y-73883891D01*
X94432288Y-73881206D01*
X94338887Y-73861353D01*
X94251944Y-73842872D01*
X94251939Y-73842872D01*
X94245487Y-73841500D01*
X94054513Y-73841500D01*
X94048061Y-73842872D01*
X94048056Y-73842872D01*
X93961113Y-73861353D01*
X93867712Y-73881206D01*
X93861682Y-73883891D01*
X93861681Y-73883891D01*
X93699278Y-73956197D01*
X93699276Y-73956198D01*
X93693248Y-73958882D01*
X93538747Y-74071134D01*
X93410960Y-74213056D01*
X93315473Y-74378444D01*
X93256458Y-74560072D01*
X93236496Y-74750000D01*
X93256458Y-74939928D01*
X93315473Y-75121556D01*
X93410960Y-75286944D01*
X93538747Y-75428866D01*
X93693248Y-75541118D01*
X93699276Y-75543802D01*
X93699278Y-75543803D01*
X93861681Y-75616109D01*
X93867712Y-75618794D01*
X94054513Y-75658500D01*
X94056669Y-75658500D01*
X94080533Y-75664097D01*
X94083808Y-75665769D01*
X94090917Y-75667508D01*
X94096557Y-75669606D01*
X94102321Y-75671523D01*
X94108950Y-75674622D01*
X94116113Y-75676112D01*
X94116116Y-75676113D01*
X94166830Y-75686661D01*
X94180435Y-75689491D01*
X94184701Y-75690457D01*
X94255610Y-75707808D01*
X94261212Y-75708156D01*
X94261215Y-75708156D01*
X94266764Y-75708500D01*
X94266762Y-75708535D01*
X94270734Y-75708775D01*
X94274955Y-75709152D01*
X94282115Y-75710641D01*
X94359542Y-75708546D01*
X94362950Y-75708500D01*
X95304629Y-75708500D01*
X95372750Y-75728502D01*
X95419243Y-75782158D01*
X95429347Y-75852432D01*
X95399853Y-75917012D01*
X95393724Y-75923595D01*
X92581089Y-78736230D01*
X92566677Y-78748616D01*
X92555082Y-78757149D01*
X92555077Y-78757154D01*
X92549182Y-78761492D01*
X92544443Y-78767070D01*
X92544440Y-78767073D01*
X92514965Y-78801768D01*
X92508035Y-78809284D01*
X92502340Y-78814979D01*
X92500060Y-78817861D01*
X92484719Y-78837251D01*
X92481928Y-78840655D01*
X92439409Y-78890703D01*
X92434667Y-78896285D01*
X92431339Y-78902801D01*
X92427972Y-78907850D01*
X92424805Y-78912979D01*
X92420266Y-78918716D01*
X92389345Y-78984875D01*
X92387442Y-78988769D01*
X92354231Y-79053808D01*
X92352492Y-79060916D01*
X92350393Y-79066559D01*
X92348476Y-79072322D01*
X92345378Y-79078950D01*
X92343888Y-79086112D01*
X92343888Y-79086113D01*
X92330514Y-79150412D01*
X92329544Y-79154696D01*
X92312192Y-79225610D01*
X92311500Y-79236764D01*
X92311464Y-79236762D01*
X92311225Y-79240755D01*
X92310851Y-79244947D01*
X92309360Y-79252115D01*
X92309558Y-79259432D01*
X92311454Y-79329521D01*
X92311500Y-79332928D01*
X92311500Y-83000343D01*
X92291498Y-83068464D01*
X92237842Y-83114957D01*
X92167568Y-83125061D01*
X92125956Y-83111386D01*
X92123999Y-83110337D01*
X92118873Y-83106905D01*
X92113182Y-83104536D01*
X92113180Y-83104535D01*
X92026525Y-83068464D01*
X91936284Y-83030900D01*
X91930248Y-83029683D01*
X91930245Y-83029682D01*
X91746996Y-82992733D01*
X91746995Y-82992733D01*
X91742408Y-82991808D01*
X91736328Y-82991500D01*
X90543672Y-82991500D01*
X90537592Y-82991808D01*
X90533005Y-82992733D01*
X90533004Y-82992733D01*
X90349755Y-83029682D01*
X90349752Y-83029683D01*
X90343716Y-83030900D01*
X90253475Y-83068464D01*
X90166821Y-83104535D01*
X90161127Y-83106905D01*
X90156008Y-83110332D01*
X90156004Y-83110334D01*
X90001901Y-83213496D01*
X90001896Y-83213500D01*
X89996777Y-83216927D01*
X89856927Y-83356777D01*
X89853500Y-83361896D01*
X89853496Y-83361901D01*
X89750334Y-83516004D01*
X89750332Y-83516008D01*
X89746905Y-83521127D01*
X89670900Y-83703716D01*
X89669683Y-83709752D01*
X89669682Y-83709755D01*
X89632733Y-83893004D01*
X89631808Y-83897592D01*
X89631500Y-83903672D01*
X89631500Y-85096328D01*
X89631808Y-85102408D01*
X89632733Y-85106995D01*
X89632733Y-85106996D01*
X89663023Y-85257216D01*
X89670900Y-85296284D01*
X89746905Y-85478873D01*
X89750332Y-85483992D01*
X89750334Y-85483996D01*
X89853496Y-85638099D01*
X89853500Y-85638104D01*
X89856927Y-85643223D01*
X89996777Y-85783073D01*
X90001896Y-85786500D01*
X90001901Y-85786504D01*
X90161127Y-85893095D01*
X90160235Y-85894427D01*
X90205263Y-85938772D01*
X90220883Y-86008029D01*
X90196580Y-86074737D01*
X90160514Y-86105989D01*
X90161127Y-86106905D01*
X90001901Y-86213496D01*
X90001896Y-86213500D01*
X89996777Y-86216927D01*
X89856927Y-86356777D01*
X89853500Y-86361896D01*
X89853496Y-86361901D01*
X89750334Y-86516004D01*
X89750332Y-86516008D01*
X89746905Y-86521127D01*
X89670900Y-86703716D01*
X89631808Y-86897592D01*
X89631500Y-86903672D01*
X89631500Y-88096328D01*
X84208000Y-88096328D01*
X84208000Y-85000000D01*
X85386526Y-85000000D01*
X85406391Y-85252403D01*
X85407545Y-85257210D01*
X85407546Y-85257216D01*
X85418291Y-85301972D01*
X85465495Y-85498591D01*
X85467388Y-85503162D01*
X85467389Y-85503164D01*
X85507950Y-85601086D01*
X85562384Y-85732502D01*
X85694672Y-85948376D01*
X85859102Y-86140898D01*
X86051624Y-86305328D01*
X86267498Y-86437616D01*
X86272068Y-86439509D01*
X86272072Y-86439511D01*
X86496836Y-86532611D01*
X86501409Y-86534505D01*
X86586032Y-86554821D01*
X86742784Y-86592454D01*
X86742790Y-86592455D01*
X86747597Y-86593609D01*
X86847416Y-86601465D01*
X86934345Y-86608307D01*
X86934352Y-86608307D01*
X86936801Y-86608500D01*
X87063199Y-86608500D01*
X87065648Y-86608307D01*
X87065655Y-86608307D01*
X87152584Y-86601465D01*
X87252403Y-86593609D01*
X87257210Y-86592455D01*
X87257216Y-86592454D01*
X87413968Y-86554821D01*
X87498591Y-86534505D01*
X87503164Y-86532611D01*
X87727928Y-86439511D01*
X87727932Y-86439509D01*
X87732502Y-86437616D01*
X87948376Y-86305328D01*
X88140898Y-86140898D01*
X88305328Y-85948376D01*
X88437616Y-85732502D01*
X88492051Y-85601086D01*
X88532611Y-85503164D01*
X88532612Y-85503162D01*
X88534505Y-85498591D01*
X88581709Y-85301972D01*
X88592454Y-85257216D01*
X88592455Y-85257210D01*
X88593609Y-85252403D01*
X88613474Y-85000000D01*
X88593609Y-84747597D01*
X88534505Y-84501409D01*
X88437616Y-84267498D01*
X88305328Y-84051624D01*
X88140898Y-83859102D01*
X87948376Y-83694672D01*
X87732502Y-83562384D01*
X87727932Y-83560491D01*
X87727928Y-83560489D01*
X87503164Y-83467389D01*
X87503162Y-83467388D01*
X87498591Y-83465495D01*
X87413968Y-83445179D01*
X87257216Y-83407546D01*
X87257210Y-83407545D01*
X87252403Y-83406391D01*
X87152584Y-83398535D01*
X87065655Y-83391693D01*
X87065648Y-83391693D01*
X87063199Y-83391500D01*
X86936801Y-83391500D01*
X86934352Y-83391693D01*
X86934345Y-83391693D01*
X86847416Y-83398535D01*
X86747597Y-83406391D01*
X86742790Y-83407545D01*
X86742784Y-83407546D01*
X86586032Y-83445179D01*
X86501409Y-83465495D01*
X86496838Y-83467388D01*
X86496836Y-83467389D01*
X86272072Y-83560489D01*
X86272068Y-83560491D01*
X86267498Y-83562384D01*
X86051624Y-83694672D01*
X85859102Y-83859102D01*
X85694672Y-84051624D01*
X85562384Y-84267498D01*
X85465495Y-84501409D01*
X85406391Y-84747597D01*
X85386526Y-85000000D01*
X84208000Y-85000000D01*
X84208000Y-65000000D01*
X85386526Y-65000000D01*
X85406391Y-65252403D01*
X85407545Y-65257210D01*
X85407546Y-65257216D01*
X85441571Y-65398938D01*
X85465495Y-65498591D01*
X85467388Y-65503162D01*
X85467389Y-65503164D01*
X85557285Y-65720191D01*
X85562384Y-65732502D01*
X85694672Y-65948376D01*
X85859102Y-66140898D01*
X86051624Y-66305328D01*
X86267498Y-66437616D01*
X86272068Y-66439509D01*
X86272072Y-66439511D01*
X86496836Y-66532611D01*
X86501409Y-66534505D01*
X86586032Y-66554821D01*
X86742784Y-66592454D01*
X86742790Y-66592455D01*
X86747597Y-66593609D01*
X86847416Y-66601465D01*
X86934345Y-66608307D01*
X86934352Y-66608307D01*
X86936801Y-66608500D01*
X87063199Y-66608500D01*
X87065648Y-66608307D01*
X87065655Y-66608307D01*
X87152584Y-66601465D01*
X87252403Y-66593609D01*
X87257210Y-66592455D01*
X87257216Y-66592454D01*
X87413968Y-66554821D01*
X87498591Y-66534505D01*
X87503164Y-66532611D01*
X87727928Y-66439511D01*
X87727932Y-66439509D01*
X87732502Y-66437616D01*
X87948376Y-66305328D01*
X88140898Y-66140898D01*
X88305328Y-65948376D01*
X88437616Y-65732502D01*
X88442716Y-65720191D01*
X88532611Y-65503164D01*
X88532612Y-65503162D01*
X88534505Y-65498591D01*
X88558429Y-65398938D01*
X88576628Y-65323134D01*
X90266500Y-65323134D01*
X90273255Y-65385316D01*
X90324385Y-65521705D01*
X90411739Y-65638261D01*
X90528295Y-65725615D01*
X90664684Y-65776745D01*
X90726866Y-65783500D01*
X92000050Y-65783500D01*
X92068171Y-65803502D01*
X92089145Y-65820405D01*
X93501345Y-67232605D01*
X93509335Y-67241385D01*
X93513584Y-67248080D01*
X93519362Y-67253506D01*
X93519363Y-67253507D01*
X93565257Y-67296604D01*
X93568099Y-67299359D01*
X93588667Y-67319927D01*
X93592170Y-67322644D01*
X93601195Y-67330352D01*
X93634867Y-67361972D01*
X93641818Y-67365793D01*
X93641819Y-67365794D01*
X93653658Y-67372303D01*
X93670182Y-67383157D01*
X93680271Y-67390982D01*
X93687132Y-67396304D01*
X93694404Y-67399451D01*
X93694406Y-67399452D01*
X93729535Y-67414654D01*
X93740196Y-67419876D01*
X93780663Y-67442124D01*
X93801441Y-67447459D01*
X93820131Y-67453858D01*
X93839824Y-67462380D01*
X93883596Y-67469313D01*
X93885448Y-67469606D01*
X93897071Y-67472013D01*
X93925072Y-67479202D01*
X93941812Y-67483500D01*
X93963259Y-67483500D01*
X93982969Y-67485051D01*
X94004152Y-67488406D01*
X94050141Y-67484059D01*
X94061996Y-67483500D01*
X97572316Y-67483500D01*
X97640437Y-67503502D01*
X97686930Y-67557158D01*
X97697034Y-67627432D01*
X97692149Y-67648436D01*
X97680083Y-67685572D01*
X97679393Y-67692133D01*
X97679393Y-67692135D01*
X97663652Y-67841906D01*
X97660121Y-67875500D01*
X97680083Y-68065428D01*
X97739098Y-68247056D01*
X97742401Y-68252778D01*
X97742402Y-68252779D01*
X97742528Y-68252997D01*
X97742562Y-68253139D01*
X97745086Y-68258807D01*
X97744050Y-68259268D01*
X97759268Y-68321992D01*
X97736050Y-68389084D01*
X97680244Y-68432973D01*
X97633411Y-68442000D01*
X97604513Y-68442000D01*
X97598061Y-68443372D01*
X97598056Y-68443372D01*
X97511113Y-68461853D01*
X97417712Y-68481706D01*
X97411682Y-68484391D01*
X97411681Y-68484391D01*
X97249278Y-68556697D01*
X97249276Y-68556698D01*
X97243248Y-68559382D01*
X97088747Y-68671634D01*
X97084326Y-68676544D01*
X97084325Y-68676545D01*
X97025070Y-68742355D01*
X96960960Y-68813556D01*
X96865473Y-68978944D01*
X96837024Y-69066500D01*
X96833643Y-69076906D01*
X96793569Y-69135511D01*
X96728172Y-69163148D01*
X96662562Y-69153076D01*
X96563323Y-69108892D01*
X96563315Y-69108889D01*
X96557288Y-69106206D01*
X96463887Y-69086353D01*
X96376944Y-69067872D01*
X96376939Y-69067872D01*
X96370487Y-69066500D01*
X96179513Y-69066500D01*
X96173061Y-69067872D01*
X96173056Y-69067872D01*
X96086113Y-69086353D01*
X95992712Y-69106206D01*
X95986682Y-69108891D01*
X95986681Y-69108891D01*
X95824278Y-69181197D01*
X95824276Y-69181198D01*
X95818248Y-69183882D01*
X95663747Y-69296134D01*
X95535960Y-69438056D01*
X95440473Y-69603444D01*
X95381458Y-69785072D01*
X95361496Y-69975000D01*
X95362186Y-69981565D01*
X95380238Y-70153322D01*
X95367466Y-70223160D01*
X95318964Y-70275007D01*
X95250131Y-70292401D01*
X95249520Y-70292357D01*
X95245487Y-70291500D01*
X95054513Y-70291500D01*
X95048061Y-70292872D01*
X95048056Y-70292872D01*
X94961113Y-70311353D01*
X94867712Y-70331206D01*
X94861682Y-70333891D01*
X94861681Y-70333891D01*
X94699278Y-70406197D01*
X94699276Y-70406198D01*
X94693248Y-70408882D01*
X94538747Y-70521134D01*
X94534326Y-70526044D01*
X94534325Y-70526045D01*
X94426866Y-70645391D01*
X94410960Y-70663056D01*
X94315473Y-70828444D01*
X94256458Y-71010072D01*
X94236496Y-71200000D01*
X94256458Y-71389928D01*
X94315473Y-71571556D01*
X94410960Y-71736944D01*
X94538747Y-71878866D01*
X94693248Y-71991118D01*
X94699276Y-71993802D01*
X94699278Y-71993803D01*
X94861681Y-72066109D01*
X94867712Y-72068794D01*
X94961113Y-72088647D01*
X95048056Y-72107128D01*
X95048061Y-72107128D01*
X95054513Y-72108500D01*
X95245487Y-72108500D01*
X95251939Y-72107128D01*
X95251944Y-72107128D01*
X95338887Y-72088647D01*
X95432288Y-72068794D01*
X95438319Y-72066109D01*
X95600722Y-71993803D01*
X95600724Y-71993802D01*
X95606752Y-71991118D01*
X95761253Y-71878866D01*
X95889040Y-71736944D01*
X95899514Y-71718803D01*
X95912392Y-71696499D01*
X95963775Y-71647506D01*
X96021510Y-71633500D01*
X103363595Y-71633500D01*
X103431716Y-71653502D01*
X103437656Y-71657564D01*
X103518248Y-71716118D01*
X103524276Y-71718802D01*
X103524278Y-71718803D01*
X103686681Y-71791109D01*
X103692712Y-71793794D01*
X103786112Y-71813647D01*
X103873056Y-71832128D01*
X103873061Y-71832128D01*
X103879513Y-71833500D01*
X104070487Y-71833500D01*
X104076939Y-71832128D01*
X104076944Y-71832128D01*
X104163888Y-71813647D01*
X104257288Y-71793794D01*
X104263319Y-71791109D01*
X104425722Y-71718803D01*
X104425724Y-71718802D01*
X104431752Y-71716118D01*
X104586253Y-71603866D01*
X104714040Y-71461944D01*
X104809527Y-71296556D01*
X104868542Y-71114928D01*
X104888504Y-70925000D01*
X104875121Y-70797670D01*
X104887893Y-70727832D01*
X104936395Y-70675986D01*
X105000431Y-70658500D01*
X107851864Y-70658500D01*
X107868307Y-70659578D01*
X107900000Y-70663750D01*
X107908189Y-70662672D01*
X107939874Y-70658501D01*
X107939884Y-70658500D01*
X107939885Y-70658500D01*
X108039457Y-70645391D01*
X108050664Y-70643916D01*
X108050666Y-70643915D01*
X108058851Y-70642838D01*
X108206876Y-70581524D01*
X108302072Y-70508477D01*
X108302075Y-70508474D01*
X108333987Y-70483987D01*
X108339017Y-70477432D01*
X108353452Y-70458621D01*
X108364319Y-70446230D01*
X109790144Y-69020405D01*
X109852456Y-68986379D01*
X109879239Y-68983500D01*
X109970487Y-68983500D01*
X109976939Y-68982128D01*
X109976944Y-68982128D01*
X110063887Y-68963647D01*
X110157288Y-68943794D01*
X110163319Y-68941109D01*
X110325722Y-68868803D01*
X110325724Y-68868802D01*
X110331752Y-68866118D01*
X110347596Y-68854607D01*
X110410852Y-68808648D01*
X110486253Y-68753866D01*
X110501032Y-68737452D01*
X110609621Y-68616852D01*
X110609622Y-68616851D01*
X110614040Y-68611944D01*
X110709527Y-68446556D01*
X110768542Y-68264928D01*
X110770421Y-68247056D01*
X110787814Y-68081565D01*
X110788504Y-68075000D01*
X110768542Y-67885072D01*
X110709527Y-67703444D01*
X110614040Y-67538056D01*
X110583326Y-67503944D01*
X110490675Y-67401045D01*
X110490674Y-67401044D01*
X110486253Y-67396134D01*
X110384707Y-67322356D01*
X110337094Y-67287763D01*
X110337093Y-67287762D01*
X110331752Y-67283882D01*
X110325724Y-67281198D01*
X110325722Y-67281197D01*
X110163319Y-67208891D01*
X110163318Y-67208891D01*
X110157288Y-67206206D01*
X110063887Y-67186353D01*
X109976944Y-67167872D01*
X109976939Y-67167872D01*
X109970487Y-67166500D01*
X109779513Y-67166500D01*
X109773061Y-67167872D01*
X109773056Y-67167872D01*
X109686113Y-67186353D01*
X109592712Y-67206206D01*
X109586682Y-67208891D01*
X109586681Y-67208891D01*
X109424278Y-67281197D01*
X109424276Y-67281198D01*
X109418248Y-67283882D01*
X109412907Y-67287762D01*
X109412906Y-67287763D01*
X109269259Y-67392129D01*
X109202391Y-67415988D01*
X109133240Y-67399907D01*
X109083759Y-67348993D01*
X109075365Y-67329130D01*
X109071463Y-67317119D01*
X109034527Y-67203444D01*
X109013990Y-67167872D01*
X108942341Y-67043774D01*
X108939040Y-67038056D01*
X108811253Y-66896134D01*
X108712157Y-66824136D01*
X108662094Y-66787763D01*
X108662093Y-66787762D01*
X108656752Y-66783882D01*
X108650724Y-66781198D01*
X108650722Y-66781197D01*
X108488319Y-66708891D01*
X108488318Y-66708891D01*
X108482288Y-66706206D01*
X108388888Y-66686353D01*
X108301944Y-66667872D01*
X108301939Y-66667872D01*
X108295487Y-66666500D01*
X108104513Y-66666500D01*
X108098061Y-66667872D01*
X108098056Y-66667872D01*
X108011112Y-66686353D01*
X107917712Y-66706206D01*
X107911682Y-66708891D01*
X107911681Y-66708891D01*
X107749278Y-66781197D01*
X107749276Y-66781198D01*
X107743248Y-66783882D01*
X107737907Y-66787762D01*
X107737906Y-66787763D01*
X107673561Y-66834513D01*
X107606694Y-66858371D01*
X107537542Y-66842291D01*
X107488062Y-66791378D01*
X107473500Y-66732577D01*
X107473500Y-65718319D01*
X107493502Y-65650198D01*
X107544068Y-65605168D01*
X107550754Y-65601893D01*
X107558353Y-65598170D01*
X107558357Y-65598168D01*
X107562994Y-65595896D01*
X107567198Y-65592898D01*
X107567202Y-65592895D01*
X107656932Y-65528891D01*
X107744860Y-65466173D01*
X107903096Y-65308489D01*
X108033453Y-65127077D01*
X108034640Y-65127930D01*
X108081960Y-65084362D01*
X108151897Y-65072145D01*
X108217338Y-65099678D01*
X108245166Y-65131511D01*
X108302694Y-65225388D01*
X108308777Y-65233699D01*
X108448213Y-65394667D01*
X108455580Y-65401883D01*
X108619434Y-65537916D01*
X108627881Y-65543831D01*
X108811756Y-65651279D01*
X108821042Y-65655729D01*
X109020001Y-65731703D01*
X109029899Y-65734579D01*
X109133250Y-65755606D01*
X109147299Y-65754410D01*
X109151000Y-65744065D01*
X109151000Y-65743517D01*
X109659000Y-65743517D01*
X109663064Y-65757359D01*
X109676478Y-65759393D01*
X109683184Y-65758534D01*
X109693262Y-65756392D01*
X109897255Y-65695191D01*
X109906842Y-65691433D01*
X110098095Y-65597739D01*
X110106945Y-65592464D01*
X110280328Y-65468792D01*
X110288200Y-65462139D01*
X110439052Y-65311812D01*
X110445730Y-65303965D01*
X110570003Y-65131020D01*
X110575313Y-65122183D01*
X110669670Y-64931267D01*
X110673469Y-64921672D01*
X110735360Y-64717966D01*
X113353257Y-64717966D01*
X113383565Y-64852446D01*
X113386645Y-64862275D01*
X113466770Y-65059603D01*
X113471413Y-65068794D01*
X113582694Y-65250388D01*
X113588777Y-65258699D01*
X113728213Y-65419667D01*
X113735580Y-65426883D01*
X113899434Y-65562916D01*
X113907881Y-65568831D01*
X114091756Y-65676279D01*
X114101042Y-65680729D01*
X114300001Y-65756703D01*
X114309899Y-65759579D01*
X114413250Y-65780606D01*
X114427299Y-65779410D01*
X114431000Y-65769065D01*
X114431000Y-65768517D01*
X114939000Y-65768517D01*
X114943064Y-65782359D01*
X114956478Y-65784393D01*
X114963184Y-65783534D01*
X114973262Y-65781392D01*
X115177255Y-65720191D01*
X115186842Y-65716433D01*
X115378095Y-65622739D01*
X115386945Y-65617464D01*
X115560328Y-65493792D01*
X115568193Y-65487145D01*
X115672897Y-65382805D01*
X115735268Y-65348889D01*
X115806075Y-65354077D01*
X115862837Y-65396723D01*
X115879819Y-65427826D01*
X115900442Y-65482838D01*
X115924385Y-65546705D01*
X116011739Y-65663261D01*
X116128295Y-65750615D01*
X116264684Y-65801745D01*
X116326866Y-65808500D01*
X118123134Y-65808500D01*
X118185316Y-65801745D01*
X118321705Y-65750615D01*
X118438261Y-65663261D01*
X118525615Y-65546705D01*
X118576745Y-65410316D01*
X118583500Y-65348134D01*
X118583500Y-65000000D01*
X120386526Y-65000000D01*
X120406391Y-65252403D01*
X120407545Y-65257210D01*
X120407546Y-65257216D01*
X120441571Y-65398938D01*
X120465495Y-65498591D01*
X120467388Y-65503162D01*
X120467389Y-65503164D01*
X120557285Y-65720191D01*
X120562384Y-65732502D01*
X120694672Y-65948376D01*
X120859102Y-66140898D01*
X121051624Y-66305328D01*
X121267498Y-66437616D01*
X121272068Y-66439509D01*
X121272072Y-66439511D01*
X121496836Y-66532611D01*
X121501409Y-66534505D01*
X121586032Y-66554821D01*
X121742784Y-66592454D01*
X121742790Y-66592455D01*
X121747597Y-66593609D01*
X121847416Y-66601465D01*
X121934345Y-66608307D01*
X121934352Y-66608307D01*
X121936801Y-66608500D01*
X122063199Y-66608500D01*
X122065648Y-66608307D01*
X122065655Y-66608307D01*
X122152584Y-66601465D01*
X122252403Y-66593609D01*
X122257210Y-66592455D01*
X122257216Y-66592454D01*
X122413968Y-66554821D01*
X122498591Y-66534505D01*
X122503164Y-66532611D01*
X122727928Y-66439511D01*
X122727932Y-66439509D01*
X122732502Y-66437616D01*
X122948376Y-66305328D01*
X123140898Y-66140898D01*
X123305328Y-65948376D01*
X123437616Y-65732502D01*
X123442716Y-65720191D01*
X123532611Y-65503164D01*
X123532612Y-65503162D01*
X123534505Y-65498591D01*
X123558429Y-65398938D01*
X123592454Y-65257216D01*
X123592455Y-65257210D01*
X123593609Y-65252403D01*
X123613474Y-65000000D01*
X123593609Y-64747597D01*
X123587492Y-64722115D01*
X123535660Y-64506221D01*
X123534505Y-64501409D01*
X123530438Y-64491590D01*
X123439511Y-64272072D01*
X123439509Y-64272068D01*
X123437616Y-64267498D01*
X123305328Y-64051624D01*
X123140898Y-63859102D01*
X122948376Y-63694672D01*
X122732502Y-63562384D01*
X122727932Y-63560491D01*
X122727928Y-63560489D01*
X122503164Y-63467389D01*
X122503162Y-63467388D01*
X122498591Y-63465495D01*
X122413968Y-63445179D01*
X122257216Y-63407546D01*
X122257210Y-63407545D01*
X122252403Y-63406391D01*
X122152584Y-63398535D01*
X122065655Y-63391693D01*
X122065648Y-63391693D01*
X122063199Y-63391500D01*
X121936801Y-63391500D01*
X121934352Y-63391693D01*
X121934345Y-63391693D01*
X121847416Y-63398535D01*
X121747597Y-63406391D01*
X121742790Y-63407545D01*
X121742784Y-63407546D01*
X121586032Y-63445179D01*
X121501409Y-63465495D01*
X121496838Y-63467388D01*
X121496836Y-63467389D01*
X121272072Y-63560489D01*
X121272068Y-63560491D01*
X121267498Y-63562384D01*
X121051624Y-63694672D01*
X120859102Y-63859102D01*
X120694672Y-64051624D01*
X120562384Y-64267498D01*
X120560491Y-64272068D01*
X120560489Y-64272072D01*
X120469562Y-64491590D01*
X120465495Y-64501409D01*
X120464340Y-64506221D01*
X120412509Y-64722115D01*
X120406391Y-64747597D01*
X120386526Y-65000000D01*
X118583500Y-65000000D01*
X118583500Y-63551866D01*
X118576745Y-63489684D01*
X118525615Y-63353295D01*
X118438261Y-63236739D01*
X118321705Y-63149385D01*
X118185316Y-63098255D01*
X118123134Y-63091500D01*
X116326866Y-63091500D01*
X116264684Y-63098255D01*
X116128295Y-63149385D01*
X116011739Y-63236739D01*
X115924385Y-63353295D01*
X115921233Y-63361703D01*
X115921232Y-63361705D01*
X115879722Y-63472433D01*
X115837081Y-63529198D01*
X115770519Y-63553898D01*
X115701170Y-63538691D01*
X115668546Y-63513004D01*
X115617799Y-63457234D01*
X115610273Y-63450215D01*
X115443139Y-63318222D01*
X115434552Y-63312517D01*
X115248117Y-63209599D01*
X115238705Y-63205369D01*
X115037959Y-63134280D01*
X115027988Y-63131646D01*
X114956837Y-63118972D01*
X114943540Y-63120432D01*
X114939000Y-63134989D01*
X114939000Y-65768517D01*
X114431000Y-65768517D01*
X114431000Y-64722115D01*
X114426525Y-64706876D01*
X114425135Y-64705671D01*
X114417452Y-64704000D01*
X113368225Y-64704000D01*
X113354694Y-64707973D01*
X113353257Y-64717966D01*
X110735360Y-64717966D01*
X110735377Y-64717910D01*
X110737555Y-64707837D01*
X110738986Y-64696962D01*
X110736775Y-64682778D01*
X110723617Y-64679000D01*
X109677115Y-64679000D01*
X109661876Y-64683475D01*
X109660671Y-64684865D01*
X109659000Y-64692548D01*
X109659000Y-65743517D01*
X109151000Y-65743517D01*
X109151000Y-64184183D01*
X113349389Y-64184183D01*
X113350912Y-64192607D01*
X113363292Y-64196000D01*
X114412885Y-64196000D01*
X114428124Y-64191525D01*
X114429329Y-64190135D01*
X114431000Y-64182452D01*
X114431000Y-63133102D01*
X114427082Y-63119758D01*
X114412806Y-63117771D01*
X114374324Y-63123660D01*
X114364288Y-63126051D01*
X114161868Y-63192212D01*
X114152359Y-63196209D01*
X113963463Y-63294542D01*
X113954738Y-63300036D01*
X113784433Y-63427905D01*
X113776726Y-63434748D01*
X113629590Y-63588717D01*
X113623104Y-63596727D01*
X113503098Y-63772649D01*
X113498000Y-63781623D01*
X113408338Y-63974783D01*
X113404775Y-63984470D01*
X113349389Y-64184183D01*
X109151000Y-64184183D01*
X109151000Y-64152885D01*
X109659000Y-64152885D01*
X109663475Y-64168124D01*
X109664865Y-64169329D01*
X109672548Y-64171000D01*
X110723344Y-64171000D01*
X110736875Y-64167027D01*
X110738180Y-64157947D01*
X110696214Y-63990875D01*
X110692894Y-63981124D01*
X110607972Y-63785814D01*
X110603105Y-63776739D01*
X110487426Y-63597926D01*
X110481136Y-63589757D01*
X110337806Y-63432240D01*
X110330273Y-63425215D01*
X110163139Y-63293222D01*
X110154552Y-63287517D01*
X109968117Y-63184599D01*
X109958705Y-63180369D01*
X109757959Y-63109280D01*
X109747988Y-63106646D01*
X109676837Y-63093972D01*
X109663540Y-63095432D01*
X109659000Y-63109989D01*
X109659000Y-64152885D01*
X109151000Y-64152885D01*
X109151000Y-63108102D01*
X109147082Y-63094758D01*
X109132806Y-63092771D01*
X109094324Y-63098660D01*
X109084288Y-63101051D01*
X108881868Y-63167212D01*
X108872359Y-63171209D01*
X108683463Y-63269542D01*
X108674738Y-63275036D01*
X108504433Y-63402905D01*
X108496726Y-63409748D01*
X108349590Y-63563717D01*
X108343109Y-63571722D01*
X108238498Y-63725074D01*
X108183587Y-63770076D01*
X108113062Y-63778247D01*
X108049315Y-63746993D01*
X108028618Y-63722509D01*
X107947822Y-63597617D01*
X107947820Y-63597614D01*
X107945014Y-63593277D01*
X107794670Y-63428051D01*
X107790619Y-63424852D01*
X107790615Y-63424848D01*
X107623414Y-63292800D01*
X107623410Y-63292798D01*
X107619359Y-63289598D01*
X107583028Y-63269542D01*
X107536611Y-63243919D01*
X107423789Y-63181638D01*
X107418920Y-63179914D01*
X107418916Y-63179912D01*
X107218087Y-63108795D01*
X107218083Y-63108794D01*
X107213212Y-63107069D01*
X107208119Y-63106162D01*
X107208116Y-63106161D01*
X106998373Y-63068800D01*
X106998367Y-63068799D01*
X106993284Y-63067894D01*
X106919452Y-63066992D01*
X106775081Y-63065228D01*
X106775079Y-63065228D01*
X106769911Y-63065165D01*
X106549091Y-63098955D01*
X106336756Y-63168357D01*
X106138607Y-63271507D01*
X106134474Y-63274610D01*
X106134471Y-63274612D01*
X106039246Y-63346109D01*
X105959965Y-63405635D01*
X105956393Y-63409373D01*
X105823470Y-63548469D01*
X105805629Y-63567138D01*
X105698201Y-63724621D01*
X105643293Y-63769621D01*
X105572768Y-63777792D01*
X105509021Y-63746538D01*
X105488324Y-63722054D01*
X105407822Y-63597617D01*
X105407820Y-63597614D01*
X105405014Y-63593277D01*
X105254670Y-63428051D01*
X105250619Y-63424852D01*
X105250615Y-63424848D01*
X105083414Y-63292800D01*
X105083410Y-63292798D01*
X105079359Y-63289598D01*
X105043028Y-63269542D01*
X104996611Y-63243919D01*
X104883789Y-63181638D01*
X104878920Y-63179914D01*
X104878916Y-63179912D01*
X104678087Y-63108795D01*
X104678083Y-63108794D01*
X104673212Y-63107069D01*
X104668119Y-63106162D01*
X104668116Y-63106161D01*
X104458373Y-63068800D01*
X104458367Y-63068799D01*
X104453284Y-63067894D01*
X104379452Y-63066992D01*
X104235081Y-63065228D01*
X104235079Y-63065228D01*
X104229911Y-63065165D01*
X104009091Y-63098955D01*
X103796756Y-63168357D01*
X103598607Y-63271507D01*
X103594474Y-63274610D01*
X103594471Y-63274612D01*
X103499246Y-63346109D01*
X103419965Y-63405635D01*
X103416393Y-63409373D01*
X103283470Y-63548469D01*
X103265629Y-63567138D01*
X103158201Y-63724621D01*
X103103293Y-63769621D01*
X103032768Y-63777792D01*
X102969021Y-63746538D01*
X102948324Y-63722054D01*
X102867822Y-63597617D01*
X102867820Y-63597614D01*
X102865014Y-63593277D01*
X102714670Y-63428051D01*
X102710619Y-63424852D01*
X102710615Y-63424848D01*
X102543414Y-63292800D01*
X102543410Y-63292798D01*
X102539359Y-63289598D01*
X102503028Y-63269542D01*
X102456611Y-63243919D01*
X102343789Y-63181638D01*
X102338920Y-63179914D01*
X102338916Y-63179912D01*
X102138087Y-63108795D01*
X102138083Y-63108794D01*
X102133212Y-63107069D01*
X102128119Y-63106162D01*
X102128116Y-63106161D01*
X101918373Y-63068800D01*
X101918367Y-63068799D01*
X101913284Y-63067894D01*
X101839452Y-63066992D01*
X101695081Y-63065228D01*
X101695079Y-63065228D01*
X101689911Y-63065165D01*
X101469091Y-63098955D01*
X101256756Y-63168357D01*
X101058607Y-63271507D01*
X101054474Y-63274610D01*
X101054471Y-63274612D01*
X100959246Y-63346109D01*
X100879965Y-63405635D01*
X100876393Y-63409373D01*
X100743470Y-63548469D01*
X100725629Y-63567138D01*
X100618201Y-63724621D01*
X100563293Y-63769621D01*
X100492768Y-63777792D01*
X100429021Y-63746538D01*
X100408324Y-63722054D01*
X100327822Y-63597617D01*
X100327820Y-63597614D01*
X100325014Y-63593277D01*
X100174670Y-63428051D01*
X100170619Y-63424852D01*
X100170615Y-63424848D01*
X100003414Y-63292800D01*
X100003410Y-63292798D01*
X99999359Y-63289598D01*
X99963028Y-63269542D01*
X99916611Y-63243919D01*
X99803789Y-63181638D01*
X99798920Y-63179914D01*
X99798916Y-63179912D01*
X99598087Y-63108795D01*
X99598083Y-63108794D01*
X99593212Y-63107069D01*
X99588119Y-63106162D01*
X99588116Y-63106161D01*
X99378373Y-63068800D01*
X99378367Y-63068799D01*
X99373284Y-63067894D01*
X99299452Y-63066992D01*
X99155081Y-63065228D01*
X99155079Y-63065228D01*
X99149911Y-63065165D01*
X98929091Y-63098955D01*
X98716756Y-63168357D01*
X98518607Y-63271507D01*
X98514474Y-63274610D01*
X98514471Y-63274612D01*
X98419246Y-63346109D01*
X98339965Y-63405635D01*
X98336393Y-63409373D01*
X98203470Y-63548469D01*
X98185629Y-63567138D01*
X98078201Y-63724621D01*
X98023293Y-63769621D01*
X97952768Y-63777792D01*
X97889021Y-63746538D01*
X97868324Y-63722054D01*
X97787822Y-63597617D01*
X97787820Y-63597614D01*
X97785014Y-63593277D01*
X97634670Y-63428051D01*
X97630619Y-63424852D01*
X97630615Y-63424848D01*
X97463414Y-63292800D01*
X97463410Y-63292798D01*
X97459359Y-63289598D01*
X97423028Y-63269542D01*
X97376611Y-63243919D01*
X97263789Y-63181638D01*
X97258920Y-63179914D01*
X97258916Y-63179912D01*
X97058087Y-63108795D01*
X97058083Y-63108794D01*
X97053212Y-63107069D01*
X97048119Y-63106162D01*
X97048116Y-63106161D01*
X96838373Y-63068800D01*
X96838367Y-63068799D01*
X96833284Y-63067894D01*
X96759452Y-63066992D01*
X96615081Y-63065228D01*
X96615079Y-63065228D01*
X96609911Y-63065165D01*
X96389091Y-63098955D01*
X96176756Y-63168357D01*
X95978607Y-63271507D01*
X95974474Y-63274610D01*
X95974471Y-63274612D01*
X95879246Y-63346109D01*
X95799965Y-63405635D01*
X95796393Y-63409373D01*
X95663470Y-63548469D01*
X95645629Y-63567138D01*
X95538201Y-63724621D01*
X95483293Y-63769621D01*
X95412768Y-63777792D01*
X95349021Y-63746538D01*
X95328324Y-63722054D01*
X95247822Y-63597617D01*
X95247820Y-63597614D01*
X95245014Y-63593277D01*
X95094670Y-63428051D01*
X95090619Y-63424852D01*
X95090615Y-63424848D01*
X94923414Y-63292800D01*
X94923410Y-63292798D01*
X94919359Y-63289598D01*
X94883028Y-63269542D01*
X94836611Y-63243919D01*
X94723789Y-63181638D01*
X94718920Y-63179914D01*
X94718916Y-63179912D01*
X94518087Y-63108795D01*
X94518083Y-63108794D01*
X94513212Y-63107069D01*
X94508119Y-63106162D01*
X94508116Y-63106161D01*
X94298373Y-63068800D01*
X94298367Y-63068799D01*
X94293284Y-63067894D01*
X94219452Y-63066992D01*
X94075081Y-63065228D01*
X94075079Y-63065228D01*
X94069911Y-63065165D01*
X93849091Y-63098955D01*
X93636756Y-63168357D01*
X93438607Y-63271507D01*
X93434474Y-63274610D01*
X93434471Y-63274612D01*
X93339246Y-63346109D01*
X93259965Y-63405635D01*
X93186717Y-63482285D01*
X93179283Y-63490064D01*
X93117759Y-63525494D01*
X93046846Y-63522037D01*
X92989060Y-63480791D01*
X92970207Y-63447243D01*
X92928767Y-63336703D01*
X92925615Y-63328295D01*
X92838261Y-63211739D01*
X92721705Y-63124385D01*
X92585316Y-63073255D01*
X92523134Y-63066500D01*
X90726866Y-63066500D01*
X90664684Y-63073255D01*
X90528295Y-63124385D01*
X90411739Y-63211739D01*
X90324385Y-63328295D01*
X90273255Y-63464684D01*
X90266500Y-63526866D01*
X90266500Y-65323134D01*
X88576628Y-65323134D01*
X88592454Y-65257216D01*
X88592455Y-65257210D01*
X88593609Y-65252403D01*
X88613474Y-65000000D01*
X88593609Y-64747597D01*
X88587492Y-64722115D01*
X88535660Y-64506221D01*
X88534505Y-64501409D01*
X88530438Y-64491590D01*
X88439511Y-64272072D01*
X88439509Y-64272068D01*
X88437616Y-64267498D01*
X88305328Y-64051624D01*
X88140898Y-63859102D01*
X87948376Y-63694672D01*
X87732502Y-63562384D01*
X87727932Y-63560491D01*
X87727928Y-63560489D01*
X87503164Y-63467389D01*
X87503162Y-63467388D01*
X87498591Y-63465495D01*
X87413968Y-63445179D01*
X87257216Y-63407546D01*
X87257210Y-63407545D01*
X87252403Y-63406391D01*
X87152584Y-63398535D01*
X87065655Y-63391693D01*
X87065648Y-63391693D01*
X87063199Y-63391500D01*
X86936801Y-63391500D01*
X86934352Y-63391693D01*
X86934345Y-63391693D01*
X86847416Y-63398535D01*
X86747597Y-63406391D01*
X86742790Y-63407545D01*
X86742784Y-63407546D01*
X86586032Y-63445179D01*
X86501409Y-63465495D01*
X86496838Y-63467388D01*
X86496836Y-63467389D01*
X86272072Y-63560489D01*
X86272068Y-63560491D01*
X86267498Y-63562384D01*
X86051624Y-63694672D01*
X85859102Y-63859102D01*
X85694672Y-64051624D01*
X85562384Y-64267498D01*
X85560491Y-64272068D01*
X85560489Y-64272072D01*
X85469562Y-64491590D01*
X85465495Y-64501409D01*
X85464340Y-64506221D01*
X85412509Y-64722115D01*
X85406391Y-64747597D01*
X85386526Y-65000000D01*
X84208000Y-65000000D01*
X84208000Y-62534000D01*
X84228002Y-62465879D01*
X84281658Y-62419386D01*
X84334000Y-62408000D01*
X124166000Y-62408000D01*
X124234121Y-62428002D01*
G37*
%TD.AperFunction*%
%TD*%
M02*
