G04 #@! TF.GenerationSoftware,KiCad,Pcbnew,(6.0.2-32-g71eefc8322)*
G04 #@! TF.CreationDate,2022-06-16T10:33:20+02:00*
G04 #@! TF.ProjectId,optacon,6f707461-636f-46e2-9e6b-696361645f70,rev?*
G04 #@! TF.SameCoordinates,Original*
G04 #@! TF.FileFunction,Legend,Top*
G04 #@! TF.FilePolarity,Positive*
%FSLAX46Y46*%
G04 Gerber Fmt 4.6, Leading zero omitted, Abs format (unit mm)*
G04 Created by KiCad (PCBNEW (6.0.2-32-g71eefc8322)) date 2022-06-16 10:33:20*
%MOMM*%
%LPD*%
G01*
G04 APERTURE LIST*
G04 Aperture macros list*
%AMRoundRect*
0 Rectangle with rounded corners*
0 $1 Rounding radius*
0 $2 $3 $4 $5 $6 $7 $8 $9 X,Y pos of 4 corners*
0 Add a 4 corners polygon primitive as box body*
4,1,4,$2,$3,$4,$5,$6,$7,$8,$9,$2,$3,0*
0 Add four circle primitives for the rounded corners*
1,1,$1+$1,$2,$3*
1,1,$1+$1,$4,$5*
1,1,$1+$1,$6,$7*
1,1,$1+$1,$8,$9*
0 Add four rect primitives between the rounded corners*
20,1,$1+$1,$2,$3,$4,$5,0*
20,1,$1+$1,$4,$5,$6,$7,0*
20,1,$1+$1,$6,$7,$8,$9,0*
20,1,$1+$1,$8,$9,$2,$3,0*%
%AMRotRect*
0 Rectangle, with rotation*
0 The origin of the aperture is its center*
0 $1 length*
0 $2 width*
0 $3 Rotation angle, in degrees counterclockwise*
0 Add horizontal line*
21,1,$1,$2,0,0,$3*%
G04 Aperture macros list end*
%ADD10C,0.150000*%
%ADD11C,0.200000*%
%ADD12C,0.120000*%
%ADD13C,0.250000*%
%ADD14RoundRect,0.250000X-0.312500X-0.625000X0.312500X-0.625000X0.312500X0.625000X-0.312500X0.625000X0*%
%ADD15RoundRect,0.062500X-0.220971X-0.309359X0.309359X0.220971X0.220971X0.309359X-0.309359X-0.220971X0*%
%ADD16RoundRect,0.062500X0.220971X-0.309359X0.309359X-0.220971X-0.220971X0.309359X-0.309359X0.220971X0*%
%ADD17RotRect,3.100000X3.100000X45.000000*%
%ADD18RoundRect,0.062500X0.309359X-0.220971X-0.220971X0.309359X-0.309359X0.220971X0.220971X-0.309359X0*%
%ADD19RoundRect,0.062500X0.309359X0.220971X0.220971X0.309359X-0.309359X-0.220971X-0.220971X-0.309359X0*%
%ADD20RotRect,3.100000X3.100000X135.000000*%
%ADD21RoundRect,0.200000X0.275000X-0.200000X0.275000X0.200000X-0.275000X0.200000X-0.275000X-0.200000X0*%
%ADD22RoundRect,0.250000X0.312500X0.625000X-0.312500X0.625000X-0.312500X-0.625000X0.312500X-0.625000X0*%
%ADD23RoundRect,0.200000X-0.200000X-0.275000X0.200000X-0.275000X0.200000X0.275000X-0.200000X0.275000X0*%
%ADD24RoundRect,0.250000X0.650000X-0.325000X0.650000X0.325000X-0.650000X0.325000X-0.650000X-0.325000X0*%
%ADD25RoundRect,0.062500X-0.350000X-0.062500X0.350000X-0.062500X0.350000X0.062500X-0.350000X0.062500X0*%
%ADD26RoundRect,0.062500X-0.062500X-0.350000X0.062500X-0.350000X0.062500X0.350000X-0.062500X0.350000X0*%
%ADD27R,2.700000X2.700000*%
%ADD28RoundRect,0.200000X-0.275000X0.200000X-0.275000X-0.200000X0.275000X-0.200000X0.275000X0.200000X0*%
%ADD29RoundRect,0.225000X0.225000X0.250000X-0.225000X0.250000X-0.225000X-0.250000X0.225000X-0.250000X0*%
%ADD30RoundRect,0.250000X-0.650000X0.325000X-0.650000X-0.325000X0.650000X-0.325000X0.650000X0.325000X0*%
%ADD31R,1.100000X1.100000*%
%ADD32R,0.300000X0.800000*%
%ADD33R,0.400000X0.800000*%
%ADD34RoundRect,0.225000X0.250000X-0.225000X0.250000X0.225000X-0.250000X0.225000X-0.250000X-0.225000X0*%
%ADD35RoundRect,0.200000X0.200000X0.275000X-0.200000X0.275000X-0.200000X-0.275000X0.200000X-0.275000X0*%
%ADD36RoundRect,0.250000X1.450000X-0.250000X1.450000X0.250000X-1.450000X0.250000X-1.450000X-0.250000X0*%
%ADD37RoundRect,0.150000X-0.150000X-1.100000X0.150000X-1.100000X0.150000X1.100000X-0.150000X1.100000X0*%
%ADD38RoundRect,0.150000X-0.150000X-1.600000X0.150000X-1.600000X0.150000X1.600000X-0.150000X1.600000X0*%
%ADD39RoundRect,0.500000X-0.500000X-0.500000X0.500000X-0.500000X0.500000X0.500000X-0.500000X0.500000X0*%
G04 APERTURE END LIST*
D10*
X103700000Y-72000000D02*
X104700000Y-72000000D01*
D11*
X103875000Y-71400000D02*
X104550000Y-71400000D01*
X104550000Y-71400000D02*
X104200000Y-71900000D01*
X104200000Y-71900000D02*
X103875000Y-71400000D01*
G36*
X104200000Y-71900000D02*
G01*
X103875000Y-71400000D01*
X104550000Y-71400000D01*
X104200000Y-71900000D01*
G37*
X104200000Y-71900000D02*
X103875000Y-71400000D01*
X104550000Y-71400000D01*
X104200000Y-71900000D01*
X94276256Y-76083363D02*
X93798959Y-75606066D01*
X93798959Y-75606066D02*
X94400000Y-75500000D01*
X94400000Y-75500000D02*
X94276256Y-76083363D01*
G36*
X94276256Y-76083363D02*
G01*
X93798959Y-75606066D01*
X94400000Y-75500000D01*
X94276256Y-76083363D01*
G37*
X94276256Y-76083363D02*
X93798959Y-75606066D01*
X94400000Y-75500000D01*
X94276256Y-76083363D01*
D10*
X104200000Y-72000000D02*
X104200000Y-72800000D01*
X104200000Y-71400000D02*
X104200000Y-70400000D01*
D11*
X111800000Y-78000000D02*
X111322703Y-78477297D01*
X111322703Y-78477297D02*
X111216637Y-77876256D01*
X111216637Y-77876256D02*
X111800000Y-78000000D01*
G36*
X111800000Y-78000000D02*
G01*
X111322703Y-78477297D01*
X111216637Y-77876256D01*
X111800000Y-78000000D01*
G37*
X111800000Y-78000000D02*
X111322703Y-78477297D01*
X111216637Y-77876256D01*
X111800000Y-78000000D01*
X94375000Y-79900000D02*
X95050000Y-79900000D01*
X95050000Y-79900000D02*
X94700000Y-80400000D01*
X94700000Y-80400000D02*
X94375000Y-79900000D01*
G36*
X94700000Y-80400000D02*
G01*
X94375000Y-79900000D01*
X95050000Y-79900000D01*
X94700000Y-80400000D01*
G37*
X94700000Y-80400000D02*
X94375000Y-79900000D01*
X95050000Y-79900000D01*
X94700000Y-80400000D01*
D10*
X104200000Y-70400000D02*
X104200000Y-71900000D01*
X115233333Y-62532380D02*
X114900000Y-62056190D01*
X114661904Y-62532380D02*
X114661904Y-61532380D01*
X115042857Y-61532380D01*
X115138095Y-61580000D01*
X115185714Y-61627619D01*
X115233333Y-61722857D01*
X115233333Y-61865714D01*
X115185714Y-61960952D01*
X115138095Y-62008571D01*
X115042857Y-62056190D01*
X114661904Y-62056190D01*
X115804761Y-61960952D02*
X115709523Y-61913333D01*
X115661904Y-61865714D01*
X115614285Y-61770476D01*
X115614285Y-61722857D01*
X115661904Y-61627619D01*
X115709523Y-61580000D01*
X115804761Y-61532380D01*
X115995238Y-61532380D01*
X116090476Y-61580000D01*
X116138095Y-61627619D01*
X116185714Y-61722857D01*
X116185714Y-61770476D01*
X116138095Y-61865714D01*
X116090476Y-61913333D01*
X115995238Y-61960952D01*
X115804761Y-61960952D01*
X115709523Y-62008571D01*
X115661904Y-62056190D01*
X115614285Y-62151428D01*
X115614285Y-62341904D01*
X115661904Y-62437142D01*
X115709523Y-62484761D01*
X115804761Y-62532380D01*
X115995238Y-62532380D01*
X116090476Y-62484761D01*
X116138095Y-62437142D01*
X116185714Y-62341904D01*
X116185714Y-62151428D01*
X116138095Y-62056190D01*
X116090476Y-62008571D01*
X115995238Y-61960952D01*
X99974026Y-77051522D02*
X100546446Y-77623942D01*
X100647461Y-77657614D01*
X100714805Y-77657614D01*
X100815820Y-77623942D01*
X100950507Y-77489255D01*
X100984179Y-77388240D01*
X100984179Y-77320896D01*
X100950507Y-77219881D01*
X100378087Y-76647461D01*
X101792301Y-76647461D02*
X101388240Y-77051522D01*
X101590270Y-76849492D02*
X100883164Y-76142385D01*
X100916835Y-76310744D01*
X100916835Y-76445431D01*
X100883164Y-76546446D01*
X111874026Y-77051522D02*
X112446446Y-77623942D01*
X112547461Y-77657614D01*
X112614805Y-77657614D01*
X112715820Y-77623942D01*
X112850507Y-77489255D01*
X112884179Y-77388240D01*
X112884179Y-77320896D01*
X112850507Y-77219881D01*
X112278087Y-76647461D01*
X112648477Y-76411759D02*
X112648477Y-76344416D01*
X112682148Y-76243400D01*
X112850507Y-76075042D01*
X112951522Y-76041370D01*
X113018866Y-76041370D01*
X113119881Y-76075042D01*
X113187225Y-76142385D01*
X113254568Y-76277072D01*
X113254568Y-77085194D01*
X113692301Y-76647461D01*
X111752380Y-54866666D02*
X111276190Y-55200000D01*
X111752380Y-55438095D02*
X110752380Y-55438095D01*
X110752380Y-55057142D01*
X110800000Y-54961904D01*
X110847619Y-54914285D01*
X110942857Y-54866666D01*
X111085714Y-54866666D01*
X111180952Y-54914285D01*
X111228571Y-54961904D01*
X111276190Y-55057142D01*
X111276190Y-55438095D01*
X110752380Y-54533333D02*
X110752380Y-53914285D01*
X111133333Y-54247619D01*
X111133333Y-54104761D01*
X111180952Y-54009523D01*
X111228571Y-53961904D01*
X111323809Y-53914285D01*
X111561904Y-53914285D01*
X111657142Y-53961904D01*
X111704761Y-54009523D01*
X111752380Y-54104761D01*
X111752380Y-54390476D01*
X111704761Y-54485714D01*
X111657142Y-54533333D01*
X120333333Y-62352380D02*
X120000000Y-61876190D01*
X119761904Y-62352380D02*
X119761904Y-61352380D01*
X120142857Y-61352380D01*
X120238095Y-61400000D01*
X120285714Y-61447619D01*
X120333333Y-61542857D01*
X120333333Y-61685714D01*
X120285714Y-61780952D01*
X120238095Y-61828571D01*
X120142857Y-61876190D01*
X119761904Y-61876190D01*
X120666666Y-61352380D02*
X121333333Y-61352380D01*
X120904761Y-62352380D01*
X97433333Y-53322380D02*
X97100000Y-52846190D01*
X96861904Y-53322380D02*
X96861904Y-52322380D01*
X97242857Y-52322380D01*
X97338095Y-52370000D01*
X97385714Y-52417619D01*
X97433333Y-52512857D01*
X97433333Y-52655714D01*
X97385714Y-52750952D01*
X97338095Y-52798571D01*
X97242857Y-52846190D01*
X96861904Y-52846190D01*
X98290476Y-52322380D02*
X98100000Y-52322380D01*
X98004761Y-52370000D01*
X97957142Y-52417619D01*
X97861904Y-52560476D01*
X97814285Y-52750952D01*
X97814285Y-53131904D01*
X97861904Y-53227142D01*
X97909523Y-53274761D01*
X98004761Y-53322380D01*
X98195238Y-53322380D01*
X98290476Y-53274761D01*
X98338095Y-53227142D01*
X98385714Y-53131904D01*
X98385714Y-52893809D01*
X98338095Y-52798571D01*
X98290476Y-52750952D01*
X98195238Y-52703333D01*
X98004761Y-52703333D01*
X97909523Y-52750952D01*
X97861904Y-52798571D01*
X97814285Y-52893809D01*
X115407142Y-71066666D02*
X115454761Y-71114285D01*
X115502380Y-71257142D01*
X115502380Y-71352380D01*
X115454761Y-71495238D01*
X115359523Y-71590476D01*
X115264285Y-71638095D01*
X115073809Y-71685714D01*
X114930952Y-71685714D01*
X114740476Y-71638095D01*
X114645238Y-71590476D01*
X114550000Y-71495238D01*
X114502380Y-71352380D01*
X114502380Y-71257142D01*
X114550000Y-71114285D01*
X114597619Y-71066666D01*
X114502380Y-70161904D02*
X114502380Y-70638095D01*
X114978571Y-70685714D01*
X114930952Y-70638095D01*
X114883333Y-70542857D01*
X114883333Y-70304761D01*
X114930952Y-70209523D01*
X114978571Y-70161904D01*
X115073809Y-70114285D01*
X115311904Y-70114285D01*
X115407142Y-70161904D01*
X115454761Y-70209523D01*
X115502380Y-70304761D01*
X115502380Y-70542857D01*
X115454761Y-70638095D01*
X115407142Y-70685714D01*
X104138095Y-54232380D02*
X104138095Y-55041904D01*
X104185714Y-55137142D01*
X104233333Y-55184761D01*
X104328571Y-55232380D01*
X104519047Y-55232380D01*
X104614285Y-55184761D01*
X104661904Y-55137142D01*
X104709523Y-55041904D01*
X104709523Y-54232380D01*
X105090476Y-54232380D02*
X105709523Y-54232380D01*
X105376190Y-54613333D01*
X105519047Y-54613333D01*
X105614285Y-54660952D01*
X105661904Y-54708571D01*
X105709523Y-54803809D01*
X105709523Y-55041904D01*
X105661904Y-55137142D01*
X105614285Y-55184761D01*
X105519047Y-55232380D01*
X105233333Y-55232380D01*
X105138095Y-55184761D01*
X105090476Y-55137142D01*
X99182380Y-60266666D02*
X98706190Y-60600000D01*
X99182380Y-60838095D02*
X98182380Y-60838095D01*
X98182380Y-60457142D01*
X98230000Y-60361904D01*
X98277619Y-60314285D01*
X98372857Y-60266666D01*
X98515714Y-60266666D01*
X98610952Y-60314285D01*
X98658571Y-60361904D01*
X98706190Y-60457142D01*
X98706190Y-60838095D01*
X98277619Y-59885714D02*
X98230000Y-59838095D01*
X98182380Y-59742857D01*
X98182380Y-59504761D01*
X98230000Y-59409523D01*
X98277619Y-59361904D01*
X98372857Y-59314285D01*
X98468095Y-59314285D01*
X98610952Y-59361904D01*
X99182380Y-59933333D01*
X99182380Y-59314285D01*
X102033333Y-53257142D02*
X101985714Y-53304761D01*
X101842857Y-53352380D01*
X101747619Y-53352380D01*
X101604761Y-53304761D01*
X101509523Y-53209523D01*
X101461904Y-53114285D01*
X101414285Y-52923809D01*
X101414285Y-52780952D01*
X101461904Y-52590476D01*
X101509523Y-52495238D01*
X101604761Y-52400000D01*
X101747619Y-52352380D01*
X101842857Y-52352380D01*
X101985714Y-52400000D01*
X102033333Y-52447619D01*
X102366666Y-52352380D02*
X102985714Y-52352380D01*
X102652380Y-52733333D01*
X102795238Y-52733333D01*
X102890476Y-52780952D01*
X102938095Y-52828571D01*
X102985714Y-52923809D01*
X102985714Y-53161904D01*
X102938095Y-53257142D01*
X102890476Y-53304761D01*
X102795238Y-53352380D01*
X102509523Y-53352380D01*
X102414285Y-53304761D01*
X102366666Y-53257142D01*
X111807142Y-60266666D02*
X111854761Y-60314285D01*
X111902380Y-60457142D01*
X111902380Y-60552380D01*
X111854761Y-60695238D01*
X111759523Y-60790476D01*
X111664285Y-60838095D01*
X111473809Y-60885714D01*
X111330952Y-60885714D01*
X111140476Y-60838095D01*
X111045238Y-60790476D01*
X110950000Y-60695238D01*
X110902380Y-60552380D01*
X110902380Y-60457142D01*
X110950000Y-60314285D01*
X110997619Y-60266666D01*
X111235714Y-59409523D02*
X111902380Y-59409523D01*
X110854761Y-59647619D02*
X111569047Y-59885714D01*
X111569047Y-59266666D01*
X103561904Y-78652380D02*
X103561904Y-77652380D01*
X103800000Y-77652380D01*
X103942857Y-77700000D01*
X104038095Y-77795238D01*
X104085714Y-77890476D01*
X104133333Y-78080952D01*
X104133333Y-78223809D01*
X104085714Y-78414285D01*
X104038095Y-78509523D01*
X103942857Y-78604761D01*
X103800000Y-78652380D01*
X103561904Y-78652380D01*
X105085714Y-78652380D02*
X104514285Y-78652380D01*
X104800000Y-78652380D02*
X104800000Y-77652380D01*
X104704761Y-77795238D01*
X104609523Y-77890476D01*
X104514285Y-77938095D01*
X89666666Y-55852380D02*
X89666666Y-56566666D01*
X89619047Y-56709523D01*
X89523809Y-56804761D01*
X89380952Y-56852380D01*
X89285714Y-56852380D01*
X90666666Y-56852380D02*
X90095238Y-56852380D01*
X90380952Y-56852380D02*
X90380952Y-55852380D01*
X90285714Y-55995238D01*
X90190476Y-56090476D01*
X90095238Y-56138095D01*
X100133333Y-57687142D02*
X100085714Y-57734761D01*
X99942857Y-57782380D01*
X99847619Y-57782380D01*
X99704761Y-57734761D01*
X99609523Y-57639523D01*
X99561904Y-57544285D01*
X99514285Y-57353809D01*
X99514285Y-57210952D01*
X99561904Y-57020476D01*
X99609523Y-56925238D01*
X99704761Y-56830000D01*
X99847619Y-56782380D01*
X99942857Y-56782380D01*
X100085714Y-56830000D01*
X100133333Y-56877619D01*
X100514285Y-56877619D02*
X100561904Y-56830000D01*
X100657142Y-56782380D01*
X100895238Y-56782380D01*
X100990476Y-56830000D01*
X101038095Y-56877619D01*
X101085714Y-56972857D01*
X101085714Y-57068095D01*
X101038095Y-57210952D01*
X100466666Y-57782380D01*
X101085714Y-57782380D01*
X101327142Y-63191666D02*
X101374761Y-63239285D01*
X101422380Y-63382142D01*
X101422380Y-63477380D01*
X101374761Y-63620238D01*
X101279523Y-63715476D01*
X101184285Y-63763095D01*
X100993809Y-63810714D01*
X100850952Y-63810714D01*
X100660476Y-63763095D01*
X100565238Y-63715476D01*
X100470000Y-63620238D01*
X100422380Y-63477380D01*
X100422380Y-63382142D01*
X100470000Y-63239285D01*
X100517619Y-63191666D01*
X101422380Y-62239285D02*
X101422380Y-62810714D01*
X101422380Y-62525000D02*
X100422380Y-62525000D01*
X100565238Y-62620238D01*
X100660476Y-62715476D01*
X100708095Y-62810714D01*
X93133333Y-61852380D02*
X92800000Y-61376190D01*
X92561904Y-61852380D02*
X92561904Y-60852380D01*
X92942857Y-60852380D01*
X93038095Y-60900000D01*
X93085714Y-60947619D01*
X93133333Y-61042857D01*
X93133333Y-61185714D01*
X93085714Y-61280952D01*
X93038095Y-61328571D01*
X92942857Y-61376190D01*
X92561904Y-61376190D01*
X94038095Y-60852380D02*
X93561904Y-60852380D01*
X93514285Y-61328571D01*
X93561904Y-61280952D01*
X93657142Y-61233333D01*
X93895238Y-61233333D01*
X93990476Y-61280952D01*
X94038095Y-61328571D01*
X94085714Y-61423809D01*
X94085714Y-61661904D01*
X94038095Y-61757142D01*
X93990476Y-61804761D01*
X93895238Y-61852380D01*
X93657142Y-61852380D01*
X93561904Y-61804761D01*
X93514285Y-61757142D01*
X93133333Y-56852380D02*
X92800000Y-56376190D01*
X92561904Y-56852380D02*
X92561904Y-55852380D01*
X92942857Y-55852380D01*
X93038095Y-55900000D01*
X93085714Y-55947619D01*
X93133333Y-56042857D01*
X93133333Y-56185714D01*
X93085714Y-56280952D01*
X93038095Y-56328571D01*
X92942857Y-56376190D01*
X92561904Y-56376190D01*
X93990476Y-56185714D02*
X93990476Y-56852380D01*
X93752380Y-55804761D02*
X93514285Y-56519047D01*
X94133333Y-56519047D01*
X105233333Y-66152380D02*
X104757142Y-66152380D01*
X104757142Y-65152380D01*
X106090476Y-66152380D02*
X105519047Y-66152380D01*
X105804761Y-66152380D02*
X105804761Y-65152380D01*
X105709523Y-65295238D01*
X105614285Y-65390476D01*
X105519047Y-65438095D01*
X99252380Y-64166666D02*
X98776190Y-64500000D01*
X99252380Y-64738095D02*
X98252380Y-64738095D01*
X98252380Y-64357142D01*
X98300000Y-64261904D01*
X98347619Y-64214285D01*
X98442857Y-64166666D01*
X98585714Y-64166666D01*
X98680952Y-64214285D01*
X98728571Y-64261904D01*
X98776190Y-64357142D01*
X98776190Y-64738095D01*
X99252380Y-63214285D02*
X99252380Y-63785714D01*
X99252380Y-63500000D02*
X98252380Y-63500000D01*
X98395238Y-63595238D01*
X98490476Y-63690476D01*
X98538095Y-63785714D01*
D12*
X114672936Y-62990000D02*
X116127064Y-62990000D01*
X114672936Y-64810000D02*
X116127064Y-64810000D01*
X98300000Y-70308903D02*
X98635876Y-70644778D01*
X101991097Y-74000000D02*
X101655222Y-73664124D01*
X94944778Y-73664124D02*
X94608903Y-74000000D01*
X98635876Y-77355222D02*
X98300000Y-77691097D01*
X98300000Y-77691097D02*
X97964124Y-77355222D01*
X101655222Y-74335876D02*
X101991097Y-74000000D01*
X97964124Y-70644778D02*
X98300000Y-70308903D01*
X110235876Y-70644778D02*
X109900000Y-70308903D01*
X106208903Y-74000000D02*
X106544778Y-73664124D01*
X109900000Y-70308903D02*
X109564124Y-70644778D01*
X109564124Y-77355222D02*
X109900000Y-77691097D01*
X113255222Y-73664124D02*
X113591097Y-74000000D01*
X106544778Y-74335876D02*
X106208903Y-74000000D01*
X113591097Y-74000000D02*
X113255222Y-74335876D01*
X108977500Y-54937258D02*
X108977500Y-54462742D01*
X110022500Y-54937258D02*
X110022500Y-54462742D01*
X121227064Y-64810000D02*
X119772936Y-64810000D01*
X121227064Y-62990000D02*
X119772936Y-62990000D01*
X97362742Y-53777500D02*
X97837258Y-53777500D01*
X97362742Y-54822500D02*
X97837258Y-54822500D01*
X117810000Y-71611252D02*
X117810000Y-70188748D01*
X115990000Y-71611252D02*
X115990000Y-70188748D01*
X106285000Y-60210000D02*
X107010000Y-60210000D01*
X103515000Y-60210000D02*
X102790000Y-60210000D01*
X102790000Y-60210000D02*
X102790000Y-59485000D01*
X103515000Y-55990000D02*
X102790000Y-55990000D01*
X107010000Y-60210000D02*
X107010000Y-59485000D01*
X107010000Y-55990000D02*
X107010000Y-56715000D01*
X106285000Y-55990000D02*
X107010000Y-55990000D01*
X97822500Y-59862742D02*
X97822500Y-60337258D01*
X96777500Y-59862742D02*
X96777500Y-60337258D01*
X102240580Y-54810000D02*
X101959420Y-54810000D01*
X102240580Y-53790000D02*
X101959420Y-53790000D01*
X110510000Y-59388748D02*
X110510000Y-60811252D01*
X108690000Y-59388748D02*
X108690000Y-60811252D01*
X103200000Y-77200000D02*
X105200000Y-77200000D01*
X105200000Y-77200000D02*
X105200000Y-73350000D01*
X103200000Y-77200000D02*
X103200000Y-73350000D01*
X94000000Y-51550000D02*
X86050000Y-51550000D01*
X86050000Y-51550000D02*
X86050000Y-55000000D01*
X86050000Y-55000000D02*
X94000000Y-55000000D01*
X94000000Y-55000000D02*
X94000000Y-51550000D01*
X100440580Y-55390000D02*
X100159420Y-55390000D01*
X100440580Y-56410000D02*
X100159420Y-56410000D01*
X102910000Y-63165580D02*
X102910000Y-62884420D01*
X101890000Y-63165580D02*
X101890000Y-62884420D01*
X93062742Y-60222500D02*
X93537258Y-60222500D01*
X93062742Y-59177500D02*
X93537258Y-59177500D01*
X93537258Y-57277500D02*
X93062742Y-57277500D01*
X93537258Y-58322500D02*
X93062742Y-58322500D01*
X103500000Y-64450000D02*
X107300000Y-64450000D01*
X107300000Y-64450000D02*
X107300000Y-61050000D01*
X107300000Y-61050000D02*
X103500000Y-61050000D01*
X103500000Y-61050000D02*
X103500000Y-64450000D01*
D13*
X97140000Y-90500000D02*
X97140000Y-123500000D01*
X104140000Y-90500000D02*
X104140000Y-123500000D01*
X113140000Y-90500000D02*
X113140000Y-123500000D01*
X99140000Y-90500000D02*
X99140000Y-123500000D01*
X94140000Y-118875000D02*
X114140000Y-118875000D01*
X94140000Y-114250000D02*
X114140000Y-114250000D01*
X111140000Y-90500000D02*
X111140000Y-123500000D01*
X112140000Y-90500000D02*
X112140000Y-123500000D01*
X94140000Y-92700000D02*
X114140000Y-92700000D01*
X105140000Y-90500000D02*
X105140000Y-123500000D01*
X110140000Y-90500000D02*
X110140000Y-123500000D01*
X94140000Y-123500000D02*
X114140000Y-123500000D01*
X108140000Y-90500000D02*
X108140000Y-123500000D01*
X94140000Y-100375000D02*
X114140000Y-100375000D01*
X107140000Y-90500000D02*
X107140000Y-123500000D01*
X98140000Y-90500000D02*
X98140000Y-123500000D01*
X109140000Y-90500000D02*
X109140000Y-123500000D01*
X94140000Y-109625000D02*
X114140000Y-109625000D01*
X96140000Y-90500000D02*
X96140000Y-123500000D01*
X102140000Y-90500000D02*
X102140000Y-123500000D01*
X101140000Y-90500000D02*
X101140000Y-123500000D01*
X95140000Y-90500000D02*
X95140000Y-123500000D01*
X100140000Y-90500000D02*
X100140000Y-123500000D01*
X94140000Y-105000000D02*
X114140000Y-105000000D01*
X94140000Y-90500000D02*
X94140000Y-123500000D01*
X106140000Y-90500000D02*
X106140000Y-123500000D01*
X103140000Y-90500000D02*
X103140000Y-123500000D01*
X114140000Y-90500000D02*
X114140000Y-123500000D01*
X94140000Y-95750000D02*
X114140000Y-95750000D01*
D12*
X93940000Y-83300000D02*
X114340000Y-83300000D01*
X114340000Y-83300000D02*
X114340000Y-88700000D01*
X114340000Y-88700000D02*
X93940000Y-88700000D01*
X93940000Y-88700000D02*
X93940000Y-83300000D01*
X96777500Y-64337258D02*
X96777500Y-63862742D01*
X97822500Y-64337258D02*
X97822500Y-63862742D01*
%LPC*%
D14*
X113937500Y-63900000D03*
X116862500Y-63900000D03*
D15*
X95338990Y-74486136D03*
X95692544Y-74839689D03*
X96046097Y-75193243D03*
X96399651Y-75546796D03*
X96753204Y-75900349D03*
X97106757Y-76253903D03*
X97460311Y-76607456D03*
X97813864Y-76961010D03*
D16*
X98786136Y-76961010D03*
X99139689Y-76607456D03*
X99493243Y-76253903D03*
X99846796Y-75900349D03*
X100200349Y-75546796D03*
X100553903Y-75193243D03*
X100907456Y-74839689D03*
X101261010Y-74486136D03*
D15*
X101261010Y-73513864D03*
X100907456Y-73160311D03*
X100553903Y-72806757D03*
X100200349Y-72453204D03*
X99846796Y-72099651D03*
X99493243Y-71746097D03*
X99139689Y-71392544D03*
X98786136Y-71038990D03*
D16*
X97813864Y-71038990D03*
X97460311Y-71392544D03*
X97106757Y-71746097D03*
X96753204Y-72099651D03*
X96399651Y-72453204D03*
X96046097Y-72806757D03*
X95692544Y-73160311D03*
X95338990Y-73513864D03*
D17*
X98300000Y-74000000D03*
D18*
X110386136Y-76961010D03*
X110739689Y-76607456D03*
X111093243Y-76253903D03*
X111446796Y-75900349D03*
X111800349Y-75546796D03*
X112153903Y-75193243D03*
X112507456Y-74839689D03*
X112861010Y-74486136D03*
D19*
X112861010Y-73513864D03*
X112507456Y-73160311D03*
X112153903Y-72806757D03*
X111800349Y-72453204D03*
X111446796Y-72099651D03*
X111093243Y-71746097D03*
X110739689Y-71392544D03*
X110386136Y-71038990D03*
D18*
X109413864Y-71038990D03*
X109060311Y-71392544D03*
X108706757Y-71746097D03*
X108353204Y-72099651D03*
X107999651Y-72453204D03*
X107646097Y-72806757D03*
X107292544Y-73160311D03*
X106938990Y-73513864D03*
D19*
X106938990Y-74486136D03*
X107292544Y-74839689D03*
X107646097Y-75193243D03*
X107999651Y-75546796D03*
X108353204Y-75900349D03*
X108706757Y-76253903D03*
X109060311Y-76607456D03*
X109413864Y-76961010D03*
D20*
X109900000Y-74000000D03*
D21*
X109500000Y-55525000D03*
X109500000Y-53875000D03*
D22*
X121962500Y-63900000D03*
X119037500Y-63900000D03*
D23*
X96775000Y-54300000D03*
X98425000Y-54300000D03*
D24*
X116900000Y-72375000D03*
X116900000Y-69425000D03*
D25*
X102937500Y-57100000D03*
X102937500Y-57600000D03*
X102937500Y-58100000D03*
X102937500Y-58600000D03*
X102937500Y-59100000D03*
D26*
X103900000Y-60062500D03*
X104400000Y-60062500D03*
X104900000Y-60062500D03*
X105400000Y-60062500D03*
X105900000Y-60062500D03*
D25*
X106862500Y-59100000D03*
X106862500Y-58600000D03*
X106862500Y-58100000D03*
X106862500Y-57600000D03*
X106862500Y-57100000D03*
D26*
X105900000Y-56137500D03*
X105400000Y-56137500D03*
X104900000Y-56137500D03*
X104400000Y-56137500D03*
X103900000Y-56137500D03*
D27*
X104900000Y-58100000D03*
D28*
X97300000Y-59275000D03*
X97300000Y-60925000D03*
D29*
X102875000Y-54300000D03*
X101325000Y-54300000D03*
D30*
X109600000Y-58625000D03*
X109600000Y-61575000D03*
D31*
X104200000Y-76400000D03*
X104200000Y-73600000D03*
D32*
X87250000Y-54500000D03*
X87750000Y-54500000D03*
X88250000Y-54500000D03*
X88750000Y-54500000D03*
X89250000Y-54500000D03*
X89750000Y-54500000D03*
X90250000Y-54500000D03*
X90750000Y-54500000D03*
X91250000Y-54500000D03*
X91750000Y-54500000D03*
X92250000Y-54500000D03*
X92750000Y-54500000D03*
D33*
X93750000Y-52000000D03*
X86250000Y-52000000D03*
D29*
X101075000Y-55900000D03*
X99525000Y-55900000D03*
D34*
X102400000Y-63800000D03*
X102400000Y-62250000D03*
D23*
X92475000Y-59700000D03*
X94125000Y-59700000D03*
D35*
X94125000Y-57800000D03*
X92475000Y-57800000D03*
D36*
X105400000Y-63800000D03*
X105400000Y-61700000D03*
D37*
X94640000Y-82750000D03*
X95640000Y-82750000D03*
X96640000Y-82750000D03*
X97640000Y-82750000D03*
X98640000Y-82750000D03*
X99640000Y-82750000D03*
X100640000Y-82750000D03*
X101640000Y-82750000D03*
X102640000Y-82750000D03*
X103640000Y-82750000D03*
X104640000Y-82750000D03*
X105640000Y-82750000D03*
X106640000Y-82750000D03*
X107640000Y-82750000D03*
X108640000Y-82750000D03*
X109640000Y-82750000D03*
X110640000Y-82750000D03*
X111640000Y-82750000D03*
X112640000Y-82750000D03*
X113640000Y-82750000D03*
D38*
X111640000Y-88350000D03*
X103640000Y-88350000D03*
X100640000Y-88350000D03*
D39*
X117140000Y-87500000D03*
D38*
X94640000Y-88350000D03*
X95640000Y-88350000D03*
X98640000Y-88350000D03*
X105640000Y-88350000D03*
X108640000Y-88350000D03*
D39*
X91140000Y-87500000D03*
D38*
X109640000Y-88350000D03*
X96640000Y-88350000D03*
X97640000Y-88350000D03*
X99640000Y-88350000D03*
X112640000Y-88350000D03*
X101640000Y-88350000D03*
X106640000Y-88350000D03*
X113640000Y-88350000D03*
X110640000Y-88350000D03*
X102640000Y-88350000D03*
X107640000Y-88350000D03*
X104640000Y-88350000D03*
D21*
X97300000Y-64925000D03*
X97300000Y-63275000D03*
M02*
