G04 #@! TF.GenerationSoftware,KiCad,Pcbnew,(6.0.5)*
G04 #@! TF.CreationDate,2022-06-13T12:49:50+02:00*
G04 #@! TF.ProjectId,optacon,6f707461-636f-46e2-9e6b-696361645f70,rev?*
G04 #@! TF.SameCoordinates,Original*
G04 #@! TF.FileFunction,Profile,NP*
%FSLAX46Y46*%
G04 Gerber Fmt 4.6, Leading zero omitted, Abs format (unit mm)*
G04 Created by KiCad (PCBNEW (6.0.5)) date 2022-06-13 12:49:50*
%MOMM*%
%LPD*%
G01*
G04 APERTURE LIST*
G04 #@! TA.AperFunction,Profile*
%ADD10C,0.100000*%
G04 #@! TD*
%ADD11C,0.150000*%
G04 #@! TA.AperFunction,Profile*
%ADD12C,0.150000*%
G04 #@! TD*
G04 APERTURE END LIST*
D10*
X112600000Y-124600000D02*
G75*
G03*
X112600000Y-123600000I0J500000D01*
G01*
X95600000Y-123600000D02*
G75*
G03*
X95600000Y-124600000I0J-500000D01*
G01*
X95600000Y-123600000D02*
X112600000Y-123600000D01*
X112600000Y-124600000D02*
X95600000Y-124600000D01*
X115300000Y-97200000D02*
G75*
G03*
X114300000Y-97200000I-500000J0D01*
G01*
X114300000Y-114200000D02*
G75*
G03*
X115300000Y-114200000I500000J0D01*
G01*
X114300000Y-114200000D02*
X114300000Y-97200000D01*
X115300000Y-97200000D02*
X115300000Y-114200000D01*
X94000000Y-97000000D02*
G75*
G03*
X93000000Y-97000000I-500000J0D01*
G01*
X93000000Y-114000000D02*
X93000000Y-97000000D01*
X94000000Y-97000000D02*
X94000000Y-114000000D01*
X93000000Y-114000000D02*
G75*
G03*
X94000000Y-114000000I500000J0D01*
G01*
X91500000Y-90800000D02*
G75*
G03*
X91500000Y-91800000I0J-500000D01*
G01*
X116000000Y-91800000D02*
G75*
G03*
X116000000Y-90800000I0J500000D01*
G01*
X116000000Y-91800000D02*
X91500000Y-91800000D01*
X91500000Y-90800000D02*
X116000000Y-90800000D01*
D11*
X61638095Y-90885714D02*
X61876190Y-91552380D01*
X62114285Y-90885714D01*
X62447619Y-91504761D02*
X62542857Y-91552380D01*
X62733333Y-91552380D01*
X62828571Y-91504761D01*
X62876190Y-91409523D01*
X62876190Y-91361904D01*
X62828571Y-91266666D01*
X62733333Y-91219047D01*
X62590476Y-91219047D01*
X62495238Y-91171428D01*
X62447619Y-91076190D01*
X62447619Y-91028571D01*
X62495238Y-90933333D01*
X62590476Y-90885714D01*
X62733333Y-90885714D01*
X62828571Y-90933333D01*
X63733333Y-91504761D02*
X63638095Y-91552380D01*
X63447619Y-91552380D01*
X63352380Y-91504761D01*
X63304761Y-91457142D01*
X63257142Y-91361904D01*
X63257142Y-91076190D01*
X63304761Y-90980952D01*
X63352380Y-90933333D01*
X63447619Y-90885714D01*
X63638095Y-90885714D01*
X63733333Y-90933333D01*
X64304761Y-91552380D02*
X64209523Y-91504761D01*
X64161904Y-91457142D01*
X64114285Y-91361904D01*
X64114285Y-91076190D01*
X64161904Y-90980952D01*
X64209523Y-90933333D01*
X64304761Y-90885714D01*
X64447619Y-90885714D01*
X64542857Y-90933333D01*
X64590476Y-90980952D01*
X64638095Y-91076190D01*
X64638095Y-91361904D01*
X64590476Y-91457142D01*
X64542857Y-91504761D01*
X64447619Y-91552380D01*
X64304761Y-91552380D01*
X65066666Y-91552380D02*
X65066666Y-90885714D01*
X65066666Y-91076190D02*
X65114285Y-90980952D01*
X65161904Y-90933333D01*
X65257142Y-90885714D01*
X65352380Y-90885714D01*
X66066666Y-91504761D02*
X65971428Y-91552380D01*
X65780952Y-91552380D01*
X65685714Y-91504761D01*
X65638095Y-91409523D01*
X65638095Y-91028571D01*
X65685714Y-90933333D01*
X65780952Y-90885714D01*
X65971428Y-90885714D01*
X66066666Y-90933333D01*
X66114285Y-91028571D01*
X66114285Y-91123809D01*
X65638095Y-91219047D01*
D12*
X128900000Y-91300000D02*
X67000000Y-91300000D01*
D10*
X84100000Y-50700000D02*
X124700000Y-50700000D01*
X124700000Y-50700000D02*
X124700000Y-129200000D01*
X124700000Y-129200000D02*
X84100000Y-129200000D01*
X84100000Y-129200000D02*
X84100000Y-50700000D01*
M02*
