G04 #@! TF.GenerationSoftware,KiCad,Pcbnew,(6.0.5)*
G04 #@! TF.CreationDate,2022-06-13T12:49:50+02:00*
G04 #@! TF.ProjectId,optacon,6f707461-636f-46e2-9e6b-696361645f70,rev?*
G04 #@! TF.SameCoordinates,Original*
G04 #@! TF.FileFunction,Legend,Bot*
G04 #@! TF.FilePolarity,Positive*
%FSLAX46Y46*%
G04 Gerber Fmt 4.6, Leading zero omitted, Abs format (unit mm)*
G04 Created by KiCad (PCBNEW (6.0.5)) date 2022-06-13 12:49:50*
%MOMM*%
%LPD*%
G01*
G04 APERTURE LIST*
G04 Aperture macros list*
%AMRoundRect*
0 Rectangle with rounded corners*
0 $1 Rounding radius*
0 $2 $3 $4 $5 $6 $7 $8 $9 X,Y pos of 4 corners*
0 Add a 4 corners polygon primitive as box body*
4,1,4,$2,$3,$4,$5,$6,$7,$8,$9,$2,$3,0*
0 Add four circle primitives for the rounded corners*
1,1,$1+$1,$2,$3*
1,1,$1+$1,$4,$5*
1,1,$1+$1,$6,$7*
1,1,$1+$1,$8,$9*
0 Add four rect primitives between the rounded corners*
20,1,$1+$1,$2,$3,$4,$5,0*
20,1,$1+$1,$4,$5,$6,$7,0*
20,1,$1+$1,$6,$7,$8,$9,0*
20,1,$1+$1,$8,$9,$2,$3,0*%
G04 Aperture macros list end*
%ADD10C,0.250000*%
%ADD11RoundRect,0.500000X-0.500000X-0.500000X0.500000X-0.500000X0.500000X0.500000X-0.500000X0.500000X0*%
G04 APERTURE END LIST*
D10*
X94140000Y-105000000D02*
X114140000Y-105000000D01*
X100140000Y-90500000D02*
X100140000Y-123500000D01*
X98140000Y-90500000D02*
X98140000Y-123500000D01*
X105140000Y-90500000D02*
X105140000Y-123500000D01*
X109140000Y-90500000D02*
X109140000Y-123500000D01*
X94140000Y-118875000D02*
X114140000Y-118875000D01*
X108140000Y-90500000D02*
X108140000Y-123500000D01*
X97140000Y-90500000D02*
X97140000Y-123500000D01*
X101140000Y-90500000D02*
X101140000Y-123500000D01*
X94140000Y-90500000D02*
X94140000Y-123500000D01*
X114140000Y-90500000D02*
X114140000Y-123500000D01*
X94140000Y-95750000D02*
X114140000Y-95750000D01*
X103140000Y-90500000D02*
X103140000Y-123500000D01*
X94140000Y-100375000D02*
X114140000Y-100375000D01*
X110140000Y-90500000D02*
X110140000Y-123500000D01*
X106140000Y-90500000D02*
X106140000Y-123500000D01*
X102140000Y-90500000D02*
X102140000Y-123500000D01*
X112140000Y-90500000D02*
X112140000Y-123500000D01*
X107140000Y-90500000D02*
X107140000Y-123500000D01*
X111140000Y-90500000D02*
X111140000Y-123500000D01*
X104140000Y-90500000D02*
X104140000Y-123500000D01*
X95140000Y-90500000D02*
X95140000Y-123500000D01*
X113140000Y-90500000D02*
X113140000Y-123500000D01*
X96140000Y-90500000D02*
X96140000Y-123500000D01*
X99140000Y-90500000D02*
X99140000Y-123500000D01*
X94140000Y-123500000D02*
X114140000Y-123500000D01*
X94140000Y-109625000D02*
X114140000Y-109625000D01*
X94140000Y-91125000D02*
X114140000Y-91125000D01*
X94140000Y-114250000D02*
X114140000Y-114250000D01*
%LPC*%
D11*
X117140000Y-87500000D03*
X91140000Y-87500000D03*
M02*
