%TF.GenerationSoftware,KiCad,Pcbnew,(6.0.1)*%
%TF.CreationDate,2022-02-26T19:35:59+01:00*%
%TF.ProjectId,optacon,6f707461-636f-46e2-9e6b-696361645f70,rev?*%
%TF.SameCoordinates,Original*%
%TF.FileFunction,Copper,L1,Top*%
%TF.FilePolarity,Positive*%
%FSLAX46Y46*%
G04 Gerber Fmt 4.6, Leading zero omitted, Abs format (unit mm)*
G04 Created by KiCad (PCBNEW (6.0.1)) date 2022-02-26 19:35:59*
%MOMM*%
%LPD*%
G01*
G04 APERTURE LIST*
G04 Aperture macros list*
%AMRoundRect*
0 Rectangle with rounded corners*
0 $1 Rounding radius*
0 $2 $3 $4 $5 $6 $7 $8 $9 X,Y pos of 4 corners*
0 Add a 4 corners polygon primitive as box body*
4,1,4,$2,$3,$4,$5,$6,$7,$8,$9,$2,$3,0*
0 Add four circle primitives for the rounded corners*
1,1,$1+$1,$2,$3*
1,1,$1+$1,$4,$5*
1,1,$1+$1,$6,$7*
1,1,$1+$1,$8,$9*
0 Add four rect primitives between the rounded corners*
20,1,$1+$1,$2,$3,$4,$5,0*
20,1,$1+$1,$4,$5,$6,$7,0*
20,1,$1+$1,$6,$7,$8,$9,0*
20,1,$1+$1,$8,$9,$2,$3,0*%
G04 Aperture macros list end*
%TA.AperFunction,SMDPad,CuDef*%
%ADD10RoundRect,0.062500X0.062500X-0.375000X0.062500X0.375000X-0.062500X0.375000X-0.062500X-0.375000X0*%
%TD*%
%TA.AperFunction,SMDPad,CuDef*%
%ADD11RoundRect,0.062500X0.375000X-0.062500X0.375000X0.062500X-0.375000X0.062500X-0.375000X-0.062500X0*%
%TD*%
%TA.AperFunction,SMDPad,CuDef*%
%ADD12R,3.100000X3.100000*%
%TD*%
%TA.AperFunction,ComponentPad*%
%ADD13R,1.700000X1.700000*%
%TD*%
%TA.AperFunction,ComponentPad*%
%ADD14O,1.700000X1.700000*%
%TD*%
%TA.AperFunction,SMDPad,CuDef*%
%ADD15RoundRect,0.175000X-0.175000X-1.325000X0.175000X-1.325000X0.175000X1.325000X-0.175000X1.325000X0*%
%TD*%
%TA.AperFunction,SMDPad,CuDef*%
%ADD16RoundRect,0.500000X-0.500000X-0.500000X0.500000X-0.500000X0.500000X0.500000X-0.500000X0.500000X0*%
%TD*%
%TA.AperFunction,SMDPad,CuDef*%
%ADD17RoundRect,0.500000X-9.500000X-0.500000X9.500000X-0.500000X9.500000X0.500000X-9.500000X0.500000X0*%
%TD*%
%TA.AperFunction,ViaPad*%
%ADD18C,0.800000*%
%TD*%
%TA.AperFunction,Conductor*%
%ADD19C,0.500000*%
%TD*%
%TA.AperFunction,Conductor*%
%ADD20C,0.300000*%
%TD*%
%TA.AperFunction,Conductor*%
%ADD21C,0.200000*%
%TD*%
%TA.AperFunction,Conductor*%
%ADD22C,0.250000*%
%TD*%
%TA.AperFunction,Conductor*%
%ADD23C,0.400000*%
%TD*%
G04 APERTURE END LIST*
D10*
%TO.P,U1,1,HVout12*%
%TO.N,/reed2*%
X97310000Y-76437500D03*
%TO.P,U1,2,HVout11*%
%TO.N,/reed3*%
X97810000Y-76437500D03*
%TO.P,U1,3,HVout10*%
%TO.N,/reed4*%
X98310000Y-76437500D03*
%TO.P,U1,4,HVout9*%
%TO.N,/reed5*%
X98810000Y-76437500D03*
%TO.P,U1,5,HVout8*%
%TO.N,/reed6*%
X99310000Y-76437500D03*
%TO.P,U1,6,HVout7*%
%TO.N,/reed7*%
X99810000Y-76437500D03*
%TO.P,U1,7,HVout6*%
%TO.N,/reed8*%
X100310000Y-76437500D03*
%TO.P,U1,8,HVout5*%
%TO.N,/reed9*%
X100810000Y-76437500D03*
D11*
%TO.P,U1,9,HVout4*%
%TO.N,/reed10*%
X101497500Y-75750000D03*
%TO.P,U1,10,HVout3*%
%TO.N,/PZT+*%
X101497500Y-75250000D03*
%TO.P,U1,11,HVout2*%
X101497500Y-74750000D03*
%TO.P,U1,12,HVout1*%
X101497500Y-74250000D03*
%TO.P,U1,13,NC*%
%TO.N,unconnected-(U1-Pad13)*%
X101497500Y-73750000D03*
%TO.P,U1,14,VPP*%
%TO.N,/VPP*%
X101497500Y-73250000D03*
%TO.P,U1,15,GND*%
%TO.N,GND*%
X101497500Y-72750000D03*
%TO.P,U1,16,NC*%
%TO.N,unconnected-(U1-Pad16)*%
X101497500Y-72250000D03*
D10*
%TO.P,U1,17,DIN*%
%TO.N,/DIN*%
X100810000Y-71562500D03*
%TO.P,U1,18,NC*%
%TO.N,unconnected-(U1-Pad18)*%
X100310000Y-71562500D03*
%TO.P,U1,19,CLK*%
%TO.N,/CLK*%
X99810000Y-71562500D03*
%TO.P,U1,20,VDD*%
%TO.N,/VDD*%
X99310000Y-71562500D03*
%TO.P,U1,21,~POL~*%
%TO.N,/POL*%
X98810000Y-71562500D03*
%TO.P,U1,22,~LE~*%
%TO.N,/LE*%
X98310000Y-71562500D03*
%TO.P,U1,23,NC*%
%TO.N,unconnected-(U1-Pad23)*%
X97810000Y-71562500D03*
%TO.P,U1,24,DOUT*%
%TO.N,Net-(U1-Pad24)*%
X97310000Y-71562500D03*
D11*
%TO.P,U1,25,NC*%
%TO.N,unconnected-(U1-Pad25)*%
X96622500Y-72250000D03*
%TO.P,U1,26,VBIAS*%
%TO.N,/VBIAS*%
X96622500Y-72750000D03*
%TO.P,U1,27,HVGND*%
%TO.N,GND*%
X96622500Y-73250000D03*
%TO.P,U1,28,BP*%
%TO.N,unconnected-(U1-Pad28)*%
X96622500Y-73750000D03*
%TO.P,U1,29,HVout16*%
%TO.N,/PZT-*%
X96622500Y-74250000D03*
%TO.P,U1,30,HVout15*%
X96622500Y-74750000D03*
%TO.P,U1,31,HVout14*%
X96622500Y-75250000D03*
%TO.P,U1,32,HVout13*%
%TO.N,/reed1*%
X96622500Y-75750000D03*
D12*
%TO.P,U1,33,VPP*%
%TO.N,/VPP*%
X99060000Y-74000000D03*
%TD*%
D10*
%TO.P,U2,1,HVout12*%
%TO.N,/reed12*%
X107470000Y-76437500D03*
%TO.P,U2,2,HVout11*%
%TO.N,/reed13*%
X107970000Y-76437500D03*
%TO.P,U2,3,HVout10*%
%TO.N,/reed14*%
X108470000Y-76437500D03*
%TO.P,U2,4,HVout9*%
%TO.N,/reed15*%
X108970000Y-76437500D03*
%TO.P,U2,5,HVout8*%
%TO.N,/reed16*%
X109470000Y-76437500D03*
%TO.P,U2,6,HVout7*%
%TO.N,/reed17*%
X109970000Y-76437500D03*
%TO.P,U2,7,HVout6*%
%TO.N,/reed18*%
X110470000Y-76437500D03*
%TO.P,U2,8,HVout5*%
%TO.N,/reed19*%
X110970000Y-76437500D03*
D11*
%TO.P,U2,9,HVout4*%
%TO.N,/reed20*%
X111657500Y-75750000D03*
%TO.P,U2,10,HVout3*%
%TO.N,/PZT+*%
X111657500Y-75250000D03*
%TO.P,U2,11,HVout2*%
X111657500Y-74750000D03*
%TO.P,U2,12,HVout1*%
X111657500Y-74250000D03*
%TO.P,U2,13,NC*%
%TO.N,unconnected-(U2-Pad13)*%
X111657500Y-73750000D03*
%TO.P,U2,14,VPP*%
%TO.N,/VPP*%
X111657500Y-73250000D03*
%TO.P,U2,15,GND*%
%TO.N,GND*%
X111657500Y-72750000D03*
%TO.P,U2,16,NC*%
%TO.N,unconnected-(U2-Pad16)*%
X111657500Y-72250000D03*
D10*
%TO.P,U2,17,DIN*%
%TO.N,Net-(U1-Pad24)*%
X110970000Y-71562500D03*
%TO.P,U2,18,NC*%
%TO.N,unconnected-(U2-Pad18)*%
X110470000Y-71562500D03*
%TO.P,U2,19,CLK*%
%TO.N,/CLK*%
X109970000Y-71562500D03*
%TO.P,U2,20,VDD*%
%TO.N,/VDD*%
X109470000Y-71562500D03*
%TO.P,U2,21,~POL~*%
%TO.N,/POL*%
X108970000Y-71562500D03*
%TO.P,U2,22,~LE~*%
%TO.N,/LE*%
X108470000Y-71562500D03*
%TO.P,U2,23,NC*%
%TO.N,unconnected-(U2-Pad23)*%
X107970000Y-71562500D03*
%TO.P,U2,24,DOUT*%
%TO.N,/DOUT*%
X107470000Y-71562500D03*
D11*
%TO.P,U2,25,NC*%
%TO.N,unconnected-(U2-Pad25)*%
X106782500Y-72250000D03*
%TO.P,U2,26,VBIAS*%
%TO.N,/VBIAS*%
X106782500Y-72750000D03*
%TO.P,U2,27,HVGND*%
%TO.N,GND*%
X106782500Y-73250000D03*
%TO.P,U2,28,BP*%
%TO.N,unconnected-(U2-Pad28)*%
X106782500Y-73750000D03*
%TO.P,U2,29,HVout16*%
%TO.N,/PZT-*%
X106782500Y-74250000D03*
%TO.P,U2,30,HVout15*%
X106782500Y-74750000D03*
%TO.P,U2,31,HVout14*%
X106782500Y-75250000D03*
%TO.P,U2,32,HVout13*%
%TO.N,/reed11*%
X106782500Y-75750000D03*
D12*
%TO.P,U2,33,VPP*%
%TO.N,/VPP*%
X109220000Y-74000000D03*
%TD*%
D13*
%TO.P,J2,1,Pin_1*%
%TO.N,/VDD*%
X91625000Y-64425000D03*
D14*
%TO.P,J2,2,Pin_2*%
%TO.N,/VBIAS*%
X94165000Y-64425000D03*
%TO.P,J2,3,Pin_3*%
%TO.N,/DIN*%
X96705000Y-64425000D03*
%TO.P,J2,4,Pin_4*%
%TO.N,/CLK*%
X99245000Y-64425000D03*
%TO.P,J2,5,Pin_5*%
%TO.N,/POL*%
X101785000Y-64425000D03*
%TO.P,J2,6,Pin_6*%
%TO.N,/LE*%
X104325000Y-64425000D03*
%TO.P,J2,7,Pin_7*%
%TO.N,/DOUT*%
X106865000Y-64425000D03*
%TO.P,J2,8,Pin_8*%
%TO.N,GND*%
X109405000Y-64425000D03*
%TD*%
D13*
%TO.P,J3,1,Pin_1*%
%TO.N,/VPP*%
X117225000Y-64450000D03*
D14*
%TO.P,J3,2,Pin_2*%
%TO.N,GND*%
X114685000Y-64450000D03*
%TD*%
D15*
%TO.P,J1,1,Pin_1*%
%TO.N,/reed1*%
X94640000Y-84000000D03*
%TO.P,J1,2,Pin_2*%
%TO.N,/reed2*%
X95640000Y-84000000D03*
%TO.P,J1,3,Pin_3*%
%TO.N,/reed3*%
X96640000Y-84000000D03*
%TO.P,J1,4,Pin_4*%
%TO.N,/reed4*%
X97640000Y-84000000D03*
%TO.P,J1,5,Pin_5*%
%TO.N,/reed5*%
X98640000Y-84000000D03*
%TO.P,J1,6,Pin_6*%
%TO.N,/reed6*%
X99640000Y-84000000D03*
%TO.P,J1,7,Pin_7*%
%TO.N,/reed7*%
X100640000Y-84000000D03*
%TO.P,J1,8,Pin_8*%
%TO.N,/reed8*%
X101640000Y-84000000D03*
%TO.P,J1,9,Pin_9*%
%TO.N,/reed9*%
X102640000Y-84000000D03*
%TO.P,J1,10,Pin_10*%
%TO.N,/reed10*%
X103640000Y-84000000D03*
%TO.P,J1,11,Pin_11*%
%TO.N,/reed11*%
X104640000Y-84000000D03*
%TO.P,J1,12,Pin_12*%
%TO.N,/reed12*%
X105640000Y-84000000D03*
%TO.P,J1,13,Pin_13*%
%TO.N,/reed13*%
X106640000Y-84000000D03*
%TO.P,J1,14,Pin_14*%
%TO.N,/reed14*%
X107640000Y-84000000D03*
%TO.P,J1,15,Pin_15*%
%TO.N,/reed15*%
X108640000Y-84000000D03*
%TO.P,J1,16,Pin_16*%
%TO.N,/reed16*%
X109640000Y-84000000D03*
%TO.P,J1,17,Pin_17*%
%TO.N,/reed17*%
X110640000Y-84000000D03*
%TO.P,J1,18,Pin_18*%
%TO.N,/reed18*%
X111640000Y-84000000D03*
%TO.P,J1,19,Pin_19*%
%TO.N,/reed19*%
X112640000Y-84000000D03*
%TO.P,J1,20,Pin_20*%
%TO.N,/reed20*%
X113640000Y-84000000D03*
D16*
%TO.P,J1,21,Pin_21*%
%TO.N,/PZT+*%
X91140000Y-87500000D03*
X117140000Y-87500000D03*
D17*
X104140000Y-87500000D03*
D16*
%TO.P,J1,22,Pin_22*%
%TO.N,/PZT-*%
X91140000Y-84500000D03*
X117140000Y-84500000D03*
%TD*%
D18*
%TO.N,/PZT+*%
X98680000Y-87500000D03*
X107680000Y-87500000D03*
X96680000Y-87500000D03*
X117140000Y-87500000D03*
X94680000Y-87500000D03*
X102680000Y-87500000D03*
X113710000Y-87500000D03*
X101680000Y-87500000D03*
X97680000Y-87500000D03*
X99680000Y-87500000D03*
X108680000Y-87500000D03*
X111680000Y-87500000D03*
X109680000Y-87500000D03*
X103680000Y-87500000D03*
X91140000Y-87500000D03*
X110680000Y-87500000D03*
X105680000Y-87500000D03*
X112680000Y-87500000D03*
X95680000Y-87500000D03*
X104680000Y-87500000D03*
X106680000Y-87500000D03*
X100680000Y-87500000D03*
X103475000Y-75925000D03*
%TO.N,/PZT-*%
X91140000Y-84500000D03*
X94150000Y-74750000D03*
X117100000Y-77500000D03*
X104500000Y-75000000D03*
X117140000Y-84500000D03*
%TO.N,Net-(U1-Pad24)*%
X96275000Y-69975000D03*
X109875000Y-68075000D03*
%TO.N,/reed20*%
X113640000Y-83775000D03*
%TO.N,/reed19*%
X112640000Y-84500000D03*
%TO.N,/reed18*%
X111650000Y-83750000D03*
%TO.N,/reed17*%
X110640000Y-84500000D03*
%TO.N,/reed16*%
X109640000Y-83875000D03*
%TO.N,/reed15*%
X108640000Y-84500000D03*
%TO.N,/reed14*%
X107625000Y-83750000D03*
%TO.N,/reed13*%
X106640000Y-84500000D03*
%TO.N,/reed12*%
X105625000Y-83850000D03*
%TO.N,/reed11*%
X104640000Y-84500000D03*
%TO.N,/reed10*%
X103640000Y-83825000D03*
%TO.N,/reed9*%
X102640000Y-84500000D03*
%TO.N,/reed8*%
X101650000Y-83850000D03*
%TO.N,/reed7*%
X100640000Y-84500000D03*
%TO.N,/reed6*%
X99625000Y-83875000D03*
%TO.N,/reed5*%
X98640000Y-84500000D03*
%TO.N,/reed4*%
X97625000Y-83800000D03*
%TO.N,/reed3*%
X96640000Y-84500000D03*
%TO.N,/reed2*%
X95625000Y-83875000D03*
%TO.N,/reed1*%
X94640000Y-84500000D03*
%TO.N,/VDD*%
X105825000Y-66450000D03*
X98573625Y-67875500D03*
%TO.N,/VBIAS*%
X103975000Y-70925000D03*
X95150000Y-71200000D03*
%TO.N,/CLK*%
X108200000Y-67575000D03*
X101181767Y-68063489D03*
X100234542Y-69350500D03*
%TO.N,/POL*%
X98750000Y-69350500D03*
X105391867Y-67365828D03*
X102322237Y-67363989D03*
%TO.N,/LE*%
X104393541Y-67414303D03*
X97700000Y-69350500D03*
%TO.N,/DOUT*%
X106043003Y-68825500D03*
%TO.N,GND*%
X95275000Y-73250000D03*
X102942277Y-72407723D03*
X113000000Y-72150000D03*
%TO.N,/VPP*%
X114947607Y-73230306D03*
X103300000Y-73800000D03*
%TD*%
D19*
%TO.N,/PZT+*%
X98680000Y-87500000D02*
X99680000Y-87500000D01*
X115100000Y-76725000D02*
X113125000Y-74750000D01*
D20*
X101510000Y-75250000D02*
X101510000Y-74750000D01*
D19*
X110680000Y-87500000D02*
X111680000Y-87500000D01*
X95680000Y-87500000D02*
X96680000Y-87500000D01*
X102680000Y-87500000D02*
X103680000Y-87500000D01*
X107680000Y-87500000D02*
X108680000Y-87500000D01*
X101680000Y-87500000D02*
X102680000Y-87500000D01*
X104680000Y-87500000D02*
X105680000Y-87500000D01*
X100680000Y-87500000D02*
X101680000Y-87500000D01*
X97680000Y-87500000D02*
X98680000Y-87500000D01*
X96680000Y-87500000D02*
X97680000Y-87500000D01*
X99680000Y-87500000D02*
X100680000Y-87500000D01*
X104140000Y-87500000D02*
X104680000Y-87500000D01*
X112680000Y-87500000D02*
X113710000Y-87500000D01*
X106680000Y-87500000D02*
X107680000Y-87500000D01*
X103680000Y-87500000D02*
X104140000Y-87500000D01*
X111670000Y-74750000D02*
X111670000Y-75150480D01*
X105680000Y-87500000D02*
X106680000Y-87500000D01*
X111670000Y-74750000D02*
X111670000Y-74349511D01*
X94680000Y-87500000D02*
X95680000Y-87500000D01*
X117140000Y-87500000D02*
X115100000Y-85460000D01*
X108680000Y-87500000D02*
X109680000Y-87500000D01*
X109680000Y-87500000D02*
X110680000Y-87500000D01*
X113125000Y-74750000D02*
X111670000Y-74750000D01*
D20*
X101510000Y-74750000D02*
X101510000Y-74250000D01*
D19*
X111680000Y-87500000D02*
X112680000Y-87500000D01*
X102300000Y-74750000D02*
X103475000Y-75925000D01*
X113710000Y-87500000D02*
X117140000Y-87500000D01*
X115100000Y-85460000D02*
X115100000Y-76725000D01*
X91140000Y-87500000D02*
X94680000Y-87500000D01*
X101510000Y-74750000D02*
X102300000Y-74750000D01*
%TO.N,/PZT-*%
X106770000Y-74750000D02*
X106770000Y-74349511D01*
D20*
X96610000Y-74250000D02*
X96610000Y-74750000D01*
D19*
X96610000Y-74750000D02*
X96610000Y-74349511D01*
X94150000Y-74750000D02*
X96610000Y-74750000D01*
X91140000Y-77760000D02*
X94150000Y-74750000D01*
X104750000Y-74750000D02*
X106770000Y-74750000D01*
D20*
X96610000Y-74750000D02*
X96610000Y-75250000D01*
D19*
X117140000Y-84500000D02*
X117140000Y-77540000D01*
X104500000Y-75000000D02*
X104750000Y-74750000D01*
X91140000Y-84500000D02*
X91140000Y-77760000D01*
X106770000Y-74750000D02*
X106770000Y-75150480D01*
X117140000Y-77540000D02*
X117100000Y-77500000D01*
X96610000Y-74750000D02*
X96610000Y-75150480D01*
D21*
%TO.N,Net-(U1-Pad24)*%
X97310000Y-70360000D02*
X96925000Y-69975000D01*
X110970000Y-69170000D02*
X109875000Y-68075000D01*
X110970000Y-71550000D02*
X110970000Y-69170000D01*
X96925000Y-69975000D02*
X96275000Y-69975000D01*
X97310000Y-71550000D02*
X97310000Y-70360000D01*
D20*
%TO.N,/reed20*%
X111670000Y-75750000D02*
X112700000Y-75750000D01*
X113640000Y-76690000D02*
X113640000Y-83775000D01*
X112700000Y-75750000D02*
X113640000Y-76690000D01*
%TO.N,/reed19*%
X112640000Y-78890000D02*
X112640000Y-84500000D01*
X110970000Y-77220000D02*
X112640000Y-78890000D01*
X110970000Y-76450000D02*
X110970000Y-77220000D01*
%TO.N,/reed18*%
X110470000Y-77895000D02*
X111650000Y-79075000D01*
X111650000Y-79075000D02*
X111650000Y-83750000D01*
X110470000Y-76450000D02*
X110470000Y-77895000D01*
%TO.N,/reed17*%
X109970000Y-78670000D02*
X110640000Y-79340000D01*
X109970000Y-76450000D02*
X109970000Y-78670000D01*
X110640000Y-79340000D02*
X110640000Y-84500000D01*
%TO.N,/reed16*%
X109470000Y-76450000D02*
X109470000Y-83705000D01*
X109470000Y-83705000D02*
X109640000Y-83875000D01*
%TO.N,/reed15*%
X108970000Y-78180000D02*
X108640000Y-78510000D01*
X108970000Y-76450000D02*
X108970000Y-78180000D01*
X108640000Y-78510000D02*
X108640000Y-84500000D01*
%TO.N,/reed14*%
X108470000Y-77855000D02*
X107625000Y-78700000D01*
X108470000Y-76450000D02*
X108470000Y-77855000D01*
X107625000Y-78700000D02*
X107625000Y-83750000D01*
%TO.N,/reed13*%
X106640000Y-78860000D02*
X106640000Y-84500000D01*
X107970000Y-77530000D02*
X106640000Y-78860000D01*
X107970000Y-76450000D02*
X107970000Y-77530000D01*
%TO.N,/reed12*%
X107470000Y-77155000D02*
X105625000Y-79000000D01*
X107470000Y-76450000D02*
X107470000Y-77155000D01*
X105625000Y-79000000D02*
X105625000Y-83850000D01*
%TO.N,/reed11*%
X104640000Y-77160000D02*
X104640000Y-84500000D01*
X106770000Y-75750000D02*
X106050000Y-75750000D01*
X106050000Y-75750000D02*
X104640000Y-77160000D01*
%TO.N,/reed10*%
X101975000Y-75750000D02*
X103640000Y-77415000D01*
X101510000Y-75750000D02*
X101975000Y-75750000D01*
X103640000Y-77415000D02*
X103640000Y-83825000D01*
%TO.N,/reed9*%
X102640000Y-78865000D02*
X102640000Y-84500000D01*
X100810000Y-76450000D02*
X100810000Y-77035000D01*
X100810000Y-77035000D02*
X102640000Y-78865000D01*
%TO.N,/reed8*%
X100310000Y-76450000D02*
X100310000Y-77610000D01*
X100310000Y-77610000D02*
X101650000Y-78950000D01*
X101650000Y-78950000D02*
X101650000Y-83850000D01*
%TO.N,/reed7*%
X99810000Y-78260000D02*
X100640000Y-79090000D01*
X99810000Y-76450000D02*
X99810000Y-78260000D01*
X100640000Y-79090000D02*
X100640000Y-84500000D01*
%TO.N,/reed6*%
X99310000Y-76450000D02*
X99310000Y-78660000D01*
X99310000Y-78660000D02*
X99625000Y-78975000D01*
X99625000Y-78975000D02*
X99625000Y-83875000D01*
%TO.N,/reed5*%
X98810000Y-78090000D02*
X98550000Y-78350000D01*
X98810000Y-76450000D02*
X98810000Y-78090000D01*
X98550000Y-78350000D02*
X98550000Y-84410000D01*
X98550000Y-84410000D02*
X98640000Y-84500000D01*
%TO.N,/reed4*%
X97625000Y-78525000D02*
X97625000Y-83800000D01*
X98310000Y-76450000D02*
X98310000Y-77840000D01*
X98310000Y-77840000D02*
X97625000Y-78525000D01*
%TO.N,/reed3*%
X96640000Y-78510000D02*
X96640000Y-84500000D01*
X97810000Y-77340000D02*
X96640000Y-78510000D01*
X97810000Y-76450000D02*
X97810000Y-77340000D01*
%TO.N,/reed2*%
X97310000Y-77015000D02*
X95625000Y-78700000D01*
X97310000Y-76450000D02*
X97310000Y-77015000D01*
X95625000Y-78700000D02*
X95625000Y-83875000D01*
%TO.N,/reed1*%
X95900000Y-75750000D02*
X96610000Y-75750000D01*
X94640000Y-84500000D02*
X94640000Y-77010000D01*
X94640000Y-77010000D02*
X95900000Y-75750000D01*
D21*
%TO.N,/VDD*%
X99310000Y-71550000D02*
X99310000Y-70529245D01*
X109470000Y-71550000D02*
X109470000Y-69834245D01*
X106085755Y-66450000D02*
X105825000Y-66450000D01*
X99310000Y-70529245D02*
X99449501Y-70389744D01*
X109470000Y-69834245D02*
X106085755Y-66450000D01*
X99449501Y-70389744D02*
X99449501Y-68751376D01*
X99449501Y-68751376D02*
X98573625Y-67875500D01*
%TO.N,/VBIAS*%
X96610000Y-72750000D02*
X95850000Y-72750000D01*
X105800000Y-72750000D02*
X103975000Y-70925000D01*
X95850000Y-72750000D02*
X95150000Y-72050000D01*
X94165000Y-64425000D02*
X95150000Y-65410000D01*
X95150000Y-65410000D02*
X95150000Y-71200000D01*
X95150000Y-72050000D02*
X95150000Y-71200000D01*
X106770000Y-72750000D02*
X105800000Y-72750000D01*
%TO.N,/DIN*%
X100934043Y-69060756D02*
X101085756Y-69060756D01*
X100500000Y-68220000D02*
X100500000Y-68626713D01*
X96705000Y-64425000D02*
X100500000Y-68220000D01*
X100810000Y-70290000D02*
X100810000Y-71550000D01*
X101085756Y-69060756D02*
X101250000Y-69225000D01*
X101250000Y-69225000D02*
X101250000Y-69850000D01*
X100500000Y-68626713D02*
X100934043Y-69060756D01*
X101250000Y-69850000D02*
X100810000Y-70290000D01*
D22*
%TO.N,/CLK*%
X101181767Y-66361767D02*
X101181767Y-68063489D01*
D21*
X99849012Y-71510988D02*
X99849012Y-69736030D01*
X99810000Y-71550000D02*
X99849012Y-71510988D01*
X99849012Y-69736030D02*
X100234542Y-69350500D01*
D22*
X99245000Y-64425000D02*
X101181767Y-66361767D01*
D21*
X109970000Y-71550000D02*
X109970000Y-69345000D01*
X109970000Y-69345000D02*
X108200000Y-67575000D01*
%TO.N,/POL*%
X101785000Y-64425000D02*
X101785000Y-66826752D01*
X108970000Y-71562500D02*
X108970000Y-69970000D01*
X106365828Y-67365828D02*
X105391867Y-67365828D01*
X101785000Y-66826752D02*
X102322237Y-67363989D01*
X108970000Y-69970000D02*
X106365828Y-67365828D01*
X98810000Y-69410500D02*
X98750000Y-69350500D01*
X98810000Y-71562500D02*
X98810000Y-69410500D01*
%TO.N,/LE*%
X98360489Y-70010989D02*
X97700000Y-69350500D01*
X108470000Y-70209245D02*
X106385256Y-68124501D01*
X108470000Y-71562500D02*
X108470000Y-70209245D01*
X98310000Y-71550000D02*
X98360489Y-71499511D01*
X106385256Y-68124501D02*
X105103739Y-68124501D01*
X105103739Y-68124501D02*
X104393541Y-67414303D01*
X104325000Y-64425000D02*
X104325000Y-67345762D01*
X98360489Y-71499511D02*
X98360489Y-70010989D01*
X104325000Y-67345762D02*
X104393541Y-67414303D01*
%TO.N,/DOUT*%
X107470000Y-71550000D02*
X107470000Y-70252497D01*
X107470000Y-70252497D02*
X106043003Y-68825500D01*
%TO.N,GND*%
X96610000Y-73250000D02*
X95275000Y-73250000D01*
X106770000Y-73250000D02*
X103784554Y-73250000D01*
X101510000Y-72750000D02*
X102600000Y-72750000D01*
X102600000Y-72750000D02*
X102942277Y-72407723D01*
X111670000Y-72750000D02*
X112400000Y-72750000D01*
X112400000Y-72750000D02*
X113000000Y-72150000D01*
X103784554Y-73250000D02*
X102942277Y-72407723D01*
D23*
%TO.N,/VPP*%
X117225000Y-70952913D02*
X117225000Y-64450000D01*
D20*
X101510000Y-73250000D02*
X99810000Y-73250000D01*
D23*
X112369022Y-73250000D02*
X114927913Y-73250000D01*
X103200000Y-73800000D02*
X103300000Y-73800000D01*
D20*
X101510000Y-73250000D02*
X102650000Y-73250000D01*
D23*
X102650000Y-73250000D02*
X103200000Y-73800000D01*
D20*
X111670000Y-73250000D02*
X112369022Y-73250000D01*
D23*
X114947607Y-73230306D02*
X117225000Y-70952913D01*
D20*
X111670000Y-73250000D02*
X109970000Y-73250000D01*
D23*
X114927913Y-73250000D02*
X114947607Y-73230306D01*
D21*
X99810000Y-73250000D02*
X99060000Y-74000000D01*
X109970000Y-73250000D02*
X109220000Y-74000000D01*
%TD*%
M02*
