%FSLAX45Y45*%
G04 Gerber Fmt 4.5, Leading zero omitted, Abs format (unit mm)*
G04 Created by KiCad (PCBNEW (6.0.1)) date 2022-02-26 19:36:05*
%MOMM*%
%LPD*%
G01*
G04 APERTURE LIST*
%TA.AperFunction,Profile*%
%ADD10C,0.100000*%
%TD*%
%ADD11C,0.200000*%
%ADD12C,0.040000*%
%ADD13C,0.100000*%
G04 APERTURE END LIST*
D10*
X8370000Y-6190000D02*
X12480000Y-6190000D01*
X12480000Y-6190000D02*
X12480000Y-9050000D01*
X12480000Y-9050000D02*
X8370000Y-9050000D01*
X8370000Y-9050000D02*
X8370000Y-6190000D01*
D11*
D12*
X9094000Y-8430000D02*
X9134000Y-8470000D01*
X9134000Y-8430000D02*
X9094000Y-8470000D01*
X9094000Y-8730000D02*
X9134000Y-8770000D01*
X9134000Y-8730000D02*
X9094000Y-8770000D01*
X9395000Y-7455000D02*
X9435000Y-7495000D01*
X9435000Y-7455000D02*
X9395000Y-7495000D01*
X9444000Y-8430000D02*
X9484000Y-8470000D01*
X9484000Y-8430000D02*
X9444000Y-8470000D01*
X9448000Y-8730000D02*
X9488000Y-8770000D01*
X9488000Y-8730000D02*
X9448000Y-8770000D01*
X9495000Y-7100000D02*
X9535000Y-7140000D01*
X9535000Y-7100000D02*
X9495000Y-7140000D01*
X9507500Y-7305000D02*
X9547500Y-7345000D01*
X9547500Y-7305000D02*
X9507500Y-7345000D01*
X9542500Y-8367500D02*
X9582500Y-8407500D01*
X9582500Y-8367500D02*
X9542500Y-8407500D01*
X9548000Y-8730000D02*
X9588000Y-8770000D01*
X9588000Y-8730000D02*
X9548000Y-8770000D01*
X9607500Y-6977500D02*
X9647500Y-7017500D01*
X9647500Y-6977500D02*
X9607500Y-7017500D01*
X9644000Y-8430000D02*
X9684000Y-8470000D01*
X9684000Y-8430000D02*
X9644000Y-8470000D01*
X9648000Y-8730000D02*
X9688000Y-8770000D01*
X9688000Y-8730000D02*
X9648000Y-8770000D01*
X9742500Y-8360000D02*
X9782500Y-8400000D01*
X9782500Y-8360000D02*
X9742500Y-8400000D01*
X9748000Y-8730000D02*
X9788000Y-8770000D01*
X9788000Y-8730000D02*
X9748000Y-8770000D01*
X9750000Y-6915050D02*
X9790000Y-6955050D01*
X9790000Y-6915050D02*
X9750000Y-6955050D01*
X9837363Y-6767550D02*
X9877363Y-6807550D01*
X9877363Y-6767550D02*
X9837363Y-6807550D01*
X9844000Y-8430000D02*
X9884000Y-8470000D01*
X9884000Y-8430000D02*
X9844000Y-8470000D01*
X9848000Y-8730000D02*
X9888000Y-8770000D01*
X9888000Y-8730000D02*
X9848000Y-8770000D01*
X9855000Y-6915050D02*
X9895000Y-6955050D01*
X9895000Y-6915050D02*
X9855000Y-6955050D01*
X9942500Y-8367500D02*
X9982500Y-8407500D01*
X9982500Y-8367500D02*
X9942500Y-8407500D01*
X9948000Y-8730000D02*
X9988000Y-8770000D01*
X9988000Y-8730000D02*
X9948000Y-8770000D01*
X10003454Y-6915050D02*
X10043454Y-6955050D01*
X10043454Y-6915050D02*
X10003454Y-6955050D01*
X10044000Y-8430000D02*
X10084000Y-8470000D01*
X10084000Y-8430000D02*
X10044000Y-8470000D01*
X10048000Y-8730000D02*
X10088000Y-8770000D01*
X10088000Y-8730000D02*
X10048000Y-8770000D01*
X10098177Y-6786349D02*
X10138177Y-6826349D01*
X10138177Y-6786349D02*
X10098177Y-6826349D01*
X10145000Y-8365000D02*
X10185000Y-8405000D01*
X10185000Y-8365000D02*
X10145000Y-8405000D01*
X10148000Y-8730000D02*
X10188000Y-8770000D01*
X10188000Y-8730000D02*
X10148000Y-8770000D01*
X10212224Y-6716399D02*
X10252224Y-6756399D01*
X10252224Y-6716399D02*
X10212224Y-6756399D01*
X10244000Y-8430000D02*
X10284000Y-8470000D01*
X10284000Y-8430000D02*
X10244000Y-8470000D01*
X10248000Y-8730000D02*
X10288000Y-8770000D01*
X10288000Y-8730000D02*
X10248000Y-8770000D01*
X10274228Y-7220772D02*
X10314228Y-7260772D01*
X10314228Y-7220772D02*
X10274228Y-7260772D01*
X10310000Y-7360000D02*
X10350000Y-7400000D01*
X10350000Y-7360000D02*
X10310000Y-7400000D01*
X10327500Y-7572500D02*
X10367500Y-7612500D01*
X10367500Y-7572500D02*
X10327500Y-7612500D01*
X10344000Y-8362500D02*
X10384000Y-8402500D01*
X10384000Y-8362500D02*
X10344000Y-8402500D01*
X10348000Y-8730000D02*
X10388000Y-8770000D01*
X10388000Y-8730000D02*
X10348000Y-8770000D01*
X10377500Y-7072500D02*
X10417500Y-7112500D01*
X10417500Y-7072500D02*
X10377500Y-7112500D01*
X10419354Y-6721430D02*
X10459354Y-6761430D01*
X10459354Y-6721430D02*
X10419354Y-6761430D01*
X10430000Y-7480000D02*
X10470000Y-7520000D01*
X10470000Y-7480000D02*
X10430000Y-7520000D01*
X10444000Y-8430000D02*
X10484000Y-8470000D01*
X10484000Y-8430000D02*
X10444000Y-8470000D01*
X10448000Y-8730000D02*
X10488000Y-8770000D01*
X10488000Y-8730000D02*
X10448000Y-8770000D01*
X10519187Y-6716583D02*
X10559187Y-6756583D01*
X10559187Y-6716583D02*
X10519187Y-6756583D01*
X10542500Y-8365000D02*
X10582500Y-8405000D01*
X10582500Y-8365000D02*
X10542500Y-8405000D01*
X10548000Y-8730000D02*
X10588000Y-8770000D01*
X10588000Y-8730000D02*
X10548000Y-8770000D01*
X10562500Y-6625000D02*
X10602500Y-6665000D01*
X10602500Y-6625000D02*
X10562500Y-6665000D01*
X10584300Y-6862550D02*
X10624300Y-6902550D01*
X10624300Y-6862550D02*
X10584300Y-6902550D01*
X10644000Y-8430000D02*
X10684000Y-8470000D01*
X10684000Y-8430000D02*
X10644000Y-8470000D01*
X10648000Y-8730000D02*
X10688000Y-8770000D01*
X10688000Y-8730000D02*
X10648000Y-8770000D01*
X10742500Y-8355000D02*
X10782500Y-8395000D01*
X10782500Y-8355000D02*
X10742500Y-8395000D01*
X10748000Y-8730000D02*
X10788000Y-8770000D01*
X10788000Y-8730000D02*
X10748000Y-8770000D01*
X10800000Y-6737500D02*
X10840000Y-6777500D01*
X10840000Y-6737500D02*
X10800000Y-6777500D01*
X10844000Y-8430000D02*
X10884000Y-8470000D01*
X10884000Y-8430000D02*
X10844000Y-8470000D01*
X10848000Y-8730000D02*
X10888000Y-8770000D01*
X10888000Y-8730000D02*
X10848000Y-8770000D01*
X10944000Y-8367500D02*
X10984000Y-8407500D01*
X10984000Y-8367500D02*
X10944000Y-8407500D01*
X10948000Y-8730000D02*
X10988000Y-8770000D01*
X10988000Y-8730000D02*
X10948000Y-8770000D01*
X10967500Y-6787500D02*
X11007500Y-6827500D01*
X11007500Y-6787500D02*
X10967500Y-6827500D01*
X11044000Y-8430000D02*
X11084000Y-8470000D01*
X11084000Y-8430000D02*
X11044000Y-8470000D01*
X11048000Y-8730000D02*
X11088000Y-8770000D01*
X11088000Y-8730000D02*
X11048000Y-8770000D01*
X11145000Y-8355000D02*
X11185000Y-8395000D01*
X11185000Y-8355000D02*
X11145000Y-8395000D01*
X11148000Y-8730000D02*
X11188000Y-8770000D01*
X11188000Y-8730000D02*
X11148000Y-8770000D01*
X11244000Y-8430000D02*
X11284000Y-8470000D01*
X11284000Y-8430000D02*
X11244000Y-8470000D01*
X11248000Y-8730000D02*
X11288000Y-8770000D01*
X11288000Y-8730000D02*
X11248000Y-8770000D01*
X11280000Y-7195000D02*
X11320000Y-7235000D01*
X11320000Y-7195000D02*
X11280000Y-7235000D01*
X11344000Y-8357500D02*
X11384000Y-8397500D01*
X11384000Y-8357500D02*
X11344000Y-8397500D01*
X11351000Y-8730000D02*
X11391000Y-8770000D01*
X11391000Y-8730000D02*
X11351000Y-8770000D01*
X11474761Y-7303031D02*
X11514761Y-7343031D01*
X11514761Y-7303031D02*
X11474761Y-7343031D01*
X11690000Y-7730000D02*
X11730000Y-7770000D01*
X11730000Y-7730000D02*
X11690000Y-7770000D01*
X11694000Y-8430000D02*
X11734000Y-8470000D01*
X11734000Y-8430000D02*
X11694000Y-8470000D01*
X11694000Y-8730000D02*
X11734000Y-8770000D01*
X11734000Y-8730000D02*
X11694000Y-8770000D01*
D13*
X9212500Y-6442500D02*
G75*
G03*
X9212500Y-6442500I-50000J0D01*
G01*
X9466500Y-6442500D02*
G75*
G03*
X9466500Y-6442500I-50000J0D01*
G01*
X9720500Y-6442500D02*
G75*
G03*
X9720500Y-6442500I-50000J0D01*
G01*
X9974500Y-6442500D02*
G75*
G03*
X9974500Y-6442500I-50000J0D01*
G01*
X10228500Y-6442500D02*
G75*
G03*
X10228500Y-6442500I-50000J0D01*
G01*
X10482500Y-6442500D02*
G75*
G03*
X10482500Y-6442500I-50000J0D01*
G01*
X10736500Y-6442500D02*
G75*
G03*
X10736500Y-6442500I-50000J0D01*
G01*
X10990500Y-6442500D02*
G75*
G03*
X10990500Y-6442500I-50000J0D01*
G01*
X11518500Y-6445000D02*
G75*
G03*
X11518500Y-6445000I-50000J0D01*
G01*
X11772500Y-6445000D02*
G75*
G03*
X11772500Y-6445000I-50000J0D01*
G01*
D11*
X8622619Y-9365476D02*
X8622619Y-9165476D01*
X8670238Y-9165476D01*
X8698810Y-9175000D01*
X8717857Y-9194048D01*
X8727381Y-9213095D01*
X8736905Y-9251190D01*
X8736905Y-9279762D01*
X8727381Y-9317857D01*
X8717857Y-9336905D01*
X8698810Y-9355952D01*
X8670238Y-9365476D01*
X8622619Y-9365476D01*
X8822619Y-9365476D02*
X8822619Y-9232143D01*
X8822619Y-9270238D02*
X8832143Y-9251190D01*
X8841667Y-9241667D01*
X8860714Y-9232143D01*
X8879762Y-9232143D01*
X8946429Y-9365476D02*
X8946429Y-9232143D01*
X8946429Y-9165476D02*
X8936905Y-9175000D01*
X8946429Y-9184524D01*
X8955952Y-9175000D01*
X8946429Y-9165476D01*
X8946429Y-9184524D01*
X9070238Y-9365476D02*
X9051190Y-9355952D01*
X9041667Y-9336905D01*
X9041667Y-9165476D01*
X9175000Y-9365476D02*
X9155952Y-9355952D01*
X9146429Y-9336905D01*
X9146429Y-9165476D01*
X9403571Y-9365476D02*
X9403571Y-9165476D01*
X9470238Y-9308333D01*
X9536905Y-9165476D01*
X9536905Y-9365476D01*
X9717857Y-9365476D02*
X9717857Y-9260714D01*
X9708333Y-9241667D01*
X9689286Y-9232143D01*
X9651190Y-9232143D01*
X9632143Y-9241667D01*
X9717857Y-9355952D02*
X9698810Y-9365476D01*
X9651190Y-9365476D01*
X9632143Y-9355952D01*
X9622619Y-9336905D01*
X9622619Y-9317857D01*
X9632143Y-9298810D01*
X9651190Y-9289286D01*
X9698810Y-9289286D01*
X9717857Y-9279762D01*
X9813095Y-9232143D02*
X9813095Y-9432143D01*
X9813095Y-9241667D02*
X9832143Y-9232143D01*
X9870238Y-9232143D01*
X9889286Y-9241667D01*
X9898810Y-9251190D01*
X9908333Y-9270238D01*
X9908333Y-9327381D01*
X9898810Y-9346429D01*
X9889286Y-9355952D01*
X9870238Y-9365476D01*
X9832143Y-9365476D01*
X9813095Y-9355952D01*
X9994048Y-9346429D02*
X10003571Y-9355952D01*
X9994048Y-9365476D01*
X9984524Y-9355952D01*
X9994048Y-9346429D01*
X9994048Y-9365476D01*
X9994048Y-9241667D02*
X10003571Y-9251190D01*
X9994048Y-9260714D01*
X9984524Y-9251190D01*
X9994048Y-9241667D01*
X9994048Y-9260714D01*
D12*
X8325000Y-9675000D02*
X8365000Y-9715000D01*
X8365000Y-9675000D02*
X8325000Y-9715000D01*
D11*
X8660714Y-9585476D02*
X8679762Y-9585476D01*
X8698810Y-9595000D01*
X8708333Y-9604524D01*
X8717857Y-9623571D01*
X8727381Y-9661667D01*
X8727381Y-9709286D01*
X8717857Y-9747381D01*
X8708333Y-9766429D01*
X8698810Y-9775952D01*
X8679762Y-9785476D01*
X8660714Y-9785476D01*
X8641667Y-9775952D01*
X8632143Y-9766429D01*
X8622619Y-9747381D01*
X8613095Y-9709286D01*
X8613095Y-9661667D01*
X8622619Y-9623571D01*
X8632143Y-9604524D01*
X8641667Y-9595000D01*
X8660714Y-9585476D01*
X8813095Y-9766429D02*
X8822619Y-9775952D01*
X8813095Y-9785476D01*
X8803571Y-9775952D01*
X8813095Y-9766429D01*
X8813095Y-9785476D01*
X8994048Y-9652143D02*
X8994048Y-9785476D01*
X8946429Y-9575952D02*
X8898810Y-9718810D01*
X9022619Y-9718810D01*
X9136905Y-9585476D02*
X9155952Y-9585476D01*
X9175000Y-9595000D01*
X9184524Y-9604524D01*
X9194048Y-9623571D01*
X9203571Y-9661667D01*
X9203571Y-9709286D01*
X9194048Y-9747381D01*
X9184524Y-9766429D01*
X9175000Y-9775952D01*
X9155952Y-9785476D01*
X9136905Y-9785476D01*
X9117857Y-9775952D01*
X9108333Y-9766429D01*
X9098810Y-9747381D01*
X9089286Y-9709286D01*
X9089286Y-9661667D01*
X9098810Y-9623571D01*
X9108333Y-9604524D01*
X9117857Y-9595000D01*
X9136905Y-9585476D01*
X9327381Y-9585476D02*
X9346429Y-9585476D01*
X9365476Y-9595000D01*
X9375000Y-9604524D01*
X9384524Y-9623571D01*
X9394048Y-9661667D01*
X9394048Y-9709286D01*
X9384524Y-9747381D01*
X9375000Y-9766429D01*
X9365476Y-9775952D01*
X9346429Y-9785476D01*
X9327381Y-9785476D01*
X9308333Y-9775952D01*
X9298810Y-9766429D01*
X9289286Y-9747381D01*
X9279762Y-9709286D01*
X9279762Y-9661667D01*
X9289286Y-9623571D01*
X9298810Y-9604524D01*
X9308333Y-9595000D01*
X9327381Y-9585476D01*
X9479762Y-9785476D02*
X9479762Y-9652143D01*
X9479762Y-9671190D02*
X9489286Y-9661667D01*
X9508333Y-9652143D01*
X9536905Y-9652143D01*
X9555952Y-9661667D01*
X9565476Y-9680714D01*
X9565476Y-9785476D01*
X9565476Y-9680714D02*
X9575000Y-9661667D01*
X9594048Y-9652143D01*
X9622619Y-9652143D01*
X9641667Y-9661667D01*
X9651190Y-9680714D01*
X9651190Y-9785476D01*
X9746429Y-9785476D02*
X9746429Y-9652143D01*
X9746429Y-9671190D02*
X9755952Y-9661667D01*
X9775000Y-9652143D01*
X9803571Y-9652143D01*
X9822619Y-9661667D01*
X9832143Y-9680714D01*
X9832143Y-9785476D01*
X9832143Y-9680714D02*
X9841667Y-9661667D01*
X9860714Y-9652143D01*
X9889286Y-9652143D01*
X9908333Y-9661667D01*
X9917857Y-9680714D01*
X9917857Y-9785476D01*
X10308333Y-9575952D02*
X10136905Y-9833095D01*
X10565476Y-9585476D02*
X10584524Y-9585476D01*
X10603571Y-9595000D01*
X10613095Y-9604524D01*
X10622619Y-9623571D01*
X10632143Y-9661667D01*
X10632143Y-9709286D01*
X10622619Y-9747381D01*
X10613095Y-9766429D01*
X10603571Y-9775952D01*
X10584524Y-9785476D01*
X10565476Y-9785476D01*
X10546429Y-9775952D01*
X10536905Y-9766429D01*
X10527381Y-9747381D01*
X10517857Y-9709286D01*
X10517857Y-9661667D01*
X10527381Y-9623571D01*
X10536905Y-9604524D01*
X10546429Y-9595000D01*
X10565476Y-9585476D01*
X10717857Y-9766429D02*
X10727381Y-9775952D01*
X10717857Y-9785476D01*
X10708333Y-9775952D01*
X10717857Y-9766429D01*
X10717857Y-9785476D01*
X10851190Y-9585476D02*
X10870238Y-9585476D01*
X10889286Y-9595000D01*
X10898810Y-9604524D01*
X10908333Y-9623571D01*
X10917857Y-9661667D01*
X10917857Y-9709286D01*
X10908333Y-9747381D01*
X10898810Y-9766429D01*
X10889286Y-9775952D01*
X10870238Y-9785476D01*
X10851190Y-9785476D01*
X10832143Y-9775952D01*
X10822619Y-9766429D01*
X10813095Y-9747381D01*
X10803571Y-9709286D01*
X10803571Y-9661667D01*
X10813095Y-9623571D01*
X10822619Y-9604524D01*
X10832143Y-9595000D01*
X10851190Y-9585476D01*
X11108333Y-9785476D02*
X10994048Y-9785476D01*
X11051190Y-9785476D02*
X11051190Y-9585476D01*
X11032143Y-9614048D01*
X11013095Y-9633095D01*
X10994048Y-9642619D01*
X11289286Y-9585476D02*
X11194048Y-9585476D01*
X11184524Y-9680714D01*
X11194048Y-9671190D01*
X11213095Y-9661667D01*
X11260714Y-9661667D01*
X11279762Y-9671190D01*
X11289286Y-9680714D01*
X11298809Y-9699762D01*
X11298809Y-9747381D01*
X11289286Y-9766429D01*
X11279762Y-9775952D01*
X11260714Y-9785476D01*
X11213095Y-9785476D01*
X11194048Y-9775952D01*
X11184524Y-9766429D01*
X11365476Y-9585476D02*
X11498809Y-9585476D01*
X11413095Y-9785476D01*
X11565476Y-9585476D02*
X11565476Y-9623571D01*
X11641667Y-9585476D02*
X11641667Y-9623571D01*
X11936905Y-9861667D02*
X11927381Y-9852143D01*
X11908333Y-9823571D01*
X11898809Y-9804524D01*
X11889286Y-9775952D01*
X11879762Y-9728333D01*
X11879762Y-9690238D01*
X11889286Y-9642619D01*
X11898809Y-9614048D01*
X11908333Y-9595000D01*
X11927381Y-9566429D01*
X11936905Y-9556905D01*
X12098809Y-9585476D02*
X12060714Y-9585476D01*
X12041667Y-9595000D01*
X12032143Y-9604524D01*
X12013095Y-9633095D01*
X12003571Y-9671190D01*
X12003571Y-9747381D01*
X12013095Y-9766429D01*
X12022619Y-9775952D01*
X12041667Y-9785476D01*
X12079762Y-9785476D01*
X12098809Y-9775952D01*
X12108333Y-9766429D01*
X12117857Y-9747381D01*
X12117857Y-9699762D01*
X12108333Y-9680714D01*
X12098809Y-9671190D01*
X12079762Y-9661667D01*
X12041667Y-9661667D01*
X12022619Y-9671190D01*
X12013095Y-9680714D01*
X12003571Y-9699762D01*
X12232143Y-9671190D02*
X12213095Y-9661667D01*
X12203571Y-9652143D01*
X12194048Y-9633095D01*
X12194048Y-9623571D01*
X12203571Y-9604524D01*
X12213095Y-9595000D01*
X12232143Y-9585476D01*
X12270238Y-9585476D01*
X12289286Y-9595000D01*
X12298809Y-9604524D01*
X12308333Y-9623571D01*
X12308333Y-9633095D01*
X12298809Y-9652143D01*
X12289286Y-9661667D01*
X12270238Y-9671190D01*
X12232143Y-9671190D01*
X12213095Y-9680714D01*
X12203571Y-9690238D01*
X12194048Y-9709286D01*
X12194048Y-9747381D01*
X12203571Y-9766429D01*
X12213095Y-9775952D01*
X12232143Y-9785476D01*
X12270238Y-9785476D01*
X12289286Y-9775952D01*
X12298809Y-9766429D01*
X12308333Y-9747381D01*
X12308333Y-9709286D01*
X12298809Y-9690238D01*
X12289286Y-9680714D01*
X12270238Y-9671190D01*
X12546428Y-9785476D02*
X12546428Y-9585476D01*
X12632143Y-9785476D02*
X12632143Y-9680714D01*
X12622619Y-9661667D01*
X12603571Y-9652143D01*
X12575000Y-9652143D01*
X12555952Y-9661667D01*
X12546428Y-9671190D01*
X12755952Y-9785476D02*
X12736905Y-9775952D01*
X12727381Y-9766429D01*
X12717857Y-9747381D01*
X12717857Y-9690238D01*
X12727381Y-9671190D01*
X12736905Y-9661667D01*
X12755952Y-9652143D01*
X12784524Y-9652143D01*
X12803571Y-9661667D01*
X12813095Y-9671190D01*
X12822619Y-9690238D01*
X12822619Y-9747381D01*
X12813095Y-9766429D01*
X12803571Y-9775952D01*
X12784524Y-9785476D01*
X12755952Y-9785476D01*
X12936905Y-9785476D02*
X12917857Y-9775952D01*
X12908333Y-9756905D01*
X12908333Y-9585476D01*
X13089286Y-9775952D02*
X13070238Y-9785476D01*
X13032143Y-9785476D01*
X13013095Y-9775952D01*
X13003571Y-9756905D01*
X13003571Y-9680714D01*
X13013095Y-9661667D01*
X13032143Y-9652143D01*
X13070238Y-9652143D01*
X13089286Y-9661667D01*
X13098809Y-9680714D01*
X13098809Y-9699762D01*
X13003571Y-9718810D01*
X13175000Y-9775952D02*
X13194048Y-9785476D01*
X13232143Y-9785476D01*
X13251190Y-9775952D01*
X13260714Y-9756905D01*
X13260714Y-9747381D01*
X13251190Y-9728333D01*
X13232143Y-9718810D01*
X13203571Y-9718810D01*
X13184524Y-9709286D01*
X13175000Y-9690238D01*
X13175000Y-9680714D01*
X13184524Y-9661667D01*
X13203571Y-9652143D01*
X13232143Y-9652143D01*
X13251190Y-9661667D01*
X13327381Y-9861667D02*
X13336905Y-9852143D01*
X13355952Y-9823571D01*
X13365476Y-9804524D01*
X13375000Y-9775952D01*
X13384524Y-9728333D01*
X13384524Y-9690238D01*
X13375000Y-9642619D01*
X13365476Y-9614048D01*
X13355952Y-9595000D01*
X13336905Y-9566429D01*
X13327381Y-9556905D01*
D13*
X8365000Y-9959000D02*
G75*
G03*
X8365000Y-9959000I-50000J0D01*
G01*
D11*
X8727381Y-10049476D02*
X8613095Y-10049476D01*
X8670238Y-10049476D02*
X8670238Y-9849476D01*
X8651190Y-9878048D01*
X8632143Y-9897095D01*
X8613095Y-9906619D01*
X8813095Y-10030429D02*
X8822619Y-10039952D01*
X8813095Y-10049476D01*
X8803571Y-10039952D01*
X8813095Y-10030429D01*
X8813095Y-10049476D01*
X8946429Y-9849476D02*
X8965476Y-9849476D01*
X8984524Y-9859000D01*
X8994048Y-9868524D01*
X9003571Y-9887571D01*
X9013095Y-9925667D01*
X9013095Y-9973286D01*
X9003571Y-10011381D01*
X8994048Y-10030429D01*
X8984524Y-10039952D01*
X8965476Y-10049476D01*
X8946429Y-10049476D01*
X8927381Y-10039952D01*
X8917857Y-10030429D01*
X8908333Y-10011381D01*
X8898810Y-9973286D01*
X8898810Y-9925667D01*
X8908333Y-9887571D01*
X8917857Y-9868524D01*
X8927381Y-9859000D01*
X8946429Y-9849476D01*
X9136905Y-9849476D02*
X9155952Y-9849476D01*
X9175000Y-9859000D01*
X9184524Y-9868524D01*
X9194048Y-9887571D01*
X9203571Y-9925667D01*
X9203571Y-9973286D01*
X9194048Y-10011381D01*
X9184524Y-10030429D01*
X9175000Y-10039952D01*
X9155952Y-10049476D01*
X9136905Y-10049476D01*
X9117857Y-10039952D01*
X9108333Y-10030429D01*
X9098810Y-10011381D01*
X9089286Y-9973286D01*
X9089286Y-9925667D01*
X9098810Y-9887571D01*
X9108333Y-9868524D01*
X9117857Y-9859000D01*
X9136905Y-9849476D01*
X9327381Y-9849476D02*
X9346429Y-9849476D01*
X9365476Y-9859000D01*
X9375000Y-9868524D01*
X9384524Y-9887571D01*
X9394048Y-9925667D01*
X9394048Y-9973286D01*
X9384524Y-10011381D01*
X9375000Y-10030429D01*
X9365476Y-10039952D01*
X9346429Y-10049476D01*
X9327381Y-10049476D01*
X9308333Y-10039952D01*
X9298810Y-10030429D01*
X9289286Y-10011381D01*
X9279762Y-9973286D01*
X9279762Y-9925667D01*
X9289286Y-9887571D01*
X9298810Y-9868524D01*
X9308333Y-9859000D01*
X9327381Y-9849476D01*
X9479762Y-10049476D02*
X9479762Y-9916143D01*
X9479762Y-9935190D02*
X9489286Y-9925667D01*
X9508333Y-9916143D01*
X9536905Y-9916143D01*
X9555952Y-9925667D01*
X9565476Y-9944714D01*
X9565476Y-10049476D01*
X9565476Y-9944714D02*
X9575000Y-9925667D01*
X9594048Y-9916143D01*
X9622619Y-9916143D01*
X9641667Y-9925667D01*
X9651190Y-9944714D01*
X9651190Y-10049476D01*
X9746429Y-10049476D02*
X9746429Y-9916143D01*
X9746429Y-9935190D02*
X9755952Y-9925667D01*
X9775000Y-9916143D01*
X9803571Y-9916143D01*
X9822619Y-9925667D01*
X9832143Y-9944714D01*
X9832143Y-10049476D01*
X9832143Y-9944714D02*
X9841667Y-9925667D01*
X9860714Y-9916143D01*
X9889286Y-9916143D01*
X9908333Y-9925667D01*
X9917857Y-9944714D01*
X9917857Y-10049476D01*
X10308333Y-9839952D02*
X10136905Y-10097095D01*
X10565476Y-9849476D02*
X10584524Y-9849476D01*
X10603571Y-9859000D01*
X10613095Y-9868524D01*
X10622619Y-9887571D01*
X10632143Y-9925667D01*
X10632143Y-9973286D01*
X10622619Y-10011381D01*
X10613095Y-10030429D01*
X10603571Y-10039952D01*
X10584524Y-10049476D01*
X10565476Y-10049476D01*
X10546429Y-10039952D01*
X10536905Y-10030429D01*
X10527381Y-10011381D01*
X10517857Y-9973286D01*
X10517857Y-9925667D01*
X10527381Y-9887571D01*
X10536905Y-9868524D01*
X10546429Y-9859000D01*
X10565476Y-9849476D01*
X10717857Y-10030429D02*
X10727381Y-10039952D01*
X10717857Y-10049476D01*
X10708333Y-10039952D01*
X10717857Y-10030429D01*
X10717857Y-10049476D01*
X10851190Y-9849476D02*
X10870238Y-9849476D01*
X10889286Y-9859000D01*
X10898810Y-9868524D01*
X10908333Y-9887571D01*
X10917857Y-9925667D01*
X10917857Y-9973286D01*
X10908333Y-10011381D01*
X10898810Y-10030429D01*
X10889286Y-10039952D01*
X10870238Y-10049476D01*
X10851190Y-10049476D01*
X10832143Y-10039952D01*
X10822619Y-10030429D01*
X10813095Y-10011381D01*
X10803571Y-9973286D01*
X10803571Y-9925667D01*
X10813095Y-9887571D01*
X10822619Y-9868524D01*
X10832143Y-9859000D01*
X10851190Y-9849476D01*
X10984524Y-9849476D02*
X11108333Y-9849476D01*
X11041667Y-9925667D01*
X11070238Y-9925667D01*
X11089286Y-9935190D01*
X11098810Y-9944714D01*
X11108333Y-9963762D01*
X11108333Y-10011381D01*
X11098810Y-10030429D01*
X11089286Y-10039952D01*
X11070238Y-10049476D01*
X11013095Y-10049476D01*
X10994048Y-10039952D01*
X10984524Y-10030429D01*
X11203571Y-10049476D02*
X11241667Y-10049476D01*
X11260714Y-10039952D01*
X11270238Y-10030429D01*
X11289286Y-10001857D01*
X11298809Y-9963762D01*
X11298809Y-9887571D01*
X11289286Y-9868524D01*
X11279762Y-9859000D01*
X11260714Y-9849476D01*
X11222619Y-9849476D01*
X11203571Y-9859000D01*
X11194048Y-9868524D01*
X11184524Y-9887571D01*
X11184524Y-9935190D01*
X11194048Y-9954238D01*
X11203571Y-9963762D01*
X11222619Y-9973286D01*
X11260714Y-9973286D01*
X11279762Y-9963762D01*
X11289286Y-9954238D01*
X11298809Y-9935190D01*
X11470238Y-9916143D02*
X11470238Y-10049476D01*
X11422619Y-9839952D02*
X11375000Y-9982810D01*
X11498809Y-9982810D01*
X11565476Y-9849476D02*
X11565476Y-9887571D01*
X11641667Y-9849476D02*
X11641667Y-9887571D01*
X11936905Y-10125667D02*
X11927381Y-10116143D01*
X11908333Y-10087571D01*
X11898809Y-10068524D01*
X11889286Y-10039952D01*
X11879762Y-9992333D01*
X11879762Y-9954238D01*
X11889286Y-9906619D01*
X11898809Y-9878048D01*
X11908333Y-9859000D01*
X11927381Y-9830429D01*
X11936905Y-9820905D01*
X12117857Y-10049476D02*
X12003571Y-10049476D01*
X12060714Y-10049476D02*
X12060714Y-9849476D01*
X12041667Y-9878048D01*
X12022619Y-9897095D01*
X12003571Y-9906619D01*
X12241667Y-9849476D02*
X12260714Y-9849476D01*
X12279762Y-9859000D01*
X12289286Y-9868524D01*
X12298809Y-9887571D01*
X12308333Y-9925667D01*
X12308333Y-9973286D01*
X12298809Y-10011381D01*
X12289286Y-10030429D01*
X12279762Y-10039952D01*
X12260714Y-10049476D01*
X12241667Y-10049476D01*
X12222619Y-10039952D01*
X12213095Y-10030429D01*
X12203571Y-10011381D01*
X12194048Y-9973286D01*
X12194048Y-9925667D01*
X12203571Y-9887571D01*
X12213095Y-9868524D01*
X12222619Y-9859000D01*
X12241667Y-9849476D01*
X12546428Y-10049476D02*
X12546428Y-9849476D01*
X12632143Y-10049476D02*
X12632143Y-9944714D01*
X12622619Y-9925667D01*
X12603571Y-9916143D01*
X12575000Y-9916143D01*
X12555952Y-9925667D01*
X12546428Y-9935190D01*
X12755952Y-10049476D02*
X12736905Y-10039952D01*
X12727381Y-10030429D01*
X12717857Y-10011381D01*
X12717857Y-9954238D01*
X12727381Y-9935190D01*
X12736905Y-9925667D01*
X12755952Y-9916143D01*
X12784524Y-9916143D01*
X12803571Y-9925667D01*
X12813095Y-9935190D01*
X12822619Y-9954238D01*
X12822619Y-10011381D01*
X12813095Y-10030429D01*
X12803571Y-10039952D01*
X12784524Y-10049476D01*
X12755952Y-10049476D01*
X12936905Y-10049476D02*
X12917857Y-10039952D01*
X12908333Y-10020905D01*
X12908333Y-9849476D01*
X13089286Y-10039952D02*
X13070238Y-10049476D01*
X13032143Y-10049476D01*
X13013095Y-10039952D01*
X13003571Y-10020905D01*
X13003571Y-9944714D01*
X13013095Y-9925667D01*
X13032143Y-9916143D01*
X13070238Y-9916143D01*
X13089286Y-9925667D01*
X13098809Y-9944714D01*
X13098809Y-9963762D01*
X13003571Y-9982810D01*
X13175000Y-10039952D02*
X13194048Y-10049476D01*
X13232143Y-10049476D01*
X13251190Y-10039952D01*
X13260714Y-10020905D01*
X13260714Y-10011381D01*
X13251190Y-9992333D01*
X13232143Y-9982810D01*
X13203571Y-9982810D01*
X13184524Y-9973286D01*
X13175000Y-9954238D01*
X13175000Y-9944714D01*
X13184524Y-9925667D01*
X13203571Y-9916143D01*
X13232143Y-9916143D01*
X13251190Y-9925667D01*
X13327381Y-10125667D02*
X13336905Y-10116143D01*
X13355952Y-10087571D01*
X13365476Y-10068524D01*
X13375000Y-10039952D01*
X13384524Y-9992333D01*
X13384524Y-9954238D01*
X13375000Y-9906619D01*
X13365476Y-9878048D01*
X13355952Y-9859000D01*
X13336905Y-9830429D01*
X13327381Y-9820905D01*
M02*
