%FSLAX45Y45*%
G04 Gerber Fmt 4.5, Leading zero omitted, Abs format (unit mm)*
G04 Created by KiCad (PCBNEW (6.0.1)) date 2022-02-26 19:36:05*
%MOMM*%
%LPD*%
G01*
G04 APERTURE LIST*
%TA.AperFunction,Profile*%
%ADD10C,0.100000*%
%TD*%
%ADD11C,0.200000*%
%ADD12C,0.220000*%
G04 APERTURE END LIST*
D10*
X8370000Y-6190000D02*
X12480000Y-6190000D01*
X12480000Y-6190000D02*
X12480000Y-9050000D01*
X12480000Y-9050000D02*
X8370000Y-9050000D01*
X8370000Y-9050000D02*
X8370000Y-6190000D01*
D11*
D12*
X8590000Y-6390000D02*
X8810000Y-6610000D01*
X8810000Y-6390000D02*
X8590000Y-6610000D01*
X8590000Y-8390000D02*
X8810000Y-8610000D01*
X8810000Y-8390000D02*
X8590000Y-8610000D01*
X12090000Y-6390000D02*
X12310000Y-6610000D01*
X12310000Y-6390000D02*
X12090000Y-6610000D01*
X12090000Y-8390000D02*
X12310000Y-8610000D01*
X12310000Y-8390000D02*
X12090000Y-8610000D01*
D11*
X8622619Y-9365476D02*
X8622619Y-9165476D01*
X8670238Y-9165476D01*
X8698810Y-9175000D01*
X8717857Y-9194048D01*
X8727381Y-9213095D01*
X8736905Y-9251190D01*
X8736905Y-9279762D01*
X8727381Y-9317857D01*
X8717857Y-9336905D01*
X8698810Y-9355952D01*
X8670238Y-9365476D01*
X8622619Y-9365476D01*
X8822619Y-9365476D02*
X8822619Y-9232143D01*
X8822619Y-9270238D02*
X8832143Y-9251190D01*
X8841667Y-9241667D01*
X8860714Y-9232143D01*
X8879762Y-9232143D01*
X8946429Y-9365476D02*
X8946429Y-9232143D01*
X8946429Y-9165476D02*
X8936905Y-9175000D01*
X8946429Y-9184524D01*
X8955952Y-9175000D01*
X8946429Y-9165476D01*
X8946429Y-9184524D01*
X9070238Y-9365476D02*
X9051190Y-9355952D01*
X9041667Y-9336905D01*
X9041667Y-9165476D01*
X9175000Y-9365476D02*
X9155952Y-9355952D01*
X9146429Y-9336905D01*
X9146429Y-9165476D01*
X9403571Y-9365476D02*
X9403571Y-9165476D01*
X9470238Y-9308333D01*
X9536905Y-9165476D01*
X9536905Y-9365476D01*
X9717857Y-9365476D02*
X9717857Y-9260714D01*
X9708333Y-9241667D01*
X9689286Y-9232143D01*
X9651190Y-9232143D01*
X9632143Y-9241667D01*
X9717857Y-9355952D02*
X9698810Y-9365476D01*
X9651190Y-9365476D01*
X9632143Y-9355952D01*
X9622619Y-9336905D01*
X9622619Y-9317857D01*
X9632143Y-9298810D01*
X9651190Y-9289286D01*
X9698810Y-9289286D01*
X9717857Y-9279762D01*
X9813095Y-9232143D02*
X9813095Y-9432143D01*
X9813095Y-9241667D02*
X9832143Y-9232143D01*
X9870238Y-9232143D01*
X9889286Y-9241667D01*
X9898810Y-9251190D01*
X9908333Y-9270238D01*
X9908333Y-9327381D01*
X9898810Y-9346429D01*
X9889286Y-9355952D01*
X9870238Y-9365476D01*
X9832143Y-9365476D01*
X9813095Y-9355952D01*
X9994048Y-9346429D02*
X10003571Y-9355952D01*
X9994048Y-9365476D01*
X9984524Y-9355952D01*
X9994048Y-9346429D01*
X9994048Y-9365476D01*
X9994048Y-9241667D02*
X10003571Y-9251190D01*
X9994048Y-9260714D01*
X9984524Y-9251190D01*
X9994048Y-9241667D01*
X9994048Y-9260714D01*
X8165000Y-9595000D02*
X8365000Y-9795000D01*
X8365000Y-9595000D02*
X8165000Y-9795000D01*
X8613095Y-9604524D02*
X8622619Y-9595000D01*
X8641667Y-9585476D01*
X8689286Y-9585476D01*
X8708333Y-9595000D01*
X8717857Y-9604524D01*
X8727381Y-9623571D01*
X8727381Y-9642619D01*
X8717857Y-9671190D01*
X8603571Y-9785476D01*
X8727381Y-9785476D01*
X8813095Y-9766429D02*
X8822619Y-9775952D01*
X8813095Y-9785476D01*
X8803571Y-9775952D01*
X8813095Y-9766429D01*
X8813095Y-9785476D01*
X8898810Y-9604524D02*
X8908333Y-9595000D01*
X8927381Y-9585476D01*
X8975000Y-9585476D01*
X8994048Y-9595000D01*
X9003571Y-9604524D01*
X9013095Y-9623571D01*
X9013095Y-9642619D01*
X9003571Y-9671190D01*
X8889286Y-9785476D01*
X9013095Y-9785476D01*
X9136905Y-9585476D02*
X9155952Y-9585476D01*
X9175000Y-9595000D01*
X9184524Y-9604524D01*
X9194048Y-9623571D01*
X9203571Y-9661667D01*
X9203571Y-9709286D01*
X9194048Y-9747381D01*
X9184524Y-9766429D01*
X9175000Y-9775952D01*
X9155952Y-9785476D01*
X9136905Y-9785476D01*
X9117857Y-9775952D01*
X9108333Y-9766429D01*
X9098810Y-9747381D01*
X9089286Y-9709286D01*
X9089286Y-9661667D01*
X9098810Y-9623571D01*
X9108333Y-9604524D01*
X9117857Y-9595000D01*
X9136905Y-9585476D01*
X9327381Y-9585476D02*
X9346429Y-9585476D01*
X9365476Y-9595000D01*
X9375000Y-9604524D01*
X9384524Y-9623571D01*
X9394048Y-9661667D01*
X9394048Y-9709286D01*
X9384524Y-9747381D01*
X9375000Y-9766429D01*
X9365476Y-9775952D01*
X9346429Y-9785476D01*
X9327381Y-9785476D01*
X9308333Y-9775952D01*
X9298810Y-9766429D01*
X9289286Y-9747381D01*
X9279762Y-9709286D01*
X9279762Y-9661667D01*
X9289286Y-9623571D01*
X9298810Y-9604524D01*
X9308333Y-9595000D01*
X9327381Y-9585476D01*
X9479762Y-9785476D02*
X9479762Y-9652143D01*
X9479762Y-9671190D02*
X9489286Y-9661667D01*
X9508333Y-9652143D01*
X9536905Y-9652143D01*
X9555952Y-9661667D01*
X9565476Y-9680714D01*
X9565476Y-9785476D01*
X9565476Y-9680714D02*
X9575000Y-9661667D01*
X9594048Y-9652143D01*
X9622619Y-9652143D01*
X9641667Y-9661667D01*
X9651190Y-9680714D01*
X9651190Y-9785476D01*
X9746429Y-9785476D02*
X9746429Y-9652143D01*
X9746429Y-9671190D02*
X9755952Y-9661667D01*
X9775000Y-9652143D01*
X9803571Y-9652143D01*
X9822619Y-9661667D01*
X9832143Y-9680714D01*
X9832143Y-9785476D01*
X9832143Y-9680714D02*
X9841667Y-9661667D01*
X9860714Y-9652143D01*
X9889286Y-9652143D01*
X9908333Y-9661667D01*
X9917857Y-9680714D01*
X9917857Y-9785476D01*
X10308333Y-9575952D02*
X10136905Y-9833095D01*
X10565476Y-9585476D02*
X10584524Y-9585476D01*
X10603571Y-9595000D01*
X10613095Y-9604524D01*
X10622619Y-9623571D01*
X10632143Y-9661667D01*
X10632143Y-9709286D01*
X10622619Y-9747381D01*
X10613095Y-9766429D01*
X10603571Y-9775952D01*
X10584524Y-9785476D01*
X10565476Y-9785476D01*
X10546429Y-9775952D01*
X10536905Y-9766429D01*
X10527381Y-9747381D01*
X10517857Y-9709286D01*
X10517857Y-9661667D01*
X10527381Y-9623571D01*
X10536905Y-9604524D01*
X10546429Y-9595000D01*
X10565476Y-9585476D01*
X10717857Y-9766429D02*
X10727381Y-9775952D01*
X10717857Y-9785476D01*
X10708333Y-9775952D01*
X10717857Y-9766429D01*
X10717857Y-9785476D01*
X10851190Y-9585476D02*
X10870238Y-9585476D01*
X10889286Y-9595000D01*
X10898810Y-9604524D01*
X10908333Y-9623571D01*
X10917857Y-9661667D01*
X10917857Y-9709286D01*
X10908333Y-9747381D01*
X10898810Y-9766429D01*
X10889286Y-9775952D01*
X10870238Y-9785476D01*
X10851190Y-9785476D01*
X10832143Y-9775952D01*
X10822619Y-9766429D01*
X10813095Y-9747381D01*
X10803571Y-9709286D01*
X10803571Y-9661667D01*
X10813095Y-9623571D01*
X10822619Y-9604524D01*
X10832143Y-9595000D01*
X10851190Y-9585476D01*
X11032143Y-9671190D02*
X11013095Y-9661667D01*
X11003571Y-9652143D01*
X10994048Y-9633095D01*
X10994048Y-9623571D01*
X11003571Y-9604524D01*
X11013095Y-9595000D01*
X11032143Y-9585476D01*
X11070238Y-9585476D01*
X11089286Y-9595000D01*
X11098810Y-9604524D01*
X11108333Y-9623571D01*
X11108333Y-9633095D01*
X11098810Y-9652143D01*
X11089286Y-9661667D01*
X11070238Y-9671190D01*
X11032143Y-9671190D01*
X11013095Y-9680714D01*
X11003571Y-9690238D01*
X10994048Y-9709286D01*
X10994048Y-9747381D01*
X11003571Y-9766429D01*
X11013095Y-9775952D01*
X11032143Y-9785476D01*
X11070238Y-9785476D01*
X11089286Y-9775952D01*
X11098810Y-9766429D01*
X11108333Y-9747381D01*
X11108333Y-9709286D01*
X11098810Y-9690238D01*
X11089286Y-9680714D01*
X11070238Y-9671190D01*
X11279762Y-9585476D02*
X11241667Y-9585476D01*
X11222619Y-9595000D01*
X11213095Y-9604524D01*
X11194048Y-9633095D01*
X11184524Y-9671190D01*
X11184524Y-9747381D01*
X11194048Y-9766429D01*
X11203571Y-9775952D01*
X11222619Y-9785476D01*
X11260714Y-9785476D01*
X11279762Y-9775952D01*
X11289286Y-9766429D01*
X11298809Y-9747381D01*
X11298809Y-9699762D01*
X11289286Y-9680714D01*
X11279762Y-9671190D01*
X11260714Y-9661667D01*
X11222619Y-9661667D01*
X11203571Y-9671190D01*
X11194048Y-9680714D01*
X11184524Y-9699762D01*
X11470238Y-9585476D02*
X11432143Y-9585476D01*
X11413095Y-9595000D01*
X11403571Y-9604524D01*
X11384524Y-9633095D01*
X11375000Y-9671190D01*
X11375000Y-9747381D01*
X11384524Y-9766429D01*
X11394048Y-9775952D01*
X11413095Y-9785476D01*
X11451190Y-9785476D01*
X11470238Y-9775952D01*
X11479762Y-9766429D01*
X11489286Y-9747381D01*
X11489286Y-9699762D01*
X11479762Y-9680714D01*
X11470238Y-9671190D01*
X11451190Y-9661667D01*
X11413095Y-9661667D01*
X11394048Y-9671190D01*
X11384524Y-9680714D01*
X11375000Y-9699762D01*
X11565476Y-9585476D02*
X11565476Y-9623571D01*
X11641667Y-9585476D02*
X11641667Y-9623571D01*
X11936905Y-9861667D02*
X11927381Y-9852143D01*
X11908333Y-9823571D01*
X11898809Y-9804524D01*
X11889286Y-9775952D01*
X11879762Y-9728333D01*
X11879762Y-9690238D01*
X11889286Y-9642619D01*
X11898809Y-9614048D01*
X11908333Y-9595000D01*
X11927381Y-9566429D01*
X11936905Y-9556905D01*
X12098809Y-9652143D02*
X12098809Y-9785476D01*
X12051190Y-9575952D02*
X12003571Y-9718810D01*
X12127381Y-9718810D01*
X12355952Y-9785476D02*
X12355952Y-9585476D01*
X12441667Y-9785476D02*
X12441667Y-9680714D01*
X12432143Y-9661667D01*
X12413095Y-9652143D01*
X12384524Y-9652143D01*
X12365476Y-9661667D01*
X12355952Y-9671190D01*
X12565476Y-9785476D02*
X12546428Y-9775952D01*
X12536905Y-9766429D01*
X12527381Y-9747381D01*
X12527381Y-9690238D01*
X12536905Y-9671190D01*
X12546428Y-9661667D01*
X12565476Y-9652143D01*
X12594048Y-9652143D01*
X12613095Y-9661667D01*
X12622619Y-9671190D01*
X12632143Y-9690238D01*
X12632143Y-9747381D01*
X12622619Y-9766429D01*
X12613095Y-9775952D01*
X12594048Y-9785476D01*
X12565476Y-9785476D01*
X12746428Y-9785476D02*
X12727381Y-9775952D01*
X12717857Y-9756905D01*
X12717857Y-9585476D01*
X12898809Y-9775952D02*
X12879762Y-9785476D01*
X12841667Y-9785476D01*
X12822619Y-9775952D01*
X12813095Y-9756905D01*
X12813095Y-9680714D01*
X12822619Y-9661667D01*
X12841667Y-9652143D01*
X12879762Y-9652143D01*
X12898809Y-9661667D01*
X12908333Y-9680714D01*
X12908333Y-9699762D01*
X12813095Y-9718810D01*
X12984524Y-9775952D02*
X13003571Y-9785476D01*
X13041667Y-9785476D01*
X13060714Y-9775952D01*
X13070238Y-9756905D01*
X13070238Y-9747381D01*
X13060714Y-9728333D01*
X13041667Y-9718810D01*
X13013095Y-9718810D01*
X12994048Y-9709286D01*
X12984524Y-9690238D01*
X12984524Y-9680714D01*
X12994048Y-9661667D01*
X13013095Y-9652143D01*
X13041667Y-9652143D01*
X13060714Y-9661667D01*
X13136905Y-9861667D02*
X13146428Y-9852143D01*
X13165476Y-9823571D01*
X13175000Y-9804524D01*
X13184524Y-9775952D01*
X13194048Y-9728333D01*
X13194048Y-9690238D01*
X13184524Y-9642619D01*
X13175000Y-9614048D01*
X13165476Y-9595000D01*
X13146428Y-9566429D01*
X13136905Y-9556905D01*
X13498809Y-9861667D02*
X13489286Y-9852143D01*
X13470238Y-9823571D01*
X13460714Y-9804524D01*
X13451190Y-9775952D01*
X13441667Y-9728333D01*
X13441667Y-9690238D01*
X13451190Y-9642619D01*
X13460714Y-9614048D01*
X13470238Y-9595000D01*
X13489286Y-9566429D01*
X13498809Y-9556905D01*
X13575000Y-9652143D02*
X13575000Y-9785476D01*
X13575000Y-9671190D02*
X13584524Y-9661667D01*
X13603571Y-9652143D01*
X13632143Y-9652143D01*
X13651190Y-9661667D01*
X13660714Y-9680714D01*
X13660714Y-9785476D01*
X13784524Y-9785476D02*
X13765476Y-9775952D01*
X13755952Y-9766429D01*
X13746428Y-9747381D01*
X13746428Y-9690238D01*
X13755952Y-9671190D01*
X13765476Y-9661667D01*
X13784524Y-9652143D01*
X13813095Y-9652143D01*
X13832143Y-9661667D01*
X13841667Y-9671190D01*
X13851190Y-9690238D01*
X13851190Y-9747381D01*
X13841667Y-9766429D01*
X13832143Y-9775952D01*
X13813095Y-9785476D01*
X13784524Y-9785476D01*
X13908333Y-9652143D02*
X13984524Y-9652143D01*
X13936905Y-9585476D02*
X13936905Y-9756905D01*
X13946428Y-9775952D01*
X13965476Y-9785476D01*
X13984524Y-9785476D01*
X14203571Y-9652143D02*
X14203571Y-9852143D01*
X14203571Y-9661667D02*
X14222619Y-9652143D01*
X14260714Y-9652143D01*
X14279762Y-9661667D01*
X14289286Y-9671190D01*
X14298809Y-9690238D01*
X14298809Y-9747381D01*
X14289286Y-9766429D01*
X14279762Y-9775952D01*
X14260714Y-9785476D01*
X14222619Y-9785476D01*
X14203571Y-9775952D01*
X14413095Y-9785476D02*
X14394048Y-9775952D01*
X14384524Y-9756905D01*
X14384524Y-9585476D01*
X14575000Y-9785476D02*
X14575000Y-9680714D01*
X14565476Y-9661667D01*
X14546428Y-9652143D01*
X14508333Y-9652143D01*
X14489286Y-9661667D01*
X14575000Y-9775952D02*
X14555952Y-9785476D01*
X14508333Y-9785476D01*
X14489286Y-9775952D01*
X14479762Y-9756905D01*
X14479762Y-9737857D01*
X14489286Y-9718810D01*
X14508333Y-9709286D01*
X14555952Y-9709286D01*
X14575000Y-9699762D01*
X14641667Y-9652143D02*
X14717857Y-9652143D01*
X14670238Y-9585476D02*
X14670238Y-9756905D01*
X14679762Y-9775952D01*
X14698809Y-9785476D01*
X14717857Y-9785476D01*
X14860714Y-9775952D02*
X14841667Y-9785476D01*
X14803571Y-9785476D01*
X14784524Y-9775952D01*
X14775000Y-9756905D01*
X14775000Y-9680714D01*
X14784524Y-9661667D01*
X14803571Y-9652143D01*
X14841667Y-9652143D01*
X14860714Y-9661667D01*
X14870238Y-9680714D01*
X14870238Y-9699762D01*
X14775000Y-9718810D01*
X15041667Y-9785476D02*
X15041667Y-9585476D01*
X15041667Y-9775952D02*
X15022619Y-9785476D01*
X14984524Y-9785476D01*
X14965476Y-9775952D01*
X14955952Y-9766429D01*
X14946428Y-9747381D01*
X14946428Y-9690238D01*
X14955952Y-9671190D01*
X14965476Y-9661667D01*
X14984524Y-9652143D01*
X15022619Y-9652143D01*
X15041667Y-9661667D01*
X15117857Y-9861667D02*
X15127381Y-9852143D01*
X15146428Y-9823571D01*
X15155952Y-9804524D01*
X15165476Y-9775952D01*
X15175000Y-9728333D01*
X15175000Y-9690238D01*
X15165476Y-9642619D01*
X15155952Y-9614048D01*
X15146428Y-9595000D01*
X15127381Y-9566429D01*
X15117857Y-9556905D01*
M02*
