G04 #@! TF.GenerationSoftware,KiCad,Pcbnew,(6.0.2-32-g71eefc8322)*
G04 #@! TF.CreationDate,2022-06-16T10:33:20+02:00*
G04 #@! TF.ProjectId,optacon,6f707461-636f-46e2-9e6b-696361645f70,rev?*
G04 #@! TF.SameCoordinates,Original*
G04 #@! TF.FileFunction,Legend,Bot*
G04 #@! TF.FilePolarity,Positive*
%FSLAX46Y46*%
G04 Gerber Fmt 4.6, Leading zero omitted, Abs format (unit mm)*
G04 Created by KiCad (PCBNEW (6.0.2-32-g71eefc8322)) date 2022-06-16 10:33:20*
%MOMM*%
%LPD*%
G01*
G04 APERTURE LIST*
%ADD10C,0.150000*%
%ADD11C,0.250000*%
G04 APERTURE END LIST*
D10*
X107016666Y-72692380D02*
X107016666Y-71692380D01*
X106778571Y-71692380D01*
X106635714Y-71740000D01*
X106540476Y-71835238D01*
X106492857Y-71930476D01*
X106445238Y-72120952D01*
X106445238Y-72263809D01*
X106492857Y-72454285D01*
X106540476Y-72549523D01*
X106635714Y-72644761D01*
X106778571Y-72692380D01*
X107016666Y-72692380D01*
X106064285Y-72406666D02*
X105588095Y-72406666D01*
X106159523Y-72692380D02*
X105826190Y-71692380D01*
X105492857Y-72692380D01*
X105159523Y-72692380D02*
X105159523Y-71692380D01*
X104588095Y-72692380D01*
X104588095Y-71692380D01*
X103588095Y-71740000D02*
X103683333Y-71692380D01*
X103826190Y-71692380D01*
X103969047Y-71740000D01*
X104064285Y-71835238D01*
X104111904Y-71930476D01*
X104159523Y-72120952D01*
X104159523Y-72263809D01*
X104111904Y-72454285D01*
X104064285Y-72549523D01*
X103969047Y-72644761D01*
X103826190Y-72692380D01*
X103730952Y-72692380D01*
X103588095Y-72644761D01*
X103540476Y-72597142D01*
X103540476Y-72263809D01*
X103730952Y-72263809D01*
X103111904Y-72168571D02*
X102778571Y-72168571D01*
X102635714Y-72692380D02*
X103111904Y-72692380D01*
X103111904Y-71692380D01*
X102635714Y-71692380D01*
X101635714Y-72692380D02*
X101969047Y-72216190D01*
X102207142Y-72692380D02*
X102207142Y-71692380D01*
X101826190Y-71692380D01*
X101730952Y-71740000D01*
X101683333Y-71787619D01*
X101635714Y-71882857D01*
X101635714Y-72025714D01*
X101683333Y-72120952D01*
X101730952Y-72168571D01*
X101826190Y-72216190D01*
X102207142Y-72216190D01*
X107016666Y-74302380D02*
X107016666Y-73302380D01*
X106778571Y-73302380D01*
X106635714Y-73350000D01*
X106540476Y-73445238D01*
X106492857Y-73540476D01*
X106445238Y-73730952D01*
X106445238Y-73873809D01*
X106492857Y-74064285D01*
X106540476Y-74159523D01*
X106635714Y-74254761D01*
X106778571Y-74302380D01*
X107016666Y-74302380D01*
X106064285Y-74016666D02*
X105588095Y-74016666D01*
X106159523Y-74302380D02*
X105826190Y-73302380D01*
X105492857Y-74302380D01*
X105159523Y-74302380D02*
X105159523Y-73302380D01*
X104588095Y-74302380D01*
X104588095Y-73302380D01*
X103588095Y-73350000D02*
X103683333Y-73302380D01*
X103826190Y-73302380D01*
X103969047Y-73350000D01*
X104064285Y-73445238D01*
X104111904Y-73540476D01*
X104159523Y-73730952D01*
X104159523Y-73873809D01*
X104111904Y-74064285D01*
X104064285Y-74159523D01*
X103969047Y-74254761D01*
X103826190Y-74302380D01*
X103730952Y-74302380D01*
X103588095Y-74254761D01*
X103540476Y-74207142D01*
X103540476Y-73873809D01*
X103730952Y-73873809D01*
X103111904Y-73778571D02*
X102778571Y-73778571D01*
X102635714Y-74302380D02*
X103111904Y-74302380D01*
X103111904Y-73302380D01*
X102635714Y-73302380D01*
X101635714Y-74302380D02*
X101969047Y-73826190D01*
X102207142Y-74302380D02*
X102207142Y-73302380D01*
X101826190Y-73302380D01*
X101730952Y-73350000D01*
X101683333Y-73397619D01*
X101635714Y-73492857D01*
X101635714Y-73635714D01*
X101683333Y-73730952D01*
X101730952Y-73778571D01*
X101826190Y-73826190D01*
X102207142Y-73826190D01*
X109397619Y-75912380D02*
X109397619Y-74912380D01*
X109397619Y-75388571D02*
X108826190Y-75388571D01*
X108826190Y-75912380D02*
X108826190Y-74912380D01*
X108350000Y-75912380D02*
X108350000Y-74912380D01*
X107350000Y-74960000D02*
X107445238Y-74912380D01*
X107588095Y-74912380D01*
X107730952Y-74960000D01*
X107826190Y-75055238D01*
X107873809Y-75150476D01*
X107921428Y-75340952D01*
X107921428Y-75483809D01*
X107873809Y-75674285D01*
X107826190Y-75769523D01*
X107730952Y-75864761D01*
X107588095Y-75912380D01*
X107492857Y-75912380D01*
X107350000Y-75864761D01*
X107302380Y-75817142D01*
X107302380Y-75483809D01*
X107492857Y-75483809D01*
X106873809Y-75912380D02*
X106873809Y-74912380D01*
X106873809Y-75388571D02*
X106302380Y-75388571D01*
X106302380Y-75912380D02*
X106302380Y-74912380D01*
X105207142Y-74912380D02*
X104873809Y-75912380D01*
X104540476Y-74912380D01*
X104016666Y-74912380D02*
X103826190Y-74912380D01*
X103730952Y-74960000D01*
X103635714Y-75055238D01*
X103588095Y-75245714D01*
X103588095Y-75579047D01*
X103635714Y-75769523D01*
X103730952Y-75864761D01*
X103826190Y-75912380D01*
X104016666Y-75912380D01*
X104111904Y-75864761D01*
X104207142Y-75769523D01*
X104254761Y-75579047D01*
X104254761Y-75245714D01*
X104207142Y-75055238D01*
X104111904Y-74960000D01*
X104016666Y-74912380D01*
X102683333Y-75912380D02*
X103159523Y-75912380D01*
X103159523Y-74912380D01*
X102492857Y-74912380D02*
X101921428Y-74912380D01*
X102207142Y-75912380D02*
X102207142Y-74912380D01*
X101635714Y-75626666D02*
X101159523Y-75626666D01*
X101730952Y-75912380D02*
X101397619Y-74912380D01*
X101064285Y-75912380D01*
X100207142Y-74960000D02*
X100302380Y-74912380D01*
X100445238Y-74912380D01*
X100588095Y-74960000D01*
X100683333Y-75055238D01*
X100730952Y-75150476D01*
X100778571Y-75340952D01*
X100778571Y-75483809D01*
X100730952Y-75674285D01*
X100683333Y-75769523D01*
X100588095Y-75864761D01*
X100445238Y-75912380D01*
X100350000Y-75912380D01*
X100207142Y-75864761D01*
X100159523Y-75817142D01*
X100159523Y-75483809D01*
X100350000Y-75483809D01*
X99730952Y-75388571D02*
X99397619Y-75388571D01*
X99254761Y-75912380D02*
X99730952Y-75912380D01*
X99730952Y-74912380D01*
X99254761Y-74912380D01*
X110938095Y-53580714D02*
X110938095Y-54580714D01*
X110938095Y-53628333D02*
X110842857Y-53580714D01*
X110652380Y-53580714D01*
X110557142Y-53628333D01*
X110509523Y-53675952D01*
X110461904Y-53771190D01*
X110461904Y-54056904D01*
X110509523Y-54152142D01*
X110557142Y-54199761D01*
X110652380Y-54247380D01*
X110842857Y-54247380D01*
X110938095Y-54199761D01*
X110033333Y-54247380D02*
X110033333Y-53580714D01*
X110033333Y-53247380D02*
X110080952Y-53295000D01*
X110033333Y-53342619D01*
X109985714Y-53295000D01*
X110033333Y-53247380D01*
X110033333Y-53342619D01*
X109176190Y-54199761D02*
X109271428Y-54247380D01*
X109461904Y-54247380D01*
X109557142Y-54199761D01*
X109604761Y-54104523D01*
X109604761Y-53723571D01*
X109557142Y-53628333D01*
X109461904Y-53580714D01*
X109271428Y-53580714D01*
X109176190Y-53628333D01*
X109128571Y-53723571D01*
X109128571Y-53818809D01*
X109604761Y-53914047D01*
X108795238Y-53580714D02*
X108271428Y-53580714D01*
X108795238Y-54247380D01*
X108271428Y-54247380D01*
X107747619Y-54247380D02*
X107842857Y-54199761D01*
X107890476Y-54152142D01*
X107938095Y-54056904D01*
X107938095Y-53771190D01*
X107890476Y-53675952D01*
X107842857Y-53628333D01*
X107747619Y-53580714D01*
X107604761Y-53580714D01*
X107509523Y-53628333D01*
X107461904Y-53675952D01*
X107414285Y-53771190D01*
X107414285Y-54056904D01*
X107461904Y-54152142D01*
X107509523Y-54199761D01*
X107604761Y-54247380D01*
X107747619Y-54247380D01*
X105795238Y-54247380D02*
X105795238Y-53247380D01*
X105795238Y-54199761D02*
X105890476Y-54247380D01*
X106080952Y-54247380D01*
X106176190Y-54199761D01*
X106223809Y-54152142D01*
X106271428Y-54056904D01*
X106271428Y-53771190D01*
X106223809Y-53675952D01*
X106176190Y-53628333D01*
X106080952Y-53580714D01*
X105890476Y-53580714D01*
X105795238Y-53628333D01*
X105319047Y-54247380D02*
X105319047Y-53580714D01*
X105319047Y-53771190D02*
X105271428Y-53675952D01*
X105223809Y-53628333D01*
X105128571Y-53580714D01*
X105033333Y-53580714D01*
X104700000Y-54247380D02*
X104700000Y-53580714D01*
X104700000Y-53247380D02*
X104747619Y-53295000D01*
X104700000Y-53342619D01*
X104652380Y-53295000D01*
X104700000Y-53247380D01*
X104700000Y-53342619D01*
X104319047Y-53580714D02*
X104080952Y-54247380D01*
X103842857Y-53580714D01*
X103080952Y-54199761D02*
X103176190Y-54247380D01*
X103366666Y-54247380D01*
X103461904Y-54199761D01*
X103509523Y-54104523D01*
X103509523Y-53723571D01*
X103461904Y-53628333D01*
X103366666Y-53580714D01*
X103176190Y-53580714D01*
X103080952Y-53628333D01*
X103033333Y-53723571D01*
X103033333Y-53818809D01*
X103509523Y-53914047D01*
X102604761Y-54247380D02*
X102604761Y-53580714D01*
X102604761Y-53771190D02*
X102557142Y-53675952D01*
X102509523Y-53628333D01*
X102414285Y-53580714D01*
X102319047Y-53580714D01*
X101223809Y-54247380D02*
X101223809Y-53247380D01*
X101223809Y-53628333D02*
X101128571Y-53580714D01*
X100938095Y-53580714D01*
X100842857Y-53628333D01*
X100795238Y-53675952D01*
X100747619Y-53771190D01*
X100747619Y-54056904D01*
X100795238Y-54152142D01*
X100842857Y-54199761D01*
X100938095Y-54247380D01*
X101128571Y-54247380D01*
X101223809Y-54199761D01*
X100176190Y-54247380D02*
X100271428Y-54199761D01*
X100319047Y-54152142D01*
X100366666Y-54056904D01*
X100366666Y-53771190D01*
X100319047Y-53675952D01*
X100271428Y-53628333D01*
X100176190Y-53580714D01*
X100033333Y-53580714D01*
X99938095Y-53628333D01*
X99890476Y-53675952D01*
X99842857Y-53771190D01*
X99842857Y-54056904D01*
X99890476Y-54152142D01*
X99938095Y-54199761D01*
X100033333Y-54247380D01*
X100176190Y-54247380D01*
X98985714Y-54247380D02*
X98985714Y-53723571D01*
X99033333Y-53628333D01*
X99128571Y-53580714D01*
X99319047Y-53580714D01*
X99414285Y-53628333D01*
X98985714Y-54199761D02*
X99080952Y-54247380D01*
X99319047Y-54247380D01*
X99414285Y-54199761D01*
X99461904Y-54104523D01*
X99461904Y-54009285D01*
X99414285Y-53914047D01*
X99319047Y-53866428D01*
X99080952Y-53866428D01*
X98985714Y-53818809D01*
X98509523Y-54247380D02*
X98509523Y-53580714D01*
X98509523Y-53771190D02*
X98461904Y-53675952D01*
X98414285Y-53628333D01*
X98319047Y-53580714D01*
X98223809Y-53580714D01*
X97461904Y-54247380D02*
X97461904Y-53247380D01*
X97461904Y-54199761D02*
X97557142Y-54247380D01*
X97747619Y-54247380D01*
X97842857Y-54199761D01*
X97890476Y-54152142D01*
X97938095Y-54056904D01*
X97938095Y-53771190D01*
X97890476Y-53675952D01*
X97842857Y-53628333D01*
X97747619Y-53580714D01*
X97557142Y-53580714D01*
X97461904Y-53628333D01*
X105938095Y-55857380D02*
X105938095Y-55190714D01*
X105938095Y-55381190D02*
X105890476Y-55285952D01*
X105842857Y-55238333D01*
X105747619Y-55190714D01*
X105652380Y-55190714D01*
X104938095Y-55809761D02*
X105033333Y-55857380D01*
X105223809Y-55857380D01*
X105319047Y-55809761D01*
X105366666Y-55714523D01*
X105366666Y-55333571D01*
X105319047Y-55238333D01*
X105223809Y-55190714D01*
X105033333Y-55190714D01*
X104938095Y-55238333D01*
X104890476Y-55333571D01*
X104890476Y-55428809D01*
X105366666Y-55524047D01*
X104557142Y-55190714D02*
X104319047Y-55857380D01*
X104080952Y-55190714D01*
X102985714Y-54952619D02*
X102938095Y-54905000D01*
X102842857Y-54857380D01*
X102604761Y-54857380D01*
X102509523Y-54905000D01*
X102461904Y-54952619D01*
X102414285Y-55047857D01*
X102414285Y-55143095D01*
X102461904Y-55285952D01*
X103033333Y-55857380D01*
X102414285Y-55857380D01*
D11*
X103140000Y-90500000D02*
X103140000Y-123500000D01*
X99140000Y-90500000D02*
X99140000Y-123500000D01*
X114140000Y-90500000D02*
X114140000Y-123500000D01*
X94140000Y-92700000D02*
X114140000Y-92700000D01*
X112140000Y-90500000D02*
X112140000Y-123500000D01*
X97140000Y-90500000D02*
X97140000Y-123500000D01*
X107140000Y-90500000D02*
X107140000Y-123500000D01*
X94140000Y-109625000D02*
X114140000Y-109625000D01*
X108140000Y-90500000D02*
X108140000Y-123500000D01*
X94140000Y-100375000D02*
X114140000Y-100375000D01*
X94140000Y-95750000D02*
X114140000Y-95750000D01*
X101140000Y-90500000D02*
X101140000Y-123500000D01*
X113140000Y-90500000D02*
X113140000Y-123500000D01*
X100140000Y-90500000D02*
X100140000Y-123500000D01*
X106140000Y-90500000D02*
X106140000Y-123500000D01*
X110140000Y-90500000D02*
X110140000Y-123500000D01*
X94140000Y-105000000D02*
X114140000Y-105000000D01*
X95140000Y-90500000D02*
X95140000Y-123500000D01*
X96140000Y-90500000D02*
X96140000Y-123500000D01*
X94140000Y-123500000D02*
X114140000Y-123500000D01*
X105140000Y-90500000D02*
X105140000Y-123500000D01*
X98140000Y-90500000D02*
X98140000Y-123500000D01*
X94140000Y-114250000D02*
X114140000Y-114250000D01*
X94140000Y-118875000D02*
X114140000Y-118875000D01*
X102140000Y-90500000D02*
X102140000Y-123500000D01*
X104140000Y-90500000D02*
X104140000Y-123500000D01*
X109140000Y-90500000D02*
X109140000Y-123500000D01*
X94140000Y-90500000D02*
X94140000Y-123500000D01*
X111140000Y-90500000D02*
X111140000Y-123500000D01*
%LPC*%
M02*
