%FSLAX45Y45*%
G04 Gerber Fmt 4.5, Leading zero omitted, Abs format (unit mm)*
G04 Created by KiCad (PCBNEW (6.0.5)) date 2022-06-13 12:49:53*
%MOMM*%
%LPD*%
G01*
G04 APERTURE LIST*
%TA.AperFunction,Profile*%
%ADD10C,0.100000*%
%TD*%
%ADD11C,0.150000*%
%TA.AperFunction,Profile*%
%ADD12C,0.150000*%
%TD*%
%ADD13C,0.200000*%
%ADD14C,0.020000*%
%ADD15C,0.030000*%
G04 APERTURE END LIST*
D10*
X11260000Y-12460000D02*
G75*
G03*
X11260000Y-12360000I0J50000D01*
G01*
X9560000Y-12360000D02*
G75*
G03*
X9560000Y-12460000I0J-50000D01*
G01*
X9560000Y-12360000D02*
X11260000Y-12360000D01*
X11260000Y-12460000D02*
X9560000Y-12460000D01*
X11530000Y-9720000D02*
G75*
G03*
X11430000Y-9720000I-50000J0D01*
G01*
X11430000Y-11420000D02*
G75*
G03*
X11530000Y-11420000I50000J0D01*
G01*
X11430000Y-11420000D02*
X11430000Y-9720000D01*
X11530000Y-9720000D02*
X11530000Y-11420000D01*
X9400000Y-9700000D02*
G75*
G03*
X9300000Y-9700000I-50000J0D01*
G01*
X9300000Y-11400000D02*
X9300000Y-9700000D01*
X9400000Y-9700000D02*
X9400000Y-11400000D01*
X9300000Y-11400000D02*
G75*
G03*
X9400000Y-11400000I50000J0D01*
G01*
X9150000Y-9080000D02*
G75*
G03*
X9150000Y-9180000I0J-50000D01*
G01*
X11600000Y-9180000D02*
G75*
G03*
X11600000Y-9080000I0J50000D01*
G01*
X11600000Y-9180000D02*
X9150000Y-9180000D01*
X9150000Y-9080000D02*
X11600000Y-9080000D01*
D11*
X6163809Y-9088571D02*
X6187619Y-9155238D01*
X6211428Y-9088571D01*
X6244762Y-9150476D02*
X6254286Y-9155238D01*
X6273333Y-9155238D01*
X6282857Y-9150476D01*
X6287619Y-9140952D01*
X6287619Y-9136190D01*
X6282857Y-9126667D01*
X6273333Y-9121905D01*
X6259048Y-9121905D01*
X6249524Y-9117143D01*
X6244762Y-9107619D01*
X6244762Y-9102857D01*
X6249524Y-9093333D01*
X6259048Y-9088571D01*
X6273333Y-9088571D01*
X6282857Y-9093333D01*
X6373333Y-9150476D02*
X6363809Y-9155238D01*
X6344762Y-9155238D01*
X6335238Y-9150476D01*
X6330476Y-9145714D01*
X6325714Y-9136190D01*
X6325714Y-9107619D01*
X6330476Y-9098095D01*
X6335238Y-9093333D01*
X6344762Y-9088571D01*
X6363809Y-9088571D01*
X6373333Y-9093333D01*
X6430476Y-9155238D02*
X6420952Y-9150476D01*
X6416190Y-9145714D01*
X6411428Y-9136190D01*
X6411428Y-9107619D01*
X6416190Y-9098095D01*
X6420952Y-9093333D01*
X6430476Y-9088571D01*
X6444762Y-9088571D01*
X6454286Y-9093333D01*
X6459048Y-9098095D01*
X6463809Y-9107619D01*
X6463809Y-9136190D01*
X6459048Y-9145714D01*
X6454286Y-9150476D01*
X6444762Y-9155238D01*
X6430476Y-9155238D01*
X6506667Y-9155238D02*
X6506667Y-9088571D01*
X6506667Y-9107619D02*
X6511428Y-9098095D01*
X6516190Y-9093333D01*
X6525714Y-9088571D01*
X6535238Y-9088571D01*
X6606667Y-9150476D02*
X6597143Y-9155238D01*
X6578095Y-9155238D01*
X6568571Y-9150476D01*
X6563809Y-9140952D01*
X6563809Y-9102857D01*
X6568571Y-9093333D01*
X6578095Y-9088571D01*
X6597143Y-9088571D01*
X6606667Y-9093333D01*
X6611428Y-9102857D01*
X6611428Y-9112381D01*
X6563809Y-9121905D01*
D12*
X12890000Y-9130000D02*
X6700000Y-9130000D01*
D10*
X8410000Y-5070000D02*
X12470000Y-5070000D01*
X12470000Y-5070000D02*
X12470000Y-12920000D01*
X12470000Y-12920000D02*
X8410000Y-12920000D01*
X8410000Y-12920000D02*
X8410000Y-5070000D01*
D13*
D14*
X10370000Y-5690000D02*
X10390000Y-5710000D01*
X10390000Y-5690000D02*
X10370000Y-5710000D01*
X10370000Y-5800000D02*
X10390000Y-5820000D01*
X10390000Y-5800000D02*
X10370000Y-5820000D01*
X10370000Y-5910000D02*
X10390000Y-5930000D01*
X10390000Y-5910000D02*
X10370000Y-5930000D01*
X10480000Y-5690000D02*
X10500000Y-5710000D01*
X10500000Y-5690000D02*
X10480000Y-5710000D01*
X10480000Y-5800000D02*
X10500000Y-5820000D01*
X10500000Y-5800000D02*
X10480000Y-5820000D01*
X10480000Y-5910000D02*
X10500000Y-5930000D01*
X10500000Y-5910000D02*
X10480000Y-5930000D01*
X10590000Y-5690000D02*
X10610000Y-5710000D01*
X10610000Y-5690000D02*
X10590000Y-5710000D01*
X10590000Y-5800000D02*
X10610000Y-5820000D01*
X10610000Y-5800000D02*
X10590000Y-5820000D01*
X10590000Y-5910000D02*
X10610000Y-5930000D01*
X10610000Y-5910000D02*
X10590000Y-5930000D01*
D15*
X8725050Y-5590000D02*
G75*
G03*
X8725050Y-5590000I-15000J0D01*
G01*
X9585000Y-5930000D02*
G75*
G03*
X9585000Y-5930000I-15000J0D01*
G01*
X9593143Y-7125201D02*
G75*
G03*
X9593143Y-7125201I-15000J0D01*
G01*
X9642609Y-7062391D02*
G75*
G03*
X9642609Y-7062391I-15000J0D01*
G01*
X9745000Y-6210000D02*
G75*
G03*
X9745000Y-6210000I-15000J0D01*
G01*
X9825000Y-7400000D02*
G75*
G03*
X9825000Y-7400000I-15000J0D01*
G01*
X9875000Y-6490000D02*
G75*
G03*
X9875000Y-6490000I-15000J0D01*
G01*
X9965000Y-5720000D02*
G75*
G03*
X9965000Y-5720000I-15000J0D01*
G01*
X10179950Y-5905084D02*
G75*
G03*
X10179950Y-5905084I-15000J0D01*
G01*
X10290848Y-7129370D02*
G75*
G03*
X10290848Y-7129370I-15000J0D01*
G01*
X10295000Y-7577550D02*
G75*
G03*
X10295000Y-7577550I-15000J0D01*
G01*
X10305000Y-7379851D02*
G75*
G03*
X10305000Y-7379851I-15000J0D01*
G01*
X10395000Y-7110000D02*
G75*
G03*
X10395000Y-7110000I-15000J0D01*
G01*
X10425000Y-7760000D02*
G75*
G03*
X10425000Y-7760000I-15000J0D01*
G01*
X10475000Y-7040000D02*
G75*
G03*
X10475000Y-7040000I-15000J0D01*
G01*
X10544853Y-6890147D02*
G75*
G03*
X10544853Y-6890147I-15000J0D01*
G01*
X10565000Y-7600000D02*
G75*
G03*
X10565000Y-7600000I-15000J0D01*
G01*
X10575000Y-7510000D02*
G75*
G03*
X10575000Y-7510000I-15000J0D01*
G01*
X10615000Y-7040000D02*
G75*
G03*
X10615000Y-7040000I-15000J0D01*
G01*
X10710949Y-7088511D02*
G75*
G03*
X10710949Y-7088511I-15000J0D01*
G01*
X10711071Y-6982394D02*
G75*
G03*
X10711071Y-6982394I-15000J0D01*
G01*
X10715000Y-6030000D02*
G75*
G03*
X10715000Y-6030000I-15000J0D01*
G01*
X10859950Y-6160964D02*
G75*
G03*
X10859950Y-6160964I-15000J0D01*
G01*
X10875000Y-6800000D02*
G75*
G03*
X10875000Y-6800000I-15000J0D01*
G01*
X10975000Y-6290000D02*
G75*
G03*
X10975000Y-6290000I-15000J0D01*
G01*
X11005000Y-7400000D02*
G75*
G03*
X11005000Y-7400000I-15000J0D01*
G01*
X11135000Y-6160000D02*
G75*
G03*
X11135000Y-6160000I-15000J0D01*
G01*
X11187808Y-7022808D02*
G75*
G03*
X11187808Y-7022808I-15000J0D01*
G01*
X11705000Y-7370000D02*
G75*
G03*
X11705000Y-7370000I-15000J0D01*
G01*
X9114000Y-8735000D02*
X9114000Y-8765000D01*
X9099000Y-8750000D02*
X9129000Y-8750000D01*
X9464000Y-8895000D02*
X9464000Y-8925000D01*
X9449000Y-8910000D02*
X9479000Y-8910000D01*
X9564000Y-8895000D02*
X9564000Y-8925000D01*
X9549000Y-8910000D02*
X9579000Y-8910000D01*
X9664000Y-8895000D02*
X9664000Y-8925000D01*
X9649000Y-8910000D02*
X9679000Y-8910000D01*
X9764000Y-8895000D02*
X9764000Y-8925000D01*
X9749000Y-8910000D02*
X9779000Y-8910000D01*
X9864000Y-8895000D02*
X9864000Y-8925000D01*
X9849000Y-8910000D02*
X9879000Y-8910000D01*
X9964000Y-8895000D02*
X9964000Y-8925000D01*
X9949000Y-8910000D02*
X9979000Y-8910000D01*
X10064000Y-8895000D02*
X10064000Y-8925000D01*
X10049000Y-8910000D02*
X10079000Y-8910000D01*
X10164000Y-8895000D02*
X10164000Y-8925000D01*
X10149000Y-8910000D02*
X10179000Y-8910000D01*
X10264000Y-8895000D02*
X10264000Y-8925000D01*
X10249000Y-8910000D02*
X10279000Y-8910000D01*
X10364000Y-8895000D02*
X10364000Y-8925000D01*
X10349000Y-8910000D02*
X10379000Y-8910000D01*
X10464000Y-8895000D02*
X10464000Y-8925000D01*
X10449000Y-8910000D02*
X10479000Y-8910000D01*
X10564000Y-8895000D02*
X10564000Y-8925000D01*
X10549000Y-8910000D02*
X10579000Y-8910000D01*
X10664000Y-8895000D02*
X10664000Y-8925000D01*
X10649000Y-8910000D02*
X10679000Y-8910000D01*
X10764000Y-8895000D02*
X10764000Y-8925000D01*
X10749000Y-8910000D02*
X10779000Y-8910000D01*
X10864000Y-8895000D02*
X10864000Y-8925000D01*
X10849000Y-8910000D02*
X10879000Y-8910000D01*
X10964000Y-8895000D02*
X10964000Y-8925000D01*
X10949000Y-8910000D02*
X10979000Y-8910000D01*
X11064000Y-8895000D02*
X11064000Y-8925000D01*
X11049000Y-8910000D02*
X11079000Y-8910000D01*
X11164000Y-8895000D02*
X11164000Y-8925000D01*
X11149000Y-8910000D02*
X11179000Y-8910000D01*
X11264000Y-8895000D02*
X11264000Y-8925000D01*
X11249000Y-8910000D02*
X11279000Y-8910000D01*
X11364000Y-8895000D02*
X11364000Y-8925000D01*
X11349000Y-8910000D02*
X11379000Y-8910000D01*
X11714000Y-8735000D02*
X11714000Y-8765000D01*
X11699000Y-8750000D02*
X11729000Y-8750000D01*
D13*
X6950119Y-13235476D02*
X6950119Y-13035476D01*
X6997738Y-13035476D01*
X7026309Y-13045000D01*
X7045357Y-13064048D01*
X7054881Y-13083095D01*
X7064405Y-13121190D01*
X7064405Y-13149762D01*
X7054881Y-13187857D01*
X7045357Y-13206905D01*
X7026309Y-13225952D01*
X6997738Y-13235476D01*
X6950119Y-13235476D01*
X7150119Y-13235476D02*
X7150119Y-13102143D01*
X7150119Y-13140238D02*
X7159643Y-13121190D01*
X7169167Y-13111667D01*
X7188214Y-13102143D01*
X7207262Y-13102143D01*
X7273928Y-13235476D02*
X7273928Y-13102143D01*
X7273928Y-13035476D02*
X7264405Y-13045000D01*
X7273928Y-13054524D01*
X7283452Y-13045000D01*
X7273928Y-13035476D01*
X7273928Y-13054524D01*
X7397738Y-13235476D02*
X7378690Y-13225952D01*
X7369167Y-13206905D01*
X7369167Y-13035476D01*
X7502500Y-13235476D02*
X7483452Y-13225952D01*
X7473928Y-13206905D01*
X7473928Y-13035476D01*
X7731071Y-13235476D02*
X7731071Y-13035476D01*
X7797738Y-13178333D01*
X7864405Y-13035476D01*
X7864405Y-13235476D01*
X8045357Y-13235476D02*
X8045357Y-13130714D01*
X8035833Y-13111667D01*
X8016786Y-13102143D01*
X7978690Y-13102143D01*
X7959643Y-13111667D01*
X8045357Y-13225952D02*
X8026309Y-13235476D01*
X7978690Y-13235476D01*
X7959643Y-13225952D01*
X7950119Y-13206905D01*
X7950119Y-13187857D01*
X7959643Y-13168809D01*
X7978690Y-13159286D01*
X8026309Y-13159286D01*
X8045357Y-13149762D01*
X8140595Y-13102143D02*
X8140595Y-13302143D01*
X8140595Y-13111667D02*
X8159643Y-13102143D01*
X8197738Y-13102143D01*
X8216786Y-13111667D01*
X8226309Y-13121190D01*
X8235833Y-13140238D01*
X8235833Y-13197381D01*
X8226309Y-13216428D01*
X8216786Y-13225952D01*
X8197738Y-13235476D01*
X8159643Y-13235476D01*
X8140595Y-13225952D01*
X8321548Y-13216428D02*
X8331071Y-13225952D01*
X8321548Y-13235476D01*
X8312024Y-13225952D01*
X8321548Y-13216428D01*
X8321548Y-13235476D01*
X8321548Y-13111667D02*
X8331071Y-13121190D01*
X8321548Y-13130714D01*
X8312024Y-13121190D01*
X8321548Y-13111667D01*
X8321548Y-13130714D01*
D14*
X6672500Y-13555000D02*
X6692500Y-13575000D01*
X6692500Y-13555000D02*
X6672500Y-13575000D01*
D13*
X6988214Y-13455476D02*
X7007262Y-13455476D01*
X7026309Y-13465000D01*
X7035833Y-13474524D01*
X7045357Y-13493571D01*
X7054881Y-13531667D01*
X7054881Y-13579286D01*
X7045357Y-13617381D01*
X7035833Y-13636428D01*
X7026309Y-13645952D01*
X7007262Y-13655476D01*
X6988214Y-13655476D01*
X6969167Y-13645952D01*
X6959643Y-13636428D01*
X6950119Y-13617381D01*
X6940595Y-13579286D01*
X6940595Y-13531667D01*
X6950119Y-13493571D01*
X6959643Y-13474524D01*
X6969167Y-13465000D01*
X6988214Y-13455476D01*
X7140595Y-13636428D02*
X7150119Y-13645952D01*
X7140595Y-13655476D01*
X7131071Y-13645952D01*
X7140595Y-13636428D01*
X7140595Y-13655476D01*
X7226309Y-13474524D02*
X7235833Y-13465000D01*
X7254881Y-13455476D01*
X7302500Y-13455476D01*
X7321548Y-13465000D01*
X7331071Y-13474524D01*
X7340595Y-13493571D01*
X7340595Y-13512619D01*
X7331071Y-13541190D01*
X7216786Y-13655476D01*
X7340595Y-13655476D01*
X7464405Y-13455476D02*
X7483452Y-13455476D01*
X7502500Y-13465000D01*
X7512024Y-13474524D01*
X7521548Y-13493571D01*
X7531071Y-13531667D01*
X7531071Y-13579286D01*
X7521548Y-13617381D01*
X7512024Y-13636428D01*
X7502500Y-13645952D01*
X7483452Y-13655476D01*
X7464405Y-13655476D01*
X7445357Y-13645952D01*
X7435833Y-13636428D01*
X7426309Y-13617381D01*
X7416786Y-13579286D01*
X7416786Y-13531667D01*
X7426309Y-13493571D01*
X7435833Y-13474524D01*
X7445357Y-13465000D01*
X7464405Y-13455476D01*
X7654881Y-13455476D02*
X7673928Y-13455476D01*
X7692976Y-13465000D01*
X7702500Y-13474524D01*
X7712024Y-13493571D01*
X7721548Y-13531667D01*
X7721548Y-13579286D01*
X7712024Y-13617381D01*
X7702500Y-13636428D01*
X7692976Y-13645952D01*
X7673928Y-13655476D01*
X7654881Y-13655476D01*
X7635833Y-13645952D01*
X7626309Y-13636428D01*
X7616786Y-13617381D01*
X7607262Y-13579286D01*
X7607262Y-13531667D01*
X7616786Y-13493571D01*
X7626309Y-13474524D01*
X7635833Y-13465000D01*
X7654881Y-13455476D01*
X7807262Y-13655476D02*
X7807262Y-13522143D01*
X7807262Y-13541190D02*
X7816786Y-13531667D01*
X7835833Y-13522143D01*
X7864405Y-13522143D01*
X7883452Y-13531667D01*
X7892976Y-13550714D01*
X7892976Y-13655476D01*
X7892976Y-13550714D02*
X7902500Y-13531667D01*
X7921548Y-13522143D01*
X7950119Y-13522143D01*
X7969167Y-13531667D01*
X7978690Y-13550714D01*
X7978690Y-13655476D01*
X8073928Y-13655476D02*
X8073928Y-13522143D01*
X8073928Y-13541190D02*
X8083452Y-13531667D01*
X8102500Y-13522143D01*
X8131071Y-13522143D01*
X8150119Y-13531667D01*
X8159643Y-13550714D01*
X8159643Y-13655476D01*
X8159643Y-13550714D02*
X8169167Y-13531667D01*
X8188214Y-13522143D01*
X8216786Y-13522143D01*
X8235833Y-13531667D01*
X8245357Y-13550714D01*
X8245357Y-13655476D01*
X8635833Y-13445952D02*
X8464405Y-13703095D01*
X8892976Y-13455476D02*
X8912024Y-13455476D01*
X8931071Y-13465000D01*
X8940595Y-13474524D01*
X8950119Y-13493571D01*
X8959643Y-13531667D01*
X8959643Y-13579286D01*
X8950119Y-13617381D01*
X8940595Y-13636428D01*
X8931071Y-13645952D01*
X8912024Y-13655476D01*
X8892976Y-13655476D01*
X8873929Y-13645952D01*
X8864405Y-13636428D01*
X8854881Y-13617381D01*
X8845357Y-13579286D01*
X8845357Y-13531667D01*
X8854881Y-13493571D01*
X8864405Y-13474524D01*
X8873929Y-13465000D01*
X8892976Y-13455476D01*
X9045357Y-13636428D02*
X9054881Y-13645952D01*
X9045357Y-13655476D01*
X9035833Y-13645952D01*
X9045357Y-13636428D01*
X9045357Y-13655476D01*
X9178690Y-13455476D02*
X9197738Y-13455476D01*
X9216786Y-13465000D01*
X9226310Y-13474524D01*
X9235833Y-13493571D01*
X9245357Y-13531667D01*
X9245357Y-13579286D01*
X9235833Y-13617381D01*
X9226310Y-13636428D01*
X9216786Y-13645952D01*
X9197738Y-13655476D01*
X9178690Y-13655476D01*
X9159643Y-13645952D01*
X9150119Y-13636428D01*
X9140595Y-13617381D01*
X9131071Y-13579286D01*
X9131071Y-13531667D01*
X9140595Y-13493571D01*
X9150119Y-13474524D01*
X9159643Y-13465000D01*
X9178690Y-13455476D01*
X9369167Y-13455476D02*
X9388214Y-13455476D01*
X9407262Y-13465000D01*
X9416786Y-13474524D01*
X9426310Y-13493571D01*
X9435833Y-13531667D01*
X9435833Y-13579286D01*
X9426310Y-13617381D01*
X9416786Y-13636428D01*
X9407262Y-13645952D01*
X9388214Y-13655476D01*
X9369167Y-13655476D01*
X9350119Y-13645952D01*
X9340595Y-13636428D01*
X9331071Y-13617381D01*
X9321548Y-13579286D01*
X9321548Y-13531667D01*
X9331071Y-13493571D01*
X9340595Y-13474524D01*
X9350119Y-13465000D01*
X9369167Y-13455476D01*
X9502500Y-13455476D02*
X9635833Y-13455476D01*
X9550119Y-13655476D01*
X9721548Y-13655476D02*
X9759643Y-13655476D01*
X9778690Y-13645952D01*
X9788214Y-13636428D01*
X9807262Y-13607857D01*
X9816786Y-13569762D01*
X9816786Y-13493571D01*
X9807262Y-13474524D01*
X9797738Y-13465000D01*
X9778690Y-13455476D01*
X9740595Y-13455476D01*
X9721548Y-13465000D01*
X9712024Y-13474524D01*
X9702500Y-13493571D01*
X9702500Y-13541190D01*
X9712024Y-13560238D01*
X9721548Y-13569762D01*
X9740595Y-13579286D01*
X9778690Y-13579286D01*
X9797738Y-13569762D01*
X9807262Y-13560238D01*
X9816786Y-13541190D01*
X9892976Y-13455476D02*
X9892976Y-13493571D01*
X9969167Y-13455476D02*
X9969167Y-13493571D01*
X10264405Y-13731667D02*
X10254881Y-13722143D01*
X10235833Y-13693571D01*
X10226310Y-13674524D01*
X10216786Y-13645952D01*
X10207262Y-13598333D01*
X10207262Y-13560238D01*
X10216786Y-13512619D01*
X10226310Y-13484048D01*
X10235833Y-13465000D01*
X10254881Y-13436428D01*
X10264405Y-13426905D01*
X10350119Y-13655476D02*
X10388214Y-13655476D01*
X10407262Y-13645952D01*
X10416786Y-13636428D01*
X10435833Y-13607857D01*
X10445357Y-13569762D01*
X10445357Y-13493571D01*
X10435833Y-13474524D01*
X10426310Y-13465000D01*
X10407262Y-13455476D01*
X10369167Y-13455476D01*
X10350119Y-13465000D01*
X10340595Y-13474524D01*
X10331071Y-13493571D01*
X10331071Y-13541190D01*
X10340595Y-13560238D01*
X10350119Y-13569762D01*
X10369167Y-13579286D01*
X10407262Y-13579286D01*
X10426310Y-13569762D01*
X10435833Y-13560238D01*
X10445357Y-13541190D01*
X10683452Y-13655476D02*
X10683452Y-13455476D01*
X10769167Y-13655476D02*
X10769167Y-13550714D01*
X10759643Y-13531667D01*
X10740595Y-13522143D01*
X10712024Y-13522143D01*
X10692976Y-13531667D01*
X10683452Y-13541190D01*
X10892976Y-13655476D02*
X10873929Y-13645952D01*
X10864405Y-13636428D01*
X10854881Y-13617381D01*
X10854881Y-13560238D01*
X10864405Y-13541190D01*
X10873929Y-13531667D01*
X10892976Y-13522143D01*
X10921548Y-13522143D01*
X10940595Y-13531667D01*
X10950119Y-13541190D01*
X10959643Y-13560238D01*
X10959643Y-13617381D01*
X10950119Y-13636428D01*
X10940595Y-13645952D01*
X10921548Y-13655476D01*
X10892976Y-13655476D01*
X11073929Y-13655476D02*
X11054881Y-13645952D01*
X11045357Y-13626905D01*
X11045357Y-13455476D01*
X11226309Y-13645952D02*
X11207262Y-13655476D01*
X11169167Y-13655476D01*
X11150119Y-13645952D01*
X11140595Y-13626905D01*
X11140595Y-13550714D01*
X11150119Y-13531667D01*
X11169167Y-13522143D01*
X11207262Y-13522143D01*
X11226309Y-13531667D01*
X11235833Y-13550714D01*
X11235833Y-13569762D01*
X11140595Y-13588809D01*
X11312024Y-13645952D02*
X11331071Y-13655476D01*
X11369167Y-13655476D01*
X11388214Y-13645952D01*
X11397738Y-13626905D01*
X11397738Y-13617381D01*
X11388214Y-13598333D01*
X11369167Y-13588809D01*
X11340595Y-13588809D01*
X11321548Y-13579286D01*
X11312024Y-13560238D01*
X11312024Y-13550714D01*
X11321548Y-13531667D01*
X11340595Y-13522143D01*
X11369167Y-13522143D01*
X11388214Y-13531667D01*
X11464405Y-13731667D02*
X11473928Y-13722143D01*
X11492976Y-13693571D01*
X11502500Y-13674524D01*
X11512024Y-13645952D01*
X11521548Y-13598333D01*
X11521548Y-13560238D01*
X11512024Y-13512619D01*
X11502500Y-13484048D01*
X11492976Y-13465000D01*
X11473928Y-13436428D01*
X11464405Y-13426905D01*
D15*
X6692500Y-13829000D02*
G75*
G03*
X6692500Y-13829000I-15000J0D01*
G01*
D13*
X6988214Y-13719476D02*
X7007262Y-13719476D01*
X7026309Y-13729000D01*
X7035833Y-13738524D01*
X7045357Y-13757571D01*
X7054881Y-13795667D01*
X7054881Y-13843286D01*
X7045357Y-13881381D01*
X7035833Y-13900428D01*
X7026309Y-13909952D01*
X7007262Y-13919476D01*
X6988214Y-13919476D01*
X6969167Y-13909952D01*
X6959643Y-13900428D01*
X6950119Y-13881381D01*
X6940595Y-13843286D01*
X6940595Y-13795667D01*
X6950119Y-13757571D01*
X6959643Y-13738524D01*
X6969167Y-13729000D01*
X6988214Y-13719476D01*
X7140595Y-13900428D02*
X7150119Y-13909952D01*
X7140595Y-13919476D01*
X7131071Y-13909952D01*
X7140595Y-13900428D01*
X7140595Y-13919476D01*
X7216786Y-13719476D02*
X7340595Y-13719476D01*
X7273928Y-13795667D01*
X7302500Y-13795667D01*
X7321548Y-13805190D01*
X7331071Y-13814714D01*
X7340595Y-13833762D01*
X7340595Y-13881381D01*
X7331071Y-13900428D01*
X7321548Y-13909952D01*
X7302500Y-13919476D01*
X7245357Y-13919476D01*
X7226309Y-13909952D01*
X7216786Y-13900428D01*
X7464405Y-13719476D02*
X7483452Y-13719476D01*
X7502500Y-13729000D01*
X7512024Y-13738524D01*
X7521548Y-13757571D01*
X7531071Y-13795667D01*
X7531071Y-13843286D01*
X7521548Y-13881381D01*
X7512024Y-13900428D01*
X7502500Y-13909952D01*
X7483452Y-13919476D01*
X7464405Y-13919476D01*
X7445357Y-13909952D01*
X7435833Y-13900428D01*
X7426309Y-13881381D01*
X7416786Y-13843286D01*
X7416786Y-13795667D01*
X7426309Y-13757571D01*
X7435833Y-13738524D01*
X7445357Y-13729000D01*
X7464405Y-13719476D01*
X7654881Y-13719476D02*
X7673928Y-13719476D01*
X7692976Y-13729000D01*
X7702500Y-13738524D01*
X7712024Y-13757571D01*
X7721548Y-13795667D01*
X7721548Y-13843286D01*
X7712024Y-13881381D01*
X7702500Y-13900428D01*
X7692976Y-13909952D01*
X7673928Y-13919476D01*
X7654881Y-13919476D01*
X7635833Y-13909952D01*
X7626309Y-13900428D01*
X7616786Y-13881381D01*
X7607262Y-13843286D01*
X7607262Y-13795667D01*
X7616786Y-13757571D01*
X7626309Y-13738524D01*
X7635833Y-13729000D01*
X7654881Y-13719476D01*
X7807262Y-13919476D02*
X7807262Y-13786143D01*
X7807262Y-13805190D02*
X7816786Y-13795667D01*
X7835833Y-13786143D01*
X7864405Y-13786143D01*
X7883452Y-13795667D01*
X7892976Y-13814714D01*
X7892976Y-13919476D01*
X7892976Y-13814714D02*
X7902500Y-13795667D01*
X7921548Y-13786143D01*
X7950119Y-13786143D01*
X7969167Y-13795667D01*
X7978690Y-13814714D01*
X7978690Y-13919476D01*
X8073928Y-13919476D02*
X8073928Y-13786143D01*
X8073928Y-13805190D02*
X8083452Y-13795667D01*
X8102500Y-13786143D01*
X8131071Y-13786143D01*
X8150119Y-13795667D01*
X8159643Y-13814714D01*
X8159643Y-13919476D01*
X8159643Y-13814714D02*
X8169167Y-13795667D01*
X8188214Y-13786143D01*
X8216786Y-13786143D01*
X8235833Y-13795667D01*
X8245357Y-13814714D01*
X8245357Y-13919476D01*
X8635833Y-13709952D02*
X8464405Y-13967095D01*
X8892976Y-13719476D02*
X8912024Y-13719476D01*
X8931071Y-13729000D01*
X8940595Y-13738524D01*
X8950119Y-13757571D01*
X8959643Y-13795667D01*
X8959643Y-13843286D01*
X8950119Y-13881381D01*
X8940595Y-13900428D01*
X8931071Y-13909952D01*
X8912024Y-13919476D01*
X8892976Y-13919476D01*
X8873929Y-13909952D01*
X8864405Y-13900428D01*
X8854881Y-13881381D01*
X8845357Y-13843286D01*
X8845357Y-13795667D01*
X8854881Y-13757571D01*
X8864405Y-13738524D01*
X8873929Y-13729000D01*
X8892976Y-13719476D01*
X9045357Y-13900428D02*
X9054881Y-13909952D01*
X9045357Y-13919476D01*
X9035833Y-13909952D01*
X9045357Y-13900428D01*
X9045357Y-13919476D01*
X9178690Y-13719476D02*
X9197738Y-13719476D01*
X9216786Y-13729000D01*
X9226310Y-13738524D01*
X9235833Y-13757571D01*
X9245357Y-13795667D01*
X9245357Y-13843286D01*
X9235833Y-13881381D01*
X9226310Y-13900428D01*
X9216786Y-13909952D01*
X9197738Y-13919476D01*
X9178690Y-13919476D01*
X9159643Y-13909952D01*
X9150119Y-13900428D01*
X9140595Y-13881381D01*
X9131071Y-13843286D01*
X9131071Y-13795667D01*
X9140595Y-13757571D01*
X9150119Y-13738524D01*
X9159643Y-13729000D01*
X9178690Y-13719476D01*
X9435833Y-13919476D02*
X9321548Y-13919476D01*
X9378690Y-13919476D02*
X9378690Y-13719476D01*
X9359643Y-13748048D01*
X9340595Y-13767095D01*
X9321548Y-13776619D01*
X9626310Y-13919476D02*
X9512024Y-13919476D01*
X9569167Y-13919476D02*
X9569167Y-13719476D01*
X9550119Y-13748048D01*
X9531071Y-13767095D01*
X9512024Y-13776619D01*
X9740595Y-13805190D02*
X9721548Y-13795667D01*
X9712024Y-13786143D01*
X9702500Y-13767095D01*
X9702500Y-13757571D01*
X9712024Y-13738524D01*
X9721548Y-13729000D01*
X9740595Y-13719476D01*
X9778690Y-13719476D01*
X9797738Y-13729000D01*
X9807262Y-13738524D01*
X9816786Y-13757571D01*
X9816786Y-13767095D01*
X9807262Y-13786143D01*
X9797738Y-13795667D01*
X9778690Y-13805190D01*
X9740595Y-13805190D01*
X9721548Y-13814714D01*
X9712024Y-13824238D01*
X9702500Y-13843286D01*
X9702500Y-13881381D01*
X9712024Y-13900428D01*
X9721548Y-13909952D01*
X9740595Y-13919476D01*
X9778690Y-13919476D01*
X9797738Y-13909952D01*
X9807262Y-13900428D01*
X9816786Y-13881381D01*
X9816786Y-13843286D01*
X9807262Y-13824238D01*
X9797738Y-13814714D01*
X9778690Y-13805190D01*
X9892976Y-13719476D02*
X9892976Y-13757571D01*
X9969167Y-13719476D02*
X9969167Y-13757571D01*
X10264405Y-13995667D02*
X10254881Y-13986143D01*
X10235833Y-13957571D01*
X10226310Y-13938524D01*
X10216786Y-13909952D01*
X10207262Y-13862333D01*
X10207262Y-13824238D01*
X10216786Y-13776619D01*
X10226310Y-13748048D01*
X10235833Y-13729000D01*
X10254881Y-13700428D01*
X10264405Y-13690905D01*
X10331071Y-13738524D02*
X10340595Y-13729000D01*
X10359643Y-13719476D01*
X10407262Y-13719476D01*
X10426310Y-13729000D01*
X10435833Y-13738524D01*
X10445357Y-13757571D01*
X10445357Y-13776619D01*
X10435833Y-13805190D01*
X10321548Y-13919476D01*
X10445357Y-13919476D01*
X10540595Y-13919476D02*
X10578690Y-13919476D01*
X10597738Y-13909952D01*
X10607262Y-13900428D01*
X10626310Y-13871857D01*
X10635833Y-13833762D01*
X10635833Y-13757571D01*
X10626310Y-13738524D01*
X10616786Y-13729000D01*
X10597738Y-13719476D01*
X10559643Y-13719476D01*
X10540595Y-13729000D01*
X10531071Y-13738524D01*
X10521548Y-13757571D01*
X10521548Y-13805190D01*
X10531071Y-13824238D01*
X10540595Y-13833762D01*
X10559643Y-13843286D01*
X10597738Y-13843286D01*
X10616786Y-13833762D01*
X10626310Y-13824238D01*
X10635833Y-13805190D01*
X10873929Y-13919476D02*
X10873929Y-13719476D01*
X10959643Y-13919476D02*
X10959643Y-13814714D01*
X10950119Y-13795667D01*
X10931071Y-13786143D01*
X10902500Y-13786143D01*
X10883452Y-13795667D01*
X10873929Y-13805190D01*
X11083452Y-13919476D02*
X11064405Y-13909952D01*
X11054881Y-13900428D01*
X11045357Y-13881381D01*
X11045357Y-13824238D01*
X11054881Y-13805190D01*
X11064405Y-13795667D01*
X11083452Y-13786143D01*
X11112024Y-13786143D01*
X11131071Y-13795667D01*
X11140595Y-13805190D01*
X11150119Y-13824238D01*
X11150119Y-13881381D01*
X11140595Y-13900428D01*
X11131071Y-13909952D01*
X11112024Y-13919476D01*
X11083452Y-13919476D01*
X11264405Y-13919476D02*
X11245357Y-13909952D01*
X11235833Y-13890905D01*
X11235833Y-13719476D01*
X11416786Y-13909952D02*
X11397738Y-13919476D01*
X11359643Y-13919476D01*
X11340595Y-13909952D01*
X11331071Y-13890905D01*
X11331071Y-13814714D01*
X11340595Y-13795667D01*
X11359643Y-13786143D01*
X11397738Y-13786143D01*
X11416786Y-13795667D01*
X11426309Y-13814714D01*
X11426309Y-13833762D01*
X11331071Y-13852809D01*
X11502500Y-13909952D02*
X11521548Y-13919476D01*
X11559643Y-13919476D01*
X11578690Y-13909952D01*
X11588214Y-13890905D01*
X11588214Y-13881381D01*
X11578690Y-13862333D01*
X11559643Y-13852809D01*
X11531071Y-13852809D01*
X11512024Y-13843286D01*
X11502500Y-13824238D01*
X11502500Y-13814714D01*
X11512024Y-13795667D01*
X11531071Y-13786143D01*
X11559643Y-13786143D01*
X11578690Y-13795667D01*
X11654881Y-13995667D02*
X11664405Y-13986143D01*
X11683452Y-13957571D01*
X11692976Y-13938524D01*
X11702500Y-13909952D01*
X11712024Y-13862333D01*
X11712024Y-13824238D01*
X11702500Y-13776619D01*
X11692976Y-13748048D01*
X11683452Y-13729000D01*
X11664405Y-13700428D01*
X11654881Y-13690905D01*
D15*
X6677500Y-14078000D02*
X6677500Y-14108000D01*
X6662500Y-14093000D02*
X6692500Y-14093000D01*
D13*
X6988214Y-13983476D02*
X7007262Y-13983476D01*
X7026309Y-13993000D01*
X7035833Y-14002524D01*
X7045357Y-14021571D01*
X7054881Y-14059667D01*
X7054881Y-14107286D01*
X7045357Y-14145381D01*
X7035833Y-14164428D01*
X7026309Y-14173952D01*
X7007262Y-14183476D01*
X6988214Y-14183476D01*
X6969167Y-14173952D01*
X6959643Y-14164428D01*
X6950119Y-14145381D01*
X6940595Y-14107286D01*
X6940595Y-14059667D01*
X6950119Y-14021571D01*
X6959643Y-14002524D01*
X6969167Y-13993000D01*
X6988214Y-13983476D01*
X7140595Y-14164428D02*
X7150119Y-14173952D01*
X7140595Y-14183476D01*
X7131071Y-14173952D01*
X7140595Y-14164428D01*
X7140595Y-14183476D01*
X7216786Y-13983476D02*
X7340595Y-13983476D01*
X7273928Y-14059667D01*
X7302500Y-14059667D01*
X7321548Y-14069190D01*
X7331071Y-14078714D01*
X7340595Y-14097762D01*
X7340595Y-14145381D01*
X7331071Y-14164428D01*
X7321548Y-14173952D01*
X7302500Y-14183476D01*
X7245357Y-14183476D01*
X7226309Y-14173952D01*
X7216786Y-14164428D01*
X7464405Y-13983476D02*
X7483452Y-13983476D01*
X7502500Y-13993000D01*
X7512024Y-14002524D01*
X7521548Y-14021571D01*
X7531071Y-14059667D01*
X7531071Y-14107286D01*
X7521548Y-14145381D01*
X7512024Y-14164428D01*
X7502500Y-14173952D01*
X7483452Y-14183476D01*
X7464405Y-14183476D01*
X7445357Y-14173952D01*
X7435833Y-14164428D01*
X7426309Y-14145381D01*
X7416786Y-14107286D01*
X7416786Y-14059667D01*
X7426309Y-14021571D01*
X7435833Y-14002524D01*
X7445357Y-13993000D01*
X7464405Y-13983476D01*
X7654881Y-13983476D02*
X7673928Y-13983476D01*
X7692976Y-13993000D01*
X7702500Y-14002524D01*
X7712024Y-14021571D01*
X7721548Y-14059667D01*
X7721548Y-14107286D01*
X7712024Y-14145381D01*
X7702500Y-14164428D01*
X7692976Y-14173952D01*
X7673928Y-14183476D01*
X7654881Y-14183476D01*
X7635833Y-14173952D01*
X7626309Y-14164428D01*
X7616786Y-14145381D01*
X7607262Y-14107286D01*
X7607262Y-14059667D01*
X7616786Y-14021571D01*
X7626309Y-14002524D01*
X7635833Y-13993000D01*
X7654881Y-13983476D01*
X7807262Y-14183476D02*
X7807262Y-14050143D01*
X7807262Y-14069190D02*
X7816786Y-14059667D01*
X7835833Y-14050143D01*
X7864405Y-14050143D01*
X7883452Y-14059667D01*
X7892976Y-14078714D01*
X7892976Y-14183476D01*
X7892976Y-14078714D02*
X7902500Y-14059667D01*
X7921548Y-14050143D01*
X7950119Y-14050143D01*
X7969167Y-14059667D01*
X7978690Y-14078714D01*
X7978690Y-14183476D01*
X8073928Y-14183476D02*
X8073928Y-14050143D01*
X8073928Y-14069190D02*
X8083452Y-14059667D01*
X8102500Y-14050143D01*
X8131071Y-14050143D01*
X8150119Y-14059667D01*
X8159643Y-14078714D01*
X8159643Y-14183476D01*
X8159643Y-14078714D02*
X8169167Y-14059667D01*
X8188214Y-14050143D01*
X8216786Y-14050143D01*
X8235833Y-14059667D01*
X8245357Y-14078714D01*
X8245357Y-14183476D01*
X8635833Y-13973952D02*
X8464405Y-14231095D01*
X8892976Y-13983476D02*
X8912024Y-13983476D01*
X8931071Y-13993000D01*
X8940595Y-14002524D01*
X8950119Y-14021571D01*
X8959643Y-14059667D01*
X8959643Y-14107286D01*
X8950119Y-14145381D01*
X8940595Y-14164428D01*
X8931071Y-14173952D01*
X8912024Y-14183476D01*
X8892976Y-14183476D01*
X8873929Y-14173952D01*
X8864405Y-14164428D01*
X8854881Y-14145381D01*
X8845357Y-14107286D01*
X8845357Y-14059667D01*
X8854881Y-14021571D01*
X8864405Y-14002524D01*
X8873929Y-13993000D01*
X8892976Y-13983476D01*
X9045357Y-14164428D02*
X9054881Y-14173952D01*
X9045357Y-14183476D01*
X9035833Y-14173952D01*
X9045357Y-14164428D01*
X9045357Y-14183476D01*
X9178690Y-13983476D02*
X9197738Y-13983476D01*
X9216786Y-13993000D01*
X9226310Y-14002524D01*
X9235833Y-14021571D01*
X9245357Y-14059667D01*
X9245357Y-14107286D01*
X9235833Y-14145381D01*
X9226310Y-14164428D01*
X9216786Y-14173952D01*
X9197738Y-14183476D01*
X9178690Y-14183476D01*
X9159643Y-14173952D01*
X9150119Y-14164428D01*
X9140595Y-14145381D01*
X9131071Y-14107286D01*
X9131071Y-14059667D01*
X9140595Y-14021571D01*
X9150119Y-14002524D01*
X9159643Y-13993000D01*
X9178690Y-13983476D01*
X9435833Y-14183476D02*
X9321548Y-14183476D01*
X9378690Y-14183476D02*
X9378690Y-13983476D01*
X9359643Y-14012048D01*
X9340595Y-14031095D01*
X9321548Y-14040619D01*
X9626310Y-14183476D02*
X9512024Y-14183476D01*
X9569167Y-14183476D02*
X9569167Y-13983476D01*
X9550119Y-14012048D01*
X9531071Y-14031095D01*
X9512024Y-14040619D01*
X9740595Y-14069190D02*
X9721548Y-14059667D01*
X9712024Y-14050143D01*
X9702500Y-14031095D01*
X9702500Y-14021571D01*
X9712024Y-14002524D01*
X9721548Y-13993000D01*
X9740595Y-13983476D01*
X9778690Y-13983476D01*
X9797738Y-13993000D01*
X9807262Y-14002524D01*
X9816786Y-14021571D01*
X9816786Y-14031095D01*
X9807262Y-14050143D01*
X9797738Y-14059667D01*
X9778690Y-14069190D01*
X9740595Y-14069190D01*
X9721548Y-14078714D01*
X9712024Y-14088238D01*
X9702500Y-14107286D01*
X9702500Y-14145381D01*
X9712024Y-14164428D01*
X9721548Y-14173952D01*
X9740595Y-14183476D01*
X9778690Y-14183476D01*
X9797738Y-14173952D01*
X9807262Y-14164428D01*
X9816786Y-14145381D01*
X9816786Y-14107286D01*
X9807262Y-14088238D01*
X9797738Y-14078714D01*
X9778690Y-14069190D01*
X9892976Y-13983476D02*
X9892976Y-14021571D01*
X9969167Y-13983476D02*
X9969167Y-14021571D01*
X10264405Y-14259667D02*
X10254881Y-14250143D01*
X10235833Y-14221571D01*
X10226310Y-14202524D01*
X10216786Y-14173952D01*
X10207262Y-14126333D01*
X10207262Y-14088238D01*
X10216786Y-14040619D01*
X10226310Y-14012048D01*
X10235833Y-13993000D01*
X10254881Y-13964428D01*
X10264405Y-13954905D01*
X10331071Y-14002524D02*
X10340595Y-13993000D01*
X10359643Y-13983476D01*
X10407262Y-13983476D01*
X10426310Y-13993000D01*
X10435833Y-14002524D01*
X10445357Y-14021571D01*
X10445357Y-14040619D01*
X10435833Y-14069190D01*
X10321548Y-14183476D01*
X10445357Y-14183476D01*
X10521548Y-14002524D02*
X10531071Y-13993000D01*
X10550119Y-13983476D01*
X10597738Y-13983476D01*
X10616786Y-13993000D01*
X10626310Y-14002524D01*
X10635833Y-14021571D01*
X10635833Y-14040619D01*
X10626310Y-14069190D01*
X10512024Y-14183476D01*
X10635833Y-14183476D01*
X10873929Y-14183476D02*
X10873929Y-13983476D01*
X10959643Y-14183476D02*
X10959643Y-14078714D01*
X10950119Y-14059667D01*
X10931071Y-14050143D01*
X10902500Y-14050143D01*
X10883452Y-14059667D01*
X10873929Y-14069190D01*
X11083452Y-14183476D02*
X11064405Y-14173952D01*
X11054881Y-14164428D01*
X11045357Y-14145381D01*
X11045357Y-14088238D01*
X11054881Y-14069190D01*
X11064405Y-14059667D01*
X11083452Y-14050143D01*
X11112024Y-14050143D01*
X11131071Y-14059667D01*
X11140595Y-14069190D01*
X11150119Y-14088238D01*
X11150119Y-14145381D01*
X11140595Y-14164428D01*
X11131071Y-14173952D01*
X11112024Y-14183476D01*
X11083452Y-14183476D01*
X11264405Y-14183476D02*
X11245357Y-14173952D01*
X11235833Y-14154905D01*
X11235833Y-13983476D01*
X11416786Y-14173952D02*
X11397738Y-14183476D01*
X11359643Y-14183476D01*
X11340595Y-14173952D01*
X11331071Y-14154905D01*
X11331071Y-14078714D01*
X11340595Y-14059667D01*
X11359643Y-14050143D01*
X11397738Y-14050143D01*
X11416786Y-14059667D01*
X11426309Y-14078714D01*
X11426309Y-14097762D01*
X11331071Y-14116809D01*
X11502500Y-14173952D02*
X11521548Y-14183476D01*
X11559643Y-14183476D01*
X11578690Y-14173952D01*
X11588214Y-14154905D01*
X11588214Y-14145381D01*
X11578690Y-14126333D01*
X11559643Y-14116809D01*
X11531071Y-14116809D01*
X11512024Y-14107286D01*
X11502500Y-14088238D01*
X11502500Y-14078714D01*
X11512024Y-14059667D01*
X11531071Y-14050143D01*
X11559643Y-14050143D01*
X11578690Y-14059667D01*
X11654881Y-14259667D02*
X11664405Y-14250143D01*
X11683452Y-14221571D01*
X11692976Y-14202524D01*
X11702500Y-14173952D01*
X11712024Y-14126333D01*
X11712024Y-14088238D01*
X11702500Y-14040619D01*
X11692976Y-14012048D01*
X11683452Y-13993000D01*
X11664405Y-13964428D01*
X11654881Y-13954905D01*
M02*
