M48
; DRILL file {KiCad (6.0.5)} date Mon Jun 13 12:49:52 2022
; FORMAT={-:-/ absolute / metric / decimal}
; #@! TF.CreationDate,2022-06-13T12:49:52+02:00
; #@! TF.GenerationSoftware,Kicad,Pcbnew,(6.0.5)
; #@! TF.FileFunction,Plated,1,2,PTH
FMAT,2
METRIC
; #@! TA.AperFunction,Plated,PTH,ComponentDrill
T1C0.200
; #@! TA.AperFunction,Plated,PTH,ViaDrill
T2C0.300
; #@! TA.AperFunction,Plated,PTH,ComponentDrill
T3C0.300
%
G90
G05
T1
X103.8Y-57.0
X103.8Y-58.1
X103.8Y-59.2
X104.9Y-57.0
X104.9Y-58.1
X104.9Y-59.2
X106.0Y-57.0
X106.0Y-58.1
X106.0Y-59.2
T2
X87.1Y-55.9
X95.7Y-59.3
X95.781Y-71.252
X96.276Y-70.624
X97.3Y-62.1
X98.1Y-74.0
X98.6Y-64.9
X99.5Y-57.2
X101.649Y-59.051
X102.758Y-71.294
X102.8Y-75.775
X102.9Y-73.799
X103.8Y-71.1
X104.1Y-77.6
X104.6Y-70.4
X105.299Y-68.901
X105.5Y-76.0
X105.6Y-75.1
X106.0Y-70.4
X106.959Y-70.885
X106.961Y-69.824
X107.0Y-60.3
X108.45Y-61.61
X108.6Y-68.0
X109.6Y-62.9
X109.9Y-74.0
X111.2Y-61.6
X111.728Y-70.228
X116.9Y-73.7
T3
X91.14Y-87.5
X94.64Y-89.1
X95.64Y-89.1
X96.64Y-89.1
X97.64Y-89.1
X98.64Y-89.1
X99.64Y-89.1
X100.64Y-89.1
X101.64Y-89.1
X102.64Y-89.1
X103.64Y-89.1
X104.64Y-89.1
X105.64Y-89.1
X106.64Y-89.1
X107.64Y-89.1
X108.64Y-89.1
X109.64Y-89.1
X110.64Y-89.1
X111.64Y-89.1
X112.64Y-89.1
X113.64Y-89.1
X117.14Y-87.5
T0
M30
