M48
; DRILL file {KiCad (6.0.1)} date Sat Feb 26 19:36:04 2022
; FORMAT={-:-/ absolute / metric / decimal}
; #@! TF.CreationDate,2022-02-26T19:36:04+01:00
; #@! TF.GenerationSoftware,Kicad,Pcbnew,(6.0.1)
; #@! TF.FileFunction,Plated,1,2,PTH
FMAT,2
METRIC
; #@! TA.AperFunction,Plated,PTH,ViaDrill
T1C0.400
; #@! TA.AperFunction,Plated,PTH,ComponentDrill
T2C1.000
%
G90
G05
T1
X91.14Y-84.5
X91.14Y-87.5
X94.15Y-74.75
X94.64Y-84.5
X94.68Y-87.5
X95.15Y-71.2
X95.275Y-73.25
X95.625Y-83.875
X95.68Y-87.5
X96.275Y-69.975
X96.64Y-84.5
X96.68Y-87.5
X97.625Y-83.8
X97.68Y-87.5
X97.7Y-69.35
X98.574Y-67.876
X98.64Y-84.5
X98.68Y-87.5
X98.75Y-69.35
X99.625Y-83.875
X99.68Y-87.5
X100.235Y-69.35
X100.64Y-84.5
X100.68Y-87.5
X101.182Y-68.063
X101.65Y-83.85
X101.68Y-87.5
X102.322Y-67.364
X102.64Y-84.5
X102.68Y-87.5
X102.942Y-72.408
X103.3Y-73.8
X103.475Y-75.925
X103.64Y-83.825
X103.68Y-87.5
X103.975Y-70.925
X104.394Y-67.414
X104.5Y-75.0
X104.64Y-84.5
X104.68Y-87.5
X105.392Y-67.366
X105.625Y-83.85
X105.68Y-87.5
X105.825Y-66.45
X106.043Y-68.825
X106.64Y-84.5
X106.68Y-87.5
X107.625Y-83.75
X107.68Y-87.5
X108.2Y-67.575
X108.64Y-84.5
X108.68Y-87.5
X109.64Y-83.875
X109.68Y-87.5
X109.875Y-68.075
X110.64Y-84.5
X110.68Y-87.5
X111.65Y-83.75
X111.68Y-87.5
X112.64Y-84.5
X112.68Y-87.5
X113.0Y-72.15
X113.64Y-83.775
X113.71Y-87.5
X114.948Y-73.23
X117.1Y-77.5
X117.14Y-84.5
X117.14Y-87.5
T2
X91.625Y-64.425
X94.165Y-64.425
X96.705Y-64.425
X99.245Y-64.425
X101.785Y-64.425
X104.325Y-64.425
X106.865Y-64.425
X109.405Y-64.425
X114.685Y-64.45
X117.225Y-64.45
T0
M30
