M48
; DRILL file {KiCad (6.0.2-32-g71eefc8322)} date Thu Jun 16 10:33:27 2022
; FORMAT={-:-/ absolute / inch / decimal}
; #@! TF.CreationDate,2022-06-16T10:33:27+02:00
; #@! TF.GenerationSoftware,Kicad,Pcbnew,(6.0.2-32-g71eefc8322)
; #@! TF.FileFunction,Plated,1,2,PTH
FMAT,2
INCH
; #@! TA.AperFunction,Plated,PTH,ComponentDrill
T1C0.0079
; #@! TA.AperFunction,Plated,PTH,ViaDrill
T2C0.0118
; #@! TA.AperFunction,Plated,PTH,ComponentDrill
T3C0.0118
%
G90
G05
T1
X4.0866Y-2.2441
X4.0866Y-2.2874
X4.0866Y-2.3307
X4.1299Y-2.2441
X4.1299Y-2.2874
X4.1299Y-2.3307
X4.1732Y-2.2441
X4.1732Y-2.2874
X4.1732Y-2.3307
T2
X3.4292Y-2.2008
X3.7677Y-2.3346
X3.7709Y-2.8052
X3.7904Y-2.7805
X3.8307Y-2.4449
X3.8622Y-2.9134
X3.8819Y-2.5551
X3.9173Y-2.252
X4.0019Y-2.3248
X4.0456Y-2.815
X4.0472Y-2.9833
X4.0512Y-2.9055
X4.0866Y-2.7992
X4.1024Y-3.0551
X4.1142Y-2.7638
X4.1535Y-2.9921
X4.1575Y-2.9567
X4.1693Y-2.7638
X4.211Y-2.7908
X4.2111Y-2.749
X4.2126Y-2.374
X4.2697Y-2.4256
X4.2756Y-2.6772
X4.315Y-2.4764
X4.3268Y-2.9134
X4.378Y-2.4252
X4.3987Y-2.7649
X4.6024Y-2.9016
T3
X3.5882Y-3.4449
X3.726Y-3.5079
X3.7654Y-3.5079
X3.8047Y-3.5079
X3.8441Y-3.5079
X3.8835Y-3.5079
X3.9228Y-3.5079
X3.9622Y-3.5079
X4.0016Y-3.5079
X4.0409Y-3.5079
X4.0803Y-3.5079
X4.1197Y-3.5079
X4.1591Y-3.5079
X4.1984Y-3.5079
X4.2378Y-3.5079
X4.2772Y-3.5079
X4.3165Y-3.5079
X4.3559Y-3.5079
X4.3953Y-3.5079
X4.4346Y-3.5079
X4.474Y-3.5079
X4.6118Y-3.4449
T0
M30
