%TF.GenerationSoftware,KiCad,Pcbnew,(6.0.5)*%
%TF.CreationDate,2022-11-09T23:01:59+01:00*%
%TF.ProjectId,piezo_driver_panel,7069657a-6f5f-4647-9269-7665725f7061,rev?*%
%TF.SameCoordinates,PXe4e1c0PYe4e1c0*%
%TF.FileFunction,Legend,Bot*%
%TF.FilePolarity,Positive*%
%FSLAX46Y46*%
G04 Gerber Fmt 4.6, Leading zero omitted, Abs format (unit mm)*
G04 Created by KiCad (PCBNEW (6.0.5)) date 2022-11-09 23:01:59*
%MOMM*%
%LPD*%
G01*
G04 APERTURE LIST*
%ADD10C,0.150000*%
G04 APERTURE END LIST*
D10*
X29050000Y-9750000D02*
X2250000Y-9750000D01*
X2250000Y-9750000D02*
X2250000Y-14850000D01*
X2250000Y-14850000D02*
X29050000Y-14850000D01*
X29050000Y-14850000D02*
X29050000Y-9750000D01*
G36*
X29050000Y-9750000D02*
G01*
X2250000Y-9750000D01*
X2250000Y-14850000D01*
X29050000Y-14850000D01*
X29050000Y-9750000D01*
G37*
X60700000Y-9750000D02*
X33900000Y-9750000D01*
X33900000Y-9750000D02*
X33900000Y-14850000D01*
X33900000Y-14850000D02*
X60700000Y-14850000D01*
X60700000Y-14850000D02*
X60700000Y-9750000D01*
G36*
X60700000Y-9750000D02*
G01*
X33900000Y-9750000D01*
X33900000Y-14850000D01*
X60700000Y-14850000D01*
X60700000Y-9750000D01*
G37*
X92350000Y-9750000D02*
X65550000Y-9750000D01*
X65550000Y-9750000D02*
X65550000Y-14850000D01*
X65550000Y-14850000D02*
X92350000Y-14850000D01*
X92350000Y-14850000D02*
X92350000Y-9750000D01*
G36*
X92350000Y-9750000D02*
G01*
X65550000Y-9750000D01*
X65550000Y-14850000D01*
X92350000Y-14850000D01*
X92350000Y-9750000D01*
G37*
X18666666Y-39792380D02*
X18666666Y-38792380D01*
X18428571Y-38792380D01*
X18285714Y-38840000D01*
X18190476Y-38935238D01*
X18142857Y-39030476D01*
X18095238Y-39220952D01*
X18095238Y-39363809D01*
X18142857Y-39554285D01*
X18190476Y-39649523D01*
X18285714Y-39744761D01*
X18428571Y-39792380D01*
X18666666Y-39792380D01*
X17714285Y-39506666D02*
X17238095Y-39506666D01*
X17809523Y-39792380D02*
X17476190Y-38792380D01*
X17142857Y-39792380D01*
X16809523Y-39792380D02*
X16809523Y-38792380D01*
X16238095Y-39792380D01*
X16238095Y-38792380D01*
X15238095Y-38840000D02*
X15333333Y-38792380D01*
X15476190Y-38792380D01*
X15619047Y-38840000D01*
X15714285Y-38935238D01*
X15761904Y-39030476D01*
X15809523Y-39220952D01*
X15809523Y-39363809D01*
X15761904Y-39554285D01*
X15714285Y-39649523D01*
X15619047Y-39744761D01*
X15476190Y-39792380D01*
X15380952Y-39792380D01*
X15238095Y-39744761D01*
X15190476Y-39697142D01*
X15190476Y-39363809D01*
X15380952Y-39363809D01*
X14761904Y-39268571D02*
X14428571Y-39268571D01*
X14285714Y-39792380D02*
X14761904Y-39792380D01*
X14761904Y-38792380D01*
X14285714Y-38792380D01*
X13285714Y-39792380D02*
X13619047Y-39316190D01*
X13857142Y-39792380D02*
X13857142Y-38792380D01*
X13476190Y-38792380D01*
X13380952Y-38840000D01*
X13333333Y-38887619D01*
X13285714Y-38982857D01*
X13285714Y-39125714D01*
X13333333Y-39220952D01*
X13380952Y-39268571D01*
X13476190Y-39316190D01*
X13857142Y-39316190D01*
X18666666Y-41402380D02*
X18666666Y-40402380D01*
X18428571Y-40402380D01*
X18285714Y-40450000D01*
X18190476Y-40545238D01*
X18142857Y-40640476D01*
X18095238Y-40830952D01*
X18095238Y-40973809D01*
X18142857Y-41164285D01*
X18190476Y-41259523D01*
X18285714Y-41354761D01*
X18428571Y-41402380D01*
X18666666Y-41402380D01*
X17714285Y-41116666D02*
X17238095Y-41116666D01*
X17809523Y-41402380D02*
X17476190Y-40402380D01*
X17142857Y-41402380D01*
X16809523Y-41402380D02*
X16809523Y-40402380D01*
X16238095Y-41402380D01*
X16238095Y-40402380D01*
X15238095Y-40450000D02*
X15333333Y-40402380D01*
X15476190Y-40402380D01*
X15619047Y-40450000D01*
X15714285Y-40545238D01*
X15761904Y-40640476D01*
X15809523Y-40830952D01*
X15809523Y-40973809D01*
X15761904Y-41164285D01*
X15714285Y-41259523D01*
X15619047Y-41354761D01*
X15476190Y-41402380D01*
X15380952Y-41402380D01*
X15238095Y-41354761D01*
X15190476Y-41307142D01*
X15190476Y-40973809D01*
X15380952Y-40973809D01*
X14761904Y-40878571D02*
X14428571Y-40878571D01*
X14285714Y-41402380D02*
X14761904Y-41402380D01*
X14761904Y-40402380D01*
X14285714Y-40402380D01*
X13285714Y-41402380D02*
X13619047Y-40926190D01*
X13857142Y-41402380D02*
X13857142Y-40402380D01*
X13476190Y-40402380D01*
X13380952Y-40450000D01*
X13333333Y-40497619D01*
X13285714Y-40592857D01*
X13285714Y-40735714D01*
X13333333Y-40830952D01*
X13380952Y-40878571D01*
X13476190Y-40926190D01*
X13857142Y-40926190D01*
X21047619Y-43012380D02*
X21047619Y-42012380D01*
X21047619Y-42488571D02*
X20476190Y-42488571D01*
X20476190Y-43012380D02*
X20476190Y-42012380D01*
X20000000Y-43012380D02*
X20000000Y-42012380D01*
X19000000Y-42060000D02*
X19095238Y-42012380D01*
X19238095Y-42012380D01*
X19380952Y-42060000D01*
X19476190Y-42155238D01*
X19523809Y-42250476D01*
X19571428Y-42440952D01*
X19571428Y-42583809D01*
X19523809Y-42774285D01*
X19476190Y-42869523D01*
X19380952Y-42964761D01*
X19238095Y-43012380D01*
X19142857Y-43012380D01*
X19000000Y-42964761D01*
X18952380Y-42917142D01*
X18952380Y-42583809D01*
X19142857Y-42583809D01*
X18523809Y-43012380D02*
X18523809Y-42012380D01*
X18523809Y-42488571D02*
X17952380Y-42488571D01*
X17952380Y-43012380D02*
X17952380Y-42012380D01*
X16857142Y-42012380D02*
X16523809Y-43012380D01*
X16190476Y-42012380D01*
X15666666Y-42012380D02*
X15476190Y-42012380D01*
X15380952Y-42060000D01*
X15285714Y-42155238D01*
X15238095Y-42345714D01*
X15238095Y-42679047D01*
X15285714Y-42869523D01*
X15380952Y-42964761D01*
X15476190Y-43012380D01*
X15666666Y-43012380D01*
X15761904Y-42964761D01*
X15857142Y-42869523D01*
X15904761Y-42679047D01*
X15904761Y-42345714D01*
X15857142Y-42155238D01*
X15761904Y-42060000D01*
X15666666Y-42012380D01*
X14333333Y-43012380D02*
X14809523Y-43012380D01*
X14809523Y-42012380D01*
X14142857Y-42012380D02*
X13571428Y-42012380D01*
X13857142Y-43012380D02*
X13857142Y-42012380D01*
X13285714Y-42726666D02*
X12809523Y-42726666D01*
X13380952Y-43012380D02*
X13047619Y-42012380D01*
X12714285Y-43012380D01*
X11857142Y-42060000D02*
X11952380Y-42012380D01*
X12095238Y-42012380D01*
X12238095Y-42060000D01*
X12333333Y-42155238D01*
X12380952Y-42250476D01*
X12428571Y-42440952D01*
X12428571Y-42583809D01*
X12380952Y-42774285D01*
X12333333Y-42869523D01*
X12238095Y-42964761D01*
X12095238Y-43012380D01*
X12000000Y-43012380D01*
X11857142Y-42964761D01*
X11809523Y-42917142D01*
X11809523Y-42583809D01*
X12000000Y-42583809D01*
X11380952Y-42488571D02*
X11047619Y-42488571D01*
X10904761Y-43012380D02*
X11380952Y-43012380D01*
X11380952Y-42012380D01*
X10904761Y-42012380D01*
X50316666Y-39792380D02*
X50316666Y-38792380D01*
X50078571Y-38792380D01*
X49935714Y-38840000D01*
X49840476Y-38935238D01*
X49792857Y-39030476D01*
X49745238Y-39220952D01*
X49745238Y-39363809D01*
X49792857Y-39554285D01*
X49840476Y-39649523D01*
X49935714Y-39744761D01*
X50078571Y-39792380D01*
X50316666Y-39792380D01*
X49364285Y-39506666D02*
X48888095Y-39506666D01*
X49459523Y-39792380D02*
X49126190Y-38792380D01*
X48792857Y-39792380D01*
X48459523Y-39792380D02*
X48459523Y-38792380D01*
X47888095Y-39792380D01*
X47888095Y-38792380D01*
X46888095Y-38840000D02*
X46983333Y-38792380D01*
X47126190Y-38792380D01*
X47269047Y-38840000D01*
X47364285Y-38935238D01*
X47411904Y-39030476D01*
X47459523Y-39220952D01*
X47459523Y-39363809D01*
X47411904Y-39554285D01*
X47364285Y-39649523D01*
X47269047Y-39744761D01*
X47126190Y-39792380D01*
X47030952Y-39792380D01*
X46888095Y-39744761D01*
X46840476Y-39697142D01*
X46840476Y-39363809D01*
X47030952Y-39363809D01*
X46411904Y-39268571D02*
X46078571Y-39268571D01*
X45935714Y-39792380D02*
X46411904Y-39792380D01*
X46411904Y-38792380D01*
X45935714Y-38792380D01*
X44935714Y-39792380D02*
X45269047Y-39316190D01*
X45507142Y-39792380D02*
X45507142Y-38792380D01*
X45126190Y-38792380D01*
X45030952Y-38840000D01*
X44983333Y-38887619D01*
X44935714Y-38982857D01*
X44935714Y-39125714D01*
X44983333Y-39220952D01*
X45030952Y-39268571D01*
X45126190Y-39316190D01*
X45507142Y-39316190D01*
X50316666Y-41402380D02*
X50316666Y-40402380D01*
X50078571Y-40402380D01*
X49935714Y-40450000D01*
X49840476Y-40545238D01*
X49792857Y-40640476D01*
X49745238Y-40830952D01*
X49745238Y-40973809D01*
X49792857Y-41164285D01*
X49840476Y-41259523D01*
X49935714Y-41354761D01*
X50078571Y-41402380D01*
X50316666Y-41402380D01*
X49364285Y-41116666D02*
X48888095Y-41116666D01*
X49459523Y-41402380D02*
X49126190Y-40402380D01*
X48792857Y-41402380D01*
X48459523Y-41402380D02*
X48459523Y-40402380D01*
X47888095Y-41402380D01*
X47888095Y-40402380D01*
X46888095Y-40450000D02*
X46983333Y-40402380D01*
X47126190Y-40402380D01*
X47269047Y-40450000D01*
X47364285Y-40545238D01*
X47411904Y-40640476D01*
X47459523Y-40830952D01*
X47459523Y-40973809D01*
X47411904Y-41164285D01*
X47364285Y-41259523D01*
X47269047Y-41354761D01*
X47126190Y-41402380D01*
X47030952Y-41402380D01*
X46888095Y-41354761D01*
X46840476Y-41307142D01*
X46840476Y-40973809D01*
X47030952Y-40973809D01*
X46411904Y-40878571D02*
X46078571Y-40878571D01*
X45935714Y-41402380D02*
X46411904Y-41402380D01*
X46411904Y-40402380D01*
X45935714Y-40402380D01*
X44935714Y-41402380D02*
X45269047Y-40926190D01*
X45507142Y-41402380D02*
X45507142Y-40402380D01*
X45126190Y-40402380D01*
X45030952Y-40450000D01*
X44983333Y-40497619D01*
X44935714Y-40592857D01*
X44935714Y-40735714D01*
X44983333Y-40830952D01*
X45030952Y-40878571D01*
X45126190Y-40926190D01*
X45507142Y-40926190D01*
X52697619Y-43012380D02*
X52697619Y-42012380D01*
X52697619Y-42488571D02*
X52126190Y-42488571D01*
X52126190Y-43012380D02*
X52126190Y-42012380D01*
X51650000Y-43012380D02*
X51650000Y-42012380D01*
X50650000Y-42060000D02*
X50745238Y-42012380D01*
X50888095Y-42012380D01*
X51030952Y-42060000D01*
X51126190Y-42155238D01*
X51173809Y-42250476D01*
X51221428Y-42440952D01*
X51221428Y-42583809D01*
X51173809Y-42774285D01*
X51126190Y-42869523D01*
X51030952Y-42964761D01*
X50888095Y-43012380D01*
X50792857Y-43012380D01*
X50650000Y-42964761D01*
X50602380Y-42917142D01*
X50602380Y-42583809D01*
X50792857Y-42583809D01*
X50173809Y-43012380D02*
X50173809Y-42012380D01*
X50173809Y-42488571D02*
X49602380Y-42488571D01*
X49602380Y-43012380D02*
X49602380Y-42012380D01*
X48507142Y-42012380D02*
X48173809Y-43012380D01*
X47840476Y-42012380D01*
X47316666Y-42012380D02*
X47126190Y-42012380D01*
X47030952Y-42060000D01*
X46935714Y-42155238D01*
X46888095Y-42345714D01*
X46888095Y-42679047D01*
X46935714Y-42869523D01*
X47030952Y-42964761D01*
X47126190Y-43012380D01*
X47316666Y-43012380D01*
X47411904Y-42964761D01*
X47507142Y-42869523D01*
X47554761Y-42679047D01*
X47554761Y-42345714D01*
X47507142Y-42155238D01*
X47411904Y-42060000D01*
X47316666Y-42012380D01*
X45983333Y-43012380D02*
X46459523Y-43012380D01*
X46459523Y-42012380D01*
X45792857Y-42012380D02*
X45221428Y-42012380D01*
X45507142Y-43012380D02*
X45507142Y-42012380D01*
X44935714Y-42726666D02*
X44459523Y-42726666D01*
X45030952Y-43012380D02*
X44697619Y-42012380D01*
X44364285Y-43012380D01*
X43507142Y-42060000D02*
X43602380Y-42012380D01*
X43745238Y-42012380D01*
X43888095Y-42060000D01*
X43983333Y-42155238D01*
X44030952Y-42250476D01*
X44078571Y-42440952D01*
X44078571Y-42583809D01*
X44030952Y-42774285D01*
X43983333Y-42869523D01*
X43888095Y-42964761D01*
X43745238Y-43012380D01*
X43650000Y-43012380D01*
X43507142Y-42964761D01*
X43459523Y-42917142D01*
X43459523Y-42583809D01*
X43650000Y-42583809D01*
X43030952Y-42488571D02*
X42697619Y-42488571D01*
X42554761Y-43012380D02*
X43030952Y-43012380D01*
X43030952Y-42012380D01*
X42554761Y-42012380D01*
X81966666Y-39792380D02*
X81966666Y-38792380D01*
X81728571Y-38792380D01*
X81585714Y-38840000D01*
X81490476Y-38935238D01*
X81442857Y-39030476D01*
X81395238Y-39220952D01*
X81395238Y-39363809D01*
X81442857Y-39554285D01*
X81490476Y-39649523D01*
X81585714Y-39744761D01*
X81728571Y-39792380D01*
X81966666Y-39792380D01*
X81014285Y-39506666D02*
X80538095Y-39506666D01*
X81109523Y-39792380D02*
X80776190Y-38792380D01*
X80442857Y-39792380D01*
X80109523Y-39792380D02*
X80109523Y-38792380D01*
X79538095Y-39792380D01*
X79538095Y-38792380D01*
X78538095Y-38840000D02*
X78633333Y-38792380D01*
X78776190Y-38792380D01*
X78919047Y-38840000D01*
X79014285Y-38935238D01*
X79061904Y-39030476D01*
X79109523Y-39220952D01*
X79109523Y-39363809D01*
X79061904Y-39554285D01*
X79014285Y-39649523D01*
X78919047Y-39744761D01*
X78776190Y-39792380D01*
X78680952Y-39792380D01*
X78538095Y-39744761D01*
X78490476Y-39697142D01*
X78490476Y-39363809D01*
X78680952Y-39363809D01*
X78061904Y-39268571D02*
X77728571Y-39268571D01*
X77585714Y-39792380D02*
X78061904Y-39792380D01*
X78061904Y-38792380D01*
X77585714Y-38792380D01*
X76585714Y-39792380D02*
X76919047Y-39316190D01*
X77157142Y-39792380D02*
X77157142Y-38792380D01*
X76776190Y-38792380D01*
X76680952Y-38840000D01*
X76633333Y-38887619D01*
X76585714Y-38982857D01*
X76585714Y-39125714D01*
X76633333Y-39220952D01*
X76680952Y-39268571D01*
X76776190Y-39316190D01*
X77157142Y-39316190D01*
X81966666Y-41402380D02*
X81966666Y-40402380D01*
X81728571Y-40402380D01*
X81585714Y-40450000D01*
X81490476Y-40545238D01*
X81442857Y-40640476D01*
X81395238Y-40830952D01*
X81395238Y-40973809D01*
X81442857Y-41164285D01*
X81490476Y-41259523D01*
X81585714Y-41354761D01*
X81728571Y-41402380D01*
X81966666Y-41402380D01*
X81014285Y-41116666D02*
X80538095Y-41116666D01*
X81109523Y-41402380D02*
X80776190Y-40402380D01*
X80442857Y-41402380D01*
X80109523Y-41402380D02*
X80109523Y-40402380D01*
X79538095Y-41402380D01*
X79538095Y-40402380D01*
X78538095Y-40450000D02*
X78633333Y-40402380D01*
X78776190Y-40402380D01*
X78919047Y-40450000D01*
X79014285Y-40545238D01*
X79061904Y-40640476D01*
X79109523Y-40830952D01*
X79109523Y-40973809D01*
X79061904Y-41164285D01*
X79014285Y-41259523D01*
X78919047Y-41354761D01*
X78776190Y-41402380D01*
X78680952Y-41402380D01*
X78538095Y-41354761D01*
X78490476Y-41307142D01*
X78490476Y-40973809D01*
X78680952Y-40973809D01*
X78061904Y-40878571D02*
X77728571Y-40878571D01*
X77585714Y-41402380D02*
X78061904Y-41402380D01*
X78061904Y-40402380D01*
X77585714Y-40402380D01*
X76585714Y-41402380D02*
X76919047Y-40926190D01*
X77157142Y-41402380D02*
X77157142Y-40402380D01*
X76776190Y-40402380D01*
X76680952Y-40450000D01*
X76633333Y-40497619D01*
X76585714Y-40592857D01*
X76585714Y-40735714D01*
X76633333Y-40830952D01*
X76680952Y-40878571D01*
X76776190Y-40926190D01*
X77157142Y-40926190D01*
X84347619Y-43012380D02*
X84347619Y-42012380D01*
X84347619Y-42488571D02*
X83776190Y-42488571D01*
X83776190Y-43012380D02*
X83776190Y-42012380D01*
X83300000Y-43012380D02*
X83300000Y-42012380D01*
X82300000Y-42060000D02*
X82395238Y-42012380D01*
X82538095Y-42012380D01*
X82680952Y-42060000D01*
X82776190Y-42155238D01*
X82823809Y-42250476D01*
X82871428Y-42440952D01*
X82871428Y-42583809D01*
X82823809Y-42774285D01*
X82776190Y-42869523D01*
X82680952Y-42964761D01*
X82538095Y-43012380D01*
X82442857Y-43012380D01*
X82300000Y-42964761D01*
X82252380Y-42917142D01*
X82252380Y-42583809D01*
X82442857Y-42583809D01*
X81823809Y-43012380D02*
X81823809Y-42012380D01*
X81823809Y-42488571D02*
X81252380Y-42488571D01*
X81252380Y-43012380D02*
X81252380Y-42012380D01*
X80157142Y-42012380D02*
X79823809Y-43012380D01*
X79490476Y-42012380D01*
X78966666Y-42012380D02*
X78776190Y-42012380D01*
X78680952Y-42060000D01*
X78585714Y-42155238D01*
X78538095Y-42345714D01*
X78538095Y-42679047D01*
X78585714Y-42869523D01*
X78680952Y-42964761D01*
X78776190Y-43012380D01*
X78966666Y-43012380D01*
X79061904Y-42964761D01*
X79157142Y-42869523D01*
X79204761Y-42679047D01*
X79204761Y-42345714D01*
X79157142Y-42155238D01*
X79061904Y-42060000D01*
X78966666Y-42012380D01*
X77633333Y-43012380D02*
X78109523Y-43012380D01*
X78109523Y-42012380D01*
X77442857Y-42012380D02*
X76871428Y-42012380D01*
X77157142Y-43012380D02*
X77157142Y-42012380D01*
X76585714Y-42726666D02*
X76109523Y-42726666D01*
X76680952Y-43012380D02*
X76347619Y-42012380D01*
X76014285Y-43012380D01*
X75157142Y-42060000D02*
X75252380Y-42012380D01*
X75395238Y-42012380D01*
X75538095Y-42060000D01*
X75633333Y-42155238D01*
X75680952Y-42250476D01*
X75728571Y-42440952D01*
X75728571Y-42583809D01*
X75680952Y-42774285D01*
X75633333Y-42869523D01*
X75538095Y-42964761D01*
X75395238Y-43012380D01*
X75300000Y-43012380D01*
X75157142Y-42964761D01*
X75109523Y-42917142D01*
X75109523Y-42583809D01*
X75300000Y-42583809D01*
X74680952Y-42488571D02*
X74347619Y-42488571D01*
X74204761Y-43012380D02*
X74680952Y-43012380D01*
X74680952Y-42012380D01*
X74204761Y-42012380D01*
X85888095Y-20680714D02*
X85888095Y-21680714D01*
X85888095Y-20728333D02*
X85792857Y-20680714D01*
X85602380Y-20680714D01*
X85507142Y-20728333D01*
X85459523Y-20775952D01*
X85411904Y-20871190D01*
X85411904Y-21156904D01*
X85459523Y-21252142D01*
X85507142Y-21299761D01*
X85602380Y-21347380D01*
X85792857Y-21347380D01*
X85888095Y-21299761D01*
X84983333Y-21347380D02*
X84983333Y-20680714D01*
X84983333Y-20347380D02*
X85030952Y-20395000D01*
X84983333Y-20442619D01*
X84935714Y-20395000D01*
X84983333Y-20347380D01*
X84983333Y-20442619D01*
X84126190Y-21299761D02*
X84221428Y-21347380D01*
X84411904Y-21347380D01*
X84507142Y-21299761D01*
X84554761Y-21204523D01*
X84554761Y-20823571D01*
X84507142Y-20728333D01*
X84411904Y-20680714D01*
X84221428Y-20680714D01*
X84126190Y-20728333D01*
X84078571Y-20823571D01*
X84078571Y-20918809D01*
X84554761Y-21014047D01*
X83745238Y-20680714D02*
X83221428Y-20680714D01*
X83745238Y-21347380D01*
X83221428Y-21347380D01*
X82697619Y-21347380D02*
X82792857Y-21299761D01*
X82840476Y-21252142D01*
X82888095Y-21156904D01*
X82888095Y-20871190D01*
X82840476Y-20775952D01*
X82792857Y-20728333D01*
X82697619Y-20680714D01*
X82554761Y-20680714D01*
X82459523Y-20728333D01*
X82411904Y-20775952D01*
X82364285Y-20871190D01*
X82364285Y-21156904D01*
X82411904Y-21252142D01*
X82459523Y-21299761D01*
X82554761Y-21347380D01*
X82697619Y-21347380D01*
X80745238Y-21347380D02*
X80745238Y-20347380D01*
X80745238Y-21299761D02*
X80840476Y-21347380D01*
X81030952Y-21347380D01*
X81126190Y-21299761D01*
X81173809Y-21252142D01*
X81221428Y-21156904D01*
X81221428Y-20871190D01*
X81173809Y-20775952D01*
X81126190Y-20728333D01*
X81030952Y-20680714D01*
X80840476Y-20680714D01*
X80745238Y-20728333D01*
X80269047Y-21347380D02*
X80269047Y-20680714D01*
X80269047Y-20871190D02*
X80221428Y-20775952D01*
X80173809Y-20728333D01*
X80078571Y-20680714D01*
X79983333Y-20680714D01*
X79650000Y-21347380D02*
X79650000Y-20680714D01*
X79650000Y-20347380D02*
X79697619Y-20395000D01*
X79650000Y-20442619D01*
X79602380Y-20395000D01*
X79650000Y-20347380D01*
X79650000Y-20442619D01*
X79269047Y-20680714D02*
X79030952Y-21347380D01*
X78792857Y-20680714D01*
X78030952Y-21299761D02*
X78126190Y-21347380D01*
X78316666Y-21347380D01*
X78411904Y-21299761D01*
X78459523Y-21204523D01*
X78459523Y-20823571D01*
X78411904Y-20728333D01*
X78316666Y-20680714D01*
X78126190Y-20680714D01*
X78030952Y-20728333D01*
X77983333Y-20823571D01*
X77983333Y-20918809D01*
X78459523Y-21014047D01*
X77554761Y-21347380D02*
X77554761Y-20680714D01*
X77554761Y-20871190D02*
X77507142Y-20775952D01*
X77459523Y-20728333D01*
X77364285Y-20680714D01*
X77269047Y-20680714D01*
X76173809Y-21347380D02*
X76173809Y-20347380D01*
X76173809Y-20728333D02*
X76078571Y-20680714D01*
X75888095Y-20680714D01*
X75792857Y-20728333D01*
X75745238Y-20775952D01*
X75697619Y-20871190D01*
X75697619Y-21156904D01*
X75745238Y-21252142D01*
X75792857Y-21299761D01*
X75888095Y-21347380D01*
X76078571Y-21347380D01*
X76173809Y-21299761D01*
X75126190Y-21347380D02*
X75221428Y-21299761D01*
X75269047Y-21252142D01*
X75316666Y-21156904D01*
X75316666Y-20871190D01*
X75269047Y-20775952D01*
X75221428Y-20728333D01*
X75126190Y-20680714D01*
X74983333Y-20680714D01*
X74888095Y-20728333D01*
X74840476Y-20775952D01*
X74792857Y-20871190D01*
X74792857Y-21156904D01*
X74840476Y-21252142D01*
X74888095Y-21299761D01*
X74983333Y-21347380D01*
X75126190Y-21347380D01*
X73935714Y-21347380D02*
X73935714Y-20823571D01*
X73983333Y-20728333D01*
X74078571Y-20680714D01*
X74269047Y-20680714D01*
X74364285Y-20728333D01*
X73935714Y-21299761D02*
X74030952Y-21347380D01*
X74269047Y-21347380D01*
X74364285Y-21299761D01*
X74411904Y-21204523D01*
X74411904Y-21109285D01*
X74364285Y-21014047D01*
X74269047Y-20966428D01*
X74030952Y-20966428D01*
X73935714Y-20918809D01*
X73459523Y-21347380D02*
X73459523Y-20680714D01*
X73459523Y-20871190D02*
X73411904Y-20775952D01*
X73364285Y-20728333D01*
X73269047Y-20680714D01*
X73173809Y-20680714D01*
X72411904Y-21347380D02*
X72411904Y-20347380D01*
X72411904Y-21299761D02*
X72507142Y-21347380D01*
X72697619Y-21347380D01*
X72792857Y-21299761D01*
X72840476Y-21252142D01*
X72888095Y-21156904D01*
X72888095Y-20871190D01*
X72840476Y-20775952D01*
X72792857Y-20728333D01*
X72697619Y-20680714D01*
X72507142Y-20680714D01*
X72411904Y-20728333D01*
X81602380Y-22957380D02*
X81602380Y-22290714D01*
X81602380Y-22481190D02*
X81554761Y-22385952D01*
X81507142Y-22338333D01*
X81411904Y-22290714D01*
X81316666Y-22290714D01*
X80602380Y-22909761D02*
X80697619Y-22957380D01*
X80888095Y-22957380D01*
X80983333Y-22909761D01*
X81030952Y-22814523D01*
X81030952Y-22433571D01*
X80983333Y-22338333D01*
X80888095Y-22290714D01*
X80697619Y-22290714D01*
X80602380Y-22338333D01*
X80554761Y-22433571D01*
X80554761Y-22528809D01*
X81030952Y-22624047D01*
X80221428Y-22290714D02*
X79983333Y-22957380D01*
X79745238Y-22290714D01*
X78650000Y-22052619D02*
X78602380Y-22005000D01*
X78507142Y-21957380D01*
X78269047Y-21957380D01*
X78173809Y-22005000D01*
X78126190Y-22052619D01*
X78078571Y-22147857D01*
X78078571Y-22243095D01*
X78126190Y-22385952D01*
X78697619Y-22957380D01*
X78078571Y-22957380D01*
X77650000Y-22862142D02*
X77602380Y-22909761D01*
X77650000Y-22957380D01*
X77697619Y-22909761D01*
X77650000Y-22862142D01*
X77650000Y-22957380D01*
X76650000Y-22957380D02*
X77221428Y-22957380D01*
X76935714Y-22957380D02*
X76935714Y-21957380D01*
X77030952Y-22100238D01*
X77126190Y-22195476D01*
X77221428Y-22243095D01*
X22588095Y-20680714D02*
X22588095Y-21680714D01*
X22588095Y-20728333D02*
X22492857Y-20680714D01*
X22302380Y-20680714D01*
X22207142Y-20728333D01*
X22159523Y-20775952D01*
X22111904Y-20871190D01*
X22111904Y-21156904D01*
X22159523Y-21252142D01*
X22207142Y-21299761D01*
X22302380Y-21347380D01*
X22492857Y-21347380D01*
X22588095Y-21299761D01*
X21683333Y-21347380D02*
X21683333Y-20680714D01*
X21683333Y-20347380D02*
X21730952Y-20395000D01*
X21683333Y-20442619D01*
X21635714Y-20395000D01*
X21683333Y-20347380D01*
X21683333Y-20442619D01*
X20826190Y-21299761D02*
X20921428Y-21347380D01*
X21111904Y-21347380D01*
X21207142Y-21299761D01*
X21254761Y-21204523D01*
X21254761Y-20823571D01*
X21207142Y-20728333D01*
X21111904Y-20680714D01*
X20921428Y-20680714D01*
X20826190Y-20728333D01*
X20778571Y-20823571D01*
X20778571Y-20918809D01*
X21254761Y-21014047D01*
X20445238Y-20680714D02*
X19921428Y-20680714D01*
X20445238Y-21347380D01*
X19921428Y-21347380D01*
X19397619Y-21347380D02*
X19492857Y-21299761D01*
X19540476Y-21252142D01*
X19588095Y-21156904D01*
X19588095Y-20871190D01*
X19540476Y-20775952D01*
X19492857Y-20728333D01*
X19397619Y-20680714D01*
X19254761Y-20680714D01*
X19159523Y-20728333D01*
X19111904Y-20775952D01*
X19064285Y-20871190D01*
X19064285Y-21156904D01*
X19111904Y-21252142D01*
X19159523Y-21299761D01*
X19254761Y-21347380D01*
X19397619Y-21347380D01*
X17445238Y-21347380D02*
X17445238Y-20347380D01*
X17445238Y-21299761D02*
X17540476Y-21347380D01*
X17730952Y-21347380D01*
X17826190Y-21299761D01*
X17873809Y-21252142D01*
X17921428Y-21156904D01*
X17921428Y-20871190D01*
X17873809Y-20775952D01*
X17826190Y-20728333D01*
X17730952Y-20680714D01*
X17540476Y-20680714D01*
X17445238Y-20728333D01*
X16969047Y-21347380D02*
X16969047Y-20680714D01*
X16969047Y-20871190D02*
X16921428Y-20775952D01*
X16873809Y-20728333D01*
X16778571Y-20680714D01*
X16683333Y-20680714D01*
X16350000Y-21347380D02*
X16350000Y-20680714D01*
X16350000Y-20347380D02*
X16397619Y-20395000D01*
X16350000Y-20442619D01*
X16302380Y-20395000D01*
X16350000Y-20347380D01*
X16350000Y-20442619D01*
X15969047Y-20680714D02*
X15730952Y-21347380D01*
X15492857Y-20680714D01*
X14730952Y-21299761D02*
X14826190Y-21347380D01*
X15016666Y-21347380D01*
X15111904Y-21299761D01*
X15159523Y-21204523D01*
X15159523Y-20823571D01*
X15111904Y-20728333D01*
X15016666Y-20680714D01*
X14826190Y-20680714D01*
X14730952Y-20728333D01*
X14683333Y-20823571D01*
X14683333Y-20918809D01*
X15159523Y-21014047D01*
X14254761Y-21347380D02*
X14254761Y-20680714D01*
X14254761Y-20871190D02*
X14207142Y-20775952D01*
X14159523Y-20728333D01*
X14064285Y-20680714D01*
X13969047Y-20680714D01*
X12873809Y-21347380D02*
X12873809Y-20347380D01*
X12873809Y-20728333D02*
X12778571Y-20680714D01*
X12588095Y-20680714D01*
X12492857Y-20728333D01*
X12445238Y-20775952D01*
X12397619Y-20871190D01*
X12397619Y-21156904D01*
X12445238Y-21252142D01*
X12492857Y-21299761D01*
X12588095Y-21347380D01*
X12778571Y-21347380D01*
X12873809Y-21299761D01*
X11826190Y-21347380D02*
X11921428Y-21299761D01*
X11969047Y-21252142D01*
X12016666Y-21156904D01*
X12016666Y-20871190D01*
X11969047Y-20775952D01*
X11921428Y-20728333D01*
X11826190Y-20680714D01*
X11683333Y-20680714D01*
X11588095Y-20728333D01*
X11540476Y-20775952D01*
X11492857Y-20871190D01*
X11492857Y-21156904D01*
X11540476Y-21252142D01*
X11588095Y-21299761D01*
X11683333Y-21347380D01*
X11826190Y-21347380D01*
X10635714Y-21347380D02*
X10635714Y-20823571D01*
X10683333Y-20728333D01*
X10778571Y-20680714D01*
X10969047Y-20680714D01*
X11064285Y-20728333D01*
X10635714Y-21299761D02*
X10730952Y-21347380D01*
X10969047Y-21347380D01*
X11064285Y-21299761D01*
X11111904Y-21204523D01*
X11111904Y-21109285D01*
X11064285Y-21014047D01*
X10969047Y-20966428D01*
X10730952Y-20966428D01*
X10635714Y-20918809D01*
X10159523Y-21347380D02*
X10159523Y-20680714D01*
X10159523Y-20871190D02*
X10111904Y-20775952D01*
X10064285Y-20728333D01*
X9969047Y-20680714D01*
X9873809Y-20680714D01*
X9111904Y-21347380D02*
X9111904Y-20347380D01*
X9111904Y-21299761D02*
X9207142Y-21347380D01*
X9397619Y-21347380D01*
X9492857Y-21299761D01*
X9540476Y-21252142D01*
X9588095Y-21156904D01*
X9588095Y-20871190D01*
X9540476Y-20775952D01*
X9492857Y-20728333D01*
X9397619Y-20680714D01*
X9207142Y-20680714D01*
X9111904Y-20728333D01*
X18302380Y-22957380D02*
X18302380Y-22290714D01*
X18302380Y-22481190D02*
X18254761Y-22385952D01*
X18207142Y-22338333D01*
X18111904Y-22290714D01*
X18016666Y-22290714D01*
X17302380Y-22909761D02*
X17397619Y-22957380D01*
X17588095Y-22957380D01*
X17683333Y-22909761D01*
X17730952Y-22814523D01*
X17730952Y-22433571D01*
X17683333Y-22338333D01*
X17588095Y-22290714D01*
X17397619Y-22290714D01*
X17302380Y-22338333D01*
X17254761Y-22433571D01*
X17254761Y-22528809D01*
X17730952Y-22624047D01*
X16921428Y-22290714D02*
X16683333Y-22957380D01*
X16445238Y-22290714D01*
X15350000Y-22052619D02*
X15302380Y-22005000D01*
X15207142Y-21957380D01*
X14969047Y-21957380D01*
X14873809Y-22005000D01*
X14826190Y-22052619D01*
X14778571Y-22147857D01*
X14778571Y-22243095D01*
X14826190Y-22385952D01*
X15397619Y-22957380D01*
X14778571Y-22957380D01*
X14350000Y-22862142D02*
X14302380Y-22909761D01*
X14350000Y-22957380D01*
X14397619Y-22909761D01*
X14350000Y-22862142D01*
X14350000Y-22957380D01*
X13350000Y-22957380D02*
X13921428Y-22957380D01*
X13635714Y-22957380D02*
X13635714Y-21957380D01*
X13730952Y-22100238D01*
X13826190Y-22195476D01*
X13921428Y-22243095D01*
X54238095Y-20680714D02*
X54238095Y-21680714D01*
X54238095Y-20728333D02*
X54142857Y-20680714D01*
X53952380Y-20680714D01*
X53857142Y-20728333D01*
X53809523Y-20775952D01*
X53761904Y-20871190D01*
X53761904Y-21156904D01*
X53809523Y-21252142D01*
X53857142Y-21299761D01*
X53952380Y-21347380D01*
X54142857Y-21347380D01*
X54238095Y-21299761D01*
X53333333Y-21347380D02*
X53333333Y-20680714D01*
X53333333Y-20347380D02*
X53380952Y-20395000D01*
X53333333Y-20442619D01*
X53285714Y-20395000D01*
X53333333Y-20347380D01*
X53333333Y-20442619D01*
X52476190Y-21299761D02*
X52571428Y-21347380D01*
X52761904Y-21347380D01*
X52857142Y-21299761D01*
X52904761Y-21204523D01*
X52904761Y-20823571D01*
X52857142Y-20728333D01*
X52761904Y-20680714D01*
X52571428Y-20680714D01*
X52476190Y-20728333D01*
X52428571Y-20823571D01*
X52428571Y-20918809D01*
X52904761Y-21014047D01*
X52095238Y-20680714D02*
X51571428Y-20680714D01*
X52095238Y-21347380D01*
X51571428Y-21347380D01*
X51047619Y-21347380D02*
X51142857Y-21299761D01*
X51190476Y-21252142D01*
X51238095Y-21156904D01*
X51238095Y-20871190D01*
X51190476Y-20775952D01*
X51142857Y-20728333D01*
X51047619Y-20680714D01*
X50904761Y-20680714D01*
X50809523Y-20728333D01*
X50761904Y-20775952D01*
X50714285Y-20871190D01*
X50714285Y-21156904D01*
X50761904Y-21252142D01*
X50809523Y-21299761D01*
X50904761Y-21347380D01*
X51047619Y-21347380D01*
X49095238Y-21347380D02*
X49095238Y-20347380D01*
X49095238Y-21299761D02*
X49190476Y-21347380D01*
X49380952Y-21347380D01*
X49476190Y-21299761D01*
X49523809Y-21252142D01*
X49571428Y-21156904D01*
X49571428Y-20871190D01*
X49523809Y-20775952D01*
X49476190Y-20728333D01*
X49380952Y-20680714D01*
X49190476Y-20680714D01*
X49095238Y-20728333D01*
X48619047Y-21347380D02*
X48619047Y-20680714D01*
X48619047Y-20871190D02*
X48571428Y-20775952D01*
X48523809Y-20728333D01*
X48428571Y-20680714D01*
X48333333Y-20680714D01*
X48000000Y-21347380D02*
X48000000Y-20680714D01*
X48000000Y-20347380D02*
X48047619Y-20395000D01*
X48000000Y-20442619D01*
X47952380Y-20395000D01*
X48000000Y-20347380D01*
X48000000Y-20442619D01*
X47619047Y-20680714D02*
X47380952Y-21347380D01*
X47142857Y-20680714D01*
X46380952Y-21299761D02*
X46476190Y-21347380D01*
X46666666Y-21347380D01*
X46761904Y-21299761D01*
X46809523Y-21204523D01*
X46809523Y-20823571D01*
X46761904Y-20728333D01*
X46666666Y-20680714D01*
X46476190Y-20680714D01*
X46380952Y-20728333D01*
X46333333Y-20823571D01*
X46333333Y-20918809D01*
X46809523Y-21014047D01*
X45904761Y-21347380D02*
X45904761Y-20680714D01*
X45904761Y-20871190D02*
X45857142Y-20775952D01*
X45809523Y-20728333D01*
X45714285Y-20680714D01*
X45619047Y-20680714D01*
X44523809Y-21347380D02*
X44523809Y-20347380D01*
X44523809Y-20728333D02*
X44428571Y-20680714D01*
X44238095Y-20680714D01*
X44142857Y-20728333D01*
X44095238Y-20775952D01*
X44047619Y-20871190D01*
X44047619Y-21156904D01*
X44095238Y-21252142D01*
X44142857Y-21299761D01*
X44238095Y-21347380D01*
X44428571Y-21347380D01*
X44523809Y-21299761D01*
X43476190Y-21347380D02*
X43571428Y-21299761D01*
X43619047Y-21252142D01*
X43666666Y-21156904D01*
X43666666Y-20871190D01*
X43619047Y-20775952D01*
X43571428Y-20728333D01*
X43476190Y-20680714D01*
X43333333Y-20680714D01*
X43238095Y-20728333D01*
X43190476Y-20775952D01*
X43142857Y-20871190D01*
X43142857Y-21156904D01*
X43190476Y-21252142D01*
X43238095Y-21299761D01*
X43333333Y-21347380D01*
X43476190Y-21347380D01*
X42285714Y-21347380D02*
X42285714Y-20823571D01*
X42333333Y-20728333D01*
X42428571Y-20680714D01*
X42619047Y-20680714D01*
X42714285Y-20728333D01*
X42285714Y-21299761D02*
X42380952Y-21347380D01*
X42619047Y-21347380D01*
X42714285Y-21299761D01*
X42761904Y-21204523D01*
X42761904Y-21109285D01*
X42714285Y-21014047D01*
X42619047Y-20966428D01*
X42380952Y-20966428D01*
X42285714Y-20918809D01*
X41809523Y-21347380D02*
X41809523Y-20680714D01*
X41809523Y-20871190D02*
X41761904Y-20775952D01*
X41714285Y-20728333D01*
X41619047Y-20680714D01*
X41523809Y-20680714D01*
X40761904Y-21347380D02*
X40761904Y-20347380D01*
X40761904Y-21299761D02*
X40857142Y-21347380D01*
X41047619Y-21347380D01*
X41142857Y-21299761D01*
X41190476Y-21252142D01*
X41238095Y-21156904D01*
X41238095Y-20871190D01*
X41190476Y-20775952D01*
X41142857Y-20728333D01*
X41047619Y-20680714D01*
X40857142Y-20680714D01*
X40761904Y-20728333D01*
X49952380Y-22957380D02*
X49952380Y-22290714D01*
X49952380Y-22481190D02*
X49904761Y-22385952D01*
X49857142Y-22338333D01*
X49761904Y-22290714D01*
X49666666Y-22290714D01*
X48952380Y-22909761D02*
X49047619Y-22957380D01*
X49238095Y-22957380D01*
X49333333Y-22909761D01*
X49380952Y-22814523D01*
X49380952Y-22433571D01*
X49333333Y-22338333D01*
X49238095Y-22290714D01*
X49047619Y-22290714D01*
X48952380Y-22338333D01*
X48904761Y-22433571D01*
X48904761Y-22528809D01*
X49380952Y-22624047D01*
X48571428Y-22290714D02*
X48333333Y-22957380D01*
X48095238Y-22290714D01*
X47000000Y-22052619D02*
X46952380Y-22005000D01*
X46857142Y-21957380D01*
X46619047Y-21957380D01*
X46523809Y-22005000D01*
X46476190Y-22052619D01*
X46428571Y-22147857D01*
X46428571Y-22243095D01*
X46476190Y-22385952D01*
X47047619Y-22957380D01*
X46428571Y-22957380D01*
X45999999Y-22862142D02*
X45952380Y-22909761D01*
X45999999Y-22957380D01*
X46047619Y-22909761D01*
X45999999Y-22862142D01*
X45999999Y-22957380D01*
X44999999Y-22957380D02*
X45571428Y-22957380D01*
X45285714Y-22957380D02*
X45285714Y-21957380D01*
X45380952Y-22100238D01*
X45476190Y-22195476D01*
X45571428Y-22243095D01*
M02*
