%TF.GenerationSoftware,KiCad,Pcbnew,(6.0.5)*%
%TF.CreationDate,2022-11-09T23:01:59+01:00*%
%TF.ProjectId,piezo_driver_panel,7069657a-6f5f-4647-9269-7665725f7061,rev?*%
%TF.SameCoordinates,PXe4e1c0PYe4e1c0*%
%TF.FileFunction,Copper,L1,Top*%
%TF.FilePolarity,Positive*%
%FSLAX46Y46*%
G04 Gerber Fmt 4.6, Leading zero omitted, Abs format (unit mm)*
G04 Created by KiCad (PCBNEW (6.0.5)) date 2022-11-09 23:01:59*
%MOMM*%
%LPD*%
G01*
G04 APERTURE LIST*
G04 Aperture macros list*
%AMRoundRect*
0 Rectangle with rounded corners*
0 $1 Rounding radius*
0 $2 $3 $4 $5 $6 $7 $8 $9 X,Y pos of 4 corners*
0 Add a 4 corners polygon primitive as box body*
4,1,4,$2,$3,$4,$5,$6,$7,$8,$9,$2,$3,0*
0 Add four circle primitives for the rounded corners*
1,1,$1+$1,$2,$3*
1,1,$1+$1,$4,$5*
1,1,$1+$1,$6,$7*
1,1,$1+$1,$8,$9*
0 Add four rect primitives between the rounded corners*
20,1,$1+$1,$2,$3,$4,$5,0*
20,1,$1+$1,$4,$5,$6,$7,0*
20,1,$1+$1,$6,$7,$8,$9,0*
20,1,$1+$1,$8,$9,$2,$3,0*%
%AMRotRect*
0 Rectangle, with rotation*
0 The origin of the aperture is its center*
0 $1 length*
0 $2 width*
0 $3 Rotation angle, in degrees counterclockwise*
0 Add horizontal line*
21,1,$1,$2,0,0,$3*%
G04 Aperture macros list end*
%TA.AperFunction,SMDPad,CuDef*%
%ADD10C,1.000000*%
%TD*%
%TA.AperFunction,TestPad*%
%ADD11C,1.000000*%
%TD*%
%TA.AperFunction,SMDPad,CuDef*%
%ADD12RoundRect,0.225000X0.250000X-0.225000X0.250000X0.225000X-0.250000X0.225000X-0.250000X-0.225000X0*%
%TD*%
%TA.AperFunction,SMDPad,CuDef*%
%ADD13RoundRect,0.200000X-0.200000X-0.275000X0.200000X-0.275000X0.200000X0.275000X-0.200000X0.275000X0*%
%TD*%
%TA.AperFunction,SMDPad,CuDef*%
%ADD14RoundRect,0.200000X0.275000X-0.200000X0.275000X0.200000X-0.275000X0.200000X-0.275000X-0.200000X0*%
%TD*%
%TA.AperFunction,SMDPad,CuDef*%
%ADD15RoundRect,0.075000X0.075000X0.325000X-0.075000X0.325000X-0.075000X-0.325000X0.075000X-0.325000X0*%
%TD*%
%TA.AperFunction,SMDPad,CuDef*%
%ADD16RoundRect,0.150000X0.150000X0.450000X-0.150000X0.450000X-0.150000X-0.450000X0.150000X-0.450000X0*%
%TD*%
%TA.AperFunction,SMDPad,CuDef*%
%ADD17RoundRect,0.062500X0.309359X-0.220971X-0.220971X0.309359X-0.309359X0.220971X0.220971X-0.309359X0*%
%TD*%
%TA.AperFunction,SMDPad,CuDef*%
%ADD18RoundRect,0.062500X0.309359X0.220971X0.220971X0.309359X-0.309359X-0.220971X-0.220971X-0.309359X0*%
%TD*%
%TA.AperFunction,ComponentPad*%
%ADD19C,0.500000*%
%TD*%
%TA.AperFunction,SMDPad,CuDef*%
%ADD20RotRect,3.100000X3.100000X135.000000*%
%TD*%
%TA.AperFunction,SMDPad,CuDef*%
%ADD21RoundRect,0.062500X-0.350000X-0.062500X0.350000X-0.062500X0.350000X0.062500X-0.350000X0.062500X0*%
%TD*%
%TA.AperFunction,SMDPad,CuDef*%
%ADD22RoundRect,0.062500X-0.062500X-0.350000X0.062500X-0.350000X0.062500X0.350000X-0.062500X0.350000X0*%
%TD*%
%TA.AperFunction,SMDPad,CuDef*%
%ADD23R,2.700000X2.700000*%
%TD*%
%TA.AperFunction,SMDPad,CuDef*%
%ADD24R,1.100000X1.100000*%
%TD*%
%TA.AperFunction,SMDPad,CuDef*%
%ADD25RoundRect,0.062500X-0.220971X-0.309359X0.309359X0.220971X0.220971X0.309359X-0.309359X-0.220971X0*%
%TD*%
%TA.AperFunction,SMDPad,CuDef*%
%ADD26RoundRect,0.062500X0.220971X-0.309359X0.309359X-0.220971X-0.220971X0.309359X-0.309359X0.220971X0*%
%TD*%
%TA.AperFunction,SMDPad,CuDef*%
%ADD27RotRect,3.100000X3.100000X45.000000*%
%TD*%
%TA.AperFunction,SMDPad,CuDef*%
%ADD28C,2.000000*%
%TD*%
%TA.AperFunction,SMDPad,CuDef*%
%ADD29RoundRect,0.225000X0.225000X0.250000X-0.225000X0.250000X-0.225000X-0.250000X0.225000X-0.250000X0*%
%TD*%
%TA.AperFunction,SMDPad,CuDef*%
%ADD30RoundRect,0.250000X-0.475000X0.250000X-0.475000X-0.250000X0.475000X-0.250000X0.475000X0.250000X0*%
%TD*%
%TA.AperFunction,SMDPad,CuDef*%
%ADD31RoundRect,0.200000X0.200000X0.275000X-0.200000X0.275000X-0.200000X-0.275000X0.200000X-0.275000X0*%
%TD*%
%TA.AperFunction,SMDPad,CuDef*%
%ADD32RoundRect,0.200000X-0.275000X0.200000X-0.275000X-0.200000X0.275000X-0.200000X0.275000X0.200000X0*%
%TD*%
%TA.AperFunction,SMDPad,CuDef*%
%ADD33RoundRect,0.125000X-0.125000X-0.875000X0.125000X-0.875000X0.125000X0.875000X-0.125000X0.875000X0*%
%TD*%
%TA.AperFunction,ComponentPad*%
%ADD34RoundRect,0.500000X-0.500000X-0.500000X0.500000X-0.500000X0.500000X0.500000X-0.500000X0.500000X0*%
%TD*%
%TA.AperFunction,ComponentPad*%
%ADD35RoundRect,0.150000X-0.150000X-1.600000X0.150000X-1.600000X0.150000X1.600000X-0.150000X1.600000X0*%
%TD*%
%TA.AperFunction,ComponentPad*%
%ADD36RoundRect,0.250000X-0.250000X-2.000000X0.250000X-2.000000X0.250000X2.000000X-0.250000X2.000000X0*%
%TD*%
%TA.AperFunction,SMDPad,CuDef*%
%ADD37RoundRect,0.250000X-1.450000X0.250000X-1.450000X-0.250000X1.450000X-0.250000X1.450000X0.250000X0*%
%TD*%
%TA.AperFunction,ViaPad*%
%ADD38C,0.600000*%
%TD*%
%TA.AperFunction,Conductor*%
%ADD39C,0.200000*%
%TD*%
%TA.AperFunction,Conductor*%
%ADD40C,0.250000*%
%TD*%
%TA.AperFunction,Conductor*%
%ADD41C,0.300000*%
%TD*%
%TA.AperFunction,Conductor*%
%ADD42C,0.500000*%
%TD*%
G04 APERTURE END LIST*
D10*
%TO.P,TP9,1,1*%
%TO.N,Board_0-/SDA*%
X23150000Y-13750000D03*
%TD*%
D11*
%TO.P,TP5,1,1*%
%TO.N,Board_0-/OUT-*%
X24550000Y-24700000D03*
%TD*%
%TO.P,TP2,1,1*%
%TO.N,Board_0-GND*%
X22916666Y-36050000D03*
%TD*%
D12*
%TO.P,C5,1*%
%TO.N,Board_2-/VDD*%
X77250000Y-30575000D03*
%TO.P,C5,2*%
%TO.N,Board_2-GND*%
X77250000Y-29025000D03*
%TD*%
D11*
%TO.P,TP6,1,1*%
%TO.N,Board_0-/AIN*%
X23150000Y-9550000D03*
%TD*%
D10*
%TO.P,TP13,1,1*%
%TO.N,Board_1-/POL*%
X34908333Y-13800000D03*
%TD*%
%TO.P,TP13,1,1*%
%TO.N,Board_2-/POL*%
X66558333Y-13800000D03*
%TD*%
D13*
%TO.P,R4,1*%
%TO.N,Board_0-/VDD*%
X17825000Y-18800000D03*
%TO.P,R4,2*%
%TO.N,Board_0-/SDA*%
X19475000Y-18800000D03*
%TD*%
D11*
%TO.P,TP2,1,1*%
%TO.N,Board_2-GND*%
X86216666Y-36050000D03*
%TD*%
D10*
%TO.P,TP15,1,1*%
%TO.N,Board_0-/VBIAS*%
X3283332Y-20150000D03*
%TD*%
%TO.P,TP11,1,1*%
%TO.N,Board_0-/EN*%
X23150000Y-15850000D03*
%TD*%
D12*
%TO.P,C3,1*%
%TO.N,Board_1-/EN*%
X46400000Y-21375000D03*
%TO.P,C3,2*%
%TO.N,Board_1-GND*%
X46400000Y-19825000D03*
%TD*%
D11*
%TO.P,TP6,1,1*%
%TO.N,Board_2-/AIN*%
X86450000Y-9550000D03*
%TD*%
D14*
%TO.P,R3,1*%
%TO.N,Board_0-Net-(R3-Pad1)*%
X20450000Y-23925000D03*
%TO.P,R3,2*%
%TO.N,Board_0-GND*%
X20450000Y-22275000D03*
%TD*%
D13*
%TO.P,R1,1*%
%TO.N,Board_0-/VBST*%
X11125000Y-26300000D03*
%TO.P,R1,2*%
%TO.N,Board_0-Net-(R1-Pad2)*%
X12775000Y-26300000D03*
%TD*%
D15*
%TO.P,J1,1,Pin_1*%
%TO.N,Board_2-GND*%
X75800000Y-12700000D03*
%TO.P,J1,2,Pin_2*%
%TO.N,Board_2-/VBIAS*%
X76300000Y-12700000D03*
%TO.P,J1,3,Pin_3*%
%TO.N,Board_2-/DOUT*%
X76800000Y-12700000D03*
%TO.P,J1,4,Pin_4*%
%TO.N,Board_2-/LE*%
X77300000Y-12700000D03*
%TO.P,J1,5,Pin_5*%
%TO.N,Board_2-/POL*%
X77800000Y-12700000D03*
%TO.P,J1,6,Pin_6*%
%TO.N,Board_2-/CLK*%
X78300000Y-12700000D03*
%TO.P,J1,7,Pin_7*%
%TO.N,Board_2-/DIN*%
X78800000Y-12700000D03*
%TO.P,J1,8,Pin_8*%
%TO.N,Board_2-/AIN*%
X79300000Y-12700000D03*
%TO.P,J1,9,Pin_9*%
%TO.N,Board_2-/SCL*%
X79800000Y-12700000D03*
%TO.P,J1,10,Pin_10*%
%TO.N,Board_2-/SDA*%
X80300000Y-12700000D03*
%TO.P,J1,11,Pin_11*%
%TO.N,Board_2-/REG*%
X80800000Y-12700000D03*
%TO.P,J1,12,Pin_12*%
%TO.N,Board_2-/VDD*%
X81300000Y-12700000D03*
D16*
%TO.P,J1,MP*%
%TO.N,N/C*%
X82300000Y-10200000D03*
X74800000Y-10200000D03*
%TD*%
D17*
%TO.P,U2,1,HVout12*%
%TO.N,Board_2-/reed15*%
X85336136Y-44061010D03*
%TO.P,U2,2,HVout11*%
%TO.N,Board_2-/reed16*%
X85689689Y-43707456D03*
%TO.P,U2,3,HVout10*%
%TO.N,Board_2-/reed17*%
X86043243Y-43353903D03*
%TO.P,U2,4,HVout9*%
%TO.N,Board_2-/reed18*%
X86396796Y-43000349D03*
%TO.P,U2,5,HVout8*%
%TO.N,Board_2-/reed19*%
X86750349Y-42646796D03*
%TO.P,U2,6,HVout7*%
%TO.N,Board_2-/reed20*%
X87103903Y-42293243D03*
%TO.P,U2,7,HVout6*%
%TO.N,Board_2-/PZT_Common*%
X87457456Y-41939689D03*
%TO.P,U2,8,HVout5*%
X87811010Y-41586136D03*
D18*
%TO.P,U2,9,HVout4*%
X87811010Y-40613864D03*
%TO.P,U2,10,HVout3*%
X87457456Y-40260311D03*
%TO.P,U2,11,HVout2*%
X87103903Y-39906757D03*
%TO.P,U2,12,HVout1*%
X86750349Y-39553204D03*
%TO.P,U2,13,NC*%
%TO.N,Board_2-unconnected-(U2-Pad13)*%
X86396796Y-39199651D03*
%TO.P,U2,14,VPP*%
%TO.N,Board_2-/VPP*%
X86043243Y-38846097D03*
%TO.P,U2,15,GND*%
%TO.N,Board_2-GND*%
X85689689Y-38492544D03*
%TO.P,U2,16,NC*%
%TO.N,Board_2-unconnected-(U2-Pad16)*%
X85336136Y-38138990D03*
D17*
%TO.P,U2,17,DIN*%
%TO.N,Board_2-/DIN*%
X84363864Y-38138990D03*
%TO.P,U2,18,NC*%
%TO.N,Board_2-unconnected-(U2-Pad18)*%
X84010311Y-38492544D03*
%TO.P,U2,19,CLK*%
%TO.N,Board_2-/CLK*%
X83656757Y-38846097D03*
%TO.P,U2,20,VDD*%
%TO.N,Board_2-/VDD*%
X83303204Y-39199651D03*
%TO.P,U2,21,~POL~*%
%TO.N,Board_2-/POL*%
X82949651Y-39553204D03*
%TO.P,U2,22,~LE~*%
%TO.N,Board_2-/LE*%
X82596097Y-39906757D03*
%TO.P,U2,23,NC*%
%TO.N,Board_2-unconnected-(U2-Pad23)*%
X82242544Y-40260311D03*
%TO.P,U2,24,DOUT*%
%TO.N,Board_2-Net-(U1-Pad17)*%
X81888990Y-40613864D03*
D18*
%TO.P,U2,25,NC*%
%TO.N,Board_2-unconnected-(U2-Pad25)*%
X81888990Y-41586136D03*
%TO.P,U2,26,VBIAS*%
%TO.N,Board_2-/VBIAS*%
X82242544Y-41939689D03*
%TO.P,U2,27,HVGND*%
%TO.N,Board_2-GND*%
X82596097Y-42293243D03*
%TO.P,U2,28,BP*%
%TO.N,Board_2-unconnected-(U2-Pad28)*%
X82949651Y-42646796D03*
%TO.P,U2,29,HVout16*%
%TO.N,Board_2-/reed11*%
X83303204Y-43000349D03*
%TO.P,U2,30,HVout15*%
%TO.N,Board_2-/reed12*%
X83656757Y-43353903D03*
%TO.P,U2,31,HVout14*%
%TO.N,Board_2-/reed13*%
X84010311Y-43707456D03*
%TO.P,U2,32,HVout13*%
%TO.N,Board_2-/reed14*%
X84363864Y-44061010D03*
D19*
%TO.P,U2,33,VPP*%
%TO.N,Board_2-/VPP*%
X84850000Y-42938478D03*
X84237175Y-41100000D03*
X86075652Y-40487174D03*
X84237174Y-39874348D03*
X83624348Y-41712826D03*
X84850000Y-41712825D03*
X83624348Y-40487174D03*
X83011522Y-41100000D03*
X85462826Y-42325652D03*
X85462825Y-41100000D03*
X85462826Y-39874348D03*
X84850000Y-39261522D03*
D20*
X84850000Y-41100000D03*
D19*
X86688478Y-41100000D03*
X84850000Y-40487175D03*
X84237174Y-42325652D03*
X86075652Y-41712826D03*
%TD*%
D21*
%TO.P,U3,1,VPUMP*%
%TO.N,Board_0-Net-(C2-Pad1)*%
X14587500Y-24200000D03*
%TO.P,U3,2,VDD*%
%TO.N,Board_0-/VDD*%
X14587500Y-24700000D03*
%TO.P,U3,3,FB*%
%TO.N,Board_0-Net-(R1-Pad2)*%
X14587500Y-25200000D03*
%TO.P,U3,4,GND*%
%TO.N,Board_0-GND*%
X14587500Y-25700000D03*
%TO.P,U3,5,GND*%
X14587500Y-26200000D03*
D22*
%TO.P,U3,6,GND*%
X15550000Y-27162500D03*
%TO.P,U3,7,SW*%
%TO.N,Board_0-Net-(L1-Pad1)*%
X16050000Y-27162500D03*
%TO.P,U3,8,SW*%
X16550000Y-27162500D03*
%TO.P,U3,9,NC*%
%TO.N,Board_0-unconnected-(U3-Pad9)*%
X17050000Y-27162500D03*
%TO.P,U3,10,VBST*%
%TO.N,Board_0-/VBST*%
X17550000Y-27162500D03*
D21*
%TO.P,U3,11,VBST*%
X18512500Y-26200000D03*
%TO.P,U3,12,PVDD*%
X18512500Y-25700000D03*
%TO.P,U3,13,OUT+*%
%TO.N,Board_0-/VPP*%
X18512500Y-25200000D03*
%TO.P,U3,14,OUT-*%
%TO.N,Board_0-/OUT-*%
X18512500Y-24700000D03*
%TO.P,U3,15,REXT*%
%TO.N,Board_0-Net-(R3-Pad1)*%
X18512500Y-24200000D03*
D22*
%TO.P,U3,16,IN-*%
%TO.N,Board_0-GND*%
X17550000Y-23237500D03*
%TO.P,U3,17,IN+*%
%TO.N,Board_0-/AIN*%
X17050000Y-23237500D03*
%TO.P,U3,18,SCL*%
%TO.N,Board_0-/SCL*%
X16550000Y-23237500D03*
%TO.P,U3,19,SDA*%
%TO.N,Board_0-/SDA*%
X16050000Y-23237500D03*
%TO.P,U3,20,REG*%
%TO.N,Board_0-/EN*%
X15550000Y-23237500D03*
D19*
%TO.P,U3,21,GND*%
%TO.N,Board_0-GND*%
X16550000Y-25200000D03*
X17650000Y-25200000D03*
X17650000Y-24100000D03*
X17650000Y-26300000D03*
X16550000Y-24100000D03*
X15450000Y-24100000D03*
D23*
X16550000Y-25200000D03*
D19*
X16550000Y-26300000D03*
X15450000Y-25200000D03*
X15450000Y-26300000D03*
%TD*%
D10*
%TO.P,TP10,1,1*%
%TO.N,Board_1-/SCL*%
X54800000Y-11650000D03*
%TD*%
D13*
%TO.P,R2,1*%
%TO.N,Board_0-GND*%
X11125000Y-24700000D03*
%TO.P,R2,2*%
%TO.N,Board_0-Net-(R1-Pad2)*%
X12775000Y-24700000D03*
%TD*%
D17*
%TO.P,U2,1,HVout12*%
%TO.N,Board_0-/reed15*%
X22036136Y-44061010D03*
%TO.P,U2,2,HVout11*%
%TO.N,Board_0-/reed16*%
X22389689Y-43707456D03*
%TO.P,U2,3,HVout10*%
%TO.N,Board_0-/reed17*%
X22743243Y-43353903D03*
%TO.P,U2,4,HVout9*%
%TO.N,Board_0-/reed18*%
X23096796Y-43000349D03*
%TO.P,U2,5,HVout8*%
%TO.N,Board_0-/reed19*%
X23450349Y-42646796D03*
%TO.P,U2,6,HVout7*%
%TO.N,Board_0-/reed20*%
X23803903Y-42293243D03*
%TO.P,U2,7,HVout6*%
%TO.N,Board_0-/PZT_Common*%
X24157456Y-41939689D03*
%TO.P,U2,8,HVout5*%
X24511010Y-41586136D03*
D18*
%TO.P,U2,9,HVout4*%
X24511010Y-40613864D03*
%TO.P,U2,10,HVout3*%
X24157456Y-40260311D03*
%TO.P,U2,11,HVout2*%
X23803903Y-39906757D03*
%TO.P,U2,12,HVout1*%
X23450349Y-39553204D03*
%TO.P,U2,13,NC*%
%TO.N,Board_0-unconnected-(U2-Pad13)*%
X23096796Y-39199651D03*
%TO.P,U2,14,VPP*%
%TO.N,Board_0-/VPP*%
X22743243Y-38846097D03*
%TO.P,U2,15,GND*%
%TO.N,Board_0-GND*%
X22389689Y-38492544D03*
%TO.P,U2,16,NC*%
%TO.N,Board_0-unconnected-(U2-Pad16)*%
X22036136Y-38138990D03*
D17*
%TO.P,U2,17,DIN*%
%TO.N,Board_0-/DIN*%
X21063864Y-38138990D03*
%TO.P,U2,18,NC*%
%TO.N,Board_0-unconnected-(U2-Pad18)*%
X20710311Y-38492544D03*
%TO.P,U2,19,CLK*%
%TO.N,Board_0-/CLK*%
X20356757Y-38846097D03*
%TO.P,U2,20,VDD*%
%TO.N,Board_0-/VDD*%
X20003204Y-39199651D03*
%TO.P,U2,21,~POL~*%
%TO.N,Board_0-/POL*%
X19649651Y-39553204D03*
%TO.P,U2,22,~LE~*%
%TO.N,Board_0-/LE*%
X19296097Y-39906757D03*
%TO.P,U2,23,NC*%
%TO.N,Board_0-unconnected-(U2-Pad23)*%
X18942544Y-40260311D03*
%TO.P,U2,24,DOUT*%
%TO.N,Board_0-Net-(U1-Pad17)*%
X18588990Y-40613864D03*
D18*
%TO.P,U2,25,NC*%
%TO.N,Board_0-unconnected-(U2-Pad25)*%
X18588990Y-41586136D03*
%TO.P,U2,26,VBIAS*%
%TO.N,Board_0-/VBIAS*%
X18942544Y-41939689D03*
%TO.P,U2,27,HVGND*%
%TO.N,Board_0-GND*%
X19296097Y-42293243D03*
%TO.P,U2,28,BP*%
%TO.N,Board_0-unconnected-(U2-Pad28)*%
X19649651Y-42646796D03*
%TO.P,U2,29,HVout16*%
%TO.N,Board_0-/reed11*%
X20003204Y-43000349D03*
%TO.P,U2,30,HVout15*%
%TO.N,Board_0-/reed12*%
X20356757Y-43353903D03*
%TO.P,U2,31,HVout14*%
%TO.N,Board_0-/reed13*%
X20710311Y-43707456D03*
%TO.P,U2,32,HVout13*%
%TO.N,Board_0-/reed14*%
X21063864Y-44061010D03*
D19*
%TO.P,U2,33,VPP*%
%TO.N,Board_0-/VPP*%
X20324348Y-41712826D03*
X21550000Y-40487175D03*
X20937175Y-41100000D03*
X21550000Y-39261522D03*
X20324348Y-40487174D03*
X19711522Y-41100000D03*
X21550000Y-42938478D03*
X23388478Y-41100000D03*
D20*
X21550000Y-41100000D03*
D19*
X22775652Y-41712826D03*
X22775652Y-40487174D03*
X22162826Y-39874348D03*
X22162825Y-41100000D03*
X22162826Y-42325652D03*
X20937174Y-42325652D03*
X20937174Y-39874348D03*
X21550000Y-41712825D03*
%TD*%
D11*
%TO.P,TP1,1,1*%
%TO.N,Board_1-/VDD*%
X54583332Y-33900000D03*
%TD*%
D13*
%TO.P,R1,1*%
%TO.N,Board_1-/VBST*%
X42775000Y-26300000D03*
%TO.P,R1,2*%
%TO.N,Board_1-Net-(R1-Pad2)*%
X44425000Y-26300000D03*
%TD*%
D12*
%TO.P,C5,1*%
%TO.N,Board_0-/VDD*%
X13950000Y-30575000D03*
%TO.P,C5,2*%
%TO.N,Board_0-GND*%
X13950000Y-29025000D03*
%TD*%
D17*
%TO.P,U2,1,HVout12*%
%TO.N,Board_1-/reed15*%
X53686136Y-44061010D03*
%TO.P,U2,2,HVout11*%
%TO.N,Board_1-/reed16*%
X54039689Y-43707456D03*
%TO.P,U2,3,HVout10*%
%TO.N,Board_1-/reed17*%
X54393243Y-43353903D03*
%TO.P,U2,4,HVout9*%
%TO.N,Board_1-/reed18*%
X54746796Y-43000349D03*
%TO.P,U2,5,HVout8*%
%TO.N,Board_1-/reed19*%
X55100349Y-42646796D03*
%TO.P,U2,6,HVout7*%
%TO.N,Board_1-/reed20*%
X55453903Y-42293243D03*
%TO.P,U2,7,HVout6*%
%TO.N,Board_1-/PZT_Common*%
X55807456Y-41939689D03*
%TO.P,U2,8,HVout5*%
X56161010Y-41586136D03*
D18*
%TO.P,U2,9,HVout4*%
X56161010Y-40613864D03*
%TO.P,U2,10,HVout3*%
X55807456Y-40260311D03*
%TO.P,U2,11,HVout2*%
X55453903Y-39906757D03*
%TO.P,U2,12,HVout1*%
X55100349Y-39553204D03*
%TO.P,U2,13,NC*%
%TO.N,Board_1-unconnected-(U2-Pad13)*%
X54746796Y-39199651D03*
%TO.P,U2,14,VPP*%
%TO.N,Board_1-/VPP*%
X54393243Y-38846097D03*
%TO.P,U2,15,GND*%
%TO.N,Board_1-GND*%
X54039689Y-38492544D03*
%TO.P,U2,16,NC*%
%TO.N,Board_1-unconnected-(U2-Pad16)*%
X53686136Y-38138990D03*
D17*
%TO.P,U2,17,DIN*%
%TO.N,Board_1-/DIN*%
X52713864Y-38138990D03*
%TO.P,U2,18,NC*%
%TO.N,Board_1-unconnected-(U2-Pad18)*%
X52360311Y-38492544D03*
%TO.P,U2,19,CLK*%
%TO.N,Board_1-/CLK*%
X52006757Y-38846097D03*
%TO.P,U2,20,VDD*%
%TO.N,Board_1-/VDD*%
X51653204Y-39199651D03*
%TO.P,U2,21,~POL~*%
%TO.N,Board_1-/POL*%
X51299651Y-39553204D03*
%TO.P,U2,22,~LE~*%
%TO.N,Board_1-/LE*%
X50946097Y-39906757D03*
%TO.P,U2,23,NC*%
%TO.N,Board_1-unconnected-(U2-Pad23)*%
X50592544Y-40260311D03*
%TO.P,U2,24,DOUT*%
%TO.N,Board_1-Net-(U1-Pad17)*%
X50238990Y-40613864D03*
D18*
%TO.P,U2,25,NC*%
%TO.N,Board_1-unconnected-(U2-Pad25)*%
X50238990Y-41586136D03*
%TO.P,U2,26,VBIAS*%
%TO.N,Board_1-/VBIAS*%
X50592544Y-41939689D03*
%TO.P,U2,27,HVGND*%
%TO.N,Board_1-GND*%
X50946097Y-42293243D03*
%TO.P,U2,28,BP*%
%TO.N,Board_1-unconnected-(U2-Pad28)*%
X51299651Y-42646796D03*
%TO.P,U2,29,HVout16*%
%TO.N,Board_1-/reed11*%
X51653204Y-43000349D03*
%TO.P,U2,30,HVout15*%
%TO.N,Board_1-/reed12*%
X52006757Y-43353903D03*
%TO.P,U2,31,HVout14*%
%TO.N,Board_1-/reed13*%
X52360311Y-43707456D03*
%TO.P,U2,32,HVout13*%
%TO.N,Board_1-/reed14*%
X52713864Y-44061010D03*
D19*
%TO.P,U2,33,VPP*%
%TO.N,Board_1-/VPP*%
X51974348Y-40487174D03*
X53812826Y-42325652D03*
D20*
X53200000Y-41100000D03*
D19*
X53812826Y-39874348D03*
X53200000Y-39261522D03*
X53200000Y-41712825D03*
X54425652Y-40487174D03*
X52587174Y-42325652D03*
X53200000Y-40487175D03*
X53200000Y-42938478D03*
X55038478Y-41100000D03*
X51361522Y-41100000D03*
X52587174Y-39874348D03*
X52587175Y-41100000D03*
X53812825Y-41100000D03*
X51974348Y-41712826D03*
X54425652Y-41712826D03*
%TD*%
D10*
%TO.P,TP14,1,1*%
%TO.N,Board_1-/LE*%
X34916666Y-15900000D03*
%TD*%
D24*
%TO.P,D1,1,K*%
%TO.N,Board_0-/VPP*%
X15850000Y-43500000D03*
%TO.P,D1,2,A*%
%TO.N,Board_0-/VDD*%
X15850000Y-40700000D03*
%TD*%
D11*
%TO.P,TP4,1,1*%
%TO.N,Board_2-/VBST*%
X86200000Y-29600000D03*
%TD*%
D10*
%TO.P,TP12,1,1*%
%TO.N,Board_1-/CLK*%
X34949998Y-11700000D03*
%TD*%
D25*
%TO.P,U1,1,HVout12*%
%TO.N,Board_1-/PZT_Common*%
X38638990Y-41586136D03*
%TO.P,U1,2,HVout11*%
X38992544Y-41939689D03*
%TO.P,U1,3,HVout10*%
%TO.N,Board_1-/reed1*%
X39346097Y-42293243D03*
%TO.P,U1,4,HVout9*%
%TO.N,Board_1-/reed2*%
X39699651Y-42646796D03*
%TO.P,U1,5,HVout8*%
%TO.N,Board_1-/reed3*%
X40053204Y-43000349D03*
%TO.P,U1,6,HVout7*%
%TO.N,Board_1-/reed4*%
X40406757Y-43353903D03*
%TO.P,U1,7,HVout6*%
%TO.N,Board_1-/reed5*%
X40760311Y-43707456D03*
%TO.P,U1,8,HVout5*%
%TO.N,Board_1-/reed6*%
X41113864Y-44061010D03*
D26*
%TO.P,U1,9,HVout4*%
%TO.N,Board_1-/reed7*%
X42086136Y-44061010D03*
%TO.P,U1,10,HVout3*%
%TO.N,Board_1-/reed8*%
X42439689Y-43707456D03*
%TO.P,U1,11,HVout2*%
%TO.N,Board_1-/reed9*%
X42793243Y-43353903D03*
%TO.P,U1,12,HVout1*%
%TO.N,Board_1-/reed10*%
X43146796Y-43000349D03*
%TO.P,U1,13,NC*%
%TO.N,Board_1-unconnected-(U1-Pad13)*%
X43500349Y-42646796D03*
%TO.P,U1,14,VPP*%
%TO.N,Board_1-/VPP*%
X43853903Y-42293243D03*
%TO.P,U1,15,GND*%
%TO.N,Board_1-GND*%
X44207456Y-41939689D03*
%TO.P,U1,16,NC*%
%TO.N,Board_1-unconnected-(U1-Pad16)*%
X44561010Y-41586136D03*
D25*
%TO.P,U1,17,DIN*%
%TO.N,Board_1-Net-(U1-Pad17)*%
X44561010Y-40613864D03*
%TO.P,U1,18,NC*%
%TO.N,Board_1-unconnected-(U1-Pad18)*%
X44207456Y-40260311D03*
%TO.P,U1,19,CLK*%
%TO.N,Board_1-/CLK*%
X43853903Y-39906757D03*
%TO.P,U1,20,VDD*%
%TO.N,Board_1-/VDD*%
X43500349Y-39553204D03*
%TO.P,U1,21,~POL~*%
%TO.N,Board_1-/POL*%
X43146796Y-39199651D03*
%TO.P,U1,22,~LE~*%
%TO.N,Board_1-/LE*%
X42793243Y-38846097D03*
%TO.P,U1,23,NC*%
%TO.N,Board_1-unconnected-(U1-Pad23)*%
X42439689Y-38492544D03*
%TO.P,U1,24,DOUT*%
%TO.N,Board_1-/DOUT*%
X42086136Y-38138990D03*
D26*
%TO.P,U1,25,NC*%
%TO.N,Board_1-unconnected-(U1-Pad25)*%
X41113864Y-38138990D03*
%TO.P,U1,26,VBIAS*%
%TO.N,Board_1-/VBIAS*%
X40760311Y-38492544D03*
%TO.P,U1,27,HVGND*%
%TO.N,Board_1-GND*%
X40406757Y-38846097D03*
%TO.P,U1,28,BP*%
%TO.N,Board_1-unconnected-(U1-Pad28)*%
X40053204Y-39199651D03*
%TO.P,U1,29,HVout16*%
%TO.N,Board_1-/PZT_Common*%
X39699651Y-39553204D03*
%TO.P,U1,30,HVout15*%
X39346097Y-39906757D03*
%TO.P,U1,31,HVout14*%
X38992544Y-40260311D03*
%TO.P,U1,32,HVout13*%
X38638990Y-40613864D03*
D19*
%TO.P,U1,33,VPP*%
%TO.N,Board_1-/VPP*%
X40987174Y-39874348D03*
X42825652Y-41712826D03*
X41600000Y-39261522D03*
X41600000Y-40487175D03*
X40374348Y-40487174D03*
X42825652Y-40487174D03*
X40374348Y-41712826D03*
X41600000Y-42938478D03*
X42212826Y-42325652D03*
X43438478Y-41100000D03*
X40987174Y-42325652D03*
X42212826Y-39874348D03*
X40987175Y-41100000D03*
D27*
X41600000Y-41100000D03*
D19*
X42212825Y-41100000D03*
X41600000Y-41712825D03*
X39761522Y-41100000D03*
%TD*%
D11*
%TO.P,TP5,1,1*%
%TO.N,Board_1-/OUT-*%
X56200000Y-24700000D03*
%TD*%
%TO.P,TP7,1,1*%
%TO.N,Board_1-/DIN*%
X34900000Y-9600000D03*
%TD*%
%TO.P,TP2,1,1*%
%TO.N,Board_2-GND*%
X66591665Y-22300000D03*
%TD*%
D28*
%TO.P,REF\u002A\u002A,*%
%TO.N,*%
X7500000Y-2500000D03*
%TD*%
D11*
%TO.P,TP2,1,1*%
%TO.N,Board_1-GND*%
X34941665Y-22300000D03*
%TD*%
%TO.P,TP2,1,1*%
%TO.N,Board_2-GND*%
X86450000Y-17950000D03*
%TD*%
D13*
%TO.P,R4,1*%
%TO.N,Board_2-/VDD*%
X81125000Y-18800000D03*
%TO.P,R4,2*%
%TO.N,Board_2-/SDA*%
X82775000Y-18800000D03*
%TD*%
D11*
%TO.P,TP3,1,1*%
%TO.N,Board_0-/VPP*%
X22949998Y-31750000D03*
%TD*%
D10*
%TO.P,TP9,1,1*%
%TO.N,Board_2-/SDA*%
X86450000Y-13750000D03*
%TD*%
%TO.P,TP8,1,1*%
%TO.N,Board_2-/DOUT*%
X66574999Y-18000000D03*
%TD*%
D29*
%TO.P,C1,1*%
%TO.N,Board_1-/VDD*%
X44375000Y-22900000D03*
%TO.P,C1,2*%
%TO.N,Board_1-GND*%
X42825000Y-22900000D03*
%TD*%
D21*
%TO.P,U3,1,VPUMP*%
%TO.N,Board_1-Net-(C2-Pad1)*%
X46237500Y-24200000D03*
%TO.P,U3,2,VDD*%
%TO.N,Board_1-/VDD*%
X46237500Y-24700000D03*
%TO.P,U3,3,FB*%
%TO.N,Board_1-Net-(R1-Pad2)*%
X46237500Y-25200000D03*
%TO.P,U3,4,GND*%
%TO.N,Board_1-GND*%
X46237500Y-25700000D03*
%TO.P,U3,5,GND*%
X46237500Y-26200000D03*
D22*
%TO.P,U3,6,GND*%
X47200000Y-27162500D03*
%TO.P,U3,7,SW*%
%TO.N,Board_1-Net-(L1-Pad1)*%
X47700000Y-27162500D03*
%TO.P,U3,8,SW*%
X48200000Y-27162500D03*
%TO.P,U3,9,NC*%
%TO.N,Board_1-unconnected-(U3-Pad9)*%
X48700000Y-27162500D03*
%TO.P,U3,10,VBST*%
%TO.N,Board_1-/VBST*%
X49200000Y-27162500D03*
D21*
%TO.P,U3,11,VBST*%
X50162500Y-26200000D03*
%TO.P,U3,12,PVDD*%
X50162500Y-25700000D03*
%TO.P,U3,13,OUT+*%
%TO.N,Board_1-/VPP*%
X50162500Y-25200000D03*
%TO.P,U3,14,OUT-*%
%TO.N,Board_1-/OUT-*%
X50162500Y-24700000D03*
%TO.P,U3,15,REXT*%
%TO.N,Board_1-Net-(R3-Pad1)*%
X50162500Y-24200000D03*
D22*
%TO.P,U3,16,IN-*%
%TO.N,Board_1-GND*%
X49200000Y-23237500D03*
%TO.P,U3,17,IN+*%
%TO.N,Board_1-/AIN*%
X48700000Y-23237500D03*
%TO.P,U3,18,SCL*%
%TO.N,Board_1-/SCL*%
X48200000Y-23237500D03*
%TO.P,U3,19,SDA*%
%TO.N,Board_1-/SDA*%
X47700000Y-23237500D03*
%TO.P,U3,20,REG*%
%TO.N,Board_1-/EN*%
X47200000Y-23237500D03*
D19*
%TO.P,U3,21,GND*%
%TO.N,Board_1-GND*%
X49300000Y-26300000D03*
X48200000Y-24100000D03*
D23*
X48200000Y-25200000D03*
D19*
X47100000Y-25200000D03*
X48200000Y-26300000D03*
X49300000Y-24100000D03*
X49300000Y-25200000D03*
X47100000Y-24100000D03*
X48200000Y-25200000D03*
X47100000Y-26300000D03*
%TD*%
D25*
%TO.P,U1,1,HVout12*%
%TO.N,Board_0-/PZT_Common*%
X6988990Y-41586136D03*
%TO.P,U1,2,HVout11*%
X7342544Y-41939689D03*
%TO.P,U1,3,HVout10*%
%TO.N,Board_0-/reed1*%
X7696097Y-42293243D03*
%TO.P,U1,4,HVout9*%
%TO.N,Board_0-/reed2*%
X8049651Y-42646796D03*
%TO.P,U1,5,HVout8*%
%TO.N,Board_0-/reed3*%
X8403204Y-43000349D03*
%TO.P,U1,6,HVout7*%
%TO.N,Board_0-/reed4*%
X8756757Y-43353903D03*
%TO.P,U1,7,HVout6*%
%TO.N,Board_0-/reed5*%
X9110311Y-43707456D03*
%TO.P,U1,8,HVout5*%
%TO.N,Board_0-/reed6*%
X9463864Y-44061010D03*
D26*
%TO.P,U1,9,HVout4*%
%TO.N,Board_0-/reed7*%
X10436136Y-44061010D03*
%TO.P,U1,10,HVout3*%
%TO.N,Board_0-/reed8*%
X10789689Y-43707456D03*
%TO.P,U1,11,HVout2*%
%TO.N,Board_0-/reed9*%
X11143243Y-43353903D03*
%TO.P,U1,12,HVout1*%
%TO.N,Board_0-/reed10*%
X11496796Y-43000349D03*
%TO.P,U1,13,NC*%
%TO.N,Board_0-unconnected-(U1-Pad13)*%
X11850349Y-42646796D03*
%TO.P,U1,14,VPP*%
%TO.N,Board_0-/VPP*%
X12203903Y-42293243D03*
%TO.P,U1,15,GND*%
%TO.N,Board_0-GND*%
X12557456Y-41939689D03*
%TO.P,U1,16,NC*%
%TO.N,Board_0-unconnected-(U1-Pad16)*%
X12911010Y-41586136D03*
D25*
%TO.P,U1,17,DIN*%
%TO.N,Board_0-Net-(U1-Pad17)*%
X12911010Y-40613864D03*
%TO.P,U1,18,NC*%
%TO.N,Board_0-unconnected-(U1-Pad18)*%
X12557456Y-40260311D03*
%TO.P,U1,19,CLK*%
%TO.N,Board_0-/CLK*%
X12203903Y-39906757D03*
%TO.P,U1,20,VDD*%
%TO.N,Board_0-/VDD*%
X11850349Y-39553204D03*
%TO.P,U1,21,~POL~*%
%TO.N,Board_0-/POL*%
X11496796Y-39199651D03*
%TO.P,U1,22,~LE~*%
%TO.N,Board_0-/LE*%
X11143243Y-38846097D03*
%TO.P,U1,23,NC*%
%TO.N,Board_0-unconnected-(U1-Pad23)*%
X10789689Y-38492544D03*
%TO.P,U1,24,DOUT*%
%TO.N,Board_0-/DOUT*%
X10436136Y-38138990D03*
D26*
%TO.P,U1,25,NC*%
%TO.N,Board_0-unconnected-(U1-Pad25)*%
X9463864Y-38138990D03*
%TO.P,U1,26,VBIAS*%
%TO.N,Board_0-/VBIAS*%
X9110311Y-38492544D03*
%TO.P,U1,27,HVGND*%
%TO.N,Board_0-GND*%
X8756757Y-38846097D03*
%TO.P,U1,28,BP*%
%TO.N,Board_0-unconnected-(U1-Pad28)*%
X8403204Y-39199651D03*
%TO.P,U1,29,HVout16*%
%TO.N,Board_0-/PZT_Common*%
X8049651Y-39553204D03*
%TO.P,U1,30,HVout15*%
X7696097Y-39906757D03*
%TO.P,U1,31,HVout14*%
X7342544Y-40260311D03*
%TO.P,U1,32,HVout13*%
X6988990Y-40613864D03*
D19*
%TO.P,U1,33,VPP*%
%TO.N,Board_0-/VPP*%
X9950000Y-40487175D03*
X10562826Y-42325652D03*
X10562825Y-41100000D03*
X8724348Y-41712826D03*
X9337174Y-39874348D03*
X11788478Y-41100000D03*
X11175652Y-41712826D03*
X8111522Y-41100000D03*
X9337175Y-41100000D03*
X9950000Y-42938478D03*
X9950000Y-41712825D03*
X8724348Y-40487174D03*
X9337174Y-42325652D03*
X9950000Y-39261522D03*
X10562826Y-39874348D03*
D27*
X9950000Y-41100000D03*
D19*
X11175652Y-40487174D03*
%TD*%
D14*
%TO.P,R3,1*%
%TO.N,Board_2-Net-(R3-Pad1)*%
X83750000Y-23925000D03*
%TO.P,R3,2*%
%TO.N,Board_2-GND*%
X83750000Y-22275000D03*
%TD*%
D11*
%TO.P,TP2,1,1*%
%TO.N,Board_1-GND*%
X54800000Y-17950000D03*
%TD*%
%TO.P,TP2,1,1*%
%TO.N,Board_0-GND*%
X3291665Y-22300000D03*
%TD*%
%TO.P,TP6,1,1*%
%TO.N,Board_1-/AIN*%
X54800000Y-9550000D03*
%TD*%
D15*
%TO.P,J1,1,Pin_1*%
%TO.N,Board_0-GND*%
X12500000Y-12700000D03*
%TO.P,J1,2,Pin_2*%
%TO.N,Board_0-/VBIAS*%
X13000000Y-12700000D03*
%TO.P,J1,3,Pin_3*%
%TO.N,Board_0-/DOUT*%
X13500000Y-12700000D03*
%TO.P,J1,4,Pin_4*%
%TO.N,Board_0-/LE*%
X14000000Y-12700000D03*
%TO.P,J1,5,Pin_5*%
%TO.N,Board_0-/POL*%
X14500000Y-12700000D03*
%TO.P,J1,6,Pin_6*%
%TO.N,Board_0-/CLK*%
X15000000Y-12700000D03*
%TO.P,J1,7,Pin_7*%
%TO.N,Board_0-/DIN*%
X15500000Y-12700000D03*
%TO.P,J1,8,Pin_8*%
%TO.N,Board_0-/AIN*%
X16000000Y-12700000D03*
%TO.P,J1,9,Pin_9*%
%TO.N,Board_0-/SCL*%
X16500000Y-12700000D03*
%TO.P,J1,10,Pin_10*%
%TO.N,Board_0-/SDA*%
X17000000Y-12700000D03*
%TO.P,J1,11,Pin_11*%
%TO.N,Board_0-/REG*%
X17500000Y-12700000D03*
%TO.P,J1,12,Pin_12*%
%TO.N,Board_0-/VDD*%
X18000000Y-12700000D03*
D16*
%TO.P,J1,MP*%
%TO.N,N/C*%
X11500000Y-10200000D03*
X19000000Y-10200000D03*
%TD*%
D12*
%TO.P,C5,1*%
%TO.N,Board_1-/VDD*%
X45600000Y-30575000D03*
%TO.P,C5,2*%
%TO.N,Board_1-GND*%
X45600000Y-29025000D03*
%TD*%
%TO.P,C3,1*%
%TO.N,Board_2-/EN*%
X78050000Y-21375000D03*
%TO.P,C3,2*%
%TO.N,Board_2-GND*%
X78050000Y-19825000D03*
%TD*%
D11*
%TO.P,TP1,1,1*%
%TO.N,Board_0-/VDD*%
X22933332Y-33900000D03*
%TD*%
D30*
%TO.P,C4,1*%
%TO.N,Board_0-/VBST*%
X20550000Y-26450000D03*
%TO.P,C4,2*%
%TO.N,Board_0-GND*%
X20550000Y-28350000D03*
%TD*%
D31*
%TO.P,R5,1*%
%TO.N,Board_0-/SCL*%
X19475000Y-17200000D03*
%TO.P,R5,2*%
%TO.N,Board_0-/VDD*%
X17825000Y-17200000D03*
%TD*%
D11*
%TO.P,TP5,1,1*%
%TO.N,Board_2-/OUT-*%
X87850000Y-24700000D03*
%TD*%
D32*
%TO.P,R6,1*%
%TO.N,Board_1-/REG*%
X47700000Y-16575000D03*
%TO.P,R6,2*%
%TO.N,Board_1-/EN*%
X47700000Y-18225000D03*
%TD*%
%TO.P,R6,1*%
%TO.N,Board_2-/REG*%
X79350000Y-16575000D03*
%TO.P,R6,2*%
%TO.N,Board_2-/EN*%
X79350000Y-18225000D03*
%TD*%
D10*
%TO.P,TP14,1,1*%
%TO.N,Board_2-/LE*%
X66566666Y-15900000D03*
%TD*%
%TO.P,TP15,1,1*%
%TO.N,Board_2-/VBIAS*%
X66583332Y-20150000D03*
%TD*%
D13*
%TO.P,R2,1*%
%TO.N,Board_1-GND*%
X42775000Y-24700000D03*
%TO.P,R2,2*%
%TO.N,Board_1-Net-(R1-Pad2)*%
X44425000Y-24700000D03*
%TD*%
D11*
%TO.P,TP4,1,1*%
%TO.N,Board_1-/VBST*%
X54550000Y-29600000D03*
%TD*%
D29*
%TO.P,C1,1*%
%TO.N,Board_2-/VDD*%
X76025000Y-22900000D03*
%TO.P,C1,2*%
%TO.N,Board_2-GND*%
X74475000Y-22900000D03*
%TD*%
D10*
%TO.P,TP12,1,1*%
%TO.N,Board_0-/CLK*%
X3299998Y-11700000D03*
%TD*%
%TO.P,TP10,1,1*%
%TO.N,Board_2-/SCL*%
X86450000Y-11650000D03*
%TD*%
D13*
%TO.P,R4,1*%
%TO.N,Board_1-/VDD*%
X49475000Y-18800000D03*
%TO.P,R4,2*%
%TO.N,Board_1-/SDA*%
X51125000Y-18800000D03*
%TD*%
D33*
%TO.P,piezo1,1,Pin_1*%
%TO.N,Board_1-/reed1*%
X37940000Y-51450000D03*
%TO.P,piezo1,2,Pin_2*%
%TO.N,Board_1-/reed2*%
X38940000Y-51450000D03*
%TO.P,piezo1,3,Pin_3*%
%TO.N,Board_1-/reed3*%
X39940000Y-51450000D03*
%TO.P,piezo1,4,Pin_4*%
%TO.N,Board_1-/reed4*%
X40940000Y-51450000D03*
%TO.P,piezo1,5,Pin_5*%
%TO.N,Board_1-/reed5*%
X41940000Y-51450000D03*
%TO.P,piezo1,6,Pin_6*%
%TO.N,Board_1-/reed6*%
X42940000Y-51450000D03*
%TO.P,piezo1,7,Pin_7*%
%TO.N,Board_1-/reed7*%
X43940000Y-51450000D03*
%TO.P,piezo1,8,Pin_8*%
%TO.N,Board_1-/reed8*%
X44940000Y-51450000D03*
%TO.P,piezo1,9,Pin_9*%
%TO.N,Board_1-/reed9*%
X45940000Y-51450000D03*
%TO.P,piezo1,10,Pin_10*%
%TO.N,Board_1-/reed10*%
X46940000Y-51450000D03*
%TO.P,piezo1,11,Pin_11*%
%TO.N,Board_1-/reed11*%
X47940000Y-51450000D03*
%TO.P,piezo1,12,Pin_12*%
%TO.N,Board_1-/reed12*%
X48940000Y-51450000D03*
%TO.P,piezo1,13,Pin_13*%
%TO.N,Board_1-/reed13*%
X49940000Y-51450000D03*
%TO.P,piezo1,14,Pin_14*%
%TO.N,Board_1-/reed14*%
X50940000Y-51450000D03*
%TO.P,piezo1,15,Pin_15*%
%TO.N,Board_1-/reed15*%
X51940000Y-51450000D03*
%TO.P,piezo1,16,Pin_16*%
%TO.N,Board_1-/reed16*%
X52940000Y-51450000D03*
%TO.P,piezo1,17,Pin_17*%
%TO.N,Board_1-/reed17*%
X53940000Y-51450000D03*
%TO.P,piezo1,18,Pin_18*%
%TO.N,Board_1-/reed18*%
X54940000Y-51450000D03*
%TO.P,piezo1,19,Pin_19*%
%TO.N,Board_1-/reed19*%
X55940000Y-51450000D03*
%TO.P,piezo1,20,Pin_20*%
%TO.N,Board_1-/reed20*%
X56940000Y-51450000D03*
D34*
%TO.P,piezo1,21,Pin_21*%
%TO.N,Board_1-/PZT_Common*%
X60440000Y-58800000D03*
D35*
X53940000Y-59650000D03*
X42940000Y-59650000D03*
X38940000Y-59650000D03*
X47940000Y-59650000D03*
X50940000Y-59650000D03*
X43940000Y-59650000D03*
X39940000Y-59650000D03*
X55940000Y-59650000D03*
X49940000Y-59650000D03*
D34*
X34440000Y-58800000D03*
D35*
X37940000Y-59650000D03*
X41940000Y-59650000D03*
X45940000Y-59650000D03*
X52940000Y-59650000D03*
X46940000Y-59650000D03*
X40940000Y-59650000D03*
X54940000Y-59650000D03*
X56940000Y-59650000D03*
X51940000Y-59650000D03*
X48940000Y-59650000D03*
X44940000Y-59650000D03*
D36*
%TO.P,piezo1,22,Pin_22*%
%TO.N,Board_1-/fill*%
X52940000Y-74000000D03*
X43940000Y-87850000D03*
X54940000Y-92500000D03*
X46940000Y-92500000D03*
X47940000Y-78600000D03*
X44940000Y-83250000D03*
X46940000Y-83250000D03*
X48940000Y-83250000D03*
X45940000Y-87850000D03*
X55940000Y-69350000D03*
X55940000Y-78600000D03*
X50940000Y-92500000D03*
X52940000Y-92500000D03*
X47940000Y-69350000D03*
X40940000Y-92500000D03*
X51940000Y-87850000D03*
X39940000Y-78600000D03*
X50940000Y-83250000D03*
X40940000Y-74000000D03*
X56940000Y-83250000D03*
X54940000Y-83250000D03*
X38940000Y-92500000D03*
X38940000Y-83250000D03*
X41940000Y-78600000D03*
X42940000Y-74000000D03*
X42940000Y-92500000D03*
X54940000Y-74000000D03*
X40940000Y-83250000D03*
X50940000Y-74000000D03*
X41940000Y-69350000D03*
X47940000Y-87850000D03*
X49940000Y-87850000D03*
X43940000Y-78600000D03*
X38940000Y-74000000D03*
X53940000Y-69350000D03*
X44940000Y-92500000D03*
X53940000Y-87850000D03*
X45940000Y-78600000D03*
X48940000Y-74000000D03*
X52940000Y-83250000D03*
X46940000Y-74000000D03*
X48940000Y-92500000D03*
X56940000Y-74000000D03*
X45940000Y-69350000D03*
X37940000Y-78600000D03*
X37940000Y-87850000D03*
X43940000Y-69350000D03*
X42940000Y-83250000D03*
X51940000Y-69350000D03*
X39940000Y-87850000D03*
X56940000Y-92500000D03*
X49940000Y-78600000D03*
X55940000Y-87850000D03*
X37940000Y-69350000D03*
X49940000Y-69350000D03*
X51940000Y-78600000D03*
X53940000Y-78600000D03*
X44940000Y-74000000D03*
X41940000Y-87850000D03*
X39940000Y-69350000D03*
%TD*%
D12*
%TO.P,C2,1*%
%TO.N,Board_2-Net-(C2-Pad1)*%
X76350000Y-21375000D03*
%TO.P,C2,2*%
%TO.N,Board_2-GND*%
X76350000Y-19825000D03*
%TD*%
D30*
%TO.P,C4,1*%
%TO.N,Board_1-/VBST*%
X52200000Y-26450000D03*
%TO.P,C4,2*%
%TO.N,Board_1-GND*%
X52200000Y-28350000D03*
%TD*%
D29*
%TO.P,C1,1*%
%TO.N,Board_0-/VDD*%
X12725000Y-22900000D03*
%TO.P,C1,2*%
%TO.N,Board_0-GND*%
X11175000Y-22900000D03*
%TD*%
D33*
%TO.P,piezo1,1,Pin_1*%
%TO.N,Board_2-/reed1*%
X69590000Y-51450000D03*
%TO.P,piezo1,2,Pin_2*%
%TO.N,Board_2-/reed2*%
X70590000Y-51450000D03*
%TO.P,piezo1,3,Pin_3*%
%TO.N,Board_2-/reed3*%
X71590000Y-51450000D03*
%TO.P,piezo1,4,Pin_4*%
%TO.N,Board_2-/reed4*%
X72590000Y-51450000D03*
%TO.P,piezo1,5,Pin_5*%
%TO.N,Board_2-/reed5*%
X73590000Y-51450000D03*
%TO.P,piezo1,6,Pin_6*%
%TO.N,Board_2-/reed6*%
X74590000Y-51450000D03*
%TO.P,piezo1,7,Pin_7*%
%TO.N,Board_2-/reed7*%
X75590000Y-51450000D03*
%TO.P,piezo1,8,Pin_8*%
%TO.N,Board_2-/reed8*%
X76590000Y-51450000D03*
%TO.P,piezo1,9,Pin_9*%
%TO.N,Board_2-/reed9*%
X77590000Y-51450000D03*
%TO.P,piezo1,10,Pin_10*%
%TO.N,Board_2-/reed10*%
X78590000Y-51450000D03*
%TO.P,piezo1,11,Pin_11*%
%TO.N,Board_2-/reed11*%
X79590000Y-51450000D03*
%TO.P,piezo1,12,Pin_12*%
%TO.N,Board_2-/reed12*%
X80590000Y-51450000D03*
%TO.P,piezo1,13,Pin_13*%
%TO.N,Board_2-/reed13*%
X81590000Y-51450000D03*
%TO.P,piezo1,14,Pin_14*%
%TO.N,Board_2-/reed14*%
X82590000Y-51450000D03*
%TO.P,piezo1,15,Pin_15*%
%TO.N,Board_2-/reed15*%
X83590000Y-51450000D03*
%TO.P,piezo1,16,Pin_16*%
%TO.N,Board_2-/reed16*%
X84590000Y-51450000D03*
%TO.P,piezo1,17,Pin_17*%
%TO.N,Board_2-/reed17*%
X85590000Y-51450000D03*
%TO.P,piezo1,18,Pin_18*%
%TO.N,Board_2-/reed18*%
X86590000Y-51450000D03*
%TO.P,piezo1,19,Pin_19*%
%TO.N,Board_2-/reed19*%
X87590000Y-51450000D03*
%TO.P,piezo1,20,Pin_20*%
%TO.N,Board_2-/reed20*%
X88590000Y-51450000D03*
D35*
%TO.P,piezo1,21,Pin_21*%
%TO.N,Board_2-/PZT_Common*%
X87590000Y-59650000D03*
X85590000Y-59650000D03*
X71590000Y-59650000D03*
X81590000Y-59650000D03*
X86590000Y-59650000D03*
X80590000Y-59650000D03*
X82590000Y-59650000D03*
D34*
X92090000Y-58800000D03*
D35*
X70590000Y-59650000D03*
X79590000Y-59650000D03*
X73590000Y-59650000D03*
X83590000Y-59650000D03*
X76590000Y-59650000D03*
X75590000Y-59650000D03*
D34*
X66090000Y-58800000D03*
D35*
X78590000Y-59650000D03*
X69590000Y-59650000D03*
X77590000Y-59650000D03*
X74590000Y-59650000D03*
X72590000Y-59650000D03*
X88590000Y-59650000D03*
X84590000Y-59650000D03*
D36*
%TO.P,piezo1,22,Pin_22*%
%TO.N,Board_2-/fill*%
X84590000Y-83250000D03*
X87590000Y-78600000D03*
X74590000Y-92500000D03*
X80590000Y-92500000D03*
X84590000Y-92500000D03*
X71590000Y-78600000D03*
X77590000Y-69350000D03*
X74590000Y-83250000D03*
X85590000Y-87850000D03*
X69590000Y-87850000D03*
X69590000Y-69350000D03*
X87590000Y-69350000D03*
X78590000Y-83250000D03*
X75590000Y-87850000D03*
X81590000Y-78600000D03*
X72590000Y-83250000D03*
X73590000Y-69350000D03*
X75590000Y-69350000D03*
X70590000Y-83250000D03*
X76590000Y-92500000D03*
X79590000Y-78600000D03*
X83590000Y-69350000D03*
X76590000Y-83250000D03*
X88590000Y-92500000D03*
X72590000Y-92500000D03*
X86590000Y-83250000D03*
X75590000Y-78600000D03*
X82590000Y-74000000D03*
X70590000Y-92500000D03*
X78590000Y-92500000D03*
X79590000Y-87850000D03*
X76590000Y-74000000D03*
X86590000Y-74000000D03*
X83590000Y-78600000D03*
X73590000Y-87850000D03*
X72590000Y-74000000D03*
X77590000Y-87850000D03*
X82590000Y-92500000D03*
X88590000Y-74000000D03*
X81590000Y-69350000D03*
X74590000Y-74000000D03*
X80590000Y-83250000D03*
X78590000Y-74000000D03*
X80590000Y-74000000D03*
X69590000Y-78600000D03*
X87590000Y-87850000D03*
X85590000Y-78600000D03*
X71590000Y-87850000D03*
X84590000Y-74000000D03*
X81590000Y-87850000D03*
X77590000Y-78600000D03*
X82590000Y-83250000D03*
X83590000Y-87850000D03*
X71590000Y-69350000D03*
X73590000Y-78600000D03*
X86590000Y-92500000D03*
X70590000Y-74000000D03*
X88590000Y-83250000D03*
X79590000Y-69350000D03*
X85590000Y-69350000D03*
%TD*%
D12*
%TO.P,C3,1*%
%TO.N,Board_0-/EN*%
X14750000Y-21375000D03*
%TO.P,C3,2*%
%TO.N,Board_0-GND*%
X14750000Y-19825000D03*
%TD*%
D28*
%TO.P,REF\u002A\u002A,*%
%TO.N,*%
X7500000Y-102700000D03*
%TD*%
D31*
%TO.P,R5,1*%
%TO.N,Board_2-/SCL*%
X82775000Y-17200000D03*
%TO.P,R5,2*%
%TO.N,Board_2-/VDD*%
X81125000Y-17200000D03*
%TD*%
D10*
%TO.P,TP8,1,1*%
%TO.N,Board_1-/DOUT*%
X34924999Y-18000000D03*
%TD*%
%TO.P,TP11,1,1*%
%TO.N,Board_2-/EN*%
X86450000Y-15850000D03*
%TD*%
D14*
%TO.P,R3,1*%
%TO.N,Board_1-Net-(R3-Pad1)*%
X52100000Y-23925000D03*
%TO.P,R3,2*%
%TO.N,Board_1-GND*%
X52100000Y-22275000D03*
%TD*%
D13*
%TO.P,R1,1*%
%TO.N,Board_2-/VBST*%
X74425000Y-26300000D03*
%TO.P,R1,2*%
%TO.N,Board_2-Net-(R1-Pad2)*%
X76075000Y-26300000D03*
%TD*%
D10*
%TO.P,TP14,1,1*%
%TO.N,Board_0-/LE*%
X3266666Y-15900000D03*
%TD*%
D11*
%TO.P,TP3,1,1*%
%TO.N,Board_1-/VPP*%
X54599998Y-31750000D03*
%TD*%
D24*
%TO.P,D1,1,K*%
%TO.N,Board_2-/VPP*%
X79150000Y-43500000D03*
%TO.P,D1,2,A*%
%TO.N,Board_2-/VDD*%
X79150000Y-40700000D03*
%TD*%
D37*
%TO.P,L1,1,1*%
%TO.N,Board_1-Net-(L1-Pad1)*%
X48700000Y-28800000D03*
%TO.P,L1,2,2*%
%TO.N,Board_1-/VDD*%
X48700000Y-30900000D03*
%TD*%
D10*
%TO.P,TP9,1,1*%
%TO.N,Board_1-/SDA*%
X54800000Y-13750000D03*
%TD*%
D21*
%TO.P,U3,1,VPUMP*%
%TO.N,Board_2-Net-(C2-Pad1)*%
X77887500Y-24200000D03*
%TO.P,U3,2,VDD*%
%TO.N,Board_2-/VDD*%
X77887500Y-24700000D03*
%TO.P,U3,3,FB*%
%TO.N,Board_2-Net-(R1-Pad2)*%
X77887500Y-25200000D03*
%TO.P,U3,4,GND*%
%TO.N,Board_2-GND*%
X77887500Y-25700000D03*
%TO.P,U3,5,GND*%
X77887500Y-26200000D03*
D22*
%TO.P,U3,6,GND*%
X78850000Y-27162500D03*
%TO.P,U3,7,SW*%
%TO.N,Board_2-Net-(L1-Pad1)*%
X79350000Y-27162500D03*
%TO.P,U3,8,SW*%
X79850000Y-27162500D03*
%TO.P,U3,9,NC*%
%TO.N,Board_2-unconnected-(U3-Pad9)*%
X80350000Y-27162500D03*
%TO.P,U3,10,VBST*%
%TO.N,Board_2-/VBST*%
X80850000Y-27162500D03*
D21*
%TO.P,U3,11,VBST*%
X81812500Y-26200000D03*
%TO.P,U3,12,PVDD*%
X81812500Y-25700000D03*
%TO.P,U3,13,OUT+*%
%TO.N,Board_2-/VPP*%
X81812500Y-25200000D03*
%TO.P,U3,14,OUT-*%
%TO.N,Board_2-/OUT-*%
X81812500Y-24700000D03*
%TO.P,U3,15,REXT*%
%TO.N,Board_2-Net-(R3-Pad1)*%
X81812500Y-24200000D03*
D22*
%TO.P,U3,16,IN-*%
%TO.N,Board_2-GND*%
X80850000Y-23237500D03*
%TO.P,U3,17,IN+*%
%TO.N,Board_2-/AIN*%
X80350000Y-23237500D03*
%TO.P,U3,18,SCL*%
%TO.N,Board_2-/SCL*%
X79850000Y-23237500D03*
%TO.P,U3,19,SDA*%
%TO.N,Board_2-/SDA*%
X79350000Y-23237500D03*
%TO.P,U3,20,REG*%
%TO.N,Board_2-/EN*%
X78850000Y-23237500D03*
D19*
%TO.P,U3,21,GND*%
%TO.N,Board_2-GND*%
X79850000Y-25200000D03*
D23*
X79850000Y-25200000D03*
D19*
X79850000Y-24100000D03*
X78750000Y-25200000D03*
X80950000Y-24100000D03*
X80950000Y-26300000D03*
X78750000Y-24100000D03*
X79850000Y-26300000D03*
X78750000Y-26300000D03*
X80950000Y-25200000D03*
%TD*%
D28*
%TO.P,REF\u002A\u002A,*%
%TO.N,*%
X87450000Y-2500000D03*
%TD*%
D11*
%TO.P,TP2,1,1*%
%TO.N,Board_1-GND*%
X54566666Y-36050000D03*
%TD*%
%TO.P,TP7,1,1*%
%TO.N,Board_0-/DIN*%
X3250000Y-9600000D03*
%TD*%
D10*
%TO.P,TP8,1,1*%
%TO.N,Board_0-/DOUT*%
X3274999Y-18000000D03*
%TD*%
D11*
%TO.P,TP1,1,1*%
%TO.N,Board_2-/VDD*%
X86233332Y-33900000D03*
%TD*%
D10*
%TO.P,TP10,1,1*%
%TO.N,Board_0-/SCL*%
X23150000Y-11650000D03*
%TD*%
D11*
%TO.P,TP4,1,1*%
%TO.N,Board_0-/VBST*%
X22900000Y-29600000D03*
%TD*%
%TO.P,TP7,1,1*%
%TO.N,Board_2-/DIN*%
X66550000Y-9600000D03*
%TD*%
D15*
%TO.P,J1,1,Pin_1*%
%TO.N,Board_1-GND*%
X44150000Y-12700000D03*
%TO.P,J1,2,Pin_2*%
%TO.N,Board_1-/VBIAS*%
X44650000Y-12700000D03*
%TO.P,J1,3,Pin_3*%
%TO.N,Board_1-/DOUT*%
X45150000Y-12700000D03*
%TO.P,J1,4,Pin_4*%
%TO.N,Board_1-/LE*%
X45650000Y-12700000D03*
%TO.P,J1,5,Pin_5*%
%TO.N,Board_1-/POL*%
X46150000Y-12700000D03*
%TO.P,J1,6,Pin_6*%
%TO.N,Board_1-/CLK*%
X46650000Y-12700000D03*
%TO.P,J1,7,Pin_7*%
%TO.N,Board_1-/DIN*%
X47150000Y-12700000D03*
%TO.P,J1,8,Pin_8*%
%TO.N,Board_1-/AIN*%
X47650000Y-12700000D03*
%TO.P,J1,9,Pin_9*%
%TO.N,Board_1-/SCL*%
X48150000Y-12700000D03*
%TO.P,J1,10,Pin_10*%
%TO.N,Board_1-/SDA*%
X48650000Y-12700000D03*
%TO.P,J1,11,Pin_11*%
%TO.N,Board_1-/REG*%
X49150000Y-12700000D03*
%TO.P,J1,12,Pin_12*%
%TO.N,Board_1-/VDD*%
X49650000Y-12700000D03*
D16*
%TO.P,J1,MP*%
%TO.N,N/C*%
X43150000Y-10200000D03*
X50650000Y-10200000D03*
%TD*%
D10*
%TO.P,TP12,1,1*%
%TO.N,Board_2-/CLK*%
X66599998Y-11700000D03*
%TD*%
D12*
%TO.P,C2,1*%
%TO.N,Board_0-Net-(C2-Pad1)*%
X13050000Y-21375000D03*
%TO.P,C2,2*%
%TO.N,Board_0-GND*%
X13050000Y-19825000D03*
%TD*%
D31*
%TO.P,R5,1*%
%TO.N,Board_1-/SCL*%
X51125000Y-17200000D03*
%TO.P,R5,2*%
%TO.N,Board_1-/VDD*%
X49475000Y-17200000D03*
%TD*%
D10*
%TO.P,TP13,1,1*%
%TO.N,Board_0-/POL*%
X3258333Y-13800000D03*
%TD*%
D24*
%TO.P,D1,1,K*%
%TO.N,Board_1-/VPP*%
X47500000Y-43500000D03*
%TO.P,D1,2,A*%
%TO.N,Board_1-/VDD*%
X47500000Y-40700000D03*
%TD*%
D12*
%TO.P,C2,1*%
%TO.N,Board_1-Net-(C2-Pad1)*%
X44700000Y-21375000D03*
%TO.P,C2,2*%
%TO.N,Board_1-GND*%
X44700000Y-19825000D03*
%TD*%
D11*
%TO.P,TP3,1,1*%
%TO.N,Board_2-/VPP*%
X86249998Y-31750000D03*
%TD*%
D37*
%TO.P,L1,1,1*%
%TO.N,Board_0-Net-(L1-Pad1)*%
X17050000Y-28800000D03*
%TO.P,L1,2,2*%
%TO.N,Board_0-/VDD*%
X17050000Y-30900000D03*
%TD*%
D13*
%TO.P,R2,1*%
%TO.N,Board_2-GND*%
X74425000Y-24700000D03*
%TO.P,R2,2*%
%TO.N,Board_2-Net-(R1-Pad2)*%
X76075000Y-24700000D03*
%TD*%
D10*
%TO.P,TP15,1,1*%
%TO.N,Board_1-/VBIAS*%
X34933332Y-20150000D03*
%TD*%
D37*
%TO.P,L1,1,1*%
%TO.N,Board_2-Net-(L1-Pad1)*%
X80350000Y-28800000D03*
%TO.P,L1,2,2*%
%TO.N,Board_2-/VDD*%
X80350000Y-30900000D03*
%TD*%
D33*
%TO.P,piezo1,1,Pin_1*%
%TO.N,Board_0-/reed1*%
X6290000Y-51450000D03*
%TO.P,piezo1,2,Pin_2*%
%TO.N,Board_0-/reed2*%
X7290000Y-51450000D03*
%TO.P,piezo1,3,Pin_3*%
%TO.N,Board_0-/reed3*%
X8290000Y-51450000D03*
%TO.P,piezo1,4,Pin_4*%
%TO.N,Board_0-/reed4*%
X9290000Y-51450000D03*
%TO.P,piezo1,5,Pin_5*%
%TO.N,Board_0-/reed5*%
X10290000Y-51450000D03*
%TO.P,piezo1,6,Pin_6*%
%TO.N,Board_0-/reed6*%
X11290000Y-51450000D03*
%TO.P,piezo1,7,Pin_7*%
%TO.N,Board_0-/reed7*%
X12290000Y-51450000D03*
%TO.P,piezo1,8,Pin_8*%
%TO.N,Board_0-/reed8*%
X13290000Y-51450000D03*
%TO.P,piezo1,9,Pin_9*%
%TO.N,Board_0-/reed9*%
X14290000Y-51450000D03*
%TO.P,piezo1,10,Pin_10*%
%TO.N,Board_0-/reed10*%
X15290000Y-51450000D03*
%TO.P,piezo1,11,Pin_11*%
%TO.N,Board_0-/reed11*%
X16290000Y-51450000D03*
%TO.P,piezo1,12,Pin_12*%
%TO.N,Board_0-/reed12*%
X17290000Y-51450000D03*
%TO.P,piezo1,13,Pin_13*%
%TO.N,Board_0-/reed13*%
X18290000Y-51450000D03*
%TO.P,piezo1,14,Pin_14*%
%TO.N,Board_0-/reed14*%
X19290000Y-51450000D03*
%TO.P,piezo1,15,Pin_15*%
%TO.N,Board_0-/reed15*%
X20290000Y-51450000D03*
%TO.P,piezo1,16,Pin_16*%
%TO.N,Board_0-/reed16*%
X21290000Y-51450000D03*
%TO.P,piezo1,17,Pin_17*%
%TO.N,Board_0-/reed17*%
X22290000Y-51450000D03*
%TO.P,piezo1,18,Pin_18*%
%TO.N,Board_0-/reed18*%
X23290000Y-51450000D03*
%TO.P,piezo1,19,Pin_19*%
%TO.N,Board_0-/reed19*%
X24290000Y-51450000D03*
%TO.P,piezo1,20,Pin_20*%
%TO.N,Board_0-/reed20*%
X25290000Y-51450000D03*
D35*
%TO.P,piezo1,21,Pin_21*%
%TO.N,Board_0-/PZT_Common*%
X25290000Y-59650000D03*
D34*
X2790000Y-58800000D03*
D35*
X22290000Y-59650000D03*
X13290000Y-59650000D03*
X15290000Y-59650000D03*
X12290000Y-59650000D03*
X11290000Y-59650000D03*
X23290000Y-59650000D03*
D34*
X28790000Y-58800000D03*
D35*
X7290000Y-59650000D03*
X6290000Y-59650000D03*
X10290000Y-59650000D03*
X20290000Y-59650000D03*
X14290000Y-59650000D03*
X8290000Y-59650000D03*
X17290000Y-59650000D03*
X9290000Y-59650000D03*
X24290000Y-59650000D03*
X18290000Y-59650000D03*
X19290000Y-59650000D03*
X16290000Y-59650000D03*
X21290000Y-59650000D03*
D36*
%TO.P,piezo1,22,Pin_22*%
%TO.N,Board_0-/fill*%
X15290000Y-74000000D03*
X22290000Y-69350000D03*
X21290000Y-83250000D03*
X25290000Y-92500000D03*
X6290000Y-78600000D03*
X22290000Y-87850000D03*
X8290000Y-78600000D03*
X22290000Y-78600000D03*
X7290000Y-74000000D03*
X12290000Y-78600000D03*
X6290000Y-69350000D03*
X10290000Y-87850000D03*
X17290000Y-83250000D03*
X7290000Y-83250000D03*
X20290000Y-78600000D03*
X12290000Y-87850000D03*
X17290000Y-74000000D03*
X21290000Y-74000000D03*
X16290000Y-78600000D03*
X19290000Y-83250000D03*
X24290000Y-69350000D03*
X12290000Y-69350000D03*
X14290000Y-78600000D03*
X8290000Y-87850000D03*
X10290000Y-69350000D03*
X14290000Y-87850000D03*
X8290000Y-69350000D03*
X11290000Y-74000000D03*
X23290000Y-83250000D03*
X9290000Y-74000000D03*
X15290000Y-83250000D03*
X17290000Y-92500000D03*
X19290000Y-74000000D03*
X18290000Y-87850000D03*
X21290000Y-92500000D03*
X23290000Y-92500000D03*
X15290000Y-92500000D03*
X6290000Y-87850000D03*
X19290000Y-92500000D03*
X13290000Y-83250000D03*
X25290000Y-83250000D03*
X14290000Y-69350000D03*
X7290000Y-92500000D03*
X16290000Y-69350000D03*
X13290000Y-92500000D03*
X24290000Y-78600000D03*
X11290000Y-83250000D03*
X18290000Y-78600000D03*
X25290000Y-74000000D03*
X10290000Y-78600000D03*
X11290000Y-92500000D03*
X18290000Y-69350000D03*
X9290000Y-92500000D03*
X13290000Y-74000000D03*
X24290000Y-87850000D03*
X23290000Y-74000000D03*
X20290000Y-87850000D03*
X16290000Y-87850000D03*
X20290000Y-69350000D03*
X9290000Y-83250000D03*
%TD*%
D10*
%TO.P,TP11,1,1*%
%TO.N,Board_1-/EN*%
X54800000Y-15850000D03*
%TD*%
D32*
%TO.P,R6,1*%
%TO.N,Board_0-/REG*%
X16050000Y-16575000D03*
%TO.P,R6,2*%
%TO.N,Board_0-/EN*%
X16050000Y-18225000D03*
%TD*%
D30*
%TO.P,C4,1*%
%TO.N,Board_2-/VBST*%
X83850000Y-26450000D03*
%TO.P,C4,2*%
%TO.N,Board_2-GND*%
X83850000Y-28350000D03*
%TD*%
D11*
%TO.P,TP2,1,1*%
%TO.N,Board_0-GND*%
X23150000Y-17950000D03*
%TD*%
D25*
%TO.P,U1,1,HVout12*%
%TO.N,Board_2-/PZT_Common*%
X70288990Y-41586136D03*
%TO.P,U1,2,HVout11*%
X70642544Y-41939689D03*
%TO.P,U1,3,HVout10*%
%TO.N,Board_2-/reed1*%
X70996097Y-42293243D03*
%TO.P,U1,4,HVout9*%
%TO.N,Board_2-/reed2*%
X71349651Y-42646796D03*
%TO.P,U1,5,HVout8*%
%TO.N,Board_2-/reed3*%
X71703204Y-43000349D03*
%TO.P,U1,6,HVout7*%
%TO.N,Board_2-/reed4*%
X72056757Y-43353903D03*
%TO.P,U1,7,HVout6*%
%TO.N,Board_2-/reed5*%
X72410311Y-43707456D03*
%TO.P,U1,8,HVout5*%
%TO.N,Board_2-/reed6*%
X72763864Y-44061010D03*
D26*
%TO.P,U1,9,HVout4*%
%TO.N,Board_2-/reed7*%
X73736136Y-44061010D03*
%TO.P,U1,10,HVout3*%
%TO.N,Board_2-/reed8*%
X74089689Y-43707456D03*
%TO.P,U1,11,HVout2*%
%TO.N,Board_2-/reed9*%
X74443243Y-43353903D03*
%TO.P,U1,12,HVout1*%
%TO.N,Board_2-/reed10*%
X74796796Y-43000349D03*
%TO.P,U1,13,NC*%
%TO.N,Board_2-unconnected-(U1-Pad13)*%
X75150349Y-42646796D03*
%TO.P,U1,14,VPP*%
%TO.N,Board_2-/VPP*%
X75503903Y-42293243D03*
%TO.P,U1,15,GND*%
%TO.N,Board_2-GND*%
X75857456Y-41939689D03*
%TO.P,U1,16,NC*%
%TO.N,Board_2-unconnected-(U1-Pad16)*%
X76211010Y-41586136D03*
D25*
%TO.P,U1,17,DIN*%
%TO.N,Board_2-Net-(U1-Pad17)*%
X76211010Y-40613864D03*
%TO.P,U1,18,NC*%
%TO.N,Board_2-unconnected-(U1-Pad18)*%
X75857456Y-40260311D03*
%TO.P,U1,19,CLK*%
%TO.N,Board_2-/CLK*%
X75503903Y-39906757D03*
%TO.P,U1,20,VDD*%
%TO.N,Board_2-/VDD*%
X75150349Y-39553204D03*
%TO.P,U1,21,~POL~*%
%TO.N,Board_2-/POL*%
X74796796Y-39199651D03*
%TO.P,U1,22,~LE~*%
%TO.N,Board_2-/LE*%
X74443243Y-38846097D03*
%TO.P,U1,23,NC*%
%TO.N,Board_2-unconnected-(U1-Pad23)*%
X74089689Y-38492544D03*
%TO.P,U1,24,DOUT*%
%TO.N,Board_2-/DOUT*%
X73736136Y-38138990D03*
D26*
%TO.P,U1,25,NC*%
%TO.N,Board_2-unconnected-(U1-Pad25)*%
X72763864Y-38138990D03*
%TO.P,U1,26,VBIAS*%
%TO.N,Board_2-/VBIAS*%
X72410311Y-38492544D03*
%TO.P,U1,27,HVGND*%
%TO.N,Board_2-GND*%
X72056757Y-38846097D03*
%TO.P,U1,28,BP*%
%TO.N,Board_2-unconnected-(U1-Pad28)*%
X71703204Y-39199651D03*
%TO.P,U1,29,HVout16*%
%TO.N,Board_2-/PZT_Common*%
X71349651Y-39553204D03*
%TO.P,U1,30,HVout15*%
X70996097Y-39906757D03*
%TO.P,U1,31,HVout14*%
X70642544Y-40260311D03*
%TO.P,U1,32,HVout13*%
X70288990Y-40613864D03*
D19*
%TO.P,U1,33,VPP*%
%TO.N,Board_2-/VPP*%
X72024348Y-41712826D03*
X73250000Y-41712825D03*
X73250000Y-39261522D03*
D27*
X73250000Y-41100000D03*
D19*
X71411522Y-41100000D03*
X74475652Y-40487174D03*
X73250000Y-40487175D03*
X73862826Y-42325652D03*
X72637175Y-41100000D03*
X73862825Y-41100000D03*
X72637174Y-42325652D03*
X73250000Y-42938478D03*
X72024348Y-40487174D03*
X72637174Y-39874348D03*
X74475652Y-41712826D03*
X73862826Y-39874348D03*
X75088478Y-41100000D03*
%TD*%
D38*
%TO.N,Board_0-/CLK*%
X18610707Y-36923939D03*
X14408482Y-38600000D03*
%TO.N,Board_0-/EN*%
X23150000Y-15849998D03*
X16050000Y-19600000D03*
%TO.N,Board_0-/POL*%
X16150000Y-37300000D03*
X17649500Y-37300000D03*
%TO.N,Board_0-/REG*%
X16850000Y-13800000D03*
X14800000Y-17700000D03*
%TO.N,Board_0-/SCL*%
X19358411Y-12591589D03*
X23150000Y-11649998D03*
%TO.N,Board_0-/SDA*%
X18750480Y-14499520D03*
X23150000Y-13750002D03*
%TO.N,Board_0-/VBIAS*%
X8150000Y-36700000D03*
X17150000Y-41900000D03*
%TO.N,Board_0-/VBST*%
X19350000Y-27200000D03*
X9950000Y-26300000D03*
%TO.N,Board_0-/VDD*%
X20250000Y-35100000D03*
X15450000Y-38200000D03*
X18610222Y-37984378D03*
X16650000Y-39900000D03*
%TO.N,Board_0-/VPP*%
X15850000Y-44700000D03*
X23669670Y-37919670D03*
%TO.N,Board_0-GND*%
X17450000Y-43400000D03*
X23149998Y-17950001D03*
X19250000Y-22300000D03*
X9950000Y-24800000D03*
X7150000Y-38352013D03*
X11618540Y-19968540D03*
X9950000Y-22900000D03*
X11150000Y-14000000D03*
X20550000Y-29600000D03*
X13950000Y-28000000D03*
X3291665Y-22300000D03*
X22950000Y-37150000D03*
X14050000Y-42600000D03*
%TO.N,Board_1-/CLK*%
X50260707Y-36923939D03*
X46058482Y-38600000D03*
%TO.N,Board_1-/EN*%
X54800000Y-15849998D03*
X47700000Y-19600000D03*
%TO.N,Board_1-/POL*%
X47800000Y-37300000D03*
X49299500Y-37300000D03*
%TO.N,Board_1-/REG*%
X48500000Y-13800000D03*
X46450000Y-17700000D03*
%TO.N,Board_1-/SCL*%
X51008411Y-12591589D03*
X54800000Y-11649998D03*
%TO.N,Board_1-/SDA*%
X50400480Y-14499520D03*
X54800000Y-13750002D03*
%TO.N,Board_1-/VBIAS*%
X39800000Y-36700000D03*
X48800000Y-41900000D03*
%TO.N,Board_1-/VBST*%
X51000000Y-27200000D03*
X41600000Y-26300000D03*
%TO.N,Board_1-/VDD*%
X51900000Y-35100000D03*
X47100000Y-38200000D03*
X50260222Y-37984378D03*
X48300000Y-39900000D03*
%TO.N,Board_1-/VPP*%
X47500000Y-44700000D03*
X55319670Y-37919670D03*
%TO.N,Board_1-GND*%
X49100000Y-43400000D03*
X54799998Y-17950001D03*
X50900000Y-22300000D03*
X41600000Y-24800000D03*
X38800000Y-38352013D03*
X43268540Y-19968540D03*
X41600000Y-22900000D03*
X42800000Y-14000000D03*
X52200000Y-29600000D03*
X45600000Y-28000000D03*
X34941665Y-22300000D03*
X54600000Y-37150000D03*
X45700000Y-42600000D03*
%TO.N,Board_2-/CLK*%
X81910707Y-36923939D03*
X77708482Y-38600000D03*
%TO.N,Board_2-/EN*%
X86450000Y-15849998D03*
X79350000Y-19600000D03*
%TO.N,Board_2-/POL*%
X79450000Y-37300000D03*
X80949500Y-37300000D03*
%TO.N,Board_2-/REG*%
X80150000Y-13800000D03*
X78100000Y-17700000D03*
%TO.N,Board_2-/SCL*%
X82658411Y-12591589D03*
X86450000Y-11649998D03*
%TO.N,Board_2-/SDA*%
X82050480Y-14499520D03*
X86450000Y-13750002D03*
%TO.N,Board_2-/VBIAS*%
X71450000Y-36700000D03*
X80450000Y-41900000D03*
%TO.N,Board_2-/VBST*%
X82650000Y-27200000D03*
X73250000Y-26300000D03*
%TO.N,Board_2-/VDD*%
X83550000Y-35100000D03*
X78750000Y-38200000D03*
X81910222Y-37984378D03*
X79950000Y-39900000D03*
%TO.N,Board_2-/VPP*%
X79150000Y-44700000D03*
X86969670Y-37919670D03*
%TO.N,Board_2-GND*%
X80750000Y-43400000D03*
X86449998Y-17950001D03*
X82550000Y-22300000D03*
X73250000Y-24800000D03*
X70450000Y-38352013D03*
X74918540Y-19968540D03*
X73250000Y-22900000D03*
X74450000Y-14000000D03*
X83850000Y-29600000D03*
X77250000Y-28000000D03*
X66591665Y-22300000D03*
X86250000Y-37150000D03*
X77350000Y-42600000D03*
%TD*%
D39*
%TO.N,Board_0-/AIN*%
X21550000Y-13550000D02*
X19124520Y-11124520D01*
X19497392Y-20049030D02*
X20078457Y-20049030D01*
X19124520Y-11124520D02*
X18653448Y-11124520D01*
D40*
X23100000Y-9550000D02*
X23150000Y-9550000D01*
D39*
X20350000Y-12300000D02*
X23100000Y-9550000D01*
X16907835Y-11126449D02*
X16000000Y-12034284D01*
X18651519Y-11126449D02*
X16907835Y-11126449D01*
X17050000Y-22496422D02*
X19497392Y-20049030D01*
X20078457Y-20049030D02*
X21550000Y-18577487D01*
X18653448Y-11124520D02*
X18651519Y-11126449D01*
X16000000Y-12034284D02*
X16000000Y-12700000D01*
X21550000Y-18577487D02*
X21550000Y-13550000D01*
X17050000Y-23237500D02*
X17050000Y-22496422D01*
%TO.N,Board_0-/CLK*%
X8048533Y-27298533D02*
X8048533Y-21001467D01*
X15000000Y-12700000D02*
X15000000Y-12075378D01*
X18610707Y-36250827D02*
X17059880Y-34700000D01*
X13510660Y-38600000D02*
X14408482Y-38600000D01*
X15000000Y-12075378D02*
X11874622Y-8950000D01*
X20356757Y-38846097D02*
X18610707Y-37100047D01*
X8048533Y-21001467D02*
X15000000Y-14050000D01*
X12203903Y-39906757D02*
X13510660Y-38600000D01*
X15000000Y-14050000D02*
X15000000Y-12700000D01*
X18610707Y-37100047D02*
X18610707Y-36923939D01*
X11874622Y-8950000D02*
X6050000Y-8950000D01*
X17059880Y-34700000D02*
X15450000Y-34700000D01*
X6050000Y-8950000D02*
X3300000Y-11700000D01*
X18610707Y-36923939D02*
X18610707Y-36250827D01*
X15450000Y-34700000D02*
X8048533Y-27298533D01*
%TO.N,Board_0-/DIN*%
X11989616Y-8500000D02*
X4350000Y-8500000D01*
X15750000Y-34300000D02*
X8450000Y-27000000D01*
X4350000Y-8500000D02*
X3250000Y-9600000D01*
X15500000Y-14150000D02*
X15500000Y-12700000D01*
X15500000Y-12010384D02*
X11989616Y-8500000D01*
X15500000Y-12700000D02*
X15500000Y-12010384D01*
X8450000Y-21200000D02*
X15500000Y-14150000D01*
X17224874Y-34300000D02*
X15750000Y-34300000D01*
X21063864Y-38138990D02*
X17224874Y-34300000D01*
X8450000Y-27000000D02*
X8450000Y-21200000D01*
%TO.N,Board_0-/DOUT*%
X11350000Y-33400000D02*
X11350000Y-32400000D01*
X11350000Y-32400000D02*
X6850000Y-27900000D01*
X13230131Y-12000480D02*
X9649520Y-12000480D01*
X13500000Y-12270349D02*
X13230131Y-12000480D01*
X6850000Y-27900000D02*
X6850000Y-20470000D01*
X10436136Y-38138990D02*
X11350000Y-37225126D01*
X13500000Y-13820000D02*
X13500000Y-12700000D01*
X11350000Y-37225126D02*
X11350000Y-33400000D01*
X13500000Y-12700000D02*
X13500000Y-12270349D01*
X6850000Y-20470000D02*
X13500000Y-13820000D01*
X9649520Y-12000480D02*
X3450000Y-18200000D01*
D40*
%TO.N,Board_0-/EN*%
X16050000Y-19600000D02*
X16050000Y-18225000D01*
D41*
X14750000Y-21625000D02*
X15550000Y-22425000D01*
D40*
X16050000Y-20075000D02*
X16050000Y-19600000D01*
X14750000Y-21375000D02*
X16050000Y-20075000D01*
D41*
X15550000Y-22425000D02*
X15550000Y-23237500D01*
D39*
%TO.N,Board_0-/LE*%
X19296097Y-39906757D02*
X18373463Y-38984123D01*
X16950000Y-37736972D02*
X16950000Y-35800000D01*
X16650000Y-35500000D02*
X15050000Y-35500000D01*
X7850000Y-11500000D02*
X3450000Y-15900000D01*
X18373463Y-38984123D02*
X18197151Y-38984123D01*
X7249511Y-27699511D02*
X7249511Y-20635483D01*
X15050000Y-35500000D02*
X11800000Y-32250000D01*
X11143243Y-38846097D02*
X11800000Y-38189340D01*
X3450000Y-15900000D02*
X3300000Y-15900000D01*
X16950000Y-35800000D02*
X16650000Y-35500000D01*
X11800000Y-32250000D02*
X7249511Y-27699511D01*
X11800000Y-35000000D02*
X11800000Y-32250000D01*
X14000000Y-12205356D02*
X13294644Y-11500000D01*
X14000000Y-12700000D02*
X14000000Y-12205356D01*
X11800000Y-38189340D02*
X11800000Y-35750000D01*
X7249511Y-20635483D02*
X14000000Y-13884994D01*
X14000000Y-13884994D02*
X14000000Y-12700000D01*
X13294644Y-11500000D02*
X7850000Y-11500000D01*
X18197151Y-38984123D02*
X16950000Y-37736972D01*
X11800000Y-35750000D02*
X11800000Y-35000000D01*
%TO.N,Board_0-/OUT-*%
X18512500Y-24700000D02*
X24550000Y-24700000D01*
%TO.N,Board_0-/POL*%
X14750000Y-37300000D02*
X16150000Y-37300000D01*
X17649500Y-37871478D02*
X17649500Y-37300000D01*
X13396447Y-37300000D02*
X14750000Y-37300000D01*
X15250000Y-35100000D02*
X16850000Y-35100000D01*
X14500000Y-12700000D02*
X14500000Y-12140367D01*
X16850000Y-35100000D02*
X17649500Y-35899500D01*
X7649022Y-20800978D02*
X7649022Y-27499022D01*
X18681059Y-38584612D02*
X18362634Y-38584612D01*
X19649651Y-39553204D02*
X18681059Y-38584612D01*
X14500000Y-12700000D02*
X14500000Y-13950000D01*
X6049511Y-11100489D02*
X3350000Y-13800000D01*
X3350000Y-13800000D02*
X3300000Y-13800000D01*
X14500000Y-12140367D02*
X13460122Y-11100489D01*
X11496796Y-39199651D02*
X13396447Y-37300000D01*
X17649500Y-35899500D02*
X17649500Y-37300000D01*
X14500000Y-13950000D02*
X7649022Y-20800978D01*
X18362634Y-38584612D02*
X17649500Y-37871478D01*
X13460122Y-11100489D02*
X6049511Y-11100489D01*
X7649022Y-27499022D02*
X15250000Y-35100000D01*
D41*
%TO.N,Board_0-/PZT_Common*%
X28790000Y-45317980D02*
X28790000Y-58290480D01*
D39*
X23450349Y-39553204D02*
X24511010Y-40613864D01*
X24511010Y-41586135D02*
X24157456Y-41939689D01*
D41*
X6988991Y-40613864D02*
X7342544Y-40260311D01*
X6988990Y-40613864D02*
X6988991Y-40613864D01*
D39*
X24511010Y-41038990D02*
X24511010Y-41586135D01*
D41*
X7696097Y-39906757D02*
X7696098Y-39906757D01*
X7696098Y-39906757D02*
X8049651Y-39553204D01*
X7342543Y-41939689D02*
X6988990Y-41586136D01*
X7342544Y-40260310D02*
X7696097Y-39906757D01*
X24511010Y-41038990D02*
X28790000Y-45317980D01*
X7342543Y-41939689D02*
X2790000Y-46492232D01*
X7342544Y-40260311D02*
X7342544Y-40260310D01*
X6988990Y-41586136D02*
X6988990Y-40613864D01*
X2790000Y-46492232D02*
X2790000Y-58240480D01*
X7342544Y-41939689D02*
X7342543Y-41939689D01*
D39*
X24511010Y-40613864D02*
X24511010Y-41038990D01*
D40*
%TO.N,Board_0-/REG*%
X16050000Y-16575000D02*
X14925000Y-17700000D01*
X16850000Y-13800000D02*
X16865006Y-13800000D01*
X16865006Y-13800000D02*
X17500000Y-13165006D01*
X17500000Y-13165006D02*
X17500000Y-12700000D01*
X14925000Y-17700000D02*
X14800000Y-17700000D01*
D39*
%TO.N,Board_0-/SCL*%
X19475000Y-12574290D02*
X19475000Y-15850000D01*
D40*
X19475000Y-17200000D02*
X20199520Y-17924520D01*
D39*
X19475000Y-17200000D02*
X19475000Y-15850000D01*
X16500000Y-12700000D02*
X16500000Y-12099290D01*
D40*
X19311198Y-19599520D02*
X16550000Y-22360718D01*
D39*
X17073321Y-11525969D02*
X18426680Y-11525970D01*
D40*
X16550000Y-22360718D02*
X16550000Y-23237500D01*
X19892263Y-19599520D02*
X19311198Y-19599520D01*
X20199520Y-19292263D02*
X19892263Y-19599520D01*
X20199520Y-17924520D02*
X20199520Y-19292263D01*
D39*
X18426680Y-11525970D02*
X19475000Y-12574290D01*
X16500000Y-12099290D02*
X17073321Y-11525969D01*
%TO.N,Board_0-/SDA*%
X18750480Y-12485474D02*
X18750480Y-14499520D01*
X18750480Y-14499520D02*
X18750480Y-18075480D01*
X18750480Y-18075480D02*
X19475000Y-18800000D01*
X17259514Y-11975480D02*
X18240486Y-11975480D01*
X17000000Y-12234994D02*
X17259514Y-11975480D01*
D40*
X16050000Y-22225000D02*
X16050000Y-23237500D01*
X19475000Y-18800000D02*
X16050000Y-22225000D01*
D39*
X17000000Y-12700000D02*
X17000000Y-12234994D01*
X18240486Y-11975480D02*
X18750480Y-12485474D01*
%TO.N,Board_0-/VBIAS*%
X13000000Y-13754994D02*
X6450482Y-20304512D01*
X6450482Y-20304512D02*
X6450482Y-20499518D01*
X9110311Y-38492544D02*
X8150000Y-37532233D01*
X3300000Y-20150000D02*
X6100964Y-20150000D01*
X18624718Y-42257515D02*
X17507515Y-42257515D01*
X13000000Y-12700000D02*
X13000000Y-13754994D01*
X8150000Y-37532233D02*
X8150000Y-36700000D01*
X6100964Y-20150000D02*
X6450482Y-20499518D01*
X18942544Y-41939689D02*
X18624718Y-42257515D01*
X6450482Y-35000482D02*
X8150000Y-36700000D01*
X6450482Y-20499518D02*
X6450482Y-35000482D01*
X17507515Y-42257515D02*
X17150000Y-41900000D01*
D41*
%TO.N,Board_0-/VBST*%
X18249511Y-26899511D02*
X17986522Y-27162500D01*
X17986522Y-27162500D02*
X17550000Y-27162500D01*
D39*
X21800000Y-26450000D02*
X20100000Y-26450000D01*
X22900000Y-29600000D02*
X22900000Y-27550000D01*
D41*
X19262500Y-26450000D02*
X18512500Y-25700000D01*
X18512500Y-25700000D02*
X18512500Y-26200000D01*
D39*
X22900000Y-27550000D02*
X21800000Y-26450000D01*
D41*
X9950000Y-26300000D02*
X11125000Y-26300000D01*
X20550000Y-26450000D02*
X19262500Y-26450000D01*
X18512500Y-26636522D02*
X18249511Y-26899511D01*
X18512500Y-26200000D02*
X18512500Y-26636522D01*
D39*
X20100000Y-26450000D02*
X19350000Y-27200000D01*
D42*
%TO.N,Board_0-/VDD*%
X14525000Y-30575000D02*
X14950000Y-31000000D01*
D39*
X18788664Y-37985111D02*
X18610955Y-37985111D01*
D42*
X20250000Y-34100000D02*
X20250000Y-35100000D01*
X18150000Y-13600000D02*
X18150000Y-12700000D01*
X16750000Y-15000000D02*
X18150000Y-13600000D01*
X12802126Y-30575000D02*
X9050000Y-26822874D01*
D40*
X15069196Y-37819196D02*
X15450000Y-38200000D01*
D42*
X9050000Y-21700000D02*
X9050000Y-21477126D01*
D40*
X11425000Y-21600000D02*
X9150000Y-21600000D01*
D39*
X18610955Y-37985111D02*
X18610222Y-37984378D01*
D40*
X17825000Y-18800000D02*
X17825000Y-17200000D01*
X12725000Y-22900000D02*
X12725000Y-23297328D01*
D42*
X14950000Y-31000000D02*
X16950000Y-31000000D01*
D40*
X17825000Y-17200000D02*
X17825000Y-16075000D01*
D39*
X20450000Y-33900000D02*
X20250000Y-34100000D01*
D42*
X13950000Y-30575000D02*
X14525000Y-30575000D01*
X17050000Y-30900000D02*
X20250000Y-34100000D01*
D40*
X9150000Y-21600000D02*
X9050000Y-21700000D01*
D42*
X9050000Y-21477126D02*
X15527126Y-15000000D01*
D40*
X14127672Y-24700000D02*
X14587500Y-24700000D01*
D39*
X15850000Y-40700000D02*
X16650000Y-39900000D01*
D40*
X20003204Y-39199651D02*
X18788664Y-37985111D01*
D39*
X22950000Y-33900000D02*
X20450000Y-33900000D01*
D40*
X17825000Y-16075000D02*
X16750000Y-15000000D01*
D42*
X9050000Y-26822874D02*
X9050000Y-21700000D01*
D40*
X13584357Y-37819196D02*
X15069196Y-37819196D01*
X11850349Y-39553204D02*
X13584357Y-37819196D01*
D42*
X16950000Y-31000000D02*
X17050000Y-30900000D01*
D40*
X12725000Y-23297328D02*
X14127672Y-24700000D01*
X12725000Y-22900000D02*
X11425000Y-21600000D01*
D42*
X15527126Y-15000000D02*
X16750000Y-15000000D01*
X13950000Y-30575000D02*
X12802126Y-30575000D01*
D41*
%TO.N,Board_0-/VPP*%
X18950000Y-25200000D02*
X18952151Y-25202151D01*
D40*
X15850000Y-43500000D02*
X15850000Y-44700000D01*
D39*
X22950000Y-31750000D02*
X24500000Y-31750000D01*
D41*
X24550000Y-27400000D02*
X24550000Y-31800000D01*
D39*
X24500000Y-31750000D02*
X24550000Y-31800000D01*
D40*
X15850000Y-44700000D02*
X14610660Y-44700000D01*
D41*
X22352151Y-25202151D02*
X24550000Y-27400000D01*
D40*
X22743243Y-38846097D02*
X21550000Y-40039340D01*
X14610660Y-44700000D02*
X12203903Y-42293243D01*
X11010660Y-41100000D02*
X12203903Y-42293243D01*
D41*
X18952151Y-25202151D02*
X22352151Y-25202151D01*
X24550000Y-37039340D02*
X23669670Y-37919670D01*
X23669670Y-37919670D02*
X22743243Y-38846097D01*
X24550000Y-31800000D02*
X24550000Y-37039340D01*
D39*
%TO.N,Board_0-/reed1*%
X7696097Y-42293243D02*
X7696097Y-42353903D01*
X6290000Y-43760000D02*
X6290000Y-50600000D01*
X7696097Y-42353903D02*
X6290000Y-43760000D01*
%TO.N,Board_0-/reed10*%
X11814622Y-43318175D02*
X12168175Y-43318175D01*
X15290000Y-46440000D02*
X15290000Y-50600000D01*
X11496796Y-43000349D02*
X11814622Y-43318175D01*
X12168175Y-43318175D02*
X15290000Y-46440000D01*
%TO.N,Board_0-/reed11*%
X19431825Y-43318175D02*
X16290000Y-46460000D01*
X16290000Y-46460000D02*
X16290000Y-50600000D01*
X20003204Y-43000349D02*
X19685378Y-43318175D01*
X19685378Y-43318175D02*
X19431825Y-43318175D01*
%TO.N,Board_0-/reed12*%
X20356757Y-43353903D02*
X20356757Y-43393243D01*
X20356757Y-43393243D02*
X17290000Y-46460000D01*
X17290000Y-46460000D02*
X17290000Y-50600000D01*
%TO.N,Board_0-/reed13*%
X18290000Y-46460000D02*
X18290000Y-50600000D01*
X20392485Y-44025282D02*
X20392485Y-44357515D01*
X20392485Y-44357515D02*
X18290000Y-46460000D01*
X20710311Y-43707456D02*
X20392485Y-44025282D01*
%TO.N,Board_0-/reed14*%
X21063864Y-44061010D02*
X21063864Y-44686136D01*
X21063864Y-44686136D02*
X19290000Y-46460000D01*
X19290000Y-46460000D02*
X19290000Y-50600000D01*
%TO.N,Board_0-/reed15*%
X20290000Y-46460000D02*
X20290000Y-50600000D01*
X22036136Y-44713864D02*
X20290000Y-46460000D01*
X22036136Y-44061010D02*
X22036136Y-44713864D01*
%TO.N,Board_0-/reed16*%
X22850000Y-44167767D02*
X22850000Y-44900000D01*
X22850000Y-44900000D02*
X21290000Y-46460000D01*
X21290000Y-46460000D02*
X21290000Y-50600000D01*
X22389689Y-43707456D02*
X22850000Y-44167767D01*
%TO.N,Board_0-/reed17*%
X22290000Y-46460000D02*
X22290000Y-50600000D01*
X22743243Y-43353903D02*
X23350000Y-43960660D01*
X23350000Y-45400000D02*
X22290000Y-46460000D01*
X23350000Y-43960660D02*
X23350000Y-45400000D01*
%TO.N,Board_0-/reed18*%
X23290000Y-46460000D02*
X23850000Y-45900000D01*
X23290000Y-50600000D02*
X23290000Y-46460000D01*
X23850000Y-43753553D02*
X23096796Y-43000349D01*
X23850000Y-45900000D02*
X23850000Y-43753553D01*
%TO.N,Board_0-/reed19*%
X24290000Y-43486447D02*
X24290000Y-50600000D01*
X23450349Y-42646796D02*
X24290000Y-43486447D01*
%TO.N,Board_0-/reed2*%
X7290000Y-43406447D02*
X7290000Y-50600000D01*
X8049651Y-42646796D02*
X7290000Y-43406447D01*
%TO.N,Board_0-/reed20*%
X23803903Y-42293243D02*
X25290000Y-43779340D01*
X25290000Y-43779340D02*
X25290000Y-50600000D01*
%TO.N,Board_0-/reed3*%
X7850000Y-46000000D02*
X8290000Y-46440000D01*
X8290000Y-46440000D02*
X8290000Y-50600000D01*
X8403204Y-43000349D02*
X7850000Y-43553553D01*
X7850000Y-43553553D02*
X7850000Y-46000000D01*
%TO.N,Board_0-/reed4*%
X8392975Y-43717685D02*
X8392975Y-45542975D01*
X8756757Y-43353903D02*
X8392975Y-43717685D01*
X8392975Y-45542975D02*
X9290000Y-46440000D01*
X9290000Y-46440000D02*
X9290000Y-50600000D01*
%TO.N,Board_0-/reed5*%
X8792485Y-44025282D02*
X8792485Y-44942485D01*
X10290000Y-46440000D02*
X10290000Y-50600000D01*
X8792485Y-44942485D02*
X10290000Y-46440000D01*
X9110311Y-43707456D02*
X8792485Y-44025282D01*
%TO.N,Board_0-/reed6*%
X9463864Y-44613864D02*
X11290000Y-46440000D01*
X11290000Y-46440000D02*
X11290000Y-50600000D01*
X9463864Y-44061010D02*
X9463864Y-44613864D01*
%TO.N,Board_0-/reed7*%
X12290000Y-46440000D02*
X12290000Y-50600000D01*
X10436136Y-44061010D02*
X10436136Y-44586136D01*
X10436136Y-44586136D02*
X12290000Y-46440000D01*
%TO.N,Board_0-/reed8*%
X11107515Y-44257515D02*
X13290000Y-46440000D01*
X11107515Y-44025282D02*
X11107515Y-44257515D01*
X13290000Y-46440000D02*
X13290000Y-50600000D01*
X10789689Y-43707456D02*
X11107515Y-44025282D01*
%TO.N,Board_0-/reed9*%
X14290000Y-46440000D02*
X14290000Y-50600000D01*
X11143243Y-43353903D02*
X11203903Y-43353903D01*
X11203903Y-43353903D02*
X14290000Y-46440000D01*
%TO.N,Board_0-GND*%
X15550000Y-27162500D02*
X15550000Y-26400000D01*
D42*
X13950000Y-27800000D02*
X14700000Y-27050000D01*
D39*
X17550000Y-22600350D02*
X17850350Y-22300000D01*
X14587500Y-26937500D02*
X14700000Y-27050000D01*
X14587500Y-26200000D02*
X15350000Y-26200000D01*
X14812500Y-27162500D02*
X14700000Y-27050000D01*
D41*
X20550000Y-28350000D02*
X20550000Y-29600000D01*
X11200000Y-14000000D02*
X11150000Y-14000000D01*
D39*
X14050000Y-42600000D02*
X14400000Y-42250000D01*
X13217767Y-42600000D02*
X14050000Y-42600000D01*
D41*
X12500000Y-12700000D02*
X11200000Y-14000000D01*
D40*
X11762080Y-19825000D02*
X11618540Y-19968540D01*
D39*
X22950000Y-37932233D02*
X22950000Y-37150000D01*
X15550000Y-26400000D02*
X15450000Y-26300000D01*
D41*
X15550000Y-27162500D02*
X14812500Y-27162500D01*
D42*
X13950000Y-29025000D02*
X13950000Y-27800000D01*
D39*
X17550000Y-24000000D02*
X17650000Y-24100000D01*
X17550000Y-23237500D02*
X17550000Y-22600350D01*
X14400000Y-42250000D02*
X16300000Y-42250000D01*
D40*
X13050000Y-19825000D02*
X11762080Y-19825000D01*
D39*
X15350000Y-26200000D02*
X15450000Y-26300000D01*
X11025000Y-24800000D02*
X9950000Y-24800000D01*
D40*
X13050000Y-19825000D02*
X14750000Y-19825000D01*
D39*
X18189340Y-43400000D02*
X17450000Y-43400000D01*
X17550000Y-23237500D02*
X17550000Y-24000000D01*
X22389689Y-38492544D02*
X22950000Y-37932233D01*
X8756757Y-38846097D02*
X8262673Y-38352013D01*
D42*
X14587500Y-26200000D02*
X14587500Y-26937500D01*
D39*
X11125000Y-24700000D02*
X11025000Y-24800000D01*
X14587500Y-25700000D02*
X16050000Y-25700000D01*
X16050000Y-25700000D02*
X16550000Y-25200000D01*
D41*
X14587500Y-25700000D02*
X14587500Y-26200000D01*
D39*
X19275000Y-22275000D02*
X19250000Y-22300000D01*
X16300000Y-42250000D02*
X17450000Y-43400000D01*
X17850350Y-22300000D02*
X19250000Y-22300000D01*
X20450000Y-22275000D02*
X19275000Y-22275000D01*
D41*
X10975000Y-22900000D02*
X9950000Y-22900000D01*
D39*
X8262673Y-38352013D02*
X7150000Y-38352013D01*
X19296097Y-42293243D02*
X18189340Y-43400000D01*
X22950000Y-36050000D02*
X22950000Y-37150000D01*
X12557456Y-41939689D02*
X13217767Y-42600000D01*
D42*
X14700000Y-27050000D02*
X15450000Y-26300000D01*
D40*
%TO.N,Board_0-Net-(C2-Pad1)*%
X13050000Y-21375000D02*
X14587500Y-22912500D01*
X14587500Y-22912500D02*
X14587500Y-24200000D01*
D42*
%TO.N,Board_0-Net-(L1-Pad1)*%
X16350000Y-28100000D02*
X16350000Y-27200000D01*
X17050000Y-28800000D02*
X16350000Y-28100000D01*
X16350000Y-27200000D02*
X16312500Y-27162500D01*
D39*
%TO.N,Board_0-Net-(R1-Pad2)*%
X12775000Y-24700000D02*
X12775000Y-26300000D01*
X12775000Y-24700000D02*
X13488478Y-24700000D01*
X13988478Y-25200000D02*
X14587500Y-25200000D01*
X13488478Y-24700000D02*
X13988478Y-25200000D01*
%TO.N,Board_0-Net-(R3-Pad1)*%
X18512500Y-24200000D02*
X20175000Y-24200000D01*
X20175000Y-24200000D02*
X20450000Y-23925000D01*
%TO.N,Board_0-Net-(U1-Pad17)*%
X17275126Y-39300000D02*
X18588990Y-40613864D01*
X12911010Y-40613864D02*
X14224874Y-39300000D01*
X14224874Y-39300000D02*
X17275126Y-39300000D01*
%TO.N,Board_1-/AIN*%
X53200000Y-13550000D02*
X50774520Y-11124520D01*
X51147392Y-20049030D02*
X51728457Y-20049030D01*
X50774520Y-11124520D02*
X50303448Y-11124520D01*
D40*
X54750000Y-9550000D02*
X54800000Y-9550000D01*
D39*
X52000000Y-12300000D02*
X54750000Y-9550000D01*
X48557835Y-11126449D02*
X47650000Y-12034284D01*
X50301519Y-11126449D02*
X48557835Y-11126449D01*
X48700000Y-22496422D02*
X51147392Y-20049030D01*
X51728457Y-20049030D02*
X53200000Y-18577487D01*
X50303448Y-11124520D02*
X50301519Y-11126449D01*
X47650000Y-12034284D02*
X47650000Y-12700000D01*
X53200000Y-18577487D02*
X53200000Y-13550000D01*
X48700000Y-23237500D02*
X48700000Y-22496422D01*
%TO.N,Board_1-/CLK*%
X39698533Y-27298533D02*
X39698533Y-21001467D01*
X46650000Y-12700000D02*
X46650000Y-12075378D01*
X50260707Y-36250827D02*
X48709880Y-34700000D01*
X45160660Y-38600000D02*
X46058482Y-38600000D01*
X46650000Y-12075378D02*
X43524622Y-8950000D01*
X52006757Y-38846097D02*
X50260707Y-37100047D01*
X39698533Y-21001467D02*
X46650000Y-14050000D01*
X43853903Y-39906757D02*
X45160660Y-38600000D01*
X46650000Y-14050000D02*
X46650000Y-12700000D01*
X50260707Y-37100047D02*
X50260707Y-36923939D01*
X43524622Y-8950000D02*
X37700000Y-8950000D01*
X48709880Y-34700000D02*
X47100000Y-34700000D01*
X37700000Y-8950000D02*
X34950000Y-11700000D01*
X50260707Y-36923939D02*
X50260707Y-36250827D01*
X47100000Y-34700000D02*
X39698533Y-27298533D01*
%TO.N,Board_1-/DIN*%
X43639616Y-8500000D02*
X36000000Y-8500000D01*
X47400000Y-34300000D02*
X40100000Y-27000000D01*
X36000000Y-8500000D02*
X34900000Y-9600000D01*
X47150000Y-14150000D02*
X47150000Y-12700000D01*
X47150000Y-12010384D02*
X43639616Y-8500000D01*
X47150000Y-12700000D02*
X47150000Y-12010384D01*
X40100000Y-21200000D02*
X47150000Y-14150000D01*
X48874874Y-34300000D02*
X47400000Y-34300000D01*
X52713864Y-38138990D02*
X48874874Y-34300000D01*
X40100000Y-27000000D02*
X40100000Y-21200000D01*
%TO.N,Board_1-/DOUT*%
X43000000Y-33400000D02*
X43000000Y-32400000D01*
X43000000Y-32400000D02*
X38500000Y-27900000D01*
X44880131Y-12000480D02*
X41299520Y-12000480D01*
X45150000Y-12270349D02*
X44880131Y-12000480D01*
X38500000Y-27900000D02*
X38500000Y-20470000D01*
X42086136Y-38138990D02*
X43000000Y-37225126D01*
X45150000Y-13820000D02*
X45150000Y-12700000D01*
X43000000Y-37225126D02*
X43000000Y-33400000D01*
X45150000Y-12700000D02*
X45150000Y-12270349D01*
X38500000Y-20470000D02*
X45150000Y-13820000D01*
X41299520Y-12000480D02*
X35100000Y-18200000D01*
D40*
%TO.N,Board_1-/EN*%
X47700000Y-19600000D02*
X47700000Y-18225000D01*
D41*
X46400000Y-21625000D02*
X47200000Y-22425000D01*
D40*
X47700000Y-20075000D02*
X47700000Y-19600000D01*
X46400000Y-21375000D02*
X47700000Y-20075000D01*
D41*
X47200000Y-22425000D02*
X47200000Y-23237500D01*
D39*
%TO.N,Board_1-/LE*%
X50946097Y-39906757D02*
X50023463Y-38984123D01*
X48600000Y-37736972D02*
X48600000Y-35800000D01*
X48300000Y-35500000D02*
X46700000Y-35500000D01*
X39500000Y-11500000D02*
X35100000Y-15900000D01*
X50023463Y-38984123D02*
X49847151Y-38984123D01*
X38899511Y-27699511D02*
X38899511Y-20635483D01*
X46700000Y-35500000D02*
X43450000Y-32250000D01*
X42793243Y-38846097D02*
X43450000Y-38189340D01*
X35100000Y-15900000D02*
X34950000Y-15900000D01*
X48600000Y-35800000D02*
X48300000Y-35500000D01*
X43450000Y-32250000D02*
X38899511Y-27699511D01*
X43450000Y-35000000D02*
X43450000Y-32250000D01*
X45650000Y-12205356D02*
X44944644Y-11500000D01*
X45650000Y-12700000D02*
X45650000Y-12205356D01*
X43450000Y-38189340D02*
X43450000Y-35750000D01*
X38899511Y-20635483D02*
X45650000Y-13884994D01*
X45650000Y-13884994D02*
X45650000Y-12700000D01*
X44944644Y-11500000D02*
X39500000Y-11500000D01*
X49847151Y-38984123D02*
X48600000Y-37736972D01*
X43450000Y-35750000D02*
X43450000Y-35000000D01*
%TO.N,Board_1-/OUT-*%
X50162500Y-24700000D02*
X56200000Y-24700000D01*
%TO.N,Board_1-/POL*%
X46400000Y-37300000D02*
X47800000Y-37300000D01*
X49299500Y-37871478D02*
X49299500Y-37300000D01*
X45046447Y-37300000D02*
X46400000Y-37300000D01*
X46900000Y-35100000D02*
X48500000Y-35100000D01*
X46150000Y-12700000D02*
X46150000Y-12140367D01*
X48500000Y-35100000D02*
X49299500Y-35899500D01*
X39299022Y-20800978D02*
X39299022Y-27499022D01*
X50331059Y-38584612D02*
X50012634Y-38584612D01*
X51299651Y-39553204D02*
X50331059Y-38584612D01*
X46150000Y-12700000D02*
X46150000Y-13950000D01*
X37699511Y-11100489D02*
X35000000Y-13800000D01*
X35000000Y-13800000D02*
X34950000Y-13800000D01*
X46150000Y-12140367D02*
X45110122Y-11100489D01*
X43146796Y-39199651D02*
X45046447Y-37300000D01*
X49299500Y-35899500D02*
X49299500Y-37300000D01*
X46150000Y-13950000D02*
X39299022Y-20800978D01*
X50012634Y-38584612D02*
X49299500Y-37871478D01*
X45110122Y-11100489D02*
X37699511Y-11100489D01*
X39299022Y-27499022D02*
X46900000Y-35100000D01*
D41*
%TO.N,Board_1-/PZT_Common*%
X60440000Y-45317980D02*
X60440000Y-58290480D01*
D39*
X55100349Y-39553204D02*
X56161010Y-40613864D01*
X56161010Y-41586135D02*
X55807456Y-41939689D01*
D41*
X38638991Y-40613864D02*
X38992544Y-40260311D01*
X38638990Y-40613864D02*
X38638991Y-40613864D01*
D39*
X56161010Y-41038990D02*
X56161010Y-41586135D01*
D41*
X39346097Y-39906757D02*
X39346098Y-39906757D01*
X39346098Y-39906757D02*
X39699651Y-39553204D01*
X38992543Y-41939689D02*
X38638990Y-41586136D01*
X38992544Y-40260310D02*
X39346097Y-39906757D01*
X56161010Y-41038990D02*
X60440000Y-45317980D01*
X38992543Y-41939689D02*
X34440000Y-46492232D01*
X38992544Y-40260311D02*
X38992544Y-40260310D01*
X38638990Y-41586136D02*
X38638990Y-40613864D01*
X34440000Y-46492232D02*
X34440000Y-58240480D01*
X38992544Y-41939689D02*
X38992543Y-41939689D01*
D39*
X56161010Y-40613864D02*
X56161010Y-41038990D01*
D40*
%TO.N,Board_1-/REG*%
X47700000Y-16575000D02*
X46575000Y-17700000D01*
X48500000Y-13800000D02*
X48515006Y-13800000D01*
X48515006Y-13800000D02*
X49150000Y-13165006D01*
X49150000Y-13165006D02*
X49150000Y-12700000D01*
X46575000Y-17700000D02*
X46450000Y-17700000D01*
D39*
%TO.N,Board_1-/SCL*%
X51125000Y-12574290D02*
X51125000Y-15850000D01*
D40*
X51125000Y-17200000D02*
X51849520Y-17924520D01*
D39*
X51125000Y-17200000D02*
X51125000Y-15850000D01*
X48150000Y-12700000D02*
X48150000Y-12099290D01*
D40*
X50961198Y-19599520D02*
X48200000Y-22360718D01*
D39*
X48723321Y-11525969D02*
X50076680Y-11525970D01*
D40*
X48200000Y-22360718D02*
X48200000Y-23237500D01*
X51542263Y-19599520D02*
X50961198Y-19599520D01*
X51849520Y-19292263D02*
X51542263Y-19599520D01*
X51849520Y-17924520D02*
X51849520Y-19292263D01*
D39*
X50076680Y-11525970D02*
X51125000Y-12574290D01*
X48150000Y-12099290D02*
X48723321Y-11525969D01*
%TO.N,Board_1-/SDA*%
X50400480Y-12485474D02*
X50400480Y-14499520D01*
X50400480Y-14499520D02*
X50400480Y-18075480D01*
X50400480Y-18075480D02*
X51125000Y-18800000D01*
X48909514Y-11975480D02*
X49890486Y-11975480D01*
X48650000Y-12234994D02*
X48909514Y-11975480D01*
D40*
X47700000Y-22225000D02*
X47700000Y-23237500D01*
X51125000Y-18800000D02*
X47700000Y-22225000D01*
D39*
X48650000Y-12700000D02*
X48650000Y-12234994D01*
X49890486Y-11975480D02*
X50400480Y-12485474D01*
%TO.N,Board_1-/VBIAS*%
X44650000Y-13754994D02*
X38100482Y-20304512D01*
X38100482Y-20304512D02*
X38100482Y-20499518D01*
X40760311Y-38492544D02*
X39800000Y-37532233D01*
X34950000Y-20150000D02*
X37750964Y-20150000D01*
X50274718Y-42257515D02*
X49157515Y-42257515D01*
X44650000Y-12700000D02*
X44650000Y-13754994D01*
X39800000Y-37532233D02*
X39800000Y-36700000D01*
X37750964Y-20150000D02*
X38100482Y-20499518D01*
X50592544Y-41939689D02*
X50274718Y-42257515D01*
X38100482Y-35000482D02*
X39800000Y-36700000D01*
X38100482Y-20499518D02*
X38100482Y-35000482D01*
X49157515Y-42257515D02*
X48800000Y-41900000D01*
D41*
%TO.N,Board_1-/VBST*%
X49899511Y-26899511D02*
X49636522Y-27162500D01*
X49636522Y-27162500D02*
X49200000Y-27162500D01*
D39*
X53450000Y-26450000D02*
X51750000Y-26450000D01*
X54550000Y-29600000D02*
X54550000Y-27550000D01*
D41*
X50912500Y-26450000D02*
X50162500Y-25700000D01*
X50162500Y-25700000D02*
X50162500Y-26200000D01*
D39*
X54550000Y-27550000D02*
X53450000Y-26450000D01*
D41*
X41600000Y-26300000D02*
X42775000Y-26300000D01*
X52200000Y-26450000D02*
X50912500Y-26450000D01*
X50162500Y-26636522D02*
X49899511Y-26899511D01*
X50162500Y-26200000D02*
X50162500Y-26636522D01*
D39*
X51750000Y-26450000D02*
X51000000Y-27200000D01*
D42*
%TO.N,Board_1-/VDD*%
X46175000Y-30575000D02*
X46600000Y-31000000D01*
D39*
X50438664Y-37985111D02*
X50260955Y-37985111D01*
D42*
X51900000Y-34100000D02*
X51900000Y-35100000D01*
X49800000Y-13600000D02*
X49800000Y-12700000D01*
X48400000Y-15000000D02*
X49800000Y-13600000D01*
X44452126Y-30575000D02*
X40700000Y-26822874D01*
D40*
X46719196Y-37819196D02*
X47100000Y-38200000D01*
D42*
X40700000Y-21700000D02*
X40700000Y-21477126D01*
D40*
X43075000Y-21600000D02*
X40800000Y-21600000D01*
D39*
X50260955Y-37985111D02*
X50260222Y-37984378D01*
D40*
X49475000Y-18800000D02*
X49475000Y-17200000D01*
X44375000Y-22900000D02*
X44375000Y-23297328D01*
D42*
X46600000Y-31000000D02*
X48600000Y-31000000D01*
D40*
X49475000Y-17200000D02*
X49475000Y-16075000D01*
D39*
X52100000Y-33900000D02*
X51900000Y-34100000D01*
D42*
X45600000Y-30575000D02*
X46175000Y-30575000D01*
X48700000Y-30900000D02*
X51900000Y-34100000D01*
D40*
X40800000Y-21600000D02*
X40700000Y-21700000D01*
D42*
X40700000Y-21477126D02*
X47177126Y-15000000D01*
D40*
X45777672Y-24700000D02*
X46237500Y-24700000D01*
D39*
X47500000Y-40700000D02*
X48300000Y-39900000D01*
D40*
X51653204Y-39199651D02*
X50438664Y-37985111D01*
D39*
X54600000Y-33900000D02*
X52100000Y-33900000D01*
D40*
X49475000Y-16075000D02*
X48400000Y-15000000D01*
D42*
X40700000Y-26822874D02*
X40700000Y-21700000D01*
D40*
X45234357Y-37819196D02*
X46719196Y-37819196D01*
X43500349Y-39553204D02*
X45234357Y-37819196D01*
D42*
X48600000Y-31000000D02*
X48700000Y-30900000D01*
D40*
X44375000Y-23297328D02*
X45777672Y-24700000D01*
X44375000Y-22900000D02*
X43075000Y-21600000D01*
D42*
X47177126Y-15000000D02*
X48400000Y-15000000D01*
X45600000Y-30575000D02*
X44452126Y-30575000D01*
D41*
%TO.N,Board_1-/VPP*%
X50600000Y-25200000D02*
X50602151Y-25202151D01*
D40*
X47500000Y-43500000D02*
X47500000Y-44700000D01*
D39*
X54600000Y-31750000D02*
X56150000Y-31750000D01*
D41*
X56200000Y-27400000D02*
X56200000Y-31800000D01*
D39*
X56150000Y-31750000D02*
X56200000Y-31800000D01*
D40*
X47500000Y-44700000D02*
X46260660Y-44700000D01*
D41*
X54002151Y-25202151D02*
X56200000Y-27400000D01*
D40*
X54393243Y-38846097D02*
X53200000Y-40039340D01*
X46260660Y-44700000D02*
X43853903Y-42293243D01*
X42660660Y-41100000D02*
X43853903Y-42293243D01*
D41*
X50602151Y-25202151D02*
X54002151Y-25202151D01*
X56200000Y-37039340D02*
X55319670Y-37919670D01*
X55319670Y-37919670D02*
X54393243Y-38846097D01*
X56200000Y-31800000D02*
X56200000Y-37039340D01*
D39*
%TO.N,Board_1-/reed1*%
X39346097Y-42293243D02*
X39346097Y-42353903D01*
X37940000Y-43760000D02*
X37940000Y-50600000D01*
X39346097Y-42353903D02*
X37940000Y-43760000D01*
%TO.N,Board_1-/reed10*%
X43464622Y-43318175D02*
X43818175Y-43318175D01*
X46940000Y-46440000D02*
X46940000Y-50600000D01*
X43146796Y-43000349D02*
X43464622Y-43318175D01*
X43818175Y-43318175D02*
X46940000Y-46440000D01*
%TO.N,Board_1-/reed11*%
X51081825Y-43318175D02*
X47940000Y-46460000D01*
X47940000Y-46460000D02*
X47940000Y-50600000D01*
X51653204Y-43000349D02*
X51335378Y-43318175D01*
X51335378Y-43318175D02*
X51081825Y-43318175D01*
%TO.N,Board_1-/reed12*%
X52006757Y-43353903D02*
X52006757Y-43393243D01*
X52006757Y-43393243D02*
X48940000Y-46460000D01*
X48940000Y-46460000D02*
X48940000Y-50600000D01*
%TO.N,Board_1-/reed13*%
X49940000Y-46460000D02*
X49940000Y-50600000D01*
X52042485Y-44025282D02*
X52042485Y-44357515D01*
X52042485Y-44357515D02*
X49940000Y-46460000D01*
X52360311Y-43707456D02*
X52042485Y-44025282D01*
%TO.N,Board_1-/reed14*%
X52713864Y-44061010D02*
X52713864Y-44686136D01*
X52713864Y-44686136D02*
X50940000Y-46460000D01*
X50940000Y-46460000D02*
X50940000Y-50600000D01*
%TO.N,Board_1-/reed15*%
X51940000Y-46460000D02*
X51940000Y-50600000D01*
X53686136Y-44713864D02*
X51940000Y-46460000D01*
X53686136Y-44061010D02*
X53686136Y-44713864D01*
%TO.N,Board_1-/reed16*%
X54500000Y-44167767D02*
X54500000Y-44900000D01*
X54500000Y-44900000D02*
X52940000Y-46460000D01*
X52940000Y-46460000D02*
X52940000Y-50600000D01*
X54039689Y-43707456D02*
X54500000Y-44167767D01*
%TO.N,Board_1-/reed17*%
X53940000Y-46460000D02*
X53940000Y-50600000D01*
X54393243Y-43353903D02*
X55000000Y-43960660D01*
X55000000Y-45400000D02*
X53940000Y-46460000D01*
X55000000Y-43960660D02*
X55000000Y-45400000D01*
%TO.N,Board_1-/reed18*%
X54940000Y-46460000D02*
X55500000Y-45900000D01*
X54940000Y-50600000D02*
X54940000Y-46460000D01*
X55500000Y-43753553D02*
X54746796Y-43000349D01*
X55500000Y-45900000D02*
X55500000Y-43753553D01*
%TO.N,Board_1-/reed19*%
X55940000Y-43486447D02*
X55940000Y-50600000D01*
X55100349Y-42646796D02*
X55940000Y-43486447D01*
%TO.N,Board_1-/reed2*%
X38940000Y-43406447D02*
X38940000Y-50600000D01*
X39699651Y-42646796D02*
X38940000Y-43406447D01*
%TO.N,Board_1-/reed20*%
X55453903Y-42293243D02*
X56940000Y-43779340D01*
X56940000Y-43779340D02*
X56940000Y-50600000D01*
%TO.N,Board_1-/reed3*%
X39500000Y-46000000D02*
X39940000Y-46440000D01*
X39940000Y-46440000D02*
X39940000Y-50600000D01*
X40053204Y-43000349D02*
X39500000Y-43553553D01*
X39500000Y-43553553D02*
X39500000Y-46000000D01*
%TO.N,Board_1-/reed4*%
X40042975Y-43717685D02*
X40042975Y-45542975D01*
X40406757Y-43353903D02*
X40042975Y-43717685D01*
X40042975Y-45542975D02*
X40940000Y-46440000D01*
X40940000Y-46440000D02*
X40940000Y-50600000D01*
%TO.N,Board_1-/reed5*%
X40442485Y-44025282D02*
X40442485Y-44942485D01*
X41940000Y-46440000D02*
X41940000Y-50600000D01*
X40442485Y-44942485D02*
X41940000Y-46440000D01*
X40760311Y-43707456D02*
X40442485Y-44025282D01*
%TO.N,Board_1-/reed6*%
X41113864Y-44613864D02*
X42940000Y-46440000D01*
X42940000Y-46440000D02*
X42940000Y-50600000D01*
X41113864Y-44061010D02*
X41113864Y-44613864D01*
%TO.N,Board_1-/reed7*%
X43940000Y-46440000D02*
X43940000Y-50600000D01*
X42086136Y-44061010D02*
X42086136Y-44586136D01*
X42086136Y-44586136D02*
X43940000Y-46440000D01*
%TO.N,Board_1-/reed8*%
X42757515Y-44257515D02*
X44940000Y-46440000D01*
X42757515Y-44025282D02*
X42757515Y-44257515D01*
X44940000Y-46440000D02*
X44940000Y-50600000D01*
X42439689Y-43707456D02*
X42757515Y-44025282D01*
%TO.N,Board_1-/reed9*%
X45940000Y-46440000D02*
X45940000Y-50600000D01*
X42793243Y-43353903D02*
X42853903Y-43353903D01*
X42853903Y-43353903D02*
X45940000Y-46440000D01*
%TO.N,Board_1-GND*%
X47200000Y-27162500D02*
X47200000Y-26400000D01*
D42*
X45600000Y-27800000D02*
X46350000Y-27050000D01*
D39*
X49200000Y-22600350D02*
X49500350Y-22300000D01*
X46237500Y-26937500D02*
X46350000Y-27050000D01*
X46237500Y-26200000D02*
X47000000Y-26200000D01*
X46462500Y-27162500D02*
X46350000Y-27050000D01*
D41*
X52200000Y-28350000D02*
X52200000Y-29600000D01*
X42850000Y-14000000D02*
X42800000Y-14000000D01*
D39*
X45700000Y-42600000D02*
X46050000Y-42250000D01*
X44867767Y-42600000D02*
X45700000Y-42600000D01*
D41*
X44150000Y-12700000D02*
X42850000Y-14000000D01*
D40*
X43412080Y-19825000D02*
X43268540Y-19968540D01*
D39*
X54600000Y-37932233D02*
X54600000Y-37150000D01*
X47200000Y-26400000D02*
X47100000Y-26300000D01*
D41*
X47200000Y-27162500D02*
X46462500Y-27162500D01*
D42*
X45600000Y-29025000D02*
X45600000Y-27800000D01*
D39*
X49200000Y-24000000D02*
X49300000Y-24100000D01*
X49200000Y-23237500D02*
X49200000Y-22600350D01*
X46050000Y-42250000D02*
X47950000Y-42250000D01*
D40*
X44700000Y-19825000D02*
X43412080Y-19825000D01*
D39*
X47000000Y-26200000D02*
X47100000Y-26300000D01*
X42675000Y-24800000D02*
X41600000Y-24800000D01*
D40*
X44700000Y-19825000D02*
X46400000Y-19825000D01*
D39*
X49839340Y-43400000D02*
X49100000Y-43400000D01*
X49200000Y-23237500D02*
X49200000Y-24000000D01*
X54039689Y-38492544D02*
X54600000Y-37932233D01*
X40406757Y-38846097D02*
X39912673Y-38352013D01*
D42*
X46237500Y-26200000D02*
X46237500Y-26937500D01*
D39*
X42775000Y-24700000D02*
X42675000Y-24800000D01*
X46237500Y-25700000D02*
X47700000Y-25700000D01*
X47700000Y-25700000D02*
X48200000Y-25200000D01*
D41*
X46237500Y-25700000D02*
X46237500Y-26200000D01*
D39*
X50925000Y-22275000D02*
X50900000Y-22300000D01*
X47950000Y-42250000D02*
X49100000Y-43400000D01*
X49500350Y-22300000D02*
X50900000Y-22300000D01*
X52100000Y-22275000D02*
X50925000Y-22275000D01*
D41*
X42625000Y-22900000D02*
X41600000Y-22900000D01*
D39*
X39912673Y-38352013D02*
X38800000Y-38352013D01*
X50946097Y-42293243D02*
X49839340Y-43400000D01*
X54600000Y-36050000D02*
X54600000Y-37150000D01*
X44207456Y-41939689D02*
X44867767Y-42600000D01*
D42*
X46350000Y-27050000D02*
X47100000Y-26300000D01*
D40*
%TO.N,Board_1-Net-(C2-Pad1)*%
X44700000Y-21375000D02*
X46237500Y-22912500D01*
X46237500Y-22912500D02*
X46237500Y-24200000D01*
D42*
%TO.N,Board_1-Net-(L1-Pad1)*%
X48000000Y-28100000D02*
X48000000Y-27200000D01*
X48700000Y-28800000D02*
X48000000Y-28100000D01*
X48000000Y-27200000D02*
X47962500Y-27162500D01*
D39*
%TO.N,Board_1-Net-(R1-Pad2)*%
X44425000Y-24700000D02*
X44425000Y-26300000D01*
X44425000Y-24700000D02*
X45138478Y-24700000D01*
X45638478Y-25200000D02*
X46237500Y-25200000D01*
X45138478Y-24700000D02*
X45638478Y-25200000D01*
%TO.N,Board_1-Net-(R3-Pad1)*%
X50162500Y-24200000D02*
X51825000Y-24200000D01*
X51825000Y-24200000D02*
X52100000Y-23925000D01*
%TO.N,Board_1-Net-(U1-Pad17)*%
X48925126Y-39300000D02*
X50238990Y-40613864D01*
X44561010Y-40613864D02*
X45874874Y-39300000D01*
X45874874Y-39300000D02*
X48925126Y-39300000D01*
%TO.N,Board_2-/AIN*%
X84850000Y-13550000D02*
X82424520Y-11124520D01*
X82797392Y-20049030D02*
X83378457Y-20049030D01*
X82424520Y-11124520D02*
X81953448Y-11124520D01*
D40*
X86400000Y-9550000D02*
X86450000Y-9550000D01*
D39*
X83650000Y-12300000D02*
X86400000Y-9550000D01*
X80207835Y-11126449D02*
X79300000Y-12034284D01*
X81951519Y-11126449D02*
X80207835Y-11126449D01*
X80350000Y-22496422D02*
X82797392Y-20049030D01*
X83378457Y-20049030D02*
X84850000Y-18577487D01*
X81953448Y-11124520D02*
X81951519Y-11126449D01*
X79300000Y-12034284D02*
X79300000Y-12700000D01*
X84850000Y-18577487D02*
X84850000Y-13550000D01*
X80350000Y-23237500D02*
X80350000Y-22496422D01*
%TO.N,Board_2-/CLK*%
X71348533Y-27298533D02*
X71348533Y-21001467D01*
X78300000Y-12700000D02*
X78300000Y-12075378D01*
X81910707Y-36250827D02*
X80359880Y-34700000D01*
X76810660Y-38600000D02*
X77708482Y-38600000D01*
X78300000Y-12075378D02*
X75174622Y-8950000D01*
X83656757Y-38846097D02*
X81910707Y-37100047D01*
X71348533Y-21001467D02*
X78300000Y-14050000D01*
X75503903Y-39906757D02*
X76810660Y-38600000D01*
X78300000Y-14050000D02*
X78300000Y-12700000D01*
X81910707Y-37100047D02*
X81910707Y-36923939D01*
X75174622Y-8950000D02*
X69350000Y-8950000D01*
X80359880Y-34700000D02*
X78750000Y-34700000D01*
X69350000Y-8950000D02*
X66600000Y-11700000D01*
X81910707Y-36923939D02*
X81910707Y-36250827D01*
X78750000Y-34700000D02*
X71348533Y-27298533D01*
%TO.N,Board_2-/DIN*%
X75289616Y-8500000D02*
X67650000Y-8500000D01*
X79050000Y-34300000D02*
X71750000Y-27000000D01*
X67650000Y-8500000D02*
X66550000Y-9600000D01*
X78800000Y-14150000D02*
X78800000Y-12700000D01*
X78800000Y-12010384D02*
X75289616Y-8500000D01*
X78800000Y-12700000D02*
X78800000Y-12010384D01*
X71750000Y-21200000D02*
X78800000Y-14150000D01*
X80524874Y-34300000D02*
X79050000Y-34300000D01*
X84363864Y-38138990D02*
X80524874Y-34300000D01*
X71750000Y-27000000D02*
X71750000Y-21200000D01*
%TO.N,Board_2-/DOUT*%
X74650000Y-33400000D02*
X74650000Y-32400000D01*
X74650000Y-32400000D02*
X70150000Y-27900000D01*
X76530131Y-12000480D02*
X72949520Y-12000480D01*
X76800000Y-12270349D02*
X76530131Y-12000480D01*
X70150000Y-27900000D02*
X70150000Y-20470000D01*
X73736136Y-38138990D02*
X74650000Y-37225126D01*
X76800000Y-13820000D02*
X76800000Y-12700000D01*
X74650000Y-37225126D02*
X74650000Y-33400000D01*
X76800000Y-12700000D02*
X76800000Y-12270349D01*
X70150000Y-20470000D02*
X76800000Y-13820000D01*
X72949520Y-12000480D02*
X66750000Y-18200000D01*
D40*
%TO.N,Board_2-/EN*%
X79350000Y-19600000D02*
X79350000Y-18225000D01*
D41*
X78050000Y-21625000D02*
X78850000Y-22425000D01*
D40*
X79350000Y-20075000D02*
X79350000Y-19600000D01*
X78050000Y-21375000D02*
X79350000Y-20075000D01*
D41*
X78850000Y-22425000D02*
X78850000Y-23237500D01*
D39*
%TO.N,Board_2-/LE*%
X82596097Y-39906757D02*
X81673463Y-38984123D01*
X80250000Y-37736972D02*
X80250000Y-35800000D01*
X79950000Y-35500000D02*
X78350000Y-35500000D01*
X71150000Y-11500000D02*
X66750000Y-15900000D01*
X81673463Y-38984123D02*
X81497151Y-38984123D01*
X70549511Y-27699511D02*
X70549511Y-20635483D01*
X78350000Y-35500000D02*
X75100000Y-32250000D01*
X74443243Y-38846097D02*
X75100000Y-38189340D01*
X66750000Y-15900000D02*
X66600000Y-15900000D01*
X80250000Y-35800000D02*
X79950000Y-35500000D01*
X75100000Y-32250000D02*
X70549511Y-27699511D01*
X75100000Y-35000000D02*
X75100000Y-32250000D01*
X77300000Y-12205356D02*
X76594644Y-11500000D01*
X77300000Y-12700000D02*
X77300000Y-12205356D01*
X75100000Y-38189340D02*
X75100000Y-35750000D01*
X70549511Y-20635483D02*
X77300000Y-13884994D01*
X77300000Y-13884994D02*
X77300000Y-12700000D01*
X76594644Y-11500000D02*
X71150000Y-11500000D01*
X81497151Y-38984123D02*
X80250000Y-37736972D01*
X75100000Y-35750000D02*
X75100000Y-35000000D01*
%TO.N,Board_2-/OUT-*%
X81812500Y-24700000D02*
X87850000Y-24700000D01*
%TO.N,Board_2-/POL*%
X78050000Y-37300000D02*
X79450000Y-37300000D01*
X80949500Y-37871478D02*
X80949500Y-37300000D01*
X76696447Y-37300000D02*
X78050000Y-37300000D01*
X78550000Y-35100000D02*
X80150000Y-35100000D01*
X77800000Y-12700000D02*
X77800000Y-12140367D01*
X80150000Y-35100000D02*
X80949500Y-35899500D01*
X70949022Y-20800978D02*
X70949022Y-27499022D01*
X81981059Y-38584612D02*
X81662634Y-38584612D01*
X82949651Y-39553204D02*
X81981059Y-38584612D01*
X77800000Y-12700000D02*
X77800000Y-13950000D01*
X69349511Y-11100489D02*
X66650000Y-13800000D01*
X66650000Y-13800000D02*
X66600000Y-13800000D01*
X77800000Y-12140367D02*
X76760122Y-11100489D01*
X74796796Y-39199651D02*
X76696447Y-37300000D01*
X80949500Y-35899500D02*
X80949500Y-37300000D01*
X77800000Y-13950000D02*
X70949022Y-20800978D01*
X81662634Y-38584612D02*
X80949500Y-37871478D01*
X76760122Y-11100489D02*
X69349511Y-11100489D01*
X70949022Y-27499022D02*
X78550000Y-35100000D01*
D41*
%TO.N,Board_2-/PZT_Common*%
X92090000Y-45317980D02*
X92090000Y-58290480D01*
D39*
X86750349Y-39553204D02*
X87811010Y-40613864D01*
X87811010Y-41586135D02*
X87457456Y-41939689D01*
D41*
X70288991Y-40613864D02*
X70642544Y-40260311D01*
X70288990Y-40613864D02*
X70288991Y-40613864D01*
D39*
X87811010Y-41038990D02*
X87811010Y-41586135D01*
D41*
X70996097Y-39906757D02*
X70996098Y-39906757D01*
X70996098Y-39906757D02*
X71349651Y-39553204D01*
X70642543Y-41939689D02*
X70288990Y-41586136D01*
X70642544Y-40260310D02*
X70996097Y-39906757D01*
X87811010Y-41038990D02*
X92090000Y-45317980D01*
X70642543Y-41939689D02*
X66090000Y-46492232D01*
X70642544Y-40260311D02*
X70642544Y-40260310D01*
X70288990Y-41586136D02*
X70288990Y-40613864D01*
X66090000Y-46492232D02*
X66090000Y-58240480D01*
X70642544Y-41939689D02*
X70642543Y-41939689D01*
D39*
X87811010Y-40613864D02*
X87811010Y-41038990D01*
D40*
%TO.N,Board_2-/REG*%
X79350000Y-16575000D02*
X78225000Y-17700000D01*
X80150000Y-13800000D02*
X80165006Y-13800000D01*
X80165006Y-13800000D02*
X80800000Y-13165006D01*
X80800000Y-13165006D02*
X80800000Y-12700000D01*
X78225000Y-17700000D02*
X78100000Y-17700000D01*
D39*
%TO.N,Board_2-/SCL*%
X82775000Y-12574290D02*
X82775000Y-15850000D01*
D40*
X82775000Y-17200000D02*
X83499520Y-17924520D01*
D39*
X82775000Y-17200000D02*
X82775000Y-15850000D01*
X79800000Y-12700000D02*
X79800000Y-12099290D01*
D40*
X82611198Y-19599520D02*
X79850000Y-22360718D01*
D39*
X80373321Y-11525969D02*
X81726680Y-11525970D01*
D40*
X79850000Y-22360718D02*
X79850000Y-23237500D01*
X83192263Y-19599520D02*
X82611198Y-19599520D01*
X83499520Y-19292263D02*
X83192263Y-19599520D01*
X83499520Y-17924520D02*
X83499520Y-19292263D01*
D39*
X81726680Y-11525970D02*
X82775000Y-12574290D01*
X79800000Y-12099290D02*
X80373321Y-11525969D01*
%TO.N,Board_2-/SDA*%
X82050480Y-12485474D02*
X82050480Y-14499520D01*
X82050480Y-14499520D02*
X82050480Y-18075480D01*
X82050480Y-18075480D02*
X82775000Y-18800000D01*
X80559514Y-11975480D02*
X81540486Y-11975480D01*
X80300000Y-12234994D02*
X80559514Y-11975480D01*
D40*
X79350000Y-22225000D02*
X79350000Y-23237500D01*
X82775000Y-18800000D02*
X79350000Y-22225000D01*
D39*
X80300000Y-12700000D02*
X80300000Y-12234994D01*
X81540486Y-11975480D02*
X82050480Y-12485474D01*
%TO.N,Board_2-/VBIAS*%
X76300000Y-13754994D02*
X69750482Y-20304512D01*
X69750482Y-20304512D02*
X69750482Y-20499518D01*
X72410311Y-38492544D02*
X71450000Y-37532233D01*
X66600000Y-20150000D02*
X69400964Y-20150000D01*
X81924718Y-42257515D02*
X80807515Y-42257515D01*
X76300000Y-12700000D02*
X76300000Y-13754994D01*
X71450000Y-37532233D02*
X71450000Y-36700000D01*
X69400964Y-20150000D02*
X69750482Y-20499518D01*
X82242544Y-41939689D02*
X81924718Y-42257515D01*
X69750482Y-35000482D02*
X71450000Y-36700000D01*
X69750482Y-20499518D02*
X69750482Y-35000482D01*
X80807515Y-42257515D02*
X80450000Y-41900000D01*
D41*
%TO.N,Board_2-/VBST*%
X81549511Y-26899511D02*
X81286522Y-27162500D01*
X81286522Y-27162500D02*
X80850000Y-27162500D01*
D39*
X85100000Y-26450000D02*
X83400000Y-26450000D01*
X86200000Y-29600000D02*
X86200000Y-27550000D01*
D41*
X82562500Y-26450000D02*
X81812500Y-25700000D01*
X81812500Y-25700000D02*
X81812500Y-26200000D01*
D39*
X86200000Y-27550000D02*
X85100000Y-26450000D01*
D41*
X73250000Y-26300000D02*
X74425000Y-26300000D01*
X83850000Y-26450000D02*
X82562500Y-26450000D01*
X81812500Y-26636522D02*
X81549511Y-26899511D01*
X81812500Y-26200000D02*
X81812500Y-26636522D01*
D39*
X83400000Y-26450000D02*
X82650000Y-27200000D01*
D42*
%TO.N,Board_2-/VDD*%
X77825000Y-30575000D02*
X78250000Y-31000000D01*
D39*
X82088664Y-37985111D02*
X81910955Y-37985111D01*
D42*
X83550000Y-34100000D02*
X83550000Y-35100000D01*
X81450000Y-13600000D02*
X81450000Y-12700000D01*
X80050000Y-15000000D02*
X81450000Y-13600000D01*
X76102126Y-30575000D02*
X72350000Y-26822874D01*
D40*
X78369196Y-37819196D02*
X78750000Y-38200000D01*
D42*
X72350000Y-21700000D02*
X72350000Y-21477126D01*
D40*
X74725000Y-21600000D02*
X72450000Y-21600000D01*
D39*
X81910955Y-37985111D02*
X81910222Y-37984378D01*
D40*
X81125000Y-18800000D02*
X81125000Y-17200000D01*
X76025000Y-22900000D02*
X76025000Y-23297328D01*
D42*
X78250000Y-31000000D02*
X80250000Y-31000000D01*
D40*
X81125000Y-17200000D02*
X81125000Y-16075000D01*
D39*
X83750000Y-33900000D02*
X83550000Y-34100000D01*
D42*
X77250000Y-30575000D02*
X77825000Y-30575000D01*
X80350000Y-30900000D02*
X83550000Y-34100000D01*
D40*
X72450000Y-21600000D02*
X72350000Y-21700000D01*
D42*
X72350000Y-21477126D02*
X78827126Y-15000000D01*
D40*
X77427672Y-24700000D02*
X77887500Y-24700000D01*
D39*
X79150000Y-40700000D02*
X79950000Y-39900000D01*
D40*
X83303204Y-39199651D02*
X82088664Y-37985111D01*
D39*
X86250000Y-33900000D02*
X83750000Y-33900000D01*
D40*
X81125000Y-16075000D02*
X80050000Y-15000000D01*
D42*
X72350000Y-26822874D02*
X72350000Y-21700000D01*
D40*
X76884357Y-37819196D02*
X78369196Y-37819196D01*
X75150349Y-39553204D02*
X76884357Y-37819196D01*
D42*
X80250000Y-31000000D02*
X80350000Y-30900000D01*
D40*
X76025000Y-23297328D02*
X77427672Y-24700000D01*
X76025000Y-22900000D02*
X74725000Y-21600000D01*
D42*
X78827126Y-15000000D02*
X80050000Y-15000000D01*
X77250000Y-30575000D02*
X76102126Y-30575000D01*
D41*
%TO.N,Board_2-/VPP*%
X82250000Y-25200000D02*
X82252151Y-25202151D01*
D40*
X79150000Y-43500000D02*
X79150000Y-44700000D01*
D39*
X86250000Y-31750000D02*
X87800000Y-31750000D01*
D41*
X87850000Y-27400000D02*
X87850000Y-31800000D01*
D39*
X87800000Y-31750000D02*
X87850000Y-31800000D01*
D40*
X79150000Y-44700000D02*
X77910660Y-44700000D01*
D41*
X85652151Y-25202151D02*
X87850000Y-27400000D01*
D40*
X86043243Y-38846097D02*
X84850000Y-40039340D01*
X77910660Y-44700000D02*
X75503903Y-42293243D01*
X74310660Y-41100000D02*
X75503903Y-42293243D01*
D41*
X82252151Y-25202151D02*
X85652151Y-25202151D01*
X87850000Y-37039340D02*
X86969670Y-37919670D01*
X86969670Y-37919670D02*
X86043243Y-38846097D01*
X87850000Y-31800000D02*
X87850000Y-37039340D01*
D39*
%TO.N,Board_2-/reed1*%
X70996097Y-42293243D02*
X70996097Y-42353903D01*
X69590000Y-43760000D02*
X69590000Y-50600000D01*
X70996097Y-42353903D02*
X69590000Y-43760000D01*
%TO.N,Board_2-/reed10*%
X75114622Y-43318175D02*
X75468175Y-43318175D01*
X78590000Y-46440000D02*
X78590000Y-50600000D01*
X74796796Y-43000349D02*
X75114622Y-43318175D01*
X75468175Y-43318175D02*
X78590000Y-46440000D01*
%TO.N,Board_2-/reed11*%
X82731825Y-43318175D02*
X79590000Y-46460000D01*
X79590000Y-46460000D02*
X79590000Y-50600000D01*
X83303204Y-43000349D02*
X82985378Y-43318175D01*
X82985378Y-43318175D02*
X82731825Y-43318175D01*
%TO.N,Board_2-/reed12*%
X83656757Y-43353903D02*
X83656757Y-43393243D01*
X83656757Y-43393243D02*
X80590000Y-46460000D01*
X80590000Y-46460000D02*
X80590000Y-50600000D01*
%TO.N,Board_2-/reed13*%
X81590000Y-46460000D02*
X81590000Y-50600000D01*
X83692485Y-44025282D02*
X83692485Y-44357515D01*
X83692485Y-44357515D02*
X81590000Y-46460000D01*
X84010311Y-43707456D02*
X83692485Y-44025282D01*
%TO.N,Board_2-/reed14*%
X84363864Y-44061010D02*
X84363864Y-44686136D01*
X84363864Y-44686136D02*
X82590000Y-46460000D01*
X82590000Y-46460000D02*
X82590000Y-50600000D01*
%TO.N,Board_2-/reed15*%
X83590000Y-46460000D02*
X83590000Y-50600000D01*
X85336136Y-44713864D02*
X83590000Y-46460000D01*
X85336136Y-44061010D02*
X85336136Y-44713864D01*
%TO.N,Board_2-/reed16*%
X86150000Y-44167767D02*
X86150000Y-44900000D01*
X86150000Y-44900000D02*
X84590000Y-46460000D01*
X84590000Y-46460000D02*
X84590000Y-50600000D01*
X85689689Y-43707456D02*
X86150000Y-44167767D01*
%TO.N,Board_2-/reed17*%
X85590000Y-46460000D02*
X85590000Y-50600000D01*
X86043243Y-43353903D02*
X86650000Y-43960660D01*
X86650000Y-45400000D02*
X85590000Y-46460000D01*
X86650000Y-43960660D02*
X86650000Y-45400000D01*
%TO.N,Board_2-/reed18*%
X86590000Y-46460000D02*
X87150000Y-45900000D01*
X86590000Y-50600000D02*
X86590000Y-46460000D01*
X87150000Y-43753553D02*
X86396796Y-43000349D01*
X87150000Y-45900000D02*
X87150000Y-43753553D01*
%TO.N,Board_2-/reed19*%
X87590000Y-43486447D02*
X87590000Y-50600000D01*
X86750349Y-42646796D02*
X87590000Y-43486447D01*
%TO.N,Board_2-/reed2*%
X70590000Y-43406447D02*
X70590000Y-50600000D01*
X71349651Y-42646796D02*
X70590000Y-43406447D01*
%TO.N,Board_2-/reed20*%
X87103903Y-42293243D02*
X88590000Y-43779340D01*
X88590000Y-43779340D02*
X88590000Y-50600000D01*
%TO.N,Board_2-/reed3*%
X71150000Y-46000000D02*
X71590000Y-46440000D01*
X71590000Y-46440000D02*
X71590000Y-50600000D01*
X71703204Y-43000349D02*
X71150000Y-43553553D01*
X71150000Y-43553553D02*
X71150000Y-46000000D01*
%TO.N,Board_2-/reed4*%
X71692975Y-43717685D02*
X71692975Y-45542975D01*
X72056757Y-43353903D02*
X71692975Y-43717685D01*
X71692975Y-45542975D02*
X72590000Y-46440000D01*
X72590000Y-46440000D02*
X72590000Y-50600000D01*
%TO.N,Board_2-/reed5*%
X72092485Y-44025282D02*
X72092485Y-44942485D01*
X73590000Y-46440000D02*
X73590000Y-50600000D01*
X72092485Y-44942485D02*
X73590000Y-46440000D01*
X72410311Y-43707456D02*
X72092485Y-44025282D01*
%TO.N,Board_2-/reed6*%
X72763864Y-44613864D02*
X74590000Y-46440000D01*
X74590000Y-46440000D02*
X74590000Y-50600000D01*
X72763864Y-44061010D02*
X72763864Y-44613864D01*
%TO.N,Board_2-/reed7*%
X75590000Y-46440000D02*
X75590000Y-50600000D01*
X73736136Y-44061010D02*
X73736136Y-44586136D01*
X73736136Y-44586136D02*
X75590000Y-46440000D01*
%TO.N,Board_2-/reed8*%
X74407515Y-44257515D02*
X76590000Y-46440000D01*
X74407515Y-44025282D02*
X74407515Y-44257515D01*
X76590000Y-46440000D02*
X76590000Y-50600000D01*
X74089689Y-43707456D02*
X74407515Y-44025282D01*
%TO.N,Board_2-/reed9*%
X77590000Y-46440000D02*
X77590000Y-50600000D01*
X74443243Y-43353903D02*
X74503903Y-43353903D01*
X74503903Y-43353903D02*
X77590000Y-46440000D01*
%TO.N,Board_2-GND*%
X78850000Y-27162500D02*
X78850000Y-26400000D01*
D42*
X77250000Y-27800000D02*
X78000000Y-27050000D01*
D39*
X80850000Y-22600350D02*
X81150350Y-22300000D01*
X77887500Y-26937500D02*
X78000000Y-27050000D01*
X77887500Y-26200000D02*
X78650000Y-26200000D01*
X78112500Y-27162500D02*
X78000000Y-27050000D01*
D41*
X83850000Y-28350000D02*
X83850000Y-29600000D01*
X74500000Y-14000000D02*
X74450000Y-14000000D01*
D39*
X77350000Y-42600000D02*
X77700000Y-42250000D01*
X76517767Y-42600000D02*
X77350000Y-42600000D01*
D41*
X75800000Y-12700000D02*
X74500000Y-14000000D01*
D40*
X75062080Y-19825000D02*
X74918540Y-19968540D01*
D39*
X86250000Y-37932233D02*
X86250000Y-37150000D01*
X78850000Y-26400000D02*
X78750000Y-26300000D01*
D41*
X78850000Y-27162500D02*
X78112500Y-27162500D01*
D42*
X77250000Y-29025000D02*
X77250000Y-27800000D01*
D39*
X80850000Y-24000000D02*
X80950000Y-24100000D01*
X80850000Y-23237500D02*
X80850000Y-22600350D01*
X77700000Y-42250000D02*
X79600000Y-42250000D01*
D40*
X76350000Y-19825000D02*
X75062080Y-19825000D01*
D39*
X78650000Y-26200000D02*
X78750000Y-26300000D01*
X74325000Y-24800000D02*
X73250000Y-24800000D01*
D40*
X76350000Y-19825000D02*
X78050000Y-19825000D01*
D39*
X81489340Y-43400000D02*
X80750000Y-43400000D01*
X80850000Y-23237500D02*
X80850000Y-24000000D01*
X85689689Y-38492544D02*
X86250000Y-37932233D01*
X72056757Y-38846097D02*
X71562673Y-38352013D01*
D42*
X77887500Y-26200000D02*
X77887500Y-26937500D01*
D39*
X74425000Y-24700000D02*
X74325000Y-24800000D01*
X77887500Y-25700000D02*
X79350000Y-25700000D01*
X79350000Y-25700000D02*
X79850000Y-25200000D01*
D41*
X77887500Y-25700000D02*
X77887500Y-26200000D01*
D39*
X82575000Y-22275000D02*
X82550000Y-22300000D01*
X79600000Y-42250000D02*
X80750000Y-43400000D01*
X81150350Y-22300000D02*
X82550000Y-22300000D01*
X83750000Y-22275000D02*
X82575000Y-22275000D01*
D41*
X74275000Y-22900000D02*
X73250000Y-22900000D01*
D39*
X71562673Y-38352013D02*
X70450000Y-38352013D01*
X82596097Y-42293243D02*
X81489340Y-43400000D01*
X86250000Y-36050000D02*
X86250000Y-37150000D01*
X75857456Y-41939689D02*
X76517767Y-42600000D01*
D42*
X78000000Y-27050000D02*
X78750000Y-26300000D01*
D40*
%TO.N,Board_2-Net-(C2-Pad1)*%
X76350000Y-21375000D02*
X77887500Y-22912500D01*
X77887500Y-22912500D02*
X77887500Y-24200000D01*
D42*
%TO.N,Board_2-Net-(L1-Pad1)*%
X79650000Y-28100000D02*
X79650000Y-27200000D01*
X80350000Y-28800000D02*
X79650000Y-28100000D01*
X79650000Y-27200000D02*
X79612500Y-27162500D01*
D39*
%TO.N,Board_2-Net-(R1-Pad2)*%
X76075000Y-24700000D02*
X76075000Y-26300000D01*
X76075000Y-24700000D02*
X76788478Y-24700000D01*
X77288478Y-25200000D02*
X77887500Y-25200000D01*
X76788478Y-24700000D02*
X77288478Y-25200000D01*
%TO.N,Board_2-Net-(R3-Pad1)*%
X81812500Y-24200000D02*
X83475000Y-24200000D01*
X83475000Y-24200000D02*
X83750000Y-23925000D01*
%TO.N,Board_2-Net-(U1-Pad17)*%
X80575126Y-39300000D02*
X81888990Y-40613864D01*
X76211010Y-40613864D02*
X77524874Y-39300000D01*
X77524874Y-39300000D02*
X80575126Y-39300000D01*
%TD*%
%TA.AperFunction,Conductor*%
%TO.N,Board_0-/fill*%
G36*
X26092121Y-66820002D02*
G01*
X26138614Y-66873658D01*
X26150000Y-66926000D01*
X26150000Y-94974000D01*
X26129998Y-95042121D01*
X26076342Y-95088614D01*
X26024000Y-95100000D01*
X5576000Y-95100000D01*
X5507879Y-95079998D01*
X5461386Y-95026342D01*
X5450000Y-94974000D01*
X5450000Y-66926000D01*
X5470002Y-66857879D01*
X5523658Y-66811386D01*
X5576000Y-66800000D01*
X26024000Y-66800000D01*
X26092121Y-66820002D01*
G37*
%TD.AperFunction*%
%TD*%
%TA.AperFunction,Conductor*%
%TO.N,Board_1-/fill*%
G36*
X57742121Y-66820002D02*
G01*
X57788614Y-66873658D01*
X57800000Y-66926000D01*
X57800000Y-94974000D01*
X57779998Y-95042121D01*
X57726342Y-95088614D01*
X57674000Y-95100000D01*
X37226000Y-95100000D01*
X37157879Y-95079998D01*
X37111386Y-95026342D01*
X37100000Y-94974000D01*
X37100000Y-66926000D01*
X37120002Y-66857879D01*
X37173658Y-66811386D01*
X37226000Y-66800000D01*
X57674000Y-66800000D01*
X57742121Y-66820002D01*
G37*
%TD.AperFunction*%
%TD*%
%TA.AperFunction,Conductor*%
%TO.N,Board_2-/fill*%
G36*
X89392121Y-66820002D02*
G01*
X89438614Y-66873658D01*
X89450000Y-66926000D01*
X89450000Y-94974000D01*
X89429998Y-95042121D01*
X89376342Y-95088614D01*
X89324000Y-95100000D01*
X68876000Y-95100000D01*
X68807879Y-95079998D01*
X68761386Y-95026342D01*
X68750000Y-94974000D01*
X68750000Y-66926000D01*
X68770002Y-66857879D01*
X68823658Y-66811386D01*
X68876000Y-66800000D01*
X89324000Y-66800000D01*
X89392121Y-66820002D01*
G37*
%TD.AperFunction*%
%TD*%
M02*
