%TF.GenerationSoftware,KiCad,Pcbnew,(6.0.5)*%
%TF.CreationDate,2022-11-09T23:01:59+01:00*%
%TF.ProjectId,piezo_driver_panel,7069657a-6f5f-4647-9269-7665725f7061,rev?*%
%TF.SameCoordinates,PXe4e1c0PYe4e1c0*%
%TF.FileFunction,Profile,NP*%
%FSLAX46Y46*%
G04 Gerber Fmt 4.6, Leading zero omitted, Abs format (unit mm)*
G04 Created by KiCad (PCBNEW (6.0.5)) date 2022-11-09 23:01:59*
%MOMM*%
%LPD*%
G01*
G04 APERTURE LIST*
%TA.AperFunction,Profile*%
%ADD10C,0.100000*%
%TD*%
G04 APERTURE END LIST*
D10*
X82842125Y-99543519D02*
X82824637Y-99588855D01*
X23211144Y-100124637D02*
X23166721Y-100104946D01*
X94942136Y-100200297D02*
X94941655Y-100200201D01*
X23256480Y-100142125D02*
X23211144Y-100124637D01*
X8825278Y-98061952D02*
X8855173Y-98100259D01*
X71553138Y-100180974D02*
X71505262Y-100189281D01*
X86066847Y-7060012D02*
X86040851Y-7018960D01*
X94949870Y-100208830D02*
X94949798Y-100208344D01*
X43701195Y-5941423D02*
X43704770Y-5892963D01*
X43956460Y-5325158D02*
X43989966Y-5289966D01*
X23396861Y-7480974D02*
X23349450Y-7470328D01*
X40533152Y-7060012D02*
X40505173Y-7099740D01*
X54269025Y-98496861D02*
X54279671Y-98449450D01*
X43989966Y-7210033D02*
X43956460Y-7174841D01*
X50638855Y-7424637D02*
X50593519Y-7442125D01*
X12846861Y-7480974D02*
X12799450Y-7470328D01*
X94787650Y-104745252D02*
X94787778Y-104745043D01*
X50993539Y-5325158D02*
X51025278Y-5361952D01*
X82333278Y-5095053D02*
X82376681Y-5116900D01*
X8974637Y-98311144D02*
X8992125Y-98356480D01*
X0Y-100212272D02*
X0Y-104187727D01*
X72209148Y-7018960D02*
X72183152Y-7060012D01*
X44223318Y-7383099D02*
X44181039Y-7359148D01*
X8954946Y-99633278D02*
X8933099Y-99676681D01*
X94945786Y-104285759D02*
X94949397Y-104212257D01*
X8438855Y-97775362D02*
X8483278Y-97795053D01*
X75379671Y-6750549D02*
X75369025Y-6703138D01*
X19483099Y-98223318D02*
X19504946Y-98266721D01*
X94332793Y-76495D02*
X94332340Y-76307D01*
X12190851Y-98181039D02*
X12216847Y-98139987D01*
X75789987Y-100033152D02*
X75750259Y-100005173D01*
X94574535Y-104980321D02*
X94574731Y-104980172D01*
X6917Y-97699440D02*
X7387Y-97699583D01*
X94665348Y-301986D02*
X94665181Y-301806D01*
X54279671Y-5749450D02*
X54292631Y-5702619D01*
X301806Y-284818D02*
X293281Y-292934D01*
X18850549Y-7470328D02*
X18803138Y-7480974D01*
X23302619Y-100157368D02*
X23256480Y-100142125D01*
X94949397Y-104212257D02*
X94949406Y-104212012D01*
X43840851Y-5481039D02*
X43866847Y-5439987D01*
X94332340Y-76307D02*
X94321358Y-72071D01*
X85975362Y-99588855D02*
X85957874Y-99543519D01*
X19589281Y-5844737D02*
X19595229Y-5892963D01*
X721619Y-40077D02*
X721382Y-40140D01*
X75639966Y-99910033D02*
X75606460Y-99874841D01*
X54906480Y-100142125D02*
X54861144Y-100124637D01*
X43924721Y-5361952D02*
X43956460Y-5325158D01*
X54861144Y-7424637D02*
X54816721Y-7404946D01*
X94877928Y-104571358D02*
X94878014Y-104571128D01*
X50993539Y-7174841D02*
X50960033Y-7210033D01*
X76052619Y-7457368D02*
X76006480Y-7442125D01*
X94943082Y-100200559D02*
X94942612Y-100200416D01*
X1878Y-97695703D02*
X2170Y-97696097D01*
X19238047Y-97924721D02*
X19274841Y-97956460D01*
X18755262Y-97710718D02*
X18803138Y-97719025D01*
X40443539Y-7174841D02*
X40410033Y-7210033D01*
X85975362Y-6888855D02*
X85957874Y-6843519D01*
X93937727Y0D02*
X1012272Y0D01*
X71783278Y-100104946D02*
X71738855Y-100124637D01*
X6917Y-4999440D02*
X7387Y-4999583D01*
X9039281Y-99355262D02*
X9030974Y-99403138D01*
X22740851Y-99718960D02*
X22716900Y-99676681D01*
X8724841Y-99943539D02*
X8688047Y-99975278D01*
X75407874Y-5656480D02*
X75425362Y-5611144D01*
X54506460Y-98025158D02*
X54539966Y-97989966D01*
X8344Y-100200201D02*
X7863Y-100200297D01*
X50924841Y-97956460D02*
X50960033Y-97989966D01*
X54999450Y-7470328D02*
X54952619Y-7457368D01*
X76340122Y-7500000D02*
X76291423Y-7498804D01*
X40218960Y-7359148D02*
X40176681Y-7383099D01*
X901768Y-5142D02*
X890086Y-6582D01*
X8483278Y-7404946D02*
X8438855Y-7424637D01*
X12531039Y-7359148D02*
X12489987Y-7333152D01*
X118231Y-528963D02*
X112939Y-539476D01*
X86189966Y-99910033D02*
X86156460Y-99874841D01*
X0Y-1012272D02*
X0Y-4987727D01*
X12450259Y-5194826D02*
X12489987Y-5166847D01*
X8855173Y-99799740D02*
X8825278Y-99838047D01*
X118462Y-104671469D02*
X124264Y-104681711D01*
X19524637Y-99588855D02*
X19504946Y-99633278D01*
X112831Y-104660302D02*
X112939Y-104660523D01*
X94156994Y-22196D02*
X94156756Y-22139D01*
X4296Y-100201878D02*
X3902Y-100202170D01*
X94946097Y-100202170D02*
X94945703Y-100201878D01*
X82870328Y-6750549D02*
X82857368Y-6797380D01*
X914240Y-105195786D02*
X987742Y-105199397D01*
X50638855Y-5075362D02*
X50683278Y-5095053D01*
X54773318Y-5116900D02*
X54816721Y-5095053D01*
X72125278Y-5361952D02*
X72155173Y-5400259D01*
X54292631Y-5702619D02*
X54307874Y-5656480D01*
X12166900Y-6976681D02*
X12145053Y-6933278D01*
X94321128Y-105128014D02*
X94321358Y-105127928D01*
X86792963Y-7495229D02*
X86744737Y-7489281D01*
X12145053Y-5566721D02*
X12166900Y-5523318D01*
X85919025Y-98496861D02*
X85929671Y-98449450D01*
X86016900Y-98223318D02*
X86040851Y-98181039D01*
X112939Y-104660523D02*
X118231Y-104671036D01*
X454956Y-162221D02*
X454747Y-162349D01*
X12166900Y-5523318D02*
X12190851Y-5481039D01*
X12706480Y-7442125D02*
X12661144Y-7424637D01*
X40559148Y-99718960D02*
X40533152Y-99760012D01*
X72274637Y-98311144D02*
X72292125Y-98356480D01*
X72254946Y-99633278D02*
X72233099Y-99676681D01*
X94060156Y-6616D02*
X94059913Y-6582D01*
X75350000Y-99209877D02*
X75350000Y-98690122D01*
X72093539Y-5325158D02*
X72125278Y-5361952D01*
X698392Y-47114D02*
X698160Y-47194D01*
X22740851Y-98181039D02*
X22766847Y-98139987D01*
X50638855Y-100124637D02*
X50593519Y-100142125D01*
X889843Y-105193383D02*
X890086Y-105193417D01*
X22629671Y-6750549D02*
X22619025Y-6703138D01*
X54999450Y-100170328D02*
X54952619Y-100157368D01*
X817049Y-105182586D02*
X889843Y-105193383D01*
X19076681Y-97816900D02*
X19118960Y-97840851D01*
X12450259Y-7305173D02*
X12411952Y-7275278D01*
X85942631Y-98402619D02*
X85957874Y-98356480D01*
X54539966Y-99910033D02*
X54506460Y-99874841D01*
X82643539Y-98025158D02*
X82675278Y-98061952D01*
X40505173Y-7099740D02*
X40475278Y-7138047D01*
X23444737Y-100189281D02*
X23396861Y-100180974D01*
X39950549Y-97729671D02*
X39997380Y-97742631D01*
X94730321Y-104824535D02*
X94774158Y-104765427D01*
X75351195Y-6558576D02*
X75350000Y-6509877D01*
X19570328Y-98449450D02*
X19580974Y-98496861D01*
X94949440Y-97693082D02*
X94949583Y-97692612D01*
X22196Y-793005D02*
X22139Y-793243D01*
X43795053Y-98266721D02*
X43816900Y-98223318D01*
X94948646Y-7505125D02*
X94948394Y-7504704D01*
X94940681Y-97699918D02*
X94941169Y-97699870D01*
X94145271Y-19561D02*
X94144790Y-19465D01*
X85904770Y-6607036D02*
X85901195Y-6558576D01*
X50308576Y-5001195D02*
X50357036Y-5004770D01*
X86602619Y-5042631D02*
X86649450Y-5029671D01*
X416Y-4992612D02*
X559Y-4993082D01*
X39709877Y-7500000D02*
X23590122Y-7500000D01*
X12054770Y-5892963D02*
X12060718Y-5844737D01*
X50500549Y-100170328D02*
X50453138Y-100180974D01*
X19375278Y-7138047D02*
X19343539Y-7174841D01*
X94431711Y-105075735D02*
X94431923Y-105075611D01*
X94722930Y-104834010D02*
X94730172Y-104824731D01*
X75425362Y-5611144D02*
X75445053Y-5566721D01*
X94665181Y-301806D02*
X94657065Y-293281D01*
X71693519Y-7442125D02*
X71647380Y-7457368D01*
X19076681Y-100083099D02*
X19033278Y-100104946D01*
X902256Y-5094D02*
X901768Y-5142D01*
X82759148Y-7018960D02*
X82733152Y-7060012D01*
X12991423Y-7498804D02*
X12942963Y-7495229D01*
X94787778Y-454956D02*
X94787650Y-454747D01*
X12661144Y-5075362D02*
X12706480Y-5057874D01*
X219827Y-104824731D02*
X227069Y-104834010D01*
X23166721Y-100104946D02*
X23123318Y-100083099D01*
X50405262Y-7489281D02*
X50357036Y-7495229D01*
X19570328Y-5749450D02*
X19580974Y-5796861D01*
X44061952Y-97924721D02*
X44100259Y-97894826D01*
X40624637Y-99588855D02*
X40604946Y-99633278D01*
X82857368Y-99497380D02*
X82842125Y-99543519D01*
X50547380Y-100157368D02*
X50500549Y-100170328D01*
X94048231Y-105194857D02*
X94059913Y-105193417D01*
X86040851Y-98181039D02*
X86066847Y-98139987D01*
X43422Y-104490431D02*
X47114Y-104501607D01*
X86339987Y-97866847D02*
X86381039Y-97840851D01*
X54952619Y-7457368D02*
X54906480Y-7442125D01*
X19595229Y-99307036D02*
X19589281Y-99355262D01*
X71600549Y-7470328D02*
X71553138Y-7480974D01*
X901768Y-105194857D02*
X902256Y-105194905D01*
X72274637Y-99588855D02*
X72254946Y-99633278D01*
X44181039Y-97840851D02*
X44223318Y-97816900D01*
X94949087Y-4993997D02*
X94949275Y-4993544D01*
X40410033Y-7210033D02*
X40374841Y-7243539D01*
X39997380Y-7457368D02*
X39950549Y-7470328D01*
X1012272Y0D02*
X1012027Y-3D01*
X12069025Y-99403138D02*
X12060718Y-99355262D01*
X201Y-97691655D02*
X297Y-97692136D01*
X8157036Y-7495229D02*
X8108576Y-7498804D01*
X12531039Y-100059148D02*
X12489987Y-100033152D01*
X75466900Y-99676681D02*
X75445053Y-99633278D01*
X82895229Y-5892963D02*
X82898804Y-5941423D01*
X94495043Y-105037778D02*
X94495252Y-105037650D01*
X94945771Y-913995D02*
X94944905Y-902256D01*
X8825278Y-5361952D02*
X8855173Y-5400259D01*
X914240Y-4213D02*
X913995Y-4228D01*
X434771Y-175697D02*
X434572Y-175841D01*
X8253138Y-7480974D02*
X8205262Y-7489281D01*
X8883152Y-5439987D02*
X8909148Y-5481039D01*
X22889966Y-7210033D02*
X22856460Y-7174841D01*
X118462Y-528530D02*
X118231Y-528963D01*
X71457036Y-97704770D02*
X71505262Y-97710718D01*
X94665348Y-104898013D02*
X94714768Y-104843486D01*
X3Y-1012027D02*
X0Y-1012272D01*
X72345229Y-5892963D02*
X72348804Y-5941423D01*
X12375158Y-5256460D02*
X12411952Y-5224721D01*
X76242963Y-97704770D02*
X76291423Y-97701195D01*
X44496861Y-7480974D02*
X44449450Y-7470328D01*
X22600000Y-6509877D02*
X22600000Y-5990122D01*
X55094737Y-97710718D02*
X55142963Y-97704770D01*
X50993539Y-98025158D02*
X51025278Y-98061952D01*
X75490851Y-7018960D02*
X75466900Y-6976681D01*
X75490851Y-98181039D02*
X75516847Y-98139987D01*
X12190851Y-5481039D02*
X12216847Y-5439987D01*
X50960033Y-7210033D02*
X50924841Y-7243539D01*
X39709877Y-5000000D02*
X39758576Y-5001195D01*
X76291423Y-7498804D02*
X76242963Y-7495229D01*
X8954946Y-98266721D02*
X8974637Y-98311144D01*
X912Y-100206002D02*
X724Y-100206455D01*
X19580974Y-6703138D02*
X19570328Y-6750549D01*
X40140Y-104478617D02*
X43279Y-104489961D01*
X44181039Y-100059148D02*
X44139987Y-100033152D01*
X8760033Y-7210033D02*
X8724841Y-7243539D01*
X19310033Y-97989966D02*
X19343539Y-98025158D01*
X94421036Y-105081768D02*
X94421469Y-105081537D01*
X18988855Y-100124637D02*
X18943519Y-100142125D01*
X94949087Y-97693997D02*
X94949275Y-97693544D01*
X72274637Y-6888855D02*
X72254946Y-6933278D01*
X19433152Y-7060012D02*
X19405173Y-7099740D01*
X8108576Y-97701195D02*
X8157036Y-97704770D01*
X8344Y-4999798D02*
X8830Y-4999870D01*
X3522Y-100202482D02*
X3159Y-100202811D01*
X94950000Y-1012272D02*
X94949996Y-1012027D01*
X40533152Y-98139987D02*
X40559148Y-98181039D01*
X124388Y-104681923D02*
X162221Y-104745043D01*
X94657065Y-293281D02*
X94656718Y-292934D01*
X94495043Y-162221D02*
X94431923Y-124388D01*
X7387Y-97699583D02*
X7863Y-97699702D01*
X12244826Y-5400259D02*
X12274721Y-5361952D01*
X12069025Y-5796861D02*
X12079671Y-5749450D01*
X39758576Y-7498804D02*
X39709877Y-7500000D01*
X57Y-4990190D02*
X57Y-4990190D01*
X23541423Y-7498804D02*
X23492963Y-7495229D01*
X94946097Y-4997829D02*
X94946477Y-4997517D01*
X8526681Y-100083099D02*
X8483278Y-100104946D01*
X82150549Y-7470328D02*
X82103138Y-7480974D01*
X18755262Y-5010718D02*
X18803138Y-5019025D01*
X5142Y-104298231D02*
X6582Y-104309913D01*
X50259877Y-7500000D02*
X44690122Y-7500000D01*
X44690122Y-100200000D02*
X44641423Y-100198804D01*
X2811Y-100203159D02*
X2482Y-100203522D01*
X124264Y-104681711D02*
X124388Y-104681923D01*
X86156460Y-98025158D02*
X86189966Y-97989966D01*
X19433152Y-5439987D02*
X19459148Y-5481039D01*
X40088855Y-7424637D02*
X40043519Y-7442125D01*
X94942136Y-4999702D02*
X94942612Y-4999583D01*
X3Y-100212027D02*
X0Y-100212272D01*
X94949087Y-100206002D02*
X94948877Y-100205558D01*
X201Y-7508344D02*
X129Y-7508830D01*
X54416847Y-99760012D02*
X54390851Y-99718960D01*
X175697Y-104765228D02*
X175841Y-104765427D01*
X94937727Y-100200000D02*
X86890122Y-100200000D01*
X94251607Y-47114D02*
X94240431Y-43422D01*
X50500549Y-97729671D02*
X50547380Y-97742631D01*
X82376681Y-97816900D02*
X82418960Y-97840851D01*
X44544737Y-97710718D02*
X44592963Y-97704770D01*
X12274721Y-7138047D02*
X12244826Y-7099740D01*
X12411952Y-99975278D02*
X12375158Y-99943539D01*
X94949918Y-4990681D02*
X94949942Y-4990190D01*
X75873318Y-5116900D02*
X75916721Y-5095053D01*
X85957874Y-5656480D02*
X85975362Y-5611144D01*
X55191423Y-100198804D02*
X55142963Y-100195229D01*
X39807036Y-5004770D02*
X39855262Y-5010718D01*
X12616721Y-100104946D02*
X12573318Y-100083099D01*
X162221Y-104745043D02*
X162349Y-104745252D01*
X82880974Y-99403138D02*
X82870328Y-99450549D01*
X71988047Y-97924721D02*
X72024841Y-97956460D01*
X94949996Y-97687972D02*
X94950000Y-97687727D01*
X86423318Y-100083099D02*
X86381039Y-100059148D01*
X72350000Y-99209877D02*
X72348804Y-99258576D01*
X43775362Y-98311144D02*
X43795053Y-98266721D01*
X82733152Y-5439987D02*
X82759148Y-5481039D01*
X50500549Y-7470328D02*
X50453138Y-7480974D01*
X793243Y-22139D02*
X793005Y-22196D01*
X18803138Y-5019025D02*
X18850549Y-5029671D01*
X94781352Y-104755197D02*
X94787650Y-104745252D01*
X39997380Y-5042631D02*
X40043519Y-5057874D01*
X8855173Y-7099740D02*
X8825278Y-7138047D01*
X22196Y-104406994D02*
X40077Y-104478380D01*
X19504946Y-99633278D02*
X19483099Y-99676681D01*
X54444826Y-5400259D02*
X54474721Y-5361952D01*
X19375278Y-99838047D02*
X19343539Y-99874841D01*
X39903138Y-97719025D02*
X39950549Y-97729671D01*
X40043519Y-100142125D02*
X39997380Y-100157368D01*
X75789987Y-5166847D02*
X75831039Y-5140851D01*
X987742Y-105199397D02*
X987987Y-105199406D01*
X8393519Y-100142125D02*
X8347380Y-100157368D01*
X628871Y-71985D02*
X628641Y-72071D01*
X94837168Y-104660302D02*
X94868632Y-104593777D01*
X5558Y-4998877D02*
X6002Y-4999087D01*
X75750259Y-97894826D02*
X75789987Y-97866847D01*
X94722619Y-104834389D02*
X94722930Y-104834010D01*
X12573318Y-7383099D02*
X12531039Y-7359148D01*
X71693519Y-100142125D02*
X71647380Y-100157368D01*
X9030974Y-98496861D02*
X9039281Y-98544737D01*
X44025158Y-97956460D02*
X44061952Y-97924721D01*
X44449450Y-5029671D02*
X44496861Y-5019025D01*
X44690122Y-7500000D02*
X44641423Y-7498804D01*
X19118960Y-97840851D02*
X19160012Y-97866847D01*
X82898804Y-98641423D02*
X82900000Y-98690122D01*
X94943544Y-4999275D02*
X94943997Y-4999087D01*
X94949406Y-104212012D02*
X94949996Y-104187972D01*
X22716900Y-6976681D02*
X22695053Y-6933278D01*
X22600000Y-5990122D02*
X22600000Y-5990122D01*
X23081039Y-97840851D02*
X23123318Y-97816900D01*
X86466721Y-5095053D02*
X86511144Y-5075362D01*
X7863Y-7500297D02*
X7387Y-7500416D01*
X94574535Y-219678D02*
X94515427Y-175841D01*
X9030974Y-5796861D02*
X9039281Y-5844737D01*
X86189966Y-7210033D02*
X86156460Y-7174841D01*
X365989Y-227069D02*
X365610Y-227380D01*
X40680974Y-98496861D02*
X40689281Y-98544737D01*
X559Y-97693082D02*
X724Y-97693544D01*
X86556480Y-100142125D02*
X86511144Y-100124637D01*
X71359877Y-5000000D02*
X71408576Y-5001195D01*
X94949583Y-7507387D02*
X94949440Y-7506917D01*
X82418960Y-7359148D02*
X82376681Y-7383099D01*
X50768960Y-97840851D02*
X50810012Y-97866847D01*
X23039987Y-5166847D02*
X23081039Y-5140851D01*
X75675158Y-5256460D02*
X75711952Y-5224721D01*
X8724841Y-7243539D02*
X8688047Y-7275278D01*
X43795053Y-6933278D02*
X43775362Y-6888855D01*
X40218960Y-5140851D02*
X40260012Y-5166847D01*
X12054770Y-99307036D02*
X12051195Y-99258576D01*
X19459148Y-5481039D02*
X19483099Y-5523318D01*
X19580974Y-99403138D02*
X19570328Y-99450549D01*
X72292125Y-6843519D02*
X72274637Y-6888855D01*
X539476Y-105087060D02*
X539697Y-105087168D01*
X292934Y-293281D02*
X284818Y-301806D01*
X75445053Y-6933278D02*
X75425362Y-6888855D01*
X12272Y-5000000D02*
X8059877Y-5000000D01*
X50683278Y-97795053D02*
X50726681Y-97816900D01*
X18658576Y-100198804D02*
X18609877Y-100200000D01*
X86156460Y-99874841D02*
X86124721Y-99838047D01*
X40218960Y-97840851D02*
X40260012Y-97866847D01*
X75354770Y-99307036D02*
X75351195Y-99258576D01*
X12050000Y-99209877D02*
X12050000Y-98690122D01*
X40374841Y-99943539D02*
X40338047Y-99975278D01*
X40260012Y-5166847D02*
X40299740Y-5194826D01*
X76340122Y-5000000D02*
X81909877Y-5000000D01*
X76307Y-617659D02*
X72071Y-628641D01*
X94943997Y-7500912D02*
X94943544Y-7500724D01*
X94941655Y-4999798D02*
X94942136Y-4999702D01*
X12531039Y-97840851D02*
X12573318Y-97816900D01*
X40077Y-721619D02*
X22196Y-793005D01*
X227069Y-104834010D02*
X227380Y-104834389D01*
X40374841Y-5256460D02*
X40410033Y-5289966D01*
X44690122Y-97700000D02*
X50259877Y-97700000D01*
X51192125Y-6843519D02*
X51174637Y-6888855D01*
X54254770Y-99307036D02*
X54251195Y-99258576D01*
X94781352Y-444802D02*
X94781080Y-444394D01*
X93937972Y-3D02*
X93937727Y0D01*
X94035759Y-4213D02*
X93962257Y-602D01*
X987987Y-593D02*
X987742Y-602D01*
X40338047Y-5224721D02*
X40374841Y-5256460D01*
X12125362Y-5611144D02*
X12145053Y-5566721D01*
X19160012Y-5166847D02*
X19199740Y-5194826D01*
X9048804Y-99258576D02*
X9045229Y-99307036D01*
X8610012Y-97866847D02*
X8649740Y-97894826D01*
X94047743Y-105194905D02*
X94048231Y-105194857D01*
X82783099Y-98223318D02*
X82804946Y-98266721D01*
X51055173Y-5400259D02*
X51083152Y-5439987D01*
X23541423Y-5001195D02*
X23590122Y-5000000D01*
X54650259Y-7305173D02*
X54611952Y-7275278D01*
X43704770Y-99307036D02*
X43701195Y-99258576D01*
X8909148Y-7018960D02*
X8883152Y-7060012D01*
X55142963Y-97704770D02*
X55191423Y-97701195D01*
X86556480Y-97757874D02*
X86602619Y-97742631D01*
X284818Y-301806D02*
X284651Y-301986D01*
X8649740Y-97894826D02*
X8688047Y-97924721D01*
X39950549Y-7470328D02*
X39903138Y-7480974D01*
X72254946Y-6933278D02*
X72233099Y-6976681D01*
X8300549Y-100170328D02*
X8253138Y-100180974D01*
X50849740Y-100005173D02*
X50810012Y-100033152D01*
X94825611Y-104681923D02*
X94825735Y-104681711D01*
X23166721Y-5095053D02*
X23211144Y-5075362D01*
X22794826Y-99799740D02*
X22766847Y-99760012D01*
X40505173Y-5400259D02*
X40533152Y-5439987D01*
X54307874Y-98356480D02*
X54325362Y-98311144D01*
X94239961Y-43279D02*
X94228617Y-40140D01*
X82574841Y-7243539D02*
X82538047Y-7275278D01*
X454747Y-105037650D02*
X454956Y-105037778D01*
X19557368Y-6797380D02*
X19542125Y-6843519D01*
X8253138Y-100180974D02*
X8205262Y-100189281D01*
X5094Y-902256D02*
X4228Y-913995D01*
X76291423Y-100198804D02*
X76242963Y-100195229D01*
X44266721Y-97795053D02*
X44311144Y-97775362D01*
X82900000Y-6509877D02*
X82898804Y-6558576D01*
X987987Y-105199406D02*
X1012027Y-105199996D01*
X57Y-4990190D02*
X81Y-4990681D01*
X23166721Y-7404946D02*
X23123318Y-7383099D01*
X51109148Y-98181039D02*
X51133099Y-98223318D01*
X72093539Y-7174841D02*
X72060033Y-7210033D01*
X23123318Y-97816900D02*
X23166721Y-97795053D01*
X19405173Y-98100259D02*
X19433152Y-98139987D01*
X40559148Y-7018960D02*
X40533152Y-7060012D01*
X454956Y-105037778D02*
X518076Y-105075611D01*
X12339966Y-7210033D02*
X12306460Y-7174841D01*
X75466900Y-98223318D02*
X75490851Y-98181039D01*
X12244826Y-7099740D02*
X12216847Y-7060012D01*
X50849740Y-7305173D02*
X50810012Y-7333152D01*
X912Y-7506002D02*
X724Y-7506455D01*
X518288Y-105075735D02*
X528530Y-105081537D01*
X8933099Y-5523318D02*
X8954946Y-5566721D01*
X94837060Y-104660523D02*
X94837168Y-104660302D01*
X86423318Y-5116900D02*
X86466721Y-5095053D01*
X94944905Y-902256D02*
X94944857Y-901768D01*
X3902Y-97697829D02*
X4296Y-97698121D01*
X39855262Y-100189281D02*
X39807036Y-100195229D01*
X12145053Y-98266721D02*
X12166900Y-98223318D01*
X18803138Y-7480974D02*
X18755262Y-7489281D01*
X85900000Y-99209877D02*
X85900000Y-98690122D01*
X40410033Y-97989966D02*
X40443539Y-98025158D01*
X54474721Y-98061952D02*
X54506460Y-98025158D01*
X51154946Y-6933278D02*
X51133099Y-6976681D01*
X8992125Y-5656480D02*
X9007368Y-5702619D01*
X23541423Y-97701195D02*
X23590122Y-97700000D01*
X22740851Y-5481039D02*
X22766847Y-5439987D01*
X301986Y-284651D02*
X301806Y-284818D01*
X54731039Y-100059148D02*
X54689987Y-100033152D01*
X75831039Y-100059148D02*
X75789987Y-100033152D01*
X43729671Y-6750549D02*
X43719025Y-6703138D01*
X18609877Y-97700000D02*
X18609877Y-97700000D01*
X94948877Y-100205558D02*
X94948646Y-100205125D01*
X40260012Y-97866847D02*
X40299740Y-97894826D01*
X51248804Y-6558576D02*
X51245229Y-6607036D01*
X82197380Y-5042631D02*
X82243519Y-5057874D01*
X94950000Y-4987727D02*
X94950000Y-1012272D01*
X44266721Y-7404946D02*
X44223318Y-7383099D01*
X82804946Y-99633278D02*
X82783099Y-99676681D01*
X94873692Y-104582340D02*
X94877928Y-104571358D01*
X43700000Y-5990122D02*
X43701195Y-5941423D01*
X40624637Y-5611144D02*
X40642125Y-5656480D01*
X94944874Y-4998646D02*
X94945295Y-4998394D01*
X94947829Y-100203902D02*
X94947517Y-100203522D01*
X71600549Y-97729671D02*
X71647380Y-97742631D01*
X43279Y-710038D02*
X40140Y-721382D01*
X22675362Y-6888855D02*
X22657874Y-6843519D01*
X82538047Y-5224721D02*
X82574841Y-5256460D01*
X22824721Y-99838047D02*
X22794826Y-99799740D01*
X54952619Y-100157368D02*
X54906480Y-100142125D01*
X71600549Y-100170328D02*
X71553138Y-100180974D01*
X94868632Y-606222D02*
X94837168Y-539697D01*
X817049Y-17413D02*
X816806Y-17452D01*
X94240431Y-105156577D02*
X94251607Y-105152885D01*
X51245229Y-6607036D02*
X51239281Y-6655262D01*
X44641423Y-100198804D02*
X44592963Y-100195229D01*
X50638855Y-97775362D02*
X50683278Y-97795053D01*
X76146861Y-7480974D02*
X76099450Y-7470328D01*
X593Y-104212012D02*
X602Y-104212257D01*
X8883152Y-99760012D02*
X8855173Y-99799740D01*
X528530Y-118462D02*
X518288Y-124264D01*
X987742Y-602D02*
X914240Y-4213D01*
X129Y-100208830D02*
X81Y-100209318D01*
X94648193Y-284818D02*
X94648013Y-284651D01*
X12190851Y-7018960D02*
X12166900Y-6976681D01*
X434572Y-105024158D02*
X434771Y-105024302D01*
X19199740Y-100005173D02*
X19160012Y-100033152D01*
X94251607Y-105152885D02*
X94251839Y-105152805D01*
X72233099Y-5523318D02*
X72254946Y-5566721D01*
X698160Y-47194D02*
X628871Y-71985D01*
X559Y-100206917D02*
X416Y-100207387D01*
X71505262Y-97710718D02*
X71553138Y-97719025D01*
X47114Y-698392D02*
X43422Y-709568D01*
X18803138Y-100180974D02*
X18755262Y-100189281D01*
X18943519Y-97757874D02*
X18988855Y-97775362D01*
X94947188Y-4996840D02*
X94947517Y-4996477D01*
X9048804Y-98641423D02*
X9050000Y-98690122D01*
X85995053Y-98266721D02*
X86016900Y-98223318D01*
X40657368Y-99497380D02*
X40642125Y-99543519D01*
X12991423Y-5001195D02*
X13040122Y-5000000D01*
X72348804Y-98641423D02*
X72350000Y-98690122D01*
X94949702Y-97692136D02*
X94949798Y-97691655D01*
X12069025Y-98496861D02*
X12079671Y-98449450D01*
X44100259Y-5194826D02*
X44139987Y-5166847D01*
X19598804Y-5941423D02*
X19600000Y-5990122D01*
X44061952Y-99975278D02*
X44025158Y-99943539D01*
X82643539Y-7174841D02*
X82610033Y-7210033D01*
X22604770Y-6607036D02*
X22601195Y-6558576D01*
X71457036Y-100195229D02*
X71408576Y-100198804D01*
X94909922Y-721619D02*
X94909859Y-721382D01*
X57Y-97690190D02*
X81Y-97690681D01*
X40657368Y-6797380D02*
X40642125Y-6843519D01*
X40338047Y-97924721D02*
X40374841Y-97956460D01*
X8830Y-4999870D02*
X9318Y-4999918D01*
X54650259Y-5194826D02*
X54689987Y-5166847D01*
X50593519Y-97757874D02*
X50638855Y-97775362D01*
X75711952Y-99975278D02*
X75675158Y-99943539D01*
X9020328Y-5749450D02*
X9030974Y-5796861D01*
X12107874Y-5656480D02*
X12125362Y-5611144D01*
X9045229Y-98592963D02*
X9048804Y-98641423D01*
X75360718Y-99355262D02*
X75354770Y-99307036D01*
X94949942Y-4990190D02*
X94949996Y-4987972D01*
X23492963Y-5004770D02*
X23541423Y-5001195D01*
X82783099Y-5523318D02*
X82804946Y-5566721D01*
X55142963Y-7495229D02*
X55094737Y-7489281D01*
X72183152Y-7060012D02*
X72155173Y-7099740D01*
X75675158Y-99943539D02*
X75639966Y-99910033D01*
X805209Y-105180534D02*
X816806Y-105182547D01*
X94941169Y-4999870D02*
X94941655Y-4999798D01*
X22794826Y-7099740D02*
X22766847Y-7060012D01*
X23211144Y-5075362D02*
X23256480Y-5057874D01*
X8933099Y-98223318D02*
X8954946Y-98266721D01*
X19375278Y-98061952D02*
X19405173Y-98100259D01*
X71985Y-628871D02*
X47194Y-698160D01*
X8974637Y-6888855D02*
X8954946Y-6933278D01*
X51174637Y-6888855D02*
X51154946Y-6933278D01*
X75831039Y-7359148D02*
X75789987Y-7333152D01*
X9030974Y-99403138D02*
X9020328Y-99450549D01*
X19459148Y-98181039D02*
X19483099Y-98223318D01*
X8438855Y-7424637D02*
X8393519Y-7442125D01*
X54251195Y-6558576D02*
X54250000Y-6509877D01*
X51230974Y-98496861D02*
X51239281Y-98544737D01*
X76006480Y-100142125D02*
X75961144Y-100124637D01*
X23081039Y-5140851D02*
X23123318Y-5116900D01*
X6917Y-100200559D02*
X6455Y-100200724D01*
X51230974Y-99403138D02*
X51220328Y-99450549D01*
X75516847Y-5439987D02*
X75544826Y-5400259D01*
X94047743Y-5094D02*
X94036004Y-4228D01*
X94410523Y-105087060D02*
X94421036Y-105081768D01*
X40698804Y-6558576D02*
X40695229Y-6607036D01*
X43719025Y-99403138D02*
X43710718Y-99355262D01*
X51109148Y-7018960D02*
X51083152Y-7060012D01*
X22695053Y-5566721D02*
X22716900Y-5523318D01*
X94343777Y-81367D02*
X94343554Y-81265D01*
X22604770Y-5892963D02*
X22610718Y-5844737D01*
X54816721Y-7404946D02*
X54773318Y-7383099D01*
X444394Y-105031080D02*
X444802Y-105031352D01*
X51192125Y-5656480D02*
X51207368Y-5702619D01*
X50259877Y-100200000D02*
X44690122Y-100200000D01*
X12752619Y-100157368D02*
X12706480Y-100142125D01*
X82150549Y-100170328D02*
X82103138Y-100180974D01*
X12752619Y-97742631D02*
X12799450Y-97729671D01*
X93937972Y-105199996D02*
X93962012Y-105199406D01*
X86381039Y-97840851D02*
X86423318Y-97816900D01*
X94949996Y-1012027D02*
X94949406Y-987987D01*
X19589281Y-98544737D02*
X19595229Y-98592963D01*
X4704Y-97698394D02*
X5125Y-97698646D01*
X94948646Y-100205125D02*
X94948394Y-100204704D01*
X86466721Y-100104946D02*
X86423318Y-100083099D01*
X39709877Y-97700000D02*
X39758576Y-97701195D01*
X55191423Y-97701195D02*
X55240122Y-97700000D01*
X86890122Y-100200000D02*
X86841423Y-100198804D01*
X94945771Y-104286004D02*
X94945786Y-104285759D01*
X0Y-7512272D02*
X0Y-97687727D01*
X72233099Y-98223318D02*
X72254946Y-98266721D01*
X4228Y-913995D02*
X4213Y-914240D01*
X71505262Y-5010718D02*
X71553138Y-5019025D01*
X94714768Y-356513D02*
X94665348Y-301986D01*
X19238047Y-5224721D02*
X19274841Y-5256460D01*
X43701195Y-99258576D02*
X43700000Y-99209877D01*
X0Y-4987727D02*
X3Y-4987972D01*
X94035759Y-105195786D02*
X94036004Y-105195771D01*
X12846861Y-100180974D02*
X12799450Y-100170328D01*
X82824637Y-99588855D02*
X82804946Y-99633278D01*
X9809Y-97699942D02*
X12027Y-97699996D01*
X75490851Y-99718960D02*
X75466900Y-99676681D01*
X94515228Y-105024302D02*
X94515427Y-105024158D01*
X76194737Y-97710718D02*
X76242963Y-97704770D01*
X94948877Y-97694441D02*
X94949087Y-97693997D01*
X39903138Y-100180974D02*
X39855262Y-100189281D01*
X9048804Y-5941423D02*
X9050000Y-5990122D01*
X23211144Y-7424637D02*
X23166721Y-7404946D01*
X19595229Y-98592963D02*
X19598804Y-98641423D01*
X43710718Y-5844737D02*
X43719025Y-5796861D01*
X12306460Y-7174841D02*
X12274721Y-7138047D01*
X12054770Y-98592963D02*
X12060718Y-98544737D01*
X43704770Y-98592963D02*
X43710718Y-98544737D01*
X86511144Y-7424637D02*
X86466721Y-7404946D01*
X6002Y-97699087D02*
X6455Y-97699275D01*
X72155173Y-5400259D02*
X72183152Y-5439987D01*
X22601195Y-5941423D02*
X22604770Y-5892963D01*
X709568Y-105156577D02*
X710038Y-105156720D01*
X22600000Y-5990122D02*
X22601195Y-5941423D01*
X8205262Y-7489281D02*
X8157036Y-7495229D01*
X124388Y-518076D02*
X124264Y-518288D01*
X39855262Y-97710718D02*
X39903138Y-97719025D01*
X23590122Y-7500000D02*
X23541423Y-7498804D01*
X54254770Y-6607036D02*
X54251195Y-6558576D01*
X40338047Y-7275278D02*
X40299740Y-7305173D01*
X9050000Y-5990122D02*
X9050000Y-6509877D01*
X8059877Y-7500000D02*
X12272Y-7500000D01*
X40680974Y-5796861D02*
X40689281Y-5844737D01*
X94949942Y-7509809D02*
X94949918Y-7509318D01*
X94944874Y-7501353D02*
X94944441Y-7501122D01*
X12489987Y-7333152D02*
X12450259Y-7305173D01*
X19033278Y-7404946D02*
X18988855Y-7424637D01*
X82675278Y-7138047D02*
X82643539Y-7174841D01*
X22961952Y-99975278D02*
X22925158Y-99943539D01*
X82842125Y-98356480D02*
X82857368Y-98402619D01*
X71408576Y-7498804D02*
X71359877Y-7500000D01*
X94730172Y-104824731D02*
X94730321Y-104824535D01*
X40505173Y-99799740D02*
X40475278Y-99838047D01*
X43989966Y-97989966D02*
X44025158Y-97956460D01*
X71553138Y-97719025D02*
X71600549Y-97729671D01*
X3Y-104187972D02*
X593Y-104212012D01*
X12054770Y-6607036D02*
X12051195Y-6558576D01*
X40559148Y-98181039D02*
X40583099Y-98223318D01*
X8347380Y-100157368D02*
X8300549Y-100170328D01*
X889843Y-6616D02*
X817049Y-17413D01*
X528963Y-118231D02*
X528530Y-118462D01*
X50993539Y-99874841D02*
X50960033Y-99910033D01*
X75544826Y-7099740D02*
X75516847Y-7060012D01*
X902256Y-105194905D02*
X913995Y-105195771D01*
X72345229Y-99307036D02*
X72339281Y-99355262D01*
X86261952Y-7275278D02*
X86225158Y-7243539D01*
X72071Y-104571358D02*
X76307Y-104582340D01*
X19118960Y-100059148D02*
X19076681Y-100083099D01*
X235068Y-104843302D02*
X235231Y-104843486D01*
X94133193Y-17452D02*
X94132950Y-17413D01*
X43704770Y-6607036D02*
X43701195Y-6558576D01*
X22961952Y-97924721D02*
X23000259Y-97894826D01*
X50357036Y-5004770D02*
X50405262Y-5010718D01*
X4213Y-914240D02*
X602Y-987742D01*
X81265Y-606445D02*
X76495Y-617206D01*
X44061952Y-5224721D02*
X44100259Y-5194826D01*
X94947829Y-7503902D02*
X94947517Y-7503522D01*
X8649740Y-7305173D02*
X8610012Y-7333152D01*
X7863Y-97699702D02*
X8344Y-97699798D01*
X40657368Y-5702619D02*
X40670328Y-5749450D01*
X86094826Y-7099740D02*
X86066847Y-7060012D01*
X39807036Y-100195229D02*
X39758576Y-100198804D01*
X3159Y-7502811D02*
X2811Y-7503159D01*
X22856460Y-7174841D02*
X22824721Y-7138047D01*
X8954946Y-6933278D02*
X8933099Y-6976681D01*
X81958576Y-7498804D02*
X81909877Y-7500000D01*
X12190851Y-99718960D02*
X12166900Y-99676681D01*
X297Y-4992136D02*
X416Y-4992612D01*
X23492963Y-7495229D02*
X23444737Y-7489281D01*
X94656718Y-104907065D02*
X94657065Y-104906718D01*
X6455Y-100200724D02*
X6002Y-100200912D01*
X40583099Y-98223318D02*
X40604946Y-98266721D01*
X82574841Y-5256460D02*
X82610033Y-5289966D01*
X40700000Y-98690122D02*
X40700000Y-99209877D01*
X43989966Y-99910033D02*
X43956460Y-99874841D01*
X51083152Y-5439987D02*
X51109148Y-5481039D01*
X54254770Y-5892963D02*
X54260718Y-5844737D01*
X43866847Y-99760012D02*
X43840851Y-99718960D01*
X54474721Y-7138047D02*
X54444826Y-7099740D01*
X86649450Y-100170328D02*
X86602619Y-100157368D01*
X40604946Y-99633278D02*
X40583099Y-99676681D01*
X40689281Y-98544737D02*
X40695229Y-98592963D01*
X93962257Y-602D02*
X93962012Y-593D01*
X22657874Y-98356480D02*
X22675362Y-98311144D01*
X94714931Y-356697D02*
X94714768Y-356513D01*
X54251195Y-98641423D02*
X54254770Y-98592963D01*
X50960033Y-99910033D02*
X50924841Y-99943539D01*
X82610033Y-97989966D02*
X82643539Y-98025158D01*
X43956460Y-7174841D02*
X43924721Y-7138047D01*
X19483099Y-6976681D02*
X19459148Y-7018960D01*
X94584010Y-227069D02*
X94574731Y-219827D01*
X72024841Y-97956460D02*
X72060033Y-97989966D01*
X94505197Y-168647D02*
X94495252Y-162349D01*
X40657368Y-98402619D02*
X40670328Y-98449450D01*
X50453138Y-7480974D02*
X50405262Y-7489281D01*
X43775362Y-6888855D02*
X43757874Y-6843519D01*
X793005Y-22196D02*
X721619Y-40077D01*
X94940190Y-97699942D02*
X94940681Y-97699918D01*
X94946477Y-100202482D02*
X94946097Y-100202170D01*
X284818Y-104898193D02*
X292934Y-104906718D01*
X8526681Y-5116900D02*
X8568960Y-5140851D01*
X434771Y-105024302D02*
X444394Y-105031080D01*
X94949583Y-97692612D02*
X94949702Y-97692136D01*
X12450259Y-100005173D02*
X12411952Y-99975278D01*
X40624637Y-6888855D02*
X40604946Y-6933278D01*
X8568960Y-100059148D02*
X8526681Y-100083099D01*
X54611952Y-99975278D02*
X54575158Y-99943539D01*
X94946477Y-4997517D02*
X94946840Y-4997188D01*
X23039987Y-7333152D02*
X23000259Y-7305173D01*
X85901195Y-98641423D02*
X85904770Y-98592963D01*
X85900000Y-6509877D02*
X85900000Y-5990122D01*
X12799450Y-5029671D02*
X12846861Y-5019025D01*
X40689281Y-6655262D02*
X40680974Y-6703138D01*
X8344Y-97699798D02*
X8830Y-97699870D01*
X71949740Y-7305173D02*
X71910012Y-7333152D01*
X54260718Y-5844737D02*
X54269025Y-5796861D01*
X12092631Y-6797380D02*
X12079671Y-6750549D01*
X54474721Y-5361952D02*
X54506460Y-5325158D01*
X75350000Y-6509877D02*
X75350000Y-5990122D01*
X43924721Y-7138047D02*
X43894826Y-7099740D01*
X94949440Y-4993082D02*
X94949583Y-4992612D01*
X94949918Y-100209318D02*
X94949870Y-100208830D01*
X12092631Y-5702619D02*
X12107874Y-5656480D01*
X19405173Y-5400259D02*
X19433152Y-5439987D01*
X8157036Y-97704770D02*
X8205262Y-97710718D01*
X94945295Y-97698394D02*
X94945703Y-97698121D01*
X22604770Y-98592963D02*
X22610718Y-98544737D01*
X12027Y-100200003D02*
X9809Y-100200057D01*
X50357036Y-97704770D02*
X50405262Y-97710718D01*
X1122Y-7505558D02*
X912Y-7506002D01*
X19465Y-104394790D02*
X19561Y-104395271D01*
X94515427Y-175841D02*
X94515228Y-175697D01*
X94948121Y-97695703D02*
X94948394Y-97695295D01*
X19160012Y-97866847D02*
X19199740Y-97894826D01*
X82880974Y-5796861D02*
X82889281Y-5844737D01*
X71359877Y-7500000D02*
X55240122Y-7500000D01*
X19504946Y-6933278D02*
X19483099Y-6976681D01*
X72339281Y-6655262D02*
X72330974Y-6703138D01*
X94944441Y-4998877D02*
X94944874Y-4998646D01*
X8568960Y-97840851D02*
X8610012Y-97866847D01*
X94515228Y-175697D02*
X94505605Y-168919D01*
X19504946Y-98266721D02*
X19524637Y-98311144D01*
X43757874Y-98356480D02*
X43775362Y-98311144D01*
X19595229Y-5892963D02*
X19598804Y-5941423D01*
X72330974Y-6703138D02*
X72320328Y-6750549D01*
X6455Y-7500724D02*
X6002Y-7500912D01*
X71647380Y-97742631D02*
X71693519Y-97757874D01*
X82900000Y-99209877D02*
X82898804Y-99258576D01*
X22657874Y-99543519D02*
X22642631Y-99497380D01*
X22619025Y-5796861D02*
X22629671Y-5749450D01*
X72350000Y-98690122D02*
X72350000Y-99209877D01*
X22766847Y-7060012D02*
X22740851Y-7018960D01*
X94943544Y-7500724D02*
X94943082Y-7500559D01*
X94722930Y-365989D02*
X94722619Y-365610D01*
X292934Y-104906718D02*
X293281Y-104907065D01*
X94941169Y-97699870D02*
X94941655Y-97699798D01*
X75516847Y-98139987D02*
X75544826Y-98100259D01*
X54650259Y-100005173D02*
X54611952Y-99975278D01*
X51250000Y-5990122D02*
X51250000Y-6509877D01*
X86339987Y-7333152D02*
X86300259Y-7305173D01*
X54250000Y-5990122D02*
X54250000Y-5990122D01*
X50960033Y-97989966D02*
X50993539Y-98025158D01*
X54816721Y-5095053D02*
X54861144Y-5075362D01*
X12752619Y-5042631D02*
X12799450Y-5029671D01*
X54260718Y-6655262D02*
X54254770Y-6607036D01*
X82880974Y-6703138D02*
X82870328Y-6750549D01*
X94946840Y-7502811D02*
X94946477Y-7502482D01*
X86339987Y-100033152D02*
X86300259Y-100005173D01*
X39807036Y-97704770D02*
X39855262Y-97710718D01*
X12166900Y-98223318D02*
X12190851Y-98181039D01*
X6455Y-4999275D02*
X6917Y-4999440D01*
X94906577Y-709568D02*
X94902885Y-698392D01*
X54250000Y-5990122D02*
X54251195Y-5941423D01*
X22766847Y-99760012D02*
X22740851Y-99718960D01*
X72071Y-628641D02*
X71985Y-628871D01*
X39807036Y-7495229D02*
X39758576Y-7498804D01*
X22889966Y-5289966D02*
X22925158Y-5256460D01*
X8347380Y-5042631D02*
X8393519Y-5057874D01*
X12060718Y-5844737D02*
X12069025Y-5796861D01*
X85900000Y-5990122D02*
X85901195Y-5941423D01*
X75544826Y-99799740D02*
X75516847Y-99760012D01*
X44641423Y-97701195D02*
X44690122Y-97700000D01*
X8568960Y-5140851D02*
X8610012Y-5166847D01*
X54773318Y-97816900D02*
X54816721Y-97795053D01*
X72209148Y-99718960D02*
X72183152Y-99760012D01*
X43757874Y-99543519D02*
X43742631Y-99497380D01*
X40443539Y-99874841D02*
X40410033Y-99910033D01*
X39758576Y-5001195D02*
X39807036Y-5004770D01*
X94930534Y-104394790D02*
X94932547Y-104383193D01*
X75574721Y-5361952D02*
X75606460Y-5325158D01*
X76006480Y-5057874D02*
X76052619Y-5042631D01*
X8205262Y-5010718D02*
X8253138Y-5019025D01*
X94648013Y-104915348D02*
X94648193Y-104915181D01*
X23211144Y-97775362D02*
X23256480Y-97757874D01*
X22601195Y-99258576D02*
X22600000Y-99209877D01*
X75392631Y-99497380D02*
X75379671Y-99450549D01*
X44592963Y-100195229D02*
X44544737Y-100189281D01*
X94505605Y-168919D02*
X94505197Y-168647D01*
X85975362Y-98311144D02*
X85995053Y-98266721D01*
X175841Y-434572D02*
X175697Y-434771D01*
X18850549Y-97729671D02*
X18897380Y-97742631D01*
X82499740Y-100005173D02*
X82460012Y-100033152D01*
X40689281Y-99355262D02*
X40680974Y-99403138D01*
X44139987Y-7333152D02*
X44100259Y-7305173D01*
X6455Y-97699275D02*
X6917Y-97699440D01*
X18658576Y-5001195D02*
X18707036Y-5004770D01*
X40299740Y-100005173D02*
X40260012Y-100033152D01*
X54999450Y-5029671D02*
X55046861Y-5019025D01*
X40374841Y-7243539D02*
X40338047Y-7275278D01*
X75606460Y-5325158D02*
X75639966Y-5289966D01*
X51133099Y-5523318D02*
X51154946Y-5566721D01*
X17452Y-816806D02*
X17413Y-817049D01*
X8974637Y-99588855D02*
X8954946Y-99633278D01*
X86189966Y-97989966D02*
X86225158Y-97956460D01*
X8883152Y-98139987D02*
X8909148Y-98181039D01*
X94942612Y-100200416D02*
X94942136Y-100200297D01*
X94787650Y-454747D02*
X94781352Y-444802D01*
X19033278Y-5095053D02*
X19076681Y-5116900D01*
X71783278Y-5095053D02*
X71826681Y-5116900D01*
X22856460Y-5325158D02*
X22889966Y-5289966D01*
X50888047Y-99975278D02*
X50849740Y-100005173D01*
X94831768Y-528963D02*
X94831537Y-528530D01*
X57Y-7509809D02*
X3Y-7512027D01*
X39758576Y-97701195D02*
X39807036Y-97704770D01*
X12274721Y-98061952D02*
X12306460Y-98025158D01*
X86300259Y-7305173D02*
X86261952Y-7275278D01*
X9809Y-4999942D02*
X12027Y-4999996D01*
X82889281Y-5844737D02*
X82895229Y-5892963D01*
X94774158Y-434572D02*
X94730321Y-375464D01*
X8483278Y-5095053D02*
X8526681Y-5116900D01*
X94949798Y-4991655D02*
X94949870Y-4991169D01*
X94943417Y-890086D02*
X94943383Y-889843D01*
X94722619Y-365610D02*
X94714931Y-356697D01*
X22716900Y-5523318D02*
X22740851Y-5481039D01*
X40176681Y-7383099D02*
X40133278Y-7404946D01*
X8347380Y-7457368D02*
X8300549Y-7470328D01*
X1605Y-100204704D02*
X1353Y-100205125D01*
X890086Y-105193417D02*
X901768Y-105194857D01*
X23492963Y-100195229D02*
X23444737Y-100189281D01*
X86040851Y-7018960D02*
X86016900Y-6976681D01*
X85919025Y-5796861D02*
X85929671Y-5749450D01*
X40583099Y-99676681D02*
X40559148Y-99718960D01*
X23396861Y-97719025D02*
X23444737Y-97710718D01*
X72339281Y-98544737D02*
X72345229Y-98592963D01*
X2482Y-100203522D02*
X2170Y-100203902D01*
X54325362Y-98311144D02*
X54345053Y-98266721D01*
X72183152Y-98139987D02*
X72209148Y-98181039D01*
X54861144Y-97775362D02*
X54906480Y-97757874D01*
X12411952Y-7275278D02*
X12375158Y-7243539D01*
X40604946Y-98266721D02*
X40624637Y-98311144D01*
X54506460Y-5325158D02*
X54539966Y-5289966D01*
X82610033Y-99910033D02*
X82574841Y-99943539D01*
X1122Y-4994441D02*
X1353Y-4994874D01*
X913995Y-105195771D02*
X914240Y-105195786D01*
X7863Y-4999702D02*
X8344Y-4999798D01*
X94943544Y-97699275D02*
X94943997Y-97699087D01*
X76495Y-104582793D02*
X81265Y-104593554D01*
X18988855Y-7424637D02*
X18943519Y-7442125D01*
X356513Y-104964768D02*
X356697Y-104964931D01*
X94665181Y-104898193D02*
X94665348Y-104898013D01*
X23256480Y-7442125D02*
X23211144Y-7424637D01*
X8526681Y-97816900D02*
X8568960Y-97840851D01*
X40410033Y-99910033D02*
X40374841Y-99943539D01*
X86381039Y-100059148D02*
X86339987Y-100033152D01*
X94942136Y-97699702D02*
X94942612Y-97699583D01*
X86890122Y-7500000D02*
X86841423Y-7498804D01*
X75961144Y-97775362D02*
X76006480Y-97757874D01*
X86040851Y-5481039D02*
X86066847Y-5439987D01*
X54345053Y-5566721D02*
X54366900Y-5523318D01*
X816806Y-17452D02*
X805209Y-19465D01*
X365610Y-104972619D02*
X365989Y-104972930D01*
X94837168Y-539697D02*
X94837060Y-539476D01*
X51174637Y-98311144D02*
X51192125Y-98356480D01*
X18658576Y-97701195D02*
X18707036Y-97704770D01*
X18707036Y-100195229D02*
X18658576Y-100198804D01*
X1353Y-4994874D02*
X1605Y-4995295D01*
X40642125Y-5656480D02*
X40657368Y-5702619D01*
X86841423Y-5001195D02*
X86890122Y-5000000D01*
X19570328Y-99450549D02*
X19557368Y-99497380D01*
X22824721Y-5361952D02*
X22856460Y-5325158D01*
X47114Y-104501607D02*
X47194Y-104501839D01*
X12616721Y-97795053D02*
X12661144Y-97775362D01*
X22695053Y-6933278D02*
X22675362Y-6888855D01*
X72350000Y-6509877D02*
X72348804Y-6558576D01*
X93962012Y-593D02*
X93937972Y-3D01*
X86466721Y-97795053D02*
X86511144Y-97775362D01*
X75916721Y-100104946D02*
X75873318Y-100083099D01*
X8157036Y-5004770D02*
X8205262Y-5010718D01*
X82783099Y-99676681D02*
X82759148Y-99718960D01*
X50593519Y-5057874D02*
X50638855Y-5075362D01*
X94945295Y-100201605D02*
X94944874Y-100201353D01*
X55094737Y-7489281D02*
X55046861Y-7480974D01*
X539697Y-112831D02*
X539476Y-112939D01*
X23302619Y-7457368D02*
X23256480Y-7442125D01*
X40604946Y-6933278D02*
X40583099Y-6976681D01*
X94948394Y-100204704D02*
X94948121Y-100204296D01*
X86094826Y-99799740D02*
X86066847Y-99760012D01*
X81Y-4990681D02*
X129Y-4991169D01*
X22610718Y-6655262D02*
X22604770Y-6607036D01*
X4228Y-104286004D02*
X5094Y-104297743D01*
X54773318Y-7383099D02*
X54731039Y-7359148D01*
X3522Y-97697517D02*
X3902Y-97697829D01*
X40043519Y-5057874D02*
X40088855Y-5075362D01*
X12894737Y-100189281D02*
X12846861Y-100180974D01*
X201Y-4991655D02*
X297Y-4992136D01*
X54366900Y-5523318D02*
X54390851Y-5481039D01*
X94949440Y-7506917D02*
X94949275Y-7506455D01*
X76052619Y-97742631D02*
X76099450Y-97729671D01*
X8954946Y-5566721D02*
X8974637Y-5611144D01*
X4296Y-4998121D02*
X4704Y-4998394D01*
X94930534Y-805209D02*
X94930438Y-804728D01*
X175697Y-434771D02*
X168919Y-444394D01*
X82288855Y-100124637D02*
X82243519Y-100142125D01*
X44100259Y-97894826D02*
X44139987Y-97866847D01*
X43719025Y-98496861D02*
X43729671Y-98449450D01*
X43729671Y-99450549D02*
X43719025Y-99403138D01*
X3902Y-100202170D02*
X3522Y-100202482D01*
X19199740Y-5194826D02*
X19238047Y-5224721D01*
X23123318Y-5116900D02*
X23166721Y-5095053D01*
X94156994Y-105177803D02*
X94228380Y-105159922D01*
X76495Y-617206D02*
X76307Y-617659D01*
X44402619Y-100157368D02*
X44356480Y-100142125D01*
X94902805Y-104501839D02*
X94902885Y-104501607D01*
X94593486Y-104964768D02*
X94648013Y-104915348D01*
X5558Y-97698877D02*
X6002Y-97699087D01*
X43422Y-709568D02*
X43279Y-710038D01*
X86602619Y-97742631D02*
X86649450Y-97729671D01*
X54952619Y-97742631D02*
X54999450Y-97729671D01*
X606222Y-81367D02*
X539697Y-112831D01*
X94825611Y-518076D02*
X94787778Y-454956D01*
X82333278Y-7404946D02*
X82288855Y-7424637D01*
X75369025Y-6703138D02*
X75360718Y-6655262D01*
X54731039Y-7359148D02*
X54689987Y-7333152D01*
X82870328Y-98449450D02*
X82880974Y-98496861D01*
X528963Y-105081768D02*
X539476Y-105087060D01*
X72183152Y-5439987D02*
X72209148Y-5481039D01*
X75789987Y-7333152D02*
X75750259Y-7305173D01*
X86300259Y-5194826D02*
X86339987Y-5166847D01*
X40133278Y-7404946D02*
X40088855Y-7424637D01*
X9045229Y-99307036D02*
X9039281Y-99355262D01*
X40475278Y-5361952D02*
X40505173Y-5400259D01*
X8760033Y-99910033D02*
X8724841Y-99943539D01*
X94943997Y-100200912D02*
X94943544Y-100200724D01*
X51154946Y-5566721D02*
X51174637Y-5611144D01*
X39903138Y-7480974D02*
X39855262Y-7489281D01*
X43956460Y-99874841D02*
X43924721Y-99838047D01*
X19076681Y-7383099D02*
X19033278Y-7404946D01*
X44496861Y-100180974D02*
X44449450Y-100170328D01*
X94781080Y-104755605D02*
X94781352Y-104755197D01*
X86066847Y-99760012D02*
X86040851Y-99718960D01*
X94949583Y-100207387D02*
X94949440Y-100206917D01*
X19589281Y-6655262D02*
X19580974Y-6703138D01*
X168647Y-104755197D02*
X168919Y-104755605D01*
X40670328Y-6750549D02*
X40657368Y-6797380D01*
X82538047Y-99975278D02*
X82499740Y-100005173D01*
X7387Y-100200416D02*
X6917Y-100200559D01*
X54416847Y-7060012D02*
X54390851Y-7018960D01*
X4704Y-7501605D02*
X4296Y-7501878D01*
X82007036Y-97704770D02*
X82055262Y-97710718D01*
X724Y-100206455D02*
X559Y-100206917D01*
X8688047Y-97924721D02*
X8724841Y-97956460D01*
X416Y-7507387D02*
X297Y-7507863D01*
X82538047Y-7275278D02*
X82499740Y-7305173D01*
X94648193Y-104915181D02*
X94656718Y-104907065D01*
X12846861Y-5019025D02*
X12894737Y-5010718D01*
X43795053Y-5566721D02*
X43816900Y-5523318D01*
X94943997Y-4999087D02*
X94944441Y-4998877D01*
X71826681Y-97816900D02*
X71868960Y-97840851D01*
X94949942Y-100209809D02*
X94949918Y-100209318D01*
X75711952Y-7275278D02*
X75675158Y-7243539D01*
X71553138Y-5019025D02*
X71600549Y-5029671D01*
X75350000Y-5990122D02*
X75351195Y-5941423D01*
X444802Y-168647D02*
X444394Y-168919D01*
X44641423Y-7498804D02*
X44592963Y-7495229D01*
X9048804Y-6558576D02*
X9045229Y-6607036D01*
X12216847Y-7060012D02*
X12190851Y-7018960D01*
X54773318Y-100083099D02*
X54731039Y-100059148D01*
X94909859Y-721382D02*
X94906720Y-710038D01*
X6582Y-890086D02*
X5142Y-901768D01*
X43894826Y-98100259D02*
X43924721Y-98061952D01*
X18707036Y-97704770D02*
X18755262Y-97710718D01*
X1012027Y-105199996D02*
X1012272Y-105200000D01*
X75516847Y-7060012D02*
X75490851Y-7018960D01*
X94949996Y-100212027D02*
X94949942Y-100209809D01*
X12991423Y-97701195D02*
X13040122Y-97700000D01*
X43816900Y-99676681D02*
X43795053Y-99633278D01*
X8688047Y-5224721D02*
X8724841Y-5256460D01*
X40410033Y-5289966D02*
X40443539Y-5325158D01*
X44311144Y-97775362D02*
X44356480Y-97757874D01*
X51239281Y-99355262D02*
X51230974Y-99403138D01*
X40670328Y-98449450D02*
X40680974Y-98496861D01*
X54731039Y-5140851D02*
X54773318Y-5116900D01*
X44592963Y-5004770D02*
X44641423Y-5001195D01*
X82857368Y-6797380D02*
X82842125Y-6843519D01*
X71826681Y-7383099D02*
X71783278Y-7404946D01*
X76242963Y-5004770D02*
X76291423Y-5001195D01*
X12489987Y-100033152D02*
X12450259Y-100005173D01*
X12661144Y-7424637D02*
X12616721Y-7404946D01*
X75916721Y-97795053D02*
X75961144Y-97775362D01*
X54444826Y-99799740D02*
X54416847Y-99760012D01*
X54650259Y-97894826D02*
X54689987Y-97866847D01*
X76146861Y-100180974D02*
X76099450Y-100170328D01*
X55046861Y-7480974D02*
X54999450Y-7470328D01*
X1353Y-7505125D02*
X1122Y-7505558D01*
X94906577Y-104490431D02*
X94906720Y-104489961D01*
X1122Y-97694441D02*
X1353Y-97694874D01*
X54307874Y-6843519D02*
X54292631Y-6797380D01*
X71826681Y-100083099D02*
X71783278Y-100104946D01*
X71910012Y-5166847D02*
X71949740Y-5194826D01*
X71647380Y-5042631D02*
X71693519Y-5057874D01*
X82007036Y-7495229D02*
X81958576Y-7498804D01*
X12752619Y-7457368D02*
X12706480Y-7442125D01*
X8830Y-7500129D02*
X8344Y-7500201D01*
X82288855Y-7424637D02*
X82243519Y-7442125D01*
X54506460Y-99874841D02*
X54474721Y-99838047D01*
X94927860Y-793243D02*
X94927803Y-793005D01*
X19433152Y-98139987D02*
X19459148Y-98181039D01*
X51109148Y-5481039D02*
X51133099Y-5523318D01*
X18609877Y-5000000D02*
X18609877Y-5000000D01*
X94831537Y-104671469D02*
X94831768Y-104671036D01*
X54390851Y-99718960D02*
X54366900Y-99676681D01*
X51174637Y-99588855D02*
X51154946Y-99633278D01*
X44544737Y-7489281D02*
X44496861Y-7480974D01*
X47194Y-698160D02*
X47114Y-698392D01*
X50849740Y-97894826D02*
X50888047Y-97924721D01*
X94495252Y-162349D02*
X94495043Y-162221D01*
X47194Y-104501839D02*
X71985Y-104571128D01*
X82898804Y-5941423D02*
X82900000Y-5990122D01*
X72348804Y-5941423D02*
X72350000Y-5990122D01*
X82643539Y-99874841D02*
X82610033Y-99910033D01*
X43816900Y-6976681D02*
X43795053Y-6933278D01*
X94431923Y-105075611D02*
X94495043Y-105037778D01*
X81Y-100209318D02*
X57Y-100209809D01*
X18755262Y-7489281D02*
X18707036Y-7495229D01*
X54611952Y-7275278D02*
X54575158Y-7243539D01*
X86423318Y-97816900D02*
X86466721Y-97795053D01*
X94321128Y-71985D02*
X94251839Y-47194D01*
X235231Y-104843486D02*
X284651Y-104898013D01*
X85942631Y-6797380D02*
X85929671Y-6750549D01*
X71868960Y-5140851D02*
X71910012Y-5166847D01*
X129Y-4991169D02*
X201Y-4991655D01*
X22824721Y-7138047D02*
X22794826Y-7099740D01*
X82824637Y-5611144D02*
X82842125Y-5656480D01*
X94495252Y-105037650D02*
X94505197Y-105031352D01*
X710038Y-105156720D02*
X721382Y-105159859D01*
X94942612Y-97699583D02*
X94943082Y-97699440D01*
X227380Y-104834389D02*
X235068Y-104843302D01*
X19274841Y-97956460D02*
X19310033Y-97989966D01*
X8825278Y-7138047D02*
X8793539Y-7174841D01*
X82783099Y-6976681D02*
X82759148Y-7018960D01*
X18988855Y-5075362D02*
X19033278Y-5095053D01*
X85901195Y-99258576D02*
X85900000Y-99209877D01*
X86016900Y-5523318D02*
X86040851Y-5481039D01*
X22856460Y-99874841D02*
X22824721Y-99838047D01*
X168919Y-104755605D02*
X175697Y-104765228D01*
X75961144Y-7424637D02*
X75916721Y-7404946D01*
X1122Y-100205558D02*
X912Y-100206002D01*
X50683278Y-5095053D02*
X50726681Y-5116900D01*
X54345053Y-6933278D02*
X54325362Y-6888855D01*
X301806Y-104915181D02*
X301986Y-104915348D01*
X724Y-4993544D02*
X912Y-4993997D01*
X94906720Y-710038D02*
X94906577Y-709568D01*
X82103138Y-97719025D02*
X82150549Y-97729671D01*
X72345229Y-98592963D02*
X72348804Y-98641423D01*
X81909877Y-5000000D02*
X81958576Y-5001195D01*
X94946840Y-4997188D02*
X94947188Y-4996840D01*
X50768960Y-7359148D02*
X50726681Y-7383099D01*
X12145053Y-99633278D02*
X12125362Y-99588855D01*
X54861144Y-5075362D02*
X54906480Y-5057874D01*
X72254946Y-98266721D02*
X72274637Y-98311144D01*
X94943082Y-4999440D02*
X94943544Y-4999275D01*
X50405262Y-5010718D02*
X50453138Y-5019025D01*
X50924841Y-5256460D02*
X50960033Y-5289966D01*
X12616721Y-7404946D02*
X12573318Y-7383099D01*
X40559148Y-5481039D02*
X40583099Y-5523318D01*
X94949702Y-4992136D02*
X94949798Y-4991655D01*
X40077Y-104478380D02*
X40140Y-104478617D01*
X5558Y-7501122D02*
X5125Y-7501353D01*
X54251195Y-99258576D02*
X54250000Y-99209877D01*
X94949275Y-4993544D02*
X94949440Y-4993082D01*
X43719025Y-6703138D02*
X43710718Y-6655262D01*
X75360718Y-5844737D02*
X75369025Y-5796861D01*
X82870328Y-5749450D02*
X82880974Y-5796861D01*
X698392Y-105152885D02*
X709568Y-105156577D01*
X94937727Y-97700000D02*
X94937972Y-97699996D01*
X94950000Y-7512272D02*
X94949996Y-7512027D01*
X8649740Y-100005173D02*
X8610012Y-100033152D01*
X9809Y-100200057D02*
X9318Y-100200081D01*
X71738855Y-5075362D02*
X71783278Y-5095053D01*
X72350000Y-5990122D02*
X72350000Y-6509877D01*
X94949870Y-97691169D02*
X94949918Y-97690681D01*
X94937972Y-100200003D02*
X94937727Y-100200000D01*
X82705173Y-98100259D02*
X82733152Y-98139987D01*
X94877928Y-628641D02*
X94873692Y-617659D01*
X86890122Y-97700000D02*
X94937727Y-97700000D01*
X54325362Y-5611144D02*
X54345053Y-5566721D01*
X13040122Y-7500000D02*
X12991423Y-7498804D01*
X8300549Y-97729671D02*
X8347380Y-97742631D01*
X94930438Y-104395271D02*
X94930534Y-104394790D01*
X55191423Y-5001195D02*
X55240122Y-5000000D01*
X4296Y-7501878D02*
X3902Y-7502170D01*
X19160012Y-100033152D02*
X19118960Y-100059148D01*
X50547380Y-7457368D02*
X50500549Y-7470328D01*
X19504946Y-5566721D02*
X19524637Y-5611144D01*
X82055262Y-97710718D02*
X82103138Y-97719025D01*
X9020328Y-99450549D02*
X9007368Y-99497380D01*
X54611952Y-5224721D02*
X54650259Y-5194826D01*
X75675158Y-7243539D02*
X75639966Y-7210033D01*
X8724841Y-5256460D02*
X8760033Y-5289966D01*
X23444737Y-97710718D02*
X23492963Y-97704770D01*
X19405173Y-99799740D02*
X19375278Y-99838047D01*
X82055262Y-7489281D02*
X82007036Y-7495229D01*
X50308576Y-7498804D02*
X50259877Y-7500000D01*
X40176681Y-100083099D02*
X40133278Y-100104946D01*
X22925158Y-97956460D02*
X22961952Y-97924721D01*
X86792963Y-5004770D02*
X86841423Y-5001195D01*
X94593302Y-235068D02*
X94584389Y-227380D01*
X54539966Y-7210033D02*
X54506460Y-7174841D01*
X39855262Y-7489281D02*
X39807036Y-7495229D01*
X44061952Y-7275278D02*
X44025158Y-7243539D01*
X8059877Y-100200000D02*
X12272Y-100200000D01*
X94421036Y-118231D02*
X94410523Y-112939D01*
X94944905Y-104297743D02*
X94945771Y-104286004D01*
X12339966Y-99910033D02*
X12306460Y-99874841D01*
X12706480Y-97757874D02*
X12752619Y-97742631D01*
X23039987Y-100033152D02*
X23000259Y-100005173D01*
X724Y-97693544D02*
X912Y-97693997D01*
X284651Y-104898013D02*
X284818Y-104898193D01*
X94878014Y-628871D02*
X94877928Y-628641D01*
X8568960Y-7359148D02*
X8526681Y-7383099D01*
X8909148Y-99718960D02*
X8883152Y-99760012D01*
X86466721Y-7404946D02*
X86423318Y-7383099D01*
X54906480Y-7442125D02*
X54861144Y-7424637D01*
X518076Y-105075611D02*
X518288Y-105075735D01*
X8059877Y-5000000D02*
X8108576Y-5001195D01*
X43816900Y-5523318D02*
X43840851Y-5481039D01*
X94932586Y-104382950D02*
X94943383Y-104310156D01*
X82900000Y-98690122D02*
X82900000Y-99209877D01*
X3522Y-4997517D02*
X3902Y-4997829D01*
X54279671Y-98449450D02*
X54292631Y-98402619D01*
X94949942Y-97690190D02*
X94949996Y-97687972D01*
X3159Y-97697188D02*
X3522Y-97697517D01*
X12051195Y-6558576D02*
X12050000Y-6509877D01*
X55046861Y-5019025D02*
X55094737Y-5010718D01*
X54906480Y-97757874D02*
X54952619Y-97742631D01*
X72125278Y-99838047D02*
X72093539Y-99874841D01*
X72060033Y-99910033D02*
X72024841Y-99943539D01*
X54689987Y-7333152D02*
X54650259Y-7305173D01*
X19118960Y-7359148D02*
X19076681Y-7383099D01*
X44641423Y-5001195D02*
X44690122Y-5000000D01*
X51245229Y-5892963D02*
X51248804Y-5941423D01*
X8760033Y-97989966D02*
X8793539Y-98025158D01*
X51207368Y-5702619D02*
X51220328Y-5749450D01*
X76099450Y-5029671D02*
X76146861Y-5019025D01*
X75606460Y-98025158D02*
X75639966Y-97989966D01*
X72292125Y-99543519D02*
X72274637Y-99588855D01*
X118231Y-104671036D02*
X118462Y-104671469D01*
X227380Y-365610D02*
X227069Y-365989D01*
X4296Y-97698121D02*
X4704Y-97698394D01*
X75425362Y-99588855D02*
X75407874Y-99543519D01*
X55046861Y-97719025D02*
X55094737Y-97710718D01*
X22961952Y-7275278D02*
X22925158Y-7243539D01*
X23349450Y-7470328D02*
X23302619Y-7457368D01*
X50593519Y-100142125D02*
X50547380Y-100157368D01*
X50683278Y-100104946D02*
X50638855Y-100124637D01*
X82857368Y-98402619D02*
X82870328Y-98449450D01*
X94132950Y-17413D02*
X94060156Y-6616D01*
X40043519Y-7442125D02*
X39997380Y-7457368D01*
X44266721Y-100104946D02*
X44223318Y-100083099D01*
X50924841Y-7243539D02*
X50888047Y-7275278D01*
X86339987Y-5166847D02*
X86381039Y-5140851D01*
X86696861Y-97719025D02*
X86744737Y-97710718D01*
X55240122Y-97700000D02*
X71359877Y-97700000D01*
X54366900Y-6976681D02*
X54345053Y-6933278D01*
X94831537Y-528530D02*
X94825735Y-518288D01*
X75574721Y-99838047D02*
X75544826Y-99799740D01*
X71868960Y-7359148D02*
X71826681Y-7383099D01*
X23349450Y-5029671D02*
X23396861Y-5019025D01*
X72320328Y-98449450D02*
X72330974Y-98496861D01*
X12339966Y-5289966D02*
X12375158Y-5256460D01*
X71910012Y-100033152D02*
X71868960Y-100059148D01*
X40695229Y-99307036D02*
X40689281Y-99355262D01*
X51083152Y-99760012D02*
X51055173Y-99799740D01*
X75351195Y-98641423D02*
X75354770Y-98592963D01*
X22675362Y-98311144D02*
X22695053Y-98266721D01*
X75466900Y-5523318D02*
X75490851Y-5481039D01*
X72093539Y-98025158D02*
X72125278Y-98061952D01*
X23000259Y-100005173D02*
X22961952Y-99975278D01*
X40260012Y-7333152D02*
X40218960Y-7359148D01*
X40088855Y-5075362D02*
X40133278Y-5095053D01*
X51220328Y-5749450D02*
X51230974Y-5796861D01*
X528530Y-105081537D02*
X528963Y-105081768D01*
X82197380Y-7457368D02*
X82150549Y-7470328D01*
X43924721Y-98061952D02*
X43956460Y-98025158D01*
X44356480Y-5057874D02*
X44402619Y-5042631D01*
X19483099Y-99676681D02*
X19459148Y-99718960D01*
X75407874Y-98356480D02*
X75425362Y-98311144D01*
X94937727Y-5000000D02*
X94937972Y-4999996D01*
X8253138Y-5019025D02*
X8300549Y-5029671D01*
X19557368Y-99497380D02*
X19542125Y-99543519D01*
X804728Y-19561D02*
X793243Y-22139D01*
X75445053Y-99633278D02*
X75425362Y-99588855D01*
X94945703Y-100201878D02*
X94945295Y-100201605D01*
X51220328Y-6750549D02*
X51207368Y-6797380D01*
X94949996Y-104187972D02*
X94950000Y-104187727D01*
X85910718Y-99355262D02*
X85904770Y-99307036D01*
X40583099Y-5523318D02*
X40604946Y-5566721D01*
X82418960Y-100059148D02*
X82376681Y-100083099D01*
X54260718Y-99355262D02*
X54254770Y-99307036D01*
X94949798Y-100208344D02*
X94949702Y-100207863D01*
X8157036Y-100195229D02*
X8108576Y-100198804D01*
X1878Y-100204296D02*
X1605Y-100204704D01*
X94574731Y-104980172D02*
X94584010Y-104972930D01*
X12616721Y-5095053D02*
X12661144Y-5075362D01*
X6616Y-889843D02*
X6582Y-890086D01*
X94943997Y-97699087D02*
X94944441Y-97698877D01*
X94941655Y-100200201D02*
X94941169Y-100200129D01*
X75606460Y-7174841D02*
X75574721Y-7138047D01*
X54416847Y-5439987D02*
X54444826Y-5400259D01*
X375268Y-219827D02*
X365989Y-227069D01*
X8992125Y-6843519D02*
X8974637Y-6888855D01*
X86511144Y-5075362D02*
X86556480Y-5057874D01*
X43700000Y-98690122D02*
X43701195Y-98641423D01*
X7863Y-100200297D02*
X7387Y-100200416D01*
X94944857Y-901768D02*
X94943417Y-890086D01*
X12244826Y-98100259D02*
X12274721Y-98061952D01*
X19595229Y-6607036D02*
X19589281Y-6655262D01*
X54292631Y-99497380D02*
X54279671Y-99450549D01*
X75354770Y-5892963D02*
X75360718Y-5844737D01*
X22695053Y-99633278D02*
X22675362Y-99588855D01*
X94949397Y-987742D02*
X94945786Y-914240D01*
X8300549Y-7470328D02*
X8253138Y-7480974D01*
X86602619Y-7457368D02*
X86556480Y-7442125D01*
X82610033Y-5289966D02*
X82643539Y-5325158D01*
X12706480Y-100142125D02*
X12661144Y-100124637D01*
X8933099Y-99676681D02*
X8909148Y-99718960D01*
X82007036Y-100195229D02*
X81958576Y-100198804D01*
X22610718Y-99355262D02*
X22604770Y-99307036D01*
X22856460Y-98025158D02*
X22889966Y-97989966D01*
X82574841Y-99943539D02*
X82538047Y-99975278D01*
X8688047Y-7275278D02*
X8649740Y-7305173D01*
X75392631Y-5702619D02*
X75407874Y-5656480D01*
X76006480Y-97757874D02*
X76052619Y-97742631D01*
X4704Y-4998394D02*
X5125Y-4998646D01*
X75379671Y-98449450D02*
X75392631Y-98402619D01*
X12942963Y-7495229D02*
X12894737Y-7489281D01*
X19600000Y-99209877D02*
X19598804Y-99258576D01*
X22629671Y-5749450D02*
X22642631Y-5702619D01*
X9045229Y-6607036D02*
X9039281Y-6655262D01*
X94133193Y-105182547D02*
X94144790Y-105180534D01*
X75873318Y-97816900D02*
X75916721Y-97795053D01*
X82705173Y-99799740D02*
X82675278Y-99838047D01*
X40624637Y-98311144D02*
X40642125Y-98356480D01*
X82870328Y-99450549D02*
X82857368Y-99497380D01*
X76099450Y-7470328D02*
X76052619Y-7457368D01*
X12991423Y-100198804D02*
X12942963Y-100195229D01*
X82150549Y-5029671D02*
X82197380Y-5042631D01*
X22600000Y-98690122D02*
X22601195Y-98641423D01*
X50768960Y-5140851D02*
X50810012Y-5166847D01*
X55142963Y-100195229D02*
X55094737Y-100189281D01*
X54325362Y-99588855D02*
X54307874Y-99543519D01*
X81265Y-104593554D02*
X81367Y-104593777D01*
X54575158Y-7243539D02*
X54539966Y-7210033D01*
X86189966Y-5289966D02*
X86225158Y-5256460D01*
X94948121Y-4995703D02*
X94948394Y-4995295D01*
X18943519Y-5057874D02*
X18988855Y-5075362D01*
X94949798Y-7508344D02*
X94949702Y-7507863D01*
X71600549Y-5029671D02*
X71647380Y-5042631D01*
X54279671Y-99450549D02*
X54269025Y-99403138D01*
X72320328Y-5749450D02*
X72330974Y-5796861D01*
X86016900Y-99676681D02*
X85995053Y-99633278D01*
X94948646Y-97694874D02*
X94948877Y-97694441D01*
X94132950Y-105182586D02*
X94133193Y-105182547D01*
X85957874Y-99543519D02*
X85942631Y-99497380D01*
X94730172Y-375268D02*
X94722930Y-365989D01*
X94410302Y-112831D02*
X94343777Y-81367D01*
X18609877Y-7500000D02*
X13040122Y-7500000D01*
X40299740Y-97894826D02*
X40338047Y-97924721D01*
X17452Y-104383193D02*
X19465Y-104394790D01*
X293281Y-104907065D02*
X301806Y-104915181D01*
X71910012Y-7333152D02*
X71868960Y-7359148D01*
X71693519Y-97757874D02*
X71738855Y-97775362D01*
X12050000Y-6509877D02*
X12050000Y-5990122D01*
X44356480Y-97757874D02*
X44402619Y-97742631D01*
X22716900Y-98223318D02*
X22740851Y-98181039D01*
X75369025Y-98496861D02*
X75379671Y-98449450D01*
X22766847Y-98139987D02*
X22794826Y-98100259D01*
X8393519Y-97757874D02*
X8438855Y-97775362D01*
X39997380Y-100157368D02*
X39950549Y-100170328D01*
X2482Y-4996477D02*
X2811Y-4996840D01*
X86300259Y-97894826D02*
X86339987Y-97866847D01*
X51239281Y-6655262D02*
X51230974Y-6703138D01*
X2482Y-7503522D02*
X2170Y-7503902D01*
X44025158Y-99943539D02*
X43989966Y-99910033D01*
X19199740Y-97894826D02*
X19238047Y-97924721D01*
X85995053Y-5566721D02*
X86016900Y-5523318D01*
X18850549Y-100170328D02*
X18803138Y-100180974D01*
X9809Y-7500057D02*
X9318Y-7500081D01*
X12661144Y-100124637D02*
X12616721Y-100104946D01*
X94949275Y-7506455D02*
X94949087Y-7506002D01*
X8992125Y-98356480D02*
X9007368Y-98402619D01*
X54689987Y-97866847D02*
X54731039Y-97840851D01*
X94945703Y-7501878D02*
X94945295Y-7501605D01*
X19561Y-804728D02*
X19465Y-805209D01*
X8825278Y-99838047D02*
X8793539Y-99874841D01*
X82900000Y-5990122D02*
X82900000Y-6509877D01*
X23349450Y-97729671D02*
X23396861Y-97719025D01*
X72060033Y-5289966D02*
X72093539Y-5325158D01*
X81909877Y-100200000D02*
X76340122Y-100200000D01*
X8205262Y-97710718D02*
X8253138Y-97719025D01*
X9039281Y-5844737D02*
X9045229Y-5892963D01*
X12216847Y-98139987D02*
X12244826Y-98100259D01*
X9030974Y-6703138D02*
X9020328Y-6750549D01*
X82759148Y-99718960D02*
X82733152Y-99760012D01*
X94343554Y-105118734D02*
X94343777Y-105118632D01*
X44356480Y-7442125D02*
X44311144Y-7424637D01*
X793005Y-105177803D02*
X793243Y-105177860D01*
X94940190Y-100200057D02*
X94937972Y-100200003D01*
X81909877Y-7500000D02*
X76340122Y-7500000D01*
X12531039Y-5140851D02*
X12573318Y-5116900D01*
X94945703Y-97698121D02*
X94946097Y-97697829D01*
X22961952Y-5224721D02*
X23000259Y-5194826D01*
X71868960Y-100059148D02*
X71826681Y-100083099D01*
X94945295Y-7501605D02*
X94944874Y-7501353D01*
X86381039Y-7359148D02*
X86339987Y-7333152D01*
X86511144Y-97775362D02*
X86556480Y-97757874D01*
X54307874Y-99543519D02*
X54292631Y-99497380D01*
X81Y-7509318D02*
X57Y-7509809D01*
X86511144Y-100124637D02*
X86466721Y-100104946D01*
X539697Y-105087168D02*
X606222Y-105118632D01*
X19561Y-104395271D02*
X22139Y-104406756D01*
X51192125Y-99543519D02*
X51174637Y-99588855D01*
X94937972Y-7500003D02*
X94937727Y-7500000D01*
X22740851Y-7018960D02*
X22716900Y-6976681D01*
X43757874Y-5656480D02*
X43775362Y-5611144D01*
X76242963Y-7495229D02*
X76194737Y-7489281D01*
X85904770Y-98592963D02*
X85910718Y-98544737D01*
X82376681Y-5116900D02*
X82418960Y-5140851D01*
X8793539Y-98025158D02*
X8825278Y-98061952D01*
X301986Y-104915348D02*
X356513Y-104964768D01*
X86225158Y-99943539D02*
X86189966Y-99910033D01*
X12894737Y-7489281D02*
X12846861Y-7480974D01*
X94949275Y-100206455D02*
X94949087Y-100206002D01*
X54474721Y-99838047D02*
X54444826Y-99799740D01*
X444802Y-105031352D02*
X454747Y-105037650D01*
X43719025Y-5796861D02*
X43729671Y-5749450D01*
X416Y-100207387D02*
X297Y-100207863D01*
X71985Y-104571128D02*
X72071Y-104571358D01*
X227069Y-365989D02*
X219827Y-375268D01*
X22629671Y-98449450D02*
X22642631Y-98402619D01*
X75961144Y-5075362D02*
X76006480Y-5057874D01*
X602Y-104212257D02*
X4213Y-104285759D01*
X12060718Y-98544737D02*
X12069025Y-98496861D01*
X375464Y-219678D02*
X375268Y-219827D01*
X85901195Y-5941423D02*
X85904770Y-5892963D01*
X40133278Y-97795053D02*
X40176681Y-97816900D01*
X72339281Y-99355262D02*
X72330974Y-99403138D01*
X235068Y-356697D02*
X227380Y-365610D01*
X22600000Y-99209877D02*
X22600000Y-98690122D01*
X72345229Y-6607036D02*
X72339281Y-6655262D01*
X12375158Y-97956460D02*
X12411952Y-97924721D01*
X40533152Y-99760012D02*
X40505173Y-99799740D01*
X75750259Y-100005173D02*
X75711952Y-99975278D01*
X43742631Y-99497380D02*
X43729671Y-99450549D01*
X40443539Y-5325158D02*
X40475278Y-5361952D01*
X94505605Y-105031080D02*
X94515228Y-105024302D01*
X75711952Y-97924721D02*
X75750259Y-97894826D01*
X51239281Y-98544737D02*
X51245229Y-98592963D01*
X86124721Y-7138047D02*
X86094826Y-7099740D01*
X12573318Y-5116900D02*
X12616721Y-5095053D01*
X94942136Y-7500297D02*
X94941655Y-7500201D01*
X82842125Y-6843519D02*
X82824637Y-6888855D01*
X82675278Y-5361952D02*
X82705173Y-5400259D01*
X85910718Y-98544737D02*
X85919025Y-98496861D01*
X23590122Y-97700000D02*
X39709877Y-97700000D01*
X19375278Y-5361952D02*
X19405173Y-5400259D01*
X18897380Y-5042631D02*
X18943519Y-5057874D01*
X22794826Y-5400259D02*
X22824721Y-5361952D01*
X55046861Y-100180974D02*
X54999450Y-100170328D01*
X2811Y-97696840D02*
X3159Y-97697188D01*
X6616Y-104310156D02*
X17413Y-104382950D01*
X12942963Y-97704770D02*
X12991423Y-97701195D01*
X94945295Y-4998394D02*
X94945703Y-4998121D01*
X39855262Y-5010718D02*
X39903138Y-5019025D01*
X50259877Y-97700000D02*
X50259877Y-97700000D01*
X22675362Y-5611144D02*
X22695053Y-5566721D01*
X94410523Y-112939D02*
X94410302Y-112831D01*
X86156460Y-5325158D02*
X86189966Y-5289966D01*
X628641Y-72071D02*
X617659Y-76307D01*
X5125Y-4998646D02*
X5558Y-4998877D01*
X6917Y-7500559D02*
X6455Y-7500724D01*
X23081039Y-7359148D02*
X23039987Y-7333152D01*
X72307368Y-5702619D02*
X72320328Y-5749450D01*
X94228617Y-105159859D02*
X94239961Y-105156720D01*
X12166900Y-99676681D02*
X12145053Y-99633278D01*
X18658576Y-7498804D02*
X18609877Y-7500000D01*
X23590122Y-100200000D02*
X23541423Y-100198804D01*
X8760033Y-5289966D02*
X8793539Y-5325158D01*
X82538047Y-97924721D02*
X82574841Y-97956460D01*
X559Y-4993082D02*
X724Y-4993544D01*
X75873318Y-7383099D02*
X75831039Y-7359148D01*
X75789987Y-97866847D02*
X75831039Y-97840851D01*
X17413Y-817049D02*
X6616Y-889843D01*
X43701195Y-6558576D02*
X43700000Y-6509877D01*
X51245229Y-98592963D02*
X51248804Y-98641423D01*
X94825735Y-518288D02*
X94825611Y-518076D01*
X75916721Y-7404946D02*
X75873318Y-7383099D01*
X22642631Y-5702619D02*
X22657874Y-5656480D01*
X8108576Y-100198804D02*
X8059877Y-100200000D01*
X94948121Y-100204296D02*
X94947829Y-100203902D01*
X19570328Y-6750549D02*
X19557368Y-6797380D01*
X75574721Y-98061952D02*
X75606460Y-98025158D01*
X72060033Y-7210033D02*
X72024841Y-7243539D01*
X94947829Y-97696097D02*
X94948121Y-97695703D01*
X71693519Y-5057874D02*
X71738855Y-5075362D01*
X94947188Y-7503159D02*
X94946840Y-7502811D01*
X86744737Y-5010718D02*
X86792963Y-5004770D01*
X75360718Y-98544737D02*
X75369025Y-98496861D01*
X94332340Y-105123692D02*
X94332793Y-105123504D01*
X75425362Y-98311144D02*
X75445053Y-98266721D01*
X18609877Y-100200000D02*
X13040122Y-100200000D01*
X40043519Y-97757874D02*
X40088855Y-97775362D01*
X85929671Y-98449450D02*
X85942631Y-98402619D01*
X43866847Y-7060012D02*
X43840851Y-7018960D01*
X559Y-7506917D02*
X416Y-7507387D01*
X12051195Y-99258576D02*
X12050000Y-99209877D01*
X94781080Y-444394D02*
X94774302Y-434771D01*
X43840851Y-99718960D02*
X43816900Y-99676681D01*
X85929671Y-5749450D02*
X85942631Y-5702619D01*
X76242963Y-100195229D02*
X76194737Y-100189281D01*
X43775362Y-99588855D02*
X43757874Y-99543519D01*
X43742631Y-5702619D02*
X43757874Y-5656480D01*
X94943082Y-97699440D02*
X94943544Y-97699275D01*
X12027Y-97699996D02*
X12272Y-97700000D01*
X44402619Y-5042631D02*
X44449450Y-5029671D01*
X51220328Y-99450549D02*
X51207368Y-99497380D01*
X85942631Y-5702619D02*
X85957874Y-5656480D01*
X94949870Y-4991169D02*
X94949918Y-4990681D01*
X12411952Y-5224721D02*
X12450259Y-5194826D01*
X22925158Y-5256460D02*
X22961952Y-5224721D01*
X8830Y-100200129D02*
X8344Y-100200201D01*
X8933099Y-6976681D02*
X8909148Y-7018960D01*
X85957874Y-6843519D02*
X85942631Y-6797380D01*
X19589281Y-99355262D02*
X19580974Y-99403138D01*
X40642125Y-6843519D02*
X40624637Y-6888855D01*
X82197380Y-97742631D02*
X82243519Y-97757874D01*
X94947188Y-100203159D02*
X94946840Y-100202811D01*
X23000259Y-7305173D02*
X22961952Y-7275278D01*
X51025278Y-5361952D02*
X51055173Y-5400259D01*
X8344Y-7500201D02*
X7863Y-7500297D01*
X94837060Y-539476D02*
X94831768Y-528963D01*
X81Y-97690681D02*
X129Y-97691169D01*
X50726681Y-5116900D02*
X50768960Y-5140851D01*
X22695053Y-98266721D02*
X22716900Y-98223318D01*
X44100259Y-100005173D02*
X44061952Y-99975278D01*
X22925158Y-7243539D02*
X22889966Y-7210033D01*
X75516847Y-99760012D02*
X75490851Y-99718960D01*
X54390851Y-98181039D02*
X54416847Y-98139987D01*
X55142963Y-5004770D02*
X55191423Y-5001195D01*
X82103138Y-5019025D02*
X82150549Y-5029671D01*
X76194737Y-5010718D02*
X76242963Y-5004770D01*
X606445Y-105118734D02*
X617206Y-105123504D01*
X71408576Y-97701195D02*
X71457036Y-97704770D01*
X8909148Y-98181039D02*
X8933099Y-98223318D01*
X94036004Y-105195771D02*
X94047743Y-105194905D01*
X82288855Y-5075362D02*
X82333278Y-5095053D01*
X72155173Y-98100259D02*
X72183152Y-98139987D01*
X444394Y-168919D02*
X434771Y-175697D01*
X82574841Y-97956460D02*
X82610033Y-97989966D01*
X9007368Y-5702619D02*
X9020328Y-5749450D01*
X19542125Y-5656480D02*
X19557368Y-5702619D01*
X94946477Y-97697517D02*
X94946840Y-97697188D01*
X44223318Y-5116900D02*
X44266721Y-5095053D01*
X12894737Y-97710718D02*
X12942963Y-97704770D01*
X82007036Y-5004770D02*
X82055262Y-5010718D01*
X19238047Y-99975278D02*
X19199740Y-100005173D01*
X82243519Y-7442125D02*
X82197380Y-7457368D01*
X94060156Y-105193383D02*
X94132950Y-105182586D01*
X3522Y-7502482D02*
X3159Y-7502811D01*
X43894826Y-99799740D02*
X43866847Y-99760012D01*
X94944857Y-104298231D02*
X94944905Y-104297743D01*
X9318Y-97699918D02*
X9809Y-97699942D01*
X86696861Y-5019025D02*
X86744737Y-5010718D01*
X40443539Y-98025158D02*
X40475278Y-98061952D01*
X85900000Y-98690122D02*
X85901195Y-98641423D01*
X94144790Y-105180534D02*
X94145271Y-105180438D01*
X82055262Y-5010718D02*
X82103138Y-5019025D01*
X82499740Y-97894826D02*
X82538047Y-97924721D01*
X12051195Y-98641423D02*
X12054770Y-98592963D01*
X23349450Y-100170328D02*
X23302619Y-100157368D01*
X12060718Y-6655262D02*
X12054770Y-6607036D01*
X94949583Y-4992612D02*
X94949702Y-4992136D01*
X912Y-97693997D02*
X1122Y-97694441D01*
X54444826Y-7099740D02*
X54416847Y-7060012D01*
X40642125Y-99543519D02*
X40624637Y-99588855D01*
X94950000Y-100212272D02*
X94949996Y-100212027D01*
X51174637Y-5611144D02*
X51192125Y-5656480D01*
X39950549Y-5029671D02*
X39997380Y-5042631D01*
X22610718Y-5844737D02*
X22619025Y-5796861D01*
X86649450Y-7470328D02*
X86602619Y-7457368D01*
X23123318Y-100083099D02*
X23081039Y-100059148D01*
X94431923Y-124388D02*
X94431711Y-124264D01*
X19160012Y-7333152D02*
X19118960Y-7359148D01*
X44266721Y-5095053D02*
X44311144Y-5075362D01*
X94947188Y-97696840D02*
X94947517Y-97696477D01*
X3159Y-4997188D02*
X3522Y-4997517D01*
X12107874Y-6843519D02*
X12092631Y-6797380D01*
X82333278Y-97795053D02*
X82376681Y-97816900D01*
X40533152Y-5439987D02*
X40559148Y-5481039D01*
X76099450Y-100170328D02*
X76052619Y-100157368D01*
X44544737Y-5010718D02*
X44592963Y-5004770D01*
X43279Y-104489961D02*
X43422Y-104490431D01*
X82460012Y-7333152D02*
X82418960Y-7359148D01*
X71408576Y-100198804D02*
X71359877Y-100200000D01*
X51250000Y-98690122D02*
X51250000Y-99209877D01*
X1012027Y-3D02*
X987987Y-593D01*
X72339281Y-5844737D02*
X72345229Y-5892963D01*
X39903138Y-5019025D02*
X39950549Y-5029671D01*
X50888047Y-7275278D02*
X50849740Y-7305173D01*
X72307368Y-99497380D02*
X72292125Y-99543519D01*
X94321358Y-105127928D02*
X94332340Y-105123692D01*
X75873318Y-100083099D02*
X75831039Y-100059148D01*
X81367Y-606222D02*
X81265Y-606445D01*
X72307368Y-6797380D02*
X72292125Y-6843519D01*
X82804946Y-98266721D02*
X82824637Y-98311144D01*
X40299740Y-5194826D02*
X40338047Y-5224721D01*
X43866847Y-98139987D02*
X43894826Y-98100259D01*
X19405173Y-7099740D02*
X19375278Y-7138047D01*
X72183152Y-99760012D02*
X72155173Y-99799740D01*
X19524637Y-98311144D02*
X19542125Y-98356480D01*
X76006480Y-7442125D02*
X75961144Y-7424637D01*
X8526681Y-7383099D02*
X8483278Y-7404946D01*
X76291423Y-5001195D02*
X76340122Y-5000000D01*
X50810012Y-5166847D02*
X50849740Y-5194826D01*
X94505197Y-105031352D02*
X94505605Y-105031080D01*
X82243519Y-5057874D02*
X82288855Y-5075362D01*
X8253138Y-97719025D02*
X8300549Y-97729671D01*
X22600000Y-98690122D02*
X22600000Y-98690122D01*
X86841423Y-100198804D02*
X86792963Y-100195229D01*
X22619025Y-6703138D02*
X22610718Y-6655262D01*
X12489987Y-97866847D02*
X12531039Y-97840851D01*
X71783278Y-7404946D02*
X71738855Y-7424637D01*
X82895229Y-6607036D02*
X82889281Y-6655262D01*
X22657874Y-6843519D02*
X22642631Y-6797380D01*
X85904770Y-99307036D02*
X85901195Y-99258576D01*
X43989966Y-5289966D02*
X44025158Y-5256460D01*
X93937727Y-105200000D02*
X93937972Y-105199996D01*
X816806Y-105182547D02*
X817049Y-105182586D01*
X82610033Y-7210033D02*
X82574841Y-7243539D01*
X82880974Y-98496861D02*
X82889281Y-98544737D01*
X85919025Y-99403138D02*
X85910718Y-99355262D01*
X40695229Y-6607036D02*
X40689281Y-6655262D01*
X3Y-97687972D02*
X57Y-97690190D01*
X22610718Y-98544737D02*
X22619025Y-98496861D01*
X94239961Y-105156720D02*
X94240431Y-105156577D01*
X54506460Y-7174841D02*
X54474721Y-7138047D01*
X76146861Y-97719025D02*
X76194737Y-97710718D01*
X12375158Y-99943539D02*
X12339966Y-99910033D01*
X94949996Y-4987972D02*
X94950000Y-4987727D01*
X219678Y-104824535D02*
X219827Y-104824731D01*
X19542125Y-98356480D02*
X19557368Y-98402619D01*
X8974637Y-5611144D02*
X8992125Y-5656480D01*
X43704770Y-5892963D02*
X43710718Y-5844737D01*
X18707036Y-5004770D02*
X18755262Y-5010718D01*
X72330974Y-98496861D02*
X72339281Y-98544737D01*
X43924721Y-99838047D02*
X43894826Y-99799740D01*
X365989Y-104972930D02*
X375268Y-104980172D01*
X51207368Y-98402619D02*
X51220328Y-98449450D01*
X50453138Y-97719025D02*
X50500549Y-97729671D01*
X75466900Y-6976681D02*
X75445053Y-6933278D01*
X518076Y-124388D02*
X454956Y-162221D01*
X75574721Y-7138047D02*
X75544826Y-7099740D01*
X44139987Y-97866847D02*
X44181039Y-97840851D01*
X12942963Y-100195229D02*
X12894737Y-100189281D01*
X94909922Y-104478380D02*
X94927803Y-104406994D01*
X94714768Y-104843486D02*
X94714931Y-104843302D01*
X54250000Y-6509877D02*
X54250000Y-5990122D01*
X82376681Y-7383099D02*
X82333278Y-7404946D01*
X2170Y-4996097D02*
X2482Y-4996477D01*
X7387Y-7500416D02*
X6917Y-7500559D01*
X23396861Y-100180974D02*
X23349450Y-100170328D01*
X71783278Y-97795053D02*
X71826681Y-97816900D01*
X912Y-4993997D02*
X1122Y-4994441D01*
X19598804Y-99258576D02*
X19595229Y-99307036D01*
X12125362Y-6888855D02*
X12107874Y-6843519D01*
X19580974Y-98496861D02*
X19589281Y-98544737D01*
X19274841Y-99943539D02*
X19238047Y-99975278D01*
X23081039Y-100059148D02*
X23039987Y-100033152D01*
X19199740Y-7305173D02*
X19160012Y-7333152D01*
X365610Y-227380D02*
X356697Y-235068D01*
X8108576Y-7498804D02*
X8059877Y-7500000D01*
X19580974Y-5796861D02*
X19589281Y-5844737D01*
X606222Y-105118632D02*
X606445Y-105118734D01*
X82460012Y-5166847D02*
X82499740Y-5194826D01*
X19076681Y-5116900D02*
X19118960Y-5140851D01*
X44311144Y-5075362D02*
X44356480Y-5057874D01*
X51248804Y-99258576D02*
X51245229Y-99307036D01*
X82197380Y-100157368D02*
X82150549Y-100170328D01*
X71647380Y-100157368D02*
X71600549Y-100170328D01*
X23492963Y-97704770D02*
X23541423Y-97701195D01*
X94048231Y-5142D02*
X94047743Y-5094D01*
X2811Y-4996840D02*
X3159Y-4997188D01*
X94144790Y-19465D02*
X94133193Y-17452D01*
X12894737Y-5010718D02*
X12942963Y-5004770D01*
X51230974Y-6703138D02*
X51220328Y-6750549D01*
X86094826Y-98100259D02*
X86124721Y-98061952D01*
X19343539Y-98025158D02*
X19375278Y-98061952D01*
X12079671Y-99450549D02*
X12069025Y-99403138D01*
X9039281Y-6655262D02*
X9030974Y-6703138D01*
X94825735Y-104681711D02*
X94831537Y-104671469D01*
X890086Y-6582D02*
X889843Y-6616D01*
X94584389Y-104972619D02*
X94593302Y-104964931D01*
X94944874Y-100201353D02*
X94944441Y-100201122D01*
X22925158Y-99943539D02*
X22889966Y-99910033D01*
X94868734Y-104593554D02*
X94873504Y-104582793D01*
X19310033Y-7210033D02*
X19274841Y-7243539D01*
X94937972Y-97699996D02*
X94940190Y-97699942D01*
X40505173Y-98100259D02*
X40533152Y-98139987D01*
X51154946Y-98266721D02*
X51174637Y-98311144D01*
X356513Y-235231D02*
X301986Y-284651D01*
X23590122Y-5000000D02*
X39709877Y-5000000D01*
X12216847Y-99760012D02*
X12190851Y-99718960D01*
X54816721Y-97795053D02*
X54861144Y-97775362D01*
X54416847Y-98139987D02*
X54444826Y-98100259D01*
X12272Y-7500000D02*
X12027Y-7500003D01*
X94787778Y-104745043D02*
X94825611Y-104681923D01*
X71988047Y-5224721D02*
X72024841Y-5256460D01*
X7387Y-4999583D02*
X7863Y-4999702D01*
X86124721Y-98061952D02*
X86156460Y-98025158D01*
X5125Y-100201353D02*
X4704Y-100201605D01*
X44544737Y-100189281D02*
X44496861Y-100180974D01*
X40700000Y-99209877D02*
X40698804Y-99258576D01*
X71988047Y-99975278D02*
X71949740Y-100005173D01*
X804728Y-105180438D02*
X805209Y-105180534D01*
X43742631Y-6797380D02*
X43729671Y-6750549D01*
X82804946Y-6933278D02*
X82783099Y-6976681D01*
X82150549Y-97729671D02*
X82197380Y-97742631D01*
X82895229Y-98592963D02*
X82898804Y-98641423D01*
X86423318Y-7383099D02*
X86381039Y-7359148D01*
X1605Y-4995295D02*
X1878Y-4995703D01*
X94949996Y-7512027D02*
X94949942Y-7509809D01*
X75379671Y-99450549D02*
X75369025Y-99403138D01*
X94228617Y-40140D02*
X94228380Y-40077D01*
X356697Y-235068D02*
X356513Y-235231D01*
X86649450Y-5029671D02*
X86696861Y-5019025D01*
X94950000Y-104187727D02*
X94950000Y-100212272D01*
X55094737Y-5010718D02*
X55142963Y-5004770D01*
X50810012Y-100033152D02*
X50768960Y-100059148D01*
X85904770Y-5892963D02*
X85910718Y-5844737D01*
X82675278Y-99838047D02*
X82643539Y-99874841D01*
X94878014Y-104571128D02*
X94902805Y-104501839D01*
X5142Y-901768D02*
X5094Y-902256D01*
X9007368Y-98402619D02*
X9020328Y-98449450D01*
X51239281Y-5844737D02*
X51245229Y-5892963D01*
X86744737Y-100189281D02*
X86696861Y-100180974D01*
X50924841Y-99943539D02*
X50888047Y-99975278D01*
X82643539Y-5325158D02*
X82675278Y-5361952D01*
X6002Y-100200912D02*
X5558Y-100201122D01*
X8909148Y-5481039D02*
X8933099Y-5523318D01*
X39950549Y-100170328D02*
X39903138Y-100180974D01*
X94943383Y-104310156D02*
X94943417Y-104309913D01*
X81958576Y-5001195D02*
X82007036Y-5004770D01*
X539476Y-112939D02*
X528963Y-118231D01*
X6582Y-104309913D02*
X6616Y-104310156D01*
X43775362Y-5611144D02*
X43795053Y-5566721D01*
X22619025Y-99403138D02*
X22610718Y-99355262D01*
X86124721Y-5361952D02*
X86156460Y-5325158D01*
X44496861Y-5019025D02*
X44544737Y-5010718D01*
X94648013Y-284651D02*
X94593486Y-235231D01*
X71359877Y-97700000D02*
X71408576Y-97701195D01*
X434572Y-175841D02*
X375464Y-219678D01*
X75350000Y-98690122D02*
X75351195Y-98641423D01*
X39997380Y-97742631D02*
X40043519Y-97757874D01*
X94657065Y-104906718D02*
X94665181Y-104898193D01*
X22629671Y-99450549D02*
X22619025Y-99403138D01*
X40299740Y-7305173D02*
X40260012Y-7333152D01*
X9007368Y-6797380D02*
X8992125Y-6843519D01*
X72320328Y-6750549D02*
X72307368Y-6797380D01*
X6002Y-7500912D02*
X5558Y-7501122D01*
X518288Y-124264D02*
X518076Y-124388D01*
X75351195Y-5941423D02*
X75354770Y-5892963D01*
X82842125Y-5656480D02*
X82857368Y-5702619D01*
X71910012Y-97866847D02*
X71949740Y-97894826D01*
X94944441Y-100201122D02*
X94943997Y-100200912D01*
X40698804Y-98641423D02*
X40700000Y-98690122D01*
X94927803Y-104406994D02*
X94927860Y-104406756D01*
X51248804Y-98641423D02*
X51250000Y-98690122D01*
X12027Y-4999996D02*
X12272Y-5000000D01*
X54279671Y-6750549D02*
X54269025Y-6703138D01*
X94932586Y-817049D02*
X94932547Y-816806D01*
X50888047Y-5224721D02*
X50924841Y-5256460D01*
X1353Y-97694874D02*
X1605Y-97695295D01*
X50357036Y-100195229D02*
X50308576Y-100198804D01*
X71647380Y-7457368D02*
X71600549Y-7470328D01*
X40176681Y-5116900D02*
X40218960Y-5140851D01*
X19343539Y-5325158D02*
X19375278Y-5361952D01*
X82243519Y-100142125D02*
X82197380Y-100157368D01*
X175841Y-104765427D02*
X219678Y-104824535D01*
X721619Y-105159922D02*
X793005Y-105177803D01*
X12079671Y-6750549D02*
X12069025Y-6703138D01*
X76052619Y-5042631D02*
X76099450Y-5029671D01*
X8059877Y-97700000D02*
X8108576Y-97701195D01*
X8610012Y-5166847D02*
X8649740Y-5194826D01*
X54689987Y-100033152D02*
X54650259Y-100005173D01*
X71738855Y-7424637D02*
X71693519Y-7442125D01*
X86649450Y-97729671D02*
X86696861Y-97719025D01*
X72024841Y-5256460D02*
X72060033Y-5289966D01*
X3902Y-4997829D02*
X4296Y-4998121D01*
X86261952Y-5224721D02*
X86300259Y-5194826D01*
X40475278Y-7138047D02*
X40443539Y-7174841D01*
X94431711Y-124264D02*
X94421469Y-118462D01*
X94937727Y-7500000D02*
X86890122Y-7500000D01*
X94902805Y-698160D02*
X94878014Y-628871D01*
X81367Y-104593777D02*
X112831Y-104660302D01*
X75750259Y-7305173D02*
X75711952Y-7275278D01*
X72320328Y-99450549D02*
X72307368Y-99497380D01*
X43840851Y-7018960D02*
X43816900Y-6976681D01*
X54366900Y-98223318D02*
X54390851Y-98181039D01*
X94937972Y-4999996D02*
X94940190Y-4999942D01*
X94656718Y-292934D02*
X94648193Y-284818D01*
X22642631Y-6797380D02*
X22629671Y-6750549D01*
X94946097Y-97697829D02*
X94946477Y-97697517D01*
X18803138Y-97719025D02*
X18850549Y-97729671D01*
X94949406Y-987987D02*
X94949397Y-987742D01*
X75369025Y-99403138D02*
X75360718Y-99355262D01*
X86124721Y-99838047D02*
X86094826Y-99799740D01*
X50726681Y-100083099D02*
X50683278Y-100104946D01*
X86066847Y-5439987D02*
X86094826Y-5400259D01*
X94421469Y-118462D02*
X94421036Y-118231D01*
X86156460Y-7174841D02*
X86124721Y-7138047D01*
X12661144Y-97775362D02*
X12706480Y-97757874D01*
X54269025Y-99403138D02*
X54260718Y-99355262D01*
X82898804Y-6558576D02*
X82895229Y-6607036D01*
X19118960Y-5140851D02*
X19160012Y-5166847D01*
X12069025Y-6703138D02*
X12060718Y-6655262D01*
X19465Y-805209D02*
X17452Y-816806D01*
X44223318Y-100083099D02*
X44181039Y-100059148D01*
X1012272Y-105200000D02*
X93937727Y-105200000D01*
X94932547Y-104383193D02*
X94932586Y-104382950D01*
X72060033Y-97989966D02*
X72093539Y-98025158D01*
X86094826Y-5400259D02*
X86124721Y-5361952D01*
X51025278Y-98061952D02*
X51055173Y-98100259D01*
X6002Y-4999087D02*
X6455Y-4999275D01*
X72254946Y-5566721D02*
X72274637Y-5611144D01*
X55191423Y-7498804D02*
X55142963Y-7495229D01*
X9318Y-7500081D02*
X8830Y-7500129D01*
X12216847Y-5439987D02*
X12244826Y-5400259D01*
X71949740Y-100005173D02*
X71910012Y-100033152D01*
X51133099Y-6976681D02*
X51109148Y-7018960D01*
X18755262Y-100189281D02*
X18707036Y-100195229D01*
X75750259Y-5194826D02*
X75789987Y-5166847D01*
X94949440Y-100206917D02*
X94949275Y-100206455D01*
X12411952Y-97924721D02*
X12450259Y-97894826D01*
X23256480Y-5057874D02*
X23302619Y-5042631D01*
X43894826Y-5400259D02*
X43924721Y-5361952D01*
X43710718Y-98544737D02*
X43719025Y-98496861D01*
X75445053Y-98266721D02*
X75466900Y-98223318D01*
X43710718Y-6655262D02*
X43704770Y-6607036D01*
X94774158Y-104765427D02*
X94774302Y-104765228D01*
X129Y-97691169D02*
X201Y-97691655D01*
X94941655Y-7500201D02*
X94941169Y-7500129D01*
X94944441Y-97698877D02*
X94944874Y-97698646D01*
X3902Y-7502170D02*
X3522Y-7502482D01*
X50810012Y-97866847D02*
X50849740Y-97894826D01*
X94945786Y-914240D02*
X94945771Y-913995D01*
X2482Y-97696477D02*
X2811Y-97696840D01*
X71738855Y-100124637D02*
X71693519Y-100142125D01*
X19343539Y-7174841D02*
X19310033Y-7210033D01*
X22766847Y-5439987D02*
X22794826Y-5400259D01*
X72024841Y-99943539D02*
X71988047Y-99975278D01*
X12079671Y-98449450D02*
X12092631Y-98402619D01*
X293281Y-292934D02*
X292934Y-293281D01*
X2811Y-7503159D02*
X2482Y-7503522D01*
X86792963Y-97704770D02*
X86841423Y-97701195D01*
X54390851Y-5481039D02*
X54416847Y-5439987D01*
X94831768Y-104671036D02*
X94837060Y-104660523D01*
X94944441Y-7501122D02*
X94943997Y-7500912D01*
X12799450Y-7470328D02*
X12752619Y-7457368D01*
X54325362Y-6888855D02*
X54307874Y-6843519D01*
X55240122Y-5000000D02*
X71359877Y-5000000D01*
X72209148Y-98181039D02*
X72233099Y-98223318D01*
X5094Y-104297743D02*
X5142Y-104298231D01*
X617206Y-105123504D02*
X617659Y-105123692D01*
X44311144Y-100124637D02*
X44266721Y-100104946D01*
X44223318Y-97816900D02*
X44266721Y-97795053D01*
X43700000Y-99209877D02*
X43700000Y-98690122D01*
X76099450Y-97729671D02*
X76146861Y-97719025D01*
X51230974Y-5796861D02*
X51239281Y-5844737D01*
X82733152Y-99760012D02*
X82705173Y-99799740D01*
X17413Y-104382950D02*
X17452Y-104383193D01*
X8793539Y-99874841D02*
X8760033Y-99910033D01*
X19542125Y-6843519D02*
X19524637Y-6888855D01*
X94947829Y-4996097D02*
X94948121Y-4995703D01*
X1605Y-7504704D02*
X1353Y-7505125D01*
X12060718Y-99355262D02*
X12054770Y-99307036D01*
X805209Y-19465D02*
X804728Y-19561D01*
X2170Y-7503902D02*
X1878Y-7504296D01*
X40670328Y-99450549D02*
X40657368Y-99497380D01*
X297Y-7507863D02*
X201Y-7508344D01*
X54731039Y-97840851D02*
X54773318Y-97816900D01*
X50259877Y-5000000D02*
X50259877Y-5000000D01*
X76194737Y-7489281D02*
X76146861Y-7480974D01*
X94949275Y-97693544D02*
X94949440Y-97693082D01*
X8483278Y-97795053D02*
X8526681Y-97816900D01*
X18943519Y-7442125D02*
X18897380Y-7457368D01*
X85919025Y-6703138D02*
X85910718Y-6655262D01*
X297Y-100207863D02*
X201Y-100208344D01*
X628641Y-105127928D02*
X628871Y-105128014D01*
X40700000Y-6509877D02*
X40698804Y-6558576D01*
X9020328Y-98449450D02*
X9030974Y-98496861D01*
X94946840Y-100202811D02*
X94946477Y-100202482D01*
X617206Y-76495D02*
X606445Y-81265D01*
X201Y-100208344D02*
X129Y-100208830D01*
X44402619Y-97742631D02*
X44449450Y-97729671D01*
X75379671Y-5749450D02*
X75392631Y-5702619D01*
X72274637Y-5611144D02*
X72292125Y-5656480D01*
X94228380Y-40077D02*
X94156994Y-22196D01*
X12306460Y-99874841D02*
X12274721Y-99838047D01*
X112831Y-539697D02*
X81367Y-606222D01*
X12375158Y-7243539D02*
X12339966Y-7210033D01*
X94906720Y-104489961D02*
X94909859Y-104478617D01*
X54307874Y-5656480D02*
X54325362Y-5611144D01*
X12272Y-97700000D02*
X8059877Y-97700000D01*
X43795053Y-99633278D02*
X43775362Y-99588855D01*
X75831039Y-5140851D02*
X75873318Y-5116900D01*
X82418960Y-5140851D02*
X82460012Y-5166847D01*
X721382Y-40140D02*
X710038Y-43279D01*
X219678Y-375464D02*
X175841Y-434572D01*
X2170Y-100203902D02*
X1878Y-100204296D01*
X50405262Y-100189281D02*
X50357036Y-100195229D01*
X12092631Y-98402619D02*
X12107874Y-98356480D01*
X82889281Y-99355262D02*
X82880974Y-99403138D01*
X23000259Y-97894826D02*
X23039987Y-97866847D01*
X54250000Y-99209877D02*
X54250000Y-98690122D01*
X50308576Y-100198804D02*
X50259877Y-100200000D01*
X82055262Y-100189281D02*
X82007036Y-100195229D01*
X75407874Y-6843519D02*
X75392631Y-6797380D01*
X75360718Y-6655262D02*
X75354770Y-6607036D01*
X12489987Y-5166847D02*
X12531039Y-5140851D01*
X12846861Y-97719025D02*
X12894737Y-97710718D01*
X913995Y-4228D02*
X902256Y-5094D01*
X54444826Y-98100259D02*
X54474721Y-98061952D01*
X72233099Y-6976681D02*
X72209148Y-7018960D01*
X12274721Y-99838047D02*
X12244826Y-99799740D01*
X57Y-100209809D02*
X3Y-100212027D01*
X94946477Y-7502482D02*
X94946097Y-7502170D01*
X75407874Y-99543519D02*
X75392631Y-99497380D01*
X94948121Y-7504296D02*
X94947829Y-7503902D01*
X75354770Y-98592963D02*
X75360718Y-98544737D01*
X72155173Y-7099740D02*
X72125278Y-7138047D01*
X86841423Y-97701195D02*
X86890122Y-97700000D01*
X72348804Y-6558576D02*
X72345229Y-6607036D01*
X8992125Y-99543519D02*
X8974637Y-99588855D01*
X18707036Y-7495229D02*
X18658576Y-7498804D01*
X82460012Y-97866847D02*
X82499740Y-97894826D01*
X94909859Y-104478617D02*
X94909922Y-104478380D01*
X8393519Y-5057874D02*
X8438855Y-5075362D01*
X75711952Y-5224721D02*
X75750259Y-5194826D01*
X19600000Y-5990122D02*
X19600000Y-6509877D01*
X12107874Y-98356480D02*
X12125362Y-98311144D01*
X22139Y-793243D02*
X19561Y-804728D01*
X40700000Y-5990122D02*
X40700000Y-6509877D01*
X71359877Y-100200000D02*
X55240122Y-100200000D01*
X23444737Y-5010718D02*
X23492963Y-5004770D01*
X82857368Y-5702619D02*
X82870328Y-5749450D01*
X72125278Y-98061952D02*
X72155173Y-98100259D01*
X23000259Y-5194826D02*
X23039987Y-5166847D01*
X22601195Y-6558576D02*
X22600000Y-6509877D01*
X43956460Y-98025158D02*
X43989966Y-97989966D01*
X94948394Y-97695295D02*
X94948646Y-97694874D01*
X40689281Y-5844737D02*
X40695229Y-5892963D01*
X12244826Y-99799740D02*
X12216847Y-99760012D01*
X94944874Y-97698646D02*
X94945295Y-97698394D01*
X40133278Y-5095053D02*
X40176681Y-5116900D01*
X44592963Y-97704770D02*
X44641423Y-97701195D01*
X606445Y-81265D02*
X606222Y-81367D01*
X162221Y-454956D02*
X124388Y-518076D01*
X82705173Y-7099740D02*
X82675278Y-7138047D01*
X8610012Y-100033152D02*
X8568960Y-100059148D01*
X13040122Y-97700000D02*
X18609877Y-97700000D01*
X71457036Y-7495229D02*
X71408576Y-7498804D01*
X71868960Y-97840851D02*
X71910012Y-97866847D01*
X19598804Y-98641423D02*
X19600000Y-98690122D01*
X44449450Y-7470328D02*
X44402619Y-7457368D01*
X23302619Y-5042631D02*
X23349450Y-5029671D01*
X94873504Y-104582793D02*
X94873692Y-104582340D01*
X71505262Y-7489281D02*
X71457036Y-7495229D01*
X22139Y-104406756D02*
X22196Y-104406994D01*
X22716900Y-99676681D02*
X22695053Y-99633278D01*
X75675158Y-97956460D02*
X75711952Y-97924721D01*
X94593486Y-235231D02*
X94593302Y-235068D01*
X50453138Y-100180974D02*
X50405262Y-100189281D01*
X94949702Y-100207863D02*
X94949583Y-100207387D01*
X54260718Y-98544737D02*
X54269025Y-98496861D01*
X44139987Y-100033152D02*
X44100259Y-100005173D01*
X19598804Y-6558576D02*
X19595229Y-6607036D01*
X9318Y-100200081D02*
X8830Y-100200129D01*
X40140Y-721382D02*
X40077Y-721619D01*
X8724841Y-97956460D02*
X8760033Y-97989966D01*
X23256480Y-97757874D02*
X23302619Y-97742631D01*
X86225158Y-97956460D02*
X86261952Y-97924721D01*
X75425362Y-6888855D02*
X75407874Y-6843519D01*
X94948394Y-7504704D02*
X94948121Y-7504296D01*
X8883152Y-7060012D02*
X8855173Y-7099740D01*
X82824637Y-98311144D02*
X82842125Y-98356480D01*
X82288855Y-97775362D02*
X82333278Y-97795053D01*
X75445053Y-5566721D02*
X75466900Y-5523318D01*
X94949087Y-7506002D02*
X94948877Y-7505558D01*
X12339966Y-97989966D02*
X12375158Y-97956460D01*
X50308576Y-97701195D02*
X50357036Y-97704770D01*
X94343777Y-105118632D02*
X94410302Y-105087168D01*
X71949740Y-97894826D02*
X71988047Y-97924721D01*
X75544826Y-98100259D02*
X75574721Y-98061952D01*
X23541423Y-100198804D02*
X23492963Y-100195229D01*
X94946840Y-97697188D02*
X94947188Y-97696840D01*
X94950000Y-97687727D02*
X94950000Y-7512272D01*
X3Y-4987972D02*
X57Y-4990190D01*
X698160Y-105152805D02*
X698392Y-105152885D01*
X8393519Y-7442125D02*
X8347380Y-7457368D01*
X94714931Y-104843302D02*
X94722619Y-104834389D01*
X72348804Y-99258576D02*
X72345229Y-99307036D01*
X43701195Y-98641423D02*
X43704770Y-98592963D01*
X82895229Y-99307036D02*
X82889281Y-99355262D01*
X40374841Y-97956460D02*
X40410033Y-97989966D01*
X50259877Y-5000000D02*
X50308576Y-5001195D01*
X375268Y-104980172D02*
X375464Y-104980321D01*
X51245229Y-99307036D02*
X51239281Y-99355262D01*
X19459148Y-99718960D02*
X19433152Y-99760012D01*
X3Y-7512027D02*
X0Y-7512272D01*
X54269025Y-5796861D02*
X54279671Y-5749450D01*
X8205262Y-100189281D02*
X8157036Y-100195229D01*
X40698804Y-5941423D02*
X40700000Y-5990122D01*
X75351195Y-99258576D02*
X75350000Y-99209877D01*
X23396861Y-5019025D02*
X23444737Y-5010718D01*
X94036004Y-4228D02*
X94035759Y-4213D01*
X54292631Y-98402619D02*
X54307874Y-98356480D01*
X86602619Y-100157368D02*
X86556480Y-100142125D01*
X82333278Y-100104946D02*
X82288855Y-100124637D01*
X94943082Y-7500559D02*
X94942612Y-7500416D01*
X12051195Y-5941423D02*
X12054770Y-5892963D01*
X51055173Y-98100259D02*
X51083152Y-98139987D01*
X72155173Y-99799740D02*
X72125278Y-99838047D01*
X43729671Y-5749450D02*
X43742631Y-5702619D01*
X721382Y-105159859D02*
X721619Y-105159922D01*
X81958576Y-97701195D02*
X82007036Y-97704770D01*
X94949918Y-97690681D02*
X94949942Y-97690190D01*
X94948394Y-4995295D02*
X94948646Y-4994874D01*
X129Y-7508830D02*
X81Y-7509318D01*
X51133099Y-99676681D02*
X51109148Y-99718960D01*
X51083152Y-98139987D02*
X51109148Y-98181039D01*
X51207368Y-6797380D02*
X51192125Y-6843519D01*
X94730321Y-375464D02*
X94730172Y-375268D01*
X94941169Y-100200129D02*
X94940681Y-100200081D01*
X94932547Y-816806D02*
X94930534Y-805209D01*
X86016900Y-6976681D02*
X85995053Y-6933278D01*
X219827Y-375268D02*
X219678Y-375464D01*
X39709877Y-100200000D02*
X23590122Y-100200000D01*
X94948877Y-7505558D02*
X94948646Y-7505125D01*
X2170Y-97696097D02*
X2482Y-97696477D01*
X50810012Y-7333152D02*
X50768960Y-7359148D01*
X94940190Y-7500057D02*
X94937972Y-7500003D01*
X40338047Y-99975278D02*
X40299740Y-100005173D01*
X94343554Y-81265D02*
X94332793Y-76495D01*
X75961144Y-100124637D02*
X75916721Y-100104946D01*
X86225158Y-7243539D02*
X86189966Y-7210033D01*
X593Y-987987D02*
X3Y-1012027D01*
X297Y-97692136D02*
X416Y-97692612D01*
X54999450Y-97729671D02*
X55046861Y-97719025D01*
X82103138Y-100180974D02*
X82055262Y-100189281D01*
X9007368Y-99497380D02*
X8992125Y-99543519D01*
X50547380Y-97742631D02*
X50593519Y-97757874D01*
X94228380Y-105159922D02*
X94228617Y-105159859D01*
X12573318Y-100083099D02*
X12531039Y-100059148D01*
X22889966Y-97989966D02*
X22925158Y-97956460D01*
X86261952Y-99975278D02*
X86225158Y-99943539D01*
X12272Y-100200000D02*
X12027Y-100200003D01*
X40088855Y-100124637D02*
X40043519Y-100142125D01*
X93962257Y-105199397D02*
X94035759Y-105195786D01*
X40260012Y-100033152D02*
X40218960Y-100059148D01*
X54250000Y-98690122D02*
X54250000Y-98690122D01*
X18609877Y-5000000D02*
X18658576Y-5001195D01*
X76340122Y-100200000D02*
X76291423Y-100198804D01*
X44592963Y-7495229D02*
X44544737Y-7489281D01*
X72024841Y-7243539D02*
X71988047Y-7275278D01*
X23123318Y-7383099D02*
X23081039Y-7359148D01*
X1353Y-100205125D02*
X1122Y-100205558D01*
X50500549Y-5029671D02*
X50547380Y-5042631D01*
X8483278Y-100104946D02*
X8438855Y-100124637D01*
X54539966Y-97989966D02*
X54575158Y-97956460D01*
X85929671Y-99450549D02*
X85919025Y-99403138D01*
X18609877Y-97700000D02*
X18658576Y-97701195D01*
X19557368Y-5702619D02*
X19570328Y-5749450D01*
X82243519Y-97757874D02*
X82288855Y-97775362D01*
X86556480Y-7442125D02*
X86511144Y-7424637D01*
X12306460Y-5325158D02*
X12339966Y-5289966D01*
X94059913Y-6582D02*
X94048231Y-5142D01*
X54390851Y-7018960D02*
X54366900Y-6976681D01*
X22794826Y-98100259D02*
X22824721Y-98061952D01*
X19433152Y-99760012D02*
X19405173Y-99799740D01*
X94942612Y-7500416D02*
X94942136Y-7500297D01*
X82675278Y-98061952D02*
X82705173Y-98100259D01*
X54250000Y-98690122D02*
X54251195Y-98641423D01*
X12306460Y-98025158D02*
X12339966Y-97989966D01*
X82824637Y-6888855D02*
X82804946Y-6933278D01*
X18850549Y-5029671D02*
X18897380Y-5042631D01*
X40695229Y-5892963D02*
X40698804Y-5941423D01*
X19542125Y-99543519D02*
X19524637Y-99588855D01*
X235231Y-356513D02*
X235068Y-356697D01*
X71505262Y-100189281D02*
X71457036Y-100195229D01*
X72093539Y-99874841D02*
X72060033Y-99910033D01*
X22657874Y-5656480D02*
X22675362Y-5611144D01*
X375464Y-104980321D02*
X434572Y-105024158D01*
X54861144Y-100124637D02*
X54816721Y-100104946D01*
X94949918Y-7509318D02*
X94949870Y-7508830D01*
X94868734Y-606445D02*
X94868632Y-606222D01*
X724Y-7506455D02*
X559Y-7506917D01*
X19557368Y-98402619D02*
X19570328Y-98449450D01*
X82499740Y-5194826D02*
X82538047Y-5224721D01*
X19033278Y-97795053D02*
X19076681Y-97816900D01*
X22601195Y-98641423D02*
X22604770Y-98592963D01*
X50547380Y-5042631D02*
X50593519Y-5057874D01*
X94332793Y-105123504D02*
X94343554Y-105118734D01*
X94421469Y-105081537D02*
X94431711Y-105075735D01*
X8300549Y-5029671D02*
X8347380Y-5042631D01*
X82889281Y-6655262D02*
X82880974Y-6703138D01*
X51250000Y-6509877D02*
X51248804Y-6558576D01*
X54345053Y-98266721D02*
X54366900Y-98223318D01*
X82376681Y-100083099D02*
X82333278Y-100104946D01*
X50259877Y-97700000D02*
X50308576Y-97701195D01*
X94593302Y-104964931D02*
X94593486Y-104964768D01*
X40680974Y-6703138D02*
X40670328Y-6750549D01*
X44449450Y-100170328D02*
X44402619Y-100157368D01*
X22619025Y-98496861D02*
X22629671Y-98449450D01*
X19274841Y-5256460D02*
X19310033Y-5289966D01*
X75544826Y-5400259D02*
X75574721Y-5361952D01*
X94059913Y-105193417D02*
X94060156Y-105193383D01*
X602Y-987742D02*
X593Y-987987D01*
X40670328Y-5749450D02*
X40680974Y-5796861D01*
X23039987Y-97866847D02*
X23081039Y-97840851D01*
X94930438Y-804728D02*
X94927860Y-793243D01*
X5558Y-100201122D02*
X5125Y-100201353D01*
X94927860Y-104406756D02*
X94930438Y-104395271D01*
X54952619Y-5042631D02*
X54999450Y-5029671D01*
X94156756Y-105177860D02*
X94156994Y-105177803D01*
X94949798Y-97691655D02*
X94949870Y-97691169D01*
X44496861Y-97719025D02*
X44544737Y-97710718D01*
X12450259Y-97894826D02*
X12489987Y-97866847D01*
X50849740Y-5194826D02*
X50888047Y-5224721D01*
X54366900Y-99676681D02*
X54345053Y-99633278D01*
X43757874Y-6843519D02*
X43742631Y-6797380D01*
X54251195Y-5941423D02*
X54254770Y-5892963D01*
X75392631Y-6797380D02*
X75379671Y-6750549D01*
X50683278Y-7404946D02*
X50638855Y-7424637D01*
X54816721Y-100104946D02*
X54773318Y-100083099D01*
X72330974Y-99403138D02*
X72320328Y-99450549D01*
X94868632Y-104593777D02*
X94868734Y-104593554D01*
X43840851Y-98181039D02*
X43866847Y-98139987D01*
X94873692Y-617659D02*
X94873504Y-617206D01*
X19310033Y-5289966D02*
X19343539Y-5325158D01*
X82460012Y-100033152D02*
X82418960Y-100059148D01*
X94947517Y-7503522D02*
X94947188Y-7503159D01*
X12145053Y-6933278D02*
X12125362Y-6888855D01*
X81958576Y-100198804D02*
X81909877Y-100200000D01*
X168919Y-444394D02*
X168647Y-444802D01*
X9020328Y-6750549D02*
X9007368Y-6797380D01*
X54345053Y-99633278D02*
X54325362Y-99588855D01*
X82759148Y-5481039D02*
X82783099Y-5523318D01*
X51055173Y-7099740D02*
X51025278Y-7138047D01*
X86225158Y-5256460D02*
X86261952Y-5224721D01*
X54269025Y-6703138D02*
X54260718Y-6655262D01*
X86696861Y-100180974D02*
X86649450Y-100170328D01*
X71457036Y-5004770D02*
X71505262Y-5010718D01*
X9318Y-4999918D02*
X9809Y-4999942D01*
X40176681Y-97816900D02*
X40218960Y-97840851D01*
X94943544Y-100200724D02*
X94943082Y-100200559D01*
X43866847Y-5439987D02*
X43894826Y-5400259D01*
X81909877Y-5000000D02*
X81909877Y-5000000D01*
X82499740Y-7305173D02*
X82460012Y-7333152D01*
X51192125Y-98356480D02*
X51207368Y-98402619D01*
X94948646Y-4994874D02*
X94948877Y-4994441D01*
X51248804Y-5941423D02*
X51250000Y-5990122D01*
X50453138Y-5019025D02*
X50500549Y-5029671D01*
X12079671Y-5749450D02*
X12092631Y-5702619D01*
X40475278Y-98061952D02*
X40505173Y-98100259D01*
X19524637Y-5611144D02*
X19542125Y-5656480D01*
X51025278Y-7138047D02*
X50993539Y-7174841D01*
X710038Y-43279D02*
X709568Y-43422D01*
X40133278Y-100104946D02*
X40088855Y-100124637D01*
X82733152Y-7060012D02*
X82705173Y-7099740D01*
X94251839Y-105152805D02*
X94321128Y-105128014D01*
X356697Y-104964931D02*
X365610Y-104972619D01*
X85957874Y-98356480D02*
X85975362Y-98311144D01*
X85901195Y-6558576D02*
X85900000Y-6509877D01*
X94774302Y-104765228D02*
X94781080Y-104755605D01*
X43816900Y-98223318D02*
X43840851Y-98181039D01*
X12942963Y-5004770D02*
X12991423Y-5001195D01*
X86841423Y-7498804D02*
X86792963Y-7495229D01*
X94774302Y-434771D02*
X94774158Y-434572D01*
X81909877Y-97700000D02*
X81909877Y-97700000D01*
X72125278Y-7138047D02*
X72093539Y-7174841D01*
X628871Y-105128014D02*
X698160Y-105152805D01*
X94949702Y-7507863D02*
X94949583Y-7507387D01*
X4704Y-100201605D02*
X4296Y-100201878D01*
X85910718Y-6655262D02*
X85904770Y-6607036D01*
X112939Y-539476D02*
X112831Y-539697D01*
X22889966Y-99910033D02*
X22856460Y-99874841D01*
X709568Y-43422D02*
X698392Y-47114D01*
X94947517Y-97696477D02*
X94947829Y-97696097D01*
X72330974Y-5796861D02*
X72339281Y-5844737D01*
X19524637Y-6888855D02*
X19504946Y-6933278D01*
X50888047Y-97924721D02*
X50924841Y-97956460D01*
X8438855Y-5075362D02*
X8483278Y-5095053D01*
X94947517Y-100203522D02*
X94947188Y-100203159D01*
X44311144Y-7424637D02*
X44266721Y-7404946D01*
X51025278Y-99838047D02*
X50993539Y-99874841D01*
X12050000Y-5990122D02*
X12051195Y-5941423D01*
X8688047Y-99975278D02*
X8649740Y-100005173D01*
X86040851Y-99718960D02*
X86016900Y-99676681D01*
X40680974Y-99403138D02*
X40670328Y-99450549D01*
X51154946Y-99633278D02*
X51133099Y-99676681D01*
X75606460Y-99874841D02*
X75574721Y-99838047D01*
X12125362Y-99588855D02*
X12107874Y-99543519D01*
X75490851Y-5481039D02*
X75516847Y-5439987D01*
X44181039Y-5140851D02*
X44223318Y-5116900D01*
X50593519Y-7442125D02*
X50547380Y-7457368D01*
X13040122Y-5000000D02*
X18609877Y-5000000D01*
X43700000Y-6509877D02*
X43700000Y-5990122D01*
X82804946Y-5566721D02*
X82824637Y-5611144D01*
X82759148Y-98181039D02*
X82783099Y-98223318D01*
X8610012Y-7333152D02*
X8568960Y-7359148D01*
X55094737Y-100189281D02*
X55046861Y-100180974D01*
X40088855Y-97775362D02*
X40133278Y-97795053D01*
X75916721Y-5095053D02*
X75961144Y-5075362D01*
X54611952Y-97924721D02*
X54650259Y-97894826D01*
X1878Y-7504296D02*
X1605Y-7504704D01*
X94584010Y-104972930D02*
X94584389Y-104972619D01*
X0Y-104187727D02*
X3Y-104187972D01*
X12107874Y-99543519D02*
X12092631Y-99497380D01*
X94902885Y-698392D02*
X94902805Y-698160D01*
X94949870Y-7508830D02*
X94949798Y-7508344D01*
X54254770Y-98592963D02*
X54260718Y-98544737D01*
X50726681Y-7383099D02*
X50683278Y-7404946D01*
X86556480Y-5057874D02*
X86602619Y-5042631D01*
X44139987Y-5166847D02*
X44181039Y-5140851D01*
X75639966Y-5289966D02*
X75675158Y-5256460D01*
X72209148Y-5481039D02*
X72233099Y-5523318D01*
X454747Y-162349D02*
X444802Y-168647D01*
X1878Y-4995703D02*
X2170Y-4996097D01*
X19600000Y-98690122D02*
X19600000Y-99209877D01*
X19459148Y-7018960D02*
X19433152Y-7060012D01*
X86744737Y-97710718D02*
X86792963Y-97704770D01*
X86300259Y-100005173D02*
X86261952Y-99975278D01*
X124264Y-518288D02*
X118462Y-528530D01*
X416Y-97692612D02*
X559Y-97693082D01*
X72307368Y-98402619D02*
X72320328Y-98449450D01*
X12799450Y-97729671D02*
X12846861Y-97719025D01*
X44449450Y-97729671D02*
X44496861Y-97719025D01*
X3159Y-100202811D02*
X2811Y-100203159D01*
X85995053Y-99633278D02*
X85975362Y-99588855D01*
X12050000Y-98690122D02*
X12051195Y-98641423D01*
X94584389Y-227380D02*
X94584010Y-227069D01*
X82418960Y-97840851D02*
X82460012Y-97866847D01*
X50960033Y-5289966D02*
X50993539Y-5325158D01*
X76307Y-104582340D02*
X76495Y-104582793D01*
X82733152Y-98139987D02*
X82759148Y-98181039D01*
X94902885Y-104501607D02*
X94906577Y-104490431D01*
X284651Y-301986D02*
X235231Y-356513D01*
X18943519Y-100142125D02*
X18897380Y-100157368D01*
X85942631Y-99497380D02*
X85929671Y-99450549D01*
X40642125Y-98356480D02*
X40657368Y-98402619D01*
X39758576Y-100198804D02*
X39709877Y-100200000D01*
X44181039Y-7359148D02*
X44139987Y-7333152D01*
X94941655Y-97699798D02*
X94942136Y-97699702D01*
X9045229Y-5892963D02*
X9048804Y-5941423D01*
X51220328Y-98449450D02*
X51230974Y-98496861D01*
X8649740Y-5194826D02*
X8688047Y-5224721D01*
X94941169Y-7500129D02*
X94940681Y-7500081D01*
X85910718Y-5844737D02*
X85919025Y-5796861D01*
X94940681Y-7500081D02*
X94940190Y-7500057D01*
X8855173Y-98100259D02*
X8883152Y-98139987D01*
X168647Y-444802D02*
X162349Y-454747D01*
X94927803Y-793005D02*
X94909922Y-721619D01*
X54689987Y-5166847D02*
X54731039Y-5140851D01*
X9050000Y-99209877D02*
X9048804Y-99258576D01*
X40218960Y-100059148D02*
X40176681Y-100083099D01*
X94873504Y-617206D02*
X94868734Y-606445D01*
X162349Y-104745252D02*
X168647Y-104755197D01*
X44100259Y-7305173D02*
X44061952Y-7275278D01*
X50768960Y-100059148D02*
X50726681Y-100083099D01*
X86792963Y-100195229D02*
X86744737Y-100189281D01*
X9050000Y-98690122D02*
X9050000Y-99209877D01*
X617659Y-76307D02*
X617206Y-76495D01*
X19483099Y-5523318D02*
X19504946Y-5566721D01*
X18988855Y-97775362D02*
X19033278Y-97795053D01*
X94321358Y-72071D02*
X94321128Y-71985D01*
X94251839Y-47194D02*
X94251607Y-47114D01*
X94943383Y-889843D02*
X94932586Y-817049D01*
X0Y-97687727D02*
X3Y-97687972D01*
X86381039Y-5140851D02*
X86423318Y-5116900D01*
X8108576Y-5001195D02*
X8157036Y-5004770D01*
X793243Y-105177860D02*
X804728Y-105180438D01*
X82898804Y-99258576D02*
X82895229Y-99307036D01*
X51109148Y-99718960D02*
X51083152Y-99760012D01*
X40475278Y-99838047D02*
X40443539Y-99874841D01*
X75354770Y-6607036D02*
X75351195Y-6558576D01*
X43729671Y-98449450D02*
X43742631Y-98402619D01*
X19238047Y-7275278D02*
X19199740Y-7305173D01*
X44356480Y-100142125D02*
X44311144Y-100124637D01*
X94947517Y-4996477D02*
X94947829Y-4996097D01*
X82103138Y-7480974D02*
X82055262Y-7489281D01*
X40583099Y-6976681D02*
X40559148Y-7018960D01*
X55240122Y-7500000D02*
X55191423Y-7498804D01*
X76291423Y-97701195D02*
X76340122Y-97700000D01*
X44025158Y-7243539D02*
X43989966Y-7210033D01*
X76052619Y-100157368D02*
X76006480Y-100142125D01*
X9050000Y-6509877D02*
X9048804Y-6558576D01*
X8855173Y-5400259D02*
X8883152Y-5439987D01*
X5125Y-97698646D02*
X5558Y-97698877D01*
X44025158Y-5256460D02*
X44061952Y-5224721D01*
X22824721Y-98061952D02*
X22856460Y-98025158D01*
X94156756Y-22139D02*
X94145271Y-19561D01*
X94948877Y-4994441D02*
X94949087Y-4993997D01*
X50726681Y-97816900D02*
X50768960Y-97840851D01*
X76340122Y-97700000D02*
X81909877Y-97700000D01*
X76194737Y-100189281D02*
X76146861Y-100180974D01*
X43742631Y-98402619D02*
X43757874Y-98356480D01*
X94942612Y-4999583D02*
X94943082Y-4999440D01*
X8830Y-97699870D02*
X9318Y-97699918D01*
X82705173Y-5400259D02*
X82733152Y-5439987D01*
X94945703Y-4998121D02*
X94946097Y-4997829D01*
X22642631Y-99497380D02*
X22629671Y-99450549D01*
X75831039Y-97840851D02*
X75873318Y-97816900D01*
X4213Y-104285759D02*
X4228Y-104286004D01*
X12092631Y-99497380D02*
X12079671Y-99450549D01*
X50357036Y-7495229D02*
X50308576Y-7498804D01*
X51083152Y-7060012D02*
X51055173Y-7099740D01*
X71988047Y-7275278D02*
X71949740Y-7305173D01*
X71408576Y-5001195D02*
X71457036Y-5004770D01*
X8793539Y-5325158D02*
X8825278Y-5361952D01*
X50405262Y-97710718D02*
X50453138Y-97719025D01*
X23166721Y-97795053D02*
X23211144Y-97775362D01*
X9039281Y-98544737D02*
X9045229Y-98592963D01*
X86261952Y-97924721D02*
X86300259Y-97894826D01*
X86066847Y-98139987D02*
X86094826Y-98100259D01*
X5125Y-7501353D02*
X4704Y-7501605D01*
X75639966Y-97989966D02*
X75675158Y-97956460D01*
X12274721Y-5361952D02*
X12306460Y-5325158D01*
X12125362Y-98311144D02*
X12145053Y-98266721D01*
X82889281Y-98544737D02*
X82895229Y-98592963D01*
X40698804Y-99258576D02*
X40695229Y-99307036D01*
X19033278Y-100104946D02*
X18988855Y-100124637D01*
X12573318Y-97816900D02*
X12616721Y-97795053D01*
X85995053Y-6933278D02*
X85975362Y-6888855D01*
X94574731Y-219827D02*
X94574535Y-219678D01*
X51250000Y-99209877D02*
X51248804Y-99258576D01*
X8793539Y-7174841D02*
X8760033Y-7210033D01*
X94946097Y-7502170D02*
X94945703Y-7501878D01*
X54575158Y-5256460D02*
X54611952Y-5224721D01*
X94515427Y-105024158D02*
X94574535Y-104980321D01*
X12027Y-7500003D02*
X9809Y-7500057D01*
X54906480Y-5057874D02*
X54952619Y-5042631D01*
X19600000Y-6509877D02*
X19598804Y-6558576D01*
X51133099Y-98223318D02*
X51154946Y-98266721D01*
X8347380Y-97742631D02*
X8393519Y-97757874D01*
X72233099Y-99676681D02*
X72209148Y-99718960D01*
X94943417Y-104309913D02*
X94944857Y-104298231D01*
X43710718Y-99355262D02*
X43704770Y-99307036D01*
X55240122Y-100200000D02*
X55191423Y-100198804D01*
X23302619Y-97742631D02*
X23349450Y-97729671D01*
X51055173Y-99799740D02*
X51025278Y-99838047D01*
X22642631Y-98402619D02*
X22657874Y-98356480D01*
X54575158Y-99943539D02*
X54539966Y-99910033D01*
X8438855Y-100124637D02*
X8393519Y-100142125D01*
X13040122Y-100200000D02*
X12991423Y-100198804D01*
X162349Y-454747D02*
X162221Y-454956D01*
X40604946Y-5566721D02*
X40624637Y-5611144D01*
X94240431Y-43422D02*
X94239961Y-43279D01*
X72292125Y-98356480D02*
X72307368Y-98402619D01*
X76146861Y-5019025D02*
X76194737Y-5010718D01*
X617659Y-105123692D02*
X628641Y-105127928D01*
X22604770Y-99307036D02*
X22601195Y-99258576D01*
X81909877Y-97700000D02*
X81958576Y-97701195D01*
X85929671Y-6750549D02*
X85919025Y-6703138D01*
X18897380Y-7457368D02*
X18850549Y-7470328D01*
X86744737Y-7489281D02*
X86696861Y-7480974D01*
X18897380Y-100157368D02*
X18850549Y-100170328D01*
X23444737Y-7489281D02*
X23396861Y-7480974D01*
X19274841Y-7243539D02*
X19238047Y-7275278D01*
X93962012Y-105199406D02*
X93962257Y-105199397D01*
X54539966Y-5289966D02*
X54575158Y-5256460D01*
X1605Y-97695295D02*
X1878Y-97695703D01*
X22675362Y-99588855D02*
X22657874Y-99543519D01*
X44402619Y-7457368D02*
X44356480Y-7442125D01*
X75639966Y-7210033D02*
X75606460Y-7174841D01*
X54575158Y-97956460D02*
X54611952Y-97924721D01*
X12799450Y-100170328D02*
X12752619Y-100157368D01*
X19343539Y-99874841D02*
X19310033Y-99910033D01*
X85975362Y-5611144D02*
X85995053Y-5566721D01*
X94410302Y-105087168D02*
X94410523Y-105087060D01*
X94940681Y-4999918D02*
X94941169Y-4999870D01*
X75369025Y-5796861D02*
X75379671Y-5749450D01*
X54292631Y-6797380D02*
X54279671Y-6750549D01*
X19310033Y-99910033D02*
X19274841Y-99943539D01*
X94145271Y-105180438D02*
X94156756Y-105177860D01*
X12706480Y-5057874D02*
X12752619Y-5042631D01*
X71826681Y-5116900D02*
X71868960Y-5140851D01*
X43894826Y-7099740D02*
X43866847Y-7060012D01*
X18897380Y-97742631D02*
X18943519Y-97757874D01*
X71949740Y-5194826D02*
X71988047Y-5224721D01*
X94940190Y-4999942D02*
X94940681Y-4999918D01*
X86696861Y-7480974D02*
X86649450Y-7470328D01*
X94940681Y-100200081D02*
X94940190Y-100200057D01*
X44690122Y-5000000D02*
X50259877Y-5000000D01*
X75392631Y-98402619D02*
X75407874Y-98356480D01*
X72292125Y-5656480D02*
X72307368Y-5702619D01*
X71738855Y-97775362D02*
X71783278Y-97795053D01*
X51207368Y-99497380D02*
X51192125Y-99543519D01*
X71553138Y-7480974D02*
X71505262Y-7489281D01*
X40695229Y-98592963D02*
X40698804Y-98641423D01*
X86890122Y-5000000D02*
X94937727Y-5000000D01*
M02*
