M48
METRIC
T1C0.200
T2C0.300
T3C0.300
T4C0.500
%
G90
G05
T1
X8.112Y-41.1
X8.724Y-40.487
X8.724Y-41.713
X9.337Y-39.874
X9.337Y-42.326
X9.337Y-41.1
X9.95Y-39.262
X9.95Y-40.487
X9.95Y-41.713
X9.95Y-42.938
X10.563Y-41.1
X10.563Y-39.874
X10.563Y-42.326
X11.176Y-40.487
X11.176Y-41.713
X11.788Y-41.1
X15.45Y-24.1
X15.45Y-25.2
X15.45Y-26.3
X16.55Y-24.1
X16.55Y-25.2
X16.55Y-26.3
X17.65Y-24.1
X17.65Y-25.2
X17.65Y-26.3
X19.712Y-41.1
X20.324Y-40.487
X20.324Y-41.713
X20.937Y-39.874
X20.937Y-42.326
X20.937Y-41.1
X21.55Y-39.262
X21.55Y-40.487
X21.55Y-41.713
X21.55Y-42.938
X22.163Y-41.1
X22.163Y-39.874
X22.163Y-42.326
X22.776Y-40.487
X22.776Y-41.713
X23.388Y-41.1
X39.762Y-41.1
X40.374Y-40.487
X40.374Y-41.713
X40.987Y-39.874
X40.987Y-42.326
X40.987Y-41.1
X41.6Y-39.262
X41.6Y-40.487
X41.6Y-41.713
X41.6Y-42.938
X42.213Y-41.1
X42.213Y-39.874
X42.213Y-42.326
X42.826Y-40.487
X42.826Y-41.713
X43.438Y-41.1
X47.1Y-24.1
X47.1Y-25.2
X47.1Y-26.3
X48.2Y-24.1
X48.2Y-25.2
X48.2Y-26.3
X49.3Y-24.1
X49.3Y-25.2
X49.3Y-26.3
X51.362Y-41.1
X51.974Y-40.487
X51.974Y-41.713
X52.587Y-39.874
X52.587Y-42.326
X52.587Y-41.1
X53.2Y-39.262
X53.2Y-40.487
X53.2Y-41.713
X53.2Y-42.938
X53.813Y-41.1
X53.813Y-39.874
X53.813Y-42.326
X54.426Y-40.487
X54.426Y-41.713
X55.038Y-41.1
X71.412Y-41.1
X72.024Y-40.487
X72.024Y-41.713
X72.637Y-39.874
X72.637Y-42.326
X72.637Y-41.1
X73.25Y-39.262
X73.25Y-40.487
X73.25Y-41.713
X73.25Y-42.938
X73.863Y-41.1
X73.863Y-39.874
X73.863Y-42.326
X74.476Y-40.487
X74.476Y-41.713
X75.088Y-41.1
X78.75Y-24.1
X78.75Y-25.2
X78.75Y-26.3
X79.85Y-24.1
X79.85Y-25.2
X79.85Y-26.3
X80.95Y-24.1
X80.95Y-25.2
X80.95Y-26.3
X83.012Y-41.1
X83.624Y-40.487
X83.624Y-41.713
X84.237Y-39.874
X84.237Y-42.326
X84.237Y-41.1
X84.85Y-39.262
X84.85Y-40.487
X84.85Y-41.713
X84.85Y-42.938
X85.463Y-41.1
X85.463Y-39.874
X85.463Y-42.326
X86.076Y-40.487
X86.076Y-41.713
X86.688Y-41.1
T2
X3.292Y-22.3
X7.15Y-38.352
X8.15Y-36.7
X9.95Y-22.9
X9.95Y-24.8
X9.95Y-26.3
X11.15Y-14.0
X11.619Y-19.969
X13.95Y-28.0
X14.05Y-42.6
X14.408Y-38.6
X14.8Y-17.7
X15.45Y-38.2
X15.85Y-44.7
X16.05Y-19.6
X16.15Y-37.3
X16.65Y-39.9
X16.85Y-13.8
X17.15Y-41.9
X17.45Y-43.4
X17.649Y-37.3
X18.61Y-37.984
X18.611Y-36.924
X18.75Y-14.5
X19.25Y-22.3
X19.35Y-27.2
X19.358Y-12.592
X20.25Y-35.1
X20.55Y-29.6
X22.95Y-37.15
X23.15Y-17.95
X23.15Y-11.65
X23.15Y-13.75
X23.15Y-15.85
X23.67Y-37.92
X34.942Y-22.3
X38.8Y-38.352
X39.8Y-36.7
X41.6Y-22.9
X41.6Y-24.8
X41.6Y-26.3
X42.8Y-14.0
X43.269Y-19.969
X45.6Y-28.0
X45.7Y-42.6
X46.058Y-38.6
X46.45Y-17.7
X47.1Y-38.2
X47.5Y-44.7
X47.7Y-19.6
X47.8Y-37.3
X48.3Y-39.9
X48.5Y-13.8
X48.8Y-41.9
X49.1Y-43.4
X49.299Y-37.3
X50.26Y-37.984
X50.261Y-36.924
X50.4Y-14.5
X50.9Y-22.3
X51.0Y-27.2
X51.008Y-12.592
X51.9Y-35.1
X52.2Y-29.6
X54.6Y-37.15
X54.8Y-17.95
X54.8Y-11.65
X54.8Y-13.75
X54.8Y-15.85
X55.32Y-37.92
X66.592Y-22.3
X70.45Y-38.352
X71.45Y-36.7
X73.25Y-22.9
X73.25Y-24.8
X73.25Y-26.3
X74.45Y-14.0
X74.919Y-19.969
X77.25Y-28.0
X77.35Y-42.6
X77.708Y-38.6
X78.1Y-17.7
X78.75Y-38.2
X79.15Y-44.7
X79.35Y-19.6
X79.45Y-37.3
X79.95Y-39.9
X80.15Y-13.8
X80.45Y-41.9
X80.75Y-43.4
X80.95Y-37.3
X81.91Y-37.984
X81.911Y-36.924
X82.05Y-14.5
X82.55Y-22.3
X82.65Y-27.2
X82.658Y-12.592
X83.55Y-35.1
X83.85Y-29.6
X86.25Y-37.15
X86.45Y-17.95
X86.45Y-11.65
X86.45Y-13.75
X86.45Y-15.85
X86.97Y-37.92
T3
X2.79Y-58.8
X6.29Y-60.4
X7.29Y-60.4
X8.29Y-60.4
X9.29Y-60.4
X10.29Y-60.4
X11.29Y-60.4
X12.29Y-60.4
X13.29Y-60.4
X14.29Y-60.4
X15.29Y-60.4
X16.29Y-60.4
X17.29Y-60.4
X18.29Y-60.4
X19.29Y-60.4
X20.29Y-60.4
X21.29Y-60.4
X22.29Y-60.4
X23.29Y-60.4
X24.29Y-60.4
X25.29Y-60.4
X28.79Y-58.8
X34.44Y-58.8
X37.94Y-60.4
X38.94Y-60.4
X39.94Y-60.4
X40.94Y-60.4
X41.94Y-60.4
X42.94Y-60.4
X43.94Y-60.4
X44.94Y-60.4
X45.94Y-60.4
X46.94Y-60.4
X47.94Y-60.4
X48.94Y-60.4
X49.94Y-60.4
X50.94Y-60.4
X51.94Y-60.4
X52.94Y-60.4
X53.94Y-60.4
X54.94Y-60.4
X55.94Y-60.4
X56.94Y-60.4
X60.44Y-58.8
X66.09Y-58.8
X69.59Y-60.4
X70.59Y-60.4
X71.59Y-60.4
X72.59Y-60.4
X73.59Y-60.4
X74.59Y-60.4
X75.59Y-60.4
X76.59Y-60.4
X77.59Y-60.4
X78.59Y-60.4
X79.59Y-60.4
X80.59Y-60.4
X81.59Y-60.4
X82.59Y-60.4
X83.59Y-60.4
X84.59Y-60.4
X85.59Y-60.4
X86.59Y-60.4
X87.59Y-60.4
X88.59Y-60.4
X92.09Y-58.8
T4
G00X6.29Y-67.6
M15
G01X6.29Y-71.1
M16
G05
G00X6.29Y-76.85
M15
G01X6.29Y-80.35
M16
G05
G00X6.29Y-86.1
M15
G01X6.29Y-89.6
M16
G05
G00X7.29Y-72.25
M15
G01X7.29Y-75.75
M16
G05
G00X7.29Y-81.5
M15
G01X7.29Y-85.0
M16
G05
G00X7.29Y-90.75
M15
G01X7.29Y-94.25
M16
G05
G00X8.29Y-67.6
M15
G01X8.29Y-71.1
M16
G05
G00X8.29Y-76.85
M15
G01X8.29Y-80.35
M16
G05
G00X8.29Y-86.1
M15
G01X8.29Y-89.6
M16
G05
G00X9.29Y-72.25
M15
G01X9.29Y-75.75
M16
G05
G00X9.29Y-81.5
M15
G01X9.29Y-85.0
M16
G05
G00X9.29Y-90.75
M15
G01X9.29Y-94.25
M16
G05
G00X10.29Y-67.6
M15
G01X10.29Y-71.1
M16
G05
G00X10.29Y-76.85
M15
G01X10.29Y-80.35
M16
G05
G00X10.29Y-86.1
M15
G01X10.29Y-89.6
M16
G05
G00X11.29Y-72.25
M15
G01X11.29Y-75.75
M16
G05
G00X11.29Y-81.5
M15
G01X11.29Y-85.0
M16
G05
G00X11.29Y-90.75
M15
G01X11.29Y-94.25
M16
G05
G00X12.29Y-67.6
M15
G01X12.29Y-71.1
M16
G05
G00X12.29Y-76.85
M15
G01X12.29Y-80.35
M16
G05
G00X12.29Y-86.1
M15
G01X12.29Y-89.6
M16
G05
G00X13.29Y-72.25
M15
G01X13.29Y-75.75
M16
G05
G00X13.29Y-81.5
M15
G01X13.29Y-85.0
M16
G05
G00X13.29Y-90.75
M15
G01X13.29Y-94.25
M16
G05
G00X14.29Y-67.6
M15
G01X14.29Y-71.1
M16
G05
G00X14.29Y-76.85
M15
G01X14.29Y-80.35
M16
G05
G00X14.29Y-86.1
M15
G01X14.29Y-89.6
M16
G05
G00X15.29Y-72.25
M15
G01X15.29Y-75.75
M16
G05
G00X15.29Y-81.5
M15
G01X15.29Y-85.0
M16
G05
G00X15.29Y-90.75
M15
G01X15.29Y-94.25
M16
G05
G00X16.29Y-67.6
M15
G01X16.29Y-71.1
M16
G05
G00X16.29Y-76.85
M15
G01X16.29Y-80.35
M16
G05
G00X16.29Y-86.1
M15
G01X16.29Y-89.6
M16
G05
G00X17.29Y-72.25
M15
G01X17.29Y-75.75
M16
G05
G00X17.29Y-81.5
M15
G01X17.29Y-85.0
M16
G05
G00X17.29Y-90.75
M15
G01X17.29Y-94.25
M16
G05
G00X18.29Y-67.6
M15
G01X18.29Y-71.1
M16
G05
G00X18.29Y-76.85
M15
G01X18.29Y-80.35
M16
G05
G00X18.29Y-86.1
M15
G01X18.29Y-89.6
M16
G05
G00X19.29Y-72.25
M15
G01X19.29Y-75.75
M16
G05
G00X19.29Y-81.5
M15
G01X19.29Y-85.0
M16
G05
G00X19.29Y-90.75
M15
G01X19.29Y-94.25
M16
G05
G00X20.29Y-67.6
M15
G01X20.29Y-71.1
M16
G05
G00X20.29Y-76.85
M15
G01X20.29Y-80.35
M16
G05
G00X20.29Y-86.1
M15
G01X20.29Y-89.6
M16
G05
G00X21.29Y-72.25
M15
G01X21.29Y-75.75
M16
G05
G00X21.29Y-81.5
M15
G01X21.29Y-85.0
M16
G05
G00X21.29Y-90.75
M15
G01X21.29Y-94.25
M16
G05
G00X22.29Y-67.6
M15
G01X22.29Y-71.1
M16
G05
G00X22.29Y-76.85
M15
G01X22.29Y-80.35
M16
G05
G00X22.29Y-86.1
M15
G01X22.29Y-89.6
M16
G05
G00X23.29Y-72.25
M15
G01X23.29Y-75.75
M16
G05
G00X23.29Y-81.5
M15
G01X23.29Y-85.0
M16
G05
G00X23.29Y-90.75
M15
G01X23.29Y-94.25
M16
G05
G00X24.29Y-67.6
M15
G01X24.29Y-71.1
M16
G05
G00X24.29Y-76.85
M15
G01X24.29Y-80.35
M16
G05
G00X24.29Y-86.1
M15
G01X24.29Y-89.6
M16
G05
G00X25.29Y-72.25
M15
G01X25.29Y-75.75
M16
G05
G00X25.29Y-81.5
M15
G01X25.29Y-85.0
M16
G05
G00X25.29Y-90.75
M15
G01X25.29Y-94.25
M16
G05
G00X37.94Y-67.6
M15
G01X37.94Y-71.1
M16
G05
G00X37.94Y-76.85
M15
G01X37.94Y-80.35
M16
G05
G00X37.94Y-86.1
M15
G01X37.94Y-89.6
M16
G05
G00X38.94Y-72.25
M15
G01X38.94Y-75.75
M16
G05
G00X38.94Y-81.5
M15
G01X38.94Y-85.0
M16
G05
G00X38.94Y-90.75
M15
G01X38.94Y-94.25
M16
G05
G00X39.94Y-67.6
M15
G01X39.94Y-71.1
M16
G05
G00X39.94Y-76.85
M15
G01X39.94Y-80.35
M16
G05
G00X39.94Y-86.1
M15
G01X39.94Y-89.6
M16
G05
G00X40.94Y-72.25
M15
G01X40.94Y-75.75
M16
G05
G00X40.94Y-81.5
M15
G01X40.94Y-85.0
M16
G05
G00X40.94Y-90.75
M15
G01X40.94Y-94.25
M16
G05
G00X41.94Y-67.6
M15
G01X41.94Y-71.1
M16
G05
G00X41.94Y-76.85
M15
G01X41.94Y-80.35
M16
G05
G00X41.94Y-86.1
M15
G01X41.94Y-89.6
M16
G05
G00X42.94Y-72.25
M15
G01X42.94Y-75.75
M16
G05
G00X42.94Y-81.5
M15
G01X42.94Y-85.0
M16
G05
G00X42.94Y-90.75
M15
G01X42.94Y-94.25
M16
G05
G00X43.94Y-67.6
M15
G01X43.94Y-71.1
M16
G05
G00X43.94Y-76.85
M15
G01X43.94Y-80.35
M16
G05
G00X43.94Y-86.1
M15
G01X43.94Y-89.6
M16
G05
G00X44.94Y-72.25
M15
G01X44.94Y-75.75
M16
G05
G00X44.94Y-81.5
M15
G01X44.94Y-85.0
M16
G05
G00X44.94Y-90.75
M15
G01X44.94Y-94.25
M16
G05
G00X45.94Y-67.6
M15
G01X45.94Y-71.1
M16
G05
G00X45.94Y-76.85
M15
G01X45.94Y-80.35
M16
G05
G00X45.94Y-86.1
M15
G01X45.94Y-89.6
M16
G05
G00X46.94Y-72.25
M15
G01X46.94Y-75.75
M16
G05
G00X46.94Y-81.5
M15
G01X46.94Y-85.0
M16
G05
G00X46.94Y-90.75
M15
G01X46.94Y-94.25
M16
G05
G00X47.94Y-67.6
M15
G01X47.94Y-71.1
M16
G05
G00X47.94Y-76.85
M15
G01X47.94Y-80.35
M16
G05
G00X47.94Y-86.1
M15
G01X47.94Y-89.6
M16
G05
G00X48.94Y-72.25
M15
G01X48.94Y-75.75
M16
G05
G00X48.94Y-81.5
M15
G01X48.94Y-85.0
M16
G05
G00X48.94Y-90.75
M15
G01X48.94Y-94.25
M16
G05
G00X49.94Y-67.6
M15
G01X49.94Y-71.1
M16
G05
G00X49.94Y-76.85
M15
G01X49.94Y-80.35
M16
G05
G00X49.94Y-86.1
M15
G01X49.94Y-89.6
M16
G05
G00X50.94Y-72.25
M15
G01X50.94Y-75.75
M16
G05
G00X50.94Y-81.5
M15
G01X50.94Y-85.0
M16
G05
G00X50.94Y-90.75
M15
G01X50.94Y-94.25
M16
G05
G00X51.94Y-67.6
M15
G01X51.94Y-71.1
M16
G05
G00X51.94Y-76.85
M15
G01X51.94Y-80.35
M16
G05
G00X51.94Y-86.1
M15
G01X51.94Y-89.6
M16
G05
G00X52.94Y-72.25
M15
G01X52.94Y-75.75
M16
G05
G00X52.94Y-81.5
M15
G01X52.94Y-85.0
M16
G05
G00X52.94Y-90.75
M15
G01X52.94Y-94.25
M16
G05
G00X53.94Y-67.6
M15
G01X53.94Y-71.1
M16
G05
G00X53.94Y-76.85
M15
G01X53.94Y-80.35
M16
G05
G00X53.94Y-86.1
M15
G01X53.94Y-89.6
M16
G05
G00X54.94Y-72.25
M15
G01X54.94Y-75.75
M16
G05
G00X54.94Y-81.5
M15
G01X54.94Y-85.0
M16
G05
G00X54.94Y-90.75
M15
G01X54.94Y-94.25
M16
G05
G00X55.94Y-67.6
M15
G01X55.94Y-71.1
M16
G05
G00X55.94Y-76.85
M15
G01X55.94Y-80.35
M16
G05
G00X55.94Y-86.1
M15
G01X55.94Y-89.6
M16
G05
G00X56.94Y-72.25
M15
G01X56.94Y-75.75
M16
G05
G00X56.94Y-81.5
M15
G01X56.94Y-85.0
M16
G05
G00X56.94Y-90.75
M15
G01X56.94Y-94.25
M16
G05
G00X69.59Y-67.6
M15
G01X69.59Y-71.1
M16
G05
G00X69.59Y-76.85
M15
G01X69.59Y-80.35
M16
G05
G00X69.59Y-86.1
M15
G01X69.59Y-89.6
M16
G05
G00X70.59Y-72.25
M15
G01X70.59Y-75.75
M16
G05
G00X70.59Y-81.5
M15
G01X70.59Y-85.0
M16
G05
G00X70.59Y-90.75
M15
G01X70.59Y-94.25
M16
G05
G00X71.59Y-67.6
M15
G01X71.59Y-71.1
M16
G05
G00X71.59Y-76.85
M15
G01X71.59Y-80.35
M16
G05
G00X71.59Y-86.1
M15
G01X71.59Y-89.6
M16
G05
G00X72.59Y-72.25
M15
G01X72.59Y-75.75
M16
G05
G00X72.59Y-81.5
M15
G01X72.59Y-85.0
M16
G05
G00X72.59Y-90.75
M15
G01X72.59Y-94.25
M16
G05
G00X73.59Y-67.6
M15
G01X73.59Y-71.1
M16
G05
G00X73.59Y-76.85
M15
G01X73.59Y-80.35
M16
G05
G00X73.59Y-86.1
M15
G01X73.59Y-89.6
M16
G05
G00X74.59Y-72.25
M15
G01X74.59Y-75.75
M16
G05
G00X74.59Y-81.5
M15
G01X74.59Y-85.0
M16
G05
G00X74.59Y-90.75
M15
G01X74.59Y-94.25
M16
G05
G00X75.59Y-67.6
M15
G01X75.59Y-71.1
M16
G05
G00X75.59Y-76.85
M15
G01X75.59Y-80.35
M16
G05
G00X75.59Y-86.1
M15
G01X75.59Y-89.6
M16
G05
G00X76.59Y-72.25
M15
G01X76.59Y-75.75
M16
G05
G00X76.59Y-81.5
M15
G01X76.59Y-85.0
M16
G05
G00X76.59Y-90.75
M15
G01X76.59Y-94.25
M16
G05
G00X77.59Y-67.6
M15
G01X77.59Y-71.1
M16
G05
G00X77.59Y-76.85
M15
G01X77.59Y-80.35
M16
G05
G00X77.59Y-86.1
M15
G01X77.59Y-89.6
M16
G05
G00X78.59Y-72.25
M15
G01X78.59Y-75.75
M16
G05
G00X78.59Y-81.5
M15
G01X78.59Y-85.0
M16
G05
G00X78.59Y-90.75
M15
G01X78.59Y-94.25
M16
G05
G00X79.59Y-67.6
M15
G01X79.59Y-71.1
M16
G05
G00X79.59Y-76.85
M15
G01X79.59Y-80.35
M16
G05
G00X79.59Y-86.1
M15
G01X79.59Y-89.6
M16
G05
G00X80.59Y-72.25
M15
G01X80.59Y-75.75
M16
G05
G00X80.59Y-81.5
M15
G01X80.59Y-85.0
M16
G05
G00X80.59Y-90.75
M15
G01X80.59Y-94.25
M16
G05
G00X81.59Y-67.6
M15
G01X81.59Y-71.1
M16
G05
G00X81.59Y-76.85
M15
G01X81.59Y-80.35
M16
G05
G00X81.59Y-86.1
M15
G01X81.59Y-89.6
M16
G05
G00X82.59Y-72.25
M15
G01X82.59Y-75.75
M16
G05
G00X82.59Y-81.5
M15
G01X82.59Y-85.0
M16
G05
G00X82.59Y-90.75
M15
G01X82.59Y-94.25
M16
G05
G00X83.59Y-67.6
M15
G01X83.59Y-71.1
M16
G05
G00X83.59Y-76.85
M15
G01X83.59Y-80.35
M16
G05
G00X83.59Y-86.1
M15
G01X83.59Y-89.6
M16
G05
G00X84.59Y-72.25
M15
G01X84.59Y-75.75
M16
G05
G00X84.59Y-81.5
M15
G01X84.59Y-85.0
M16
G05
G00X84.59Y-90.75
M15
G01X84.59Y-94.25
M16
G05
G00X85.59Y-67.6
M15
G01X85.59Y-71.1
M16
G05
G00X85.59Y-76.85
M15
G01X85.59Y-80.35
M16
G05
G00X85.59Y-86.1
M15
G01X85.59Y-89.6
M16
G05
G00X86.59Y-72.25
M15
G01X86.59Y-75.75
M16
G05
G00X86.59Y-81.5
M15
G01X86.59Y-85.0
M16
G05
G00X86.59Y-90.75
M15
G01X86.59Y-94.25
M16
G05
G00X87.59Y-67.6
M15
G01X87.59Y-71.1
M16
G05
G00X87.59Y-76.85
M15
G01X87.59Y-80.35
M16
G05
G00X87.59Y-86.1
M15
G01X87.59Y-89.6
M16
G05
G00X88.59Y-72.25
M15
G01X88.59Y-75.75
M16
G05
G00X88.59Y-81.5
M15
G01X88.59Y-85.0
M16
G05
G00X88.59Y-90.75
M15
G01X88.59Y-94.25
M16
G05
T0
M30
