%TF.GenerationSoftware,KiCad,Pcbnew,7.0.5*%
%TF.CreationDate,2023-07-03T18:09:16+02:00*%
%TF.ProjectId,actuator_panel,61637475-6174-46f7-925f-70616e656c2e,rev?*%
%TF.SameCoordinates,Original*%
%TF.FileFunction,Copper,L1,Top*%
%TF.FilePolarity,Positive*%
%FSLAX46Y46*%
G04 Gerber Fmt 4.6, Leading zero omitted, Abs format (unit mm)*
G04 Created by KiCad (PCBNEW 7.0.5) date 2023-07-03 18:09:16*
%MOMM*%
%LPD*%
G01*
G04 APERTURE LIST*
G04 Aperture macros list*
%AMRoundRect*
0 Rectangle with rounded corners*
0 $1 Rounding radius*
0 $2 $3 $4 $5 $6 $7 $8 $9 X,Y pos of 4 corners*
0 Add a 4 corners polygon primitive as box body*
4,1,4,$2,$3,$4,$5,$6,$7,$8,$9,$2,$3,0*
0 Add four circle primitives for the rounded corners*
1,1,$1+$1,$2,$3*
1,1,$1+$1,$4,$5*
1,1,$1+$1,$6,$7*
1,1,$1+$1,$8,$9*
0 Add four rect primitives between the rounded corners*
20,1,$1+$1,$2,$3,$4,$5,0*
20,1,$1+$1,$4,$5,$6,$7,0*
20,1,$1+$1,$6,$7,$8,$9,0*
20,1,$1+$1,$8,$9,$2,$3,0*%
%AMRotRect*
0 Rectangle, with rotation*
0 The origin of the aperture is its center*
0 $1 length*
0 $2 width*
0 $3 Rotation angle, in degrees counterclockwise*
0 Add horizontal line*
21,1,$1,$2,0,0,$3*%
G04 Aperture macros list end*
%TA.AperFunction,ComponentPad*%
%ADD10C,1.000000*%
%TD*%
%TA.AperFunction,SMDPad,CuDef*%
%ADD11C,2.000000*%
%TD*%
%TA.AperFunction,SMDPad,CuDef*%
%ADD12RoundRect,0.250000X-1.450000X0.250000X-1.450000X-0.250000X1.450000X-0.250000X1.450000X0.250000X0*%
%TD*%
%TA.AperFunction,SMDPad,CuDef*%
%ADD13R,0.300000X1.250000*%
%TD*%
%TA.AperFunction,SMDPad,CuDef*%
%ADD14R,0.500000X1.000000*%
%TD*%
%TA.AperFunction,ComponentPad*%
%ADD15R,1.000000X1.000000*%
%TD*%
%TA.AperFunction,SMDPad,CuDef*%
%ADD16RoundRect,0.225000X0.250000X-0.225000X0.250000X0.225000X-0.250000X0.225000X-0.250000X-0.225000X0*%
%TD*%
%TA.AperFunction,SMDPad,CuDef*%
%ADD17RoundRect,0.200000X-0.200000X-0.275000X0.200000X-0.275000X0.200000X0.275000X-0.200000X0.275000X0*%
%TD*%
%TA.AperFunction,SMDPad,CuDef*%
%ADD18RoundRect,0.225000X-0.225000X-0.250000X0.225000X-0.250000X0.225000X0.250000X-0.225000X0.250000X0*%
%TD*%
%TA.AperFunction,SMDPad,CuDef*%
%ADD19RoundRect,0.075000X0.075000X0.325000X-0.075000X0.325000X-0.075000X-0.325000X0.075000X-0.325000X0*%
%TD*%
%TA.AperFunction,SMDPad,CuDef*%
%ADD20RoundRect,0.125000X0.125000X0.375000X-0.125000X0.375000X-0.125000X-0.375000X0.125000X-0.375000X0*%
%TD*%
%TA.AperFunction,ComponentPad*%
%ADD21RoundRect,0.500000X-0.500000X-0.500000X0.500000X-0.500000X0.500000X0.500000X-0.500000X0.500000X0*%
%TD*%
%TA.AperFunction,ComponentPad*%
%ADD22RoundRect,0.150000X-0.150000X-1.600000X0.150000X-1.600000X0.150000X1.600000X-0.150000X1.600000X0*%
%TD*%
%TA.AperFunction,ComponentPad*%
%ADD23RoundRect,0.250000X-0.250000X-2.000000X0.250000X-2.000000X0.250000X2.000000X-0.250000X2.000000X0*%
%TD*%
%TA.AperFunction,SMDPad,CuDef*%
%ADD24RoundRect,0.250000X0.300000X-0.300000X0.300000X0.300000X-0.300000X0.300000X-0.300000X-0.300000X0*%
%TD*%
%TA.AperFunction,SMDPad,CuDef*%
%ADD25RoundRect,0.250000X-0.475000X0.250000X-0.475000X-0.250000X0.475000X-0.250000X0.475000X0.250000X0*%
%TD*%
%TA.AperFunction,SMDPad,CuDef*%
%ADD26RoundRect,0.062500X-0.220971X-0.309359X0.309359X0.220971X0.220971X0.309359X-0.309359X-0.220971X0*%
%TD*%
%TA.AperFunction,SMDPad,CuDef*%
%ADD27RoundRect,0.062500X0.220971X-0.309359X0.309359X-0.220971X-0.220971X0.309359X-0.309359X0.220971X0*%
%TD*%
%TA.AperFunction,ComponentPad*%
%ADD28C,0.500000*%
%TD*%
%TA.AperFunction,SMDPad,CuDef*%
%ADD29RotRect,3.100000X3.100000X45.000000*%
%TD*%
%TA.AperFunction,SMDPad,CuDef*%
%ADD30RoundRect,0.200000X0.275000X-0.200000X0.275000X0.200000X-0.275000X0.200000X-0.275000X-0.200000X0*%
%TD*%
%TA.AperFunction,SMDPad,CuDef*%
%ADD31RoundRect,0.225000X0.225000X0.250000X-0.225000X0.250000X-0.225000X-0.250000X0.225000X-0.250000X0*%
%TD*%
%TA.AperFunction,SMDPad,CuDef*%
%ADD32RoundRect,0.062500X-0.350000X-0.062500X0.350000X-0.062500X0.350000X0.062500X-0.350000X0.062500X0*%
%TD*%
%TA.AperFunction,SMDPad,CuDef*%
%ADD33RoundRect,0.062500X-0.062500X-0.350000X0.062500X-0.350000X0.062500X0.350000X-0.062500X0.350000X0*%
%TD*%
%TA.AperFunction,SMDPad,CuDef*%
%ADD34R,2.700000X2.700000*%
%TD*%
%TA.AperFunction,SMDPad,CuDef*%
%ADD35RoundRect,0.200000X-0.275000X0.200000X-0.275000X-0.200000X0.275000X-0.200000X0.275000X0.200000X0*%
%TD*%
%TA.AperFunction,SMDPad,CuDef*%
%ADD36RoundRect,0.062500X0.309359X-0.220971X-0.220971X0.309359X-0.309359X0.220971X0.220971X-0.309359X0*%
%TD*%
%TA.AperFunction,SMDPad,CuDef*%
%ADD37RoundRect,0.062500X0.309359X0.220971X0.220971X0.309359X-0.309359X-0.220971X-0.220971X-0.309359X0*%
%TD*%
%TA.AperFunction,SMDPad,CuDef*%
%ADD38RotRect,3.100000X3.100000X135.000000*%
%TD*%
%TA.AperFunction,ViaPad*%
%ADD39C,0.600000*%
%TD*%
%TA.AperFunction,Conductor*%
%ADD40C,0.200000*%
%TD*%
%TA.AperFunction,Conductor*%
%ADD41C,0.250000*%
%TD*%
%TA.AperFunction,Conductor*%
%ADD42C,0.300000*%
%TD*%
%TA.AperFunction,Conductor*%
%ADD43C,0.500000*%
%TD*%
%TA.AperFunction,Conductor*%
%ADD44C,0.400000*%
%TD*%
G04 APERTURE END LIST*
D10*
%TO.P,TP3,1,1*%
%TO.N,Board_0-/VPP*%
X125575000Y-47400000D03*
%TD*%
D11*
%TO.P,KiKit_FID_T_3,*%
%TO.N,*%
X108525000Y-122700000D03*
%TD*%
D12*
%TO.P,L1,1,1*%
%TO.N,Board_0-Net-(L1-Pad1)*%
X118075000Y-48800000D03*
%TO.P,L1,2,2*%
%TO.N,Board_0-/VIN*%
X118075000Y-50900000D03*
%TD*%
D13*
%TO.P,J2,1,Pin_1*%
%TO.N,Board_2-/reed20*%
X189875000Y-71850000D03*
%TO.P,J2,2,Pin_2*%
X189375000Y-71850000D03*
%TO.P,J2,3,Pin_3*%
%TO.N,Board_2-/reed19*%
X188875000Y-71850000D03*
%TO.P,J2,4,Pin_4*%
X188375000Y-71850000D03*
%TO.P,J2,5,Pin_5*%
%TO.N,Board_2-/reed18*%
X187875000Y-71850000D03*
%TO.P,J2,6,Pin_6*%
X187375000Y-71850000D03*
%TO.P,J2,7,Pin_7*%
%TO.N,Board_2-/reed17*%
X186875000Y-71850000D03*
%TO.P,J2,8,Pin_8*%
X186375000Y-71850000D03*
%TO.P,J2,9,Pin_9*%
%TO.N,Board_2-/reed16*%
X185875000Y-71850000D03*
%TO.P,J2,10,Pin_10*%
X185375000Y-71850000D03*
%TO.P,J2,11,Pin_11*%
%TO.N,Board_2-/reed15*%
X184875000Y-71850000D03*
%TO.P,J2,12,Pin_12*%
X184375000Y-71850000D03*
%TO.P,J2,13,Pin_13*%
%TO.N,Board_2-/reed14*%
X183875000Y-71850000D03*
%TO.P,J2,14,Pin_14*%
X183375000Y-71850000D03*
%TO.P,J2,15,Pin_15*%
%TO.N,Board_2-/reed13*%
X182875000Y-71850000D03*
%TO.P,J2,16,Pin_16*%
X182375000Y-71850000D03*
%TO.P,J2,17,Pin_17*%
%TO.N,Board_2-/reed12*%
X181875000Y-71850000D03*
%TO.P,J2,18,Pin_18*%
X181375000Y-71850000D03*
%TO.P,J2,19,Pin_19*%
%TO.N,Board_2-/reed11*%
X180875000Y-71850000D03*
%TO.P,J2,20,Pin_20*%
X180375000Y-71850000D03*
%TO.P,J2,21,Pin_21*%
%TO.N,Board_2-/reed10*%
X179875000Y-71850000D03*
%TO.P,J2,22,Pin_22*%
X179375000Y-71850000D03*
%TO.P,J2,23,Pin_23*%
%TO.N,Board_2-/reed9*%
X178875000Y-71850000D03*
%TO.P,J2,24,Pin_24*%
X178375000Y-71850000D03*
%TO.P,J2,25,Pin_25*%
%TO.N,Board_2-/reed8*%
X177875000Y-71850000D03*
%TO.P,J2,26,Pin_26*%
X177375000Y-71850000D03*
%TO.P,J2,27,Pin_27*%
%TO.N,Board_2-/reed7*%
X176875000Y-71850000D03*
%TO.P,J2,28,Pin_28*%
X176375000Y-71850000D03*
%TO.P,J2,29,Pin_29*%
%TO.N,Board_2-/reed6*%
X175875000Y-71850000D03*
%TO.P,J2,30,Pin_30*%
X175375000Y-71850000D03*
%TO.P,J2,31,Pin_31*%
%TO.N,Board_2-/reed5*%
X174875000Y-71850000D03*
%TO.P,J2,32,Pin_32*%
X174375000Y-71850000D03*
%TO.P,J2,33,Pin_33*%
%TO.N,Board_2-/reed4*%
X173875000Y-71850000D03*
%TO.P,J2,34,Pin_34*%
X173375000Y-71850000D03*
%TO.P,J2,35,Pin_35*%
%TO.N,Board_2-/reed3*%
X172875000Y-71850000D03*
%TO.P,J2,36,Pin_36*%
X172375000Y-71850000D03*
%TO.P,J2,37,Pin_37*%
%TO.N,Board_2-/reed2*%
X171875000Y-71850000D03*
%TO.P,J2,38,Pin_38*%
X171375000Y-71850000D03*
%TO.P,J2,39,Pin_39*%
%TO.N,Board_2-/reed1*%
X170875000Y-71850000D03*
%TO.P,J2,40,Pin_40*%
X170375000Y-71850000D03*
D14*
%TO.P,J2,MP1*%
%TO.N,N/C*%
X190875000Y-74550000D03*
%TO.P,J2,MP2*%
X169375000Y-74550000D03*
%TD*%
D15*
%TO.P,TP2,1,1*%
%TO.N,Board_1-GND*%
X153275000Y-55550000D03*
%TD*%
D10*
%TO.P,TP11,1,1*%
%TO.N,Board_2-/SCL*%
X188175000Y-34400000D03*
%TD*%
%TO.P,TP3,1,1*%
%TO.N,Board_1-/VPP*%
X157225000Y-47400000D03*
%TD*%
%TO.P,TP15,1,1*%
%TO.N,Board_1-/VIN*%
X153275000Y-53225000D03*
%TD*%
%TO.P,TP4,1,1*%
%TO.N,Board_0-/VBST*%
X121625000Y-50900000D03*
%TD*%
%TO.P,TP13,1,1*%
%TO.N,Board_0-/POL*%
X104075000Y-41200000D03*
%TD*%
D16*
%TO.P,C3,1*%
%TO.N,Board_1-Net-(U3-REG)*%
X147425000Y-41375000D03*
%TO.P,C3,2*%
%TO.N,Board_1-GND*%
X147425000Y-39825000D03*
%TD*%
D15*
%TO.P,TP2,1,1*%
%TO.N,Board_1-GND*%
X135725000Y-43500000D03*
%TD*%
D17*
%TO.P,R3,1*%
%TO.N,Board_1-Net-(U3-REXT)*%
X152850000Y-43300000D03*
%TO.P,R3,2*%
%TO.N,Board_1-GND*%
X154500000Y-43300000D03*
%TD*%
D16*
%TO.P,C7,1*%
%TO.N,Board_1-Net-(U3-IN-)*%
X154525000Y-39925000D03*
%TO.P,C7,2*%
%TO.N,Board_1-/IN-*%
X154525000Y-38375000D03*
%TD*%
D15*
%TO.P,TP2,1,1*%
%TO.N,Board_2-GND*%
X167375000Y-43500000D03*
%TD*%
D18*
%TO.P,C8,1*%
%TO.N,Board_2-/VDD*%
X180700000Y-52900000D03*
%TO.P,C8,2*%
%TO.N,Board_2-GND*%
X182250000Y-52900000D03*
%TD*%
D19*
%TO.P,J1,1,Pin_1*%
%TO.N,Board_1-GND*%
X145175000Y-32700000D03*
%TO.P,J1,2,Pin_2*%
%TO.N,Board_1-/POL*%
X145675000Y-32700000D03*
%TO.P,J1,3,Pin_3*%
%TO.N,Board_1-/SS*%
X146175000Y-32700000D03*
%TO.P,J1,4,Pin_4*%
%TO.N,Board_1-/SCLK*%
X146675000Y-32700000D03*
%TO.P,J1,5,Pin_5*%
%TO.N,Board_1-/MISO*%
X147175000Y-32700000D03*
%TO.P,J1,6,Pin_6*%
%TO.N,Board_1-/MOSI*%
X147675000Y-32700000D03*
%TO.P,J1,7,Pin_7*%
%TO.N,Board_1-/VDD*%
X148175000Y-32700000D03*
%TO.P,J1,8,Pin_8*%
%TO.N,Board_1-/IN-*%
X148675000Y-32700000D03*
%TO.P,J1,9,Pin_9*%
%TO.N,Board_1-/IN+*%
X149175000Y-32700000D03*
%TO.P,J1,10,Pin_10*%
%TO.N,Board_1-/SCL*%
X149675000Y-32700000D03*
%TO.P,J1,11,Pin_11*%
%TO.N,Board_1-/SDA*%
X150175000Y-32700000D03*
%TO.P,J1,12,Pin_12*%
%TO.N,Board_1-/VIN*%
X150675000Y-32700000D03*
D20*
%TO.P,J1,MP*%
%TO.N,N/C*%
X151675000Y-30200000D03*
X144175000Y-30200000D03*
%TD*%
D13*
%TO.P,J2,1,Pin_1*%
%TO.N,Board_0-/reed20*%
X126575000Y-71850000D03*
%TO.P,J2,2,Pin_2*%
X126075000Y-71850000D03*
%TO.P,J2,3,Pin_3*%
%TO.N,Board_0-/reed19*%
X125575000Y-71850000D03*
%TO.P,J2,4,Pin_4*%
X125075000Y-71850000D03*
%TO.P,J2,5,Pin_5*%
%TO.N,Board_0-/reed18*%
X124575000Y-71850000D03*
%TO.P,J2,6,Pin_6*%
X124075000Y-71850000D03*
%TO.P,J2,7,Pin_7*%
%TO.N,Board_0-/reed17*%
X123575000Y-71850000D03*
%TO.P,J2,8,Pin_8*%
X123075000Y-71850000D03*
%TO.P,J2,9,Pin_9*%
%TO.N,Board_0-/reed16*%
X122575000Y-71850000D03*
%TO.P,J2,10,Pin_10*%
X122075000Y-71850000D03*
%TO.P,J2,11,Pin_11*%
%TO.N,Board_0-/reed15*%
X121575000Y-71850000D03*
%TO.P,J2,12,Pin_12*%
X121075000Y-71850000D03*
%TO.P,J2,13,Pin_13*%
%TO.N,Board_0-/reed14*%
X120575000Y-71850000D03*
%TO.P,J2,14,Pin_14*%
X120075000Y-71850000D03*
%TO.P,J2,15,Pin_15*%
%TO.N,Board_0-/reed13*%
X119575000Y-71850000D03*
%TO.P,J2,16,Pin_16*%
X119075000Y-71850000D03*
%TO.P,J2,17,Pin_17*%
%TO.N,Board_0-/reed12*%
X118575000Y-71850000D03*
%TO.P,J2,18,Pin_18*%
X118075000Y-71850000D03*
%TO.P,J2,19,Pin_19*%
%TO.N,Board_0-/reed11*%
X117575000Y-71850000D03*
%TO.P,J2,20,Pin_20*%
X117075000Y-71850000D03*
%TO.P,J2,21,Pin_21*%
%TO.N,Board_0-/reed10*%
X116575000Y-71850000D03*
%TO.P,J2,22,Pin_22*%
X116075000Y-71850000D03*
%TO.P,J2,23,Pin_23*%
%TO.N,Board_0-/reed9*%
X115575000Y-71850000D03*
%TO.P,J2,24,Pin_24*%
X115075000Y-71850000D03*
%TO.P,J2,25,Pin_25*%
%TO.N,Board_0-/reed8*%
X114575000Y-71850000D03*
%TO.P,J2,26,Pin_26*%
X114075000Y-71850000D03*
%TO.P,J2,27,Pin_27*%
%TO.N,Board_0-/reed7*%
X113575000Y-71850000D03*
%TO.P,J2,28,Pin_28*%
X113075000Y-71850000D03*
%TO.P,J2,29,Pin_29*%
%TO.N,Board_0-/reed6*%
X112575000Y-71850000D03*
%TO.P,J2,30,Pin_30*%
X112075000Y-71850000D03*
%TO.P,J2,31,Pin_31*%
%TO.N,Board_0-/reed5*%
X111575000Y-71850000D03*
%TO.P,J2,32,Pin_32*%
X111075000Y-71850000D03*
%TO.P,J2,33,Pin_33*%
%TO.N,Board_0-/reed4*%
X110575000Y-71850000D03*
%TO.P,J2,34,Pin_34*%
X110075000Y-71850000D03*
%TO.P,J2,35,Pin_35*%
%TO.N,Board_0-/reed3*%
X109575000Y-71850000D03*
%TO.P,J2,36,Pin_36*%
X109075000Y-71850000D03*
%TO.P,J2,37,Pin_37*%
%TO.N,Board_0-/reed2*%
X108575000Y-71850000D03*
%TO.P,J2,38,Pin_38*%
X108075000Y-71850000D03*
%TO.P,J2,39,Pin_39*%
%TO.N,Board_0-/reed1*%
X107575000Y-71850000D03*
%TO.P,J2,40,Pin_40*%
X107075000Y-71850000D03*
D14*
%TO.P,J2,MP1*%
%TO.N,N/C*%
X127575000Y-74550000D03*
%TO.P,J2,MP2*%
X106075000Y-74550000D03*
%TD*%
D17*
%TO.P,R1,1*%
%TO.N,Board_1-/VBST*%
X143800000Y-46300000D03*
%TO.P,R1,2*%
%TO.N,Board_1-Net-(U3-FB)*%
X145450000Y-46300000D03*
%TD*%
D10*
%TO.P,TP1,1,1*%
%TO.N,Board_0-/VDD*%
X104075000Y-29750000D03*
%TD*%
%TO.P,TP3,1,1*%
%TO.N,Board_2-/VPP*%
X188875000Y-47400000D03*
%TD*%
%TO.P,TP1,1,1*%
%TO.N,Board_2-/VDD*%
X167375000Y-29750000D03*
%TD*%
D17*
%TO.P,R1,1*%
%TO.N,Board_0-/VBST*%
X112150000Y-46300000D03*
%TO.P,R1,2*%
%TO.N,Board_0-Net-(U3-FB)*%
X113800000Y-46300000D03*
%TD*%
%TO.P,R2,1*%
%TO.N,Board_0-GND*%
X112150000Y-44700000D03*
%TO.P,R2,2*%
%TO.N,Board_0-Net-(U3-FB)*%
X113800000Y-44700000D03*
%TD*%
D10*
%TO.P,TP10,1,1*%
%TO.N,Board_2-/SDA*%
X188175000Y-36750000D03*
%TD*%
D17*
%TO.P,R2,1*%
%TO.N,Board_1-GND*%
X143800000Y-44700000D03*
%TO.P,R2,2*%
%TO.N,Board_1-Net-(U3-FB)*%
X145450000Y-44700000D03*
%TD*%
D10*
%TO.P,TP10,1,1*%
%TO.N,Board_1-/SDA*%
X156525000Y-36750000D03*
%TD*%
%TO.P,TP4,1,1*%
%TO.N,Board_2-/VBST*%
X184925000Y-50900000D03*
%TD*%
D15*
%TO.P,TP2,1,1*%
%TO.N,Board_2-GND*%
X184925000Y-55550000D03*
%TD*%
D10*
%TO.P,TP14,1,1*%
%TO.N,Board_2-/SS*%
X167375000Y-38900000D03*
%TD*%
D17*
%TO.P,R3,1*%
%TO.N,Board_0-Net-(U3-REXT)*%
X121200000Y-43300000D03*
%TO.P,R3,2*%
%TO.N,Board_0-GND*%
X122850000Y-43300000D03*
%TD*%
D21*
%TO.P,piezo1,21,Pin_21*%
%TO.N,Board_2-/PZT_Common*%
X167115000Y-78800000D03*
D22*
X170615000Y-79650000D03*
X171615000Y-79650000D03*
X172615000Y-79650000D03*
X173615000Y-79650000D03*
X174615000Y-79650000D03*
X175615000Y-79650000D03*
X176615000Y-79650000D03*
X177615000Y-79650000D03*
X178615000Y-79650000D03*
X179615000Y-79650000D03*
X180615000Y-79650000D03*
X181615000Y-79650000D03*
X182615000Y-79650000D03*
X183615000Y-79650000D03*
X184615000Y-79650000D03*
X185615000Y-79650000D03*
X186615000Y-79650000D03*
X187615000Y-79650000D03*
X188615000Y-79650000D03*
X189615000Y-79650000D03*
D21*
X193115000Y-78800000D03*
D23*
%TO.P,piezo1,22,Pin_22*%
%TO.N,Board_2-/fill*%
X170615000Y-89350000D03*
X170615000Y-98600000D03*
X170615000Y-107850000D03*
X171615000Y-94000000D03*
X171615000Y-103250000D03*
X171615000Y-112500000D03*
X172615000Y-89350000D03*
X172615000Y-98600000D03*
X172615000Y-107850000D03*
X173615000Y-94000000D03*
X173615000Y-103250000D03*
X173615000Y-112500000D03*
X174615000Y-89350000D03*
X174615000Y-98600000D03*
X174615000Y-107850000D03*
X175615000Y-94000000D03*
X175615000Y-103250000D03*
X175615000Y-112500000D03*
X176615000Y-89350000D03*
X176615000Y-98600000D03*
X176615000Y-107850000D03*
X177615000Y-94000000D03*
X177615000Y-103250000D03*
X177615000Y-112500000D03*
X178615000Y-89350000D03*
X178615000Y-98600000D03*
X178615000Y-107850000D03*
X179615000Y-94000000D03*
X179615000Y-103250000D03*
X179615000Y-112500000D03*
X180615000Y-89350000D03*
X180615000Y-98600000D03*
X180615000Y-107850000D03*
X181615000Y-94000000D03*
X181615000Y-103250000D03*
X181615000Y-112500000D03*
X182615000Y-89350000D03*
X182615000Y-98600000D03*
X182615000Y-107850000D03*
X183615000Y-94000000D03*
X183615000Y-103250000D03*
X183615000Y-112500000D03*
X184615000Y-89350000D03*
X184615000Y-98600000D03*
X184615000Y-107850000D03*
X185615000Y-94000000D03*
X185615000Y-103250000D03*
X185615000Y-112500000D03*
X186615000Y-89350000D03*
X186615000Y-98600000D03*
X186615000Y-107850000D03*
X187615000Y-94000000D03*
X187615000Y-103250000D03*
X187615000Y-112500000D03*
X188615000Y-89350000D03*
X188615000Y-98600000D03*
X188615000Y-107850000D03*
X189615000Y-94000000D03*
X189615000Y-103250000D03*
X189615000Y-112500000D03*
%TD*%
D12*
%TO.P,L1,1,1*%
%TO.N,Board_2-Net-(L1-Pad1)*%
X181375000Y-48800000D03*
%TO.P,L1,2,2*%
%TO.N,Board_2-/VIN*%
X181375000Y-50900000D03*
%TD*%
D24*
%TO.P,D1,1,K*%
%TO.N,Board_1-/VPP*%
X148525000Y-63500000D03*
%TO.P,D1,2,A*%
%TO.N,Board_1-/VDD*%
X148525000Y-60700000D03*
%TD*%
D17*
%TO.P,R2,1*%
%TO.N,Board_2-GND*%
X175450000Y-44700000D03*
%TO.P,R2,2*%
%TO.N,Board_2-Net-(U3-FB)*%
X177100000Y-44700000D03*
%TD*%
D10*
%TO.P,TP8,1,1*%
%TO.N,Board_2-/MOSI*%
X167375000Y-32000000D03*
%TD*%
D16*
%TO.P,C6,1*%
%TO.N,Board_0-Net-(U3-IN+)*%
X121275000Y-39925000D03*
%TO.P,C6,2*%
%TO.N,Board_0-/IN+*%
X121275000Y-38375000D03*
%TD*%
D12*
%TO.P,L1,1,1*%
%TO.N,Board_1-Net-(L1-Pad1)*%
X149725000Y-48800000D03*
%TO.P,L1,2,2*%
%TO.N,Board_1-/VIN*%
X149725000Y-50900000D03*
%TD*%
D10*
%TO.P,TP9,1,1*%
%TO.N,Board_2-/MISO*%
X167375000Y-34300000D03*
%TD*%
%TO.P,TP6,1,1*%
%TO.N,Board_0-/IN+*%
X124875000Y-29700000D03*
%TD*%
%TO.P,TP12,1,1*%
%TO.N,Board_0-/SCLK*%
X104075000Y-36600000D03*
%TD*%
D16*
%TO.P,C5,1*%
%TO.N,Board_2-/VIN*%
X178275000Y-50575000D03*
%TO.P,C5,2*%
%TO.N,Board_2-GND*%
X178275000Y-49025000D03*
%TD*%
D21*
%TO.P,piezo1,21,Pin_21*%
%TO.N,Board_1-/PZT_Common*%
X135465000Y-78800000D03*
D22*
X138965000Y-79650000D03*
X139965000Y-79650000D03*
X140965000Y-79650000D03*
X141965000Y-79650000D03*
X142965000Y-79650000D03*
X143965000Y-79650000D03*
X144965000Y-79650000D03*
X145965000Y-79650000D03*
X146965000Y-79650000D03*
X147965000Y-79650000D03*
X148965000Y-79650000D03*
X149965000Y-79650000D03*
X150965000Y-79650000D03*
X151965000Y-79650000D03*
X152965000Y-79650000D03*
X153965000Y-79650000D03*
X154965000Y-79650000D03*
X155965000Y-79650000D03*
X156965000Y-79650000D03*
X157965000Y-79650000D03*
D21*
X161465000Y-78800000D03*
D23*
%TO.P,piezo1,22,Pin_22*%
%TO.N,Board_1-/fill*%
X138965000Y-89350000D03*
X138965000Y-98600000D03*
X138965000Y-107850000D03*
X139965000Y-94000000D03*
X139965000Y-103250000D03*
X139965000Y-112500000D03*
X140965000Y-89350000D03*
X140965000Y-98600000D03*
X140965000Y-107850000D03*
X141965000Y-94000000D03*
X141965000Y-103250000D03*
X141965000Y-112500000D03*
X142965000Y-89350000D03*
X142965000Y-98600000D03*
X142965000Y-107850000D03*
X143965000Y-94000000D03*
X143965000Y-103250000D03*
X143965000Y-112500000D03*
X144965000Y-89350000D03*
X144965000Y-98600000D03*
X144965000Y-107850000D03*
X145965000Y-94000000D03*
X145965000Y-103250000D03*
X145965000Y-112500000D03*
X146965000Y-89350000D03*
X146965000Y-98600000D03*
X146965000Y-107850000D03*
X147965000Y-94000000D03*
X147965000Y-103250000D03*
X147965000Y-112500000D03*
X148965000Y-89350000D03*
X148965000Y-98600000D03*
X148965000Y-107850000D03*
X149965000Y-94000000D03*
X149965000Y-103250000D03*
X149965000Y-112500000D03*
X150965000Y-89350000D03*
X150965000Y-98600000D03*
X150965000Y-107850000D03*
X151965000Y-94000000D03*
X151965000Y-103250000D03*
X151965000Y-112500000D03*
X152965000Y-89350000D03*
X152965000Y-98600000D03*
X152965000Y-107850000D03*
X153965000Y-94000000D03*
X153965000Y-103250000D03*
X153965000Y-112500000D03*
X154965000Y-89350000D03*
X154965000Y-98600000D03*
X154965000Y-107850000D03*
X155965000Y-94000000D03*
X155965000Y-103250000D03*
X155965000Y-112500000D03*
X156965000Y-89350000D03*
X156965000Y-98600000D03*
X156965000Y-107850000D03*
X157965000Y-94000000D03*
X157965000Y-103250000D03*
X157965000Y-112500000D03*
%TD*%
D25*
%TO.P,C4,1*%
%TO.N,Board_1-/VBST*%
X153225000Y-46450000D03*
%TO.P,C4,2*%
%TO.N,Board_1-GND*%
X153225000Y-48350000D03*
%TD*%
D10*
%TO.P,TP6,1,1*%
%TO.N,Board_1-/IN+*%
X156525000Y-29700000D03*
%TD*%
D15*
%TO.P,TP2,1,1*%
%TO.N,Board_0-GND*%
X124875000Y-39150000D03*
%TD*%
D19*
%TO.P,J1,1,Pin_1*%
%TO.N,Board_2-GND*%
X176825000Y-32700000D03*
%TO.P,J1,2,Pin_2*%
%TO.N,Board_2-/POL*%
X177325000Y-32700000D03*
%TO.P,J1,3,Pin_3*%
%TO.N,Board_2-/SS*%
X177825000Y-32700000D03*
%TO.P,J1,4,Pin_4*%
%TO.N,Board_2-/SCLK*%
X178325000Y-32700000D03*
%TO.P,J1,5,Pin_5*%
%TO.N,Board_2-/MISO*%
X178825000Y-32700000D03*
%TO.P,J1,6,Pin_6*%
%TO.N,Board_2-/MOSI*%
X179325000Y-32700000D03*
%TO.P,J1,7,Pin_7*%
%TO.N,Board_2-/VDD*%
X179825000Y-32700000D03*
%TO.P,J1,8,Pin_8*%
%TO.N,Board_2-/IN-*%
X180325000Y-32700000D03*
%TO.P,J1,9,Pin_9*%
%TO.N,Board_2-/IN+*%
X180825000Y-32700000D03*
%TO.P,J1,10,Pin_10*%
%TO.N,Board_2-/SCL*%
X181325000Y-32700000D03*
%TO.P,J1,11,Pin_11*%
%TO.N,Board_2-/SDA*%
X181825000Y-32700000D03*
%TO.P,J1,12,Pin_12*%
%TO.N,Board_2-/VIN*%
X182325000Y-32700000D03*
D20*
%TO.P,J1,MP*%
%TO.N,N/C*%
X183325000Y-30200000D03*
X175825000Y-30200000D03*
%TD*%
D10*
%TO.P,TP7,1,1*%
%TO.N,Board_0-/IN-*%
X124875000Y-32062500D03*
%TD*%
%TO.P,TP5,1,1*%
%TO.N,Board_2-/OUT-*%
X188875000Y-45050000D03*
%TD*%
D24*
%TO.P,D1,1,K*%
%TO.N,Board_2-/VPP*%
X180175000Y-63500000D03*
%TO.P,D1,2,A*%
%TO.N,Board_2-/VDD*%
X180175000Y-60700000D03*
%TD*%
D10*
%TO.P,TP15,1,1*%
%TO.N,Board_0-/VIN*%
X121625000Y-53225000D03*
%TD*%
D26*
%TO.P,U1,1,HVout12*%
%TO.N,Board_2-unconnected-(U1-HVout12-Pad1)*%
X171313990Y-61586136D03*
%TO.P,U1,2,HVout11*%
%TO.N,Board_2-unconnected-(U1-HVout11-Pad2)*%
X171667544Y-61939689D03*
%TO.P,U1,3,HVout10*%
%TO.N,Board_2-/reed1*%
X172021097Y-62293243D03*
%TO.P,U1,4,HVout9*%
%TO.N,Board_2-/reed2*%
X172374651Y-62646796D03*
%TO.P,U1,5,HVout8*%
%TO.N,Board_2-/reed3*%
X172728204Y-63000349D03*
%TO.P,U1,6,HVout7*%
%TO.N,Board_2-/reed4*%
X173081757Y-63353903D03*
%TO.P,U1,7,HVout6*%
%TO.N,Board_2-/reed5*%
X173435311Y-63707456D03*
%TO.P,U1,8,HVout5*%
%TO.N,Board_2-/reed6*%
X173788864Y-64061010D03*
D27*
%TO.P,U1,9,HVout4*%
%TO.N,Board_2-/reed7*%
X174761136Y-64061010D03*
%TO.P,U1,10,HVout3*%
%TO.N,Board_2-/reed8*%
X175114689Y-63707456D03*
%TO.P,U1,11,HVout2*%
%TO.N,Board_2-/reed9*%
X175468243Y-63353903D03*
%TO.P,U1,12,HVout1*%
%TO.N,Board_2-/reed10*%
X175821796Y-63000349D03*
%TO.P,U1,13,NC*%
%TO.N,Board_2-unconnected-(U1-NC-Pad13)*%
X176175349Y-62646796D03*
%TO.P,U1,14,VPP*%
%TO.N,Board_2-/VPP*%
X176528903Y-62293243D03*
%TO.P,U1,15,GND*%
%TO.N,Board_2-GND*%
X176882456Y-61939689D03*
%TO.P,U1,16,NC*%
%TO.N,Board_2-unconnected-(U1-NC-Pad16)*%
X177236010Y-61586136D03*
D26*
%TO.P,U1,17,DIN*%
%TO.N,Board_2-Net-(U1-DIN)*%
X177236010Y-60613864D03*
%TO.P,U1,18,NC*%
%TO.N,Board_2-unconnected-(U1-NC-Pad18)*%
X176882456Y-60260311D03*
%TO.P,U1,19,CLK*%
%TO.N,Board_2-/SCLK*%
X176528903Y-59906757D03*
%TO.P,U1,20,VDD*%
%TO.N,Board_2-/VDD*%
X176175349Y-59553204D03*
%TO.P,U1,21,~POL~*%
%TO.N,Board_2-/POL*%
X175821796Y-59199651D03*
%TO.P,U1,22,~LE~*%
%TO.N,Board_2-/SS*%
X175468243Y-58846097D03*
%TO.P,U1,23,NC*%
%TO.N,Board_2-unconnected-(U1-NC-Pad23)*%
X175114689Y-58492544D03*
%TO.P,U1,24,DOUT*%
%TO.N,Board_2-/MISO*%
X174761136Y-58138990D03*
D27*
%TO.P,U1,25,NC*%
%TO.N,Board_2-unconnected-(U1-NC-Pad25)*%
X173788864Y-58138990D03*
%TO.P,U1,26,VBIAS*%
%TO.N,Board_2-/VIN*%
X173435311Y-58492544D03*
%TO.P,U1,27,HVGND*%
%TO.N,Board_2-GND*%
X173081757Y-58846097D03*
%TO.P,U1,28,BP*%
%TO.N,Board_2-/PZT_Common*%
X172728204Y-59199651D03*
%TO.P,U1,29,HVout16*%
%TO.N,Board_2-unconnected-(U1-HVout16-Pad29)*%
X172374651Y-59553204D03*
%TO.P,U1,30,HVout15*%
%TO.N,Board_2-unconnected-(U1-HVout15-Pad30)*%
X172021097Y-59906757D03*
%TO.P,U1,31,HVout14*%
%TO.N,Board_2-unconnected-(U1-HVout14-Pad31)*%
X171667544Y-60260311D03*
%TO.P,U1,32,HVout13*%
%TO.N,Board_2-unconnected-(U1-HVout13-Pad32)*%
X171313990Y-60613864D03*
D28*
%TO.P,U1,33,VPP*%
%TO.N,Board_2-/VPP*%
X172436522Y-61100000D03*
X173049348Y-61712826D03*
X173662174Y-62325652D03*
X174275000Y-62938478D03*
X173049348Y-60487174D03*
X173662175Y-61100000D03*
X174275000Y-61712825D03*
X174887826Y-62325652D03*
D29*
X174275000Y-61100000D03*
D28*
X173662174Y-59874348D03*
X174275000Y-60487175D03*
X174887825Y-61100000D03*
X175500652Y-61712826D03*
X174275000Y-59261522D03*
X174887826Y-59874348D03*
X175500652Y-60487174D03*
X176113478Y-61100000D03*
%TD*%
D30*
%TO.P,R5,1*%
%TO.N,Board_0-/SCL*%
X119175000Y-38425000D03*
%TO.P,R5,2*%
%TO.N,Board_0-/VDD*%
X119175000Y-36775000D03*
%TD*%
D11*
%TO.P,KiKit_FID_T_2,*%
%TO.N,*%
X188475000Y-22500000D03*
%TD*%
D31*
%TO.P,C1,1*%
%TO.N,Board_0-/VIN*%
X113750000Y-42900000D03*
%TO.P,C1,2*%
%TO.N,Board_0-GND*%
X112200000Y-42900000D03*
%TD*%
D16*
%TO.P,C7,1*%
%TO.N,Board_2-Net-(U3-IN-)*%
X186175000Y-39925000D03*
%TO.P,C7,2*%
%TO.N,Board_2-/IN-*%
X186175000Y-38375000D03*
%TD*%
D10*
%TO.P,TP10,1,1*%
%TO.N,Board_0-/SDA*%
X124875000Y-36750000D03*
%TD*%
%TO.P,TP14,1,1*%
%TO.N,Board_1-/SS*%
X135725000Y-38900000D03*
%TD*%
%TO.P,TP7,1,1*%
%TO.N,Board_2-/IN-*%
X188175000Y-32062500D03*
%TD*%
D32*
%TO.P,U3,1,VPUMP*%
%TO.N,Board_1-Net-(U3-VPUMP)*%
X147262500Y-44200000D03*
%TO.P,U3,2,VDD*%
%TO.N,Board_1-/VIN*%
X147262500Y-44700000D03*
%TO.P,U3,3,FB*%
%TO.N,Board_1-Net-(U3-FB)*%
X147262500Y-45200000D03*
%TO.P,U3,4,GND*%
%TO.N,Board_1-GND*%
X147262500Y-45700000D03*
%TO.P,U3,5,GND*%
X147262500Y-46200000D03*
D33*
%TO.P,U3,6,GND*%
X148225000Y-47162500D03*
%TO.P,U3,7,SW*%
%TO.N,Board_1-Net-(L1-Pad1)*%
X148725000Y-47162500D03*
%TO.P,U3,8,SW*%
X149225000Y-47162500D03*
%TO.P,U3,9,NC*%
%TO.N,Board_1-unconnected-(U3-NC-Pad9)*%
X149725000Y-47162500D03*
%TO.P,U3,10,VBST*%
%TO.N,Board_1-/VBST*%
X150225000Y-47162500D03*
D32*
%TO.P,U3,11,VBST*%
X151187500Y-46200000D03*
%TO.P,U3,12,PVDD*%
X151187500Y-45700000D03*
%TO.P,U3,13,OUT+*%
%TO.N,Board_1-/VPP*%
X151187500Y-45200000D03*
%TO.P,U3,14,OUT-*%
%TO.N,Board_1-/OUT-*%
X151187500Y-44700000D03*
%TO.P,U3,15,REXT*%
%TO.N,Board_1-Net-(U3-REXT)*%
X151187500Y-44200000D03*
D33*
%TO.P,U3,16,IN-*%
%TO.N,Board_1-Net-(U3-IN-)*%
X150225000Y-43237500D03*
%TO.P,U3,17,IN+*%
%TO.N,Board_1-Net-(U3-IN+)*%
X149725000Y-43237500D03*
%TO.P,U3,18,SCL*%
%TO.N,Board_1-/SCL*%
X149225000Y-43237500D03*
%TO.P,U3,19,SDA*%
%TO.N,Board_1-/SDA*%
X148725000Y-43237500D03*
%TO.P,U3,20,REG*%
%TO.N,Board_1-Net-(U3-REG)*%
X148225000Y-43237500D03*
D28*
%TO.P,U3,21,GND*%
%TO.N,Board_1-GND*%
X148125000Y-44100000D03*
X148125000Y-45200000D03*
X148125000Y-46300000D03*
X149225000Y-44100000D03*
X149225000Y-45200000D03*
D34*
X149225000Y-45200000D03*
D28*
X149225000Y-46300000D03*
X150325000Y-44100000D03*
X150325000Y-45200000D03*
X150325000Y-46300000D03*
%TD*%
D10*
%TO.P,TP8,1,1*%
%TO.N,Board_0-/MOSI*%
X104075000Y-32000000D03*
%TD*%
%TO.P,TP9,1,1*%
%TO.N,Board_1-/MISO*%
X135725000Y-34300000D03*
%TD*%
D31*
%TO.P,C1,1*%
%TO.N,Board_2-/VIN*%
X177050000Y-42900000D03*
%TO.P,C1,2*%
%TO.N,Board_2-GND*%
X175500000Y-42900000D03*
%TD*%
D16*
%TO.P,C2,1*%
%TO.N,Board_2-Net-(U3-VPUMP)*%
X177375000Y-41375000D03*
%TO.P,C2,2*%
%TO.N,Board_2-GND*%
X177375000Y-39825000D03*
%TD*%
D24*
%TO.P,D1,1,K*%
%TO.N,Board_0-/VPP*%
X116875000Y-63500000D03*
%TO.P,D1,2,A*%
%TO.N,Board_0-/VDD*%
X116875000Y-60700000D03*
%TD*%
D10*
%TO.P,TP12,1,1*%
%TO.N,Board_1-/SCLK*%
X135725000Y-36600000D03*
%TD*%
D16*
%TO.P,C7,1*%
%TO.N,Board_0-Net-(U3-IN-)*%
X122875000Y-39925000D03*
%TO.P,C7,2*%
%TO.N,Board_0-/IN-*%
X122875000Y-38375000D03*
%TD*%
D35*
%TO.P,R4,1*%
%TO.N,Board_1-/VDD*%
X149225000Y-36775000D03*
%TO.P,R4,2*%
%TO.N,Board_1-/SDA*%
X149225000Y-38425000D03*
%TD*%
D18*
%TO.P,C8,1*%
%TO.N,Board_0-/VDD*%
X117400000Y-52900000D03*
%TO.P,C8,2*%
%TO.N,Board_0-GND*%
X118950000Y-52900000D03*
%TD*%
D10*
%TO.P,TP1,1,1*%
%TO.N,Board_1-/VDD*%
X135725000Y-29750000D03*
%TD*%
D26*
%TO.P,U1,1,HVout12*%
%TO.N,Board_0-unconnected-(U1-HVout12-Pad1)*%
X108013990Y-61586136D03*
%TO.P,U1,2,HVout11*%
%TO.N,Board_0-unconnected-(U1-HVout11-Pad2)*%
X108367544Y-61939689D03*
%TO.P,U1,3,HVout10*%
%TO.N,Board_0-/reed1*%
X108721097Y-62293243D03*
%TO.P,U1,4,HVout9*%
%TO.N,Board_0-/reed2*%
X109074651Y-62646796D03*
%TO.P,U1,5,HVout8*%
%TO.N,Board_0-/reed3*%
X109428204Y-63000349D03*
%TO.P,U1,6,HVout7*%
%TO.N,Board_0-/reed4*%
X109781757Y-63353903D03*
%TO.P,U1,7,HVout6*%
%TO.N,Board_0-/reed5*%
X110135311Y-63707456D03*
%TO.P,U1,8,HVout5*%
%TO.N,Board_0-/reed6*%
X110488864Y-64061010D03*
D27*
%TO.P,U1,9,HVout4*%
%TO.N,Board_0-/reed7*%
X111461136Y-64061010D03*
%TO.P,U1,10,HVout3*%
%TO.N,Board_0-/reed8*%
X111814689Y-63707456D03*
%TO.P,U1,11,HVout2*%
%TO.N,Board_0-/reed9*%
X112168243Y-63353903D03*
%TO.P,U1,12,HVout1*%
%TO.N,Board_0-/reed10*%
X112521796Y-63000349D03*
%TO.P,U1,13,NC*%
%TO.N,Board_0-unconnected-(U1-NC-Pad13)*%
X112875349Y-62646796D03*
%TO.P,U1,14,VPP*%
%TO.N,Board_0-/VPP*%
X113228903Y-62293243D03*
%TO.P,U1,15,GND*%
%TO.N,Board_0-GND*%
X113582456Y-61939689D03*
%TO.P,U1,16,NC*%
%TO.N,Board_0-unconnected-(U1-NC-Pad16)*%
X113936010Y-61586136D03*
D26*
%TO.P,U1,17,DIN*%
%TO.N,Board_0-Net-(U1-DIN)*%
X113936010Y-60613864D03*
%TO.P,U1,18,NC*%
%TO.N,Board_0-unconnected-(U1-NC-Pad18)*%
X113582456Y-60260311D03*
%TO.P,U1,19,CLK*%
%TO.N,Board_0-/SCLK*%
X113228903Y-59906757D03*
%TO.P,U1,20,VDD*%
%TO.N,Board_0-/VDD*%
X112875349Y-59553204D03*
%TO.P,U1,21,~POL~*%
%TO.N,Board_0-/POL*%
X112521796Y-59199651D03*
%TO.P,U1,22,~LE~*%
%TO.N,Board_0-/SS*%
X112168243Y-58846097D03*
%TO.P,U1,23,NC*%
%TO.N,Board_0-unconnected-(U1-NC-Pad23)*%
X111814689Y-58492544D03*
%TO.P,U1,24,DOUT*%
%TO.N,Board_0-/MISO*%
X111461136Y-58138990D03*
D27*
%TO.P,U1,25,NC*%
%TO.N,Board_0-unconnected-(U1-NC-Pad25)*%
X110488864Y-58138990D03*
%TO.P,U1,26,VBIAS*%
%TO.N,Board_0-/VIN*%
X110135311Y-58492544D03*
%TO.P,U1,27,HVGND*%
%TO.N,Board_0-GND*%
X109781757Y-58846097D03*
%TO.P,U1,28,BP*%
%TO.N,Board_0-/PZT_Common*%
X109428204Y-59199651D03*
%TO.P,U1,29,HVout16*%
%TO.N,Board_0-unconnected-(U1-HVout16-Pad29)*%
X109074651Y-59553204D03*
%TO.P,U1,30,HVout15*%
%TO.N,Board_0-unconnected-(U1-HVout15-Pad30)*%
X108721097Y-59906757D03*
%TO.P,U1,31,HVout14*%
%TO.N,Board_0-unconnected-(U1-HVout14-Pad31)*%
X108367544Y-60260311D03*
%TO.P,U1,32,HVout13*%
%TO.N,Board_0-unconnected-(U1-HVout13-Pad32)*%
X108013990Y-60613864D03*
D28*
%TO.P,U1,33,VPP*%
%TO.N,Board_0-/VPP*%
X109136522Y-61100000D03*
X109749348Y-61712826D03*
X110362174Y-62325652D03*
X110975000Y-62938478D03*
X109749348Y-60487174D03*
X110362175Y-61100000D03*
X110975000Y-61712825D03*
X111587826Y-62325652D03*
D29*
X110975000Y-61100000D03*
D28*
X110362174Y-59874348D03*
X110975000Y-60487175D03*
X111587825Y-61100000D03*
X112200652Y-61712826D03*
X110975000Y-59261522D03*
X111587826Y-59874348D03*
X112200652Y-60487174D03*
X112813478Y-61100000D03*
%TD*%
D10*
%TO.P,TP11,1,1*%
%TO.N,Board_0-/SCL*%
X124875000Y-34400000D03*
%TD*%
%TO.P,TP14,1,1*%
%TO.N,Board_0-/SS*%
X104075000Y-38900000D03*
%TD*%
%TO.P,TP7,1,1*%
%TO.N,Board_1-/IN-*%
X156525000Y-32062500D03*
%TD*%
D35*
%TO.P,R4,1*%
%TO.N,Board_0-/VDD*%
X117575000Y-36775000D03*
%TO.P,R4,2*%
%TO.N,Board_0-/SDA*%
X117575000Y-38425000D03*
%TD*%
D10*
%TO.P,TP6,1,1*%
%TO.N,Board_2-/IN+*%
X188175000Y-29700000D03*
%TD*%
D25*
%TO.P,C4,1*%
%TO.N,Board_0-/VBST*%
X121575000Y-46450000D03*
%TO.P,C4,2*%
%TO.N,Board_0-GND*%
X121575000Y-48350000D03*
%TD*%
D16*
%TO.P,C5,1*%
%TO.N,Board_1-/VIN*%
X146625000Y-50575000D03*
%TO.P,C5,2*%
%TO.N,Board_1-GND*%
X146625000Y-49025000D03*
%TD*%
D26*
%TO.P,U1,1,HVout12*%
%TO.N,Board_1-unconnected-(U1-HVout12-Pad1)*%
X139663990Y-61586136D03*
%TO.P,U1,2,HVout11*%
%TO.N,Board_1-unconnected-(U1-HVout11-Pad2)*%
X140017544Y-61939689D03*
%TO.P,U1,3,HVout10*%
%TO.N,Board_1-/reed1*%
X140371097Y-62293243D03*
%TO.P,U1,4,HVout9*%
%TO.N,Board_1-/reed2*%
X140724651Y-62646796D03*
%TO.P,U1,5,HVout8*%
%TO.N,Board_1-/reed3*%
X141078204Y-63000349D03*
%TO.P,U1,6,HVout7*%
%TO.N,Board_1-/reed4*%
X141431757Y-63353903D03*
%TO.P,U1,7,HVout6*%
%TO.N,Board_1-/reed5*%
X141785311Y-63707456D03*
%TO.P,U1,8,HVout5*%
%TO.N,Board_1-/reed6*%
X142138864Y-64061010D03*
D27*
%TO.P,U1,9,HVout4*%
%TO.N,Board_1-/reed7*%
X143111136Y-64061010D03*
%TO.P,U1,10,HVout3*%
%TO.N,Board_1-/reed8*%
X143464689Y-63707456D03*
%TO.P,U1,11,HVout2*%
%TO.N,Board_1-/reed9*%
X143818243Y-63353903D03*
%TO.P,U1,12,HVout1*%
%TO.N,Board_1-/reed10*%
X144171796Y-63000349D03*
%TO.P,U1,13,NC*%
%TO.N,Board_1-unconnected-(U1-NC-Pad13)*%
X144525349Y-62646796D03*
%TO.P,U1,14,VPP*%
%TO.N,Board_1-/VPP*%
X144878903Y-62293243D03*
%TO.P,U1,15,GND*%
%TO.N,Board_1-GND*%
X145232456Y-61939689D03*
%TO.P,U1,16,NC*%
%TO.N,Board_1-unconnected-(U1-NC-Pad16)*%
X145586010Y-61586136D03*
D26*
%TO.P,U1,17,DIN*%
%TO.N,Board_1-Net-(U1-DIN)*%
X145586010Y-60613864D03*
%TO.P,U1,18,NC*%
%TO.N,Board_1-unconnected-(U1-NC-Pad18)*%
X145232456Y-60260311D03*
%TO.P,U1,19,CLK*%
%TO.N,Board_1-/SCLK*%
X144878903Y-59906757D03*
%TO.P,U1,20,VDD*%
%TO.N,Board_1-/VDD*%
X144525349Y-59553204D03*
%TO.P,U1,21,~POL~*%
%TO.N,Board_1-/POL*%
X144171796Y-59199651D03*
%TO.P,U1,22,~LE~*%
%TO.N,Board_1-/SS*%
X143818243Y-58846097D03*
%TO.P,U1,23,NC*%
%TO.N,Board_1-unconnected-(U1-NC-Pad23)*%
X143464689Y-58492544D03*
%TO.P,U1,24,DOUT*%
%TO.N,Board_1-/MISO*%
X143111136Y-58138990D03*
D27*
%TO.P,U1,25,NC*%
%TO.N,Board_1-unconnected-(U1-NC-Pad25)*%
X142138864Y-58138990D03*
%TO.P,U1,26,VBIAS*%
%TO.N,Board_1-/VIN*%
X141785311Y-58492544D03*
%TO.P,U1,27,HVGND*%
%TO.N,Board_1-GND*%
X141431757Y-58846097D03*
%TO.P,U1,28,BP*%
%TO.N,Board_1-/PZT_Common*%
X141078204Y-59199651D03*
%TO.P,U1,29,HVout16*%
%TO.N,Board_1-unconnected-(U1-HVout16-Pad29)*%
X140724651Y-59553204D03*
%TO.P,U1,30,HVout15*%
%TO.N,Board_1-unconnected-(U1-HVout15-Pad30)*%
X140371097Y-59906757D03*
%TO.P,U1,31,HVout14*%
%TO.N,Board_1-unconnected-(U1-HVout14-Pad31)*%
X140017544Y-60260311D03*
%TO.P,U1,32,HVout13*%
%TO.N,Board_1-unconnected-(U1-HVout13-Pad32)*%
X139663990Y-60613864D03*
D28*
%TO.P,U1,33,VPP*%
%TO.N,Board_1-/VPP*%
X140786522Y-61100000D03*
X141399348Y-61712826D03*
X142012174Y-62325652D03*
X142625000Y-62938478D03*
X141399348Y-60487174D03*
X142012175Y-61100000D03*
X142625000Y-61712825D03*
X143237826Y-62325652D03*
D29*
X142625000Y-61100000D03*
D28*
X142012174Y-59874348D03*
X142625000Y-60487175D03*
X143237825Y-61100000D03*
X143850652Y-61712826D03*
X142625000Y-59261522D03*
X143237826Y-59874348D03*
X143850652Y-60487174D03*
X144463478Y-61100000D03*
%TD*%
D10*
%TO.P,TP5,1,1*%
%TO.N,Board_0-/OUT-*%
X125575000Y-45050000D03*
%TD*%
D16*
%TO.P,C3,1*%
%TO.N,Board_2-Net-(U3-REG)*%
X179075000Y-41375000D03*
%TO.P,C3,2*%
%TO.N,Board_2-GND*%
X179075000Y-39825000D03*
%TD*%
D30*
%TO.P,R5,1*%
%TO.N,Board_1-/SCL*%
X150825000Y-38425000D03*
%TO.P,R5,2*%
%TO.N,Board_1-/VDD*%
X150825000Y-36775000D03*
%TD*%
D10*
%TO.P,TP5,1,1*%
%TO.N,Board_1-/OUT-*%
X157225000Y-45050000D03*
%TD*%
D16*
%TO.P,C3,1*%
%TO.N,Board_0-Net-(U3-REG)*%
X115775000Y-41375000D03*
%TO.P,C3,2*%
%TO.N,Board_0-GND*%
X115775000Y-39825000D03*
%TD*%
D35*
%TO.P,R4,1*%
%TO.N,Board_2-/VDD*%
X180875000Y-36775000D03*
%TO.P,R4,2*%
%TO.N,Board_2-/SDA*%
X180875000Y-38425000D03*
%TD*%
D25*
%TO.P,C4,1*%
%TO.N,Board_2-/VBST*%
X184875000Y-46450000D03*
%TO.P,C4,2*%
%TO.N,Board_2-GND*%
X184875000Y-48350000D03*
%TD*%
D30*
%TO.P,R5,1*%
%TO.N,Board_2-/SCL*%
X182475000Y-38425000D03*
%TO.P,R5,2*%
%TO.N,Board_2-/VDD*%
X182475000Y-36775000D03*
%TD*%
D16*
%TO.P,C5,1*%
%TO.N,Board_0-/VIN*%
X114975000Y-50575000D03*
%TO.P,C5,2*%
%TO.N,Board_0-GND*%
X114975000Y-49025000D03*
%TD*%
D18*
%TO.P,C8,1*%
%TO.N,Board_1-/VDD*%
X149050000Y-52900000D03*
%TO.P,C8,2*%
%TO.N,Board_1-GND*%
X150600000Y-52900000D03*
%TD*%
D31*
%TO.P,C1,1*%
%TO.N,Board_1-/VIN*%
X145400000Y-42900000D03*
%TO.P,C1,2*%
%TO.N,Board_1-GND*%
X143850000Y-42900000D03*
%TD*%
D10*
%TO.P,TP13,1,1*%
%TO.N,Board_2-/POL*%
X167375000Y-41200000D03*
%TD*%
D13*
%TO.P,J2,1,Pin_1*%
%TO.N,Board_1-/reed20*%
X158225000Y-71850000D03*
%TO.P,J2,2,Pin_2*%
X157725000Y-71850000D03*
%TO.P,J2,3,Pin_3*%
%TO.N,Board_1-/reed19*%
X157225000Y-71850000D03*
%TO.P,J2,4,Pin_4*%
X156725000Y-71850000D03*
%TO.P,J2,5,Pin_5*%
%TO.N,Board_1-/reed18*%
X156225000Y-71850000D03*
%TO.P,J2,6,Pin_6*%
X155725000Y-71850000D03*
%TO.P,J2,7,Pin_7*%
%TO.N,Board_1-/reed17*%
X155225000Y-71850000D03*
%TO.P,J2,8,Pin_8*%
X154725000Y-71850000D03*
%TO.P,J2,9,Pin_9*%
%TO.N,Board_1-/reed16*%
X154225000Y-71850000D03*
%TO.P,J2,10,Pin_10*%
X153725000Y-71850000D03*
%TO.P,J2,11,Pin_11*%
%TO.N,Board_1-/reed15*%
X153225000Y-71850000D03*
%TO.P,J2,12,Pin_12*%
X152725000Y-71850000D03*
%TO.P,J2,13,Pin_13*%
%TO.N,Board_1-/reed14*%
X152225000Y-71850000D03*
%TO.P,J2,14,Pin_14*%
X151725000Y-71850000D03*
%TO.P,J2,15,Pin_15*%
%TO.N,Board_1-/reed13*%
X151225000Y-71850000D03*
%TO.P,J2,16,Pin_16*%
X150725000Y-71850000D03*
%TO.P,J2,17,Pin_17*%
%TO.N,Board_1-/reed12*%
X150225000Y-71850000D03*
%TO.P,J2,18,Pin_18*%
X149725000Y-71850000D03*
%TO.P,J2,19,Pin_19*%
%TO.N,Board_1-/reed11*%
X149225000Y-71850000D03*
%TO.P,J2,20,Pin_20*%
X148725000Y-71850000D03*
%TO.P,J2,21,Pin_21*%
%TO.N,Board_1-/reed10*%
X148225000Y-71850000D03*
%TO.P,J2,22,Pin_22*%
X147725000Y-71850000D03*
%TO.P,J2,23,Pin_23*%
%TO.N,Board_1-/reed9*%
X147225000Y-71850000D03*
%TO.P,J2,24,Pin_24*%
X146725000Y-71850000D03*
%TO.P,J2,25,Pin_25*%
%TO.N,Board_1-/reed8*%
X146225000Y-71850000D03*
%TO.P,J2,26,Pin_26*%
X145725000Y-71850000D03*
%TO.P,J2,27,Pin_27*%
%TO.N,Board_1-/reed7*%
X145225000Y-71850000D03*
%TO.P,J2,28,Pin_28*%
X144725000Y-71850000D03*
%TO.P,J2,29,Pin_29*%
%TO.N,Board_1-/reed6*%
X144225000Y-71850000D03*
%TO.P,J2,30,Pin_30*%
X143725000Y-71850000D03*
%TO.P,J2,31,Pin_31*%
%TO.N,Board_1-/reed5*%
X143225000Y-71850000D03*
%TO.P,J2,32,Pin_32*%
X142725000Y-71850000D03*
%TO.P,J2,33,Pin_33*%
%TO.N,Board_1-/reed4*%
X142225000Y-71850000D03*
%TO.P,J2,34,Pin_34*%
X141725000Y-71850000D03*
%TO.P,J2,35,Pin_35*%
%TO.N,Board_1-/reed3*%
X141225000Y-71850000D03*
%TO.P,J2,36,Pin_36*%
X140725000Y-71850000D03*
%TO.P,J2,37,Pin_37*%
%TO.N,Board_1-/reed2*%
X140225000Y-71850000D03*
%TO.P,J2,38,Pin_38*%
X139725000Y-71850000D03*
%TO.P,J2,39,Pin_39*%
%TO.N,Board_1-/reed1*%
X139225000Y-71850000D03*
%TO.P,J2,40,Pin_40*%
X138725000Y-71850000D03*
D14*
%TO.P,J2,MP1*%
%TO.N,N/C*%
X159225000Y-74550000D03*
%TO.P,J2,MP2*%
X137725000Y-74550000D03*
%TD*%
D10*
%TO.P,TP11,1,1*%
%TO.N,Board_1-/SCL*%
X156525000Y-34400000D03*
%TD*%
D17*
%TO.P,R1,1*%
%TO.N,Board_2-/VBST*%
X175450000Y-46300000D03*
%TO.P,R1,2*%
%TO.N,Board_2-Net-(U3-FB)*%
X177100000Y-46300000D03*
%TD*%
D36*
%TO.P,U2,1,HVout12*%
%TO.N,Board_1-/reed15*%
X154711136Y-64061010D03*
%TO.P,U2,2,HVout11*%
%TO.N,Board_1-/reed16*%
X155064689Y-63707456D03*
%TO.P,U2,3,HVout10*%
%TO.N,Board_1-/reed17*%
X155418243Y-63353903D03*
%TO.P,U2,4,HVout9*%
%TO.N,Board_1-/reed18*%
X155771796Y-63000349D03*
%TO.P,U2,5,HVout8*%
%TO.N,Board_1-/reed19*%
X156125349Y-62646796D03*
%TO.P,U2,6,HVout7*%
%TO.N,Board_1-/reed20*%
X156478903Y-62293243D03*
%TO.P,U2,7,HVout6*%
%TO.N,Board_1-unconnected-(U2-HVout6-Pad7)*%
X156832456Y-61939689D03*
%TO.P,U2,8,HVout5*%
%TO.N,Board_1-unconnected-(U2-HVout5-Pad8)*%
X157186010Y-61586136D03*
D37*
%TO.P,U2,9,HVout4*%
%TO.N,Board_1-unconnected-(U2-HVout4-Pad9)*%
X157186010Y-60613864D03*
%TO.P,U2,10,HVout3*%
%TO.N,Board_1-unconnected-(U2-HVout3-Pad10)*%
X156832456Y-60260311D03*
%TO.P,U2,11,HVout2*%
%TO.N,Board_1-unconnected-(U2-HVout2-Pad11)*%
X156478903Y-59906757D03*
%TO.P,U2,12,HVout1*%
%TO.N,Board_1-unconnected-(U2-HVout1-Pad12)*%
X156125349Y-59553204D03*
%TO.P,U2,13,NC*%
%TO.N,Board_1-unconnected-(U2-NC-Pad13)*%
X155771796Y-59199651D03*
%TO.P,U2,14,VPP*%
%TO.N,Board_1-/VPP*%
X155418243Y-58846097D03*
%TO.P,U2,15,GND*%
%TO.N,Board_1-GND*%
X155064689Y-58492544D03*
%TO.P,U2,16,NC*%
%TO.N,Board_1-unconnected-(U2-NC-Pad16)*%
X154711136Y-58138990D03*
D36*
%TO.P,U2,17,DIN*%
%TO.N,Board_1-/MOSI*%
X153738864Y-58138990D03*
%TO.P,U2,18,NC*%
%TO.N,Board_1-unconnected-(U2-NC-Pad18)*%
X153385311Y-58492544D03*
%TO.P,U2,19,CLK*%
%TO.N,Board_1-/SCLK*%
X153031757Y-58846097D03*
%TO.P,U2,20,VDD*%
%TO.N,Board_1-/VDD*%
X152678204Y-59199651D03*
%TO.P,U2,21,~POL~*%
%TO.N,Board_1-/POL*%
X152324651Y-59553204D03*
%TO.P,U2,22,~LE~*%
%TO.N,Board_1-/SS*%
X151971097Y-59906757D03*
%TO.P,U2,23,NC*%
%TO.N,Board_1-unconnected-(U2-NC-Pad23)*%
X151617544Y-60260311D03*
%TO.P,U2,24,DOUT*%
%TO.N,Board_1-Net-(U1-DIN)*%
X151263990Y-60613864D03*
D37*
%TO.P,U2,25,NC*%
%TO.N,Board_1-unconnected-(U2-NC-Pad25)*%
X151263990Y-61586136D03*
%TO.P,U2,26,VBIAS*%
%TO.N,Board_1-/VIN*%
X151617544Y-61939689D03*
%TO.P,U2,27,HVGND*%
%TO.N,Board_1-GND*%
X151971097Y-62293243D03*
%TO.P,U2,28,BP*%
%TO.N,Board_1-/PZT_Common*%
X152324651Y-62646796D03*
%TO.P,U2,29,HVout16*%
%TO.N,Board_1-/reed11*%
X152678204Y-63000349D03*
%TO.P,U2,30,HVout15*%
%TO.N,Board_1-/reed12*%
X153031757Y-63353903D03*
%TO.P,U2,31,HVout14*%
%TO.N,Board_1-/reed13*%
X153385311Y-63707456D03*
%TO.P,U2,32,HVout13*%
%TO.N,Board_1-/reed14*%
X153738864Y-64061010D03*
D28*
%TO.P,U2,33,VPP*%
%TO.N,Board_1-/VPP*%
X154225000Y-62938478D03*
X154837826Y-62325652D03*
X155450652Y-61712826D03*
X156063478Y-61100000D03*
X153612174Y-62325652D03*
X154225000Y-61712825D03*
X154837825Y-61100000D03*
X155450652Y-60487174D03*
D38*
X154225000Y-61100000D03*
D28*
X152999348Y-61712826D03*
X153612175Y-61100000D03*
X154225000Y-60487175D03*
X154837826Y-59874348D03*
X152386522Y-61100000D03*
X152999348Y-60487174D03*
X153612174Y-59874348D03*
X154225000Y-59261522D03*
%TD*%
D15*
%TO.P,TP2,1,1*%
%TO.N,Board_0-GND*%
X121625000Y-55550000D03*
%TD*%
D16*
%TO.P,C6,1*%
%TO.N,Board_2-Net-(U3-IN+)*%
X184575000Y-39925000D03*
%TO.P,C6,2*%
%TO.N,Board_2-/IN+*%
X184575000Y-38375000D03*
%TD*%
D10*
%TO.P,TP4,1,1*%
%TO.N,Board_1-/VBST*%
X153275000Y-50900000D03*
%TD*%
D16*
%TO.P,C2,1*%
%TO.N,Board_1-Net-(U3-VPUMP)*%
X145725000Y-41375000D03*
%TO.P,C2,2*%
%TO.N,Board_1-GND*%
X145725000Y-39825000D03*
%TD*%
%TO.P,C6,1*%
%TO.N,Board_1-Net-(U3-IN+)*%
X152925000Y-39925000D03*
%TO.P,C6,2*%
%TO.N,Board_1-/IN+*%
X152925000Y-38375000D03*
%TD*%
D36*
%TO.P,U2,1,HVout12*%
%TO.N,Board_2-/reed15*%
X186361136Y-64061010D03*
%TO.P,U2,2,HVout11*%
%TO.N,Board_2-/reed16*%
X186714689Y-63707456D03*
%TO.P,U2,3,HVout10*%
%TO.N,Board_2-/reed17*%
X187068243Y-63353903D03*
%TO.P,U2,4,HVout9*%
%TO.N,Board_2-/reed18*%
X187421796Y-63000349D03*
%TO.P,U2,5,HVout8*%
%TO.N,Board_2-/reed19*%
X187775349Y-62646796D03*
%TO.P,U2,6,HVout7*%
%TO.N,Board_2-/reed20*%
X188128903Y-62293243D03*
%TO.P,U2,7,HVout6*%
%TO.N,Board_2-unconnected-(U2-HVout6-Pad7)*%
X188482456Y-61939689D03*
%TO.P,U2,8,HVout5*%
%TO.N,Board_2-unconnected-(U2-HVout5-Pad8)*%
X188836010Y-61586136D03*
D37*
%TO.P,U2,9,HVout4*%
%TO.N,Board_2-unconnected-(U2-HVout4-Pad9)*%
X188836010Y-60613864D03*
%TO.P,U2,10,HVout3*%
%TO.N,Board_2-unconnected-(U2-HVout3-Pad10)*%
X188482456Y-60260311D03*
%TO.P,U2,11,HVout2*%
%TO.N,Board_2-unconnected-(U2-HVout2-Pad11)*%
X188128903Y-59906757D03*
%TO.P,U2,12,HVout1*%
%TO.N,Board_2-unconnected-(U2-HVout1-Pad12)*%
X187775349Y-59553204D03*
%TO.P,U2,13,NC*%
%TO.N,Board_2-unconnected-(U2-NC-Pad13)*%
X187421796Y-59199651D03*
%TO.P,U2,14,VPP*%
%TO.N,Board_2-/VPP*%
X187068243Y-58846097D03*
%TO.P,U2,15,GND*%
%TO.N,Board_2-GND*%
X186714689Y-58492544D03*
%TO.P,U2,16,NC*%
%TO.N,Board_2-unconnected-(U2-NC-Pad16)*%
X186361136Y-58138990D03*
D36*
%TO.P,U2,17,DIN*%
%TO.N,Board_2-/MOSI*%
X185388864Y-58138990D03*
%TO.P,U2,18,NC*%
%TO.N,Board_2-unconnected-(U2-NC-Pad18)*%
X185035311Y-58492544D03*
%TO.P,U2,19,CLK*%
%TO.N,Board_2-/SCLK*%
X184681757Y-58846097D03*
%TO.P,U2,20,VDD*%
%TO.N,Board_2-/VDD*%
X184328204Y-59199651D03*
%TO.P,U2,21,~POL~*%
%TO.N,Board_2-/POL*%
X183974651Y-59553204D03*
%TO.P,U2,22,~LE~*%
%TO.N,Board_2-/SS*%
X183621097Y-59906757D03*
%TO.P,U2,23,NC*%
%TO.N,Board_2-unconnected-(U2-NC-Pad23)*%
X183267544Y-60260311D03*
%TO.P,U2,24,DOUT*%
%TO.N,Board_2-Net-(U1-DIN)*%
X182913990Y-60613864D03*
D37*
%TO.P,U2,25,NC*%
%TO.N,Board_2-unconnected-(U2-NC-Pad25)*%
X182913990Y-61586136D03*
%TO.P,U2,26,VBIAS*%
%TO.N,Board_2-/VIN*%
X183267544Y-61939689D03*
%TO.P,U2,27,HVGND*%
%TO.N,Board_2-GND*%
X183621097Y-62293243D03*
%TO.P,U2,28,BP*%
%TO.N,Board_2-/PZT_Common*%
X183974651Y-62646796D03*
%TO.P,U2,29,HVout16*%
%TO.N,Board_2-/reed11*%
X184328204Y-63000349D03*
%TO.P,U2,30,HVout15*%
%TO.N,Board_2-/reed12*%
X184681757Y-63353903D03*
%TO.P,U2,31,HVout14*%
%TO.N,Board_2-/reed13*%
X185035311Y-63707456D03*
%TO.P,U2,32,HVout13*%
%TO.N,Board_2-/reed14*%
X185388864Y-64061010D03*
D28*
%TO.P,U2,33,VPP*%
%TO.N,Board_2-/VPP*%
X185875000Y-62938478D03*
X186487826Y-62325652D03*
X187100652Y-61712826D03*
X187713478Y-61100000D03*
X185262174Y-62325652D03*
X185875000Y-61712825D03*
X186487825Y-61100000D03*
X187100652Y-60487174D03*
D38*
X185875000Y-61100000D03*
D28*
X184649348Y-61712826D03*
X185262175Y-61100000D03*
X185875000Y-60487175D03*
X186487826Y-59874348D03*
X184036522Y-61100000D03*
X184649348Y-60487174D03*
X185262174Y-59874348D03*
X185875000Y-59261522D03*
%TD*%
D32*
%TO.P,U3,1,VPUMP*%
%TO.N,Board_2-Net-(U3-VPUMP)*%
X178912500Y-44200000D03*
%TO.P,U3,2,VDD*%
%TO.N,Board_2-/VIN*%
X178912500Y-44700000D03*
%TO.P,U3,3,FB*%
%TO.N,Board_2-Net-(U3-FB)*%
X178912500Y-45200000D03*
%TO.P,U3,4,GND*%
%TO.N,Board_2-GND*%
X178912500Y-45700000D03*
%TO.P,U3,5,GND*%
X178912500Y-46200000D03*
D33*
%TO.P,U3,6,GND*%
X179875000Y-47162500D03*
%TO.P,U3,7,SW*%
%TO.N,Board_2-Net-(L1-Pad1)*%
X180375000Y-47162500D03*
%TO.P,U3,8,SW*%
X180875000Y-47162500D03*
%TO.P,U3,9,NC*%
%TO.N,Board_2-unconnected-(U3-NC-Pad9)*%
X181375000Y-47162500D03*
%TO.P,U3,10,VBST*%
%TO.N,Board_2-/VBST*%
X181875000Y-47162500D03*
D32*
%TO.P,U3,11,VBST*%
X182837500Y-46200000D03*
%TO.P,U3,12,PVDD*%
X182837500Y-45700000D03*
%TO.P,U3,13,OUT+*%
%TO.N,Board_2-/VPP*%
X182837500Y-45200000D03*
%TO.P,U3,14,OUT-*%
%TO.N,Board_2-/OUT-*%
X182837500Y-44700000D03*
%TO.P,U3,15,REXT*%
%TO.N,Board_2-Net-(U3-REXT)*%
X182837500Y-44200000D03*
D33*
%TO.P,U3,16,IN-*%
%TO.N,Board_2-Net-(U3-IN-)*%
X181875000Y-43237500D03*
%TO.P,U3,17,IN+*%
%TO.N,Board_2-Net-(U3-IN+)*%
X181375000Y-43237500D03*
%TO.P,U3,18,SCL*%
%TO.N,Board_2-/SCL*%
X180875000Y-43237500D03*
%TO.P,U3,19,SDA*%
%TO.N,Board_2-/SDA*%
X180375000Y-43237500D03*
%TO.P,U3,20,REG*%
%TO.N,Board_2-Net-(U3-REG)*%
X179875000Y-43237500D03*
D28*
%TO.P,U3,21,GND*%
%TO.N,Board_2-GND*%
X179775000Y-44100000D03*
X179775000Y-45200000D03*
X179775000Y-46300000D03*
X180875000Y-44100000D03*
X180875000Y-45200000D03*
D34*
X180875000Y-45200000D03*
D28*
X180875000Y-46300000D03*
X181975000Y-44100000D03*
X181975000Y-45200000D03*
X181975000Y-46300000D03*
%TD*%
D10*
%TO.P,TP9,1,1*%
%TO.N,Board_0-/MISO*%
X104075000Y-34300000D03*
%TD*%
D17*
%TO.P,R3,1*%
%TO.N,Board_2-Net-(U3-REXT)*%
X184500000Y-43300000D03*
%TO.P,R3,2*%
%TO.N,Board_2-GND*%
X186150000Y-43300000D03*
%TD*%
D32*
%TO.P,U3,1,VPUMP*%
%TO.N,Board_0-Net-(U3-VPUMP)*%
X115612500Y-44200000D03*
%TO.P,U3,2,VDD*%
%TO.N,Board_0-/VIN*%
X115612500Y-44700000D03*
%TO.P,U3,3,FB*%
%TO.N,Board_0-Net-(U3-FB)*%
X115612500Y-45200000D03*
%TO.P,U3,4,GND*%
%TO.N,Board_0-GND*%
X115612500Y-45700000D03*
%TO.P,U3,5,GND*%
X115612500Y-46200000D03*
D33*
%TO.P,U3,6,GND*%
X116575000Y-47162500D03*
%TO.P,U3,7,SW*%
%TO.N,Board_0-Net-(L1-Pad1)*%
X117075000Y-47162500D03*
%TO.P,U3,8,SW*%
X117575000Y-47162500D03*
%TO.P,U3,9,NC*%
%TO.N,Board_0-unconnected-(U3-NC-Pad9)*%
X118075000Y-47162500D03*
%TO.P,U3,10,VBST*%
%TO.N,Board_0-/VBST*%
X118575000Y-47162500D03*
D32*
%TO.P,U3,11,VBST*%
X119537500Y-46200000D03*
%TO.P,U3,12,PVDD*%
X119537500Y-45700000D03*
%TO.P,U3,13,OUT+*%
%TO.N,Board_0-/VPP*%
X119537500Y-45200000D03*
%TO.P,U3,14,OUT-*%
%TO.N,Board_0-/OUT-*%
X119537500Y-44700000D03*
%TO.P,U3,15,REXT*%
%TO.N,Board_0-Net-(U3-REXT)*%
X119537500Y-44200000D03*
D33*
%TO.P,U3,16,IN-*%
%TO.N,Board_0-Net-(U3-IN-)*%
X118575000Y-43237500D03*
%TO.P,U3,17,IN+*%
%TO.N,Board_0-Net-(U3-IN+)*%
X118075000Y-43237500D03*
%TO.P,U3,18,SCL*%
%TO.N,Board_0-/SCL*%
X117575000Y-43237500D03*
%TO.P,U3,19,SDA*%
%TO.N,Board_0-/SDA*%
X117075000Y-43237500D03*
%TO.P,U3,20,REG*%
%TO.N,Board_0-Net-(U3-REG)*%
X116575000Y-43237500D03*
D28*
%TO.P,U3,21,GND*%
%TO.N,Board_0-GND*%
X116475000Y-44100000D03*
X116475000Y-45200000D03*
X116475000Y-46300000D03*
X117575000Y-44100000D03*
X117575000Y-45200000D03*
D34*
X117575000Y-45200000D03*
D28*
X117575000Y-46300000D03*
X118675000Y-44100000D03*
X118675000Y-45200000D03*
X118675000Y-46300000D03*
%TD*%
D10*
%TO.P,TP12,1,1*%
%TO.N,Board_2-/SCLK*%
X167375000Y-36600000D03*
%TD*%
D15*
%TO.P,TP2,1,1*%
%TO.N,Board_0-GND*%
X104075000Y-43500000D03*
%TD*%
D21*
%TO.P,piezo1,21,Pin_21*%
%TO.N,Board_0-/PZT_Common*%
X103815000Y-78800000D03*
D22*
X107315000Y-79650000D03*
X108315000Y-79650000D03*
X109315000Y-79650000D03*
X110315000Y-79650000D03*
X111315000Y-79650000D03*
X112315000Y-79650000D03*
X113315000Y-79650000D03*
X114315000Y-79650000D03*
X115315000Y-79650000D03*
X116315000Y-79650000D03*
X117315000Y-79650000D03*
X118315000Y-79650000D03*
X119315000Y-79650000D03*
X120315000Y-79650000D03*
X121315000Y-79650000D03*
X122315000Y-79650000D03*
X123315000Y-79650000D03*
X124315000Y-79650000D03*
X125315000Y-79650000D03*
X126315000Y-79650000D03*
D21*
X129815000Y-78800000D03*
D23*
%TO.P,piezo1,22,Pin_22*%
%TO.N,Board_0-/fill*%
X107315000Y-89350000D03*
X107315000Y-98600000D03*
X107315000Y-107850000D03*
X108315000Y-94000000D03*
X108315000Y-103250000D03*
X108315000Y-112500000D03*
X109315000Y-89350000D03*
X109315000Y-98600000D03*
X109315000Y-107850000D03*
X110315000Y-94000000D03*
X110315000Y-103250000D03*
X110315000Y-112500000D03*
X111315000Y-89350000D03*
X111315000Y-98600000D03*
X111315000Y-107850000D03*
X112315000Y-94000000D03*
X112315000Y-103250000D03*
X112315000Y-112500000D03*
X113315000Y-89350000D03*
X113315000Y-98600000D03*
X113315000Y-107850000D03*
X114315000Y-94000000D03*
X114315000Y-103250000D03*
X114315000Y-112500000D03*
X115315000Y-89350000D03*
X115315000Y-98600000D03*
X115315000Y-107850000D03*
X116315000Y-94000000D03*
X116315000Y-103250000D03*
X116315000Y-112500000D03*
X117315000Y-89350000D03*
X117315000Y-98600000D03*
X117315000Y-107850000D03*
X118315000Y-94000000D03*
X118315000Y-103250000D03*
X118315000Y-112500000D03*
X119315000Y-89350000D03*
X119315000Y-98600000D03*
X119315000Y-107850000D03*
X120315000Y-94000000D03*
X120315000Y-103250000D03*
X120315000Y-112500000D03*
X121315000Y-89350000D03*
X121315000Y-98600000D03*
X121315000Y-107850000D03*
X122315000Y-94000000D03*
X122315000Y-103250000D03*
X122315000Y-112500000D03*
X123315000Y-89350000D03*
X123315000Y-98600000D03*
X123315000Y-107850000D03*
X124315000Y-94000000D03*
X124315000Y-103250000D03*
X124315000Y-112500000D03*
X125315000Y-89350000D03*
X125315000Y-98600000D03*
X125315000Y-107850000D03*
X126315000Y-94000000D03*
X126315000Y-103250000D03*
X126315000Y-112500000D03*
%TD*%
D36*
%TO.P,U2,1,HVout12*%
%TO.N,Board_0-/reed15*%
X123061136Y-64061010D03*
%TO.P,U2,2,HVout11*%
%TO.N,Board_0-/reed16*%
X123414689Y-63707456D03*
%TO.P,U2,3,HVout10*%
%TO.N,Board_0-/reed17*%
X123768243Y-63353903D03*
%TO.P,U2,4,HVout9*%
%TO.N,Board_0-/reed18*%
X124121796Y-63000349D03*
%TO.P,U2,5,HVout8*%
%TO.N,Board_0-/reed19*%
X124475349Y-62646796D03*
%TO.P,U2,6,HVout7*%
%TO.N,Board_0-/reed20*%
X124828903Y-62293243D03*
%TO.P,U2,7,HVout6*%
%TO.N,Board_0-unconnected-(U2-HVout6-Pad7)*%
X125182456Y-61939689D03*
%TO.P,U2,8,HVout5*%
%TO.N,Board_0-unconnected-(U2-HVout5-Pad8)*%
X125536010Y-61586136D03*
D37*
%TO.P,U2,9,HVout4*%
%TO.N,Board_0-unconnected-(U2-HVout4-Pad9)*%
X125536010Y-60613864D03*
%TO.P,U2,10,HVout3*%
%TO.N,Board_0-unconnected-(U2-HVout3-Pad10)*%
X125182456Y-60260311D03*
%TO.P,U2,11,HVout2*%
%TO.N,Board_0-unconnected-(U2-HVout2-Pad11)*%
X124828903Y-59906757D03*
%TO.P,U2,12,HVout1*%
%TO.N,Board_0-unconnected-(U2-HVout1-Pad12)*%
X124475349Y-59553204D03*
%TO.P,U2,13,NC*%
%TO.N,Board_0-unconnected-(U2-NC-Pad13)*%
X124121796Y-59199651D03*
%TO.P,U2,14,VPP*%
%TO.N,Board_0-/VPP*%
X123768243Y-58846097D03*
%TO.P,U2,15,GND*%
%TO.N,Board_0-GND*%
X123414689Y-58492544D03*
%TO.P,U2,16,NC*%
%TO.N,Board_0-unconnected-(U2-NC-Pad16)*%
X123061136Y-58138990D03*
D36*
%TO.P,U2,17,DIN*%
%TO.N,Board_0-/MOSI*%
X122088864Y-58138990D03*
%TO.P,U2,18,NC*%
%TO.N,Board_0-unconnected-(U2-NC-Pad18)*%
X121735311Y-58492544D03*
%TO.P,U2,19,CLK*%
%TO.N,Board_0-/SCLK*%
X121381757Y-58846097D03*
%TO.P,U2,20,VDD*%
%TO.N,Board_0-/VDD*%
X121028204Y-59199651D03*
%TO.P,U2,21,~POL~*%
%TO.N,Board_0-/POL*%
X120674651Y-59553204D03*
%TO.P,U2,22,~LE~*%
%TO.N,Board_0-/SS*%
X120321097Y-59906757D03*
%TO.P,U2,23,NC*%
%TO.N,Board_0-unconnected-(U2-NC-Pad23)*%
X119967544Y-60260311D03*
%TO.P,U2,24,DOUT*%
%TO.N,Board_0-Net-(U1-DIN)*%
X119613990Y-60613864D03*
D37*
%TO.P,U2,25,NC*%
%TO.N,Board_0-unconnected-(U2-NC-Pad25)*%
X119613990Y-61586136D03*
%TO.P,U2,26,VBIAS*%
%TO.N,Board_0-/VIN*%
X119967544Y-61939689D03*
%TO.P,U2,27,HVGND*%
%TO.N,Board_0-GND*%
X120321097Y-62293243D03*
%TO.P,U2,28,BP*%
%TO.N,Board_0-/PZT_Common*%
X120674651Y-62646796D03*
%TO.P,U2,29,HVout16*%
%TO.N,Board_0-/reed11*%
X121028204Y-63000349D03*
%TO.P,U2,30,HVout15*%
%TO.N,Board_0-/reed12*%
X121381757Y-63353903D03*
%TO.P,U2,31,HVout14*%
%TO.N,Board_0-/reed13*%
X121735311Y-63707456D03*
%TO.P,U2,32,HVout13*%
%TO.N,Board_0-/reed14*%
X122088864Y-64061010D03*
D28*
%TO.P,U2,33,VPP*%
%TO.N,Board_0-/VPP*%
X122575000Y-62938478D03*
X123187826Y-62325652D03*
X123800652Y-61712826D03*
X124413478Y-61100000D03*
X121962174Y-62325652D03*
X122575000Y-61712825D03*
X123187825Y-61100000D03*
X123800652Y-60487174D03*
D38*
X122575000Y-61100000D03*
D28*
X121349348Y-61712826D03*
X121962175Y-61100000D03*
X122575000Y-60487175D03*
X123187826Y-59874348D03*
X120736522Y-61100000D03*
X121349348Y-60487174D03*
X121962174Y-59874348D03*
X122575000Y-59261522D03*
%TD*%
D15*
%TO.P,TP2,1,1*%
%TO.N,Board_1-GND*%
X156525000Y-39150000D03*
%TD*%
D19*
%TO.P,J1,1,Pin_1*%
%TO.N,Board_0-GND*%
X113525000Y-32700000D03*
%TO.P,J1,2,Pin_2*%
%TO.N,Board_0-/POL*%
X114025000Y-32700000D03*
%TO.P,J1,3,Pin_3*%
%TO.N,Board_0-/SS*%
X114525000Y-32700000D03*
%TO.P,J1,4,Pin_4*%
%TO.N,Board_0-/SCLK*%
X115025000Y-32700000D03*
%TO.P,J1,5,Pin_5*%
%TO.N,Board_0-/MISO*%
X115525000Y-32700000D03*
%TO.P,J1,6,Pin_6*%
%TO.N,Board_0-/MOSI*%
X116025000Y-32700000D03*
%TO.P,J1,7,Pin_7*%
%TO.N,Board_0-/VDD*%
X116525000Y-32700000D03*
%TO.P,J1,8,Pin_8*%
%TO.N,Board_0-/IN-*%
X117025000Y-32700000D03*
%TO.P,J1,9,Pin_9*%
%TO.N,Board_0-/IN+*%
X117525000Y-32700000D03*
%TO.P,J1,10,Pin_10*%
%TO.N,Board_0-/SCL*%
X118025000Y-32700000D03*
%TO.P,J1,11,Pin_11*%
%TO.N,Board_0-/SDA*%
X118525000Y-32700000D03*
%TO.P,J1,12,Pin_12*%
%TO.N,Board_0-/VIN*%
X119025000Y-32700000D03*
D20*
%TO.P,J1,MP*%
%TO.N,N/C*%
X120025000Y-30200000D03*
X112525000Y-30200000D03*
%TD*%
D16*
%TO.P,C2,1*%
%TO.N,Board_0-Net-(U3-VPUMP)*%
X114075000Y-41375000D03*
%TO.P,C2,2*%
%TO.N,Board_0-GND*%
X114075000Y-39825000D03*
%TD*%
D10*
%TO.P,TP15,1,1*%
%TO.N,Board_2-/VIN*%
X184925000Y-53225000D03*
%TD*%
D15*
%TO.P,TP2,1,1*%
%TO.N,Board_2-GND*%
X188175000Y-39150000D03*
%TD*%
D10*
%TO.P,TP13,1,1*%
%TO.N,Board_1-/POL*%
X135725000Y-41200000D03*
%TD*%
D11*
%TO.P,KiKit_FID_T_1,*%
%TO.N,*%
X108525000Y-22500000D03*
%TD*%
D10*
%TO.P,TP8,1,1*%
%TO.N,Board_1-/MOSI*%
X135725000Y-32000000D03*
%TD*%
D39*
%TO.N,Board_0-/IN+*%
X121274999Y-32599997D03*
%TO.N,Board_0-/MOSI*%
X118175000Y-54700000D03*
X116724329Y-54632693D03*
%TO.N,Board_0-/POL*%
X115425000Y-56050000D03*
X116875000Y-57302724D03*
X110575000Y-54249996D03*
%TO.N,Board_0-/PZT_Common*%
X127075000Y-63800000D03*
X119225000Y-63650000D03*
%TO.N,Board_0-/SCL*%
X120383393Y-34500000D03*
%TO.N,Board_0-/SCLK*%
X115391954Y-57904503D03*
X113055436Y-55696160D03*
X120241422Y-57633578D03*
%TO.N,Board_0-/SDA*%
X119783347Y-35650000D03*
%TO.N,Board_0-/SS*%
X109150878Y-53277348D03*
X115675000Y-54900000D03*
X117950520Y-57927724D03*
%TO.N,Board_0-/VBST*%
X120375000Y-47200000D03*
X112925000Y-47200002D03*
%TO.N,Board_0-/VDD*%
X117475000Y-34149992D03*
X118375000Y-36850002D03*
%TO.N,Board_0-/VIN*%
X113175000Y-49100000D03*
X118625000Y-61700000D03*
X108875000Y-57200000D03*
X106825004Y-49113928D03*
%TO.N,Board_0-/VPP*%
X118225000Y-63450000D03*
X124694670Y-57919670D03*
%TO.N,Board_0-GND*%
X114975000Y-48000000D03*
X112125000Y-43850000D03*
X112643540Y-39968540D03*
X121575004Y-49350000D03*
X107375000Y-57800000D03*
X122825002Y-42000000D03*
X115199984Y-62625000D03*
X112325000Y-34649996D03*
%TO.N,Board_1-/IN+*%
X152924999Y-32599997D03*
%TO.N,Board_1-/MOSI*%
X149825000Y-54700000D03*
X148374329Y-54632693D03*
%TO.N,Board_1-/POL*%
X142225000Y-54249996D03*
X147075000Y-56050000D03*
X148525000Y-57302724D03*
%TO.N,Board_1-/PZT_Common*%
X158725000Y-63800000D03*
X150875000Y-63650000D03*
%TO.N,Board_1-/SCL*%
X152033393Y-34500000D03*
%TO.N,Board_1-/SCLK*%
X147041954Y-57904503D03*
X151891422Y-57633578D03*
X144705436Y-55696160D03*
%TO.N,Board_1-/SDA*%
X151433347Y-35650000D03*
%TO.N,Board_1-/SS*%
X147325000Y-54900000D03*
X140800878Y-53277348D03*
X149600520Y-57927724D03*
%TO.N,Board_1-/VBST*%
X144575000Y-47200002D03*
X152025000Y-47200000D03*
%TO.N,Board_1-/VDD*%
X149125000Y-34149992D03*
X150025000Y-36850002D03*
%TO.N,Board_1-/VIN*%
X138475004Y-49113928D03*
X150275000Y-61700000D03*
X144825000Y-49100000D03*
X140525000Y-57200000D03*
%TO.N,Board_1-/VPP*%
X149875000Y-63450000D03*
X156344670Y-57919670D03*
%TO.N,Board_1-GND*%
X154475002Y-42000000D03*
X153225004Y-49350000D03*
X143975000Y-34649996D03*
X143775000Y-43850000D03*
X139025000Y-57800000D03*
X146849984Y-62625000D03*
X146625000Y-48000000D03*
X144293540Y-39968540D03*
%TO.N,Board_2-/IN+*%
X184574999Y-32599997D03*
%TO.N,Board_2-/MOSI*%
X181475000Y-54700000D03*
X180024329Y-54632693D03*
%TO.N,Board_2-/POL*%
X180175000Y-57302724D03*
X178725000Y-56050000D03*
X173875000Y-54249996D03*
%TO.N,Board_2-/PZT_Common*%
X182525000Y-63650000D03*
X190375000Y-63800000D03*
%TO.N,Board_2-/SCL*%
X183683393Y-34500000D03*
%TO.N,Board_2-/SCLK*%
X176355436Y-55696160D03*
X183541422Y-57633578D03*
X178691954Y-57904503D03*
%TO.N,Board_2-/SDA*%
X183083347Y-35650000D03*
%TO.N,Board_2-/SS*%
X178975000Y-54900000D03*
X172450878Y-53277348D03*
X181250520Y-57927724D03*
%TO.N,Board_2-/VBST*%
X183675000Y-47200000D03*
X176225000Y-47200002D03*
%TO.N,Board_2-/VDD*%
X180775000Y-34149992D03*
X181675000Y-36850002D03*
%TO.N,Board_2-/VIN*%
X170125004Y-49113928D03*
X181925000Y-61700000D03*
X172175000Y-57200000D03*
X176475000Y-49100000D03*
%TO.N,Board_2-/VPP*%
X181525000Y-63450000D03*
X187994670Y-57919670D03*
%TO.N,Board_2-GND*%
X178275000Y-48000000D03*
X184875004Y-49350000D03*
X175425000Y-43850000D03*
X186125002Y-42000000D03*
X170675000Y-57800000D03*
X178499984Y-62625000D03*
X175625000Y-34649996D03*
X175943540Y-39968540D03*
%TD*%
D40*
%TO.N,Board_0-/IN+*%
X118532866Y-31126449D02*
X119801451Y-31126449D01*
X119801451Y-31126449D02*
X121274999Y-32599997D01*
X121275000Y-32599998D02*
X121274999Y-32599997D01*
X117525000Y-32134315D02*
X118532866Y-31126449D01*
X121275000Y-38375000D02*
X121275000Y-32599998D01*
X117525000Y-32700000D02*
X117525000Y-32134315D01*
%TO.N,Board_0-/IN-*%
X120775000Y-29100000D02*
X122875000Y-31200000D01*
X122875000Y-32100000D02*
X122875000Y-38375000D01*
X119993629Y-29100000D02*
X120775000Y-29100000D01*
X122912500Y-32062500D02*
X124875000Y-32062500D01*
X117025000Y-32700000D02*
X117025000Y-32068629D01*
X122875000Y-31200000D02*
X122875000Y-32100000D01*
X122875000Y-32100000D02*
X122912500Y-32062500D01*
X117025000Y-32068629D02*
X119993629Y-29100000D01*
%TO.N,Board_0-/MISO*%
X108650007Y-40874993D02*
X108650007Y-50359321D01*
X115525000Y-34000000D02*
X108650007Y-40874993D01*
X114586700Y-31200000D02*
X107175000Y-31200000D01*
X115525000Y-32700000D02*
X115525000Y-34000000D01*
X113675000Y-55384314D02*
X113675000Y-55925126D01*
X113675000Y-55925126D02*
X111461136Y-58138990D01*
X107175000Y-31200000D02*
X104075000Y-34300000D01*
X115525000Y-32700000D02*
X115525000Y-32138300D01*
X115525000Y-32138300D02*
X114586700Y-31200000D01*
X108650007Y-50359321D02*
X113675000Y-55384314D01*
%TO.N,Board_0-/MOSI*%
X109050007Y-46475007D02*
X116724329Y-54149329D01*
X116025000Y-34100000D02*
X109050007Y-41074993D01*
X106725000Y-29400000D02*
X104125000Y-32000000D01*
X122088864Y-58138990D02*
X118649874Y-54700000D01*
X116724329Y-54149329D02*
X116724329Y-54632693D01*
X113352385Y-29400000D02*
X106725000Y-29400000D01*
X104125000Y-32000000D02*
X104075000Y-32000000D01*
X116025000Y-32700000D02*
X116025000Y-32072615D01*
X116025000Y-32700000D02*
X116025000Y-34100000D01*
X118649874Y-54700000D02*
X118175000Y-54700000D01*
X109050007Y-41074993D02*
X109050007Y-46475007D01*
X116025000Y-32072615D02*
X113352385Y-29400000D01*
%TO.N,Board_0-/OUT-*%
X119537500Y-44700000D02*
X125225000Y-44700000D01*
X125225000Y-44700000D02*
X125575000Y-45050000D01*
%TO.N,Board_0-/POL*%
X114025000Y-33800000D02*
X107425000Y-40400000D01*
X109274996Y-54249996D02*
X110575000Y-54249996D01*
D41*
X118437128Y-57302724D02*
X116875000Y-57302724D01*
X120674651Y-59553204D02*
X120674651Y-59540247D01*
D40*
X115425000Y-56296447D02*
X115425000Y-56050000D01*
X104075000Y-41200000D02*
X107425000Y-41200000D01*
X107425000Y-40400000D02*
X107425000Y-52400000D01*
X112521796Y-59199651D02*
X115425000Y-56296447D01*
X107425000Y-52400000D02*
X109274996Y-54249996D01*
X114025000Y-32700000D02*
X114025000Y-33800000D01*
D41*
X120674651Y-59540247D02*
X118437128Y-57302724D01*
%TO.N,Board_0-/PZT_Common*%
X103815000Y-78240480D02*
X103815000Y-66492232D01*
X129815000Y-66560000D02*
X129815000Y-66540000D01*
X103815000Y-66492232D02*
X106625000Y-63682232D01*
X129815000Y-66540000D02*
X127325000Y-64050000D01*
X120674651Y-62646796D02*
X119671447Y-63650000D01*
X108597151Y-58856345D02*
X106803496Y-60650000D01*
X106625000Y-63682232D02*
X106625000Y-60828496D01*
X129815000Y-66560000D02*
X129825000Y-66550000D01*
X106625000Y-60828496D02*
X106803496Y-60650000D01*
X127325000Y-64050000D02*
X127075000Y-63800000D01*
X109084898Y-58856345D02*
X108597151Y-58856345D01*
X129815000Y-78290480D02*
X129815000Y-66560000D01*
X119671447Y-63650000D02*
X119225000Y-63650000D01*
X109428204Y-59199651D02*
X109084898Y-58856345D01*
D40*
%TO.N,Board_0-/SCL*%
X120383393Y-37216607D02*
X120383393Y-34500000D01*
X118025000Y-32700000D02*
X118025000Y-32203984D01*
X117575000Y-43237500D02*
X117575000Y-40025000D01*
X118628984Y-31600000D02*
X119490685Y-31600000D01*
X118025000Y-32203984D02*
X118628984Y-31600000D01*
X117575000Y-40025000D02*
X119175000Y-38425000D01*
X119490685Y-31600000D02*
X120383393Y-32492708D01*
X120383393Y-32492708D02*
X120383393Y-34500000D01*
X119175000Y-38425000D02*
X120383393Y-37216607D01*
%TO.N,Board_0-/SCLK*%
X121381757Y-58846097D02*
X120241422Y-57705762D01*
X114421016Y-31600000D02*
X109075000Y-31600000D01*
X115025000Y-32700000D02*
X115025000Y-33934314D01*
X109075000Y-31600000D02*
X104075000Y-36600000D01*
X115025000Y-32700000D02*
X115025000Y-32203985D01*
X120241422Y-57705762D02*
X120241422Y-57633578D01*
X114498008Y-31676992D02*
X114421016Y-31600000D01*
X115025000Y-33934314D02*
X108250000Y-40709314D01*
X108250000Y-50890724D02*
X113055436Y-55696160D01*
X114498008Y-31676992D02*
X114421015Y-31600000D01*
D41*
X113228903Y-59906757D02*
X115231157Y-57904503D01*
D40*
X108250000Y-40709314D02*
X108250000Y-50890724D01*
X115025000Y-32203985D02*
X114498008Y-31676992D01*
D41*
X115231157Y-57904503D02*
X115391954Y-57904503D01*
D40*
%TO.N,Board_0-/SDA*%
X119783347Y-32528017D02*
X119783347Y-35650000D01*
D41*
X117075000Y-43237500D02*
X117075000Y-38925000D01*
D40*
X116917893Y-35650000D02*
X119783347Y-35650000D01*
X118794670Y-32000000D02*
X119255330Y-32000000D01*
X117575000Y-38425000D02*
X116275000Y-37125000D01*
X119255330Y-32000000D02*
X119783347Y-32528017D01*
D41*
X117075000Y-38925000D02*
X117575000Y-38425000D01*
D40*
X118525000Y-32700000D02*
X118525000Y-32269670D01*
X116275000Y-36292893D02*
X116917893Y-35650000D01*
X116275000Y-37125000D02*
X116275000Y-36292893D01*
X118525000Y-32269670D02*
X118794670Y-32000000D01*
%TO.N,Board_0-/SS*%
X114687563Y-55887437D02*
X115675000Y-54900000D01*
X112168243Y-58846097D02*
X114687563Y-56326777D01*
X120321097Y-59906757D02*
X118342064Y-57927724D01*
X114525000Y-32700000D02*
X114525000Y-32269670D01*
X114525000Y-33868628D02*
X107850000Y-40543628D01*
X110975000Y-32000000D02*
X104095000Y-38880000D01*
X114255330Y-32000000D02*
X110975000Y-32000000D01*
X114525000Y-32269670D02*
X114255330Y-32000000D01*
X114525000Y-32700000D02*
X114525000Y-33868628D01*
X107850000Y-51976470D02*
X109150878Y-53277348D01*
X107850000Y-40543628D02*
X107850000Y-51976470D01*
X114687563Y-56326777D02*
X114687563Y-55887437D01*
X118342064Y-57927724D02*
X117950520Y-57927724D01*
D42*
%TO.N,Board_0-/VBST*%
X121575000Y-46450000D02*
X120287500Y-46450000D01*
D40*
X121625000Y-50900000D02*
X122075000Y-50900000D01*
D42*
X119011522Y-47162500D02*
X118575000Y-47162500D01*
X112150000Y-46300000D02*
X112150000Y-46425002D01*
D40*
X121125000Y-46450000D02*
X120375000Y-47200000D01*
X123975000Y-49000000D02*
X123975000Y-47600000D01*
D42*
X119537500Y-45700000D02*
X119537500Y-46200000D01*
X112150000Y-46425002D02*
X112925000Y-47200002D01*
D40*
X122075000Y-50900000D02*
X123975000Y-49000000D01*
D42*
X119537500Y-46200000D02*
X119537500Y-46636522D01*
D40*
X122825000Y-46450000D02*
X121125000Y-46450000D01*
X123975000Y-47600000D02*
X122825000Y-46450000D01*
D42*
X119274511Y-46899511D02*
X119011522Y-47162500D01*
X120287500Y-46450000D02*
X119537500Y-45700000D01*
X119537500Y-46636522D02*
X119274511Y-46899511D01*
D40*
%TO.N,Board_0-/VDD*%
X117425000Y-55665686D02*
X117425000Y-55646015D01*
X117425000Y-54242462D02*
X117425000Y-55646015D01*
D41*
X117650002Y-36850002D02*
X117575000Y-36775000D01*
D40*
X113518071Y-29000000D02*
X104825000Y-29000000D01*
X116525000Y-32006929D02*
X113518071Y-29000000D01*
X117424992Y-34200000D02*
X116525000Y-34200000D01*
X116525000Y-34200000D02*
X109475000Y-41250000D01*
D41*
X112875349Y-59520303D02*
X116320652Y-56075000D01*
D40*
X116525000Y-32700000D02*
X116525000Y-32006929D01*
D41*
X116875000Y-60700000D02*
X116875000Y-58350000D01*
D40*
X116525000Y-32700000D02*
X116525000Y-34200000D01*
X104825000Y-29000000D02*
X104075000Y-29750000D01*
X121028204Y-59199651D02*
X120958965Y-59199651D01*
D41*
X112875349Y-59553204D02*
X112875349Y-59520303D01*
X118375000Y-36850002D02*
X117650002Y-36850002D01*
D40*
X117474996Y-34150000D02*
X117475000Y-34150004D01*
D41*
X116875000Y-58350000D02*
X115476776Y-56951776D01*
D40*
X117475000Y-34150004D02*
X117475000Y-34149992D01*
X117425000Y-52925000D02*
X117425000Y-54242462D01*
D41*
X119099998Y-36850002D02*
X119175000Y-36775000D01*
D40*
X117400000Y-52900000D02*
X117425000Y-52925000D01*
D41*
X116996015Y-56075000D02*
X117425000Y-55646015D01*
X118375000Y-36850002D02*
X119099998Y-36850002D01*
D40*
X109475000Y-41250000D02*
X109475000Y-46292462D01*
X109475000Y-46292462D02*
X117425000Y-54242462D01*
X117475000Y-34149992D02*
X117424992Y-34200000D01*
X120958965Y-59199651D02*
X117425000Y-55665686D01*
D41*
X116320652Y-56075000D02*
X116996015Y-56075000D01*
%TO.N,Board_0-/VIN*%
X106825000Y-49113932D02*
X106825004Y-49113928D01*
D43*
X112688909Y-48686091D02*
X110075000Y-46072182D01*
D40*
X121641668Y-53200000D02*
X121625000Y-53200000D01*
D43*
X116502126Y-35050000D02*
X117785661Y-35050000D01*
X119175000Y-33660661D02*
X119175000Y-32700000D01*
X114577818Y-50575000D02*
X112688909Y-48686091D01*
X110075000Y-41477126D02*
X116502126Y-35050000D01*
D41*
X110135311Y-58492544D02*
X108875000Y-57232233D01*
D40*
X119325000Y-50900000D02*
X118075000Y-50900000D01*
X119861477Y-61939689D02*
X119543172Y-62257994D01*
D41*
X108875000Y-57200000D02*
X106825000Y-55150000D01*
X108875000Y-57232233D02*
X108875000Y-57200000D01*
X113750000Y-42900000D02*
X113750000Y-43297328D01*
D43*
X115550000Y-50575000D02*
X115975000Y-51000000D01*
D41*
X113750000Y-42900000D02*
X111312500Y-40462500D01*
D43*
X114975000Y-50575000D02*
X114577818Y-50575000D01*
D41*
X112761091Y-48686091D02*
X112688909Y-48686091D01*
D43*
X110075000Y-46072182D02*
X110075000Y-41700000D01*
D41*
X113175000Y-49100000D02*
X112761091Y-48686091D01*
D43*
X114975000Y-50575000D02*
X115550000Y-50575000D01*
D41*
X113750000Y-43297328D02*
X115152672Y-44700000D01*
D43*
X117975000Y-51000000D02*
X118075000Y-50900000D01*
X110075000Y-41700000D02*
X110075000Y-41477126D01*
X115975000Y-51000000D02*
X117975000Y-51000000D01*
D40*
X119543172Y-62257994D02*
X119207510Y-62257994D01*
X121625000Y-53200000D02*
X119325000Y-50900000D01*
X118625000Y-61675484D02*
X119207510Y-62257994D01*
D41*
X115152672Y-44700000D02*
X115612500Y-44700000D01*
D40*
X119967544Y-61939689D02*
X119861477Y-61939689D01*
D41*
X106825000Y-55150000D02*
X106825000Y-49113932D01*
D43*
X117785661Y-35050000D02*
X119175000Y-33660661D01*
D42*
%TO.N,Board_0-/VPP*%
X125575000Y-57039340D02*
X124694670Y-57919670D01*
X125575000Y-47400000D02*
X125575000Y-51800000D01*
D40*
X125575000Y-47400002D02*
X125575000Y-51800000D01*
D42*
X119975000Y-45200000D02*
X119977151Y-45202151D01*
D41*
X123768243Y-58846097D02*
X122575000Y-60039340D01*
X114435660Y-63500000D02*
X116875000Y-63500000D01*
X116875000Y-63500000D02*
X118175000Y-63500000D01*
D42*
X125575000Y-51800000D02*
X125575000Y-57039340D01*
D41*
X112035660Y-61100000D02*
X113228903Y-62293243D01*
X118175000Y-63500000D02*
X118225000Y-63450000D01*
D42*
X123377151Y-45202151D02*
X125575000Y-47400000D01*
X119977151Y-45202151D02*
X123377151Y-45202151D01*
D41*
X113228903Y-62293243D02*
X114435660Y-63500000D01*
D42*
X124694670Y-57919670D02*
X123768243Y-58846097D01*
D40*
%TO.N,Board_0-/reed1*%
X108721097Y-62353903D02*
X107315000Y-63760000D01*
X107315000Y-70600000D02*
X107575000Y-70860000D01*
X107075000Y-70840000D02*
X107075000Y-71850000D01*
X107315000Y-63760000D02*
X107315000Y-70600000D01*
X108721097Y-62293243D02*
X108721097Y-62353903D01*
X107575000Y-70860000D02*
X107575000Y-71850000D01*
X107315000Y-70600000D02*
X107075000Y-70840000D01*
%TO.N,Board_0-/reed10*%
X113193175Y-63318175D02*
X116315000Y-66440000D01*
X112839622Y-63318175D02*
X113193175Y-63318175D01*
X116575000Y-70860000D02*
X116575000Y-71850000D01*
X116315000Y-70600000D02*
X116575000Y-70860000D01*
X116315000Y-70600000D02*
X116075000Y-70840000D01*
X116075000Y-70840000D02*
X116075000Y-71850000D01*
X112521796Y-63000349D02*
X112839622Y-63318175D01*
X116315000Y-66440000D02*
X116315000Y-70600000D01*
%TO.N,Board_0-/reed11*%
X117315000Y-66460000D02*
X119275000Y-64500000D01*
X117315000Y-70600000D02*
X117315000Y-66460000D01*
X117315000Y-70600000D02*
X117075000Y-70840000D01*
X117575000Y-70860000D02*
X117575000Y-71850000D01*
X117315000Y-70600000D02*
X117575000Y-70860000D01*
X119528553Y-64500000D02*
X121028204Y-63000349D01*
X117075000Y-70840000D02*
X117075000Y-71850000D01*
X119275000Y-64500000D02*
X119528553Y-64500000D01*
%TO.N,Board_0-/reed12*%
X118315000Y-70600000D02*
X118575000Y-70860000D01*
X121381757Y-63393243D02*
X118315000Y-66460000D01*
X118315000Y-66460000D02*
X118315000Y-70600000D01*
X121381757Y-63353903D02*
X121381757Y-63393243D01*
X118575000Y-70860000D02*
X118575000Y-71850000D01*
X118075000Y-70840000D02*
X118075000Y-71850000D01*
X118315000Y-70600000D02*
X118075000Y-70840000D01*
%TO.N,Board_0-/reed13*%
X121735311Y-63707456D02*
X121417485Y-64025282D01*
X119075000Y-70840000D02*
X119075000Y-71850000D01*
X121417485Y-64357515D02*
X119315000Y-66460000D01*
X119315000Y-70600000D02*
X119575000Y-70860000D01*
X119315000Y-70600000D02*
X119075000Y-70840000D01*
X119315000Y-66460000D02*
X119315000Y-70600000D01*
X121417485Y-64025282D02*
X121417485Y-64357515D01*
X119575000Y-70860000D02*
X119575000Y-71850000D01*
%TO.N,Board_0-/reed14*%
X120315000Y-70600000D02*
X120075000Y-70840000D01*
X120075000Y-70840000D02*
X120075000Y-71850000D01*
X120575000Y-70860000D02*
X120575000Y-71850000D01*
X122088864Y-64686136D02*
X120315000Y-66460000D01*
X122088864Y-64061010D02*
X122088864Y-64686136D01*
X120315000Y-66460000D02*
X120315000Y-70600000D01*
X120315000Y-70600000D02*
X120575000Y-70860000D01*
%TO.N,Board_0-/reed15*%
X121575000Y-70860000D02*
X121575000Y-71850000D01*
X121315000Y-70600000D02*
X121575000Y-70860000D01*
X121075000Y-70840000D02*
X121075000Y-71850000D01*
X123061136Y-64061010D02*
X123061136Y-64713864D01*
X123061136Y-64713864D02*
X121315000Y-66460000D01*
X121315000Y-70600000D02*
X121075000Y-70840000D01*
X121315000Y-66460000D02*
X121315000Y-70600000D01*
%TO.N,Board_0-/reed16*%
X122315000Y-70600000D02*
X122575000Y-70860000D01*
X122315000Y-66460000D02*
X122315000Y-70600000D01*
X123414689Y-63707456D02*
X123875000Y-64167767D01*
X123875000Y-64167767D02*
X123875000Y-64900000D01*
X122315000Y-70600000D02*
X122075000Y-70840000D01*
X123875000Y-64900000D02*
X122315000Y-66460000D01*
X122075000Y-70840000D02*
X122075000Y-71850000D01*
X122575000Y-70860000D02*
X122575000Y-71850000D01*
%TO.N,Board_0-/reed17*%
X124375000Y-65400000D02*
X123315000Y-66460000D01*
X123768243Y-63353903D02*
X124375000Y-63960660D01*
X123315000Y-66460000D02*
X123315000Y-70600000D01*
X123075000Y-70840000D02*
X123075000Y-71850000D01*
X124375000Y-63960660D02*
X124375000Y-65400000D01*
X123315000Y-70600000D02*
X123075000Y-70840000D01*
X123315000Y-70600000D02*
X123575000Y-70860000D01*
X123575000Y-70860000D02*
X123575000Y-71850000D01*
%TO.N,Board_0-/reed18*%
X124315000Y-66460000D02*
X124875000Y-65900000D01*
X124315000Y-70600000D02*
X124575000Y-70860000D01*
X124315000Y-70600000D02*
X124315000Y-66460000D01*
X124875000Y-63753553D02*
X124121796Y-63000349D01*
X124875000Y-65900000D02*
X124875000Y-63753553D01*
X124075000Y-70840000D02*
X124075000Y-71850000D01*
X124315000Y-70600000D02*
X124075000Y-70840000D01*
X124575000Y-70860000D02*
X124575000Y-71850000D01*
%TO.N,Board_0-/reed19*%
X125575000Y-70860000D02*
X125575000Y-71850000D01*
X124475349Y-62646796D02*
X125315000Y-63486447D01*
X125075000Y-70840000D02*
X125075000Y-71850000D01*
X125315000Y-70600000D02*
X125575000Y-70860000D01*
X125315000Y-70600000D02*
X125075000Y-70840000D01*
X125315000Y-63486447D02*
X125315000Y-70600000D01*
%TO.N,Board_0-/reed2*%
X108315000Y-70600000D02*
X108575000Y-70860000D01*
X108315000Y-63406447D02*
X108315000Y-70600000D01*
X108315000Y-70600000D02*
X108075000Y-70840000D01*
X109074651Y-62646796D02*
X108315000Y-63406447D01*
X108575000Y-70860000D02*
X108575000Y-71850000D01*
X108075000Y-70840000D02*
X108075000Y-71850000D01*
%TO.N,Board_0-/reed20*%
X126075000Y-70840000D02*
X126075000Y-71850000D01*
X126315000Y-70600000D02*
X126575000Y-70860000D01*
X124828903Y-62293243D02*
X126325000Y-63789340D01*
X126575000Y-70860000D02*
X126575000Y-71850000D01*
X126315000Y-70600000D02*
X126075000Y-70840000D01*
X126325000Y-63789340D02*
X126325000Y-70590000D01*
X126325000Y-70590000D02*
X126315000Y-70600000D01*
%TO.N,Board_0-/reed3*%
X109575000Y-70860000D02*
X109575000Y-71850000D01*
X109315000Y-70600000D02*
X109075000Y-70840000D01*
X109315000Y-70600000D02*
X109575000Y-70860000D01*
X109315000Y-66440000D02*
X109315000Y-70600000D01*
X108875000Y-63553553D02*
X108875000Y-66000000D01*
X109428204Y-63000349D02*
X108875000Y-63553553D01*
X108875000Y-66000000D02*
X109315000Y-66440000D01*
X109075000Y-70840000D02*
X109075000Y-71850000D01*
%TO.N,Board_0-/reed4*%
X109781757Y-63353903D02*
X109417975Y-63717685D01*
X109417975Y-63717685D02*
X109417975Y-65542975D01*
X110315000Y-70600000D02*
X110075000Y-70840000D01*
X109417975Y-65542975D02*
X110315000Y-66440000D01*
X110315000Y-70600000D02*
X110575000Y-70860000D01*
X110575000Y-70860000D02*
X110575000Y-71850000D01*
X110315000Y-66440000D02*
X110315000Y-70600000D01*
X110075000Y-70840000D02*
X110075000Y-71850000D01*
%TO.N,Board_0-/reed5*%
X109817485Y-64942485D02*
X111315000Y-66440000D01*
X111315000Y-70600000D02*
X111575000Y-70860000D01*
X111575000Y-70860000D02*
X111575000Y-71850000D01*
X111075000Y-70840000D02*
X111075000Y-71850000D01*
X111315000Y-70600000D02*
X111075000Y-70840000D01*
X110135311Y-63707456D02*
X109817485Y-64025282D01*
X109817485Y-64025282D02*
X109817485Y-64942485D01*
X111315000Y-66440000D02*
X111315000Y-70600000D01*
%TO.N,Board_0-/reed6*%
X112075000Y-70840000D02*
X112075000Y-71850000D01*
X112315000Y-70600000D02*
X112575000Y-70860000D01*
X110488864Y-64613864D02*
X112315000Y-66440000D01*
X112575000Y-70860000D02*
X112575000Y-71850000D01*
X112315000Y-70600000D02*
X112075000Y-70840000D01*
X110488864Y-64061010D02*
X110488864Y-64613864D01*
X112315000Y-66440000D02*
X112315000Y-70600000D01*
%TO.N,Board_0-/reed7*%
X113075000Y-70840000D02*
X113075000Y-71850000D01*
X111461136Y-64586136D02*
X113315000Y-66440000D01*
X113575000Y-70860000D02*
X113575000Y-71850000D01*
X113315000Y-66440000D02*
X113315000Y-70600000D01*
X111461136Y-64061010D02*
X111461136Y-64586136D01*
X113315000Y-70600000D02*
X113575000Y-70860000D01*
X113315000Y-70600000D02*
X113075000Y-70840000D01*
%TO.N,Board_0-/reed8*%
X114075000Y-70840000D02*
X114075000Y-71850000D01*
X111814689Y-63707456D02*
X112132515Y-64025282D01*
X114315000Y-66440000D02*
X114315000Y-70600000D01*
X112132515Y-64257515D02*
X114315000Y-66440000D01*
X114575000Y-70860000D02*
X114575000Y-71850000D01*
X114315000Y-70600000D02*
X114075000Y-70840000D01*
X114315000Y-70600000D02*
X114575000Y-70860000D01*
X112132515Y-64025282D02*
X112132515Y-64257515D01*
%TO.N,Board_0-/reed9*%
X115075000Y-70840000D02*
X115075000Y-71850000D01*
X112168243Y-63353903D02*
X112228903Y-63353903D01*
X115315000Y-70600000D02*
X115575000Y-70860000D01*
X115575000Y-70860000D02*
X115575000Y-71850000D01*
X115315000Y-66440000D02*
X115315000Y-70600000D01*
X112228903Y-63353903D02*
X115315000Y-66440000D01*
X115315000Y-70600000D02*
X115075000Y-70840000D01*
D41*
%TO.N,Board_0-GND*%
X114075000Y-39825000D02*
X115775000Y-39825000D01*
D43*
X115725000Y-47050000D02*
X116475000Y-46300000D01*
D40*
X116375000Y-46200000D02*
X116475000Y-46300000D01*
X123414689Y-58492544D02*
X123975000Y-57932233D01*
X113525000Y-32700000D02*
X113525000Y-33550000D01*
D41*
X114267767Y-62625000D02*
X115199984Y-62625000D01*
X113582456Y-61939689D02*
X114267767Y-62625000D01*
D43*
X114975000Y-49025000D02*
X114975000Y-47800000D01*
D42*
X112125000Y-43025000D02*
X112125000Y-43850000D01*
X115612500Y-45700000D02*
X115612500Y-46200000D01*
D44*
X122850000Y-43300000D02*
X122850000Y-42024998D01*
D42*
X121575000Y-48350000D02*
X121575000Y-49349996D01*
D40*
X116575000Y-47162500D02*
X116575000Y-46400000D01*
D41*
X119906346Y-62707994D02*
X118134034Y-62707994D01*
D40*
X122325000Y-55550000D02*
X121625000Y-55550000D01*
D41*
X115549984Y-62275000D02*
X115199984Y-62625000D01*
X112787080Y-39825000D02*
X112643540Y-39968540D01*
D40*
X112150000Y-44700000D02*
X112150000Y-44575000D01*
D44*
X122850000Y-42024998D02*
X122825002Y-42000000D01*
D40*
X115612500Y-46937500D02*
X115725000Y-47050000D01*
D43*
X115612500Y-46200000D02*
X115612500Y-46937500D01*
D42*
X112150000Y-44575000D02*
X112150000Y-43875000D01*
D40*
X113525000Y-33550000D02*
X112425004Y-34649996D01*
D43*
X114975000Y-47800000D02*
X115725000Y-47050000D01*
D40*
X115612500Y-45700000D02*
X117075000Y-45700000D01*
D42*
X121575000Y-49349996D02*
X121575004Y-49350000D01*
D41*
X117701040Y-62275000D02*
X115549984Y-62275000D01*
D40*
X115612500Y-46200000D02*
X116375000Y-46200000D01*
D42*
X112150000Y-43875000D02*
X112125000Y-43850000D01*
X112000000Y-42900000D02*
X112125000Y-43025000D01*
D40*
X108735660Y-57800000D02*
X107375000Y-57800000D01*
X115837500Y-47162500D02*
X115725000Y-47050000D01*
D42*
X116575000Y-47162500D02*
X115837500Y-47162500D01*
D41*
X114075000Y-39825000D02*
X112787080Y-39825000D01*
D40*
X112425004Y-34649996D02*
X112325000Y-34649996D01*
D41*
X120321097Y-62293243D02*
X119906346Y-62707994D01*
D40*
X116575000Y-46400000D02*
X116475000Y-46300000D01*
D41*
X118134034Y-62707994D02*
X117701040Y-62275000D01*
D40*
X117075000Y-45700000D02*
X117575000Y-45200000D01*
X123975000Y-57200000D02*
X122325000Y-55550000D01*
X123975000Y-57932233D02*
X123975000Y-57200000D01*
X118975000Y-52900000D02*
X121625000Y-55550000D01*
X118950000Y-52900000D02*
X118975000Y-52900000D01*
X109781757Y-58846097D02*
X108735660Y-57800000D01*
D43*
%TO.N,Board_0-Net-(L1-Pad1)*%
X117375000Y-48100000D02*
X117375000Y-47200000D01*
X117375000Y-47200000D02*
X117337500Y-47162500D01*
X118075000Y-48800000D02*
X117375000Y-48100000D01*
D40*
%TO.N,Board_0-Net-(U1-DIN)*%
X119613990Y-60613864D02*
X118761136Y-60613864D01*
X117525000Y-61850000D02*
X116075000Y-61850000D01*
X114838864Y-60613864D02*
X113936010Y-60613864D01*
X116075000Y-61850000D02*
X114838864Y-60613864D01*
X118761136Y-60613864D02*
X117525000Y-61850000D01*
%TO.N,Board_0-Net-(U3-FB)*%
X113800000Y-44700000D02*
X113800000Y-46300000D01*
X113800000Y-44700000D02*
X114513478Y-44700000D01*
X114513478Y-44700000D02*
X115013478Y-45200000D01*
X115013478Y-45200000D02*
X115612500Y-45200000D01*
%TO.N,Board_0-Net-(U3-IN+)*%
X118075000Y-43237500D02*
X118075000Y-42650000D01*
X120800000Y-39925000D02*
X121275000Y-39925000D01*
X118075000Y-42650000D02*
X120800000Y-39925000D01*
%TO.N,Board_0-Net-(U3-IN-)*%
X119262500Y-43237500D02*
X122575000Y-39925000D01*
X122575000Y-39925000D02*
X122875000Y-39925000D01*
X118575000Y-43237500D02*
X119262500Y-43237500D01*
D42*
%TO.N,Board_0-Net-(U3-REG)*%
X115775000Y-41625000D02*
X116575000Y-42425000D01*
X116575000Y-42425000D02*
X116575000Y-43237500D01*
D40*
%TO.N,Board_0-Net-(U3-REXT)*%
X120300000Y-44200000D02*
X121200000Y-43300000D01*
X119537500Y-44200000D02*
X120300000Y-44200000D01*
D41*
%TO.N,Board_0-Net-(U3-VPUMP)*%
X115612500Y-42912500D02*
X115612500Y-44200000D01*
X114075000Y-41375000D02*
X115612500Y-42912500D01*
D40*
%TO.N,Board_1-/IN+*%
X152925000Y-38375000D02*
X152925000Y-32599998D01*
X149175000Y-32700000D02*
X149175000Y-32134315D01*
X150182866Y-31126449D02*
X151451451Y-31126449D01*
X149175000Y-32134315D02*
X150182866Y-31126449D01*
X152925000Y-32599998D02*
X152924999Y-32599997D01*
X151451451Y-31126449D02*
X152924999Y-32599997D01*
%TO.N,Board_1-/IN-*%
X154525000Y-31200000D02*
X154525000Y-32100000D01*
X154562500Y-32062500D02*
X156525000Y-32062500D01*
X148675000Y-32700000D02*
X148675000Y-32068629D01*
X154525000Y-32100000D02*
X154525000Y-38375000D01*
X152425000Y-29100000D02*
X154525000Y-31200000D01*
X151643629Y-29100000D02*
X152425000Y-29100000D01*
X148675000Y-32068629D02*
X151643629Y-29100000D01*
X154525000Y-32100000D02*
X154562500Y-32062500D01*
%TO.N,Board_1-/MISO*%
X147175000Y-32700000D02*
X147175000Y-32138300D01*
X146236700Y-31200000D02*
X138825000Y-31200000D01*
X140300007Y-40874993D02*
X140300007Y-50359321D01*
X140300007Y-50359321D02*
X145325000Y-55384314D01*
X138825000Y-31200000D02*
X135725000Y-34300000D01*
X147175000Y-32700000D02*
X147175000Y-34000000D01*
X145325000Y-55384314D02*
X145325000Y-55925126D01*
X147175000Y-34000000D02*
X140300007Y-40874993D01*
X145325000Y-55925126D02*
X143111136Y-58138990D01*
X147175000Y-32138300D02*
X146236700Y-31200000D01*
%TO.N,Board_1-/MOSI*%
X147675000Y-32700000D02*
X147675000Y-32072615D01*
X148374329Y-54149329D02*
X148374329Y-54632693D01*
X145002385Y-29400000D02*
X138375000Y-29400000D01*
X135775000Y-32000000D02*
X135725000Y-32000000D01*
X150299874Y-54700000D02*
X149825000Y-54700000D01*
X147675000Y-34100000D02*
X140700007Y-41074993D01*
X138375000Y-29400000D02*
X135775000Y-32000000D01*
X147675000Y-32700000D02*
X147675000Y-34100000D01*
X140700007Y-41074993D02*
X140700007Y-46475007D01*
X153738864Y-58138990D02*
X150299874Y-54700000D01*
X140700007Y-46475007D02*
X148374329Y-54149329D01*
X147675000Y-32072615D02*
X145002385Y-29400000D01*
%TO.N,Board_1-/OUT-*%
X151187500Y-44700000D02*
X156875000Y-44700000D01*
X156875000Y-44700000D02*
X157225000Y-45050000D01*
%TO.N,Board_1-/POL*%
X144171796Y-59199651D02*
X147075000Y-56296447D01*
X139075000Y-52400000D02*
X140924996Y-54249996D01*
D41*
X152324651Y-59540247D02*
X150087128Y-57302724D01*
D40*
X147075000Y-56296447D02*
X147075000Y-56050000D01*
D41*
X152324651Y-59553204D02*
X152324651Y-59540247D01*
D40*
X135725000Y-41200000D02*
X139075000Y-41200000D01*
X139075000Y-40400000D02*
X139075000Y-52400000D01*
X140924996Y-54249996D02*
X142225000Y-54249996D01*
X145675000Y-32700000D02*
X145675000Y-33800000D01*
D41*
X150087128Y-57302724D02*
X148525000Y-57302724D01*
D40*
X145675000Y-33800000D02*
X139075000Y-40400000D01*
D41*
%TO.N,Board_1-/PZT_Common*%
X161465000Y-66560000D02*
X161465000Y-66540000D01*
X140734898Y-58856345D02*
X140247151Y-58856345D01*
X161465000Y-66560000D02*
X161475000Y-66550000D01*
X161465000Y-66540000D02*
X158975000Y-64050000D01*
X138275000Y-63682232D02*
X138275000Y-60828496D01*
X158975000Y-64050000D02*
X158725000Y-63800000D01*
X140247151Y-58856345D02*
X138453496Y-60650000D01*
X138275000Y-60828496D02*
X138453496Y-60650000D01*
X135465000Y-78240480D02*
X135465000Y-66492232D01*
X161465000Y-78290480D02*
X161465000Y-66560000D01*
X141078204Y-59199651D02*
X140734898Y-58856345D01*
X151321447Y-63650000D02*
X150875000Y-63650000D01*
X135465000Y-66492232D02*
X138275000Y-63682232D01*
X152324651Y-62646796D02*
X151321447Y-63650000D01*
D40*
%TO.N,Board_1-/SCL*%
X152033393Y-37216607D02*
X152033393Y-34500000D01*
X152033393Y-32492708D02*
X152033393Y-34500000D01*
X150825000Y-38425000D02*
X152033393Y-37216607D01*
X150278984Y-31600000D02*
X151140685Y-31600000D01*
X151140685Y-31600000D02*
X152033393Y-32492708D01*
X149225000Y-43237500D02*
X149225000Y-40025000D01*
X149675000Y-32700000D02*
X149675000Y-32203984D01*
X149675000Y-32203984D02*
X150278984Y-31600000D01*
X149225000Y-40025000D02*
X150825000Y-38425000D01*
%TO.N,Board_1-/SCLK*%
X146675000Y-33934314D02*
X139900000Y-40709314D01*
X146675000Y-32700000D02*
X146675000Y-32203985D01*
X146148008Y-31676992D02*
X146071016Y-31600000D01*
D41*
X144878903Y-59906757D02*
X146881157Y-57904503D01*
D40*
X139900000Y-40709314D02*
X139900000Y-50890724D01*
X151891422Y-57705762D02*
X151891422Y-57633578D01*
X146675000Y-32203985D02*
X146148008Y-31676992D01*
X146675000Y-32700000D02*
X146675000Y-33934314D01*
X140725000Y-31600000D02*
X135725000Y-36600000D01*
X146148008Y-31676992D02*
X146071015Y-31600000D01*
X146071016Y-31600000D02*
X140725000Y-31600000D01*
D41*
X146881157Y-57904503D02*
X147041954Y-57904503D01*
D40*
X139900000Y-50890724D02*
X144705436Y-55696160D01*
X153031757Y-58846097D02*
X151891422Y-57705762D01*
%TO.N,Board_1-/SDA*%
X150175000Y-32700000D02*
X150175000Y-32269670D01*
X150444670Y-32000000D02*
X150905330Y-32000000D01*
X149225000Y-38425000D02*
X147925000Y-37125000D01*
X147925000Y-37125000D02*
X147925000Y-36292893D01*
X147925000Y-36292893D02*
X148567893Y-35650000D01*
X148567893Y-35650000D02*
X151433347Y-35650000D01*
D41*
X148725000Y-43237500D02*
X148725000Y-38925000D01*
D40*
X150175000Y-32269670D02*
X150444670Y-32000000D01*
X151433347Y-32528017D02*
X151433347Y-35650000D01*
X150905330Y-32000000D02*
X151433347Y-32528017D01*
D41*
X148725000Y-38925000D02*
X149225000Y-38425000D01*
D40*
%TO.N,Board_1-/SS*%
X142625000Y-32000000D02*
X135745000Y-38880000D01*
X139500000Y-51976470D02*
X140800878Y-53277348D01*
X149992064Y-57927724D02*
X149600520Y-57927724D01*
X146175000Y-32700000D02*
X146175000Y-32269670D01*
X145905330Y-32000000D02*
X142625000Y-32000000D01*
X139500000Y-40543628D02*
X139500000Y-51976470D01*
X146175000Y-32700000D02*
X146175000Y-33868628D01*
X143818243Y-58846097D02*
X146337563Y-56326777D01*
X146175000Y-33868628D02*
X139500000Y-40543628D01*
X151971097Y-59906757D02*
X149992064Y-57927724D01*
X146337563Y-56326777D02*
X146337563Y-55887437D01*
X146175000Y-32269670D02*
X145905330Y-32000000D01*
X146337563Y-55887437D02*
X147325000Y-54900000D01*
%TO.N,Board_1-/VBST*%
X155625000Y-49000000D02*
X155625000Y-47600000D01*
D42*
X153225000Y-46450000D02*
X151937500Y-46450000D01*
X143800000Y-46300000D02*
X143800000Y-46425002D01*
X151187500Y-45700000D02*
X151187500Y-46200000D01*
D40*
X153275000Y-50900000D02*
X153725000Y-50900000D01*
D42*
X143800000Y-46425002D02*
X144575000Y-47200002D01*
X151187500Y-46636522D02*
X150924511Y-46899511D01*
D40*
X155625000Y-47600000D02*
X154475000Y-46450000D01*
X153725000Y-50900000D02*
X155625000Y-49000000D01*
D42*
X151187500Y-46200000D02*
X151187500Y-46636522D01*
D40*
X154475000Y-46450000D02*
X152775000Y-46450000D01*
D42*
X151937500Y-46450000D02*
X151187500Y-45700000D01*
X150924511Y-46899511D02*
X150661522Y-47162500D01*
D40*
X152775000Y-46450000D02*
X152025000Y-47200000D01*
D42*
X150661522Y-47162500D02*
X150225000Y-47162500D01*
D41*
%TO.N,Board_1-/VDD*%
X147970652Y-56075000D02*
X148646015Y-56075000D01*
X150749998Y-36850002D02*
X150825000Y-36775000D01*
D40*
X148175000Y-32006929D02*
X145168071Y-29000000D01*
X148175000Y-32700000D02*
X148175000Y-34200000D01*
D41*
X149300002Y-36850002D02*
X149225000Y-36775000D01*
X144525349Y-59520303D02*
X147970652Y-56075000D01*
D40*
X149075000Y-54242462D02*
X149075000Y-55646015D01*
D41*
X148646015Y-56075000D02*
X149075000Y-55646015D01*
X148525000Y-58350000D02*
X147126776Y-56951776D01*
D40*
X149125000Y-34149992D02*
X149074992Y-34200000D01*
X141125000Y-41250000D02*
X141125000Y-46292462D01*
X145168071Y-29000000D02*
X136475000Y-29000000D01*
X149125000Y-34150004D02*
X149125000Y-34149992D01*
X141125000Y-46292462D02*
X149075000Y-54242462D01*
X149050000Y-52900000D02*
X149075000Y-52925000D01*
X152678204Y-59199651D02*
X152608965Y-59199651D01*
X149075000Y-52925000D02*
X149075000Y-54242462D01*
X149074992Y-34200000D02*
X148175000Y-34200000D01*
X148175000Y-32700000D02*
X148175000Y-32006929D01*
D41*
X148525000Y-60700000D02*
X148525000Y-58350000D01*
X150025000Y-36850002D02*
X150749998Y-36850002D01*
D40*
X149124996Y-34150000D02*
X149125000Y-34150004D01*
X149075000Y-55665686D02*
X149075000Y-55646015D01*
X136475000Y-29000000D02*
X135725000Y-29750000D01*
X152608965Y-59199651D02*
X149075000Y-55665686D01*
D41*
X150025000Y-36850002D02*
X149300002Y-36850002D01*
D40*
X148175000Y-34200000D02*
X141125000Y-41250000D01*
D41*
X144525349Y-59553204D02*
X144525349Y-59520303D01*
%TO.N,Board_1-/VIN*%
X146802672Y-44700000D02*
X147262500Y-44700000D01*
D40*
X153291668Y-53200000D02*
X153275000Y-53200000D01*
D41*
X138475000Y-55150000D02*
X138475000Y-49113932D01*
D40*
X150975000Y-50900000D02*
X149725000Y-50900000D01*
D43*
X147625000Y-51000000D02*
X149625000Y-51000000D01*
X148152126Y-35050000D02*
X149435661Y-35050000D01*
D41*
X145400000Y-43297328D02*
X146802672Y-44700000D01*
D43*
X141725000Y-41700000D02*
X141725000Y-41477126D01*
D41*
X145400000Y-42900000D02*
X145400000Y-43297328D01*
X145400000Y-42900000D02*
X142962500Y-40462500D01*
D40*
X153275000Y-53200000D02*
X150975000Y-50900000D01*
D43*
X149435661Y-35050000D02*
X150825000Y-33660661D01*
D41*
X141785311Y-58492544D02*
X140525000Y-57232233D01*
X138475000Y-49113932D02*
X138475004Y-49113928D01*
D40*
X151617544Y-61939689D02*
X151511477Y-61939689D01*
D43*
X146227818Y-50575000D02*
X144338909Y-48686091D01*
D40*
X151511477Y-61939689D02*
X151193172Y-62257994D01*
D43*
X141725000Y-46072182D02*
X141725000Y-41700000D01*
D40*
X150275000Y-61675484D02*
X150857510Y-62257994D01*
D43*
X144338909Y-48686091D02*
X141725000Y-46072182D01*
X147200000Y-50575000D02*
X147625000Y-51000000D01*
X146625000Y-50575000D02*
X146227818Y-50575000D01*
X141725000Y-41477126D02*
X148152126Y-35050000D01*
X146625000Y-50575000D02*
X147200000Y-50575000D01*
D41*
X140525000Y-57200000D02*
X138475000Y-55150000D01*
X144411091Y-48686091D02*
X144338909Y-48686091D01*
X144825000Y-49100000D02*
X144411091Y-48686091D01*
D43*
X150825000Y-33660661D02*
X150825000Y-32700000D01*
D41*
X140525000Y-57232233D02*
X140525000Y-57200000D01*
D43*
X149625000Y-51000000D02*
X149725000Y-50900000D01*
D40*
X151193172Y-62257994D02*
X150857510Y-62257994D01*
D41*
%TO.N,Board_1-/VPP*%
X155418243Y-58846097D02*
X154225000Y-60039340D01*
D42*
X157225000Y-47400000D02*
X157225000Y-51800000D01*
D41*
X143685660Y-61100000D02*
X144878903Y-62293243D01*
X149825000Y-63500000D02*
X149875000Y-63450000D01*
D42*
X151625000Y-45200000D02*
X151627151Y-45202151D01*
D41*
X144878903Y-62293243D02*
X146085660Y-63500000D01*
X146085660Y-63500000D02*
X148525000Y-63500000D01*
D40*
X157225000Y-47400002D02*
X157225000Y-51800000D01*
D42*
X155027151Y-45202151D02*
X157225000Y-47400000D01*
D41*
X148525000Y-63500000D02*
X149825000Y-63500000D01*
D42*
X151627151Y-45202151D02*
X155027151Y-45202151D01*
X157225000Y-51800000D02*
X157225000Y-57039340D01*
X156344670Y-57919670D02*
X155418243Y-58846097D01*
X157225000Y-57039340D02*
X156344670Y-57919670D01*
D40*
%TO.N,Board_1-/reed1*%
X140371097Y-62293243D02*
X140371097Y-62353903D01*
X139225000Y-70860000D02*
X139225000Y-71850000D01*
X140371097Y-62353903D02*
X138965000Y-63760000D01*
X138965000Y-63760000D02*
X138965000Y-70600000D01*
X138965000Y-70600000D02*
X138725000Y-70840000D01*
X138965000Y-70600000D02*
X139225000Y-70860000D01*
X138725000Y-70840000D02*
X138725000Y-71850000D01*
%TO.N,Board_1-/reed10*%
X147965000Y-66440000D02*
X147965000Y-70600000D01*
X147965000Y-70600000D02*
X148225000Y-70860000D01*
X147725000Y-70840000D02*
X147725000Y-71850000D01*
X144843175Y-63318175D02*
X147965000Y-66440000D01*
X144171796Y-63000349D02*
X144489622Y-63318175D01*
X147965000Y-70600000D02*
X147725000Y-70840000D01*
X144489622Y-63318175D02*
X144843175Y-63318175D01*
X148225000Y-70860000D02*
X148225000Y-71850000D01*
%TO.N,Board_1-/reed11*%
X149225000Y-70860000D02*
X149225000Y-71850000D01*
X150925000Y-64500000D02*
X151178553Y-64500000D01*
X148965000Y-70600000D02*
X148965000Y-66460000D01*
X148965000Y-66460000D02*
X150925000Y-64500000D01*
X148725000Y-70840000D02*
X148725000Y-71850000D01*
X148965000Y-70600000D02*
X148725000Y-70840000D01*
X151178553Y-64500000D02*
X152678204Y-63000349D01*
X148965000Y-70600000D02*
X149225000Y-70860000D01*
%TO.N,Board_1-/reed12*%
X149965000Y-66460000D02*
X149965000Y-70600000D01*
X153031757Y-63353903D02*
X153031757Y-63393243D01*
X150225000Y-70860000D02*
X150225000Y-71850000D01*
X149965000Y-70600000D02*
X150225000Y-70860000D01*
X153031757Y-63393243D02*
X149965000Y-66460000D01*
X149965000Y-70600000D02*
X149725000Y-70840000D01*
X149725000Y-70840000D02*
X149725000Y-71850000D01*
%TO.N,Board_1-/reed13*%
X153067485Y-64357515D02*
X150965000Y-66460000D01*
X153067485Y-64025282D02*
X153067485Y-64357515D01*
X151225000Y-70860000D02*
X151225000Y-71850000D01*
X150965000Y-70600000D02*
X151225000Y-70860000D01*
X150965000Y-66460000D02*
X150965000Y-70600000D01*
X153385311Y-63707456D02*
X153067485Y-64025282D01*
X150725000Y-70840000D02*
X150725000Y-71850000D01*
X150965000Y-70600000D02*
X150725000Y-70840000D01*
%TO.N,Board_1-/reed14*%
X153738864Y-64686136D02*
X151965000Y-66460000D01*
X151965000Y-70600000D02*
X152225000Y-70860000D01*
X151965000Y-66460000D02*
X151965000Y-70600000D01*
X151965000Y-70600000D02*
X151725000Y-70840000D01*
X153738864Y-64061010D02*
X153738864Y-64686136D01*
X151725000Y-70840000D02*
X151725000Y-71850000D01*
X152225000Y-70860000D02*
X152225000Y-71850000D01*
%TO.N,Board_1-/reed15*%
X152725000Y-70840000D02*
X152725000Y-71850000D01*
X153225000Y-70860000D02*
X153225000Y-71850000D01*
X152965000Y-70600000D02*
X153225000Y-70860000D01*
X154711136Y-64061010D02*
X154711136Y-64713864D01*
X154711136Y-64713864D02*
X152965000Y-66460000D01*
X152965000Y-70600000D02*
X152725000Y-70840000D01*
X152965000Y-66460000D02*
X152965000Y-70600000D01*
%TO.N,Board_1-/reed16*%
X153725000Y-70840000D02*
X153725000Y-71850000D01*
X153965000Y-70600000D02*
X153725000Y-70840000D01*
X153965000Y-70600000D02*
X154225000Y-70860000D01*
X155525000Y-64900000D02*
X153965000Y-66460000D01*
X155525000Y-64167767D02*
X155525000Y-64900000D01*
X153965000Y-66460000D02*
X153965000Y-70600000D01*
X155064689Y-63707456D02*
X155525000Y-64167767D01*
X154225000Y-70860000D02*
X154225000Y-71850000D01*
%TO.N,Board_1-/reed17*%
X154725000Y-70840000D02*
X154725000Y-71850000D01*
X156025000Y-65400000D02*
X154965000Y-66460000D01*
X154965000Y-70600000D02*
X154725000Y-70840000D01*
X154965000Y-66460000D02*
X154965000Y-70600000D01*
X154965000Y-70600000D02*
X155225000Y-70860000D01*
X155225000Y-70860000D02*
X155225000Y-71850000D01*
X155418243Y-63353903D02*
X156025000Y-63960660D01*
X156025000Y-63960660D02*
X156025000Y-65400000D01*
%TO.N,Board_1-/reed18*%
X155965000Y-66460000D02*
X156525000Y-65900000D01*
X156525000Y-65900000D02*
X156525000Y-63753553D01*
X155965000Y-70600000D02*
X155965000Y-66460000D01*
X155965000Y-70600000D02*
X155725000Y-70840000D01*
X156225000Y-70860000D02*
X156225000Y-71850000D01*
X155725000Y-70840000D02*
X155725000Y-71850000D01*
X156525000Y-63753553D02*
X155771796Y-63000349D01*
X155965000Y-70600000D02*
X156225000Y-70860000D01*
%TO.N,Board_1-/reed19*%
X156125349Y-62646796D02*
X156965000Y-63486447D01*
X156965000Y-70600000D02*
X157225000Y-70860000D01*
X156725000Y-70840000D02*
X156725000Y-71850000D01*
X157225000Y-70860000D02*
X157225000Y-71850000D01*
X156965000Y-70600000D02*
X156725000Y-70840000D01*
X156965000Y-63486447D02*
X156965000Y-70600000D01*
%TO.N,Board_1-/reed2*%
X139725000Y-70840000D02*
X139725000Y-71850000D01*
X139965000Y-63406447D02*
X139965000Y-70600000D01*
X139965000Y-70600000D02*
X139725000Y-70840000D01*
X139965000Y-70600000D02*
X140225000Y-70860000D01*
X140724651Y-62646796D02*
X139965000Y-63406447D01*
X140225000Y-70860000D02*
X140225000Y-71850000D01*
%TO.N,Board_1-/reed20*%
X157975000Y-63789340D02*
X157975000Y-70590000D01*
X157965000Y-70600000D02*
X158225000Y-70860000D01*
X158225000Y-70860000D02*
X158225000Y-71850000D01*
X157975000Y-70590000D02*
X157965000Y-70600000D01*
X156478903Y-62293243D02*
X157975000Y-63789340D01*
X157965000Y-70600000D02*
X157725000Y-70840000D01*
X157725000Y-70840000D02*
X157725000Y-71850000D01*
%TO.N,Board_1-/reed3*%
X140525000Y-63553553D02*
X140525000Y-66000000D01*
X140525000Y-66000000D02*
X140965000Y-66440000D01*
X141078204Y-63000349D02*
X140525000Y-63553553D01*
X140725000Y-70840000D02*
X140725000Y-71850000D01*
X141225000Y-70860000D02*
X141225000Y-71850000D01*
X140965000Y-70600000D02*
X140725000Y-70840000D01*
X140965000Y-66440000D02*
X140965000Y-70600000D01*
X140965000Y-70600000D02*
X141225000Y-70860000D01*
%TO.N,Board_1-/reed4*%
X141431757Y-63353903D02*
X141067975Y-63717685D01*
X141965000Y-70600000D02*
X142225000Y-70860000D01*
X141965000Y-66440000D02*
X141965000Y-70600000D01*
X141725000Y-70840000D02*
X141725000Y-71850000D01*
X142225000Y-70860000D02*
X142225000Y-71850000D01*
X141067975Y-63717685D02*
X141067975Y-65542975D01*
X141965000Y-70600000D02*
X141725000Y-70840000D01*
X141067975Y-65542975D02*
X141965000Y-66440000D01*
%TO.N,Board_1-/reed5*%
X143225000Y-70860000D02*
X143225000Y-71850000D01*
X142965000Y-66440000D02*
X142965000Y-70600000D01*
X142965000Y-70600000D02*
X142725000Y-70840000D01*
X141785311Y-63707456D02*
X141467485Y-64025282D01*
X142965000Y-70600000D02*
X143225000Y-70860000D01*
X142725000Y-70840000D02*
X142725000Y-71850000D01*
X141467485Y-64025282D02*
X141467485Y-64942485D01*
X141467485Y-64942485D02*
X142965000Y-66440000D01*
%TO.N,Board_1-/reed6*%
X143965000Y-70600000D02*
X144225000Y-70860000D01*
X143965000Y-70600000D02*
X143725000Y-70840000D01*
X143965000Y-66440000D02*
X143965000Y-70600000D01*
X143725000Y-70840000D02*
X143725000Y-71850000D01*
X142138864Y-64061010D02*
X142138864Y-64613864D01*
X144225000Y-70860000D02*
X144225000Y-71850000D01*
X142138864Y-64613864D02*
X143965000Y-66440000D01*
%TO.N,Board_1-/reed7*%
X144965000Y-70600000D02*
X144725000Y-70840000D01*
X143111136Y-64586136D02*
X144965000Y-66440000D01*
X145225000Y-70860000D02*
X145225000Y-71850000D01*
X144965000Y-70600000D02*
X145225000Y-70860000D01*
X143111136Y-64061010D02*
X143111136Y-64586136D01*
X144725000Y-70840000D02*
X144725000Y-71850000D01*
X144965000Y-66440000D02*
X144965000Y-70600000D01*
%TO.N,Board_1-/reed8*%
X145725000Y-70840000D02*
X145725000Y-71850000D01*
X145965000Y-70600000D02*
X146225000Y-70860000D01*
X145965000Y-66440000D02*
X145965000Y-70600000D01*
X143782515Y-64257515D02*
X145965000Y-66440000D01*
X143782515Y-64025282D02*
X143782515Y-64257515D01*
X146225000Y-70860000D02*
X146225000Y-71850000D01*
X145965000Y-70600000D02*
X145725000Y-70840000D01*
X143464689Y-63707456D02*
X143782515Y-64025282D01*
%TO.N,Board_1-/reed9*%
X143878903Y-63353903D02*
X146965000Y-66440000D01*
X143818243Y-63353903D02*
X143878903Y-63353903D01*
X146725000Y-70840000D02*
X146725000Y-71850000D01*
X146965000Y-66440000D02*
X146965000Y-70600000D01*
X146965000Y-70600000D02*
X146725000Y-70840000D01*
X147225000Y-70860000D02*
X147225000Y-71850000D01*
X146965000Y-70600000D02*
X147225000Y-70860000D01*
%TO.N,Board_1-GND*%
X148025000Y-46200000D02*
X148125000Y-46300000D01*
D43*
X146625000Y-47800000D02*
X147375000Y-47050000D01*
D42*
X148225000Y-47162500D02*
X147487500Y-47162500D01*
D41*
X145725000Y-39825000D02*
X147425000Y-39825000D01*
D40*
X155064689Y-58492544D02*
X155625000Y-57932233D01*
D41*
X145725000Y-39825000D02*
X144437080Y-39825000D01*
D40*
X148225000Y-47162500D02*
X148225000Y-46400000D01*
X153975000Y-55550000D02*
X153275000Y-55550000D01*
D42*
X143800000Y-44575000D02*
X143800000Y-43875000D01*
D40*
X140385660Y-57800000D02*
X139025000Y-57800000D01*
D44*
X154500000Y-42024998D02*
X154475002Y-42000000D01*
D41*
X145917767Y-62625000D02*
X146849984Y-62625000D01*
D42*
X143800000Y-43875000D02*
X143775000Y-43850000D01*
X153225000Y-49349996D02*
X153225004Y-49350000D01*
D43*
X146625000Y-49025000D02*
X146625000Y-47800000D01*
D40*
X147262500Y-46200000D02*
X148025000Y-46200000D01*
D41*
X151971097Y-62293243D02*
X151556346Y-62707994D01*
D42*
X143650000Y-42900000D02*
X143775000Y-43025000D01*
X153225000Y-48350000D02*
X153225000Y-49349996D01*
D43*
X147262500Y-46200000D02*
X147262500Y-46937500D01*
D41*
X147199984Y-62275000D02*
X146849984Y-62625000D01*
D44*
X154500000Y-43300000D02*
X154500000Y-42024998D01*
D40*
X147262500Y-45700000D02*
X148725000Y-45700000D01*
D43*
X147375000Y-47050000D02*
X148125000Y-46300000D01*
D41*
X151556346Y-62707994D02*
X149784034Y-62707994D01*
D40*
X155625000Y-57932233D02*
X155625000Y-57200000D01*
X150600000Y-52900000D02*
X150625000Y-52900000D01*
X144075004Y-34649996D02*
X143975000Y-34649996D01*
D42*
X143775000Y-43025000D02*
X143775000Y-43850000D01*
D40*
X143800000Y-44700000D02*
X143800000Y-44575000D01*
X147262500Y-46937500D02*
X147375000Y-47050000D01*
D41*
X149784034Y-62707994D02*
X149351040Y-62275000D01*
D42*
X147262500Y-45700000D02*
X147262500Y-46200000D01*
D40*
X141431757Y-58846097D02*
X140385660Y-57800000D01*
X145175000Y-33550000D02*
X144075004Y-34649996D01*
X150625000Y-52900000D02*
X153275000Y-55550000D01*
X147487500Y-47162500D02*
X147375000Y-47050000D01*
D41*
X144437080Y-39825000D02*
X144293540Y-39968540D01*
D40*
X145175000Y-32700000D02*
X145175000Y-33550000D01*
D41*
X149351040Y-62275000D02*
X147199984Y-62275000D01*
D40*
X155625000Y-57200000D02*
X153975000Y-55550000D01*
D41*
X145232456Y-61939689D02*
X145917767Y-62625000D01*
D40*
X148225000Y-46400000D02*
X148125000Y-46300000D01*
X148725000Y-45700000D02*
X149225000Y-45200000D01*
D43*
%TO.N,Board_1-Net-(L1-Pad1)*%
X149025000Y-47200000D02*
X148987500Y-47162500D01*
X149725000Y-48800000D02*
X149025000Y-48100000D01*
X149025000Y-48100000D02*
X149025000Y-47200000D01*
D40*
%TO.N,Board_1-Net-(U1-DIN)*%
X147725000Y-61850000D02*
X146488864Y-60613864D01*
X146488864Y-60613864D02*
X145586010Y-60613864D01*
X149175000Y-61850000D02*
X147725000Y-61850000D01*
X151263990Y-60613864D02*
X150411136Y-60613864D01*
X150411136Y-60613864D02*
X149175000Y-61850000D01*
%TO.N,Board_1-Net-(U3-FB)*%
X146163478Y-44700000D02*
X146663478Y-45200000D01*
X145450000Y-44700000D02*
X146163478Y-44700000D01*
X145450000Y-44700000D02*
X145450000Y-46300000D01*
X146663478Y-45200000D02*
X147262500Y-45200000D01*
%TO.N,Board_1-Net-(U3-IN+)*%
X149725000Y-43237500D02*
X149725000Y-42650000D01*
X152450000Y-39925000D02*
X152925000Y-39925000D01*
X149725000Y-42650000D02*
X152450000Y-39925000D01*
%TO.N,Board_1-Net-(U3-IN-)*%
X150912500Y-43237500D02*
X154225000Y-39925000D01*
X150225000Y-43237500D02*
X150912500Y-43237500D01*
X154225000Y-39925000D02*
X154525000Y-39925000D01*
D42*
%TO.N,Board_1-Net-(U3-REG)*%
X147425000Y-41625000D02*
X148225000Y-42425000D01*
X148225000Y-42425000D02*
X148225000Y-43237500D01*
D40*
%TO.N,Board_1-Net-(U3-REXT)*%
X151950000Y-44200000D02*
X152850000Y-43300000D01*
X151187500Y-44200000D02*
X151950000Y-44200000D01*
D41*
%TO.N,Board_1-Net-(U3-VPUMP)*%
X145725000Y-41375000D02*
X147262500Y-42912500D01*
X147262500Y-42912500D02*
X147262500Y-44200000D01*
D40*
%TO.N,Board_2-/IN+*%
X180825000Y-32134315D02*
X181832866Y-31126449D01*
X184575000Y-38375000D02*
X184575000Y-32599998D01*
X181832866Y-31126449D02*
X183101451Y-31126449D01*
X183101451Y-31126449D02*
X184574999Y-32599997D01*
X184575000Y-32599998D02*
X184574999Y-32599997D01*
X180825000Y-32700000D02*
X180825000Y-32134315D01*
%TO.N,Board_2-/IN-*%
X180325000Y-32068629D02*
X183293629Y-29100000D01*
X186175000Y-32100000D02*
X186175000Y-38375000D01*
X186212500Y-32062500D02*
X188175000Y-32062500D01*
X180325000Y-32700000D02*
X180325000Y-32068629D01*
X183293629Y-29100000D02*
X184075000Y-29100000D01*
X186175000Y-31200000D02*
X186175000Y-32100000D01*
X186175000Y-32100000D02*
X186212500Y-32062500D01*
X184075000Y-29100000D02*
X186175000Y-31200000D01*
%TO.N,Board_2-/MISO*%
X177886700Y-31200000D02*
X170475000Y-31200000D01*
X170475000Y-31200000D02*
X167375000Y-34300000D01*
X178825000Y-32700000D02*
X178825000Y-34000000D01*
X171950007Y-40874993D02*
X171950007Y-50359321D01*
X178825000Y-34000000D02*
X171950007Y-40874993D01*
X176975000Y-55384314D02*
X176975000Y-55925126D01*
X178825000Y-32138300D02*
X177886700Y-31200000D01*
X178825000Y-32700000D02*
X178825000Y-32138300D01*
X176975000Y-55925126D02*
X174761136Y-58138990D01*
X171950007Y-50359321D02*
X176975000Y-55384314D01*
%TO.N,Board_2-/MOSI*%
X185388864Y-58138990D02*
X181949874Y-54700000D01*
X179325000Y-32700000D02*
X179325000Y-32072615D01*
X172350007Y-41074993D02*
X172350007Y-46475007D01*
X181949874Y-54700000D02*
X181475000Y-54700000D01*
X180024329Y-54149329D02*
X180024329Y-54632693D01*
X176652385Y-29400000D02*
X170025000Y-29400000D01*
X170025000Y-29400000D02*
X167425000Y-32000000D01*
X179325000Y-32072615D02*
X176652385Y-29400000D01*
X179325000Y-34100000D02*
X172350007Y-41074993D01*
X172350007Y-46475007D02*
X180024329Y-54149329D01*
X167425000Y-32000000D02*
X167375000Y-32000000D01*
X179325000Y-32700000D02*
X179325000Y-34100000D01*
%TO.N,Board_2-/OUT-*%
X188525000Y-44700000D02*
X188875000Y-45050000D01*
X182837500Y-44700000D02*
X188525000Y-44700000D01*
%TO.N,Board_2-/POL*%
X170725000Y-40400000D02*
X170725000Y-52400000D01*
D41*
X181737128Y-57302724D02*
X180175000Y-57302724D01*
D40*
X170725000Y-52400000D02*
X172574996Y-54249996D01*
D41*
X183974651Y-59540247D02*
X181737128Y-57302724D01*
D40*
X172574996Y-54249996D02*
X173875000Y-54249996D01*
X177325000Y-32700000D02*
X177325000Y-33800000D01*
X167375000Y-41200000D02*
X170725000Y-41200000D01*
D41*
X183974651Y-59553204D02*
X183974651Y-59540247D01*
D40*
X177325000Y-33800000D02*
X170725000Y-40400000D01*
X175821796Y-59199651D02*
X178725000Y-56296447D01*
X178725000Y-56296447D02*
X178725000Y-56050000D01*
D41*
%TO.N,Board_2-/PZT_Common*%
X172728204Y-59199651D02*
X172384898Y-58856345D01*
X167115000Y-78240480D02*
X167115000Y-66492232D01*
X169925000Y-63682232D02*
X169925000Y-60828496D01*
X193115000Y-66560000D02*
X193115000Y-66540000D01*
X171897151Y-58856345D02*
X170103496Y-60650000D01*
X190625000Y-64050000D02*
X190375000Y-63800000D01*
X193115000Y-66540000D02*
X190625000Y-64050000D01*
X193115000Y-78290480D02*
X193115000Y-66560000D01*
X172384898Y-58856345D02*
X171897151Y-58856345D01*
X169925000Y-60828496D02*
X170103496Y-60650000D01*
X167115000Y-66492232D02*
X169925000Y-63682232D01*
X182971447Y-63650000D02*
X182525000Y-63650000D01*
X183974651Y-62646796D02*
X182971447Y-63650000D01*
X193115000Y-66560000D02*
X193125000Y-66550000D01*
D40*
%TO.N,Board_2-/SCL*%
X180875000Y-40025000D02*
X182475000Y-38425000D01*
X180875000Y-43237500D02*
X180875000Y-40025000D01*
X181928984Y-31600000D02*
X182790685Y-31600000D01*
X182790685Y-31600000D02*
X183683393Y-32492708D01*
X181325000Y-32203984D02*
X181928984Y-31600000D01*
X183683393Y-37216607D02*
X183683393Y-34500000D01*
X183683393Y-32492708D02*
X183683393Y-34500000D01*
X182475000Y-38425000D02*
X183683393Y-37216607D01*
X181325000Y-32700000D02*
X181325000Y-32203984D01*
%TO.N,Board_2-/SCLK*%
X183541422Y-57705762D02*
X183541422Y-57633578D01*
X177721016Y-31600000D02*
X172375000Y-31600000D01*
X171550000Y-40709314D02*
X171550000Y-50890724D01*
X178325000Y-32700000D02*
X178325000Y-32203985D01*
X177798008Y-31676992D02*
X177721016Y-31600000D01*
X184681757Y-58846097D02*
X183541422Y-57705762D01*
X171550000Y-50890724D02*
X176355436Y-55696160D01*
X178325000Y-32700000D02*
X178325000Y-33934314D01*
D41*
X176528903Y-59906757D02*
X178531157Y-57904503D01*
D40*
X178325000Y-33934314D02*
X171550000Y-40709314D01*
X178325000Y-32203985D02*
X177798008Y-31676992D01*
D41*
X178531157Y-57904503D02*
X178691954Y-57904503D01*
D40*
X177798008Y-31676992D02*
X177721015Y-31600000D01*
X172375000Y-31600000D02*
X167375000Y-36600000D01*
%TO.N,Board_2-/SDA*%
X182555330Y-32000000D02*
X183083347Y-32528017D01*
X179575000Y-36292893D02*
X180217893Y-35650000D01*
X183083347Y-32528017D02*
X183083347Y-35650000D01*
D41*
X180375000Y-43237500D02*
X180375000Y-38925000D01*
D40*
X181825000Y-32700000D02*
X181825000Y-32269670D01*
X180875000Y-38425000D02*
X179575000Y-37125000D01*
D41*
X180375000Y-38925000D02*
X180875000Y-38425000D01*
D40*
X181825000Y-32269670D02*
X182094670Y-32000000D01*
X182094670Y-32000000D02*
X182555330Y-32000000D01*
X179575000Y-37125000D02*
X179575000Y-36292893D01*
X180217893Y-35650000D02*
X183083347Y-35650000D01*
%TO.N,Board_2-/SS*%
X171150000Y-51976470D02*
X172450878Y-53277348D01*
X171150000Y-40543628D02*
X171150000Y-51976470D01*
X177825000Y-32700000D02*
X177825000Y-33868628D01*
X177825000Y-33868628D02*
X171150000Y-40543628D01*
X181642064Y-57927724D02*
X181250520Y-57927724D01*
X177987563Y-55887437D02*
X178975000Y-54900000D01*
X177555330Y-32000000D02*
X174275000Y-32000000D01*
X177987563Y-56326777D02*
X177987563Y-55887437D01*
X183621097Y-59906757D02*
X181642064Y-57927724D01*
X175468243Y-58846097D02*
X177987563Y-56326777D01*
X177825000Y-32269670D02*
X177555330Y-32000000D01*
X174275000Y-32000000D02*
X167395000Y-38880000D01*
X177825000Y-32700000D02*
X177825000Y-32269670D01*
%TO.N,Board_2-/VBST*%
X187275000Y-47600000D02*
X186125000Y-46450000D01*
D42*
X175450000Y-46425002D02*
X176225000Y-47200002D01*
X183587500Y-46450000D02*
X182837500Y-45700000D01*
X182311522Y-47162500D02*
X181875000Y-47162500D01*
D40*
X184425000Y-46450000D02*
X183675000Y-47200000D01*
X185375000Y-50900000D02*
X187275000Y-49000000D01*
X187275000Y-49000000D02*
X187275000Y-47600000D01*
D42*
X182837500Y-46636522D02*
X182574511Y-46899511D01*
X182837500Y-46200000D02*
X182837500Y-46636522D01*
X184875000Y-46450000D02*
X183587500Y-46450000D01*
D40*
X184925000Y-50900000D02*
X185375000Y-50900000D01*
X186125000Y-46450000D02*
X184425000Y-46450000D01*
D42*
X182837500Y-45700000D02*
X182837500Y-46200000D01*
X175450000Y-46300000D02*
X175450000Y-46425002D01*
X182574511Y-46899511D02*
X182311522Y-47162500D01*
D41*
%TO.N,Board_2-/VDD*%
X179620652Y-56075000D02*
X180296015Y-56075000D01*
D40*
X179825000Y-34200000D02*
X172775000Y-41250000D01*
X180775000Y-34150004D02*
X180775000Y-34149992D01*
X172775000Y-46292462D02*
X180725000Y-54242462D01*
D41*
X176175349Y-59553204D02*
X176175349Y-59520303D01*
D40*
X184328204Y-59199651D02*
X184258965Y-59199651D01*
X172775000Y-41250000D02*
X172775000Y-46292462D01*
X176818071Y-29000000D02*
X168125000Y-29000000D01*
X179825000Y-32006929D02*
X176818071Y-29000000D01*
X168125000Y-29000000D02*
X167375000Y-29750000D01*
X184258965Y-59199651D02*
X180725000Y-55665686D01*
D41*
X181675000Y-36850002D02*
X182399998Y-36850002D01*
X176175349Y-59520303D02*
X179620652Y-56075000D01*
X180175000Y-60700000D02*
X180175000Y-58350000D01*
D40*
X180700000Y-52900000D02*
X180725000Y-52925000D01*
X180725000Y-54242462D02*
X180725000Y-55646015D01*
X180775000Y-34149992D02*
X180724992Y-34200000D01*
D41*
X180175000Y-58350000D02*
X178776776Y-56951776D01*
X180296015Y-56075000D02*
X180725000Y-55646015D01*
X180950002Y-36850002D02*
X180875000Y-36775000D01*
D40*
X180724992Y-34200000D02*
X179825000Y-34200000D01*
X180774996Y-34150000D02*
X180775000Y-34150004D01*
X180725000Y-55665686D02*
X180725000Y-55646015D01*
D41*
X181675000Y-36850002D02*
X180950002Y-36850002D01*
D40*
X179825000Y-32700000D02*
X179825000Y-32006929D01*
D41*
X182399998Y-36850002D02*
X182475000Y-36775000D01*
D40*
X180725000Y-52925000D02*
X180725000Y-54242462D01*
X179825000Y-32700000D02*
X179825000Y-34200000D01*
D43*
%TO.N,Board_2-/VIN*%
X179275000Y-51000000D02*
X181275000Y-51000000D01*
X179802126Y-35050000D02*
X181085661Y-35050000D01*
D40*
X182625000Y-50900000D02*
X181375000Y-50900000D01*
X183267544Y-61939689D02*
X183161477Y-61939689D01*
D43*
X173375000Y-46072182D02*
X173375000Y-41700000D01*
D41*
X178452672Y-44700000D02*
X178912500Y-44700000D01*
D40*
X184941668Y-53200000D02*
X184925000Y-53200000D01*
D41*
X177050000Y-42900000D02*
X174612500Y-40462500D01*
X176475000Y-49100000D02*
X176061091Y-48686091D01*
D43*
X175988909Y-48686091D02*
X173375000Y-46072182D01*
X182475000Y-33660661D02*
X182475000Y-32700000D01*
D40*
X184925000Y-53200000D02*
X182625000Y-50900000D01*
X181925000Y-61675484D02*
X182507510Y-62257994D01*
D43*
X178850000Y-50575000D02*
X179275000Y-51000000D01*
X178275000Y-50575000D02*
X177877818Y-50575000D01*
X181275000Y-51000000D02*
X181375000Y-50900000D01*
X173375000Y-41477126D02*
X179802126Y-35050000D01*
D41*
X173435311Y-58492544D02*
X172175000Y-57232233D01*
X172175000Y-57232233D02*
X172175000Y-57200000D01*
X170125000Y-49113932D02*
X170125004Y-49113928D01*
X172175000Y-57200000D02*
X170125000Y-55150000D01*
X176061091Y-48686091D02*
X175988909Y-48686091D01*
D43*
X177877818Y-50575000D02*
X175988909Y-48686091D01*
D40*
X183161477Y-61939689D02*
X182843172Y-62257994D01*
D43*
X181085661Y-35050000D02*
X182475000Y-33660661D01*
D41*
X177050000Y-43297328D02*
X178452672Y-44700000D01*
D43*
X178275000Y-50575000D02*
X178850000Y-50575000D01*
D40*
X182843172Y-62257994D02*
X182507510Y-62257994D01*
D43*
X173375000Y-41700000D02*
X173375000Y-41477126D01*
D41*
X170125000Y-55150000D02*
X170125000Y-49113932D01*
X177050000Y-42900000D02*
X177050000Y-43297328D01*
D42*
%TO.N,Board_2-/VPP*%
X183275000Y-45200000D02*
X183277151Y-45202151D01*
D41*
X175335660Y-61100000D02*
X176528903Y-62293243D01*
D40*
X188875000Y-47400002D02*
X188875000Y-51800000D01*
D41*
X177735660Y-63500000D02*
X180175000Y-63500000D01*
X181475000Y-63500000D02*
X181525000Y-63450000D01*
X176528903Y-62293243D02*
X177735660Y-63500000D01*
D42*
X188875000Y-57039340D02*
X187994670Y-57919670D01*
X183277151Y-45202151D02*
X186677151Y-45202151D01*
X188875000Y-47400000D02*
X188875000Y-51800000D01*
X188875000Y-51800000D02*
X188875000Y-57039340D01*
X186677151Y-45202151D02*
X188875000Y-47400000D01*
D41*
X187068243Y-58846097D02*
X185875000Y-60039340D01*
X180175000Y-63500000D02*
X181475000Y-63500000D01*
D42*
X187994670Y-57919670D02*
X187068243Y-58846097D01*
D40*
%TO.N,Board_2-/reed1*%
X170615000Y-70600000D02*
X170375000Y-70840000D01*
X170375000Y-70840000D02*
X170375000Y-71850000D01*
X172021097Y-62353903D02*
X170615000Y-63760000D01*
X172021097Y-62293243D02*
X172021097Y-62353903D01*
X170615000Y-63760000D02*
X170615000Y-70600000D01*
X170875000Y-70860000D02*
X170875000Y-71850000D01*
X170615000Y-70600000D02*
X170875000Y-70860000D01*
%TO.N,Board_2-/reed10*%
X176139622Y-63318175D02*
X176493175Y-63318175D01*
X179615000Y-70600000D02*
X179375000Y-70840000D01*
X176493175Y-63318175D02*
X179615000Y-66440000D01*
X179615000Y-66440000D02*
X179615000Y-70600000D01*
X179875000Y-70860000D02*
X179875000Y-71850000D01*
X175821796Y-63000349D02*
X176139622Y-63318175D01*
X179375000Y-70840000D02*
X179375000Y-71850000D01*
X179615000Y-70600000D02*
X179875000Y-70860000D01*
%TO.N,Board_2-/reed11*%
X180615000Y-70600000D02*
X180615000Y-66460000D01*
X180615000Y-66460000D02*
X182575000Y-64500000D01*
X182575000Y-64500000D02*
X182828553Y-64500000D01*
X180615000Y-70600000D02*
X180875000Y-70860000D01*
X180875000Y-70860000D02*
X180875000Y-71850000D01*
X182828553Y-64500000D02*
X184328204Y-63000349D01*
X180375000Y-70840000D02*
X180375000Y-71850000D01*
X180615000Y-70600000D02*
X180375000Y-70840000D01*
%TO.N,Board_2-/reed12*%
X184681757Y-63353903D02*
X184681757Y-63393243D01*
X181875000Y-70860000D02*
X181875000Y-71850000D01*
X184681757Y-63393243D02*
X181615000Y-66460000D01*
X181615000Y-70600000D02*
X181875000Y-70860000D01*
X181615000Y-70600000D02*
X181375000Y-70840000D01*
X181375000Y-70840000D02*
X181375000Y-71850000D01*
X181615000Y-66460000D02*
X181615000Y-70600000D01*
%TO.N,Board_2-/reed13*%
X185035311Y-63707456D02*
X184717485Y-64025282D01*
X182375000Y-70840000D02*
X182375000Y-71850000D01*
X182615000Y-70600000D02*
X182375000Y-70840000D01*
X184717485Y-64357515D02*
X182615000Y-66460000D01*
X182615000Y-66460000D02*
X182615000Y-70600000D01*
X182615000Y-70600000D02*
X182875000Y-70860000D01*
X182875000Y-70860000D02*
X182875000Y-71850000D01*
X184717485Y-64025282D02*
X184717485Y-64357515D01*
%TO.N,Board_2-/reed14*%
X183615000Y-70600000D02*
X183375000Y-70840000D01*
X185388864Y-64061010D02*
X185388864Y-64686136D01*
X183615000Y-66460000D02*
X183615000Y-70600000D01*
X183615000Y-70600000D02*
X183875000Y-70860000D01*
X185388864Y-64686136D02*
X183615000Y-66460000D01*
X183375000Y-70840000D02*
X183375000Y-71850000D01*
X183875000Y-70860000D02*
X183875000Y-71850000D01*
%TO.N,Board_2-/reed15*%
X186361136Y-64713864D02*
X184615000Y-66460000D01*
X184875000Y-70860000D02*
X184875000Y-71850000D01*
X184615000Y-70600000D02*
X184875000Y-70860000D01*
X184615000Y-70600000D02*
X184375000Y-70840000D01*
X184615000Y-66460000D02*
X184615000Y-70600000D01*
X184375000Y-70840000D02*
X184375000Y-71850000D01*
X186361136Y-64061010D02*
X186361136Y-64713864D01*
%TO.N,Board_2-/reed16*%
X185615000Y-70600000D02*
X185375000Y-70840000D01*
X187175000Y-64900000D02*
X185615000Y-66460000D01*
X186714689Y-63707456D02*
X187175000Y-64167767D01*
X185615000Y-66460000D02*
X185615000Y-70600000D01*
X185615000Y-70600000D02*
X185875000Y-70860000D01*
X185875000Y-70860000D02*
X185875000Y-71850000D01*
X187175000Y-64167767D02*
X187175000Y-64900000D01*
X185375000Y-70840000D02*
X185375000Y-71850000D01*
%TO.N,Board_2-/reed17*%
X187068243Y-63353903D02*
X187675000Y-63960660D01*
X186615000Y-70600000D02*
X186375000Y-70840000D01*
X186615000Y-70600000D02*
X186875000Y-70860000D01*
X186375000Y-70840000D02*
X186375000Y-71850000D01*
X187675000Y-63960660D02*
X187675000Y-65400000D01*
X186875000Y-70860000D02*
X186875000Y-71850000D01*
X186615000Y-66460000D02*
X186615000Y-70600000D01*
X187675000Y-65400000D02*
X186615000Y-66460000D01*
%TO.N,Board_2-/reed18*%
X187375000Y-70840000D02*
X187375000Y-71850000D01*
X188175000Y-65900000D02*
X188175000Y-63753553D01*
X187615000Y-70600000D02*
X187875000Y-70860000D01*
X187615000Y-66460000D02*
X188175000Y-65900000D01*
X187615000Y-70600000D02*
X187375000Y-70840000D01*
X187875000Y-70860000D02*
X187875000Y-71850000D01*
X187615000Y-70600000D02*
X187615000Y-66460000D01*
X188175000Y-63753553D02*
X187421796Y-63000349D01*
%TO.N,Board_2-/reed19*%
X188375000Y-70840000D02*
X188375000Y-71850000D01*
X187775349Y-62646796D02*
X188615000Y-63486447D01*
X188615000Y-70600000D02*
X188875000Y-70860000D01*
X188875000Y-70860000D02*
X188875000Y-71850000D01*
X188615000Y-63486447D02*
X188615000Y-70600000D01*
X188615000Y-70600000D02*
X188375000Y-70840000D01*
%TO.N,Board_2-/reed2*%
X171615000Y-63406447D02*
X171615000Y-70600000D01*
X171615000Y-70600000D02*
X171375000Y-70840000D01*
X171875000Y-70860000D02*
X171875000Y-71850000D01*
X171375000Y-70840000D02*
X171375000Y-71850000D01*
X171615000Y-70600000D02*
X171875000Y-70860000D01*
X172374651Y-62646796D02*
X171615000Y-63406447D01*
%TO.N,Board_2-/reed20*%
X189615000Y-70600000D02*
X189375000Y-70840000D01*
X189625000Y-70590000D02*
X189615000Y-70600000D01*
X189615000Y-70600000D02*
X189875000Y-70860000D01*
X189625000Y-63789340D02*
X189625000Y-70590000D01*
X188128903Y-62293243D02*
X189625000Y-63789340D01*
X189375000Y-70840000D02*
X189375000Y-71850000D01*
X189875000Y-70860000D02*
X189875000Y-71850000D01*
%TO.N,Board_2-/reed3*%
X172615000Y-70600000D02*
X172375000Y-70840000D01*
X172175000Y-66000000D02*
X172615000Y-66440000D01*
X172375000Y-70840000D02*
X172375000Y-71850000D01*
X172615000Y-66440000D02*
X172615000Y-70600000D01*
X172615000Y-70600000D02*
X172875000Y-70860000D01*
X172728204Y-63000349D02*
X172175000Y-63553553D01*
X172875000Y-70860000D02*
X172875000Y-71850000D01*
X172175000Y-63553553D02*
X172175000Y-66000000D01*
%TO.N,Board_2-/reed4*%
X173615000Y-66440000D02*
X173615000Y-70600000D01*
X173615000Y-70600000D02*
X173375000Y-70840000D01*
X173875000Y-70860000D02*
X173875000Y-71850000D01*
X173615000Y-70600000D02*
X173875000Y-70860000D01*
X173081757Y-63353903D02*
X172717975Y-63717685D01*
X172717975Y-65542975D02*
X173615000Y-66440000D01*
X172717975Y-63717685D02*
X172717975Y-65542975D01*
X173375000Y-70840000D02*
X173375000Y-71850000D01*
%TO.N,Board_2-/reed5*%
X173117485Y-64025282D02*
X173117485Y-64942485D01*
X174615000Y-66440000D02*
X174615000Y-70600000D01*
X173117485Y-64942485D02*
X174615000Y-66440000D01*
X174615000Y-70600000D02*
X174375000Y-70840000D01*
X174875000Y-70860000D02*
X174875000Y-71850000D01*
X174615000Y-70600000D02*
X174875000Y-70860000D01*
X174375000Y-70840000D02*
X174375000Y-71850000D01*
X173435311Y-63707456D02*
X173117485Y-64025282D01*
%TO.N,Board_2-/reed6*%
X175375000Y-70840000D02*
X175375000Y-71850000D01*
X173788864Y-64061010D02*
X173788864Y-64613864D01*
X175615000Y-66440000D02*
X175615000Y-70600000D01*
X175615000Y-70600000D02*
X175875000Y-70860000D01*
X175615000Y-70600000D02*
X175375000Y-70840000D01*
X175875000Y-70860000D02*
X175875000Y-71850000D01*
X173788864Y-64613864D02*
X175615000Y-66440000D01*
%TO.N,Board_2-/reed7*%
X174761136Y-64061010D02*
X174761136Y-64586136D01*
X176375000Y-70840000D02*
X176375000Y-71850000D01*
X174761136Y-64586136D02*
X176615000Y-66440000D01*
X176875000Y-70860000D02*
X176875000Y-71850000D01*
X176615000Y-70600000D02*
X176375000Y-70840000D01*
X176615000Y-70600000D02*
X176875000Y-70860000D01*
X176615000Y-66440000D02*
X176615000Y-70600000D01*
%TO.N,Board_2-/reed8*%
X175432515Y-64025282D02*
X175432515Y-64257515D01*
X175432515Y-64257515D02*
X177615000Y-66440000D01*
X177615000Y-66440000D02*
X177615000Y-70600000D01*
X177875000Y-70860000D02*
X177875000Y-71850000D01*
X177615000Y-70600000D02*
X177875000Y-70860000D01*
X177615000Y-70600000D02*
X177375000Y-70840000D01*
X177375000Y-70840000D02*
X177375000Y-71850000D01*
X175114689Y-63707456D02*
X175432515Y-64025282D01*
%TO.N,Board_2-/reed9*%
X178375000Y-70840000D02*
X178375000Y-71850000D01*
X178615000Y-66440000D02*
X178615000Y-70600000D01*
X178615000Y-70600000D02*
X178375000Y-70840000D01*
X175468243Y-63353903D02*
X175528903Y-63353903D01*
X178875000Y-70860000D02*
X178875000Y-71850000D01*
X175528903Y-63353903D02*
X178615000Y-66440000D01*
X178615000Y-70600000D02*
X178875000Y-70860000D01*
D42*
%TO.N,Board_2-GND*%
X175300000Y-42900000D02*
X175425000Y-43025000D01*
X184875000Y-48350000D02*
X184875000Y-49349996D01*
D40*
X172035660Y-57800000D02*
X170675000Y-57800000D01*
D41*
X183621097Y-62293243D02*
X183206346Y-62707994D01*
X181001040Y-62275000D02*
X178849984Y-62275000D01*
X181434034Y-62707994D02*
X181001040Y-62275000D01*
D42*
X184875000Y-49349996D02*
X184875004Y-49350000D01*
D40*
X173081757Y-58846097D02*
X172035660Y-57800000D01*
D43*
X178275000Y-49025000D02*
X178275000Y-47800000D01*
D42*
X178912500Y-45700000D02*
X178912500Y-46200000D01*
D44*
X186150000Y-43300000D02*
X186150000Y-42024998D01*
D40*
X175725004Y-34649996D02*
X175625000Y-34649996D01*
D43*
X179025000Y-47050000D02*
X179775000Y-46300000D01*
D40*
X182275000Y-52900000D02*
X184925000Y-55550000D01*
X186714689Y-58492544D02*
X187275000Y-57932233D01*
X179137500Y-47162500D02*
X179025000Y-47050000D01*
D42*
X175450000Y-44575000D02*
X175450000Y-43875000D01*
X179875000Y-47162500D02*
X179137500Y-47162500D01*
D40*
X185625000Y-55550000D02*
X184925000Y-55550000D01*
X182250000Y-52900000D02*
X182275000Y-52900000D01*
D42*
X175450000Y-43875000D02*
X175425000Y-43850000D01*
D41*
X177567767Y-62625000D02*
X178499984Y-62625000D01*
D40*
X179675000Y-46200000D02*
X179775000Y-46300000D01*
D41*
X176087080Y-39825000D02*
X175943540Y-39968540D01*
X177375000Y-39825000D02*
X179075000Y-39825000D01*
D40*
X187275000Y-57200000D02*
X185625000Y-55550000D01*
X178912500Y-45700000D02*
X180375000Y-45700000D01*
X178912500Y-46937500D02*
X179025000Y-47050000D01*
D41*
X183206346Y-62707994D02*
X181434034Y-62707994D01*
X178849984Y-62275000D02*
X178499984Y-62625000D01*
D40*
X175450000Y-44700000D02*
X175450000Y-44575000D01*
X176825000Y-33550000D02*
X175725004Y-34649996D01*
D43*
X178912500Y-46200000D02*
X178912500Y-46937500D01*
D44*
X186150000Y-42024998D02*
X186125002Y-42000000D01*
D40*
X178912500Y-46200000D02*
X179675000Y-46200000D01*
D41*
X177375000Y-39825000D02*
X176087080Y-39825000D01*
D40*
X179875000Y-47162500D02*
X179875000Y-46400000D01*
D41*
X176882456Y-61939689D02*
X177567767Y-62625000D01*
D40*
X180375000Y-45700000D02*
X180875000Y-45200000D01*
X179875000Y-46400000D02*
X179775000Y-46300000D01*
D42*
X175425000Y-43025000D02*
X175425000Y-43850000D01*
D40*
X187275000Y-57932233D02*
X187275000Y-57200000D01*
D43*
X178275000Y-47800000D02*
X179025000Y-47050000D01*
D40*
X176825000Y-32700000D02*
X176825000Y-33550000D01*
D43*
%TO.N,Board_2-Net-(L1-Pad1)*%
X180675000Y-47200000D02*
X180637500Y-47162500D01*
X181375000Y-48800000D02*
X180675000Y-48100000D01*
X180675000Y-48100000D02*
X180675000Y-47200000D01*
D40*
%TO.N,Board_2-Net-(U1-DIN)*%
X179375000Y-61850000D02*
X178138864Y-60613864D01*
X180825000Y-61850000D02*
X179375000Y-61850000D01*
X178138864Y-60613864D02*
X177236010Y-60613864D01*
X182913990Y-60613864D02*
X182061136Y-60613864D01*
X182061136Y-60613864D02*
X180825000Y-61850000D01*
%TO.N,Board_2-Net-(U3-FB)*%
X177813478Y-44700000D02*
X178313478Y-45200000D01*
X178313478Y-45200000D02*
X178912500Y-45200000D01*
X177100000Y-44700000D02*
X177813478Y-44700000D01*
X177100000Y-44700000D02*
X177100000Y-46300000D01*
%TO.N,Board_2-Net-(U3-IN+)*%
X181375000Y-43237500D02*
X181375000Y-42650000D01*
X184100000Y-39925000D02*
X184575000Y-39925000D01*
X181375000Y-42650000D02*
X184100000Y-39925000D01*
%TO.N,Board_2-Net-(U3-IN-)*%
X182562500Y-43237500D02*
X185875000Y-39925000D01*
X185875000Y-39925000D02*
X186175000Y-39925000D01*
X181875000Y-43237500D02*
X182562500Y-43237500D01*
D42*
%TO.N,Board_2-Net-(U3-REG)*%
X179875000Y-42425000D02*
X179875000Y-43237500D01*
X179075000Y-41625000D02*
X179875000Y-42425000D01*
D40*
%TO.N,Board_2-Net-(U3-REXT)*%
X183600000Y-44200000D02*
X184500000Y-43300000D01*
X182837500Y-44200000D02*
X183600000Y-44200000D01*
D41*
%TO.N,Board_2-Net-(U3-VPUMP)*%
X177375000Y-41375000D02*
X178912500Y-42912500D01*
X178912500Y-42912500D02*
X178912500Y-44200000D01*
%TD*%
%TA.AperFunction,Conductor*%
%TO.N,Board_0-/fill*%
G36*
X127117121Y-86820002D02*
G01*
X127163614Y-86873658D01*
X127175000Y-86926000D01*
X127175000Y-114974000D01*
X127154998Y-115042121D01*
X127101342Y-115088614D01*
X127049000Y-115100000D01*
X106601000Y-115100000D01*
X106532879Y-115079998D01*
X106486386Y-115026342D01*
X106475000Y-114974000D01*
X106475000Y-86926000D01*
X106495002Y-86857879D01*
X106548658Y-86811386D01*
X106601000Y-86800000D01*
X127049000Y-86800000D01*
X127117121Y-86820002D01*
G37*
%TD.AperFunction*%
%TD*%
%TA.AperFunction,Conductor*%
%TO.N,Board_1-/fill*%
G36*
X158767121Y-86820002D02*
G01*
X158813614Y-86873658D01*
X158825000Y-86926000D01*
X158825000Y-114974000D01*
X158804998Y-115042121D01*
X158751342Y-115088614D01*
X158699000Y-115100000D01*
X138251000Y-115100000D01*
X138182879Y-115079998D01*
X138136386Y-115026342D01*
X138125000Y-114974000D01*
X138125000Y-86926000D01*
X138145002Y-86857879D01*
X138198658Y-86811386D01*
X138251000Y-86800000D01*
X158699000Y-86800000D01*
X158767121Y-86820002D01*
G37*
%TD.AperFunction*%
%TD*%
%TA.AperFunction,Conductor*%
%TO.N,Board_2-/fill*%
G36*
X190417121Y-86820002D02*
G01*
X190463614Y-86873658D01*
X190475000Y-86926000D01*
X190475000Y-114974000D01*
X190454998Y-115042121D01*
X190401342Y-115088614D01*
X190349000Y-115100000D01*
X169901000Y-115100000D01*
X169832879Y-115079998D01*
X169786386Y-115026342D01*
X169775000Y-114974000D01*
X169775000Y-86926000D01*
X169795002Y-86857879D01*
X169848658Y-86811386D01*
X169901000Y-86800000D01*
X190349000Y-86800000D01*
X190417121Y-86820002D01*
G37*
%TD.AperFunction*%
%TD*%
M02*
