%TF.GenerationSoftware,KiCad,Pcbnew,7.0.5*%
%TF.CreationDate,2023-07-03T18:09:17+02:00*%
%TF.ProjectId,actuator_panel,61637475-6174-46f7-925f-70616e656c2e,rev?*%
%TF.SameCoordinates,Original*%
%TF.FileFunction,Other,Comment*%
%FSLAX46Y46*%
G04 Gerber Fmt 4.6, Leading zero omitted, Abs format (unit mm)*
G04 Created by KiCad (PCBNEW 7.0.5) date 2023-07-03 18:09:17*
%MOMM*%
%LPD*%
G01*
G04 APERTURE LIST*
%ADD10C,0.400000*%
%ADD11C,0.300000*%
G04 APERTURE END LIST*
D10*
X202328633Y-81854438D02*
X202995299Y-83854438D01*
X202995299Y-83854438D02*
X203661966Y-81854438D01*
X204328633Y-83092533D02*
X205852443Y-83092533D01*
X207947680Y-83663961D02*
X207852442Y-83759200D01*
X207852442Y-83759200D02*
X207566728Y-83854438D01*
X207566728Y-83854438D02*
X207376252Y-83854438D01*
X207376252Y-83854438D02*
X207090537Y-83759200D01*
X207090537Y-83759200D02*
X206900061Y-83568723D01*
X206900061Y-83568723D02*
X206804823Y-83378247D01*
X206804823Y-83378247D02*
X206709585Y-82997295D01*
X206709585Y-82997295D02*
X206709585Y-82711580D01*
X206709585Y-82711580D02*
X206804823Y-82330628D01*
X206804823Y-82330628D02*
X206900061Y-82140152D01*
X206900061Y-82140152D02*
X207090537Y-81949676D01*
X207090537Y-81949676D02*
X207376252Y-81854438D01*
X207376252Y-81854438D02*
X207566728Y-81854438D01*
X207566728Y-81854438D02*
X207852442Y-81949676D01*
X207852442Y-81949676D02*
X207947680Y-82044914D01*
X208804823Y-81854438D02*
X208804823Y-83473485D01*
X208804823Y-83473485D02*
X208900061Y-83663961D01*
X208900061Y-83663961D02*
X208995299Y-83759200D01*
X208995299Y-83759200D02*
X209185775Y-83854438D01*
X209185775Y-83854438D02*
X209566728Y-83854438D01*
X209566728Y-83854438D02*
X209757204Y-83759200D01*
X209757204Y-83759200D02*
X209852442Y-83663961D01*
X209852442Y-83663961D02*
X209947680Y-83473485D01*
X209947680Y-83473485D02*
X209947680Y-81854438D01*
X210614347Y-81854438D02*
X211757204Y-81854438D01*
X211185775Y-83854438D02*
X211185775Y-81854438D01*
X98025000Y-117700000D02*
X198975000Y-117700000D01*
D11*
X167225000Y-82950000D02*
X129675000Y-82950000D01*
D10*
X98025000Y-27500000D02*
X198975000Y-27500000D01*
D11*
X135575000Y-82950000D02*
X98025000Y-82950000D01*
X198875000Y-82950000D02*
X161325000Y-82950000D01*
D10*
X132670000Y-17000000D02*
X132670000Y-128200000D01*
X164330000Y-17000000D02*
X164330000Y-128200000D01*
X202428633Y-26404438D02*
X203095299Y-28404438D01*
X203095299Y-28404438D02*
X203761966Y-26404438D01*
X204428633Y-27642533D02*
X205952443Y-27642533D01*
X208047680Y-28213961D02*
X207952442Y-28309200D01*
X207952442Y-28309200D02*
X207666728Y-28404438D01*
X207666728Y-28404438D02*
X207476252Y-28404438D01*
X207476252Y-28404438D02*
X207190537Y-28309200D01*
X207190537Y-28309200D02*
X207000061Y-28118723D01*
X207000061Y-28118723D02*
X206904823Y-27928247D01*
X206904823Y-27928247D02*
X206809585Y-27547295D01*
X206809585Y-27547295D02*
X206809585Y-27261580D01*
X206809585Y-27261580D02*
X206904823Y-26880628D01*
X206904823Y-26880628D02*
X207000061Y-26690152D01*
X207000061Y-26690152D02*
X207190537Y-26499676D01*
X207190537Y-26499676D02*
X207476252Y-26404438D01*
X207476252Y-26404438D02*
X207666728Y-26404438D01*
X207666728Y-26404438D02*
X207952442Y-26499676D01*
X207952442Y-26499676D02*
X208047680Y-26594914D01*
X208904823Y-26404438D02*
X208904823Y-28023485D01*
X208904823Y-28023485D02*
X209000061Y-28213961D01*
X209000061Y-28213961D02*
X209095299Y-28309200D01*
X209095299Y-28309200D02*
X209285775Y-28404438D01*
X209285775Y-28404438D02*
X209666728Y-28404438D01*
X209666728Y-28404438D02*
X209857204Y-28309200D01*
X209857204Y-28309200D02*
X209952442Y-28213961D01*
X209952442Y-28213961D02*
X210047680Y-28023485D01*
X210047680Y-28023485D02*
X210047680Y-26404438D01*
X210714347Y-26404438D02*
X211857204Y-26404438D01*
X211285775Y-28404438D02*
X211285775Y-26404438D01*
X163234438Y-13546366D02*
X165234438Y-12879700D01*
X165234438Y-12879700D02*
X163234438Y-12213033D01*
X164472533Y-11546366D02*
X164472533Y-10022557D01*
X165043961Y-7927319D02*
X165139200Y-8022557D01*
X165139200Y-8022557D02*
X165234438Y-8308271D01*
X165234438Y-8308271D02*
X165234438Y-8498747D01*
X165234438Y-8498747D02*
X165139200Y-8784462D01*
X165139200Y-8784462D02*
X164948723Y-8974938D01*
X164948723Y-8974938D02*
X164758247Y-9070176D01*
X164758247Y-9070176D02*
X164377295Y-9165414D01*
X164377295Y-9165414D02*
X164091580Y-9165414D01*
X164091580Y-9165414D02*
X163710628Y-9070176D01*
X163710628Y-9070176D02*
X163520152Y-8974938D01*
X163520152Y-8974938D02*
X163329676Y-8784462D01*
X163329676Y-8784462D02*
X163234438Y-8498747D01*
X163234438Y-8498747D02*
X163234438Y-8308271D01*
X163234438Y-8308271D02*
X163329676Y-8022557D01*
X163329676Y-8022557D02*
X163424914Y-7927319D01*
X163234438Y-7070176D02*
X164853485Y-7070176D01*
X164853485Y-7070176D02*
X165043961Y-6974938D01*
X165043961Y-6974938D02*
X165139200Y-6879700D01*
X165139200Y-6879700D02*
X165234438Y-6689224D01*
X165234438Y-6689224D02*
X165234438Y-6308271D01*
X165234438Y-6308271D02*
X165139200Y-6117795D01*
X165139200Y-6117795D02*
X165043961Y-6022557D01*
X165043961Y-6022557D02*
X164853485Y-5927319D01*
X164853485Y-5927319D02*
X163234438Y-5927319D01*
X163234438Y-5260652D02*
X163234438Y-4117795D01*
X165234438Y-4689224D02*
X163234438Y-4689224D01*
X202428633Y-116604438D02*
X203095299Y-118604438D01*
X203095299Y-118604438D02*
X203761966Y-116604438D01*
X204428633Y-117842533D02*
X205952443Y-117842533D01*
X208047680Y-118413961D02*
X207952442Y-118509200D01*
X207952442Y-118509200D02*
X207666728Y-118604438D01*
X207666728Y-118604438D02*
X207476252Y-118604438D01*
X207476252Y-118604438D02*
X207190537Y-118509200D01*
X207190537Y-118509200D02*
X207000061Y-118318723D01*
X207000061Y-118318723D02*
X206904823Y-118128247D01*
X206904823Y-118128247D02*
X206809585Y-117747295D01*
X206809585Y-117747295D02*
X206809585Y-117461580D01*
X206809585Y-117461580D02*
X206904823Y-117080628D01*
X206904823Y-117080628D02*
X207000061Y-116890152D01*
X207000061Y-116890152D02*
X207190537Y-116699676D01*
X207190537Y-116699676D02*
X207476252Y-116604438D01*
X207476252Y-116604438D02*
X207666728Y-116604438D01*
X207666728Y-116604438D02*
X207952442Y-116699676D01*
X207952442Y-116699676D02*
X208047680Y-116794914D01*
X208904823Y-116604438D02*
X208904823Y-118223485D01*
X208904823Y-118223485D02*
X209000061Y-118413961D01*
X209000061Y-118413961D02*
X209095299Y-118509200D01*
X209095299Y-118509200D02*
X209285775Y-118604438D01*
X209285775Y-118604438D02*
X209666728Y-118604438D01*
X209666728Y-118604438D02*
X209857204Y-118509200D01*
X209857204Y-118509200D02*
X209952442Y-118413961D01*
X209952442Y-118413961D02*
X210047680Y-118223485D01*
X210047680Y-118223485D02*
X210047680Y-116604438D01*
X210714347Y-116604438D02*
X211857204Y-116604438D01*
X211285775Y-118604438D02*
X211285775Y-116604438D01*
X131574438Y-13546366D02*
X133574438Y-12879700D01*
X133574438Y-12879700D02*
X131574438Y-12213033D01*
X132812533Y-11546366D02*
X132812533Y-10022557D01*
X133383961Y-7927319D02*
X133479200Y-8022557D01*
X133479200Y-8022557D02*
X133574438Y-8308271D01*
X133574438Y-8308271D02*
X133574438Y-8498747D01*
X133574438Y-8498747D02*
X133479200Y-8784462D01*
X133479200Y-8784462D02*
X133288723Y-8974938D01*
X133288723Y-8974938D02*
X133098247Y-9070176D01*
X133098247Y-9070176D02*
X132717295Y-9165414D01*
X132717295Y-9165414D02*
X132431580Y-9165414D01*
X132431580Y-9165414D02*
X132050628Y-9070176D01*
X132050628Y-9070176D02*
X131860152Y-8974938D01*
X131860152Y-8974938D02*
X131669676Y-8784462D01*
X131669676Y-8784462D02*
X131574438Y-8498747D01*
X131574438Y-8498747D02*
X131574438Y-8308271D01*
X131574438Y-8308271D02*
X131669676Y-8022557D01*
X131669676Y-8022557D02*
X131764914Y-7927319D01*
X131574438Y-7070176D02*
X133193485Y-7070176D01*
X133193485Y-7070176D02*
X133383961Y-6974938D01*
X133383961Y-6974938D02*
X133479200Y-6879700D01*
X133479200Y-6879700D02*
X133574438Y-6689224D01*
X133574438Y-6689224D02*
X133574438Y-6308271D01*
X133574438Y-6308271D02*
X133479200Y-6117795D01*
X133479200Y-6117795D02*
X133383961Y-6022557D01*
X133383961Y-6022557D02*
X133193485Y-5927319D01*
X133193485Y-5927319D02*
X131574438Y-5927319D01*
X131574438Y-5260652D02*
X131574438Y-4117795D01*
X133574438Y-4689224D02*
X131574438Y-4689224D01*
M02*
