%TF.GenerationSoftware,KiCad,Pcbnew,7.0.5*%
%TF.CreationDate,2023-08-02T13:00:21+02:00*%
%TF.ProjectId,actuator_panel,61637475-6174-46f7-925f-70616e656c2e,rev?*%
%TF.SameCoordinates,Original*%
%TF.FileFunction,Profile,NP*%
%FSLAX46Y46*%
G04 Gerber Fmt 4.6, Leading zero omitted, Abs format (unit mm)*
G04 Created by KiCad (PCBNEW 7.0.5) date 2023-08-02 13:00:21*
%MOMM*%
%LPD*%
G01*
G04 APERTURE LIST*
%TA.AperFunction,Profile*%
%ADD10C,0.100000*%
%TD*%
G04 APERTURE END LIST*
D10*
X187536144Y-120124637D02*
X187491721Y-120104946D01*
X101543076Y-125075611D02*
X101543288Y-125075735D01*
X141714281Y-26655262D02*
X141705974Y-26703138D01*
X187769737Y-25010718D02*
X187817963Y-25004770D01*
X140928138Y-120180974D02*
X140880262Y-120189281D01*
X109508278Y-25095053D02*
X109551681Y-25116900D01*
X183895328Y-26750549D02*
X183882368Y-26797380D01*
X101032387Y-27500416D02*
X101031917Y-27500559D01*
X120458152Y-25439987D02*
X120484148Y-25481039D01*
X155370053Y-26933278D02*
X155350362Y-26888855D01*
X151525549Y-27470328D02*
X151478138Y-27480974D01*
X187041900Y-26976681D02*
X187020053Y-26933278D01*
X141682368Y-26797380D02*
X141667125Y-26843519D01*
X195856768Y-20528963D02*
X195856537Y-20528530D01*
X195898692Y-124582340D02*
X195902928Y-124571358D01*
X152158099Y-119676681D02*
X152134148Y-119718960D01*
X155294025Y-26703138D02*
X155285718Y-26655262D01*
X177031480Y-27442125D02*
X176986144Y-27424637D01*
X151333576Y-25001195D02*
X151382036Y-25004770D01*
X109908152Y-25439987D02*
X109934148Y-25481039D01*
X101065077Y-20721619D02*
X101047196Y-20793005D01*
X176541847Y-27060012D02*
X176515851Y-27018960D01*
X110032368Y-118402619D02*
X110045328Y-118449450D01*
X195618302Y-124964931D02*
X195618486Y-124964768D01*
X109999637Y-26888855D02*
X109979946Y-26933278D01*
X101042413Y-124382950D02*
X101042452Y-124383193D01*
X155415851Y-118181039D02*
X155441847Y-118139987D01*
X123765851Y-25481039D02*
X123791847Y-25439987D01*
X187581480Y-25057874D02*
X187627619Y-25042631D01*
X155636952Y-27275278D02*
X155600158Y-27243539D01*
X123644025Y-119403138D02*
X123635718Y-119355262D01*
X101187349Y-124745252D02*
X101193647Y-124755197D01*
X195862168Y-20539697D02*
X195862060Y-20539476D01*
X145164987Y-25166847D02*
X145206039Y-25140851D01*
X195965190Y-27500057D02*
X195962972Y-27500003D01*
X119922380Y-25042631D02*
X119968519Y-25057874D01*
X101244678Y-20375464D02*
X101200841Y-20434572D01*
X101028159Y-24997188D02*
X101028522Y-24997517D01*
X102037027Y-20000003D02*
X102012987Y-20000593D01*
X172578138Y-25019025D02*
X172625549Y-25029671D01*
X144782874Y-119543519D02*
X144767631Y-119497380D01*
X152255974Y-25796861D02*
X152264281Y-25844737D01*
X155275000Y-118690122D02*
X155275000Y-118690122D01*
X145125259Y-27305173D02*
X145086952Y-27275278D01*
X120430173Y-27099740D02*
X120400278Y-27138047D01*
X123635718Y-119355262D02*
X123629770Y-119307036D01*
X173355974Y-25796861D02*
X173364281Y-25844737D01*
X120582368Y-119497380D02*
X120567125Y-119543519D01*
X110032368Y-26797380D02*
X110017125Y-26843519D01*
X195971097Y-24997829D02*
X195971477Y-24997517D01*
X152108152Y-119760012D02*
X152080173Y-119799740D01*
X151525549Y-120170328D02*
X151478138Y-120180974D01*
X195973877Y-24994441D02*
X195974087Y-24993997D01*
X195974583Y-117692612D02*
X195974702Y-117692136D01*
X155798318Y-120083099D02*
X155756039Y-120059148D01*
X123667631Y-26797380D02*
X123654671Y-26750549D01*
X101746382Y-125159859D02*
X101746619Y-125159922D01*
X145381480Y-120142125D02*
X145336144Y-120124637D01*
X140880262Y-117710718D02*
X140928138Y-117719025D01*
X187406039Y-117840851D02*
X187448318Y-117816900D01*
X195898504Y-124582793D02*
X195898692Y-124582340D01*
X113556039Y-25140851D02*
X113598318Y-25116900D01*
X101381513Y-124964768D02*
X101381697Y-124964931D01*
X155370053Y-118266721D02*
X155391900Y-118223318D01*
X113436952Y-25224721D02*
X113475259Y-25194826D01*
X124191721Y-120104946D02*
X124148318Y-120083099D01*
X176417631Y-26797380D02*
X176404671Y-26750549D01*
X195952803Y-124406994D02*
X195952860Y-124406756D01*
X152255974Y-119403138D02*
X152245328Y-119450549D01*
X102012742Y-20000602D02*
X101939240Y-20004213D01*
X109713047Y-119975278D02*
X109674740Y-120005173D01*
X194962727Y-20000000D02*
X102037272Y-20000000D01*
X195357340Y-20076307D02*
X195346358Y-20072071D01*
X123765851Y-119718960D02*
X123741900Y-119676681D01*
X195181994Y-125177803D02*
X195253380Y-125159922D01*
X195446036Y-125081768D02*
X195446469Y-125081537D01*
X101033830Y-120200129D02*
X101033344Y-120200201D01*
X151949841Y-119943539D02*
X151913047Y-119975278D01*
X187866423Y-120198804D02*
X187817963Y-120195229D01*
X119922380Y-117742631D02*
X119968519Y-117757874D01*
X123819826Y-25400259D02*
X123849721Y-25361952D01*
X195972188Y-27503159D02*
X195971840Y-27502811D01*
X113436952Y-117924721D02*
X113475259Y-117894826D01*
X195973394Y-24995295D02*
X195973646Y-24994874D01*
X187817963Y-27495229D02*
X187769737Y-27489281D01*
X101025057Y-117690190D02*
X101025081Y-117690681D01*
X152158099Y-118223318D02*
X152179946Y-118266721D01*
X176700158Y-25256460D02*
X176736952Y-25224721D01*
X176569826Y-27099740D02*
X176541847Y-27060012D01*
X123720053Y-119633278D02*
X123700362Y-119588855D01*
X187091847Y-119760012D02*
X187065851Y-119718960D01*
X155600158Y-117956460D02*
X155636952Y-117924721D01*
X195690348Y-20301986D02*
X195690181Y-20301806D01*
X145474450Y-120170328D02*
X145427619Y-120157368D01*
X152134148Y-118181039D02*
X152158099Y-118223318D01*
X152273804Y-119258576D02*
X152270229Y-119307036D01*
X173345328Y-119450549D02*
X173332368Y-119497380D01*
X176375000Y-26509877D02*
X176375000Y-25990122D01*
X123626195Y-118641423D02*
X123629770Y-118592963D01*
X101031616Y-124310156D02*
X101042413Y-124382950D01*
X109463855Y-27424637D02*
X109418519Y-27442125D01*
X145014966Y-119910033D02*
X144981460Y-119874841D01*
X183635033Y-117989966D02*
X183668539Y-118025158D01*
X155285718Y-119355262D02*
X155279770Y-119307036D01*
X152270229Y-26607036D02*
X152264281Y-26655262D01*
X176664966Y-25289966D02*
X176700158Y-25256460D01*
X145715122Y-117700000D02*
X151284877Y-117700000D01*
X119968519Y-117757874D02*
X120013855Y-117775362D01*
X173299637Y-26888855D02*
X173279946Y-26933278D01*
X172433576Y-27498804D02*
X172384877Y-27500000D01*
X177316423Y-27498804D02*
X177267963Y-27495229D01*
X195970786Y-20914240D02*
X195970771Y-20913995D01*
X110055974Y-26703138D02*
X110045328Y-26750549D01*
X101025201Y-27508344D02*
X101025129Y-27508830D01*
X141468539Y-119874841D02*
X141435033Y-119910033D01*
X173049841Y-27243539D02*
X173013047Y-27275278D01*
X195969441Y-120201122D02*
X195968997Y-120200912D01*
X155276195Y-25941423D02*
X155279770Y-25892963D01*
X109182036Y-27495229D02*
X109133576Y-27498804D01*
X195609389Y-124972619D02*
X195618302Y-124964931D01*
X187491721Y-25095053D02*
X187536144Y-25075362D01*
X187769737Y-27489281D02*
X187721861Y-27480974D01*
X183599841Y-25256460D02*
X183635033Y-25289966D01*
X183882368Y-26797380D02*
X183867125Y-26843519D01*
X119732036Y-117704770D02*
X119780262Y-117710718D01*
X101025081Y-117690681D02*
X101025129Y-117691169D01*
X101025201Y-117691655D02*
X101025297Y-117692136D01*
X123635718Y-26655262D02*
X123629770Y-26607036D01*
X120625000Y-26509877D02*
X120623804Y-26558576D01*
X101037027Y-117699996D02*
X101037272Y-117700000D01*
X109084877Y-25000000D02*
X109133576Y-25001195D01*
X109999637Y-25611144D02*
X110017125Y-25656480D01*
X176541847Y-25439987D02*
X176569826Y-25400259D01*
X152232368Y-119497380D02*
X152217125Y-119543519D01*
X141363047Y-27275278D02*
X141324740Y-27305173D01*
X113598318Y-117816900D02*
X113641721Y-117795053D01*
X176515851Y-25481039D02*
X176541847Y-25439987D01*
X110075000Y-118690122D02*
X110075000Y-119209877D01*
X183175549Y-117729671D02*
X183222380Y-117742631D01*
X109463855Y-120124637D02*
X109418519Y-120142125D01*
X141723804Y-26558576D02*
X141720229Y-26607036D01*
X187000362Y-119588855D02*
X186982874Y-119543519D01*
X183920229Y-118592963D02*
X183923804Y-118641423D01*
X195931720Y-20710038D02*
X195931577Y-20709568D01*
X172672380Y-120157368D02*
X172625549Y-120170328D01*
X110075000Y-26509877D02*
X110073804Y-26558576D01*
X141608099Y-118223318D02*
X141629946Y-118266721D01*
X123720053Y-118266721D02*
X123741900Y-118223318D01*
X101025416Y-117692612D02*
X101025559Y-117693082D01*
X177365122Y-120200000D02*
X177316423Y-120198804D01*
X144949721Y-25361952D02*
X144981460Y-25325158D01*
X113824450Y-27470328D02*
X113777619Y-27457368D01*
X124064987Y-27333152D02*
X124025259Y-27305173D01*
X177267963Y-117704770D02*
X177316423Y-117701195D01*
X145206039Y-120059148D02*
X145164987Y-120033152D01*
X172625549Y-120170328D02*
X172578138Y-120180974D01*
X186944025Y-25796861D02*
X186954671Y-25749450D01*
X183882368Y-119497380D02*
X183867125Y-119543519D01*
X195974996Y-27512027D02*
X195974942Y-27509809D01*
X183032036Y-27495229D02*
X182983576Y-27498804D01*
X195972829Y-24996097D02*
X195973121Y-24995703D01*
X152134148Y-27018960D02*
X152108152Y-27060012D01*
X101026605Y-27504704D02*
X101026353Y-27505125D01*
X152158099Y-26976681D02*
X152134148Y-27018960D01*
X152199637Y-119588855D02*
X152179946Y-119633278D01*
X172935012Y-117866847D02*
X172974740Y-117894826D01*
X140783576Y-117701195D02*
X140832036Y-117704770D01*
X172718519Y-117757874D02*
X172763855Y-117775362D01*
X101564476Y-125087060D02*
X101564697Y-125087168D01*
X141584148Y-118181039D02*
X141608099Y-118223318D01*
X145050158Y-25256460D02*
X145086952Y-25224721D01*
X145427619Y-25042631D02*
X145474450Y-25029671D01*
X173370229Y-118592963D02*
X173373804Y-118641423D01*
X183563047Y-119975278D02*
X183524740Y-120005173D01*
X176394025Y-25796861D02*
X176404671Y-25749450D01*
X101642659Y-20076307D02*
X101642206Y-20076495D01*
X195974275Y-120206455D02*
X195974087Y-120206002D01*
X124469737Y-120189281D02*
X124421861Y-120180974D01*
X195967612Y-117699583D02*
X195968082Y-117699440D01*
X101047196Y-20793005D02*
X101047139Y-20793243D01*
X124281480Y-25057874D02*
X124327619Y-25042631D01*
X173299637Y-25611144D02*
X173317125Y-25656480D01*
X124025259Y-25194826D02*
X124064987Y-25166847D01*
X101101307Y-20617659D02*
X101097071Y-20628641D01*
X155714987Y-25166847D02*
X155756039Y-25140851D01*
X186982874Y-119543519D02*
X186967631Y-119497380D01*
X124064987Y-25166847D02*
X124106039Y-25140851D01*
X113117631Y-118402619D02*
X113132874Y-118356480D01*
X114065122Y-25000000D02*
X119634877Y-25000000D01*
X101469394Y-20168919D02*
X101459771Y-20175697D01*
X109979946Y-118266721D02*
X109999637Y-118311144D01*
X195368554Y-20081265D02*
X195357793Y-20076495D01*
X195968082Y-24999440D02*
X195968544Y-24999275D01*
X183905974Y-25796861D02*
X183914281Y-25844737D01*
X187181460Y-118025158D02*
X187214966Y-117989966D01*
X101026878Y-27504296D02*
X101026605Y-27504704D01*
X186954671Y-118449450D02*
X186967631Y-118402619D01*
X120185012Y-117866847D02*
X120224740Y-117894826D01*
X120614281Y-25844737D02*
X120620229Y-25892963D01*
X145291721Y-117795053D02*
X145336144Y-117775362D01*
X141243960Y-120059148D02*
X141201681Y-120083099D01*
X152264281Y-25844737D02*
X152270229Y-25892963D01*
X141285012Y-25166847D02*
X141324740Y-25194826D01*
X156216423Y-27498804D02*
X156167963Y-27495229D01*
X101072114Y-20698392D02*
X101068422Y-20709568D01*
X101027811Y-24996840D02*
X101028159Y-24997188D01*
X144820053Y-118266721D02*
X144841900Y-118223318D01*
X144782874Y-25656480D02*
X144800362Y-25611144D01*
X173317125Y-119543519D02*
X173299637Y-119588855D01*
X152018539Y-25325158D02*
X152050278Y-25361952D01*
X109551681Y-25116900D02*
X109593960Y-25140851D01*
X173180173Y-118100259D02*
X173208152Y-118139987D01*
X177219737Y-25010718D02*
X177267963Y-25004770D01*
X176376195Y-26558576D02*
X176375000Y-26509877D01*
X195085156Y-125193383D02*
X195157950Y-125182586D01*
X176375000Y-118690122D02*
X176376195Y-118641423D01*
X195253380Y-20040077D02*
X195181994Y-20022196D01*
X110070229Y-119307036D02*
X110064281Y-119355262D01*
X176470053Y-119633278D02*
X176450362Y-119588855D01*
X101037027Y-27500003D02*
X101034809Y-27500057D01*
X195799158Y-20434572D02*
X195755321Y-20375464D01*
X176700158Y-27243539D02*
X176664966Y-27210033D01*
X113299721Y-27138047D02*
X113269826Y-27099740D01*
X195974406Y-124212012D02*
X195974996Y-124187972D01*
X176379770Y-26607036D02*
X176376195Y-26558576D01*
X195850611Y-20518076D02*
X195812778Y-20454956D01*
X113514987Y-120033152D02*
X113475259Y-120005173D01*
X141720229Y-25892963D02*
X141723804Y-25941423D01*
X195972829Y-120203902D02*
X195972517Y-120203522D01*
X120529946Y-118266721D02*
X120549637Y-118311144D01*
X144754671Y-25749450D02*
X144767631Y-25702619D01*
X144865851Y-27018960D02*
X144841900Y-26976681D01*
X155714987Y-120033152D02*
X155675259Y-120005173D01*
X123765851Y-27018960D02*
X123741900Y-26976681D01*
X195893734Y-124593554D02*
X195898504Y-124582793D01*
X113967963Y-25004770D02*
X114016423Y-25001195D01*
X101025724Y-27506455D02*
X101025559Y-27506917D01*
X195975000Y-124187727D02*
X195975000Y-120212272D01*
X101031917Y-24999440D02*
X101032387Y-24999583D01*
X123986952Y-119975278D02*
X123950158Y-119943539D01*
X140880262Y-120189281D02*
X140832036Y-120195229D01*
X195157950Y-20017413D02*
X195085156Y-20006616D01*
X101734568Y-125156577D02*
X101735038Y-125156720D01*
X177219737Y-117710718D02*
X177267963Y-117704770D01*
X186929770Y-26607036D02*
X186926195Y-26558576D01*
X155285718Y-26655262D02*
X155279770Y-26607036D01*
X183914281Y-26655262D02*
X183905974Y-26703138D01*
X101149388Y-124681923D02*
X101187221Y-124745043D01*
X113132874Y-119543519D02*
X113117631Y-119497380D01*
X101025000Y-120212272D02*
X101025000Y-124187727D01*
X113079770Y-119307036D02*
X113076195Y-119258576D01*
X155714987Y-27333152D02*
X155675259Y-27305173D01*
X120595328Y-26750549D02*
X120582368Y-26797380D01*
X110073804Y-25941423D02*
X110075000Y-25990122D01*
X119922380Y-27457368D02*
X119875549Y-27470328D01*
X123667631Y-25702619D02*
X123682874Y-25656480D01*
X119634877Y-117700000D02*
X119634877Y-117700000D01*
X187721861Y-25019025D02*
X187769737Y-25010718D01*
X195747619Y-124834389D02*
X195747930Y-124834010D01*
X101027170Y-27503902D02*
X101026878Y-27504296D01*
X120430173Y-119799740D02*
X120400278Y-119838047D01*
X151913047Y-25224721D02*
X151949841Y-25256460D01*
X109999637Y-118311144D02*
X110017125Y-118356480D01*
X195060759Y-20004213D02*
X194987257Y-20000602D01*
X124469737Y-117710718D02*
X124517963Y-117704770D01*
X101072114Y-124501607D02*
X101072194Y-124501839D01*
X173355974Y-118496861D02*
X173364281Y-118544737D01*
X120335033Y-119910033D02*
X120299841Y-119943539D01*
X124025259Y-117894826D02*
X124064987Y-117866847D01*
X101029296Y-120201878D02*
X101028902Y-120202170D01*
X101631222Y-20081367D02*
X101564697Y-20112831D01*
X173345328Y-25749450D02*
X173355974Y-25796861D01*
X120143960Y-120059148D02*
X120101681Y-120083099D01*
X101543076Y-20124388D02*
X101479956Y-20162221D01*
X141363047Y-25224721D02*
X141399841Y-25256460D01*
X195520252Y-20162349D02*
X195520043Y-20162221D01*
X195973646Y-120205125D02*
X195973394Y-120204704D01*
X156216423Y-120198804D02*
X156167963Y-120195229D01*
X101317934Y-124906718D02*
X101318281Y-124907065D01*
X101025912Y-120206002D02*
X101025724Y-120206455D01*
X141714281Y-118544737D02*
X141720229Y-118592963D01*
X195276607Y-125152885D02*
X195276839Y-125152805D01*
X187065851Y-119718960D02*
X187041900Y-119676681D01*
X120614281Y-26655262D02*
X120605974Y-26703138D01*
X124106039Y-120059148D02*
X124064987Y-120033152D01*
X152134148Y-119718960D02*
X152108152Y-119760012D01*
X101631445Y-125118734D02*
X101642206Y-125123504D01*
X183268519Y-117757874D02*
X183313855Y-117775362D01*
X144949721Y-119838047D02*
X144919826Y-119799740D01*
X141725000Y-25990122D02*
X141725000Y-26509877D01*
X101260068Y-124843302D02*
X101260231Y-124843486D01*
X124566423Y-120198804D02*
X124517963Y-120195229D01*
X113731480Y-27442125D02*
X113686144Y-27424637D01*
X155499721Y-119838047D02*
X155469826Y-119799740D01*
X176450362Y-119588855D02*
X176432874Y-119543519D01*
X173180173Y-27099740D02*
X173150278Y-27138047D01*
X183700278Y-25361952D02*
X183730173Y-25400259D01*
X101037272Y-120200000D02*
X101037027Y-120200003D01*
X155294025Y-118496861D02*
X155304671Y-118449450D01*
X195967136Y-117699702D02*
X195967612Y-117699583D01*
X101025003Y-120212027D02*
X101025000Y-120212272D01*
X120224740Y-117894826D02*
X120263047Y-117924721D01*
X195673193Y-124915181D02*
X195681718Y-124907065D01*
X101031616Y-20889843D02*
X101031582Y-20890086D01*
X152264281Y-26655262D02*
X152255974Y-26703138D01*
X187406039Y-25140851D02*
X187448318Y-25116900D01*
X141682368Y-25702619D02*
X141695328Y-25749450D01*
X141725000Y-119209877D02*
X141723804Y-119258576D01*
X113085718Y-26655262D02*
X113079770Y-26607036D01*
X113598318Y-120083099D02*
X113556039Y-120059148D01*
X155294025Y-119403138D02*
X155285718Y-119355262D01*
X187721861Y-27480974D02*
X187674450Y-27470328D01*
X173279946Y-25566721D02*
X173299637Y-25611144D01*
X101149388Y-20518076D02*
X101149264Y-20518288D01*
X187325259Y-27305173D02*
X187286952Y-27275278D01*
X195169790Y-20019465D02*
X195158193Y-20017452D01*
X176375000Y-25990122D02*
X176376195Y-25941423D01*
X183443960Y-25140851D02*
X183485012Y-25166847D01*
X102012987Y-20000593D02*
X102012742Y-20000602D01*
X101031455Y-24999275D02*
X101031917Y-24999440D01*
X176379770Y-25892963D02*
X176385718Y-25844737D01*
X101187221Y-20454956D02*
X101149388Y-20518076D01*
X155531460Y-25325158D02*
X155564966Y-25289966D01*
X113076195Y-119258576D02*
X113075000Y-119209877D01*
X123741900Y-25523318D02*
X123765851Y-25481039D01*
X101187349Y-20454747D02*
X101187221Y-20454956D01*
X123626195Y-25941423D02*
X123629770Y-25892963D01*
X101479747Y-20162349D02*
X101469802Y-20168647D01*
X172718519Y-27442125D02*
X172672380Y-27457368D01*
X109372380Y-27457368D02*
X109325549Y-27470328D01*
X113170053Y-26933278D02*
X113150362Y-26888855D01*
X195739768Y-124843486D02*
X195739931Y-124843302D01*
X155370053Y-25566721D02*
X155391900Y-25523318D01*
X119780262Y-25010718D02*
X119828138Y-25019025D01*
X141705974Y-26703138D02*
X141695328Y-26750549D01*
X151874740Y-117894826D02*
X151913047Y-117924721D01*
X123986952Y-27275278D02*
X123950158Y-27243539D01*
X195968383Y-20889843D02*
X195957586Y-20817049D01*
X172851681Y-120083099D02*
X172808278Y-120104946D01*
X155350362Y-119588855D02*
X155332874Y-119543519D01*
X194962972Y-20000003D02*
X194962727Y-20000000D01*
X109278138Y-27480974D02*
X109230262Y-27489281D01*
X172974740Y-117894826D02*
X173013047Y-117924721D01*
X152080173Y-27099740D02*
X152050278Y-27138047D01*
X101631445Y-20081265D02*
X101631222Y-20081367D01*
X101025559Y-117693082D02*
X101025724Y-117693544D01*
X177077619Y-117742631D02*
X177124450Y-117729671D01*
X101030142Y-20901768D02*
X101030094Y-20902256D01*
X109508278Y-117795053D02*
X109551681Y-117816900D01*
X140734877Y-27500000D02*
X124615122Y-27500000D01*
X195368777Y-125118632D02*
X195435302Y-125087168D01*
X155931480Y-27442125D02*
X155886144Y-27424637D01*
X177267963Y-120195229D02*
X177219737Y-120189281D01*
X176941721Y-120104946D02*
X176898318Y-120083099D01*
X101735038Y-20043279D02*
X101734568Y-20043422D01*
X195955534Y-124394790D02*
X195957547Y-124383193D01*
X173332368Y-25702619D02*
X173345328Y-25749450D01*
X101030558Y-27501122D02*
X101030125Y-27501353D01*
X155499721Y-27138047D02*
X155469826Y-27099740D01*
X173150278Y-25361952D02*
X173180173Y-25400259D01*
X101026605Y-24995295D02*
X101026878Y-24995703D01*
X183401681Y-117816900D02*
X183443960Y-117840851D01*
X109818539Y-25325158D02*
X109850278Y-25361952D01*
X176404671Y-118449450D02*
X176417631Y-118402619D01*
X110045328Y-25749450D02*
X110055974Y-25796861D01*
X183867125Y-25656480D02*
X183882368Y-25702619D01*
X120263047Y-27275278D02*
X120224740Y-27305173D01*
X145427619Y-120157368D02*
X145381480Y-120142125D01*
X195072743Y-125194905D02*
X195073231Y-125194857D01*
X172433576Y-117701195D02*
X172482036Y-117704770D01*
X113919737Y-25010718D02*
X113967963Y-25004770D01*
X195969857Y-124298231D02*
X195969905Y-124297743D01*
X176394025Y-26703138D02*
X176385718Y-26655262D01*
X123700362Y-118311144D02*
X123720053Y-118266721D01*
X176856039Y-27359148D02*
X176814987Y-27333152D01*
X119968519Y-27442125D02*
X119922380Y-27457368D01*
X172974740Y-120005173D02*
X172935012Y-120033152D01*
X101033830Y-24999870D02*
X101034318Y-24999918D01*
X195962972Y-117699996D02*
X195965190Y-117699942D01*
X151708278Y-27404946D02*
X151663855Y-27424637D01*
X152255974Y-118496861D02*
X152264281Y-118544737D01*
X145086952Y-117924721D02*
X145125259Y-117894826D01*
X176631460Y-27174841D02*
X176599721Y-27138047D01*
X195967612Y-27500416D02*
X195967136Y-27500297D01*
X101193919Y-20444394D02*
X101193647Y-20444802D01*
X183358278Y-117795053D02*
X183401681Y-117816900D01*
X119732036Y-27495229D02*
X119683576Y-27498804D01*
X186935718Y-118544737D02*
X186944025Y-118496861D01*
X176775259Y-117894826D02*
X176814987Y-117866847D01*
X124374450Y-117729671D02*
X124421861Y-117719025D01*
X119732036Y-25004770D02*
X119780262Y-25010718D01*
X186929770Y-119307036D02*
X186926195Y-119258576D01*
X151835012Y-117866847D02*
X151874740Y-117894826D01*
X155564966Y-117989966D02*
X155600158Y-117956460D01*
X113967963Y-120195229D02*
X113919737Y-120189281D01*
X195530605Y-20168919D02*
X195530197Y-20168647D01*
X101032387Y-24999583D02*
X101032863Y-24999702D01*
X155391900Y-118223318D02*
X155415851Y-118181039D01*
X141649637Y-26888855D02*
X141629946Y-26933278D01*
X183128138Y-27480974D02*
X183080262Y-27489281D01*
X195934922Y-124478380D02*
X195952803Y-124406994D01*
X186954671Y-26750549D02*
X186944025Y-26703138D01*
X155600158Y-25256460D02*
X155636952Y-25224721D01*
X151618519Y-25057874D02*
X151663855Y-25075362D01*
X141723804Y-119258576D02*
X141720229Y-119307036D01*
X101068279Y-124489961D02*
X101068422Y-124490431D01*
X195253380Y-125159922D02*
X195253617Y-125159859D01*
X186967631Y-118402619D02*
X186982874Y-118356480D01*
X120368539Y-118025158D02*
X120400278Y-118061952D01*
X152134148Y-25481039D02*
X152158099Y-25523318D01*
X195968383Y-124310156D02*
X195968417Y-124309913D01*
X172851681Y-117816900D02*
X172893960Y-117840851D01*
X172578138Y-117719025D02*
X172625549Y-117729671D01*
X101137939Y-20539476D02*
X101137831Y-20539697D01*
X119780262Y-117710718D02*
X119828138Y-117719025D01*
X110032368Y-119497380D02*
X110017125Y-119543519D01*
X144865851Y-118181039D02*
X144891847Y-118139987D01*
X195971097Y-27502170D02*
X195970703Y-27501878D01*
X151985033Y-117989966D02*
X152018539Y-118025158D01*
X195812650Y-20454747D02*
X195806352Y-20444802D01*
X145125259Y-25194826D02*
X145164987Y-25166847D01*
X155931480Y-120142125D02*
X155886144Y-120124637D01*
X195599535Y-124980321D02*
X195599731Y-124980172D01*
X101642659Y-125123692D02*
X101653641Y-125127928D01*
X155531460Y-27174841D02*
X155499721Y-27138047D01*
X120335033Y-25289966D02*
X120368539Y-25325158D01*
X183882368Y-25702619D02*
X183895328Y-25749450D01*
X120335033Y-27210033D02*
X120299841Y-27243539D01*
X155469826Y-27099740D02*
X155441847Y-27060012D01*
X195970786Y-124285759D02*
X195974397Y-124212257D01*
X144841900Y-26976681D02*
X144820053Y-26933278D01*
X156024450Y-25029671D02*
X156071861Y-25019025D01*
X173332368Y-26797380D02*
X173317125Y-26843519D01*
X176394025Y-119403138D02*
X176385718Y-119355262D01*
X101026878Y-117695703D02*
X101027170Y-117696097D01*
X172625549Y-117729671D02*
X172672380Y-117742631D01*
X101044465Y-20805209D02*
X101042452Y-20816806D01*
X187065851Y-118181039D02*
X187091847Y-118139987D01*
X173049841Y-119943539D02*
X173013047Y-119975278D01*
X109880173Y-118100259D02*
X109908152Y-118139987D01*
X123914966Y-27210033D02*
X123881460Y-27174841D01*
X120484148Y-27018960D02*
X120458152Y-27060012D01*
X113967963Y-27495229D02*
X113919737Y-27489281D01*
X151835012Y-120033152D02*
X151793960Y-120059148D01*
X173332368Y-119497380D02*
X173317125Y-119543519D01*
X187581480Y-27442125D02*
X187536144Y-27424637D01*
X156119737Y-27489281D02*
X156071861Y-27480974D01*
X123682874Y-119543519D02*
X123667631Y-119497380D01*
X152179946Y-119633278D02*
X152158099Y-119676681D01*
X113686144Y-117775362D02*
X113731480Y-117757874D01*
X101025003Y-124187972D02*
X101025593Y-124212012D01*
X187020053Y-26933278D02*
X187000362Y-26888855D01*
X141705974Y-119403138D02*
X141695328Y-119450549D01*
X101026878Y-120204296D02*
X101026605Y-120204704D01*
X195806080Y-20444394D02*
X195799302Y-20434771D01*
X101631222Y-125118632D02*
X101631445Y-125118734D01*
X187119826Y-27099740D02*
X187091847Y-27060012D01*
X101031455Y-117699275D02*
X101031917Y-117699440D01*
X195898692Y-20617659D02*
X195898504Y-20617206D01*
X195974942Y-27509809D02*
X195974918Y-27509318D01*
X101026122Y-117694441D02*
X101026353Y-117694874D01*
X101032387Y-117699583D02*
X101032863Y-117699702D01*
X141324740Y-27305173D02*
X141285012Y-27333152D01*
X187448318Y-117816900D02*
X187491721Y-117795053D01*
X109850278Y-27138047D02*
X109818539Y-27174841D01*
X195974996Y-21012027D02*
X195974406Y-20987987D01*
X101106265Y-124593554D02*
X101106367Y-124593777D01*
X101030094Y-20902256D02*
X101029228Y-20913995D01*
X113117631Y-25702619D02*
X113132874Y-25656480D01*
X187491721Y-117795053D02*
X187536144Y-117775362D01*
X173234148Y-25481039D02*
X173258099Y-25523318D01*
X151663855Y-27424637D02*
X151618519Y-27442125D01*
X145206039Y-25140851D02*
X145248318Y-25116900D01*
X113436952Y-27275278D02*
X113400158Y-27243539D01*
X141608099Y-26976681D02*
X141584148Y-27018960D01*
X183313855Y-117775362D02*
X183358278Y-117795053D01*
X101031002Y-24999087D02*
X101031455Y-24999275D01*
X195970295Y-27501605D02*
X195969874Y-27501353D01*
X120058278Y-25095053D02*
X120101681Y-25116900D01*
X183829946Y-25566721D02*
X183849637Y-25611144D01*
X172935012Y-120033152D02*
X172893960Y-120059148D01*
X155317631Y-25702619D02*
X155332874Y-25656480D01*
X120299841Y-27243539D02*
X120263047Y-27275278D01*
X141201681Y-117816900D02*
X141243960Y-117840851D01*
X145050158Y-119943539D02*
X145014966Y-119910033D01*
X101137831Y-20539697D02*
X101106367Y-20606222D01*
X109278138Y-25019025D02*
X109325549Y-25029671D01*
X195974918Y-24990681D02*
X195974942Y-24990190D01*
X145715122Y-27500000D02*
X145666423Y-27498804D01*
X195276839Y-20047194D02*
X195276607Y-20047114D01*
X183700278Y-118061952D02*
X183730173Y-118100259D01*
X110064281Y-26655262D02*
X110055974Y-26703138D01*
X109818539Y-27174841D02*
X109785033Y-27210033D01*
X123950158Y-117956460D02*
X123986952Y-117924721D01*
X195850611Y-124681923D02*
X195850735Y-124681711D01*
X152050278Y-119838047D02*
X152018539Y-119874841D01*
X123881460Y-25325158D02*
X123914966Y-25289966D01*
X141399841Y-27243539D02*
X141363047Y-27275278D01*
X172935012Y-27333152D02*
X172893960Y-27359148D01*
X101027170Y-117696097D02*
X101027482Y-117696477D01*
X101034809Y-24999942D02*
X101037027Y-24999996D01*
X101025081Y-24990681D02*
X101025129Y-24991169D01*
X176599721Y-25361952D02*
X176631460Y-25325158D01*
X187536144Y-25075362D02*
X187581480Y-25057874D01*
X123914966Y-119910033D02*
X123881460Y-119874841D01*
X109674740Y-25194826D02*
X109713047Y-25224721D01*
X195969874Y-24998646D02*
X195970295Y-24998394D01*
X101032387Y-120200416D02*
X101031917Y-120200559D01*
X182983576Y-117701195D02*
X183032036Y-117704770D01*
X145427619Y-117742631D02*
X145474450Y-117729671D01*
X183829946Y-118266721D02*
X183849637Y-118311144D01*
X101244678Y-124824535D02*
X101244827Y-124824731D01*
X195974440Y-120206917D02*
X195974275Y-120206455D01*
X195609010Y-20227069D02*
X195599731Y-20219827D01*
X195973394Y-120204704D02*
X195973121Y-120204296D01*
X141113855Y-117775362D02*
X141158278Y-117795053D01*
X145427619Y-27457368D02*
X145381480Y-27442125D01*
X113241847Y-27060012D02*
X113215851Y-27018960D01*
X113400158Y-117956460D02*
X113436952Y-117924721D01*
X101031002Y-27500912D02*
X101030558Y-27501122D01*
X186967631Y-26797380D02*
X186954671Y-26750549D01*
X182934877Y-117700000D02*
X182983576Y-117701195D01*
X195850735Y-124681711D02*
X195856537Y-124671469D01*
X173317125Y-118356480D02*
X173332368Y-118402619D01*
X101027811Y-27503159D02*
X101027482Y-27503522D01*
X195969874Y-27501353D02*
X195969441Y-27501122D01*
X109785033Y-25289966D02*
X109818539Y-25325158D01*
X151949841Y-117956460D02*
X151985033Y-117989966D01*
X101030558Y-24998877D02*
X101031002Y-24999087D01*
X183700278Y-119838047D02*
X183668539Y-119874841D01*
X155391900Y-25523318D02*
X155415851Y-25481039D01*
X101025593Y-124212012D02*
X101025602Y-124212257D01*
X120508099Y-118223318D02*
X120529946Y-118266721D01*
X145206039Y-27359148D02*
X145164987Y-27333152D01*
X155841721Y-27404946D02*
X155798318Y-27383099D01*
X195970703Y-27501878D02*
X195970295Y-27501605D01*
X124374450Y-120170328D02*
X124327619Y-120157368D01*
X176898318Y-25116900D02*
X176941721Y-25095053D01*
X101260231Y-124843486D02*
X101309651Y-124898013D01*
X195968997Y-24999087D02*
X195969441Y-24998877D01*
X186944025Y-26703138D02*
X186935718Y-26655262D01*
X182934877Y-25000000D02*
X182983576Y-25001195D01*
X173049841Y-117956460D02*
X173085033Y-117989966D01*
X120368539Y-119874841D02*
X120335033Y-119910033D01*
X144841900Y-118223318D02*
X144865851Y-118181039D01*
X101025003Y-21012027D02*
X101025000Y-21012272D01*
X120400278Y-27138047D02*
X120368539Y-27174841D01*
X195968082Y-120200559D02*
X195967612Y-120200416D01*
X101026353Y-117694874D02*
X101026605Y-117695295D01*
X123819826Y-119799740D02*
X123791847Y-119760012D01*
X155841721Y-117795053D02*
X155886144Y-117775362D01*
X114065122Y-117700000D02*
X119634877Y-117700000D01*
X101735038Y-125156720D02*
X101746382Y-125159859D01*
X145014966Y-117989966D02*
X145050158Y-117956460D01*
X172482036Y-117704770D02*
X172530262Y-117710718D01*
X109325549Y-27470328D02*
X109278138Y-27480974D01*
X101029296Y-117698121D02*
X101029704Y-117698394D01*
X141530173Y-25400259D02*
X141558152Y-25439987D01*
X101042413Y-20817049D02*
X101031616Y-20889843D01*
X195690181Y-124898193D02*
X195690348Y-124898013D01*
X176432874Y-119543519D02*
X176417631Y-119497380D01*
X195974440Y-24993082D02*
X195974583Y-24992612D01*
X195158193Y-125182547D02*
X195169790Y-125180534D01*
X101029228Y-124286004D02*
X101030094Y-124297743D01*
X101564697Y-125087168D02*
X101631222Y-125118632D01*
X109084877Y-27500000D02*
X101037272Y-27500000D01*
X186926195Y-118641423D02*
X186929770Y-118592963D01*
X120549637Y-119588855D02*
X120529946Y-119633278D01*
X113075000Y-118690122D02*
X113076195Y-118641423D01*
X120605974Y-119403138D02*
X120595328Y-119450549D01*
X195530197Y-125031352D02*
X195530605Y-125031080D01*
X173013047Y-27275278D02*
X172974740Y-27305173D01*
X195966169Y-24999870D02*
X195966655Y-24999798D01*
X109674740Y-117894826D02*
X109713047Y-117924721D01*
X187406039Y-27359148D02*
X187364987Y-27333152D01*
X195967612Y-120200416D02*
X195967136Y-120200297D01*
X152245328Y-25749450D02*
X152255974Y-25796861D01*
X141649637Y-25611144D02*
X141667125Y-25656480D01*
X155275000Y-25990122D02*
X155275000Y-25990122D01*
X140734877Y-117700000D02*
X140783576Y-117701195D01*
X155441847Y-119760012D02*
X155415851Y-119718960D01*
X101143462Y-124671469D02*
X101149264Y-124681711D01*
X173234148Y-118181039D02*
X173258099Y-118223318D01*
X124106039Y-27359148D02*
X124064987Y-27333152D01*
X152179946Y-25566721D02*
X152199637Y-25611144D01*
X195974942Y-120209809D02*
X195974918Y-120209318D01*
X195673013Y-124915348D02*
X195673193Y-124915181D01*
X183849637Y-25611144D02*
X183867125Y-25656480D01*
X195973646Y-27505125D02*
X195973394Y-27504704D01*
X177171861Y-27480974D02*
X177124450Y-27470328D01*
X195973394Y-117695295D02*
X195973646Y-117694874D01*
X120400278Y-25361952D02*
X120430173Y-25400259D01*
X144919826Y-25400259D02*
X144949721Y-25361952D01*
X101032863Y-120200297D02*
X101032387Y-120200416D01*
X120058278Y-117795053D02*
X120101681Y-117816900D01*
X140928138Y-25019025D02*
X140975549Y-25029671D01*
X145014966Y-27210033D02*
X144981460Y-27174841D01*
X144891847Y-27060012D02*
X144865851Y-27018960D01*
X151284877Y-117700000D02*
X151333576Y-117701195D01*
X187627619Y-120157368D02*
X187581480Y-120142125D01*
X183867125Y-118356480D02*
X183882368Y-118402619D01*
X155886144Y-25075362D02*
X155931480Y-25057874D01*
X187000362Y-26888855D02*
X186982874Y-26843519D01*
X195962972Y-27500003D02*
X195962727Y-27500000D01*
X113076195Y-26558576D02*
X113075000Y-26509877D01*
X177267963Y-25004770D02*
X177316423Y-25001195D01*
X151793960Y-27359148D02*
X151751681Y-27383099D01*
X195170271Y-20019561D02*
X195169790Y-20019465D01*
X120508099Y-119676681D02*
X120484148Y-119718960D01*
X176856039Y-25140851D02*
X176898318Y-25116900D01*
X183524740Y-25194826D02*
X183563047Y-25224721D01*
X187214966Y-119910033D02*
X187181460Y-119874841D01*
X172935012Y-25166847D02*
X172974740Y-25194826D01*
X109958099Y-26976681D02*
X109934148Y-27018960D01*
X186944025Y-118496861D02*
X186954671Y-118449450D01*
X183443960Y-120059148D02*
X183401681Y-120083099D01*
X120567125Y-26843519D02*
X120549637Y-26888855D01*
X120101681Y-25116900D02*
X120143960Y-25140851D01*
X155675259Y-27305173D02*
X155636952Y-27275278D01*
X152199637Y-26888855D02*
X152179946Y-26933278D01*
X151430262Y-120189281D02*
X151382036Y-120195229D01*
X195799302Y-124765228D02*
X195806080Y-124755605D01*
X195968544Y-27500724D02*
X195968082Y-27500559D01*
X151382036Y-25004770D02*
X151430262Y-25010718D01*
X141500278Y-25361952D02*
X141530173Y-25400259D01*
X145164987Y-120033152D02*
X145125259Y-120005173D01*
X176470053Y-25566721D02*
X176491900Y-25523318D01*
X195599535Y-20219678D02*
X195540427Y-20175841D01*
X119828138Y-120180974D02*
X119780262Y-120189281D01*
X109551681Y-117816900D02*
X109593960Y-117840851D01*
X109635012Y-27333152D02*
X109593960Y-27359148D01*
X155886144Y-27424637D02*
X155841721Y-27404946D01*
X176898318Y-117816900D02*
X176941721Y-117795053D01*
X119634877Y-25000000D02*
X119634877Y-25000000D01*
X101564476Y-20112939D02*
X101553963Y-20118231D01*
X187149721Y-27138047D02*
X187119826Y-27099740D01*
X141705974Y-25796861D02*
X141714281Y-25844737D01*
X177171861Y-117719025D02*
X177219737Y-117710718D01*
X195357793Y-20076495D02*
X195357340Y-20076307D01*
X123626195Y-119258576D02*
X123625000Y-119209877D01*
X177365122Y-27500000D02*
X177316423Y-27498804D01*
X101400464Y-20219678D02*
X101400268Y-20219827D01*
X101459771Y-125024302D02*
X101469394Y-125031080D01*
X113079770Y-26607036D02*
X113076195Y-26558576D01*
X155564966Y-27210033D02*
X155531460Y-27174841D01*
X152018539Y-27174841D02*
X151985033Y-27210033D01*
X113075000Y-25990122D02*
X113076195Y-25941423D01*
X140734877Y-25000000D02*
X140783576Y-25001195D01*
X195971840Y-27502811D02*
X195971477Y-27502482D01*
X152270229Y-25892963D02*
X152273804Y-25941423D01*
X156024450Y-120170328D02*
X155977619Y-120157368D01*
X195968082Y-27500559D02*
X195967612Y-27500416D01*
X156216423Y-25001195D02*
X156265122Y-25000000D01*
X119875549Y-120170328D02*
X119828138Y-120180974D01*
X141399841Y-117956460D02*
X141435033Y-117989966D01*
X101047196Y-124406994D02*
X101065077Y-124478380D01*
X145666423Y-25001195D02*
X145715122Y-25000000D01*
X155317631Y-118402619D02*
X155332874Y-118356480D01*
X113514987Y-27333152D02*
X113475259Y-27305173D01*
X101830209Y-125180534D02*
X101841806Y-125182547D01*
X155350362Y-118311144D02*
X155370053Y-118266721D01*
X195927885Y-20698392D02*
X195927805Y-20698160D01*
X141584148Y-25481039D02*
X141608099Y-25523318D01*
X109325549Y-117729671D02*
X109372380Y-117742631D01*
X195609389Y-20227380D02*
X195609010Y-20227069D01*
X155977619Y-117742631D02*
X156024450Y-117729671D01*
X113191900Y-118223318D02*
X113215851Y-118181039D01*
X119780262Y-27489281D02*
X119732036Y-27495229D01*
X101033830Y-27500129D02*
X101033344Y-27500201D01*
X173118539Y-118025158D02*
X173150278Y-118061952D01*
X187149721Y-25361952D02*
X187181460Y-25325158D01*
X123791847Y-27060012D02*
X123765851Y-27018960D01*
X123667631Y-118402619D02*
X123682874Y-118356480D01*
X101818243Y-20022139D02*
X101818005Y-20022196D01*
X101034809Y-117699942D02*
X101037027Y-117699996D01*
X195974702Y-117692136D02*
X195974798Y-117691655D01*
X195812778Y-124745043D02*
X195850611Y-124681923D01*
X145086952Y-27275278D02*
X145050158Y-27243539D01*
X195974798Y-27508344D02*
X195974702Y-27507863D01*
X120058278Y-27404946D02*
X120013855Y-27424637D01*
X144725000Y-118690122D02*
X144726195Y-118641423D01*
X109133576Y-25001195D02*
X109182036Y-25004770D01*
X195520252Y-125037650D02*
X195530197Y-125031352D01*
X123741900Y-118223318D02*
X123765851Y-118181039D01*
X155469826Y-119799740D02*
X155441847Y-119760012D01*
X176941721Y-117795053D02*
X176986144Y-117775362D01*
X101031002Y-120200912D02*
X101030558Y-120201122D01*
X155531460Y-119874841D02*
X155499721Y-119838047D01*
X141468539Y-118025158D02*
X141500278Y-118061952D01*
X101031917Y-27500559D02*
X101031455Y-27500724D01*
X173013047Y-25224721D02*
X173049841Y-25256460D01*
X195739768Y-20356513D02*
X195690348Y-20301986D01*
X124421861Y-25019025D02*
X124469737Y-25010718D01*
X195435302Y-125087168D02*
X195435523Y-125087060D01*
X155441847Y-118139987D02*
X155469826Y-118100259D01*
X187181460Y-119874841D02*
X187149721Y-119838047D01*
X187119826Y-119799740D02*
X187091847Y-119760012D01*
X123635718Y-118544737D02*
X123644025Y-118496861D01*
X101029704Y-117698394D02*
X101030125Y-117698646D01*
X176775259Y-27305173D02*
X176736952Y-27275278D01*
X101244827Y-124824731D02*
X101252069Y-124834010D01*
X145474450Y-25029671D02*
X145521861Y-25019025D01*
X120529946Y-25566721D02*
X120549637Y-25611144D01*
X145164987Y-27333152D02*
X145125259Y-27305173D01*
X195181756Y-20022139D02*
X195170271Y-20019561D01*
X152264281Y-118544737D02*
X152270229Y-118592963D01*
X183313855Y-27424637D02*
X183268519Y-27442125D01*
X172893960Y-27359148D02*
X172851681Y-27383099D01*
X101033344Y-120200201D02*
X101032863Y-120200297D01*
X151874740Y-120005173D02*
X151835012Y-120033152D01*
X183080262Y-120189281D02*
X183032036Y-120195229D01*
X144820053Y-119633278D02*
X144800362Y-119588855D01*
X141435033Y-25289966D02*
X141468539Y-25325158D01*
X195934859Y-20721382D02*
X195931720Y-20710038D01*
X177171861Y-120180974D02*
X177124450Y-120170328D01*
X152217125Y-26843519D02*
X152199637Y-26888855D01*
X195357340Y-125123692D02*
X195357793Y-125123504D01*
X123819826Y-118100259D02*
X123849721Y-118061952D01*
X124106039Y-117840851D02*
X124148318Y-117816900D01*
X109593960Y-120059148D02*
X109551681Y-120083099D01*
X187721861Y-120180974D02*
X187674450Y-120170328D01*
X101326986Y-124915348D02*
X101381513Y-124964768D01*
X195971477Y-24997517D02*
X195971840Y-24997188D01*
X101030558Y-120201122D02*
X101030125Y-120201353D01*
X120368539Y-27174841D02*
X120335033Y-27210033D01*
X140832036Y-27495229D02*
X140783576Y-27498804D01*
X173355974Y-26703138D02*
X173345328Y-26750549D01*
X172808278Y-25095053D02*
X172851681Y-25116900D01*
X195061004Y-125195771D02*
X195072743Y-125194905D01*
X151478138Y-117719025D02*
X151525549Y-117729671D01*
X151793960Y-25140851D02*
X151835012Y-25166847D01*
X156216423Y-117701195D02*
X156265122Y-117700000D01*
X155304671Y-118449450D02*
X155317631Y-118402619D01*
X145666423Y-27498804D02*
X145617963Y-27495229D01*
X155285718Y-25844737D02*
X155294025Y-25796861D01*
X110017125Y-118356480D02*
X110032368Y-118402619D01*
X144726195Y-26558576D02*
X144725000Y-26509877D01*
X101723392Y-20047114D02*
X101723160Y-20047194D01*
X183313855Y-25075362D02*
X183358278Y-25095053D01*
X195157950Y-125182586D02*
X195158193Y-125182547D01*
X113215851Y-27018960D02*
X113191900Y-26976681D01*
X113475259Y-27305173D02*
X113436952Y-27275278D01*
X101653871Y-20071985D02*
X101653641Y-20072071D01*
X109551681Y-27383099D02*
X109508278Y-27404946D01*
X113075000Y-119209877D02*
X113075000Y-118690122D01*
X195965681Y-117699918D02*
X195966169Y-117699870D01*
X151478138Y-25019025D02*
X151525549Y-25029671D01*
X195902928Y-20628641D02*
X195898692Y-20617659D01*
X110055974Y-119403138D02*
X110045328Y-119450549D01*
X187674450Y-117729671D02*
X187721861Y-117719025D01*
X195927885Y-124501607D02*
X195931577Y-124490431D01*
X110064281Y-119355262D02*
X110055974Y-119403138D01*
X151618519Y-117757874D02*
X151663855Y-117775362D01*
X113919737Y-120189281D02*
X113871861Y-120180974D01*
X101252069Y-124834010D02*
X101252380Y-124834389D01*
X113299721Y-119838047D02*
X113269826Y-119799740D01*
X195747619Y-20365610D02*
X195739931Y-20356697D01*
X177077619Y-25042631D02*
X177124450Y-25029671D01*
X195975000Y-24987727D02*
X195975000Y-21012272D01*
X141584148Y-119718960D02*
X141558152Y-119760012D01*
X187581480Y-117757874D02*
X187627619Y-117742631D01*
X194987012Y-125199406D02*
X194987257Y-125199397D01*
X101025000Y-27512272D02*
X101025000Y-117687727D01*
X183784148Y-25481039D02*
X183808099Y-25523318D01*
X123635718Y-25844737D02*
X123644025Y-25796861D01*
X194987012Y-20000593D02*
X194962972Y-20000003D01*
X151618519Y-120142125D02*
X151572380Y-120157368D01*
X195955438Y-20804728D02*
X195952860Y-20793243D01*
X120263047Y-25224721D02*
X120299841Y-25256460D01*
X173345328Y-118449450D02*
X173355974Y-118496861D01*
X123682874Y-26843519D02*
X123667631Y-26797380D01*
X113967963Y-117704770D02*
X114016423Y-117701195D01*
X123914966Y-25289966D02*
X123950158Y-25256460D01*
X195739931Y-124843302D02*
X195747619Y-124834389D01*
X172974740Y-27305173D02*
X172935012Y-27333152D01*
X187674450Y-27470328D02*
X187627619Y-27457368D01*
X156119737Y-25010718D02*
X156167963Y-25004770D01*
X145521861Y-27480974D02*
X145474450Y-27470328D01*
X113104671Y-119450549D02*
X113094025Y-119403138D01*
X101642206Y-20076495D02*
X101631445Y-20081265D01*
X145474450Y-117729671D02*
X145521861Y-117719025D01*
X195970295Y-120201605D02*
X195969874Y-120201353D01*
X120549637Y-118311144D02*
X120567125Y-118356480D01*
X155350362Y-25611144D02*
X155370053Y-25566721D01*
X176986144Y-27424637D02*
X176941721Y-27404946D01*
X151572380Y-120157368D02*
X151525549Y-120170328D01*
X101926768Y-125194857D02*
X101927256Y-125194905D01*
X151382036Y-117704770D02*
X151430262Y-117710718D01*
X119683576Y-120198804D02*
X119634877Y-120200000D01*
X109818539Y-118025158D02*
X109850278Y-118061952D01*
X176898318Y-27383099D02*
X176856039Y-27359148D01*
X155931480Y-117757874D02*
X155977619Y-117742631D01*
X141695328Y-25749450D02*
X141705974Y-25796861D01*
X187491721Y-27404946D02*
X187448318Y-27383099D01*
X183524740Y-120005173D02*
X183485012Y-120033152D01*
X101029213Y-20914240D02*
X101025602Y-20987742D01*
X195962972Y-24999996D02*
X195965190Y-24999942D01*
X123791847Y-118139987D02*
X123819826Y-118100259D01*
X101143231Y-124671036D02*
X101143462Y-124671469D01*
X177219737Y-120189281D02*
X177171861Y-120180974D01*
X172384877Y-25000000D02*
X172433576Y-25001195D01*
X140832036Y-25004770D02*
X140880262Y-25010718D01*
X113777619Y-120157368D02*
X113731480Y-120142125D01*
X183524740Y-117894826D02*
X183563047Y-117924721D01*
X119968519Y-25057874D02*
X120013855Y-25075362D01*
X141714281Y-119355262D02*
X141705974Y-119403138D01*
X156119737Y-117710718D02*
X156167963Y-117704770D01*
X101025057Y-120209809D02*
X101025003Y-120212027D01*
X141723804Y-118641423D02*
X141725000Y-118690122D01*
X144891847Y-118139987D02*
X144919826Y-118100259D01*
X195965681Y-24999918D02*
X195966169Y-24999870D01*
X176385718Y-119355262D02*
X176379770Y-119307036D01*
X176432874Y-26843519D02*
X176417631Y-26797380D01*
X124517963Y-27495229D02*
X124469737Y-27489281D01*
X155276195Y-119258576D02*
X155275000Y-119209877D01*
X123682874Y-25656480D02*
X123700362Y-25611144D01*
X145521861Y-120180974D02*
X145474450Y-120170328D01*
X124374450Y-25029671D02*
X124421861Y-25019025D01*
X120605974Y-26703138D02*
X120595328Y-26750549D01*
X144981460Y-27174841D02*
X144949721Y-27138047D01*
X145050158Y-117956460D02*
X145086952Y-117924721D01*
X124236144Y-25075362D02*
X124281480Y-25057874D01*
X151985033Y-27210033D02*
X151949841Y-27243539D01*
X195856537Y-124671469D02*
X195856768Y-124671036D01*
X141158278Y-120104946D02*
X141113855Y-120124637D01*
X144981460Y-118025158D02*
X145014966Y-117989966D01*
X101034318Y-117699918D02*
X101034809Y-117699942D01*
X152273804Y-26558576D02*
X152270229Y-26607036D01*
X145336144Y-25075362D02*
X145381480Y-25057874D01*
X140975549Y-25029671D02*
X141022380Y-25042631D01*
X144800362Y-119588855D02*
X144782874Y-119543519D01*
X176491900Y-118223318D02*
X176515851Y-118181039D01*
X101653641Y-20072071D02*
X101642659Y-20076307D01*
X155304671Y-119450549D02*
X155294025Y-119403138D01*
X155756039Y-117840851D02*
X155798318Y-117816900D01*
X155564966Y-25289966D02*
X155600158Y-25256460D01*
X123741900Y-119676681D02*
X123720053Y-119633278D01*
X183599841Y-119943539D02*
X183563047Y-119975278D01*
X120299841Y-117956460D02*
X120335033Y-117989966D01*
X195903014Y-20628871D02*
X195902928Y-20628641D01*
X151525549Y-25029671D02*
X151572380Y-25042631D01*
X195962727Y-120200000D02*
X187915122Y-120200000D01*
X101027170Y-24996097D02*
X101027482Y-24996477D01*
X123654671Y-25749450D02*
X123667631Y-25702619D01*
X183175549Y-120170328D02*
X183128138Y-120180974D01*
X123950158Y-25256460D02*
X123986952Y-25224721D01*
X152264281Y-119355262D02*
X152255974Y-119403138D01*
X144725000Y-26509877D02*
X144725000Y-25990122D01*
X186982874Y-25656480D02*
X187000362Y-25611144D01*
X145569737Y-120189281D02*
X145521861Y-120180974D01*
X124025259Y-120005173D02*
X123986952Y-119975278D01*
X187041900Y-119676681D02*
X187020053Y-119633278D01*
X187915122Y-27500000D02*
X187866423Y-27498804D01*
X141113855Y-25075362D02*
X141158278Y-25095053D01*
X101097071Y-124571358D02*
X101101307Y-124582340D01*
X110045328Y-119450549D02*
X110032368Y-119497380D01*
X145569737Y-27489281D02*
X145521861Y-27480974D01*
X151835012Y-27333152D02*
X151793960Y-27359148D01*
X101068422Y-124490431D02*
X101072114Y-124501607D01*
X195967612Y-24999583D02*
X195968082Y-24999440D01*
X152050278Y-118061952D02*
X152080173Y-118100259D01*
X109508278Y-120104946D02*
X109463855Y-120124637D01*
X124615122Y-25000000D02*
X140734877Y-25000000D01*
X113215851Y-118181039D02*
X113241847Y-118139987D01*
X183905974Y-119403138D02*
X183895328Y-119450549D01*
X173118539Y-119874841D02*
X173085033Y-119910033D01*
X101034809Y-27500057D02*
X101034318Y-27500081D01*
X173370229Y-26607036D02*
X173364281Y-26655262D01*
X173208152Y-27060012D02*
X173180173Y-27099740D01*
X173085033Y-25289966D02*
X173118539Y-25325158D01*
X110070229Y-25892963D02*
X110073804Y-25941423D01*
X183784148Y-119718960D02*
X183758152Y-119760012D01*
X110045328Y-118449450D02*
X110055974Y-118496861D01*
X101459771Y-20175697D02*
X101459572Y-20175841D01*
X101025724Y-120206455D02*
X101025559Y-120206917D01*
X195968544Y-120200724D02*
X195968082Y-120200559D01*
X145206039Y-117840851D02*
X145248318Y-117816900D01*
X182983576Y-25001195D02*
X183032036Y-25004770D01*
X145336144Y-120124637D02*
X145291721Y-120104946D01*
X183485012Y-27333152D02*
X183443960Y-27359148D01*
X101653871Y-125128014D02*
X101723160Y-125152805D01*
X109418519Y-117757874D02*
X109463855Y-117775362D01*
X109635012Y-120033152D02*
X109593960Y-120059148D01*
X113641721Y-120104946D02*
X113598318Y-120083099D01*
X187364987Y-117866847D02*
X187406039Y-117840851D01*
X120335033Y-117989966D02*
X120368539Y-118025158D01*
X101149264Y-124681711D02*
X101149388Y-124681923D01*
X195346358Y-20072071D02*
X195346128Y-20071985D01*
X101026122Y-27505558D02*
X101025912Y-27506002D01*
X195265431Y-125156577D02*
X195276607Y-125152885D01*
X102037272Y-20000000D02*
X102037027Y-20000003D01*
X183485012Y-117866847D02*
X183524740Y-117894826D01*
X141530173Y-119799740D02*
X141500278Y-119838047D01*
X195965190Y-24999942D02*
X195965681Y-24999918D01*
X123791847Y-119760012D02*
X123765851Y-119718960D01*
X183920229Y-25892963D02*
X183923804Y-25941423D01*
X187119826Y-25400259D02*
X187149721Y-25361952D01*
X176569826Y-119799740D02*
X176541847Y-119760012D01*
X141068519Y-117757874D02*
X141113855Y-117775362D01*
X183914281Y-25844737D02*
X183920229Y-25892963D01*
X120458152Y-119760012D02*
X120430173Y-119799740D01*
X195970295Y-24998394D02*
X195970703Y-24998121D01*
X156071861Y-27480974D02*
X156024450Y-27470328D01*
X187325259Y-120005173D02*
X187286952Y-119975278D01*
X195974702Y-27507863D02*
X195974583Y-27507387D01*
X187091847Y-118139987D02*
X187119826Y-118100259D01*
X145381480Y-25057874D02*
X145427619Y-25042631D01*
X173375000Y-25990122D02*
X173375000Y-26509877D01*
X176736952Y-25224721D02*
X176775259Y-25194826D01*
X120299841Y-25256460D02*
X120335033Y-25289966D01*
X113400158Y-25256460D02*
X113436952Y-25224721D01*
X187250158Y-119943539D02*
X187214966Y-119910033D01*
X144865851Y-119718960D02*
X144841900Y-119676681D01*
X109372380Y-117742631D02*
X109418519Y-117757874D01*
X195972517Y-120203522D02*
X195972188Y-120203159D01*
X101390989Y-20227069D02*
X101390610Y-20227380D01*
X172530262Y-120189281D02*
X172482036Y-120195229D01*
X195952860Y-20793243D02*
X195952803Y-20793005D01*
X151985033Y-119910033D02*
X151949841Y-119943539D01*
X195346128Y-20071985D02*
X195276839Y-20047194D01*
X195181756Y-125177860D02*
X195181994Y-125177803D01*
X101033344Y-27500201D02*
X101032863Y-27500297D01*
X155756039Y-25140851D02*
X155798318Y-25116900D01*
X195974942Y-117690190D02*
X195974996Y-117687972D01*
X187214966Y-25289966D02*
X187250158Y-25256460D01*
X120368539Y-25325158D02*
X120400278Y-25361952D01*
X101033344Y-117699798D02*
X101033830Y-117699870D01*
X195690181Y-20301806D02*
X195682065Y-20293281D01*
X195973121Y-27504296D02*
X195972829Y-27503902D01*
X151430262Y-25010718D02*
X151478138Y-25019025D01*
X155977619Y-120157368D02*
X155931480Y-120142125D01*
X101829728Y-125180438D02*
X101830209Y-125180534D01*
X109182036Y-120195229D02*
X109133576Y-120198804D01*
X101068279Y-20710038D02*
X101065140Y-20721382D01*
X155276195Y-26558576D02*
X155275000Y-26509877D01*
X152270229Y-118592963D02*
X152273804Y-118641423D01*
X187041900Y-25523318D02*
X187065851Y-25481039D01*
X186925000Y-25990122D02*
X186926195Y-25941423D01*
X173258099Y-118223318D02*
X173279946Y-118266721D01*
X141363047Y-117924721D02*
X141399841Y-117956460D01*
X151751681Y-117816900D02*
X151793960Y-117840851D01*
X195968082Y-117699440D02*
X195968544Y-117699275D01*
X119683576Y-117701195D02*
X119732036Y-117704770D01*
X109084877Y-120200000D02*
X101037272Y-120200000D01*
X183808099Y-25523318D02*
X183829946Y-25566721D01*
X124191721Y-25095053D02*
X124236144Y-25075362D01*
X195969441Y-117698877D02*
X195969874Y-117698646D01*
X109958099Y-25523318D02*
X109979946Y-25566721D01*
X124374450Y-27470328D02*
X124327619Y-27457368D01*
X144754671Y-118449450D02*
X144767631Y-118402619D01*
X119828138Y-117719025D02*
X119875549Y-117729671D01*
X183563047Y-25224721D02*
X183599841Y-25256460D01*
X124327619Y-25042631D02*
X124374450Y-25029671D01*
X120263047Y-117924721D02*
X120299841Y-117956460D01*
X152199637Y-118311144D02*
X152217125Y-118356480D01*
X156024450Y-117729671D02*
X156071861Y-117719025D01*
X176385718Y-118544737D02*
X176394025Y-118496861D01*
X113641721Y-27404946D02*
X113598318Y-27383099D01*
X144891847Y-25439987D02*
X144919826Y-25400259D01*
X151284877Y-120200000D02*
X145715122Y-120200000D01*
X195970771Y-20913995D02*
X195969905Y-20902256D01*
X109749841Y-119943539D02*
X109713047Y-119975278D01*
X195346128Y-125128014D02*
X195346358Y-125127928D01*
X152217125Y-25656480D02*
X152232368Y-25702619D01*
X195681718Y-124907065D02*
X195682065Y-124906718D01*
X183829946Y-119633278D02*
X183808099Y-119676681D01*
X152245328Y-118449450D02*
X152255974Y-118496861D01*
X113076195Y-25941423D02*
X113079770Y-25892963D01*
X109084877Y-117700000D02*
X109133576Y-117701195D01*
X144919826Y-27099740D02*
X144891847Y-27060012D01*
X195158193Y-20017452D02*
X195157950Y-20017413D01*
X152199637Y-25611144D02*
X152217125Y-25656480D01*
X195520043Y-125037778D02*
X195520252Y-125037650D01*
X152080173Y-25400259D02*
X152108152Y-25439987D01*
X195084913Y-20006582D02*
X195073231Y-20005142D01*
X113556039Y-120059148D02*
X113514987Y-120033152D01*
X101028159Y-27502811D02*
X101027811Y-27503159D01*
X119634877Y-25000000D02*
X119683576Y-25001195D01*
X194987257Y-125199397D02*
X195060759Y-125195786D01*
X173234148Y-119718960D02*
X173208152Y-119760012D01*
X141682368Y-118402619D02*
X141695328Y-118449450D01*
X187448318Y-25116900D02*
X187491721Y-25095053D01*
X195969874Y-117698646D02*
X195970295Y-117698394D01*
X144729770Y-25892963D02*
X144735718Y-25844737D01*
X140975549Y-120170328D02*
X140928138Y-120180974D01*
X110017125Y-25656480D02*
X110032368Y-25702619D01*
X113269826Y-119799740D02*
X113241847Y-119760012D01*
X144919826Y-118100259D02*
X144949721Y-118061952D01*
X195972517Y-24996477D02*
X195972829Y-24996097D01*
X187769737Y-117710718D02*
X187817963Y-117704770D01*
X101106265Y-20606445D02*
X101101495Y-20617206D01*
X141558152Y-27060012D02*
X141530173Y-27099740D01*
X195974397Y-124212257D02*
X195974406Y-124212012D01*
X187250158Y-117956460D02*
X187286952Y-117924721D01*
X101927256Y-125194905D02*
X101938995Y-125195771D01*
X140880262Y-25010718D02*
X140928138Y-25019025D01*
X101938995Y-20004228D02*
X101927256Y-20005094D01*
X152232368Y-118402619D02*
X152245328Y-118449450D01*
X110055974Y-118496861D02*
X110064281Y-118544737D01*
X109182036Y-25004770D02*
X109230262Y-25010718D01*
X141649637Y-119588855D02*
X141629946Y-119633278D01*
X195974870Y-120208830D02*
X195974798Y-120208344D01*
X113777619Y-27457368D02*
X113731480Y-27442125D01*
X124327619Y-117742631D02*
X124374450Y-117729671D01*
X187448318Y-27383099D02*
X187406039Y-27359148D01*
X195898504Y-20617206D02*
X195893734Y-20606445D01*
X145291721Y-120104946D02*
X145248318Y-120083099D01*
X101032863Y-24999702D02*
X101033344Y-24999798D01*
X101381697Y-20235068D02*
X101381513Y-20235231D01*
X113871861Y-25019025D02*
X113919737Y-25010718D01*
X140880262Y-27489281D02*
X140832036Y-27495229D01*
X183758152Y-119760012D02*
X183730173Y-119799740D01*
X195967136Y-24999702D02*
X195967612Y-24999583D01*
X187866423Y-27498804D02*
X187817963Y-27495229D01*
X155798318Y-27383099D02*
X155756039Y-27359148D01*
X101200841Y-20434572D02*
X101200697Y-20434771D01*
X176450362Y-26888855D02*
X176432874Y-26843519D01*
X101252380Y-124834389D02*
X101260068Y-124843302D01*
X113777619Y-25042631D02*
X113824450Y-25029671D01*
X176376195Y-118641423D02*
X176379770Y-118592963D01*
X151913047Y-119975278D02*
X151874740Y-120005173D01*
X195970703Y-120201878D02*
X195970295Y-120201605D01*
X195974440Y-27506917D02*
X195974275Y-27506455D01*
X141714281Y-25844737D02*
X141720229Y-25892963D01*
X109850278Y-118061952D02*
X109880173Y-118100259D01*
X152080173Y-119799740D02*
X152050278Y-119838047D01*
X186935718Y-26655262D02*
X186929770Y-26607036D01*
X101381513Y-20235231D02*
X101326986Y-20284651D01*
X101025201Y-24991655D02*
X101025297Y-24992136D01*
X123720053Y-26933278D02*
X123700362Y-26888855D01*
X119634877Y-120200000D02*
X114065122Y-120200000D01*
X156167963Y-120195229D02*
X156119737Y-120189281D01*
X173373804Y-118641423D02*
X173375000Y-118690122D01*
X101326806Y-20284818D02*
X101318281Y-20292934D01*
X183128138Y-25019025D02*
X183175549Y-25029671D01*
X183599841Y-117956460D02*
X183635033Y-117989966D01*
X113215851Y-119718960D02*
X113191900Y-119676681D01*
X101553963Y-20118231D02*
X101553530Y-20118462D01*
X141068519Y-27442125D02*
X141022380Y-27457368D01*
X120013855Y-117775362D02*
X120058278Y-117795053D01*
X195974275Y-24993544D02*
X195974440Y-24993082D01*
X173085033Y-117989966D02*
X173118539Y-118025158D01*
X101025129Y-24991169D02*
X101025201Y-24991655D01*
X187149721Y-118061952D02*
X187181460Y-118025158D01*
X101037027Y-24999996D02*
X101037272Y-25000000D01*
X120185012Y-25166847D02*
X120224740Y-25194826D01*
X109674740Y-120005173D02*
X109635012Y-120033152D01*
X155499721Y-25361952D02*
X155531460Y-25325158D01*
X101939240Y-20004213D02*
X101938995Y-20004228D01*
X120620229Y-119307036D02*
X120614281Y-119355262D01*
X183222380Y-120157368D02*
X183175549Y-120170328D01*
X195806080Y-124755605D02*
X195806352Y-124755197D01*
X195971477Y-120202482D02*
X195971097Y-120202170D01*
X183128138Y-117719025D02*
X183175549Y-117729671D01*
X176385718Y-25844737D02*
X176394025Y-25796861D01*
X155441847Y-27060012D02*
X155415851Y-27018960D01*
X120582368Y-26797380D02*
X120567125Y-26843519D01*
X173180173Y-25400259D02*
X173208152Y-25439987D01*
X183758152Y-25439987D02*
X183784148Y-25481039D01*
X109934148Y-119718960D02*
X109908152Y-119760012D01*
X195755172Y-20375268D02*
X195747930Y-20365989D01*
X113919737Y-117710718D02*
X113967963Y-117704770D01*
X155370053Y-119633278D02*
X155350362Y-119588855D01*
X140832036Y-117704770D02*
X140880262Y-117710718D01*
X187627619Y-117742631D02*
X187674450Y-117729671D01*
X152050278Y-27138047D02*
X152018539Y-27174841D01*
X141399841Y-119943539D02*
X141363047Y-119975278D01*
X145569737Y-117710718D02*
X145617963Y-117704770D01*
X123626195Y-26558576D02*
X123625000Y-26509877D01*
X141500278Y-119838047D02*
X141468539Y-119874841D01*
X102037272Y-125200000D02*
X194962727Y-125200000D01*
X152108152Y-118139987D02*
X152134148Y-118181039D01*
X120458152Y-118139987D02*
X120484148Y-118181039D01*
X120013855Y-25075362D02*
X120058278Y-25095053D01*
X187364987Y-27333152D02*
X187325259Y-27305173D01*
X176515851Y-27018960D02*
X176491900Y-26976681D01*
X177365122Y-25000000D02*
X182934877Y-25000000D01*
X101479956Y-20162221D02*
X101479747Y-20162349D01*
X101042452Y-20816806D02*
X101042413Y-20817049D01*
X101030125Y-24998646D02*
X101030558Y-24998877D01*
X123881460Y-27174841D02*
X123849721Y-27138047D01*
X152158099Y-25523318D02*
X152179946Y-25566721D01*
X101031917Y-117699440D02*
X101032387Y-117699583D01*
X101032863Y-117699702D02*
X101033344Y-117699798D01*
X109418519Y-25057874D02*
X109463855Y-25075362D01*
X109230262Y-25010718D02*
X109278138Y-25019025D01*
X120614281Y-118544737D02*
X120620229Y-118592963D01*
X187325259Y-25194826D02*
X187364987Y-25166847D01*
X183758152Y-118139987D02*
X183784148Y-118181039D01*
X123629770Y-118592963D02*
X123635718Y-118544737D01*
X176856039Y-120059148D02*
X176814987Y-120033152D01*
X155275000Y-119209877D02*
X155275000Y-118690122D01*
X101260068Y-20356697D02*
X101252380Y-20365610D01*
X141558152Y-25439987D02*
X141584148Y-25481039D01*
X101029704Y-27501605D02*
X101029296Y-27501878D01*
X195520043Y-20162221D02*
X195456923Y-20124388D01*
X101030142Y-124298231D02*
X101031582Y-124309913D01*
X187000362Y-25611144D02*
X187020053Y-25566721D01*
X183080262Y-25010718D02*
X183128138Y-25019025D01*
X101025057Y-24990190D02*
X101025081Y-24990681D01*
X101101307Y-124582340D02*
X101101495Y-124582793D01*
X141022380Y-27457368D02*
X140975549Y-27470328D01*
X124148318Y-25116900D02*
X124191721Y-25095053D01*
X109508278Y-27404946D02*
X109463855Y-27424637D01*
X120185012Y-120033152D02*
X120143960Y-120059148D01*
X195974918Y-120209318D02*
X195974870Y-120208830D01*
X172893960Y-117840851D02*
X172935012Y-117866847D01*
X145050158Y-27243539D02*
X145014966Y-27210033D01*
X176700158Y-117956460D02*
X176736952Y-117924721D01*
X123629770Y-26607036D02*
X123626195Y-26558576D01*
X182983576Y-120198804D02*
X182934877Y-120200000D01*
X195974918Y-27509318D02*
X195974870Y-27508830D01*
X101137939Y-124660523D02*
X101143231Y-124671036D01*
X176491900Y-26976681D02*
X176470053Y-26933278D01*
X110073804Y-118641423D02*
X110075000Y-118690122D01*
X109463855Y-117775362D02*
X109508278Y-117795053D01*
X151708278Y-120104946D02*
X151663855Y-120124637D01*
X141720229Y-119307036D02*
X141714281Y-119355262D01*
X101029213Y-124285759D02*
X101029228Y-124286004D01*
X101044561Y-20804728D02*
X101044465Y-20805209D01*
X195682065Y-124906718D02*
X195690181Y-124898193D01*
X155636952Y-119975278D02*
X155600158Y-119943539D01*
X109934148Y-25481039D02*
X109958099Y-25523318D01*
X183668539Y-27174841D02*
X183635033Y-27210033D01*
X101037272Y-25000000D02*
X109084877Y-25000000D01*
X101028522Y-117697517D02*
X101028902Y-117697829D01*
X176599721Y-119838047D02*
X176569826Y-119799740D01*
X187286952Y-119975278D02*
X187250158Y-119943539D01*
X120058278Y-120104946D02*
X120013855Y-120124637D01*
X144735718Y-26655262D02*
X144729770Y-26607036D01*
X124191721Y-117795053D02*
X124236144Y-117775362D01*
X155294025Y-25796861D02*
X155304671Y-25749450D01*
X155636952Y-25224721D02*
X155675259Y-25194826D01*
X172433576Y-25001195D02*
X172482036Y-25004770D01*
X101723392Y-125152885D02*
X101734568Y-125156577D01*
X183358278Y-27404946D02*
X183313855Y-27424637D01*
X101914843Y-125193383D02*
X101915086Y-125193417D01*
X101137831Y-124660302D02*
X101137939Y-124660523D01*
X101047139Y-20793243D02*
X101044561Y-20804728D01*
X183032036Y-25004770D02*
X183080262Y-25010718D01*
X101025724Y-117693544D02*
X101025912Y-117693997D01*
X173364281Y-119355262D02*
X173355974Y-119403138D01*
X195962727Y-117700000D02*
X195962972Y-117699996D01*
X173317125Y-26843519D02*
X173299637Y-26888855D01*
X120224740Y-25194826D02*
X120263047Y-25224721D01*
X120263047Y-119975278D02*
X120224740Y-120005173D01*
X195955438Y-124395271D02*
X195955534Y-124394790D01*
X141068519Y-25057874D02*
X141113855Y-25075362D01*
X101068422Y-20709568D02*
X101068279Y-20710038D01*
X173373804Y-26558576D02*
X173370229Y-26607036D01*
X176394025Y-118496861D02*
X176404671Y-118449450D01*
X113364966Y-119910033D02*
X113331460Y-119874841D01*
X187406039Y-120059148D02*
X187364987Y-120033152D01*
X151333576Y-117701195D02*
X151382036Y-117704770D01*
X155415851Y-119718960D02*
X155391900Y-119676681D01*
X102012987Y-125199406D02*
X102037027Y-125199996D01*
X109749841Y-117956460D02*
X109785033Y-117989966D01*
X123881460Y-118025158D02*
X123914966Y-117989966D01*
X101309651Y-20301986D02*
X101260231Y-20356513D01*
X195971840Y-120202811D02*
X195971477Y-120202482D01*
X172718519Y-25057874D02*
X172763855Y-25075362D01*
X120299841Y-119943539D02*
X120263047Y-119975278D01*
X109133576Y-27498804D02*
X109084877Y-27500000D01*
X141324740Y-117894826D02*
X141363047Y-117924721D01*
X186926195Y-119258576D02*
X186925000Y-119209877D01*
X195974996Y-124187972D02*
X195975000Y-124187727D01*
X155332874Y-25656480D02*
X155350362Y-25611144D01*
X109785033Y-117989966D02*
X109818539Y-118025158D01*
X195974942Y-24990190D02*
X195974996Y-24987972D01*
X113475259Y-120005173D02*
X113436952Y-119975278D01*
X113117631Y-26797380D02*
X113104671Y-26750549D01*
X144800362Y-25611144D02*
X144820053Y-25566721D01*
X101032863Y-27500297D02*
X101032387Y-27500416D01*
X120567125Y-119543519D02*
X120549637Y-119588855D01*
X101025912Y-24993997D02*
X101026122Y-24994441D01*
X155332874Y-118356480D02*
X155350362Y-118311144D01*
X123791847Y-25439987D02*
X123819826Y-25400259D01*
X155276195Y-118641423D02*
X155279770Y-118592963D01*
X187214966Y-27210033D02*
X187181460Y-27174841D01*
X151284877Y-25000000D02*
X151333576Y-25001195D01*
X155391900Y-26976681D02*
X155370053Y-26933278D01*
X151913047Y-117924721D02*
X151949841Y-117956460D01*
X141695328Y-119450549D02*
X141682368Y-119497380D01*
X141022380Y-120157368D02*
X140975549Y-120170328D01*
X187091847Y-25439987D02*
X187119826Y-25400259D01*
X144949721Y-27138047D02*
X144919826Y-27099740D01*
X155469826Y-118100259D02*
X155499721Y-118061952D01*
X177031480Y-117757874D02*
X177077619Y-117742631D01*
X144841900Y-25523318D02*
X144865851Y-25481039D01*
X141435033Y-27210033D02*
X141399841Y-27243539D01*
X101096985Y-124571128D02*
X101097071Y-124571358D01*
X141399841Y-25256460D02*
X141435033Y-25289966D01*
X176631460Y-119874841D02*
X176599721Y-119838047D01*
X177031480Y-120142125D02*
X176986144Y-120124637D01*
X194962972Y-125199996D02*
X194987012Y-125199406D01*
X183758152Y-27060012D02*
X183730173Y-27099740D01*
X155317631Y-26797380D02*
X155304671Y-26750549D01*
X113731480Y-117757874D02*
X113777619Y-117742631D01*
X145248318Y-117816900D02*
X145291721Y-117795053D01*
X151835012Y-25166847D02*
X151874740Y-25194826D01*
X110073804Y-26558576D02*
X110070229Y-26607036D01*
X155977619Y-27457368D02*
X155931480Y-27442125D01*
X183808099Y-26976681D02*
X183784148Y-27018960D01*
X101026605Y-120204704D02*
X101026353Y-120205125D01*
X123741900Y-26976681D02*
X123720053Y-26933278D01*
X144725000Y-119209877D02*
X144725000Y-118690122D01*
X177316423Y-25001195D02*
X177365122Y-25000000D01*
X101029296Y-24998121D02*
X101029704Y-24998394D01*
X152273804Y-25941423D02*
X152275000Y-25990122D01*
X124327619Y-120157368D02*
X124281480Y-120142125D01*
X123654671Y-26750549D02*
X123644025Y-26703138D01*
X186926195Y-25941423D02*
X186929770Y-25892963D01*
X195682065Y-20293281D02*
X195681718Y-20292934D01*
X195974702Y-24992136D02*
X195974798Y-24991655D01*
X176814987Y-25166847D02*
X176856039Y-25140851D01*
X101025297Y-117692136D02*
X101025416Y-117692612D01*
X187491721Y-120104946D02*
X187448318Y-120083099D01*
X195966169Y-27500129D02*
X195965681Y-27500081D01*
X151708278Y-25095053D02*
X151751681Y-25116900D01*
X176417631Y-25702619D02*
X176432874Y-25656480D01*
X195974406Y-20987987D02*
X195974397Y-20987742D01*
X101939240Y-125195786D02*
X102012742Y-125199397D01*
X101027811Y-117696840D02*
X101028159Y-117697188D01*
X123986952Y-117924721D02*
X124025259Y-117894826D01*
X183925000Y-26509877D02*
X183923804Y-26558576D01*
X101025559Y-24993082D02*
X101025724Y-24993544D01*
X101047139Y-124406756D02*
X101047196Y-124406994D01*
X152050278Y-25361952D02*
X152080173Y-25400259D01*
X101025602Y-124212257D02*
X101029213Y-124285759D01*
X187915122Y-117700000D02*
X195962727Y-117700000D01*
X101326986Y-20284651D02*
X101326806Y-20284818D01*
X195755172Y-124824731D02*
X195755321Y-124824535D01*
X113919737Y-27489281D02*
X113871861Y-27480974D01*
X123625000Y-26509877D02*
X123625000Y-25990122D01*
X151663855Y-120124637D02*
X151618519Y-120142125D01*
X141363047Y-119975278D02*
X141324740Y-120005173D01*
X195673193Y-20284818D02*
X195673013Y-20284651D01*
X195974870Y-117691169D02*
X195974918Y-117690681D01*
X113241847Y-118139987D02*
X113269826Y-118100259D01*
X110064281Y-25844737D02*
X110070229Y-25892963D01*
X151985033Y-25289966D02*
X152018539Y-25325158D01*
X101026353Y-24994874D02*
X101026605Y-24995295D01*
X101029228Y-20913995D02*
X101029213Y-20914240D01*
X155317631Y-119497380D02*
X155304671Y-119450549D01*
X113686144Y-25075362D02*
X113731480Y-25057874D01*
X124327619Y-27457368D02*
X124281480Y-27442125D01*
X113215851Y-25481039D02*
X113241847Y-25439987D01*
X101143231Y-20528963D02*
X101137939Y-20539476D01*
X140975549Y-117729671D02*
X141022380Y-117742631D01*
X151913047Y-27275278D02*
X151874740Y-27305173D01*
X113079770Y-25892963D02*
X113085718Y-25844737D01*
X183905974Y-26703138D02*
X183895328Y-26750549D01*
X120595328Y-25749450D02*
X120605974Y-25796861D01*
X195968997Y-120200912D02*
X195968544Y-120200724D01*
X113132874Y-25656480D02*
X113150362Y-25611144D01*
X124566423Y-27498804D02*
X124517963Y-27495229D01*
X120101681Y-27383099D02*
X120058278Y-27404946D01*
X176986144Y-120124637D02*
X176941721Y-120104946D01*
X110070229Y-26607036D02*
X110064281Y-26655262D01*
X195934922Y-20721619D02*
X195934859Y-20721382D01*
X155600158Y-27243539D02*
X155564966Y-27210033D01*
X101025129Y-117691169D02*
X101025201Y-117691655D01*
X176375000Y-119209877D02*
X176375000Y-118690122D01*
X152080173Y-118100259D02*
X152108152Y-118139987D01*
X101027482Y-27503522D02*
X101027170Y-27503902D01*
X176736952Y-119975278D02*
X176700158Y-119943539D01*
X113076195Y-118641423D02*
X113079770Y-118592963D01*
X152018539Y-118025158D02*
X152050278Y-118061952D01*
X113871861Y-120180974D02*
X113824450Y-120170328D01*
X101841806Y-125182547D02*
X101842049Y-125182586D01*
X186925000Y-118690122D02*
X186926195Y-118641423D01*
X101025912Y-117693997D02*
X101026122Y-117694441D01*
X109958099Y-118223318D02*
X109979946Y-118266721D01*
X144919826Y-119799740D02*
X144891847Y-119760012D01*
X176376195Y-25941423D02*
X176379770Y-25892963D01*
X187250158Y-25256460D02*
X187286952Y-25224721D01*
X109999637Y-119588855D02*
X109979946Y-119633278D01*
X109850278Y-25361952D02*
X109880173Y-25400259D01*
X187286952Y-117924721D02*
X187325259Y-117894826D01*
X119634877Y-27500000D02*
X114065122Y-27500000D01*
X195974583Y-24992612D02*
X195974702Y-24992136D01*
X120143960Y-25140851D02*
X120185012Y-25166847D01*
X113085718Y-118544737D02*
X113094025Y-118496861D01*
X176404671Y-26750549D02*
X176394025Y-26703138D01*
X195971477Y-27502482D02*
X195971097Y-27502170D01*
X195931577Y-20709568D02*
X195927885Y-20698392D01*
X155756039Y-120059148D02*
X155714987Y-120033152D01*
X101044561Y-124395271D02*
X101047139Y-124406756D01*
X195927805Y-20698160D02*
X195903014Y-20628871D01*
X176450362Y-25611144D02*
X176470053Y-25566721D01*
X120620229Y-25892963D02*
X120623804Y-25941423D01*
X120549637Y-25611144D02*
X120567125Y-25656480D01*
X172578138Y-27480974D02*
X172530262Y-27489281D01*
X195974996Y-120212027D02*
X195974942Y-120209809D01*
X155714987Y-117866847D02*
X155756039Y-117840851D01*
X195955534Y-20805209D02*
X195955438Y-20804728D01*
X123986952Y-25224721D02*
X124025259Y-25194826D01*
X101842049Y-20017413D02*
X101841806Y-20017452D01*
X141720229Y-118592963D02*
X141723804Y-118641423D01*
X101459572Y-125024158D02*
X101459771Y-125024302D01*
X195755321Y-20375464D02*
X195755172Y-20375268D01*
X186982874Y-26843519D02*
X186967631Y-26797380D01*
X177267963Y-27495229D02*
X177219737Y-27489281D01*
X141558152Y-118139987D02*
X141584148Y-118181039D01*
X155798318Y-25116900D02*
X155841721Y-25095053D01*
X113132874Y-26843519D02*
X113117631Y-26797380D01*
X182983576Y-27498804D02*
X182934877Y-27500000D01*
X144981460Y-119874841D02*
X144949721Y-119838047D01*
X101553530Y-20118462D02*
X101543288Y-20124264D01*
X113871861Y-117719025D02*
X113919737Y-117710718D01*
X187627619Y-25042631D02*
X187674450Y-25029671D01*
X141723804Y-25941423D02*
X141725000Y-25990122D01*
X176941721Y-25095053D02*
X176986144Y-25075362D01*
X173208152Y-119760012D02*
X173180173Y-119799740D01*
X101543288Y-125075735D02*
X101553530Y-125081537D01*
X195970703Y-24998121D02*
X195971097Y-24997829D01*
X113731480Y-120142125D02*
X113686144Y-120124637D01*
X101072194Y-124501839D02*
X101096985Y-124571128D01*
X195974583Y-120207387D02*
X195974440Y-120206917D01*
X195084913Y-125193417D02*
X195085156Y-125193383D01*
X187627619Y-27457368D02*
X187581480Y-27442125D01*
X101065140Y-20721382D02*
X101065077Y-20721619D01*
X195755321Y-124824535D02*
X195799158Y-124765427D01*
X123644025Y-25796861D02*
X123654671Y-25749450D01*
X110073804Y-119258576D02*
X110070229Y-119307036D01*
X183443960Y-27359148D02*
X183401681Y-27383099D01*
X195975000Y-27512272D02*
X195974996Y-27512027D01*
X195962727Y-27500000D02*
X187915122Y-27500000D01*
X177124450Y-27470328D02*
X177077619Y-27457368D01*
X172672380Y-117742631D02*
X172718519Y-117757874D01*
X195952860Y-124406756D02*
X195955438Y-124395271D01*
X120567125Y-118356480D02*
X120582368Y-118402619D01*
X151949841Y-25256460D02*
X151985033Y-25289966D01*
X173345328Y-26750549D02*
X173332368Y-26797380D01*
X113824450Y-120170328D02*
X113777619Y-120157368D01*
X120623804Y-119258576D02*
X120620229Y-119307036D01*
X124469737Y-25010718D02*
X124517963Y-25004770D01*
X195253617Y-20040140D02*
X195253380Y-20040077D01*
X144767631Y-25702619D02*
X144782874Y-25656480D01*
X187181460Y-27174841D02*
X187149721Y-27138047D01*
X183923804Y-25941423D02*
X183925000Y-25990122D01*
X101028902Y-24997829D02*
X101029296Y-24998121D01*
X186929770Y-25892963D02*
X186935718Y-25844737D01*
X155886144Y-117775362D02*
X155931480Y-117757874D01*
X109278138Y-117719025D02*
X109325549Y-117729671D01*
X195966169Y-117699870D02*
X195966655Y-117699798D01*
X120582368Y-118402619D02*
X120595328Y-118449450D01*
X101072194Y-20698160D02*
X101072114Y-20698392D01*
X195973877Y-27505558D02*
X195973646Y-27505125D01*
X173013047Y-119975278D02*
X172974740Y-120005173D01*
X155564966Y-119910033D02*
X155531460Y-119874841D01*
X183849637Y-119588855D02*
X183829946Y-119633278D01*
X152275000Y-26509877D02*
X152273804Y-26558576D01*
X109713047Y-25224721D02*
X109749841Y-25256460D01*
X152179946Y-118266721D02*
X152199637Y-118311144D01*
X183920229Y-119307036D02*
X183914281Y-119355262D01*
X183080262Y-27489281D02*
X183032036Y-27495229D01*
X176385718Y-26655262D02*
X176379770Y-26607036D01*
X101028902Y-120202170D02*
X101028522Y-120202482D01*
X183668539Y-25325158D02*
X183700278Y-25361952D01*
X110070229Y-118592963D02*
X110073804Y-118641423D01*
X144726195Y-119258576D02*
X144725000Y-119209877D01*
X113641721Y-117795053D02*
X113686144Y-117775362D01*
X101926768Y-20005142D02*
X101915086Y-20006582D01*
X151525549Y-117729671D02*
X151572380Y-117742631D01*
X101026122Y-120205558D02*
X101025912Y-120206002D01*
X109785033Y-27210033D02*
X109749841Y-27243539D01*
X176775259Y-120005173D02*
X176736952Y-119975278D01*
X195966655Y-24999798D02*
X195967136Y-24999702D01*
X140783576Y-27498804D02*
X140734877Y-27500000D01*
X101746619Y-20040077D02*
X101746382Y-20040140D01*
X183905974Y-118496861D02*
X183914281Y-118544737D01*
X113824450Y-117729671D02*
X113871861Y-117719025D01*
X176736952Y-117924721D02*
X176775259Y-117894826D01*
X101031582Y-124309913D02*
X101031616Y-124310156D01*
X176599721Y-118061952D02*
X176631460Y-118025158D01*
X141725000Y-118690122D02*
X141725000Y-119209877D01*
X101479956Y-125037778D02*
X101543076Y-125075611D01*
X101027170Y-120203902D02*
X101026878Y-120204296D01*
X183175549Y-25029671D02*
X183222380Y-25042631D01*
X176432874Y-118356480D02*
X176450362Y-118311144D01*
X195085156Y-20006616D02*
X195084913Y-20006582D01*
X195962727Y-25000000D02*
X195962972Y-24999996D01*
X187721861Y-117719025D02*
X187769737Y-117710718D01*
X113094025Y-119403138D02*
X113085718Y-119355262D01*
X195368777Y-20081367D02*
X195368554Y-20081265D01*
X101149264Y-20518288D02*
X101143462Y-20528530D01*
X195972188Y-117696840D02*
X195972517Y-117696477D01*
X195974798Y-120208344D02*
X195974702Y-120207863D01*
X141022380Y-25042631D02*
X141068519Y-25057874D01*
X152108152Y-27060012D02*
X152080173Y-27099740D01*
X144949721Y-118061952D02*
X144981460Y-118025158D01*
X101193647Y-20444802D02*
X101187349Y-20454747D01*
X195965681Y-120200081D02*
X195965190Y-120200057D01*
X120013855Y-120124637D02*
X119968519Y-120142125D01*
X101025129Y-120208830D02*
X101025081Y-120209318D01*
X195974918Y-117690681D02*
X195974942Y-117690190D01*
X195974583Y-27507387D02*
X195974440Y-27506917D01*
X141558152Y-119760012D02*
X141530173Y-119799740D01*
X101025201Y-120208344D02*
X101025129Y-120208830D01*
X173299637Y-118311144D02*
X173317125Y-118356480D01*
X195072743Y-20005094D02*
X195061004Y-20004228D01*
X176898318Y-120083099D02*
X176856039Y-120059148D01*
X195264961Y-125156720D02*
X195265431Y-125156577D01*
X173279946Y-118266721D02*
X173299637Y-118311144D01*
X173208152Y-118139987D02*
X173234148Y-118181039D01*
X151333576Y-27498804D02*
X151284877Y-27500000D01*
X140928138Y-117719025D02*
X140975549Y-117729671D01*
X123819826Y-27099740D02*
X123791847Y-27060012D01*
X119828138Y-27480974D02*
X119780262Y-27489281D01*
X101829728Y-20019561D02*
X101818243Y-20022139D01*
X176664966Y-119910033D02*
X176631460Y-119874841D01*
X141243960Y-27359148D02*
X141201681Y-27383099D01*
X183882368Y-118402619D02*
X183895328Y-118449450D01*
X109880173Y-119799740D02*
X109850278Y-119838047D01*
X119875549Y-117729671D02*
X119922380Y-117742631D01*
X141201681Y-120083099D02*
X141158278Y-120104946D01*
X195276839Y-125152805D02*
X195346128Y-125128014D01*
X110032368Y-25702619D02*
X110045328Y-25749450D01*
X155798318Y-117816900D02*
X155841721Y-117795053D01*
X187041900Y-118223318D02*
X187065851Y-118181039D01*
X195276607Y-20047114D02*
X195265431Y-20043422D01*
X183730173Y-118100259D02*
X183758152Y-118139987D01*
X195974397Y-20987742D02*
X195970786Y-20914240D01*
X195265431Y-20043422D02*
X195264961Y-20043279D01*
X124566423Y-117701195D02*
X124615122Y-117700000D01*
X151572380Y-27457368D02*
X151525549Y-27470328D01*
X195957547Y-20816806D02*
X195955534Y-20805209D01*
X120484148Y-25481039D02*
X120508099Y-25523318D01*
X195673013Y-20284651D02*
X195618486Y-20235231D01*
X120484148Y-118181039D02*
X120508099Y-118223318D01*
X109278138Y-120180974D02*
X109230262Y-120189281D01*
X124236144Y-27424637D02*
X124191721Y-27404946D01*
X172530262Y-117710718D02*
X172578138Y-117719025D01*
X195599731Y-124980172D02*
X195609010Y-124972930D01*
X145086952Y-25224721D02*
X145125259Y-25194826D01*
X101025559Y-27506917D02*
X101025416Y-27507387D01*
X195446469Y-125081537D02*
X195456711Y-125075735D01*
X177124450Y-25029671D02*
X177171861Y-25019025D01*
X183925000Y-119209877D02*
X183923804Y-119258576D01*
X151572380Y-117742631D02*
X151618519Y-117757874D01*
X183829946Y-26933278D02*
X183808099Y-26976681D01*
X195965681Y-27500081D02*
X195965190Y-27500057D01*
X173150278Y-27138047D02*
X173118539Y-27174841D01*
X101938995Y-125195771D02*
X101939240Y-125195786D01*
X177077619Y-120157368D02*
X177031480Y-120142125D01*
X195435523Y-20112939D02*
X195435302Y-20112831D01*
X195972517Y-117696477D02*
X195972829Y-117696097D01*
X101309818Y-124898193D02*
X101317934Y-124906718D01*
X101025602Y-20987742D02*
X101025593Y-20987987D01*
X120224740Y-120005173D02*
X120185012Y-120033152D01*
X183032036Y-120195229D02*
X182983576Y-120198804D01*
X195974870Y-24991169D02*
X195974918Y-24990681D01*
X101025003Y-117687972D02*
X101025057Y-117690190D01*
X152108152Y-25439987D02*
X152134148Y-25481039D01*
X109979946Y-119633278D02*
X109958099Y-119676681D01*
X183401681Y-25116900D02*
X183443960Y-25140851D01*
X141667125Y-26843519D02*
X141649637Y-26888855D01*
X145248318Y-27383099D02*
X145206039Y-27359148D01*
X120400278Y-118061952D02*
X120430173Y-118100259D01*
X173317125Y-25656480D02*
X173332368Y-25702619D01*
X144841900Y-119676681D02*
X144820053Y-119633278D01*
X183867125Y-119543519D02*
X183849637Y-119588855D01*
X141629946Y-119633278D02*
X141608099Y-119676681D01*
X120529946Y-26933278D02*
X120508099Y-26976681D01*
X195974087Y-120206002D02*
X195973877Y-120205558D01*
X109635012Y-117866847D02*
X109674740Y-117894826D01*
X172672380Y-25042631D02*
X172718519Y-25057874D01*
X141629946Y-118266721D02*
X141649637Y-118311144D01*
X113731480Y-25057874D02*
X113777619Y-25042631D01*
X151663855Y-25075362D02*
X151708278Y-25095053D01*
X109593960Y-25140851D02*
X109635012Y-25166847D01*
X183668539Y-119874841D02*
X183635033Y-119910033D01*
X195973877Y-120205558D02*
X195973646Y-120205125D01*
X195799302Y-20434771D02*
X195799158Y-20434572D01*
X101459572Y-20175841D02*
X101400464Y-20219678D01*
X101400268Y-124980172D02*
X101400464Y-124980321D01*
X113170053Y-118266721D02*
X113191900Y-118223318D01*
X195862060Y-124660523D02*
X195862168Y-124660302D01*
X141695328Y-118449450D02*
X141705974Y-118496861D01*
X120623804Y-26558576D02*
X120620229Y-26607036D01*
X195966655Y-117699798D02*
X195967136Y-117699702D01*
X140975549Y-27470328D02*
X140928138Y-27480974D01*
X183895328Y-118449450D02*
X183905974Y-118496861D01*
X144725000Y-25990122D02*
X144726195Y-25941423D01*
X176569826Y-118100259D02*
X176599721Y-118061952D01*
X156024450Y-27470328D02*
X155977619Y-27457368D01*
X183923804Y-26558576D02*
X183920229Y-26607036D01*
X195971097Y-120202170D02*
X195970703Y-120201878D01*
X195739931Y-20356697D02*
X195739768Y-20356513D01*
X124281480Y-27442125D02*
X124236144Y-27424637D01*
X101031002Y-117699087D02*
X101031455Y-117699275D01*
X152217125Y-118356480D02*
X152232368Y-118402619D01*
X155841721Y-25095053D02*
X155886144Y-25075362D01*
X195974996Y-117687972D02*
X195975000Y-117687727D01*
X101915086Y-125193417D02*
X101926768Y-125194857D01*
X141649637Y-118311144D02*
X141667125Y-118356480D01*
X101025559Y-120206917D02*
X101025416Y-120207387D01*
X155531460Y-118025158D02*
X155564966Y-117989966D01*
X152232368Y-25702619D02*
X152245328Y-25749450D01*
X195967136Y-120200297D02*
X195966655Y-120200201D01*
X176404671Y-119450549D02*
X176394025Y-119403138D01*
X113331460Y-25325158D02*
X113364966Y-25289966D01*
X156265122Y-27500000D02*
X156216423Y-27498804D01*
X156071861Y-25019025D02*
X156119737Y-25010718D01*
X155279770Y-26607036D02*
X155276195Y-26558576D01*
X183925000Y-25990122D02*
X183925000Y-26509877D01*
X110075000Y-25990122D02*
X110075000Y-26509877D01*
X101318281Y-20292934D02*
X101317934Y-20293281D01*
X101025416Y-24992612D02*
X101025559Y-24993082D01*
X177316423Y-120198804D02*
X177267963Y-120195229D01*
X141285012Y-27333152D02*
X141243960Y-27359148D01*
X141608099Y-119676681D02*
X141584148Y-119718960D01*
X120143960Y-117840851D02*
X120185012Y-117866847D01*
X109934148Y-27018960D02*
X109908152Y-27060012D01*
X156071861Y-117719025D02*
X156119737Y-117710718D01*
X172974740Y-25194826D02*
X173013047Y-25224721D01*
X151793960Y-117840851D02*
X151835012Y-117866847D01*
X151284877Y-27500000D02*
X145715122Y-27500000D01*
X172763855Y-117775362D02*
X172808278Y-117795053D01*
X195974996Y-24987972D02*
X195975000Y-24987727D01*
X176664966Y-117989966D02*
X176700158Y-117956460D01*
X155391900Y-119676681D02*
X155370053Y-119633278D01*
X173364281Y-118544737D02*
X173370229Y-118592963D01*
X151618519Y-27442125D02*
X151572380Y-27457368D01*
X101326806Y-124915181D02*
X101326986Y-124915348D01*
X141158278Y-27404946D02*
X141113855Y-27424637D01*
X155441847Y-25439987D02*
X155469826Y-25400259D01*
X124064987Y-117866847D02*
X124106039Y-117840851D01*
X101025057Y-27509809D02*
X101025003Y-27512027D01*
X155756039Y-27359148D02*
X155714987Y-27333152D01*
X195974087Y-27506002D02*
X195973877Y-27505558D01*
X195971840Y-24997188D02*
X195972188Y-24996840D01*
X172384877Y-120200000D02*
X156265122Y-120200000D01*
X176700158Y-119943539D02*
X176664966Y-119910033D01*
X173258099Y-26976681D02*
X173234148Y-27018960D01*
X155977619Y-25042631D02*
X156024450Y-25029671D01*
X151874740Y-25194826D02*
X151913047Y-25224721D01*
X195966169Y-120200129D02*
X195965681Y-120200081D01*
X156265122Y-120200000D02*
X156216423Y-120198804D01*
X101400464Y-124980321D02*
X101459572Y-125024158D01*
X195974087Y-24993997D02*
X195974275Y-24993544D01*
X124421861Y-117719025D02*
X124469737Y-117710718D01*
X123700362Y-119588855D02*
X123682874Y-119543519D01*
X113556039Y-117840851D02*
X113598318Y-117816900D01*
X141682368Y-119497380D02*
X141667125Y-119543519D01*
X101034809Y-120200057D02*
X101034318Y-120200081D01*
X176450362Y-118311144D02*
X176470053Y-118266721D01*
X173208152Y-25439987D02*
X173234148Y-25481039D01*
X101252380Y-20365610D02*
X101252069Y-20365989D01*
X109635012Y-25166847D02*
X109674740Y-25194826D01*
X119683576Y-25001195D02*
X119732036Y-25004770D01*
X141667125Y-119543519D02*
X141649637Y-119588855D01*
X195747930Y-20365989D02*
X195747619Y-20365610D01*
X176814987Y-120033152D02*
X176775259Y-120005173D01*
X195530605Y-125031080D02*
X195540228Y-125024302D01*
X195965190Y-120200057D02*
X195962972Y-120200003D01*
X101469394Y-125031080D02*
X101469802Y-125031352D01*
X101037272Y-27500000D02*
X101037027Y-27500003D01*
X176775259Y-25194826D02*
X176814987Y-25166847D01*
X144744025Y-25796861D02*
X144754671Y-25749450D01*
X113104671Y-118449450D02*
X113117631Y-118402619D01*
X195957586Y-20817049D02*
X195957547Y-20816806D01*
X101193919Y-124755605D02*
X101200697Y-124765228D01*
X120458152Y-27060012D02*
X120430173Y-27099740D01*
X156265122Y-117700000D02*
X172384877Y-117700000D01*
X195972517Y-27503522D02*
X195972188Y-27503159D01*
X145715122Y-120200000D02*
X145666423Y-120198804D01*
X152275000Y-119209877D02*
X152273804Y-119258576D01*
X195893734Y-20606445D02*
X195893632Y-20606222D01*
X194987257Y-20000602D02*
X194987012Y-20000593D01*
X155279770Y-119307036D02*
X155276195Y-119258576D01*
X109230262Y-120189281D02*
X109182036Y-120195229D01*
X186982874Y-118356480D02*
X187000362Y-118311144D01*
X156167963Y-25004770D02*
X156216423Y-25001195D01*
X187866423Y-25001195D02*
X187915122Y-25000000D01*
X195073231Y-20005142D02*
X195072743Y-20005094D01*
X173375000Y-118690122D02*
X173375000Y-119209877D01*
X172808278Y-117795053D02*
X172851681Y-117816900D01*
X155600158Y-119943539D02*
X155564966Y-119910033D01*
X155275000Y-25990122D02*
X155276195Y-25941423D01*
X101252069Y-20365989D02*
X101244827Y-20375268D01*
X155636952Y-117924721D02*
X155675259Y-117894826D01*
X101025003Y-24987972D02*
X101025057Y-24990190D01*
X120623804Y-25941423D02*
X120625000Y-25990122D01*
X141158278Y-25095053D02*
X141201681Y-25116900D01*
X144735718Y-25844737D02*
X144744025Y-25796861D01*
X151478138Y-120180974D02*
X151430262Y-120189281D01*
X183923804Y-119258576D02*
X183920229Y-119307036D01*
X195971840Y-117697188D02*
X195972188Y-117696840D01*
X101914843Y-20006616D02*
X101842049Y-20017413D01*
X195973877Y-117694441D02*
X195974087Y-117693997D01*
X195435302Y-20112831D02*
X195368777Y-20081367D01*
X195952803Y-20793005D02*
X195934922Y-20721619D01*
X177031480Y-25057874D02*
X177077619Y-25042631D01*
X173355974Y-119403138D02*
X173345328Y-119450549D01*
X124517963Y-120195229D02*
X124469737Y-120189281D01*
X123654671Y-119450549D02*
X123644025Y-119403138D01*
X186925000Y-119209877D02*
X186925000Y-118690122D01*
X172672380Y-27457368D02*
X172625549Y-27470328D01*
X183313855Y-120124637D02*
X183268519Y-120142125D01*
X183914281Y-119355262D02*
X183905974Y-119403138D01*
X195061004Y-20004228D02*
X195060759Y-20004213D01*
X110017125Y-119543519D02*
X109999637Y-119588855D01*
X183268519Y-25057874D02*
X183313855Y-25075362D01*
X155285718Y-118544737D02*
X155294025Y-118496861D01*
X113104671Y-26750549D02*
X113094025Y-26703138D01*
X195856768Y-124671036D02*
X195862060Y-124660523D01*
X101025000Y-21012272D02*
X101025000Y-24987727D01*
X113686144Y-27424637D02*
X113641721Y-27404946D01*
X195970295Y-117698394D02*
X195970703Y-117698121D01*
X173085033Y-119910033D02*
X173049841Y-119943539D01*
X195975000Y-21012272D02*
X195974996Y-21012027D01*
X141243960Y-117840851D02*
X141285012Y-117866847D01*
X123849721Y-27138047D02*
X123819826Y-27099740D01*
X141629946Y-25566721D02*
X141649637Y-25611144D01*
X155675259Y-25194826D02*
X155714987Y-25166847D01*
X110064281Y-118544737D02*
X110070229Y-118592963D01*
X101065140Y-124478617D02*
X101068279Y-124489961D01*
X101027482Y-24996477D02*
X101027811Y-24996840D01*
X113299721Y-118061952D02*
X113331460Y-118025158D01*
X113514987Y-117866847D02*
X113556039Y-117840851D01*
X145569737Y-25010718D02*
X145617963Y-25004770D01*
X101028902Y-117697829D02*
X101029296Y-117698121D01*
X124236144Y-117775362D02*
X124281480Y-117757874D01*
X145617963Y-25004770D02*
X145666423Y-25001195D01*
X195357793Y-125123504D02*
X195368554Y-125118734D01*
X195973121Y-24995703D02*
X195973394Y-24995295D01*
X173375000Y-119209877D02*
X173373804Y-119258576D01*
X183867125Y-26843519D02*
X183849637Y-26888855D01*
X113598318Y-27383099D02*
X113556039Y-27359148D01*
X114065122Y-27500000D02*
X114016423Y-27498804D01*
X140928138Y-27480974D02*
X140880262Y-27489281D01*
X173013047Y-117924721D02*
X173049841Y-117956460D01*
X101318281Y-124907065D02*
X101326806Y-124915181D01*
X141022380Y-117742631D02*
X141068519Y-117757874D01*
X113170053Y-119633278D02*
X113150362Y-119588855D01*
X124148318Y-27383099D02*
X124106039Y-27359148D01*
X123629770Y-25892963D02*
X123635718Y-25844737D01*
X177124450Y-117729671D02*
X177171861Y-117719025D01*
X109850278Y-119838047D02*
X109818539Y-119874841D01*
X183175549Y-27470328D02*
X183128138Y-27480974D01*
X176736952Y-27275278D02*
X176700158Y-27243539D01*
X101642206Y-125123504D02*
X101642659Y-125123692D01*
X113331460Y-27174841D02*
X113299721Y-27138047D01*
X195456711Y-20124264D02*
X195446469Y-20118462D01*
X113150362Y-26888855D02*
X113132874Y-26843519D01*
X186954671Y-119450549D02*
X186944025Y-119403138D01*
X123950158Y-119943539D02*
X123914966Y-119910033D01*
X119828138Y-25019025D02*
X119875549Y-25029671D01*
X101029704Y-24998394D02*
X101030125Y-24998646D01*
X187000362Y-118311144D02*
X187020053Y-118266721D01*
X152179946Y-26933278D02*
X152158099Y-26976681D01*
X155332874Y-119543519D02*
X155317631Y-119497380D01*
X195968997Y-27500912D02*
X195968544Y-27500724D01*
X101034318Y-24999918D02*
X101034809Y-24999942D01*
X109593960Y-27359148D02*
X109551681Y-27383099D01*
X195618302Y-20235068D02*
X195609389Y-20227380D01*
X144782874Y-26843519D02*
X144767631Y-26797380D01*
X176664966Y-27210033D02*
X176631460Y-27174841D01*
X113824450Y-25029671D02*
X113871861Y-25019025D01*
X101025000Y-124187727D02*
X101025003Y-124187972D01*
X152270229Y-119307036D02*
X152264281Y-119355262D01*
X152245328Y-26750549D02*
X152232368Y-26797380D01*
X152273804Y-118641423D02*
X152275000Y-118690122D01*
X141158278Y-117795053D02*
X141201681Y-117816900D01*
X195264961Y-20043279D02*
X195253617Y-20040140D01*
X144726195Y-25941423D02*
X144729770Y-25892963D01*
X195902928Y-124571358D02*
X195903014Y-124571128D01*
X141468539Y-27174841D02*
X141435033Y-27210033D01*
X101026878Y-24995703D02*
X101027170Y-24996097D01*
X194962727Y-125200000D02*
X194962972Y-125199996D01*
X186929770Y-118592963D02*
X186935718Y-118544737D01*
X109182036Y-117704770D02*
X109230262Y-117710718D01*
X151874740Y-27305173D02*
X151835012Y-27333152D01*
X120013855Y-27424637D02*
X119968519Y-27442125D01*
X144729770Y-118592963D02*
X144735718Y-118544737D01*
X113299721Y-25361952D02*
X113331460Y-25325158D01*
X173258099Y-25523318D02*
X173279946Y-25566721D01*
X101025297Y-24992136D02*
X101025416Y-24992612D01*
X176941721Y-27404946D02*
X176898318Y-27383099D01*
X195970771Y-124286004D02*
X195970786Y-124285759D01*
X183668539Y-118025158D02*
X183700278Y-118061952D01*
X101400268Y-20219827D02*
X101390989Y-20227069D01*
X183730173Y-119799740D02*
X183700278Y-119838047D01*
X195934859Y-124478617D02*
X195934922Y-124478380D01*
X183923804Y-118641423D02*
X183925000Y-118690122D01*
X172625549Y-25029671D02*
X172672380Y-25042631D01*
X187119826Y-118100259D02*
X187149721Y-118061952D01*
X124025259Y-27305173D02*
X123986952Y-27275278D01*
X101025297Y-27507863D02*
X101025201Y-27508344D01*
X176814987Y-27333152D02*
X176775259Y-27305173D01*
X195962972Y-120200003D02*
X195962727Y-120200000D01*
X195540228Y-20175697D02*
X195530605Y-20168919D01*
X101042452Y-124383193D02*
X101044465Y-124394790D01*
X195973121Y-117695703D02*
X195973394Y-117695295D01*
X195970703Y-117698121D02*
X195971097Y-117697829D01*
X109749841Y-25256460D02*
X109785033Y-25289966D01*
X172763855Y-27424637D02*
X172718519Y-27442125D01*
X120567125Y-25656480D02*
X120582368Y-25702619D01*
X109818539Y-119874841D02*
X109785033Y-119910033D01*
X145291721Y-25095053D02*
X145336144Y-25075362D01*
X183784148Y-27018960D02*
X183758152Y-27060012D01*
X195253617Y-125159859D02*
X195264961Y-125156720D01*
X176379770Y-119307036D02*
X176376195Y-119258576D01*
X101025003Y-27512027D02*
X101025000Y-27512272D01*
X120430173Y-25400259D02*
X120458152Y-25439987D01*
X144767631Y-118402619D02*
X144782874Y-118356480D01*
X144865851Y-25481039D02*
X144891847Y-25439987D01*
X145336144Y-27424637D02*
X145291721Y-27404946D01*
X172763855Y-120124637D02*
X172718519Y-120142125D01*
X182934877Y-120200000D02*
X177365122Y-120200000D01*
X195931577Y-124490431D02*
X195931720Y-124489961D01*
X187020053Y-25566721D02*
X187041900Y-25523318D01*
X187817963Y-117704770D02*
X187866423Y-117701195D01*
X119634877Y-117700000D02*
X119683576Y-117701195D01*
X176376195Y-119258576D02*
X176375000Y-119209877D01*
X101244827Y-20375268D02*
X101244678Y-20375464D01*
X172433576Y-120198804D02*
X172384877Y-120200000D01*
X195974440Y-117693082D02*
X195974583Y-117692612D01*
X195530197Y-20168647D02*
X195520252Y-20162349D01*
X124469737Y-27489281D02*
X124421861Y-27480974D01*
X145164987Y-117866847D02*
X145206039Y-117840851D01*
X187286952Y-25224721D02*
X187325259Y-25194826D01*
X141695328Y-26750549D02*
X141682368Y-26797380D01*
X195974798Y-117691655D02*
X195974870Y-117691169D01*
X173375000Y-26509877D02*
X173373804Y-26558576D01*
X195747930Y-124834010D02*
X195755172Y-124824731D01*
X109713047Y-117924721D02*
X109749841Y-117956460D01*
X119780262Y-120189281D02*
X119732036Y-120195229D01*
X101096985Y-20628871D02*
X101072194Y-20698160D01*
X101029704Y-120201605D02*
X101029296Y-120201878D01*
X124191721Y-27404946D02*
X124148318Y-27383099D01*
X195969874Y-120201353D02*
X195969441Y-120201122D01*
X114016423Y-117701195D02*
X114065122Y-117700000D01*
X183635033Y-25289966D02*
X183668539Y-25325158D01*
X144735718Y-119355262D02*
X144729770Y-119307036D01*
X183730173Y-27099740D02*
X183700278Y-27138047D01*
X101030125Y-120201353D02*
X101029704Y-120201605D01*
X123950158Y-27243539D02*
X123914966Y-27210033D01*
X113191900Y-119676681D02*
X113170053Y-119633278D01*
X101469802Y-125031352D02*
X101479747Y-125037650D01*
X101037027Y-120200003D02*
X101034809Y-120200057D01*
X101543288Y-20124264D02*
X101543076Y-20124388D01*
X155275000Y-26509877D02*
X155275000Y-25990122D01*
X109230262Y-27489281D02*
X109182036Y-27495229D01*
X113598318Y-25116900D02*
X113641721Y-25095053D01*
X155886144Y-120124637D02*
X155841721Y-120104946D01*
X155675259Y-117894826D02*
X155714987Y-117866847D01*
X176515851Y-118181039D02*
X176541847Y-118139987D01*
X101028902Y-27502170D02*
X101028522Y-27502482D01*
X145248318Y-120083099D02*
X145206039Y-120059148D01*
X114016423Y-120198804D02*
X113967963Y-120195229D01*
X101030094Y-124297743D02*
X101030142Y-124298231D01*
X109674740Y-27305173D02*
X109635012Y-27333152D01*
X187581480Y-120142125D02*
X187536144Y-120124637D01*
X120605974Y-25796861D02*
X120614281Y-25844737D01*
X195618486Y-20235231D02*
X195618302Y-20235068D01*
X101193647Y-124755197D02*
X101193919Y-124755605D01*
X183635033Y-119910033D02*
X183599841Y-119943539D01*
X113269826Y-118100259D02*
X113299721Y-118061952D01*
X187250158Y-27243539D02*
X187214966Y-27210033D01*
X120101681Y-117816900D02*
X120143960Y-117840851D01*
X113475259Y-117894826D02*
X113514987Y-117866847D01*
X173279946Y-26933278D02*
X173258099Y-26976681D01*
X113241847Y-25439987D02*
X113269826Y-25400259D01*
X151284877Y-117700000D02*
X151284877Y-117700000D01*
X102012742Y-125199397D02*
X102012987Y-125199406D01*
X183268519Y-27442125D02*
X183222380Y-27457368D01*
X141285012Y-120033152D02*
X141243960Y-120059148D01*
X114016423Y-25001195D02*
X114065122Y-25000000D01*
X195971097Y-117697829D02*
X195971477Y-117697517D01*
X123644025Y-26703138D02*
X123635718Y-26655262D01*
X183808099Y-119676681D02*
X183784148Y-119718960D01*
X123625000Y-119209877D02*
X123625000Y-118690122D01*
X113364966Y-117989966D02*
X113400158Y-117956460D01*
X183925000Y-118690122D02*
X183925000Y-119209877D01*
X113269826Y-27099740D02*
X113241847Y-27060012D01*
X101200841Y-124765427D02*
X101244678Y-124824535D01*
X101818243Y-125177860D02*
X101829728Y-125180438D01*
X101106367Y-124593777D02*
X101137831Y-124660302D01*
X172625549Y-27470328D02*
X172578138Y-27480974D01*
X155499721Y-118061952D02*
X155531460Y-118025158D01*
X120508099Y-26976681D02*
X120484148Y-27018960D01*
X173364281Y-25844737D02*
X173370229Y-25892963D01*
X120549637Y-26888855D02*
X120529946Y-26933278D01*
X155931480Y-25057874D02*
X155977619Y-25042631D01*
X140832036Y-120195229D02*
X140783576Y-120198804D01*
X152217125Y-119543519D02*
X152199637Y-119588855D01*
X155279770Y-25892963D02*
X155285718Y-25844737D01*
X141500278Y-118061952D02*
X141530173Y-118100259D01*
X183401681Y-27383099D02*
X183358278Y-27404946D01*
X144744025Y-26703138D02*
X144735718Y-26655262D01*
X195618486Y-124964768D02*
X195673013Y-124915348D01*
X172893960Y-120059148D02*
X172851681Y-120083099D01*
X120625000Y-118690122D02*
X120625000Y-119209877D01*
X113871861Y-27480974D02*
X113824450Y-27470328D01*
X101025000Y-24987727D02*
X101025003Y-24987972D01*
X120508099Y-25523318D02*
X120529946Y-25566721D01*
X195456923Y-125075611D02*
X195520043Y-125037778D01*
X195975000Y-117687727D02*
X195975000Y-27512272D01*
X176417631Y-119497380D02*
X176404671Y-119450549D01*
X123849721Y-118061952D02*
X123881460Y-118025158D01*
X187065851Y-27018960D02*
X187041900Y-26976681D01*
X151751681Y-25116900D02*
X151793960Y-25140851D01*
X195599731Y-20219827D02*
X195599535Y-20219678D01*
X195346358Y-125127928D02*
X195357340Y-125123692D01*
X109749841Y-27243539D02*
X109713047Y-27275278D01*
X101031582Y-20890086D02*
X101030142Y-20901768D01*
X195974798Y-24991655D02*
X195974870Y-24991169D01*
X101101495Y-20617206D02*
X101101307Y-20617659D01*
X176631460Y-118025158D02*
X176664966Y-117989966D01*
X183485012Y-25166847D02*
X183524740Y-25194826D01*
X101044465Y-124394790D02*
X101044561Y-124395271D01*
X101390610Y-20227380D02*
X101381697Y-20235068D01*
X101143462Y-20528530D02*
X101143231Y-20528963D01*
X114016423Y-27498804D02*
X113967963Y-27495229D01*
X123765851Y-118181039D02*
X123791847Y-118139987D01*
X124421861Y-120180974D02*
X124374450Y-120170328D01*
X173370229Y-25892963D02*
X173373804Y-25941423D01*
X173279946Y-119633278D02*
X173258099Y-119676681D01*
X113475259Y-25194826D02*
X113514987Y-25166847D01*
X144754671Y-26750549D02*
X144744025Y-26703138D01*
X101818005Y-125177803D02*
X101818243Y-125177860D01*
X187181460Y-25325158D02*
X187214966Y-25289966D01*
X113191900Y-26976681D02*
X113170053Y-26933278D01*
X101025000Y-117687727D02*
X101025003Y-117687972D01*
X176541847Y-118139987D02*
X176569826Y-118100259D01*
X101553963Y-125081768D02*
X101564476Y-125087060D01*
X183401681Y-120083099D02*
X183358278Y-120104946D01*
X183443960Y-117840851D02*
X183485012Y-117866847D01*
X101723160Y-20047194D02*
X101653871Y-20071985D01*
X183563047Y-27275278D02*
X183524740Y-27305173D01*
X141500278Y-27138047D02*
X141468539Y-27174841D01*
X145381480Y-117757874D02*
X145427619Y-117742631D01*
X176491900Y-119676681D02*
X176470053Y-119633278D01*
X101025081Y-27509318D02*
X101025057Y-27509809D01*
X141725000Y-26509877D02*
X141723804Y-26558576D01*
X109133576Y-120198804D02*
X109084877Y-120200000D01*
X195969905Y-20902256D02*
X195969857Y-20901768D01*
X120625000Y-25990122D02*
X120625000Y-26509877D01*
X172893960Y-25140851D02*
X172935012Y-25166847D01*
X140783576Y-25001195D02*
X140832036Y-25004770D01*
X101065077Y-124478380D02*
X101065140Y-124478617D01*
X187214966Y-117989966D02*
X187250158Y-117956460D01*
X173118539Y-25325158D02*
X173150278Y-25361952D01*
X151751681Y-120083099D02*
X151708278Y-120104946D01*
X155469826Y-25400259D02*
X155499721Y-25361952D01*
X113777619Y-117742631D02*
X113824450Y-117729671D01*
X101479747Y-125037650D02*
X101479956Y-125037778D01*
X156167963Y-117704770D02*
X156216423Y-117701195D01*
X123667631Y-119497380D02*
X123654671Y-119450549D01*
X120224740Y-27305173D02*
X120185012Y-27333152D01*
X195060759Y-125195786D02*
X195061004Y-125195771D01*
X123644025Y-118496861D02*
X123654671Y-118449450D01*
X183485012Y-120033152D02*
X183443960Y-120059148D01*
X176986144Y-25075362D02*
X177031480Y-25057874D01*
X145617963Y-27495229D02*
X145569737Y-27489281D01*
X176432874Y-25656480D02*
X176450362Y-25611144D01*
X101390610Y-124972619D02*
X101390989Y-124972930D01*
X101033344Y-24999798D02*
X101033830Y-24999870D01*
X109908152Y-118139987D02*
X109934148Y-118181039D01*
X187091847Y-27060012D02*
X187065851Y-27018960D01*
X151382036Y-120195229D02*
X151333576Y-120198804D01*
X195181994Y-20022196D02*
X195181756Y-20022139D01*
X141667125Y-118356480D02*
X141682368Y-118402619D01*
X145474450Y-27470328D02*
X145427619Y-27457368D01*
X123700362Y-25611144D02*
X123720053Y-25566721D01*
X195973121Y-120204296D02*
X195972829Y-120203902D01*
X195931720Y-124489961D02*
X195934859Y-124478617D01*
X145715122Y-25000000D02*
X151284877Y-25000000D01*
X176569826Y-25400259D02*
X176599721Y-25361952D01*
X119683576Y-27498804D02*
X119634877Y-27500000D01*
X195690348Y-124898013D02*
X195739768Y-124843486D01*
X183895328Y-119450549D02*
X183882368Y-119497380D01*
X173258099Y-119676681D02*
X173234148Y-119718960D01*
X101025416Y-120207387D02*
X101025297Y-120207863D01*
X124517963Y-117704770D02*
X124566423Y-117701195D01*
X120400278Y-119838047D02*
X120368539Y-119874841D01*
X195965190Y-117699942D02*
X195965681Y-117699918D01*
X195681718Y-20292934D02*
X195673193Y-20284818D01*
X144767631Y-119497380D02*
X144754671Y-119450549D01*
X144782874Y-118356480D02*
X144800362Y-118311144D01*
X186967631Y-25702619D02*
X186982874Y-25656480D01*
X155275000Y-118690122D02*
X155276195Y-118641423D01*
X124615122Y-117700000D02*
X140734877Y-117700000D01*
X172530262Y-27489281D02*
X172482036Y-27495229D01*
X195862060Y-20539476D02*
X195856768Y-20528963D01*
X101101495Y-124582793D02*
X101106265Y-124593554D01*
X155279770Y-118592963D02*
X155285718Y-118544737D01*
X187866423Y-117701195D02*
X187915122Y-117700000D01*
X183128138Y-120180974D02*
X183080262Y-120189281D01*
X123914966Y-117989966D02*
X123950158Y-117956460D01*
X141285012Y-117866847D02*
X141324740Y-117894826D01*
X173299637Y-119588855D02*
X173279946Y-119633278D01*
X183358278Y-25095053D02*
X183401681Y-25116900D01*
X177219737Y-27489281D02*
X177171861Y-27480974D01*
X141201681Y-27383099D02*
X141158278Y-27404946D01*
X101026353Y-120205125D02*
X101026122Y-120205558D01*
X187448318Y-120083099D02*
X187406039Y-120059148D01*
X119922380Y-120157368D02*
X119875549Y-120170328D01*
X177365122Y-117700000D02*
X182934877Y-117700000D01*
X173085033Y-27210033D02*
X173049841Y-27243539D01*
X195456711Y-125075735D02*
X195456923Y-125075611D01*
X151382036Y-27495229D02*
X151333576Y-27498804D01*
X102037027Y-125199996D02*
X102037272Y-125200000D01*
X120620229Y-118592963D02*
X120623804Y-118641423D01*
X144729770Y-119307036D02*
X144726195Y-119258576D01*
X195806352Y-20444802D02*
X195806080Y-20444394D01*
X109880173Y-27099740D02*
X109850278Y-27138047D01*
X183849637Y-26888855D02*
X183829946Y-26933278D01*
X187065851Y-25481039D02*
X187091847Y-25439987D01*
X195969441Y-24998877D02*
X195969874Y-24998646D01*
X101027482Y-120203522D02*
X101027170Y-120203902D01*
X120595328Y-118449450D02*
X120605974Y-118496861D01*
X151949841Y-27243539D02*
X151913047Y-27275278D01*
X176986144Y-117775362D02*
X177031480Y-117757874D01*
X176379770Y-118592963D02*
X176385718Y-118544737D01*
X113191900Y-25523318D02*
X113215851Y-25481039D01*
X101031917Y-120200559D02*
X101031455Y-120200724D01*
X195812650Y-124745252D02*
X195812778Y-124745043D01*
X113094025Y-118496861D02*
X113104671Y-118449450D01*
X101915086Y-20006582D02*
X101914843Y-20006616D01*
X119875549Y-27470328D02*
X119828138Y-27480974D01*
X141705974Y-118496861D02*
X141714281Y-118544737D01*
X113085718Y-25844737D02*
X113094025Y-25796861D01*
X101841806Y-20017452D02*
X101830209Y-20019465D01*
X155350362Y-26888855D02*
X155332874Y-26843519D01*
X172384877Y-117700000D02*
X172433576Y-117701195D01*
X124281480Y-117757874D02*
X124327619Y-117742631D01*
X195862168Y-124660302D02*
X195893632Y-124593777D01*
X123881460Y-119874841D02*
X123849721Y-119838047D01*
X183895328Y-25749450D02*
X183905974Y-25796861D01*
X144744025Y-119403138D02*
X144735718Y-119355262D01*
X187817963Y-120195229D02*
X187769737Y-120189281D01*
X114065122Y-120200000D02*
X114016423Y-120198804D01*
X195850735Y-20518288D02*
X195850611Y-20518076D01*
X120605974Y-118496861D02*
X120614281Y-118544737D01*
X101025297Y-120207863D02*
X101025201Y-120208344D01*
X186926195Y-26558576D02*
X186925000Y-26509877D01*
X195927805Y-124501839D02*
X195927885Y-124501607D01*
X187817963Y-25004770D02*
X187866423Y-25001195D01*
X123625000Y-118690122D02*
X123626195Y-118641423D01*
X144726195Y-118641423D02*
X144729770Y-118592963D01*
X141530173Y-118100259D02*
X141558152Y-118139987D01*
X172482036Y-27495229D02*
X172433576Y-27498804D01*
X109463855Y-25075362D02*
X109508278Y-25095053D01*
X113150362Y-119588855D02*
X113132874Y-119543519D01*
X144754671Y-119450549D02*
X144744025Y-119403138D01*
X101187221Y-124745043D02*
X101187349Y-124745252D01*
X144891847Y-119760012D02*
X144865851Y-119718960D01*
X109372380Y-25042631D02*
X109418519Y-25057874D01*
X113364966Y-27210033D02*
X113331460Y-27174841D01*
X101030125Y-117698646D02*
X101030558Y-117698877D01*
X145125259Y-120005173D02*
X145086952Y-119975278D01*
X152255974Y-26703138D02*
X152245328Y-26750549D01*
X183730173Y-25400259D02*
X183758152Y-25439987D01*
X123849721Y-119838047D02*
X123819826Y-119799740D01*
X113641721Y-25095053D02*
X113686144Y-25075362D01*
X113094025Y-26703138D02*
X113085718Y-26655262D01*
X101034318Y-27500081D02*
X101033830Y-27500129D01*
X113132874Y-118356480D02*
X113150362Y-118311144D01*
X123629770Y-119307036D02*
X123626195Y-119258576D01*
X195169790Y-125180534D02*
X195170271Y-125180438D01*
X109593960Y-117840851D02*
X109635012Y-117866847D01*
X101653641Y-125127928D02*
X101653871Y-125128014D01*
X176491900Y-25523318D02*
X176515851Y-25481039D01*
X141201681Y-25116900D02*
X141243960Y-25140851D01*
X113104671Y-25749450D02*
X113117631Y-25702619D01*
X172808278Y-120104946D02*
X172763855Y-120124637D01*
X120625000Y-119209877D02*
X120623804Y-119258576D01*
X101027482Y-117696477D02*
X101027811Y-117696840D01*
X124281480Y-120142125D02*
X124236144Y-120124637D01*
X176631460Y-25325158D02*
X176664966Y-25289966D01*
X145336144Y-117775362D02*
X145381480Y-117757874D01*
X187536144Y-117775362D02*
X187581480Y-117757874D01*
X109908152Y-27060012D02*
X109880173Y-27099740D01*
X183599841Y-27243539D02*
X183563047Y-27275278D01*
X177171861Y-25019025D02*
X177219737Y-25010718D01*
X141629946Y-26933278D02*
X141608099Y-26976681D01*
X183268519Y-120142125D02*
X183222380Y-120157368D01*
X195969441Y-27501122D02*
X195968997Y-27500912D01*
X182934877Y-25000000D02*
X182934877Y-25000000D01*
X176470053Y-118266721D02*
X176491900Y-118223318D01*
X124615122Y-120200000D02*
X124566423Y-120198804D01*
X186925000Y-26509877D02*
X186925000Y-25990122D01*
X151708278Y-117795053D02*
X151751681Y-117816900D01*
X141530173Y-27099740D02*
X141500278Y-27138047D01*
X173180173Y-119799740D02*
X173150278Y-119838047D01*
X113331460Y-118025158D02*
X113364966Y-117989966D01*
X187149721Y-119838047D02*
X187119826Y-119799740D01*
X176404671Y-25749450D02*
X176417631Y-25702619D01*
X195972829Y-117696097D02*
X195973121Y-117695703D01*
X140783576Y-120198804D02*
X140734877Y-120200000D01*
X109713047Y-27275278D02*
X109674740Y-27305173D01*
X120623804Y-118641423D02*
X120625000Y-118690122D01*
X101031455Y-120200724D02*
X101031002Y-120200912D01*
X101553530Y-125081537D02*
X101553963Y-125081768D01*
X101309651Y-124898013D02*
X101309818Y-124898193D01*
X195975000Y-120212272D02*
X195974996Y-120212027D01*
X151572380Y-25042631D02*
X151618519Y-25057874D01*
X101025129Y-27508830D02*
X101025081Y-27509318D01*
X172578138Y-120180974D02*
X172530262Y-120189281D01*
X183784148Y-118181039D02*
X183808099Y-118223318D01*
X195968417Y-124309913D02*
X195969857Y-124298231D01*
X101030125Y-27501353D02*
X101029704Y-27501605D01*
X152245328Y-119450549D02*
X152232368Y-119497380D01*
X195540427Y-125024158D02*
X195599535Y-124980321D01*
X183700278Y-27138047D02*
X183668539Y-27174841D01*
X141608099Y-25523318D02*
X141629946Y-25566721D01*
X195968544Y-117699275D02*
X195968997Y-117699087D01*
X195972188Y-24996840D02*
X195972517Y-24996477D01*
X145521861Y-25019025D02*
X145569737Y-25010718D01*
X195806352Y-124755197D02*
X195812650Y-124745252D01*
X124566423Y-25001195D02*
X124615122Y-25000000D01*
X155415851Y-27018960D02*
X155391900Y-26976681D01*
X119875549Y-25029671D02*
X119922380Y-25042631D01*
X176856039Y-117840851D02*
X176898318Y-117816900D01*
X120101681Y-120083099D02*
X120058278Y-120104946D01*
X195973646Y-117694874D02*
X195973877Y-117694441D01*
X101025057Y-24990190D02*
X101025057Y-24990190D01*
X183635033Y-27210033D02*
X183599841Y-27243539D01*
X195609010Y-124972930D02*
X195609389Y-124972619D01*
X155675259Y-120005173D02*
X155636952Y-119975278D01*
X183914281Y-118544737D02*
X183920229Y-118592963D01*
X101317934Y-20293281D02*
X101309818Y-20301806D01*
X173373804Y-25941423D02*
X173375000Y-25990122D01*
X101029296Y-27501878D02*
X101028902Y-27502170D01*
X176814987Y-117866847D02*
X176856039Y-117840851D01*
X155304671Y-26750549D02*
X155294025Y-26703138D01*
X144729770Y-26607036D02*
X144726195Y-26558576D01*
X101106367Y-20606222D02*
X101106265Y-20606445D01*
X120595328Y-119450549D02*
X120582368Y-119497380D01*
X123682874Y-118356480D02*
X123700362Y-118311144D01*
X101200697Y-124765228D02*
X101200841Y-124765427D01*
X173118539Y-27174841D02*
X173085033Y-27210033D01*
X151333576Y-120198804D02*
X151284877Y-120200000D01*
X141324740Y-25194826D02*
X141363047Y-25224721D01*
X186935718Y-119355262D02*
X186929770Y-119307036D01*
X176599721Y-27138047D02*
X176569826Y-27099740D01*
X110075000Y-119209877D02*
X110073804Y-119258576D01*
X176470053Y-26933278D02*
X176450362Y-26888855D01*
X195812778Y-20454956D02*
X195812650Y-20454747D01*
X187674450Y-25029671D02*
X187721861Y-25019025D01*
X195073231Y-125194857D02*
X195084913Y-125193417D01*
X101028522Y-27502482D02*
X101028159Y-27502811D01*
X123654671Y-118449450D02*
X123667631Y-118402619D01*
X101028159Y-117697188D02*
X101028522Y-117697517D01*
X101830209Y-20019465D02*
X101829728Y-20019561D01*
X120185012Y-27333152D02*
X120143960Y-27359148D01*
X186967631Y-119497380D02*
X186954671Y-119450549D01*
X120614281Y-119355262D02*
X120605974Y-119403138D01*
X113269826Y-25400259D02*
X113299721Y-25361952D01*
X141435033Y-119910033D02*
X141399841Y-119943539D01*
X187286952Y-27275278D02*
X187250158Y-27243539D01*
X195446469Y-20118462D02*
X195446036Y-20118231D01*
X144744025Y-118496861D02*
X144754671Y-118449450D01*
X109785033Y-119910033D02*
X109749841Y-119943539D01*
X141468539Y-25325158D02*
X141500278Y-25361952D01*
X183849637Y-118311144D02*
X183867125Y-118356480D01*
X172384877Y-27500000D02*
X156265122Y-27500000D01*
X110055974Y-25796861D02*
X110064281Y-25844737D01*
X144767631Y-26797380D02*
X144754671Y-26750549D01*
X113150362Y-118311144D02*
X113170053Y-118266721D01*
X113331460Y-119874841D02*
X113299721Y-119838047D01*
X144800362Y-118311144D02*
X144820053Y-118266721D01*
X145666423Y-117701195D02*
X145715122Y-117700000D01*
X187536144Y-27424637D02*
X187491721Y-27404946D01*
X113400158Y-27243539D02*
X113364966Y-27210033D01*
X173150278Y-118061952D02*
X173180173Y-118100259D01*
X109133576Y-117701195D02*
X109182036Y-117704770D01*
X195972188Y-120203159D02*
X195971840Y-120202811D01*
X187915122Y-25000000D02*
X195962727Y-25000000D01*
X155332874Y-26843519D02*
X155317631Y-26797380D01*
X101028522Y-120202482D02*
X101028159Y-120202811D01*
X141113855Y-120124637D02*
X141068519Y-120142125D01*
X101818005Y-20022196D02*
X101746619Y-20040077D01*
X176515851Y-119718960D02*
X176491900Y-119676681D01*
X152018539Y-119874841D02*
X151985033Y-119910033D01*
X141113855Y-27424637D02*
X141068519Y-27442125D01*
X101390989Y-124972930D02*
X101400268Y-124980172D01*
X109325549Y-120170328D02*
X109278138Y-120180974D01*
X101025416Y-27507387D02*
X101025297Y-27507863D01*
X120430173Y-118100259D02*
X120458152Y-118139987D01*
X101026122Y-24994441D02*
X101026353Y-24994874D01*
X113364966Y-25289966D02*
X113400158Y-25256460D01*
X101260231Y-20356513D02*
X101260068Y-20356697D01*
X124517963Y-25004770D02*
X124566423Y-25001195D01*
X145666423Y-120198804D02*
X145617963Y-120195229D01*
X110017125Y-26843519D02*
X109999637Y-26888855D01*
X195799158Y-124765427D02*
X195799302Y-124765228D01*
X183222380Y-117742631D02*
X183268519Y-117757874D01*
X101381697Y-124964931D02*
X101390610Y-124972619D01*
X109979946Y-25566721D02*
X109999637Y-25611144D01*
X109418519Y-120142125D02*
X109372380Y-120157368D01*
X177124450Y-120170328D02*
X177077619Y-120157368D01*
X195170271Y-125180438D02*
X195181756Y-125177860D01*
X101746619Y-125159922D02*
X101818005Y-125177803D01*
X173364281Y-26655262D02*
X173355974Y-26703138D01*
X140734877Y-120200000D02*
X124615122Y-120200000D01*
X183080262Y-117710718D02*
X183128138Y-117719025D01*
X113241847Y-119760012D02*
X113215851Y-119718960D01*
X176417631Y-118402619D02*
X176432874Y-118356480D01*
X172482036Y-120195229D02*
X172433576Y-120198804D01*
X172482036Y-25004770D02*
X172530262Y-25010718D01*
X101025724Y-24993544D02*
X101025912Y-24993997D01*
X101564697Y-20112831D02*
X101564476Y-20112939D01*
X109372380Y-120157368D02*
X109325549Y-120170328D01*
X113514987Y-25166847D02*
X113556039Y-25140851D01*
X183524740Y-27305173D02*
X183485012Y-27333152D01*
X144800362Y-26888855D02*
X144782874Y-26843519D01*
X195893632Y-124593777D02*
X195893734Y-124593554D01*
X173373804Y-119258576D02*
X173370229Y-119307036D01*
X195540228Y-125024302D02*
X195540427Y-125024158D01*
X101309818Y-20301806D02*
X101309651Y-20301986D01*
X173150278Y-119838047D02*
X173118539Y-119874841D01*
X195893632Y-20606222D02*
X195862168Y-20539697D01*
X113150362Y-25611144D02*
X113170053Y-25566721D01*
X101033830Y-117699870D02*
X101034318Y-117699918D01*
X113117631Y-119497380D02*
X113104671Y-119450549D01*
X145248318Y-25116900D02*
X145291721Y-25095053D01*
X187364987Y-120033152D02*
X187325259Y-120005173D01*
X172718519Y-120142125D02*
X172672380Y-120157368D01*
X120484148Y-119718960D02*
X120458152Y-119760012D01*
X187364987Y-25166847D02*
X187406039Y-25140851D01*
X101026605Y-117695295D02*
X101026878Y-117695703D01*
X101037272Y-117700000D02*
X109084877Y-117700000D01*
X109979946Y-26933278D02*
X109958099Y-26976681D01*
X187020053Y-118266721D02*
X187041900Y-118223318D01*
X101031455Y-27500724D02*
X101031002Y-27500912D01*
X113085718Y-119355262D02*
X113079770Y-119307036D01*
X156071861Y-120180974D02*
X156024450Y-120170328D01*
X144820053Y-26933278D02*
X144800362Y-26888855D01*
X124106039Y-25140851D02*
X124148318Y-25116900D01*
X187769737Y-120189281D02*
X187721861Y-120180974D01*
X141435033Y-117989966D02*
X141468539Y-118025158D01*
X101734568Y-20043422D02*
X101723392Y-20047114D01*
X195971477Y-117697517D02*
X195971840Y-117697188D01*
X123700362Y-26888855D02*
X123682874Y-26843519D01*
X176541847Y-119760012D02*
X176515851Y-119718960D01*
X152275000Y-118690122D02*
X152275000Y-119209877D01*
X124148318Y-120083099D02*
X124106039Y-120059148D01*
X151284877Y-25000000D02*
X151284877Y-25000000D01*
X123849721Y-25361952D02*
X123881460Y-25325158D01*
X113170053Y-25566721D02*
X113191900Y-25523318D01*
X195974275Y-117693544D02*
X195974440Y-117693082D01*
X195540427Y-20175841D02*
X195540228Y-20175697D01*
X156265122Y-25000000D02*
X172384877Y-25000000D01*
X101927256Y-20005094D02*
X101926768Y-20005142D01*
X155415851Y-25481039D02*
X155441847Y-25439987D01*
X195903014Y-124571128D02*
X195927805Y-124501839D01*
X124064987Y-120033152D02*
X124025259Y-120005173D01*
X155841721Y-120104946D02*
X155798318Y-120083099D01*
X186954671Y-25749450D02*
X186967631Y-25702619D01*
X123625000Y-25990122D02*
X123626195Y-25941423D01*
X195973394Y-27504704D02*
X195973121Y-27504296D01*
X141324740Y-120005173D02*
X141285012Y-120033152D01*
X187674450Y-120170328D02*
X187627619Y-120157368D01*
X195969857Y-20901768D02*
X195968417Y-20890086D01*
X119732036Y-120195229D02*
X119683576Y-120198804D01*
X123720053Y-25566721D02*
X123741900Y-25523318D01*
X172851681Y-25116900D02*
X172893960Y-25140851D01*
X124421861Y-27480974D02*
X124374450Y-27470328D01*
X141584148Y-27018960D02*
X141558152Y-27060012D01*
X151430262Y-117710718D02*
X151478138Y-117719025D01*
X195967136Y-27500297D02*
X195966655Y-27500201D01*
X110045328Y-26750549D02*
X110032368Y-26797380D01*
X151430262Y-27489281D02*
X151382036Y-27495229D01*
X145291721Y-27404946D02*
X145248318Y-27383099D01*
X101097071Y-20628641D02*
X101096985Y-20628871D01*
X152275000Y-25990122D02*
X152275000Y-26509877D01*
X113094025Y-25796861D02*
X113104671Y-25749450D01*
X195974870Y-27508830D02*
X195974798Y-27508344D01*
X151663855Y-117775362D02*
X151708278Y-117795053D01*
X195973646Y-24994874D02*
X195973877Y-24994441D01*
X173370229Y-119307036D02*
X173364281Y-119355262D01*
X101025081Y-120209318D02*
X101025057Y-120209809D01*
X195435523Y-125087060D02*
X195446036Y-125081768D01*
X172808278Y-27404946D02*
X172763855Y-27424637D01*
X195974275Y-27506455D02*
X195974087Y-27506002D01*
X187325259Y-117894826D02*
X187364987Y-117866847D01*
X183222380Y-25042631D02*
X183268519Y-25057874D01*
X195968544Y-24999275D02*
X195968997Y-24999087D01*
X101469802Y-20168647D02*
X101469394Y-20168919D01*
X101842049Y-125182586D02*
X101914843Y-125193383D01*
X124148318Y-117816900D02*
X124191721Y-117795053D01*
X172851681Y-27383099D02*
X172808278Y-27404946D01*
X195972829Y-27503902D02*
X195972517Y-27503522D01*
X195969905Y-124297743D02*
X195970771Y-124286004D01*
X145521861Y-117719025D02*
X145569737Y-117710718D01*
X195957547Y-124383193D02*
X195957586Y-124382950D01*
X101028522Y-24997517D02*
X101028902Y-24997829D01*
X101027811Y-120203159D02*
X101027482Y-120203522D01*
X141068519Y-120142125D02*
X141022380Y-120157368D01*
X101028159Y-120202811D02*
X101027811Y-120203159D01*
X172763855Y-25075362D02*
X172808278Y-25095053D01*
X109418519Y-27442125D02*
X109372380Y-27457368D01*
X186935718Y-25844737D02*
X186944025Y-25796861D01*
X195456923Y-20124388D02*
X195456711Y-20124264D01*
X195957586Y-124382950D02*
X195968383Y-124310156D01*
X177316423Y-117701195D02*
X177365122Y-117700000D01*
X144735718Y-118544737D02*
X144744025Y-118496861D01*
X120143960Y-27359148D02*
X120101681Y-27383099D01*
X183358278Y-120104946D02*
X183313855Y-120124637D01*
X109880173Y-25400259D02*
X109908152Y-25439987D01*
X145381480Y-27442125D02*
X145336144Y-27424637D01*
X187915122Y-120200000D02*
X187866423Y-120198804D01*
X195968997Y-117699087D02*
X195969441Y-117698877D01*
X177077619Y-27457368D02*
X177031480Y-27442125D01*
X124236144Y-120124637D02*
X124191721Y-120104946D01*
X113075000Y-26509877D02*
X113075000Y-25990122D01*
X145125259Y-117894826D02*
X145164987Y-117866847D01*
X120582368Y-25702619D02*
X120595328Y-25749450D01*
X186944025Y-119403138D02*
X186935718Y-119355262D01*
X101723160Y-125152805D02*
X101723392Y-125152885D01*
X141667125Y-25656480D02*
X141682368Y-25702619D01*
X173049841Y-25256460D02*
X173085033Y-25289966D01*
X195856537Y-20528530D02*
X195850735Y-20518288D01*
X155304671Y-25749450D02*
X155317631Y-25702619D01*
X152232368Y-26797380D02*
X152217125Y-26843519D01*
X120620229Y-26607036D02*
X120614281Y-26655262D01*
X195966655Y-120200201D02*
X195966169Y-120200129D01*
X145014966Y-25289966D02*
X145050158Y-25256460D01*
X183563047Y-117924721D02*
X183599841Y-117956460D01*
X113686144Y-120124637D02*
X113641721Y-120104946D01*
X101030558Y-117698877D02*
X101031002Y-117699087D01*
X156167963Y-27495229D02*
X156119737Y-27489281D01*
X113079770Y-118592963D02*
X113085718Y-118544737D01*
X113400158Y-119943539D02*
X113364966Y-119910033D01*
X109325549Y-25029671D02*
X109372380Y-25042631D01*
X113556039Y-27359148D02*
X113514987Y-27333152D01*
X183920229Y-26607036D02*
X183914281Y-26655262D01*
X123625000Y-118690122D02*
X123625000Y-118690122D01*
X141720229Y-26607036D02*
X141714281Y-26655262D01*
X195974702Y-120207863D02*
X195974583Y-120207387D01*
X144981460Y-25325158D02*
X145014966Y-25289966D01*
X195446036Y-20118231D02*
X195435523Y-20112939D01*
X101034318Y-120200081D02*
X101033830Y-120200129D01*
X109908152Y-119760012D02*
X109880173Y-119799740D01*
X195368554Y-125118734D02*
X195368777Y-125118632D01*
X101025912Y-27506002D02*
X101025724Y-27506455D01*
X195968417Y-20890086D02*
X195968383Y-20889843D01*
X187020053Y-119633278D02*
X187000362Y-119588855D01*
X173332368Y-118402619D02*
X173345328Y-118449450D01*
X151478138Y-27480974D02*
X151430262Y-27489281D01*
X182934877Y-27500000D02*
X177365122Y-27500000D01*
X183222380Y-27457368D02*
X183175549Y-27470328D01*
X145617963Y-120195229D02*
X145569737Y-120189281D01*
X182934877Y-117700000D02*
X182934877Y-117700000D01*
X109958099Y-119676681D02*
X109934148Y-119718960D01*
X145086952Y-119975278D02*
X145050158Y-119943539D01*
X113436952Y-119975278D02*
X113400158Y-119943539D01*
X156119737Y-120189281D02*
X156071861Y-120180974D01*
X151751681Y-27383099D02*
X151708278Y-27404946D01*
X120529946Y-119633278D02*
X120508099Y-119676681D01*
X145617963Y-117704770D02*
X145666423Y-117701195D01*
X123625000Y-25990122D02*
X123625000Y-25990122D01*
X109230262Y-117710718D02*
X109278138Y-117719025D01*
X141243960Y-25140851D02*
X141285012Y-25166847D01*
X109934148Y-118181039D02*
X109958099Y-118223318D01*
X119968519Y-120142125D02*
X119922380Y-120157368D01*
X101025593Y-20987987D02*
X101025003Y-21012027D01*
X173234148Y-27018960D02*
X173208152Y-27060012D01*
X183032036Y-117704770D02*
X183080262Y-117710718D01*
X195966655Y-27500201D02*
X195966169Y-27500129D01*
X101026353Y-27505125D02*
X101026122Y-27505558D01*
X144820053Y-25566721D02*
X144841900Y-25523318D01*
X124615122Y-27500000D02*
X124566423Y-27498804D01*
X151793960Y-120059148D02*
X151751681Y-120083099D01*
X172530262Y-25010718D02*
X172578138Y-25019025D01*
X101200697Y-20434771D02*
X101193919Y-20444394D01*
X109551681Y-120083099D02*
X109508278Y-120104946D01*
X183808099Y-118223318D02*
X183829946Y-118266721D01*
X101746382Y-20040140D02*
X101735038Y-20043279D01*
X195974087Y-117693997D02*
X195974275Y-117693544D01*
M02*
