M48
; DRILL file {KiCad 7.0.5} date Wed Aug  2 13:00:30 2023
; FORMAT={-:-/ absolute / metric / decimal}
; #@! TF.CreationDate,2023-08-02T13:00:30+02:00
; #@! TF.GenerationSoftware,Kicad,Pcbnew,7.0.5
; #@! TF.FileFunction,Plated,1,2,PTH
FMAT,2
METRIC
; #@! TA.AperFunction,Plated,PTH,ComponentDrill
T1C0.200
; #@! TA.AperFunction,Plated,PTH,ViaDrill
T2C0.300
; #@! TA.AperFunction,Plated,PTH,ComponentDrill
T3C0.300
; #@! TA.AperFunction,Plated,PTH,ComponentDrill
T4C0.400
%
G90
G05
T1
X109.137Y-61.1
X109.749Y-60.487
X109.749Y-61.713
X110.362Y-59.874
X110.362Y-62.326
X110.362Y-61.1
X110.975Y-59.262
X110.975Y-60.487
X110.975Y-61.713
X110.975Y-62.938
X111.588Y-61.1
X111.588Y-59.874
X111.588Y-62.326
X112.201Y-60.487
X112.201Y-61.713
X112.813Y-61.1
X116.475Y-44.1
X116.475Y-45.2
X116.475Y-46.3
X117.575Y-44.1
X117.575Y-45.2
X117.575Y-46.3
X118.675Y-44.1
X118.675Y-45.2
X118.675Y-46.3
X120.737Y-61.1
X121.349Y-60.487
X121.349Y-61.713
X121.962Y-59.874
X121.962Y-62.326
X121.962Y-61.1
X122.575Y-59.262
X122.575Y-60.487
X122.575Y-61.713
X122.575Y-62.938
X123.188Y-61.1
X123.188Y-59.874
X123.188Y-62.326
X123.801Y-60.487
X123.801Y-61.713
X124.413Y-61.1
X140.787Y-61.1
X141.399Y-60.487
X141.399Y-61.713
X142.012Y-59.874
X142.012Y-62.326
X142.012Y-61.1
X142.625Y-59.262
X142.625Y-60.487
X142.625Y-61.713
X142.625Y-62.938
X143.238Y-61.1
X143.238Y-59.874
X143.238Y-62.326
X143.851Y-60.487
X143.851Y-61.713
X144.463Y-61.1
X148.125Y-44.1
X148.125Y-45.2
X148.125Y-46.3
X149.225Y-44.1
X149.225Y-45.2
X149.225Y-46.3
X150.325Y-44.1
X150.325Y-45.2
X150.325Y-46.3
X152.387Y-61.1
X152.999Y-60.487
X152.999Y-61.713
X153.612Y-59.874
X153.612Y-62.326
X153.612Y-61.1
X154.225Y-59.262
X154.225Y-60.487
X154.225Y-61.713
X154.225Y-62.938
X154.838Y-61.1
X154.838Y-59.874
X154.838Y-62.326
X155.451Y-60.487
X155.451Y-61.713
X156.063Y-61.1
X172.437Y-61.1
X173.049Y-60.487
X173.049Y-61.713
X173.662Y-59.874
X173.662Y-62.326
X173.662Y-61.1
X174.275Y-59.262
X174.275Y-60.487
X174.275Y-61.713
X174.275Y-62.938
X174.888Y-61.1
X174.888Y-59.874
X174.888Y-62.326
X175.501Y-60.487
X175.501Y-61.713
X176.113Y-61.1
X179.775Y-44.1
X179.775Y-45.2
X179.775Y-46.3
X180.875Y-44.1
X180.875Y-45.2
X180.875Y-46.3
X181.975Y-44.1
X181.975Y-45.2
X181.975Y-46.3
X184.037Y-61.1
X184.649Y-60.487
X184.649Y-61.713
X185.262Y-59.874
X185.262Y-62.326
X185.262Y-61.1
X185.875Y-59.262
X185.875Y-60.487
X185.875Y-61.713
X185.875Y-62.938
X186.488Y-61.1
X186.488Y-59.874
X186.488Y-62.326
X187.101Y-60.487
X187.101Y-61.713
X187.713Y-61.1
T2
X106.825Y-49.114
X107.375Y-57.8
X108.875Y-57.2
X109.151Y-53.277
X110.575Y-54.25
X112.125Y-43.85
X112.325Y-34.65
X112.644Y-39.969
X112.925Y-47.2
X113.055Y-55.696
X113.175Y-49.1
X114.975Y-48.0
X115.2Y-62.625
X115.392Y-57.905
X115.425Y-56.05
X115.675Y-54.9
X116.724Y-54.633
X116.875Y-57.303
X117.475Y-34.15
X117.951Y-57.928
X118.175Y-54.7
X118.225Y-63.45
X118.375Y-36.85
X118.625Y-61.7
X119.225Y-63.65
X119.783Y-35.65
X120.241Y-57.634
X120.375Y-47.2
X120.383Y-34.5
X121.275Y-32.6
X121.575Y-49.35
X122.825Y-42.0
X124.695Y-57.92
X127.075Y-63.8
X138.475Y-49.114
X139.025Y-57.8
X140.525Y-57.2
X140.801Y-53.277
X142.225Y-54.25
X143.775Y-43.85
X143.975Y-34.65
X144.294Y-39.969
X144.575Y-47.2
X144.705Y-55.696
X144.825Y-49.1
X146.625Y-48.0
X146.85Y-62.625
X147.042Y-57.905
X147.075Y-56.05
X147.325Y-54.9
X148.374Y-54.633
X148.525Y-57.303
X149.125Y-34.15
X149.601Y-57.928
X149.825Y-54.7
X149.875Y-63.45
X150.025Y-36.85
X150.275Y-61.7
X150.875Y-63.65
X151.433Y-35.65
X151.891Y-57.634
X152.025Y-47.2
X152.033Y-34.5
X152.925Y-32.6
X153.225Y-49.35
X154.475Y-42.0
X156.345Y-57.92
X158.725Y-63.8
X170.125Y-49.114
X170.675Y-57.8
X172.175Y-57.2
X172.451Y-53.277
X173.875Y-54.25
X175.425Y-43.85
X175.625Y-34.65
X175.944Y-39.969
X176.225Y-47.2
X176.355Y-55.696
X176.475Y-49.1
X178.275Y-48.0
X178.5Y-62.625
X178.692Y-57.905
X178.725Y-56.05
X178.975Y-54.9
X180.024Y-54.633
X180.175Y-57.303
X180.775Y-34.15
X181.251Y-57.928
X181.475Y-54.7
X181.525Y-63.45
X181.675Y-36.85
X181.925Y-61.7
X182.525Y-63.65
X183.083Y-35.65
X183.541Y-57.634
X183.675Y-47.2
X183.683Y-34.5
X184.575Y-32.6
X184.875Y-49.35
X186.125Y-42.0
X187.995Y-57.92
X190.375Y-63.8
T3
X103.815Y-78.8
X107.315Y-77.15
X107.315Y-82.15
X107.315Y-89.35
X107.315Y-98.6
X107.315Y-107.85
X108.315Y-77.15
X108.315Y-82.15
X108.315Y-94.0
X108.315Y-103.25
X108.315Y-112.5
X109.315Y-77.15
X109.315Y-82.15
X109.315Y-89.35
X109.315Y-98.6
X109.315Y-107.85
X110.315Y-77.15
X110.315Y-82.15
X110.315Y-94.0
X110.315Y-103.25
X110.315Y-112.5
X111.315Y-77.15
X111.315Y-82.15
X111.315Y-89.35
X111.315Y-98.6
X111.315Y-107.85
X112.315Y-77.15
X112.315Y-82.15
X112.315Y-94.0
X112.315Y-103.25
X112.315Y-112.5
X113.315Y-77.15
X113.315Y-82.15
X113.315Y-89.35
X113.315Y-98.6
X113.315Y-107.85
X114.315Y-77.15
X114.315Y-82.15
X114.315Y-94.0
X114.315Y-103.25
X114.315Y-112.5
X115.315Y-77.15
X115.315Y-82.15
X115.315Y-89.35
X115.315Y-98.6
X115.315Y-107.85
X116.315Y-77.15
X116.315Y-82.15
X116.315Y-94.0
X116.315Y-103.25
X116.315Y-112.5
X117.315Y-77.15
X117.315Y-82.15
X117.315Y-89.35
X117.315Y-98.6
X117.315Y-107.85
X118.315Y-77.15
X118.315Y-82.15
X118.315Y-94.0
X118.315Y-103.25
X118.315Y-112.5
X119.315Y-77.15
X119.315Y-82.15
X119.315Y-89.35
X119.315Y-98.6
X119.315Y-107.85
X120.315Y-77.15
X120.315Y-82.15
X120.315Y-94.0
X120.315Y-103.25
X120.315Y-112.5
X121.315Y-77.15
X121.315Y-82.15
X121.315Y-89.35
X121.315Y-98.6
X121.315Y-107.85
X122.315Y-77.15
X122.315Y-82.15
X122.315Y-94.0
X122.315Y-103.25
X122.315Y-112.5
X123.315Y-77.15
X123.315Y-82.15
X123.315Y-89.35
X123.315Y-98.6
X123.315Y-107.85
X124.315Y-77.15
X124.315Y-82.15
X124.315Y-94.0
X124.315Y-103.25
X124.315Y-112.5
X125.315Y-77.15
X125.315Y-82.15
X125.315Y-89.35
X125.315Y-98.6
X125.315Y-107.85
X126.315Y-77.15
X126.315Y-82.15
X126.315Y-94.0
X126.315Y-103.25
X126.315Y-112.5
X129.815Y-78.8
X135.465Y-78.8
X138.965Y-77.15
X138.965Y-82.15
X138.965Y-89.35
X138.965Y-98.6
X138.965Y-107.85
X139.965Y-77.15
X139.965Y-82.15
X139.965Y-94.0
X139.965Y-103.25
X139.965Y-112.5
X140.965Y-77.15
X140.965Y-82.15
X140.965Y-89.35
X140.965Y-98.6
X140.965Y-107.85
X141.965Y-77.15
X141.965Y-82.15
X141.965Y-94.0
X141.965Y-103.25
X141.965Y-112.5
X142.965Y-77.15
X142.965Y-82.15
X142.965Y-89.35
X142.965Y-98.6
X142.965Y-107.85
X143.965Y-77.15
X143.965Y-82.15
X143.965Y-94.0
X143.965Y-103.25
X143.965Y-112.5
X144.965Y-77.15
X144.965Y-82.15
X144.965Y-89.35
X144.965Y-98.6
X144.965Y-107.85
X145.965Y-77.15
X145.965Y-82.15
X145.965Y-94.0
X145.965Y-103.25
X145.965Y-112.5
X146.965Y-77.15
X146.965Y-82.15
X146.965Y-89.35
X146.965Y-98.6
X146.965Y-107.85
X147.965Y-77.15
X147.965Y-82.15
X147.965Y-94.0
X147.965Y-103.25
X147.965Y-112.5
X148.965Y-77.15
X148.965Y-82.15
X148.965Y-89.35
X148.965Y-98.6
X148.965Y-107.85
X149.965Y-77.15
X149.965Y-82.15
X149.965Y-94.0
X149.965Y-103.25
X149.965Y-112.5
X150.965Y-77.15
X150.965Y-82.15
X150.965Y-89.35
X150.965Y-98.6
X150.965Y-107.85
X151.965Y-77.15
X151.965Y-82.15
X151.965Y-94.0
X151.965Y-103.25
X151.965Y-112.5
X152.965Y-77.15
X152.965Y-82.15
X152.965Y-89.35
X152.965Y-98.6
X152.965Y-107.85
X153.965Y-77.15
X153.965Y-82.15
X153.965Y-94.0
X153.965Y-103.25
X153.965Y-112.5
X154.965Y-77.15
X154.965Y-82.15
X154.965Y-89.35
X154.965Y-98.6
X154.965Y-107.85
X155.965Y-77.15
X155.965Y-82.15
X155.965Y-94.0
X155.965Y-103.25
X155.965Y-112.5
X156.965Y-77.15
X156.965Y-82.15
X156.965Y-89.35
X156.965Y-98.6
X156.965Y-107.85
X157.965Y-77.15
X157.965Y-82.15
X157.965Y-94.0
X157.965Y-103.25
X157.965Y-112.5
X161.465Y-78.8
X167.115Y-78.8
X170.615Y-77.15
X170.615Y-82.15
X170.615Y-89.35
X170.615Y-98.6
X170.615Y-107.85
X171.615Y-77.15
X171.615Y-82.15
X171.615Y-94.0
X171.615Y-103.25
X171.615Y-112.5
X172.615Y-77.15
X172.615Y-82.15
X172.615Y-89.35
X172.615Y-98.6
X172.615Y-107.85
X173.615Y-77.15
X173.615Y-82.15
X173.615Y-94.0
X173.615Y-103.25
X173.615Y-112.5
X174.615Y-77.15
X174.615Y-82.15
X174.615Y-89.35
X174.615Y-98.6
X174.615Y-107.85
X175.615Y-77.15
X175.615Y-82.15
X175.615Y-94.0
X175.615Y-103.25
X175.615Y-112.5
X176.615Y-77.15
X176.615Y-82.15
X176.615Y-89.35
X176.615Y-98.6
X176.615Y-107.85
X177.615Y-77.15
X177.615Y-82.15
X177.615Y-94.0
X177.615Y-103.25
X177.615Y-112.5
X178.615Y-77.15
X178.615Y-82.15
X178.615Y-89.35
X178.615Y-98.6
X178.615Y-107.85
X179.615Y-77.15
X179.615Y-82.15
X179.615Y-94.0
X179.615Y-103.25
X179.615Y-112.5
X180.615Y-77.15
X180.615Y-82.15
X180.615Y-89.35
X180.615Y-98.6
X180.615Y-107.85
X181.615Y-77.15
X181.615Y-82.15
X181.615Y-94.0
X181.615Y-103.25
X181.615Y-112.5
X182.615Y-77.15
X182.615Y-82.15
X182.615Y-89.35
X182.615Y-98.6
X182.615Y-107.85
X183.615Y-77.15
X183.615Y-82.15
X183.615Y-94.0
X183.615Y-103.25
X183.615Y-112.5
X184.615Y-77.15
X184.615Y-82.15
X184.615Y-89.35
X184.615Y-98.6
X184.615Y-107.85
X185.615Y-77.15
X185.615Y-82.15
X185.615Y-94.0
X185.615Y-103.25
X185.615Y-112.5
X186.615Y-77.15
X186.615Y-82.15
X186.615Y-89.35
X186.615Y-98.6
X186.615Y-107.85
X187.615Y-77.15
X187.615Y-82.15
X187.615Y-94.0
X187.615Y-103.25
X187.615Y-112.5
X188.615Y-77.15
X188.615Y-82.15
X188.615Y-89.35
X188.615Y-98.6
X188.615Y-107.85
X189.615Y-77.15
X189.615Y-82.15
X189.615Y-94.0
X189.615Y-103.25
X189.615Y-112.5
X193.115Y-78.8
T4
X104.075Y-29.75
X104.075Y-32.0
X104.075Y-34.3
X104.075Y-36.6
X104.075Y-38.9
X104.075Y-41.2
X104.075Y-43.5
X121.625Y-50.9
X121.625Y-53.225
X121.625Y-55.55
X124.875Y-29.7
X124.875Y-32.062
X124.875Y-34.4
X124.875Y-36.75
X124.875Y-39.15
X125.575Y-45.05
X125.575Y-47.4
X135.725Y-29.75
X135.725Y-32.0
X135.725Y-34.3
X135.725Y-36.6
X135.725Y-38.9
X135.725Y-41.2
X135.725Y-43.5
X153.275Y-50.9
X153.275Y-53.225
X153.275Y-55.55
X156.525Y-29.7
X156.525Y-32.062
X156.525Y-34.4
X156.525Y-36.75
X156.525Y-39.15
X157.225Y-45.05
X157.225Y-47.4
X167.375Y-29.75
X167.375Y-32.0
X167.375Y-34.3
X167.375Y-36.6
X167.375Y-38.9
X167.375Y-41.2
X167.375Y-43.5
X184.925Y-50.9
X184.925Y-53.225
X184.925Y-55.55
X188.175Y-29.7
X188.175Y-32.062
X188.175Y-34.4
X188.175Y-36.75
X188.175Y-39.15
X188.875Y-45.05
X188.875Y-47.4
T3
G00X107.315Y-80.4
M15
G01X107.315Y-80.4
M16
G05
G00X108.315Y-80.4
M15
G01X108.315Y-80.4
M16
G05
G00X109.315Y-80.4
M15
G01X109.315Y-80.4
M16
G05
G00X110.315Y-80.4
M15
G01X110.315Y-80.4
M16
G05
G00X111.315Y-80.4
M15
G01X111.315Y-80.4
M16
G05
G00X112.315Y-80.4
M15
G01X112.315Y-80.4
M16
G05
G00X113.315Y-80.4
M15
G01X113.315Y-80.4
M16
G05
G00X114.315Y-80.4
M15
G01X114.315Y-80.4
M16
G05
G00X115.315Y-80.4
M15
G01X115.315Y-80.4
M16
G05
G00X116.315Y-80.4
M15
G01X116.315Y-80.4
M16
G05
G00X117.315Y-80.4
M15
G01X117.315Y-80.4
M16
G05
G00X118.315Y-80.4
M15
G01X118.315Y-80.4
M16
G05
G00X119.315Y-80.4
M15
G01X119.315Y-80.4
M16
G05
G00X120.315Y-80.4
M15
G01X120.315Y-80.4
M16
G05
G00X121.315Y-80.4
M15
G01X121.315Y-80.4
M16
G05
G00X122.315Y-80.4
M15
G01X122.315Y-80.4
M16
G05
G00X123.315Y-80.4
M15
G01X123.315Y-80.4
M16
G05
G00X124.315Y-80.4
M15
G01X124.315Y-80.4
M16
G05
G00X125.315Y-80.4
M15
G01X125.315Y-80.4
M16
G05
G00X126.315Y-80.4
M15
G01X126.315Y-80.4
M16
G05
G00X138.965Y-80.4
M15
G01X138.965Y-80.4
M16
G05
G00X139.965Y-80.4
M15
G01X139.965Y-80.4
M16
G05
G00X140.965Y-80.4
M15
G01X140.965Y-80.4
M16
G05
G00X141.965Y-80.4
M15
G01X141.965Y-80.4
M16
G05
G00X142.965Y-80.4
M15
G01X142.965Y-80.4
M16
G05
G00X143.965Y-80.4
M15
G01X143.965Y-80.4
M16
G05
G00X144.965Y-80.4
M15
G01X144.965Y-80.4
M16
G05
G00X145.965Y-80.4
M15
G01X145.965Y-80.4
M16
G05
G00X146.965Y-80.4
M15
G01X146.965Y-80.4
M16
G05
G00X147.965Y-80.4
M15
G01X147.965Y-80.4
M16
G05
G00X148.965Y-80.4
M15
G01X148.965Y-80.4
M16
G05
G00X149.965Y-80.4
M15
G01X149.965Y-80.4
M16
G05
G00X150.965Y-80.4
M15
G01X150.965Y-80.4
M16
G05
G00X151.965Y-80.4
M15
G01X151.965Y-80.4
M16
G05
G00X152.965Y-80.4
M15
G01X152.965Y-80.4
M16
G05
G00X153.965Y-80.4
M15
G01X153.965Y-80.4
M16
G05
G00X154.965Y-80.4
M15
G01X154.965Y-80.4
M16
G05
G00X155.965Y-80.4
M15
G01X155.965Y-80.4
M16
G05
G00X156.965Y-80.4
M15
G01X156.965Y-80.4
M16
G05
G00X157.965Y-80.4
M15
G01X157.965Y-80.4
M16
G05
G00X170.615Y-80.4
M15
G01X170.615Y-80.4
M16
G05
G00X171.615Y-80.4
M15
G01X171.615Y-80.4
M16
G05
G00X172.615Y-80.4
M15
G01X172.615Y-80.4
M16
G05
G00X173.615Y-80.4
M15
G01X173.615Y-80.4
M16
G05
G00X174.615Y-80.4
M15
G01X174.615Y-80.4
M16
G05
G00X175.615Y-80.4
M15
G01X175.615Y-80.4
M16
G05
G00X176.615Y-80.4
M15
G01X176.615Y-80.4
M16
G05
G00X177.615Y-80.4
M15
G01X177.615Y-80.4
M16
G05
G00X178.615Y-80.4
M15
G01X178.615Y-80.4
M16
G05
G00X179.615Y-80.4
M15
G01X179.615Y-80.4
M16
G05
G00X180.615Y-80.4
M15
G01X180.615Y-80.4
M16
G05
G00X181.615Y-80.4
M15
G01X181.615Y-80.4
M16
G05
G00X182.615Y-80.4
M15
G01X182.615Y-80.4
M16
G05
G00X183.615Y-80.4
M15
G01X183.615Y-80.4
M16
G05
G00X184.615Y-80.4
M15
G01X184.615Y-80.4
M16
G05
G00X185.615Y-80.4
M15
G01X185.615Y-80.4
M16
G05
G00X186.615Y-80.4
M15
G01X186.615Y-80.4
M16
G05
G00X187.615Y-80.4
M15
G01X187.615Y-80.4
M16
G05
G00X188.615Y-80.4
M15
G01X188.615Y-80.4
M16
G05
G00X189.615Y-80.4
M15
G01X189.615Y-80.4
M16
G05
T0
M30
