M48
; DRILL file {KiCad 7.0.5} date Mon Jul  3 18:09:26 2023
; FORMAT={-:-/ absolute / inch / decimal}
; #@! TF.CreationDate,2023-07-03T18:09:26+02:00
; #@! TF.GenerationSoftware,Kicad,Pcbnew,7.0.5
; #@! TF.FileFunction,Plated,1,2,PTH
FMAT,2
INCH
; #@! TA.AperFunction,Plated,PTH,ComponentDrill
T1C0.0079
; #@! TA.AperFunction,Plated,PTH,ViaDrill
T2C0.0118
; #@! TA.AperFunction,Plated,PTH,ComponentDrill
T3C0.0118
; #@! TA.AperFunction,Plated,PTH,ComponentDrill
T4C0.0197
%
G90
G05
T1
X4.2967Y-2.4055
X4.3208Y-2.3814
X4.3208Y-2.4296
X4.345Y-2.3573
X4.345Y-2.4538
X4.345Y-2.4055
X4.3691Y-2.3331
X4.3691Y-2.3814
X4.3691Y-2.4296
X4.3691Y-2.4779
X4.3932Y-2.4055
X4.3932Y-2.3573
X4.3932Y-2.4538
X4.4173Y-2.3814
X4.4173Y-2.4296
X4.4415Y-2.4055
X4.5856Y-1.7362
X4.5856Y-1.7795
X4.5856Y-1.8228
X4.6289Y-1.7362
X4.6289Y-1.7795
X4.6289Y-1.8228
X4.6722Y-1.7362
X4.6722Y-1.7795
X4.6722Y-1.8228
X4.7534Y-2.4055
X4.7775Y-2.3814
X4.7775Y-2.4296
X4.8017Y-2.3573
X4.8017Y-2.4538
X4.8017Y-2.4055
X4.8258Y-2.3331
X4.8258Y-2.3814
X4.8258Y-2.4296
X4.8258Y-2.4779
X4.8499Y-2.4055
X4.8499Y-2.3573
X4.8499Y-2.4538
X4.874Y-2.3814
X4.874Y-2.4296
X4.8982Y-2.4055
X5.5428Y-2.4055
X5.5669Y-2.3814
X5.5669Y-2.4296
X5.591Y-2.3573
X5.591Y-2.4538
X5.591Y-2.4055
X5.6152Y-2.3331
X5.6152Y-2.3814
X5.6152Y-2.4296
X5.6152Y-2.4779
X5.6393Y-2.4055
X5.6393Y-2.3573
X5.6393Y-2.4538
X5.6634Y-2.3814
X5.6634Y-2.4296
X5.6875Y-2.4055
X5.8317Y-1.7362
X5.8317Y-1.7795
X5.8317Y-1.8228
X5.875Y-1.7362
X5.875Y-1.7795
X5.875Y-1.8228
X5.9183Y-1.7362
X5.9183Y-1.7795
X5.9183Y-1.8228
X5.9995Y-2.4055
X6.0236Y-2.3814
X6.0236Y-2.4296
X6.0477Y-2.3573
X6.0477Y-2.4538
X6.0477Y-2.4055
X6.0719Y-2.3331
X6.0719Y-2.3814
X6.0719Y-2.4296
X6.0719Y-2.4779
X6.096Y-2.4055
X6.096Y-2.3573
X6.096Y-2.4538
X6.1201Y-2.3814
X6.1201Y-2.4296
X6.1442Y-2.4055
X6.7888Y-2.4055
X6.813Y-2.3814
X6.813Y-2.4296
X6.8371Y-2.3573
X6.8371Y-2.4538
X6.8371Y-2.4055
X6.8612Y-2.3331
X6.8612Y-2.3814
X6.8612Y-2.4296
X6.8612Y-2.4779
X6.8853Y-2.4055
X6.8853Y-2.3573
X6.8853Y-2.4538
X6.9095Y-2.3814
X6.9095Y-2.4296
X6.9336Y-2.4055
X7.0778Y-1.7362
X7.0778Y-1.7795
X7.0778Y-1.8228
X7.1211Y-1.7362
X7.1211Y-1.7795
X7.1211Y-1.8228
X7.1644Y-1.7362
X7.1644Y-1.7795
X7.1644Y-1.8228
X7.2455Y-2.4055
X7.2697Y-2.3814
X7.2697Y-2.4296
X7.2938Y-2.3573
X7.2938Y-2.4538
X7.2938Y-2.4055
X7.3179Y-2.3331
X7.3179Y-2.3814
X7.3179Y-2.4296
X7.3179Y-2.4779
X7.342Y-2.4055
X7.342Y-2.3573
X7.342Y-2.4538
X7.3662Y-2.3814
X7.3662Y-2.4296
X7.3903Y-2.4055
T2
X4.2057Y-1.9336
X4.2274Y-2.2756
X4.2864Y-2.252
X4.2973Y-2.0975
X4.3533Y-2.1358
X4.4144Y-1.7264
X4.4222Y-1.3642
X4.4348Y-1.5736
X4.4459Y-1.8583
X4.451Y-2.1928
X4.4557Y-1.9331
X4.5266Y-1.8898
X4.5354Y-2.4656
X4.543Y-2.2797
X4.5443Y-2.2067
X4.5541Y-2.1614
X4.5954Y-2.1509
X4.6014Y-2.256
X4.625Y-1.3445
X4.6437Y-2.2806
X4.6526Y-2.1535
X4.6545Y-2.498
X4.6604Y-1.4508
X4.6703Y-2.4291
X4.6939Y-2.5059
X4.7159Y-1.4035
X4.7339Y-2.269
X4.7392Y-1.8583
X4.7395Y-1.3583
X4.7746Y-1.2835
X4.7864Y-1.9429
X4.8356Y-1.6535
X4.9092Y-2.2803
X5.003Y-2.5118
X5.4518Y-1.9336
X5.4734Y-2.2756
X5.5325Y-2.252
X5.5433Y-2.0975
X5.5994Y-2.1358
X5.6604Y-1.7264
X5.6683Y-1.3642
X5.6808Y-1.5736
X5.6919Y-1.8583
X5.6971Y-2.1928
X5.7018Y-1.9331
X5.7726Y-1.8898
X5.7815Y-2.4656
X5.7891Y-2.2797
X5.7904Y-2.2067
X5.8002Y-2.1614
X5.8415Y-2.1509
X5.8474Y-2.256
X5.8711Y-1.3445
X5.8898Y-2.2806
X5.8986Y-2.1535
X5.9006Y-2.498
X5.9065Y-1.4508
X5.9163Y-2.4291
X5.94Y-2.5059
X5.9619Y-1.4035
X5.98Y-2.269
X5.9852Y-1.8583
X5.9856Y-1.3583
X6.0207Y-1.2835
X6.0325Y-1.9429
X6.0817Y-1.6535
X6.1553Y-2.2803
X6.249Y-2.5118
X6.6978Y-1.9336
X6.7195Y-2.2756
X6.7785Y-2.252
X6.7894Y-2.0975
X6.8455Y-2.1358
X6.9065Y-1.7264
X6.9144Y-1.3642
X6.9269Y-1.5736
X6.938Y-1.8583
X6.9431Y-2.1928
X6.9478Y-1.9331
X7.0187Y-1.8898
X7.0276Y-2.4656
X7.0351Y-2.2797
X7.0364Y-2.2067
X7.0463Y-2.1614
X7.0876Y-2.1509
X7.0935Y-2.256
X7.1171Y-1.3445
X7.1358Y-2.2806
X7.1447Y-2.1535
X7.1467Y-2.498
X7.1526Y-1.4508
X7.1624Y-2.4291
X7.186Y-2.5059
X7.208Y-1.4035
X7.226Y-2.269
X7.2313Y-1.8583
X7.2316Y-1.3583
X7.2667Y-1.2835
X7.2785Y-1.9429
X7.3278Y-1.6535
X7.4014Y-2.2803
X7.4951Y-2.5118
T3
X4.0872Y-3.1024
X4.225Y-3.1654
X4.2644Y-3.1654
X4.3037Y-3.1654
X4.3431Y-3.1654
X4.3825Y-3.1654
X4.4219Y-3.1654
X4.4612Y-3.1654
X4.5006Y-3.1654
X4.54Y-3.1654
X4.5793Y-3.1654
X4.6187Y-3.1654
X4.6581Y-3.1654
X4.6974Y-3.1654
X4.7368Y-3.1654
X4.7762Y-3.1654
X4.8156Y-3.1654
X4.8549Y-3.1654
X4.8943Y-3.1654
X4.9337Y-3.1654
X4.973Y-3.1654
X5.1108Y-3.1024
X5.3333Y-3.1024
X5.4711Y-3.1654
X5.5104Y-3.1654
X5.5498Y-3.1654
X5.5892Y-3.1654
X5.6285Y-3.1654
X5.6679Y-3.1654
X5.7073Y-3.1654
X5.7467Y-3.1654
X5.786Y-3.1654
X5.8254Y-3.1654
X5.8648Y-3.1654
X5.9041Y-3.1654
X5.9435Y-3.1654
X5.9829Y-3.1654
X6.0222Y-3.1654
X6.0616Y-3.1654
X6.101Y-3.1654
X6.1404Y-3.1654
X6.1797Y-3.1654
X6.2191Y-3.1654
X6.3569Y-3.1024
X6.5793Y-3.1024
X6.7171Y-3.1654
X6.7565Y-3.1654
X6.7959Y-3.1654
X6.8352Y-3.1654
X6.8746Y-3.1654
X6.914Y-3.1654
X6.9533Y-3.1654
X6.9927Y-3.1654
X7.0321Y-3.1654
X7.0715Y-3.1654
X7.1108Y-3.1654
X7.1502Y-3.1654
X7.1896Y-3.1654
X7.2289Y-3.1654
X7.2683Y-3.1654
X7.3077Y-3.1654
X7.347Y-3.1654
X7.3864Y-3.1654
X7.4258Y-3.1654
X7.4652Y-3.1654
X7.603Y-3.1024
T4
X4.0974Y-1.1713
X4.0974Y-1.2598
X4.0974Y-1.3504
X4.0974Y-1.4409
X4.0974Y-1.5315
X4.0974Y-1.622
X4.0974Y-1.7126
X4.7884Y-2.0039
X4.7884Y-2.0955
X4.7884Y-2.187
X4.9163Y-1.1693
X4.9163Y-1.2623
X4.9163Y-1.3543
X4.9163Y-1.4469
X4.9163Y-1.5413
X4.9439Y-1.7736
X4.9439Y-1.8661
X5.3435Y-1.1713
X5.3435Y-1.2598
X5.3435Y-1.3504
X5.3435Y-1.4409
X5.3435Y-1.5315
X5.3435Y-1.622
X5.3435Y-1.7126
X6.0344Y-2.0039
X6.0344Y-2.0955
X6.0344Y-2.187
X6.1624Y-1.1693
X6.1624Y-1.2623
X6.1624Y-1.3543
X6.1624Y-1.4469
X6.1624Y-1.5413
X6.19Y-1.7736
X6.19Y-1.8661
X6.5896Y-1.1713
X6.5896Y-1.2598
X6.5896Y-1.3504
X6.5896Y-1.4409
X6.5896Y-1.5315
X6.5896Y-1.622
X6.5896Y-1.7126
X7.2805Y-2.0039
X7.2805Y-2.0955
X7.2805Y-2.187
X7.4085Y-1.1693
X7.4085Y-1.2623
X7.4085Y-1.3543
X7.4085Y-1.4469
X7.4085Y-1.5413
X7.436Y-1.7736
X7.436Y-1.8661
T4
G00X4.225Y-3.4488
M15
G01X4.225Y-3.5866
M16
G05
G00X4.225Y-3.813
M15
G01X4.225Y-3.9508
M16
G05
G00X4.225Y-4.1772
M15
G01X4.225Y-4.315
M16
G05
G00X4.2644Y-3.6319
M15
G01X4.2644Y-3.7697
M16
G05
G00X4.2644Y-3.9961
M15
G01X4.2644Y-4.1339
M16
G05
G00X4.2644Y-4.3602
M15
G01X4.2644Y-4.498
M16
G05
G00X4.3037Y-3.4488
M15
G01X4.3037Y-3.5866
M16
G05
G00X4.3037Y-3.813
M15
G01X4.3037Y-3.9508
M16
G05
G00X4.3037Y-4.1772
M15
G01X4.3037Y-4.315
M16
G05
G00X4.3431Y-3.6319
M15
G01X4.3431Y-3.7697
M16
G05
G00X4.3431Y-3.9961
M15
G01X4.3431Y-4.1339
M16
G05
G00X4.3431Y-4.3602
M15
G01X4.3431Y-4.498
M16
G05
G00X4.3825Y-3.4488
M15
G01X4.3825Y-3.5866
M16
G05
G00X4.3825Y-3.813
M15
G01X4.3825Y-3.9508
M16
G05
G00X4.3825Y-4.1772
M15
G01X4.3825Y-4.315
M16
G05
G00X4.4219Y-3.6319
M15
G01X4.4219Y-3.7697
M16
G05
G00X4.4219Y-3.9961
M15
G01X4.4219Y-4.1339
M16
G05
G00X4.4219Y-4.3602
M15
G01X4.4219Y-4.498
M16
G05
G00X4.4612Y-3.4488
M15
G01X4.4612Y-3.5866
M16
G05
G00X4.4612Y-3.813
M15
G01X4.4612Y-3.9508
M16
G05
G00X4.4612Y-4.1772
M15
G01X4.4612Y-4.315
M16
G05
G00X4.5006Y-3.6319
M15
G01X4.5006Y-3.7697
M16
G05
G00X4.5006Y-3.9961
M15
G01X4.5006Y-4.1339
M16
G05
G00X4.5006Y-4.3602
M15
G01X4.5006Y-4.498
M16
G05
G00X4.54Y-3.4488
M15
G01X4.54Y-3.5866
M16
G05
G00X4.54Y-3.813
M15
G01X4.54Y-3.9508
M16
G05
G00X4.54Y-4.1772
M15
G01X4.54Y-4.315
M16
G05
G00X4.5793Y-3.6319
M15
G01X4.5793Y-3.7697
M16
G05
G00X4.5793Y-3.9961
M15
G01X4.5793Y-4.1339
M16
G05
G00X4.5793Y-4.3602
M15
G01X4.5793Y-4.498
M16
G05
G00X4.6187Y-3.4488
M15
G01X4.6187Y-3.5866
M16
G05
G00X4.6187Y-3.813
M15
G01X4.6187Y-3.9508
M16
G05
G00X4.6187Y-4.1772
M15
G01X4.6187Y-4.315
M16
G05
G00X4.6581Y-3.6319
M15
G01X4.6581Y-3.7697
M16
G05
G00X4.6581Y-3.9961
M15
G01X4.6581Y-4.1339
M16
G05
G00X4.6581Y-4.3602
M15
G01X4.6581Y-4.498
M16
G05
G00X4.6974Y-3.4488
M15
G01X4.6974Y-3.5866
M16
G05
G00X4.6974Y-3.813
M15
G01X4.6974Y-3.9508
M16
G05
G00X4.6974Y-4.1772
M15
G01X4.6974Y-4.315
M16
G05
G00X4.7368Y-3.6319
M15
G01X4.7368Y-3.7697
M16
G05
G00X4.7368Y-3.9961
M15
G01X4.7368Y-4.1339
M16
G05
G00X4.7368Y-4.3602
M15
G01X4.7368Y-4.498
M16
G05
G00X4.7762Y-3.4488
M15
G01X4.7762Y-3.5866
M16
G05
G00X4.7762Y-3.813
M15
G01X4.7762Y-3.9508
M16
G05
G00X4.7762Y-4.1772
M15
G01X4.7762Y-4.315
M16
G05
G00X4.8156Y-3.6319
M15
G01X4.8156Y-3.7697
M16
G05
G00X4.8156Y-3.9961
M15
G01X4.8156Y-4.1339
M16
G05
G00X4.8156Y-4.3602
M15
G01X4.8156Y-4.498
M16
G05
G00X4.8549Y-3.4488
M15
G01X4.8549Y-3.5866
M16
G05
G00X4.8549Y-3.813
M15
G01X4.8549Y-3.9508
M16
G05
G00X4.8549Y-4.1772
M15
G01X4.8549Y-4.315
M16
G05
G00X4.8943Y-3.6319
M15
G01X4.8943Y-3.7697
M16
G05
G00X4.8943Y-3.9961
M15
G01X4.8943Y-4.1339
M16
G05
G00X4.8943Y-4.3602
M15
G01X4.8943Y-4.498
M16
G05
G00X4.9337Y-3.4488
M15
G01X4.9337Y-3.5866
M16
G05
G00X4.9337Y-3.813
M15
G01X4.9337Y-3.9508
M16
G05
G00X4.9337Y-4.1772
M15
G01X4.9337Y-4.315
M16
G05
G00X4.973Y-3.6319
M15
G01X4.973Y-3.7697
M16
G05
G00X4.973Y-3.9961
M15
G01X4.973Y-4.1339
M16
G05
G00X4.973Y-4.3602
M15
G01X4.973Y-4.498
M16
G05
G00X5.4711Y-3.4488
M15
G01X5.4711Y-3.5866
M16
G05
G00X5.4711Y-3.813
M15
G01X5.4711Y-3.9508
M16
G05
G00X5.4711Y-4.1772
M15
G01X5.4711Y-4.315
M16
G05
G00X5.5104Y-3.6319
M15
G01X5.5104Y-3.7697
M16
G05
G00X5.5104Y-3.9961
M15
G01X5.5104Y-4.1339
M16
G05
G00X5.5104Y-4.3602
M15
G01X5.5104Y-4.498
M16
G05
G00X5.5498Y-3.4488
M15
G01X5.5498Y-3.5866
M16
G05
G00X5.5498Y-3.813
M15
G01X5.5498Y-3.9508
M16
G05
G00X5.5498Y-4.1772
M15
G01X5.5498Y-4.315
M16
G05
G00X5.5892Y-3.6319
M15
G01X5.5892Y-3.7697
M16
G05
G00X5.5892Y-3.9961
M15
G01X5.5892Y-4.1339
M16
G05
G00X5.5892Y-4.3602
M15
G01X5.5892Y-4.498
M16
G05
G00X5.6285Y-3.4488
M15
G01X5.6285Y-3.5866
M16
G05
G00X5.6285Y-3.813
M15
G01X5.6285Y-3.9508
M16
G05
G00X5.6285Y-4.1772
M15
G01X5.6285Y-4.315
M16
G05
G00X5.6679Y-3.6319
M15
G01X5.6679Y-3.7697
M16
G05
G00X5.6679Y-3.9961
M15
G01X5.6679Y-4.1339
M16
G05
G00X5.6679Y-4.3602
M15
G01X5.6679Y-4.498
M16
G05
G00X5.7073Y-3.4488
M15
G01X5.7073Y-3.5866
M16
G05
G00X5.7073Y-3.813
M15
G01X5.7073Y-3.9508
M16
G05
G00X5.7073Y-4.1772
M15
G01X5.7073Y-4.315
M16
G05
G00X5.7467Y-3.6319
M15
G01X5.7467Y-3.7697
M16
G05
G00X5.7467Y-3.9961
M15
G01X5.7467Y-4.1339
M16
G05
G00X5.7467Y-4.3602
M15
G01X5.7467Y-4.498
M16
G05
G00X5.786Y-3.4488
M15
G01X5.786Y-3.5866
M16
G05
G00X5.786Y-3.813
M15
G01X5.786Y-3.9508
M16
G05
G00X5.786Y-4.1772
M15
G01X5.786Y-4.315
M16
G05
G00X5.8254Y-3.6319
M15
G01X5.8254Y-3.7697
M16
G05
G00X5.8254Y-3.9961
M15
G01X5.8254Y-4.1339
M16
G05
G00X5.8254Y-4.3602
M15
G01X5.8254Y-4.498
M16
G05
G00X5.8648Y-3.4488
M15
G01X5.8648Y-3.5866
M16
G05
G00X5.8648Y-3.813
M15
G01X5.8648Y-3.9508
M16
G05
G00X5.8648Y-4.1772
M15
G01X5.8648Y-4.315
M16
G05
G00X5.9041Y-3.6319
M15
G01X5.9041Y-3.7697
M16
G05
G00X5.9041Y-3.9961
M15
G01X5.9041Y-4.1339
M16
G05
G00X5.9041Y-4.3602
M15
G01X5.9041Y-4.498
M16
G05
G00X5.9435Y-3.4488
M15
G01X5.9435Y-3.5866
M16
G05
G00X5.9435Y-3.813
M15
G01X5.9435Y-3.9508
M16
G05
G00X5.9435Y-4.1772
M15
G01X5.9435Y-4.315
M16
G05
G00X5.9829Y-3.6319
M15
G01X5.9829Y-3.7697
M16
G05
G00X5.9829Y-3.9961
M15
G01X5.9829Y-4.1339
M16
G05
G00X5.9829Y-4.3602
M15
G01X5.9829Y-4.498
M16
G05
G00X6.0222Y-3.4488
M15
G01X6.0222Y-3.5866
M16
G05
G00X6.0222Y-3.813
M15
G01X6.0222Y-3.9508
M16
G05
G00X6.0222Y-4.1772
M15
G01X6.0222Y-4.315
M16
G05
G00X6.0616Y-3.6319
M15
G01X6.0616Y-3.7697
M16
G05
G00X6.0616Y-3.9961
M15
G01X6.0616Y-4.1339
M16
G05
G00X6.0616Y-4.3602
M15
G01X6.0616Y-4.498
M16
G05
G00X6.101Y-3.4488
M15
G01X6.101Y-3.5866
M16
G05
G00X6.101Y-3.813
M15
G01X6.101Y-3.9508
M16
G05
G00X6.101Y-4.1772
M15
G01X6.101Y-4.315
M16
G05
G00X6.1404Y-3.6319
M15
G01X6.1404Y-3.7697
M16
G05
G00X6.1404Y-3.9961
M15
G01X6.1404Y-4.1339
M16
G05
G00X6.1404Y-4.3602
M15
G01X6.1404Y-4.498
M16
G05
G00X6.1797Y-3.4488
M15
G01X6.1797Y-3.5866
M16
G05
G00X6.1797Y-3.813
M15
G01X6.1797Y-3.9508
M16
G05
G00X6.1797Y-4.1772
M15
G01X6.1797Y-4.315
M16
G05
G00X6.2191Y-3.6319
M15
G01X6.2191Y-3.7697
M16
G05
G00X6.2191Y-3.9961
M15
G01X6.2191Y-4.1339
M16
G05
G00X6.2191Y-4.3602
M15
G01X6.2191Y-4.498
M16
G05
G00X6.7171Y-3.4488
M15
G01X6.7171Y-3.5866
M16
G05
G00X6.7171Y-3.813
M15
G01X6.7171Y-3.9508
M16
G05
G00X6.7171Y-4.1772
M15
G01X6.7171Y-4.315
M16
G05
G00X6.7565Y-3.6319
M15
G01X6.7565Y-3.7697
M16
G05
G00X6.7565Y-3.9961
M15
G01X6.7565Y-4.1339
M16
G05
G00X6.7565Y-4.3602
M15
G01X6.7565Y-4.498
M16
G05
G00X6.7959Y-3.4488
M15
G01X6.7959Y-3.5866
M16
G05
G00X6.7959Y-3.813
M15
G01X6.7959Y-3.9508
M16
G05
G00X6.7959Y-4.1772
M15
G01X6.7959Y-4.315
M16
G05
G00X6.8352Y-3.6319
M15
G01X6.8352Y-3.7697
M16
G05
G00X6.8352Y-3.9961
M15
G01X6.8352Y-4.1339
M16
G05
G00X6.8352Y-4.3602
M15
G01X6.8352Y-4.498
M16
G05
G00X6.8746Y-3.4488
M15
G01X6.8746Y-3.5866
M16
G05
G00X6.8746Y-3.813
M15
G01X6.8746Y-3.9508
M16
G05
G00X6.8746Y-4.1772
M15
G01X6.8746Y-4.315
M16
G05
G00X6.914Y-3.6319
M15
G01X6.914Y-3.7697
M16
G05
G00X6.914Y-3.9961
M15
G01X6.914Y-4.1339
M16
G05
G00X6.914Y-4.3602
M15
G01X6.914Y-4.498
M16
G05
G00X6.9533Y-3.4488
M15
G01X6.9533Y-3.5866
M16
G05
G00X6.9533Y-3.813
M15
G01X6.9533Y-3.9508
M16
G05
G00X6.9533Y-4.1772
M15
G01X6.9533Y-4.315
M16
G05
G00X6.9927Y-3.6319
M15
G01X6.9927Y-3.7697
M16
G05
G00X6.9927Y-3.9961
M15
G01X6.9927Y-4.1339
M16
G05
G00X6.9927Y-4.3602
M15
G01X6.9927Y-4.498
M16
G05
G00X7.0321Y-3.4488
M15
G01X7.0321Y-3.5866
M16
G05
G00X7.0321Y-3.813
M15
G01X7.0321Y-3.9508
M16
G05
G00X7.0321Y-4.1772
M15
G01X7.0321Y-4.315
M16
G05
G00X7.0715Y-3.6319
M15
G01X7.0715Y-3.7697
M16
G05
G00X7.0715Y-3.9961
M15
G01X7.0715Y-4.1339
M16
G05
G00X7.0715Y-4.3602
M15
G01X7.0715Y-4.498
M16
G05
G00X7.1108Y-3.4488
M15
G01X7.1108Y-3.5866
M16
G05
G00X7.1108Y-3.813
M15
G01X7.1108Y-3.9508
M16
G05
G00X7.1108Y-4.1772
M15
G01X7.1108Y-4.315
M16
G05
G00X7.1502Y-3.6319
M15
G01X7.1502Y-3.7697
M16
G05
G00X7.1502Y-3.9961
M15
G01X7.1502Y-4.1339
M16
G05
G00X7.1502Y-4.3602
M15
G01X7.1502Y-4.498
M16
G05
G00X7.1896Y-3.4488
M15
G01X7.1896Y-3.5866
M16
G05
G00X7.1896Y-3.813
M15
G01X7.1896Y-3.9508
M16
G05
G00X7.1896Y-4.1772
M15
G01X7.1896Y-4.315
M16
G05
G00X7.2289Y-3.6319
M15
G01X7.2289Y-3.7697
M16
G05
G00X7.2289Y-3.9961
M15
G01X7.2289Y-4.1339
M16
G05
G00X7.2289Y-4.3602
M15
G01X7.2289Y-4.498
M16
G05
G00X7.2683Y-3.4488
M15
G01X7.2683Y-3.5866
M16
G05
G00X7.2683Y-3.813
M15
G01X7.2683Y-3.9508
M16
G05
G00X7.2683Y-4.1772
M15
G01X7.2683Y-4.315
M16
G05
G00X7.3077Y-3.6319
M15
G01X7.3077Y-3.7697
M16
G05
G00X7.3077Y-3.9961
M15
G01X7.3077Y-4.1339
M16
G05
G00X7.3077Y-4.3602
M15
G01X7.3077Y-4.498
M16
G05
G00X7.347Y-3.4488
M15
G01X7.347Y-3.5866
M16
G05
G00X7.347Y-3.813
M15
G01X7.347Y-3.9508
M16
G05
G00X7.347Y-4.1772
M15
G01X7.347Y-4.315
M16
G05
G00X7.3864Y-3.6319
M15
G01X7.3864Y-3.7697
M16
G05
G00X7.3864Y-3.9961
M15
G01X7.3864Y-4.1339
M16
G05
G00X7.3864Y-4.3602
M15
G01X7.3864Y-4.498
M16
G05
G00X7.4258Y-3.4488
M15
G01X7.4258Y-3.5866
M16
G05
G00X7.4258Y-3.813
M15
G01X7.4258Y-3.9508
M16
G05
G00X7.4258Y-4.1772
M15
G01X7.4258Y-4.315
M16
G05
G00X7.4652Y-3.6319
M15
G01X7.4652Y-3.7697
M16
G05
G00X7.4652Y-3.9961
M15
G01X7.4652Y-4.1339
M16
G05
G00X7.4652Y-4.3602
M15
G01X7.4652Y-4.498
M16
G05
T0
M30
