%TF.GenerationSoftware,KiCad,Pcbnew,7.0.5*%
%TF.CreationDate,2023-08-02T13:00:21+02:00*%
%TF.ProjectId,actuator_panel,61637475-6174-46f7-925f-70616e656c2e,rev?*%
%TF.SameCoordinates,Original*%
%TF.FileFunction,Soldermask,Top*%
%TF.FilePolarity,Negative*%
%FSLAX46Y46*%
G04 Gerber Fmt 4.6, Leading zero omitted, Abs format (unit mm)*
G04 Created by KiCad (PCBNEW 7.0.5) date 2023-08-02 13:00:21*
%MOMM*%
%LPD*%
G01*
G04 APERTURE LIST*
G04 Aperture macros list*
%AMRoundRect*
0 Rectangle with rounded corners*
0 $1 Rounding radius*
0 $2 $3 $4 $5 $6 $7 $8 $9 X,Y pos of 4 corners*
0 Add a 4 corners polygon primitive as box body*
4,1,4,$2,$3,$4,$5,$6,$7,$8,$9,$2,$3,0*
0 Add four circle primitives for the rounded corners*
1,1,$1+$1,$2,$3*
1,1,$1+$1,$4,$5*
1,1,$1+$1,$6,$7*
1,1,$1+$1,$8,$9*
0 Add four rect primitives between the rounded corners*
20,1,$1+$1,$2,$3,$4,$5,0*
20,1,$1+$1,$4,$5,$6,$7,0*
20,1,$1+$1,$6,$7,$8,$9,0*
20,1,$1+$1,$8,$9,$2,$3,0*%
%AMRotRect*
0 Rectangle, with rotation*
0 The origin of the aperture is its center*
0 $1 length*
0 $2 width*
0 $3 Rotation angle, in degrees counterclockwise*
0 Add horizontal line*
21,1,$1,$2,0,0,$3*%
G04 Aperture macros list end*
%ADD10C,1.000000*%
%ADD11RoundRect,0.200000X-0.200000X-0.275000X0.200000X-0.275000X0.200000X0.275000X-0.200000X0.275000X0*%
%ADD12RoundRect,0.500000X-0.500000X-0.500000X0.500000X-0.500000X0.500000X0.500000X-0.500000X0.500000X0*%
%ADD13RoundRect,0.150000X-0.150000X-0.250000X0.150000X-0.250000X0.150000X0.250000X-0.150000X0.250000X0*%
%ADD14RoundRect,0.150000X-0.150000X-2.200000X0.150000X-2.200000X0.150000X2.200000X-0.150000X2.200000X0*%
%ADD15RoundRect,0.062500X-0.350000X-0.062500X0.350000X-0.062500X0.350000X0.062500X-0.350000X0.062500X0*%
%ADD16RoundRect,0.062500X-0.062500X-0.350000X0.062500X-0.350000X0.062500X0.350000X-0.062500X0.350000X0*%
%ADD17R,2.700000X2.700000*%
%ADD18RoundRect,0.200000X-0.275000X0.200000X-0.275000X-0.200000X0.275000X-0.200000X0.275000X0.200000X0*%
%ADD19RoundRect,0.250000X-1.450000X0.250000X-1.450000X-0.250000X1.450000X-0.250000X1.450000X0.250000X0*%
%ADD20RoundRect,0.225000X0.250000X-0.225000X0.250000X0.225000X-0.250000X0.225000X-0.250000X-0.225000X0*%
%ADD21RoundRect,0.062500X-0.220971X-0.309359X0.309359X0.220971X0.220971X0.309359X-0.309359X-0.220971X0*%
%ADD22RoundRect,0.062500X0.220971X-0.309359X0.309359X-0.220971X-0.220971X0.309359X-0.309359X0.220971X0*%
%ADD23RotRect,3.100000X3.100000X45.000000*%
%ADD24RoundRect,0.075000X0.075000X0.325000X-0.075000X0.325000X-0.075000X-0.325000X0.075000X-0.325000X0*%
%ADD25RoundRect,0.125000X0.125000X0.375000X-0.125000X0.375000X-0.125000X-0.375000X0.125000X-0.375000X0*%
%ADD26RoundRect,0.250000X0.300000X-0.300000X0.300000X0.300000X-0.300000X0.300000X-0.300000X-0.300000X0*%
%ADD27RoundRect,0.200000X0.275000X-0.200000X0.275000X0.200000X-0.275000X0.200000X-0.275000X-0.200000X0*%
%ADD28RoundRect,0.225000X-0.225000X-0.250000X0.225000X-0.250000X0.225000X0.250000X-0.225000X0.250000X0*%
%ADD29RoundRect,0.250000X-0.475000X0.250000X-0.475000X-0.250000X0.475000X-0.250000X0.475000X0.250000X0*%
%ADD30RoundRect,0.062500X0.309359X-0.220971X-0.220971X0.309359X-0.309359X0.220971X0.220971X-0.309359X0*%
%ADD31RoundRect,0.062500X0.309359X0.220971X0.220971X0.309359X-0.309359X-0.220971X-0.220971X-0.309359X0*%
%ADD32RotRect,3.100000X3.100000X135.000000*%
%ADD33RoundRect,0.225000X0.225000X0.250000X-0.225000X0.250000X-0.225000X-0.250000X0.225000X-0.250000X0*%
%ADD34C,2.510000*%
%ADD35R,0.300000X3.000000*%
%ADD36RoundRect,0.375000X-0.375000X-0.375000X0.375000X-0.375000X0.375000X0.375000X-0.375000X0.375000X0*%
G04 APERTURE END LIST*
D10*
%TO.C,TP14*%
X135725000Y-38900000D03*
%TD*%
%TO.C,TP2*%
X124875000Y-39150000D03*
%TD*%
D11*
%TO.C,R3*%
X152850000Y-43300000D03*
X154500000Y-43300000D03*
%TD*%
D10*
%TO.C,TP12*%
X104075000Y-36600000D03*
%TD*%
%TO.C,TP4*%
X184925000Y-50900000D03*
%TD*%
%TO.C,TP5*%
X157225000Y-45050000D03*
%TD*%
D12*
%TO.C,piezo1*%
X167115000Y-78800000D03*
D13*
X170615000Y-77150000D03*
D14*
X170615000Y-79650000D03*
D13*
X170615000Y-82150000D03*
X171615000Y-77150000D03*
D14*
X171615000Y-79650000D03*
D13*
X171615000Y-82150000D03*
X172615000Y-77150000D03*
D14*
X172615000Y-79650000D03*
D13*
X172615000Y-82150000D03*
X173615000Y-77150000D03*
D14*
X173615000Y-79650000D03*
D13*
X173615000Y-82150000D03*
X174615000Y-77150000D03*
D14*
X174615000Y-79650000D03*
D13*
X174615000Y-82150000D03*
X175615000Y-77150000D03*
D14*
X175615000Y-79650000D03*
D13*
X175615000Y-82150000D03*
X176615000Y-77150000D03*
D14*
X176615000Y-79650000D03*
D13*
X176615000Y-82150000D03*
X177615000Y-77150000D03*
D14*
X177615000Y-79650000D03*
D13*
X177615000Y-82150000D03*
X178615000Y-77150000D03*
D14*
X178615000Y-79650000D03*
D13*
X178615000Y-82150000D03*
X179615000Y-77150000D03*
D14*
X179615000Y-79650000D03*
D13*
X179615000Y-82150000D03*
X180615000Y-77150000D03*
D14*
X180615000Y-79650000D03*
D13*
X180615000Y-82150000D03*
X181615000Y-77150000D03*
D14*
X181615000Y-79650000D03*
D13*
X181615000Y-82150000D03*
X182615000Y-77150000D03*
D14*
X182615000Y-79650000D03*
D13*
X182615000Y-82150000D03*
X183615000Y-77150000D03*
D14*
X183615000Y-79650000D03*
D13*
X183615000Y-82150000D03*
X184615000Y-77150000D03*
D14*
X184615000Y-79650000D03*
D13*
X184615000Y-82150000D03*
X185615000Y-77150000D03*
D14*
X185615000Y-79650000D03*
D13*
X185615000Y-82150000D03*
X186615000Y-77150000D03*
D14*
X186615000Y-79650000D03*
D13*
X186615000Y-82150000D03*
X187615000Y-77150000D03*
D14*
X187615000Y-79650000D03*
D13*
X187615000Y-82150000D03*
X188615000Y-77150000D03*
D14*
X188615000Y-79650000D03*
D13*
X188615000Y-82150000D03*
X189615000Y-77150000D03*
D14*
X189615000Y-79650000D03*
D13*
X189615000Y-82150000D03*
D12*
X193115000Y-78800000D03*
D13*
X170615000Y-89350000D03*
X170615000Y-98600000D03*
X170615000Y-107850000D03*
X171615000Y-94000000D03*
X171615000Y-103250000D03*
X171615000Y-112500000D03*
X172615000Y-89350000D03*
X172615000Y-98600000D03*
X172615000Y-107850000D03*
X173615000Y-94000000D03*
X173615000Y-103250000D03*
X173615000Y-112500000D03*
X174615000Y-89350000D03*
X174615000Y-98600000D03*
X174615000Y-107850000D03*
X175615000Y-94000000D03*
X175615000Y-103250000D03*
X175615000Y-112500000D03*
X176615000Y-89350000D03*
X176615000Y-98600000D03*
X176615000Y-107850000D03*
X177615000Y-94000000D03*
X177615000Y-103250000D03*
X177615000Y-112500000D03*
X178615000Y-89350000D03*
X178615000Y-98600000D03*
X178615000Y-107850000D03*
X179615000Y-94000000D03*
X179615000Y-103250000D03*
X179615000Y-112500000D03*
X180615000Y-89350000D03*
X180615000Y-98600000D03*
X180615000Y-107850000D03*
X181615000Y-94000000D03*
X181615000Y-103250000D03*
X181615000Y-112500000D03*
X182615000Y-89350000D03*
X182615000Y-98600000D03*
X182615000Y-107850000D03*
X183615000Y-94000000D03*
X183615000Y-103250000D03*
X183615000Y-112500000D03*
X184615000Y-89350000D03*
X184615000Y-98600000D03*
X184615000Y-107850000D03*
X185615000Y-94000000D03*
X185615000Y-103250000D03*
X185615000Y-112500000D03*
X186615000Y-89350000D03*
X186615000Y-98600000D03*
X186615000Y-107850000D03*
X187615000Y-94000000D03*
X187615000Y-103250000D03*
X187615000Y-112500000D03*
X188615000Y-89350000D03*
X188615000Y-98600000D03*
X188615000Y-107850000D03*
X189615000Y-94000000D03*
X189615000Y-103250000D03*
X189615000Y-112500000D03*
%TD*%
D10*
%TO.C,TP4*%
X153275000Y-50900000D03*
%TD*%
%TO.C,TP7*%
X124875000Y-32062500D03*
%TD*%
%TO.C,REF\u002A\u002A*%
X108525000Y-22500000D03*
%TD*%
%TO.C,TP1*%
X135725000Y-29750000D03*
%TD*%
D11*
%TO.C,R2*%
X143800000Y-44700000D03*
X145450000Y-44700000D03*
%TD*%
D15*
%TO.C,U3*%
X178912500Y-44200000D03*
X178912500Y-44700000D03*
X178912500Y-45200000D03*
X178912500Y-45700000D03*
X178912500Y-46200000D03*
D16*
X179875000Y-47162500D03*
X180375000Y-47162500D03*
X180875000Y-47162500D03*
X181375000Y-47162500D03*
X181875000Y-47162500D03*
D15*
X182837500Y-46200000D03*
X182837500Y-45700000D03*
X182837500Y-45200000D03*
X182837500Y-44700000D03*
X182837500Y-44200000D03*
D16*
X181875000Y-43237500D03*
X181375000Y-43237500D03*
X180875000Y-43237500D03*
X180375000Y-43237500D03*
X179875000Y-43237500D03*
D17*
X180875000Y-45200000D03*
%TD*%
D11*
%TO.C,R2*%
X112150000Y-44700000D03*
X113800000Y-44700000D03*
%TD*%
D10*
%TO.C,TP9*%
X104075000Y-34300000D03*
%TD*%
D18*
%TO.C,R4*%
X180875000Y-36775000D03*
X180875000Y-38425000D03*
%TD*%
%TO.C,R4*%
X117575000Y-36775000D03*
X117575000Y-38425000D03*
%TD*%
D11*
%TO.C,R2*%
X175450000Y-44700000D03*
X177100000Y-44700000D03*
%TD*%
%TO.C,R3*%
X121200000Y-43300000D03*
X122850000Y-43300000D03*
%TD*%
D19*
%TO.C,L1*%
X149725000Y-48800000D03*
X149725000Y-50900000D03*
%TD*%
D20*
%TO.C,C2*%
X114075000Y-41375000D03*
X114075000Y-39825000D03*
%TD*%
D19*
%TO.C,L1*%
X181375000Y-48800000D03*
X181375000Y-50900000D03*
%TD*%
D12*
%TO.C,piezo1*%
X103815000Y-78800000D03*
D13*
X107315000Y-77150000D03*
D14*
X107315000Y-79650000D03*
D13*
X107315000Y-82150000D03*
X108315000Y-77150000D03*
D14*
X108315000Y-79650000D03*
D13*
X108315000Y-82150000D03*
X109315000Y-77150000D03*
D14*
X109315000Y-79650000D03*
D13*
X109315000Y-82150000D03*
X110315000Y-77150000D03*
D14*
X110315000Y-79650000D03*
D13*
X110315000Y-82150000D03*
X111315000Y-77150000D03*
D14*
X111315000Y-79650000D03*
D13*
X111315000Y-82150000D03*
X112315000Y-77150000D03*
D14*
X112315000Y-79650000D03*
D13*
X112315000Y-82150000D03*
X113315000Y-77150000D03*
D14*
X113315000Y-79650000D03*
D13*
X113315000Y-82150000D03*
X114315000Y-77150000D03*
D14*
X114315000Y-79650000D03*
D13*
X114315000Y-82150000D03*
X115315000Y-77150000D03*
D14*
X115315000Y-79650000D03*
D13*
X115315000Y-82150000D03*
X116315000Y-77150000D03*
D14*
X116315000Y-79650000D03*
D13*
X116315000Y-82150000D03*
X117315000Y-77150000D03*
D14*
X117315000Y-79650000D03*
D13*
X117315000Y-82150000D03*
X118315000Y-77150000D03*
D14*
X118315000Y-79650000D03*
D13*
X118315000Y-82150000D03*
X119315000Y-77150000D03*
D14*
X119315000Y-79650000D03*
D13*
X119315000Y-82150000D03*
X120315000Y-77150000D03*
D14*
X120315000Y-79650000D03*
D13*
X120315000Y-82150000D03*
X121315000Y-77150000D03*
D14*
X121315000Y-79650000D03*
D13*
X121315000Y-82150000D03*
X122315000Y-77150000D03*
D14*
X122315000Y-79650000D03*
D13*
X122315000Y-82150000D03*
X123315000Y-77150000D03*
D14*
X123315000Y-79650000D03*
D13*
X123315000Y-82150000D03*
X124315000Y-77150000D03*
D14*
X124315000Y-79650000D03*
D13*
X124315000Y-82150000D03*
X125315000Y-77150000D03*
D14*
X125315000Y-79650000D03*
D13*
X125315000Y-82150000D03*
X126315000Y-77150000D03*
D14*
X126315000Y-79650000D03*
D13*
X126315000Y-82150000D03*
D12*
X129815000Y-78800000D03*
D13*
X107315000Y-89350000D03*
X107315000Y-98600000D03*
X107315000Y-107850000D03*
X108315000Y-94000000D03*
X108315000Y-103250000D03*
X108315000Y-112500000D03*
X109315000Y-89350000D03*
X109315000Y-98600000D03*
X109315000Y-107850000D03*
X110315000Y-94000000D03*
X110315000Y-103250000D03*
X110315000Y-112500000D03*
X111315000Y-89350000D03*
X111315000Y-98600000D03*
X111315000Y-107850000D03*
X112315000Y-94000000D03*
X112315000Y-103250000D03*
X112315000Y-112500000D03*
X113315000Y-89350000D03*
X113315000Y-98600000D03*
X113315000Y-107850000D03*
X114315000Y-94000000D03*
X114315000Y-103250000D03*
X114315000Y-112500000D03*
X115315000Y-89350000D03*
X115315000Y-98600000D03*
X115315000Y-107850000D03*
X116315000Y-94000000D03*
X116315000Y-103250000D03*
X116315000Y-112500000D03*
X117315000Y-89350000D03*
X117315000Y-98600000D03*
X117315000Y-107850000D03*
X118315000Y-94000000D03*
X118315000Y-103250000D03*
X118315000Y-112500000D03*
X119315000Y-89350000D03*
X119315000Y-98600000D03*
X119315000Y-107850000D03*
X120315000Y-94000000D03*
X120315000Y-103250000D03*
X120315000Y-112500000D03*
X121315000Y-89350000D03*
X121315000Y-98600000D03*
X121315000Y-107850000D03*
X122315000Y-94000000D03*
X122315000Y-103250000D03*
X122315000Y-112500000D03*
X123315000Y-89350000D03*
X123315000Y-98600000D03*
X123315000Y-107850000D03*
X124315000Y-94000000D03*
X124315000Y-103250000D03*
X124315000Y-112500000D03*
X125315000Y-89350000D03*
X125315000Y-98600000D03*
X125315000Y-107850000D03*
X126315000Y-94000000D03*
X126315000Y-103250000D03*
X126315000Y-112500000D03*
%TD*%
D21*
%TO.C,U1*%
X171313990Y-61586136D03*
X171667544Y-61939689D03*
X172021097Y-62293243D03*
X172374651Y-62646796D03*
X172728204Y-63000349D03*
X173081757Y-63353903D03*
X173435311Y-63707456D03*
X173788864Y-64061010D03*
D22*
X174761136Y-64061010D03*
X175114689Y-63707456D03*
X175468243Y-63353903D03*
X175821796Y-63000349D03*
X176175349Y-62646796D03*
X176528903Y-62293243D03*
X176882456Y-61939689D03*
X177236010Y-61586136D03*
D21*
X177236010Y-60613864D03*
X176882456Y-60260311D03*
X176528903Y-59906757D03*
X176175349Y-59553204D03*
X175821796Y-59199651D03*
X175468243Y-58846097D03*
X175114689Y-58492544D03*
X174761136Y-58138990D03*
D22*
X173788864Y-58138990D03*
X173435311Y-58492544D03*
X173081757Y-58846097D03*
X172728204Y-59199651D03*
X172374651Y-59553204D03*
X172021097Y-59906757D03*
X171667544Y-60260311D03*
X171313990Y-60613864D03*
D23*
X174275000Y-61100000D03*
%TD*%
D24*
%TO.C,J1*%
X176825000Y-32700000D03*
X177325000Y-32700000D03*
X177825000Y-32700000D03*
X178325000Y-32700000D03*
X178825000Y-32700000D03*
X179325000Y-32700000D03*
X179825000Y-32700000D03*
X180325000Y-32700000D03*
X180825000Y-32700000D03*
X181325000Y-32700000D03*
X181825000Y-32700000D03*
X182325000Y-32700000D03*
D25*
X183325000Y-30200000D03*
X175825000Y-30200000D03*
%TD*%
D26*
%TO.C,D1*%
X148525000Y-63500000D03*
X148525000Y-60700000D03*
%TD*%
D11*
%TO.C,R1*%
X112150000Y-46300000D03*
X113800000Y-46300000D03*
%TD*%
D10*
%TO.C,TP9*%
X135725000Y-34300000D03*
%TD*%
%TO.C,TP11*%
X156525000Y-34400000D03*
%TD*%
D27*
%TO.C,R5*%
X119175000Y-38425000D03*
X119175000Y-36775000D03*
%TD*%
D28*
%TO.C,C8*%
X149050000Y-52900000D03*
X150600000Y-52900000D03*
%TD*%
D24*
%TO.C,J1*%
X145175000Y-32700000D03*
X145675000Y-32700000D03*
X146175000Y-32700000D03*
X146675000Y-32700000D03*
X147175000Y-32700000D03*
X147675000Y-32700000D03*
X148175000Y-32700000D03*
X148675000Y-32700000D03*
X149175000Y-32700000D03*
X149675000Y-32700000D03*
X150175000Y-32700000D03*
X150675000Y-32700000D03*
D25*
X151675000Y-30200000D03*
X144175000Y-30200000D03*
%TD*%
D29*
%TO.C,C4*%
X184875000Y-46450000D03*
X184875000Y-48350000D03*
%TD*%
D20*
%TO.C,C2*%
X177375000Y-41375000D03*
X177375000Y-39825000D03*
%TD*%
D30*
%TO.C,U2*%
X186361136Y-64061010D03*
X186714689Y-63707456D03*
X187068243Y-63353903D03*
X187421796Y-63000349D03*
X187775349Y-62646796D03*
X188128903Y-62293243D03*
X188482456Y-61939689D03*
X188836010Y-61586136D03*
D31*
X188836010Y-60613864D03*
X188482456Y-60260311D03*
X188128903Y-59906757D03*
X187775349Y-59553204D03*
X187421796Y-59199651D03*
X187068243Y-58846097D03*
X186714689Y-58492544D03*
X186361136Y-58138990D03*
D30*
X185388864Y-58138990D03*
X185035311Y-58492544D03*
X184681757Y-58846097D03*
X184328204Y-59199651D03*
X183974651Y-59553204D03*
X183621097Y-59906757D03*
X183267544Y-60260311D03*
X182913990Y-60613864D03*
D31*
X182913990Y-61586136D03*
X183267544Y-61939689D03*
X183621097Y-62293243D03*
X183974651Y-62646796D03*
X184328204Y-63000349D03*
X184681757Y-63353903D03*
X185035311Y-63707456D03*
X185388864Y-64061010D03*
D32*
X185875000Y-61100000D03*
%TD*%
D20*
%TO.C,C6*%
X121275000Y-39925000D03*
X121275000Y-38375000D03*
%TD*%
%TO.C,C2*%
X145725000Y-41375000D03*
X145725000Y-39825000D03*
%TD*%
D10*
%TO.C,TP2*%
X156525000Y-39150000D03*
%TD*%
%TO.C,TP2*%
X167375000Y-43500000D03*
%TD*%
D12*
%TO.C,piezo1*%
X135465000Y-78800000D03*
D13*
X138965000Y-77150000D03*
D14*
X138965000Y-79650000D03*
D13*
X138965000Y-82150000D03*
X139965000Y-77150000D03*
D14*
X139965000Y-79650000D03*
D13*
X139965000Y-82150000D03*
X140965000Y-77150000D03*
D14*
X140965000Y-79650000D03*
D13*
X140965000Y-82150000D03*
X141965000Y-77150000D03*
D14*
X141965000Y-79650000D03*
D13*
X141965000Y-82150000D03*
X142965000Y-77150000D03*
D14*
X142965000Y-79650000D03*
D13*
X142965000Y-82150000D03*
X143965000Y-77150000D03*
D14*
X143965000Y-79650000D03*
D13*
X143965000Y-82150000D03*
X144965000Y-77150000D03*
D14*
X144965000Y-79650000D03*
D13*
X144965000Y-82150000D03*
X145965000Y-77150000D03*
D14*
X145965000Y-79650000D03*
D13*
X145965000Y-82150000D03*
X146965000Y-77150000D03*
D14*
X146965000Y-79650000D03*
D13*
X146965000Y-82150000D03*
X147965000Y-77150000D03*
D14*
X147965000Y-79650000D03*
D13*
X147965000Y-82150000D03*
X148965000Y-77150000D03*
D14*
X148965000Y-79650000D03*
D13*
X148965000Y-82150000D03*
X149965000Y-77150000D03*
D14*
X149965000Y-79650000D03*
D13*
X149965000Y-82150000D03*
X150965000Y-77150000D03*
D14*
X150965000Y-79650000D03*
D13*
X150965000Y-82150000D03*
X151965000Y-77150000D03*
D14*
X151965000Y-79650000D03*
D13*
X151965000Y-82150000D03*
X152965000Y-77150000D03*
D14*
X152965000Y-79650000D03*
D13*
X152965000Y-82150000D03*
X153965000Y-77150000D03*
D14*
X153965000Y-79650000D03*
D13*
X153965000Y-82150000D03*
X154965000Y-77150000D03*
D14*
X154965000Y-79650000D03*
D13*
X154965000Y-82150000D03*
X155965000Y-77150000D03*
D14*
X155965000Y-79650000D03*
D13*
X155965000Y-82150000D03*
X156965000Y-77150000D03*
D14*
X156965000Y-79650000D03*
D13*
X156965000Y-82150000D03*
X157965000Y-77150000D03*
D14*
X157965000Y-79650000D03*
D13*
X157965000Y-82150000D03*
D12*
X161465000Y-78800000D03*
D13*
X138965000Y-89350000D03*
X138965000Y-98600000D03*
X138965000Y-107850000D03*
X139965000Y-94000000D03*
X139965000Y-103250000D03*
X139965000Y-112500000D03*
X140965000Y-89350000D03*
X140965000Y-98600000D03*
X140965000Y-107850000D03*
X141965000Y-94000000D03*
X141965000Y-103250000D03*
X141965000Y-112500000D03*
X142965000Y-89350000D03*
X142965000Y-98600000D03*
X142965000Y-107850000D03*
X143965000Y-94000000D03*
X143965000Y-103250000D03*
X143965000Y-112500000D03*
X144965000Y-89350000D03*
X144965000Y-98600000D03*
X144965000Y-107850000D03*
X145965000Y-94000000D03*
X145965000Y-103250000D03*
X145965000Y-112500000D03*
X146965000Y-89350000D03*
X146965000Y-98600000D03*
X146965000Y-107850000D03*
X147965000Y-94000000D03*
X147965000Y-103250000D03*
X147965000Y-112500000D03*
X148965000Y-89350000D03*
X148965000Y-98600000D03*
X148965000Y-107850000D03*
X149965000Y-94000000D03*
X149965000Y-103250000D03*
X149965000Y-112500000D03*
X150965000Y-89350000D03*
X150965000Y-98600000D03*
X150965000Y-107850000D03*
X151965000Y-94000000D03*
X151965000Y-103250000D03*
X151965000Y-112500000D03*
X152965000Y-89350000D03*
X152965000Y-98600000D03*
X152965000Y-107850000D03*
X153965000Y-94000000D03*
X153965000Y-103250000D03*
X153965000Y-112500000D03*
X154965000Y-89350000D03*
X154965000Y-98600000D03*
X154965000Y-107850000D03*
X155965000Y-94000000D03*
X155965000Y-103250000D03*
X155965000Y-112500000D03*
X156965000Y-89350000D03*
X156965000Y-98600000D03*
X156965000Y-107850000D03*
X157965000Y-94000000D03*
X157965000Y-103250000D03*
X157965000Y-112500000D03*
%TD*%
D10*
%TO.C,TP2*%
X188175000Y-39150000D03*
%TD*%
%TO.C,TP1*%
X167375000Y-29750000D03*
%TD*%
D15*
%TO.C,U3*%
X115612500Y-44200000D03*
X115612500Y-44700000D03*
X115612500Y-45200000D03*
X115612500Y-45700000D03*
X115612500Y-46200000D03*
D16*
X116575000Y-47162500D03*
X117075000Y-47162500D03*
X117575000Y-47162500D03*
X118075000Y-47162500D03*
X118575000Y-47162500D03*
D15*
X119537500Y-46200000D03*
X119537500Y-45700000D03*
X119537500Y-45200000D03*
X119537500Y-44700000D03*
X119537500Y-44200000D03*
D16*
X118575000Y-43237500D03*
X118075000Y-43237500D03*
X117575000Y-43237500D03*
X117075000Y-43237500D03*
X116575000Y-43237500D03*
D17*
X117575000Y-45200000D03*
%TD*%
D15*
%TO.C,U3*%
X147262500Y-44200000D03*
X147262500Y-44700000D03*
X147262500Y-45200000D03*
X147262500Y-45700000D03*
X147262500Y-46200000D03*
D16*
X148225000Y-47162500D03*
X148725000Y-47162500D03*
X149225000Y-47162500D03*
X149725000Y-47162500D03*
X150225000Y-47162500D03*
D15*
X151187500Y-46200000D03*
X151187500Y-45700000D03*
X151187500Y-45200000D03*
X151187500Y-44700000D03*
X151187500Y-44200000D03*
D16*
X150225000Y-43237500D03*
X149725000Y-43237500D03*
X149225000Y-43237500D03*
X148725000Y-43237500D03*
X148225000Y-43237500D03*
D17*
X149225000Y-45200000D03*
%TD*%
D26*
%TO.C,D1*%
X180175000Y-63500000D03*
X180175000Y-60700000D03*
%TD*%
D33*
%TO.C,C1*%
X145400000Y-42900000D03*
X143850000Y-42900000D03*
%TD*%
D10*
%TO.C,TP13*%
X104075000Y-41200000D03*
%TD*%
D20*
%TO.C,C7*%
X122875000Y-39925000D03*
X122875000Y-38375000D03*
%TD*%
D10*
%TO.C,REF\u002A\u002A*%
X108525000Y-122700000D03*
%TD*%
D30*
%TO.C,U2*%
X123061136Y-64061010D03*
X123414689Y-63707456D03*
X123768243Y-63353903D03*
X124121796Y-63000349D03*
X124475349Y-62646796D03*
X124828903Y-62293243D03*
X125182456Y-61939689D03*
X125536010Y-61586136D03*
D31*
X125536010Y-60613864D03*
X125182456Y-60260311D03*
X124828903Y-59906757D03*
X124475349Y-59553204D03*
X124121796Y-59199651D03*
X123768243Y-58846097D03*
X123414689Y-58492544D03*
X123061136Y-58138990D03*
D30*
X122088864Y-58138990D03*
X121735311Y-58492544D03*
X121381757Y-58846097D03*
X121028204Y-59199651D03*
X120674651Y-59553204D03*
X120321097Y-59906757D03*
X119967544Y-60260311D03*
X119613990Y-60613864D03*
D31*
X119613990Y-61586136D03*
X119967544Y-61939689D03*
X120321097Y-62293243D03*
X120674651Y-62646796D03*
X121028204Y-63000349D03*
X121381757Y-63353903D03*
X121735311Y-63707456D03*
X122088864Y-64061010D03*
D32*
X122575000Y-61100000D03*
%TD*%
D10*
%TO.C,TP2*%
X184925000Y-55550000D03*
%TD*%
%TO.C,TP3*%
X125575000Y-47400000D03*
%TD*%
D26*
%TO.C,D1*%
X116875000Y-63500000D03*
X116875000Y-60700000D03*
%TD*%
D11*
%TO.C,R1*%
X143800000Y-46300000D03*
X145450000Y-46300000D03*
%TD*%
D10*
%TO.C,TP2*%
X121625000Y-55550000D03*
%TD*%
%TO.C,TP6*%
X188175000Y-29700000D03*
%TD*%
D11*
%TO.C,R1*%
X175450000Y-46300000D03*
X177100000Y-46300000D03*
%TD*%
D10*
%TO.C,TP14*%
X167375000Y-38900000D03*
%TD*%
D24*
%TO.C,J1*%
X113525000Y-32700000D03*
X114025000Y-32700000D03*
X114525000Y-32700000D03*
X115025000Y-32700000D03*
X115525000Y-32700000D03*
X116025000Y-32700000D03*
X116525000Y-32700000D03*
X117025000Y-32700000D03*
X117525000Y-32700000D03*
X118025000Y-32700000D03*
X118525000Y-32700000D03*
X119025000Y-32700000D03*
D25*
X120025000Y-30200000D03*
X112525000Y-30200000D03*
%TD*%
D20*
%TO.C,C6*%
X184575000Y-39925000D03*
X184575000Y-38375000D03*
%TD*%
D34*
%TO.C,REF\u002A\u002A*%
X183525000Y-122500000D03*
%TD*%
D10*
%TO.C,TP3*%
X157225000Y-47400000D03*
%TD*%
%TO.C,TP11*%
X188175000Y-34400000D03*
%TD*%
%TO.C,TP12*%
X135725000Y-36600000D03*
%TD*%
%TO.C,TP6*%
X124875000Y-29700000D03*
%TD*%
D21*
%TO.C,U1*%
X108013990Y-61586136D03*
X108367544Y-61939689D03*
X108721097Y-62293243D03*
X109074651Y-62646796D03*
X109428204Y-63000349D03*
X109781757Y-63353903D03*
X110135311Y-63707456D03*
X110488864Y-64061010D03*
D22*
X111461136Y-64061010D03*
X111814689Y-63707456D03*
X112168243Y-63353903D03*
X112521796Y-63000349D03*
X112875349Y-62646796D03*
X113228903Y-62293243D03*
X113582456Y-61939689D03*
X113936010Y-61586136D03*
D21*
X113936010Y-60613864D03*
X113582456Y-60260311D03*
X113228903Y-59906757D03*
X112875349Y-59553204D03*
X112521796Y-59199651D03*
X112168243Y-58846097D03*
X111814689Y-58492544D03*
X111461136Y-58138990D03*
D22*
X110488864Y-58138990D03*
X110135311Y-58492544D03*
X109781757Y-58846097D03*
X109428204Y-59199651D03*
X109074651Y-59553204D03*
X108721097Y-59906757D03*
X108367544Y-60260311D03*
X108013990Y-60613864D03*
D23*
X110975000Y-61100000D03*
%TD*%
D27*
%TO.C,R5*%
X150825000Y-38425000D03*
X150825000Y-36775000D03*
%TD*%
D18*
%TO.C,R4*%
X149225000Y-36775000D03*
X149225000Y-38425000D03*
%TD*%
D10*
%TO.C,TP10*%
X156525000Y-36750000D03*
%TD*%
D21*
%TO.C,U1*%
X139663990Y-61586136D03*
X140017544Y-61939689D03*
X140371097Y-62293243D03*
X140724651Y-62646796D03*
X141078204Y-63000349D03*
X141431757Y-63353903D03*
X141785311Y-63707456D03*
X142138864Y-64061010D03*
D22*
X143111136Y-64061010D03*
X143464689Y-63707456D03*
X143818243Y-63353903D03*
X144171796Y-63000349D03*
X144525349Y-62646796D03*
X144878903Y-62293243D03*
X145232456Y-61939689D03*
X145586010Y-61586136D03*
D21*
X145586010Y-60613864D03*
X145232456Y-60260311D03*
X144878903Y-59906757D03*
X144525349Y-59553204D03*
X144171796Y-59199651D03*
X143818243Y-58846097D03*
X143464689Y-58492544D03*
X143111136Y-58138990D03*
D22*
X142138864Y-58138990D03*
X141785311Y-58492544D03*
X141431757Y-58846097D03*
X141078204Y-59199651D03*
X140724651Y-59553204D03*
X140371097Y-59906757D03*
X140017544Y-60260311D03*
X139663990Y-60613864D03*
D23*
X142625000Y-61100000D03*
%TD*%
D10*
%TO.C,TP3*%
X188875000Y-47400000D03*
%TD*%
%TO.C,TP14*%
X104075000Y-38900000D03*
%TD*%
%TO.C,TP7*%
X188175000Y-32062500D03*
%TD*%
%TO.C,TP13*%
X167375000Y-41200000D03*
%TD*%
%TO.C,TP6*%
X156525000Y-29700000D03*
%TD*%
D20*
%TO.C,C3*%
X147425000Y-41375000D03*
X147425000Y-39825000D03*
%TD*%
D35*
%TO.C,J2*%
X126475000Y-72850000D03*
X126175000Y-72850000D03*
X125475000Y-72850000D03*
X125175000Y-72850000D03*
X124475000Y-72850000D03*
X124175000Y-72850000D03*
X123475000Y-72850000D03*
X123175000Y-72850000D03*
X122475000Y-72850000D03*
X122175000Y-72850000D03*
X121475000Y-72850000D03*
X121175000Y-72850000D03*
X120475000Y-72850000D03*
X120175000Y-72850000D03*
X119475000Y-72850000D03*
X119175000Y-72850000D03*
X118475000Y-72850000D03*
X118175000Y-72850000D03*
X117475000Y-72850000D03*
X117175000Y-72850000D03*
X116475000Y-72850000D03*
X116175000Y-72850000D03*
X115475000Y-72850000D03*
X115175000Y-72850000D03*
X114475000Y-72850000D03*
X114175000Y-72850000D03*
X113475000Y-72850000D03*
X113175000Y-72850000D03*
X112475000Y-72850000D03*
X112175000Y-72850000D03*
X111475000Y-72850000D03*
X111175000Y-72850000D03*
X110475000Y-72850000D03*
X110175000Y-72850000D03*
X109475000Y-72850000D03*
X109175000Y-72850000D03*
X108475000Y-72850000D03*
X108175000Y-72850000D03*
X107475000Y-72850000D03*
X107175000Y-72850000D03*
D36*
X127575000Y-75550000D03*
X106075000Y-75550000D03*
%TD*%
D10*
%TO.C,TP8*%
X104075000Y-32000000D03*
%TD*%
%TO.C,TP5*%
X125575000Y-45050000D03*
%TD*%
D33*
%TO.C,C1*%
X177050000Y-42900000D03*
X175500000Y-42900000D03*
%TD*%
D20*
%TO.C,C5*%
X146625000Y-50575000D03*
X146625000Y-49025000D03*
%TD*%
%TO.C,C7*%
X154525000Y-39925000D03*
X154525000Y-38375000D03*
%TD*%
D29*
%TO.C,C4*%
X121575000Y-46450000D03*
X121575000Y-48350000D03*
%TD*%
D10*
%TO.C,TP11*%
X124875000Y-34400000D03*
%TD*%
%TO.C,TP10*%
X124875000Y-36750000D03*
%TD*%
D28*
%TO.C,C8*%
X180700000Y-52900000D03*
X182250000Y-52900000D03*
%TD*%
D10*
%TO.C,TP8*%
X167375000Y-32000000D03*
%TD*%
D11*
%TO.C,R3*%
X184500000Y-43300000D03*
X186150000Y-43300000D03*
%TD*%
D35*
%TO.C,J2*%
X189775000Y-72850000D03*
X189475000Y-72850000D03*
X188775000Y-72850000D03*
X188475000Y-72850000D03*
X187775000Y-72850000D03*
X187475000Y-72850000D03*
X186775000Y-72850000D03*
X186475000Y-72850000D03*
X185775000Y-72850000D03*
X185475000Y-72850000D03*
X184775000Y-72850000D03*
X184475000Y-72850000D03*
X183775000Y-72850000D03*
X183475000Y-72850000D03*
X182775000Y-72850000D03*
X182475000Y-72850000D03*
X181775000Y-72850000D03*
X181475000Y-72850000D03*
X180775000Y-72850000D03*
X180475000Y-72850000D03*
X179775000Y-72850000D03*
X179475000Y-72850000D03*
X178775000Y-72850000D03*
X178475000Y-72850000D03*
X177775000Y-72850000D03*
X177475000Y-72850000D03*
X176775000Y-72850000D03*
X176475000Y-72850000D03*
X175775000Y-72850000D03*
X175475000Y-72850000D03*
X174775000Y-72850000D03*
X174475000Y-72850000D03*
X173775000Y-72850000D03*
X173475000Y-72850000D03*
X172775000Y-72850000D03*
X172475000Y-72850000D03*
X171775000Y-72850000D03*
X171475000Y-72850000D03*
X170775000Y-72850000D03*
X170475000Y-72850000D03*
D36*
X190875000Y-75550000D03*
X169375000Y-75550000D03*
%TD*%
D29*
%TO.C,C4*%
X153225000Y-46450000D03*
X153225000Y-48350000D03*
%TD*%
D33*
%TO.C,C1*%
X113750000Y-42900000D03*
X112200000Y-42900000D03*
%TD*%
D10*
%TO.C,REF\u002A\u002A*%
X188475000Y-22500000D03*
%TD*%
D20*
%TO.C,C6*%
X152925000Y-39925000D03*
X152925000Y-38375000D03*
%TD*%
D35*
%TO.C,J2*%
X158125000Y-72850000D03*
X157825000Y-72850000D03*
X157125000Y-72850000D03*
X156825000Y-72850000D03*
X156125000Y-72850000D03*
X155825000Y-72850000D03*
X155125000Y-72850000D03*
X154825000Y-72850000D03*
X154125000Y-72850000D03*
X153825000Y-72850000D03*
X153125000Y-72850000D03*
X152825000Y-72850000D03*
X152125000Y-72850000D03*
X151825000Y-72850000D03*
X151125000Y-72850000D03*
X150825000Y-72850000D03*
X150125000Y-72850000D03*
X149825000Y-72850000D03*
X149125000Y-72850000D03*
X148825000Y-72850000D03*
X148125000Y-72850000D03*
X147825000Y-72850000D03*
X147125000Y-72850000D03*
X146825000Y-72850000D03*
X146125000Y-72850000D03*
X145825000Y-72850000D03*
X145125000Y-72850000D03*
X144825000Y-72850000D03*
X144125000Y-72850000D03*
X143825000Y-72850000D03*
X143125000Y-72850000D03*
X142825000Y-72850000D03*
X142125000Y-72850000D03*
X141825000Y-72850000D03*
X141125000Y-72850000D03*
X140825000Y-72850000D03*
X140125000Y-72850000D03*
X139825000Y-72850000D03*
X139125000Y-72850000D03*
X138825000Y-72850000D03*
D36*
X159225000Y-75550000D03*
X137725000Y-75550000D03*
%TD*%
D10*
%TO.C,TP15*%
X121625000Y-53225000D03*
%TD*%
%TO.C,TP7*%
X156525000Y-32062500D03*
%TD*%
D20*
%TO.C,C5*%
X114975000Y-50575000D03*
X114975000Y-49025000D03*
%TD*%
D10*
%TO.C,TP4*%
X121625000Y-50900000D03*
%TD*%
%TO.C,TP5*%
X188875000Y-45050000D03*
%TD*%
%TO.C,TP15*%
X153275000Y-53225000D03*
%TD*%
%TO.C,TP2*%
X135725000Y-43500000D03*
%TD*%
%TO.C,TP15*%
X184925000Y-53225000D03*
%TD*%
%TO.C,TP8*%
X135725000Y-32000000D03*
%TD*%
%TO.C,TP13*%
X135725000Y-41200000D03*
%TD*%
D20*
%TO.C,C5*%
X178275000Y-50575000D03*
X178275000Y-49025000D03*
%TD*%
D10*
%TO.C,TP10*%
X188175000Y-36750000D03*
%TD*%
%TO.C,TP2*%
X104075000Y-43500000D03*
%TD*%
%TO.C,TP1*%
X104075000Y-29750000D03*
%TD*%
D28*
%TO.C,C8*%
X117400000Y-52900000D03*
X118950000Y-52900000D03*
%TD*%
D27*
%TO.C,R5*%
X182475000Y-38425000D03*
X182475000Y-36775000D03*
%TD*%
D10*
%TO.C,TP12*%
X167375000Y-36600000D03*
%TD*%
%TO.C,TP2*%
X153275000Y-55550000D03*
%TD*%
D20*
%TO.C,C3*%
X179075000Y-41375000D03*
X179075000Y-39825000D03*
%TD*%
D19*
%TO.C,L1*%
X118075000Y-48800000D03*
X118075000Y-50900000D03*
%TD*%
D20*
%TO.C,C3*%
X115775000Y-41375000D03*
X115775000Y-39825000D03*
%TD*%
D30*
%TO.C,U2*%
X154711136Y-64061010D03*
X155064689Y-63707456D03*
X155418243Y-63353903D03*
X155771796Y-63000349D03*
X156125349Y-62646796D03*
X156478903Y-62293243D03*
X156832456Y-61939689D03*
X157186010Y-61586136D03*
D31*
X157186010Y-60613864D03*
X156832456Y-60260311D03*
X156478903Y-59906757D03*
X156125349Y-59553204D03*
X155771796Y-59199651D03*
X155418243Y-58846097D03*
X155064689Y-58492544D03*
X154711136Y-58138990D03*
D30*
X153738864Y-58138990D03*
X153385311Y-58492544D03*
X153031757Y-58846097D03*
X152678204Y-59199651D03*
X152324651Y-59553204D03*
X151971097Y-59906757D03*
X151617544Y-60260311D03*
X151263990Y-60613864D03*
D31*
X151263990Y-61586136D03*
X151617544Y-61939689D03*
X151971097Y-62293243D03*
X152324651Y-62646796D03*
X152678204Y-63000349D03*
X153031757Y-63353903D03*
X153385311Y-63707456D03*
X153738864Y-64061010D03*
D32*
X154225000Y-61100000D03*
%TD*%
D34*
%TO.C,REF\u002A\u002A*%
X103525000Y-122500000D03*
%TD*%
D10*
%TO.C,TP9*%
X167375000Y-34300000D03*
%TD*%
D20*
%TO.C,C7*%
X186175000Y-39925000D03*
X186175000Y-38375000D03*
%TD*%
M02*
