%TF.GenerationSoftware,KiCad,Pcbnew,7.0.5*%
%TF.CreationDate,2023-07-03T18:09:17+02:00*%
%TF.ProjectId,actuator_panel,61637475-6174-46f7-925f-70616e656c2e,rev?*%
%TF.SameCoordinates,Original*%
%TF.FileFunction,Soldermask,Bot*%
%TF.FilePolarity,Negative*%
%FSLAX46Y46*%
G04 Gerber Fmt 4.6, Leading zero omitted, Abs format (unit mm)*
G04 Created by KiCad (PCBNEW 7.0.5) date 2023-07-03 18:09:17*
%MOMM*%
%LPD*%
G01*
G04 APERTURE LIST*
G04 Aperture macros list*
%AMRoundRect*
0 Rectangle with rounded corners*
0 $1 Rounding radius*
0 $2 $3 $4 $5 $6 $7 $8 $9 X,Y pos of 4 corners*
0 Add a 4 corners polygon primitive as box body*
4,1,4,$2,$3,$4,$5,$6,$7,$8,$9,$2,$3,0*
0 Add four circle primitives for the rounded corners*
1,1,$1+$1,$2,$3*
1,1,$1+$1,$4,$5*
1,1,$1+$1,$6,$7*
1,1,$1+$1,$8,$9*
0 Add four rect primitives between the rounded corners*
20,1,$1+$1,$2,$3,$4,$5,0*
20,1,$1+$1,$4,$5,$6,$7,0*
20,1,$1+$1,$6,$7,$8,$9,0*
20,1,$1+$1,$8,$9,$2,$3,0*%
G04 Aperture macros list end*
%ADD10C,1.000000*%
%ADD11RoundRect,0.250000X-0.250000X-2.000000X0.250000X-2.000000X0.250000X2.000000X-0.250000X2.000000X0*%
%ADD12C,2.510000*%
G04 APERTURE END LIST*
D10*
%TO.C,TP10*%
X188175000Y-36750000D03*
%TD*%
%TO.C,TP10*%
X156525000Y-36750000D03*
%TD*%
D11*
%TO.C,piezo1*%
X170615000Y-89350000D03*
X170615000Y-98600000D03*
X170615000Y-107850000D03*
X171615000Y-94000000D03*
X171615000Y-103250000D03*
X171615000Y-112500000D03*
X172615000Y-89350000D03*
X172615000Y-98600000D03*
X172615000Y-107850000D03*
X173615000Y-94000000D03*
X173615000Y-103250000D03*
X173615000Y-112500000D03*
X174615000Y-89350000D03*
X174615000Y-98600000D03*
X174615000Y-107850000D03*
X175615000Y-94000000D03*
X175615000Y-103250000D03*
X175615000Y-112500000D03*
X176615000Y-89350000D03*
X176615000Y-98600000D03*
X176615000Y-107850000D03*
X177615000Y-94000000D03*
X177615000Y-103250000D03*
X177615000Y-112500000D03*
X178615000Y-89350000D03*
X178615000Y-98600000D03*
X178615000Y-107850000D03*
X179615000Y-94000000D03*
X179615000Y-103250000D03*
X179615000Y-112500000D03*
X180615000Y-89350000D03*
X180615000Y-98600000D03*
X180615000Y-107850000D03*
X181615000Y-94000000D03*
X181615000Y-103250000D03*
X181615000Y-112500000D03*
X182615000Y-89350000D03*
X182615000Y-98600000D03*
X182615000Y-107850000D03*
X183615000Y-94000000D03*
X183615000Y-103250000D03*
X183615000Y-112500000D03*
X184615000Y-89350000D03*
X184615000Y-98600000D03*
X184615000Y-107850000D03*
X185615000Y-94000000D03*
X185615000Y-103250000D03*
X185615000Y-112500000D03*
X186615000Y-89350000D03*
X186615000Y-98600000D03*
X186615000Y-107850000D03*
X187615000Y-94000000D03*
X187615000Y-103250000D03*
X187615000Y-112500000D03*
X188615000Y-89350000D03*
X188615000Y-98600000D03*
X188615000Y-107850000D03*
X189615000Y-94000000D03*
X189615000Y-103250000D03*
X189615000Y-112500000D03*
%TD*%
%TO.C,piezo1*%
X138965000Y-89350000D03*
X138965000Y-98600000D03*
X138965000Y-107850000D03*
X139965000Y-94000000D03*
X139965000Y-103250000D03*
X139965000Y-112500000D03*
X140965000Y-89350000D03*
X140965000Y-98600000D03*
X140965000Y-107850000D03*
X141965000Y-94000000D03*
X141965000Y-103250000D03*
X141965000Y-112500000D03*
X142965000Y-89350000D03*
X142965000Y-98600000D03*
X142965000Y-107850000D03*
X143965000Y-94000000D03*
X143965000Y-103250000D03*
X143965000Y-112500000D03*
X144965000Y-89350000D03*
X144965000Y-98600000D03*
X144965000Y-107850000D03*
X145965000Y-94000000D03*
X145965000Y-103250000D03*
X145965000Y-112500000D03*
X146965000Y-89350000D03*
X146965000Y-98600000D03*
X146965000Y-107850000D03*
X147965000Y-94000000D03*
X147965000Y-103250000D03*
X147965000Y-112500000D03*
X148965000Y-89350000D03*
X148965000Y-98600000D03*
X148965000Y-107850000D03*
X149965000Y-94000000D03*
X149965000Y-103250000D03*
X149965000Y-112500000D03*
X150965000Y-89350000D03*
X150965000Y-98600000D03*
X150965000Y-107850000D03*
X151965000Y-94000000D03*
X151965000Y-103250000D03*
X151965000Y-112500000D03*
X152965000Y-89350000D03*
X152965000Y-98600000D03*
X152965000Y-107850000D03*
X153965000Y-94000000D03*
X153965000Y-103250000D03*
X153965000Y-112500000D03*
X154965000Y-89350000D03*
X154965000Y-98600000D03*
X154965000Y-107850000D03*
X155965000Y-94000000D03*
X155965000Y-103250000D03*
X155965000Y-112500000D03*
X156965000Y-89350000D03*
X156965000Y-98600000D03*
X156965000Y-107850000D03*
X157965000Y-94000000D03*
X157965000Y-103250000D03*
X157965000Y-112500000D03*
%TD*%
D10*
%TO.C,TP10*%
X124875000Y-36750000D03*
%TD*%
D12*
%TO.C,REF\u002A\u002A*%
X183525000Y-122500000D03*
%TD*%
%TO.C,REF\u002A\u002A*%
X103525000Y-122500000D03*
%TD*%
D11*
%TO.C,piezo1*%
X107315000Y-89350000D03*
X107315000Y-98600000D03*
X107315000Y-107850000D03*
X108315000Y-94000000D03*
X108315000Y-103250000D03*
X108315000Y-112500000D03*
X109315000Y-89350000D03*
X109315000Y-98600000D03*
X109315000Y-107850000D03*
X110315000Y-94000000D03*
X110315000Y-103250000D03*
X110315000Y-112500000D03*
X111315000Y-89350000D03*
X111315000Y-98600000D03*
X111315000Y-107850000D03*
X112315000Y-94000000D03*
X112315000Y-103250000D03*
X112315000Y-112500000D03*
X113315000Y-89350000D03*
X113315000Y-98600000D03*
X113315000Y-107850000D03*
X114315000Y-94000000D03*
X114315000Y-103250000D03*
X114315000Y-112500000D03*
X115315000Y-89350000D03*
X115315000Y-98600000D03*
X115315000Y-107850000D03*
X116315000Y-94000000D03*
X116315000Y-103250000D03*
X116315000Y-112500000D03*
X117315000Y-89350000D03*
X117315000Y-98600000D03*
X117315000Y-107850000D03*
X118315000Y-94000000D03*
X118315000Y-103250000D03*
X118315000Y-112500000D03*
X119315000Y-89350000D03*
X119315000Y-98600000D03*
X119315000Y-107850000D03*
X120315000Y-94000000D03*
X120315000Y-103250000D03*
X120315000Y-112500000D03*
X121315000Y-89350000D03*
X121315000Y-98600000D03*
X121315000Y-107850000D03*
X122315000Y-94000000D03*
X122315000Y-103250000D03*
X122315000Y-112500000D03*
X123315000Y-89350000D03*
X123315000Y-98600000D03*
X123315000Y-107850000D03*
X124315000Y-94000000D03*
X124315000Y-103250000D03*
X124315000Y-112500000D03*
X125315000Y-89350000D03*
X125315000Y-98600000D03*
X125315000Y-107850000D03*
X126315000Y-94000000D03*
X126315000Y-103250000D03*
X126315000Y-112500000D03*
%TD*%
D10*
%TO.C,KiKit_FID_B_1*%
X108525000Y-22500000D03*
%TD*%
%TO.C,KiKit_FID_B_2*%
X188475000Y-22500000D03*
%TD*%
%TO.C,KiKit_FID_B_3*%
X108525000Y-122700000D03*
%TD*%
M02*
