%TF.GenerationSoftware,KiCad,Pcbnew,7.0.5*%
%TF.CreationDate,2023-08-02T13:00:32+02:00*%
%TF.ProjectId,actuator_panel,61637475-6174-46f7-925f-70616e656c2e,rev?*%
%TF.SameCoordinates,Original*%
%TF.FileFunction,Drillmap*%
%TF.FilePolarity,Positive*%
%FSLAX45Y45*%
G04 Gerber Fmt 4.5, Leading zero omitted, Abs format (unit mm)*
G04 Created by KiCad (PCBNEW 7.0.5) date 2023-08-02 13:00:32*
%MOMM*%
%LPD*%
G01*
G04 APERTURE LIST*
%ADD10C,0.100000*%
%ADD11C,0.200000*%
%ADD12C,0.251000*%
G04 APERTURE END LIST*
D10*
X18753614Y-12012464D02*
X18749172Y-12010495D01*
X10154308Y-12507561D02*
X10154329Y-12507573D01*
X14171428Y-2665526D02*
X14170597Y-2670314D01*
X18776974Y-2501072D02*
X18781796Y-2500477D01*
X14092814Y-12018097D02*
X14088026Y-12018928D01*
X10950828Y-2509505D02*
X10955168Y-2511690D01*
X18389533Y-2675055D02*
X18388237Y-2679738D01*
X10103239Y-2750042D02*
X10103192Y-2750056D01*
X12045815Y-2543999D02*
X12048415Y-2548104D01*
X15537005Y-2693328D02*
X15535036Y-2688886D01*
X15152555Y-2747033D02*
X15147814Y-2748097D01*
X18704190Y-2697668D02*
X18702005Y-2693328D01*
X14168237Y-2679738D02*
X14166712Y-2684352D01*
X19585677Y-2052896D02*
X19585654Y-2052853D01*
X19589869Y-12458234D02*
X19590293Y-12457136D01*
X15215810Y-11967668D02*
X15213415Y-11971896D01*
X15529402Y-2670314D02*
X15528572Y-2665526D01*
X17703148Y-2744213D02*
X17698614Y-2742464D01*
X15133358Y-2500120D02*
X15138204Y-2500477D01*
X10990815Y-2543999D02*
X10993415Y-2548104D01*
X10106508Y-2072162D02*
X10104720Y-2079300D01*
X17654185Y-2706001D02*
X17651585Y-2701896D01*
X11003237Y-11840262D02*
X11004533Y-11844945D01*
X19561830Y-12496493D02*
X19561849Y-12496477D01*
X10999964Y-2688886D02*
X10997995Y-2693328D01*
X10104241Y-12438295D02*
X10104245Y-12438319D01*
X15541585Y-11818104D02*
X15544185Y-11813999D01*
X12376585Y-2548104D02*
X12379185Y-2543999D01*
X18758148Y-2505787D02*
X18762762Y-2504263D01*
X15563695Y-2727528D02*
X15560016Y-2724354D01*
X12364402Y-11940314D02*
X12363572Y-11935526D01*
X10118735Y-12474525D02*
X10119365Y-12475520D01*
X19586217Y-2053970D02*
X19586206Y-2053948D01*
X14516499Y-2516685D02*
X14520604Y-2514085D01*
X19596519Y-2750006D02*
X19596297Y-2750000D01*
X11992238Y-2504263D02*
X11996852Y-2505787D01*
X10124468Y-2037546D02*
X10120084Y-2043457D01*
X10102816Y-2499719D02*
X10102852Y-2499752D01*
X10203703Y-2000000D02*
X10201299Y-2000059D01*
X17257814Y-2501903D02*
X17262555Y-2502967D01*
X14478287Y-11954352D02*
X14476763Y-11949738D01*
X15225597Y-2579686D02*
X15226428Y-2584474D01*
X15527500Y-11869012D02*
X15527500Y-11869012D01*
X14512526Y-2730517D02*
X14508695Y-2727528D01*
X12043017Y-2709974D02*
X12040028Y-2713805D01*
X12363572Y-11935526D02*
X12362977Y-11930704D01*
X17335597Y-2579686D02*
X17336428Y-2584474D01*
X12058237Y-11949738D02*
X12056712Y-11954352D01*
X11003237Y-2679738D02*
X11001713Y-2684352D01*
X19597110Y-2499783D02*
X19597148Y-2499752D01*
X15210815Y-11976001D02*
X15208017Y-11979974D01*
X15152555Y-12017033D02*
X15147814Y-12018097D01*
X19597388Y-2499444D02*
X19597409Y-2499400D01*
X19597458Y-11769261D02*
X19597470Y-11769214D01*
X15579832Y-12008310D02*
X15575604Y-12005915D01*
X12366763Y-2679738D02*
X12365467Y-2675055D01*
X10174638Y-12515986D02*
X10174662Y-12515992D01*
X14538148Y-12014212D02*
X14533614Y-12012464D01*
X14088026Y-11771072D02*
X14092814Y-11771902D01*
X18740604Y-11784085D02*
X18744832Y-11781690D01*
X19589850Y-12458279D02*
X19589869Y-12458234D01*
X11355604Y-2514085D02*
X11359832Y-2511690D01*
X10138151Y-12496477D02*
X10138170Y-12496493D01*
X15537005Y-11826672D02*
X15539190Y-11822332D01*
X11343695Y-2522472D02*
X11347526Y-2519483D01*
X12419172Y-12010495D02*
X12414832Y-12008310D01*
X17641763Y-2679738D02*
X17640467Y-2675055D01*
X19595280Y-12440699D02*
X19595286Y-12440676D01*
X15225597Y-11940314D02*
X15224533Y-11945055D01*
X10201274Y-2000060D02*
X10193924Y-2000421D01*
X10971305Y-11997528D02*
X10967474Y-12000517D01*
X19496273Y-2000000D02*
X10203727Y-2000000D01*
X19535734Y-2007631D02*
X19534636Y-2007207D01*
X12376585Y-11971896D02*
X12374190Y-11967668D01*
X19518199Y-12517780D02*
X19525338Y-12515992D01*
X19544604Y-12508177D02*
X19544647Y-12508154D01*
X10103383Y-12020013D02*
X10103334Y-12020020D01*
X15194984Y-11994354D02*
X15191305Y-11997528D01*
X18786642Y-12019880D02*
X18781796Y-12019523D01*
X11992238Y-11774263D02*
X11996852Y-11775787D01*
X12381983Y-2540026D02*
X12384972Y-2536195D01*
X19597219Y-2750316D02*
X19597184Y-2750281D01*
X11343695Y-11792472D02*
X11347526Y-11789483D01*
X19597339Y-2499530D02*
X19597365Y-2499487D01*
X18781796Y-2749523D02*
X18776974Y-2748928D01*
X10102506Y-11769019D02*
X10102508Y-11769068D01*
X15215810Y-11822332D02*
X15217995Y-11826672D01*
X17670016Y-2525646D02*
X17673695Y-2522472D01*
X17656983Y-2709974D02*
X17654185Y-2706001D01*
X12372005Y-11963328D02*
X12370036Y-11958885D01*
X18709185Y-11976001D02*
X18706585Y-11971896D01*
X15560016Y-11795646D02*
X15563695Y-11792472D01*
X19569035Y-2030199D02*
X19569018Y-2030181D01*
X14547445Y-12017033D02*
X14542762Y-12015737D01*
X15213415Y-11818104D02*
X15215810Y-11822332D01*
X15227380Y-11925858D02*
X15227023Y-11930704D01*
X17334533Y-11945055D02*
X17333237Y-11949738D01*
X17637500Y-2650988D02*
X17637500Y-2599012D01*
X12362619Y-11864142D02*
X12362977Y-11859296D01*
X10103162Y-12431016D02*
X10104241Y-12438295D01*
X10946386Y-2742464D02*
X10941852Y-2744213D01*
X14501497Y-11991003D02*
X14498146Y-11987484D01*
X18363503Y-11798997D02*
X18366854Y-11802516D01*
X15528572Y-11935526D02*
X15527977Y-11930704D01*
X15227023Y-2660704D02*
X15226428Y-2665526D01*
X17666497Y-2528997D02*
X17670016Y-2525646D01*
X14571512Y-11770000D02*
X15128488Y-11770000D01*
X11996852Y-11775787D02*
X12001385Y-11777536D01*
X17329964Y-2688886D02*
X17327995Y-2693328D01*
X17243358Y-2749880D02*
X17238488Y-2750000D01*
X17731642Y-2749880D02*
X17726796Y-2749523D01*
X19597079Y-2091424D02*
X19597077Y-2091399D01*
X11005597Y-2670314D02*
X11004533Y-2675055D01*
X10102520Y-2750834D02*
X10102513Y-2750883D01*
X14146854Y-11987484D02*
X14143503Y-11991003D01*
X17304984Y-2724354D02*
X17301305Y-2727528D01*
X19596944Y-12020112D02*
X19596900Y-12020091D01*
X15527619Y-2594142D02*
X15527977Y-2589296D01*
X10918204Y-2749523D02*
X10913358Y-2749880D01*
X19560939Y-12497262D02*
X19561830Y-12496493D01*
X18749172Y-2509505D02*
X18753614Y-2507536D01*
X18776974Y-2748928D02*
X18772186Y-2748097D01*
X18359984Y-2525646D02*
X18363503Y-2528997D01*
X18388237Y-2679738D02*
X18386713Y-2684352D01*
X11973204Y-11770477D02*
X11978026Y-11771072D01*
X10102508Y-11769068D02*
X10102513Y-11769117D01*
X10102520Y-11769165D02*
X10102530Y-11769214D01*
X12363572Y-2665526D02*
X12362977Y-2660704D01*
X12062500Y-2650988D02*
X12062380Y-2655858D01*
X10103703Y-11770000D02*
X10103727Y-11770000D01*
X10908488Y-2500000D02*
X10913358Y-2500120D01*
X10999964Y-2561114D02*
X11001713Y-2565648D01*
X17654185Y-2543999D02*
X17656983Y-2540026D01*
X15223237Y-11949738D02*
X15221712Y-11954352D01*
X14136305Y-2727528D02*
X14132474Y-2730517D01*
X11359832Y-11781690D02*
X11364172Y-11779505D01*
X17651585Y-2548104D02*
X17654185Y-2543999D01*
X11007500Y-11869012D02*
X11007500Y-11920988D01*
X18317555Y-11772967D02*
X18322238Y-11774263D01*
X10946386Y-12012464D02*
X10941852Y-12014212D01*
X14172380Y-2655858D02*
X14172023Y-2660704D01*
X18700036Y-11958885D02*
X18698287Y-11954352D01*
X18392023Y-11859296D02*
X18392380Y-11864142D01*
X19593172Y-2071004D02*
X19593158Y-2070957D01*
X17267238Y-12015737D02*
X17262555Y-12017033D01*
X11007500Y-2650988D02*
X11007380Y-2655858D01*
X14160810Y-11822332D02*
X14162995Y-11826672D01*
X12372005Y-11826672D02*
X12374190Y-11822332D01*
X10102542Y-11769261D02*
X10102556Y-11769308D01*
X17736512Y-12020000D02*
X17731642Y-12019880D01*
X14494972Y-2536195D02*
X14498146Y-2532516D01*
X11382445Y-2747033D02*
X11377762Y-2745737D01*
X12406499Y-2733315D02*
X12402526Y-2730517D01*
X17726796Y-11770477D02*
X17731642Y-11770119D01*
X14520604Y-12005915D02*
X14516499Y-12003315D01*
X17262555Y-12017033D02*
X17257814Y-12018097D01*
X18694403Y-2579686D02*
X18695467Y-2574945D01*
X18388237Y-11949738D02*
X18386713Y-11954352D01*
X19597500Y-2751203D02*
X19597494Y-2750981D01*
X18303204Y-2749523D02*
X18298358Y-2749880D01*
X19597283Y-2499610D02*
X19597312Y-2499570D01*
X15213415Y-2701896D02*
X15210815Y-2706001D01*
X10102661Y-2750470D02*
X10102635Y-2750513D01*
X15215810Y-2697668D02*
X15213415Y-2701896D01*
X15219964Y-11958885D02*
X15217995Y-11963328D01*
X17293501Y-11786685D02*
X17297474Y-11789483D01*
X14078358Y-11770119D02*
X14083204Y-11770477D01*
X17271852Y-11775787D02*
X17276386Y-11777536D01*
X10156448Y-12508706D02*
X10156470Y-12508717D01*
X14158415Y-11818104D02*
X14160810Y-11822332D01*
X14505016Y-2525646D02*
X14508695Y-2522472D01*
X14542762Y-2504263D02*
X14547445Y-2502967D01*
X17337023Y-11859296D02*
X17337380Y-11864142D01*
X18356305Y-11997528D02*
X18352474Y-12000517D01*
X17639403Y-2579686D02*
X17640467Y-2574945D01*
X10164266Y-2007631D02*
X10164221Y-2007649D01*
X19597428Y-12020645D02*
X19597409Y-12020600D01*
X12446974Y-12018928D02*
X12442186Y-12018097D01*
X19596761Y-11769958D02*
X19596808Y-11769944D01*
X10104720Y-2079300D02*
X10104714Y-2079324D01*
X12428148Y-2505787D02*
X12432762Y-2504263D01*
X17329964Y-2561114D02*
X17331713Y-2565648D01*
X12402526Y-2519483D02*
X12406499Y-2516685D01*
X10110131Y-2061766D02*
X10109707Y-2062864D01*
X15571499Y-2516685D02*
X15575604Y-2514085D01*
X18698287Y-11954352D02*
X18696763Y-11949738D01*
X12406499Y-2516685D02*
X12410604Y-2514085D01*
X11311763Y-11840262D02*
X11313287Y-11835648D01*
X11406512Y-2500000D02*
X11963488Y-2500000D01*
X10146939Y-2016892D02*
X10145977Y-2017570D01*
X10997995Y-11826672D02*
X10999964Y-11831114D01*
X19536855Y-2008126D02*
X19535779Y-2007649D01*
X19596808Y-2499944D02*
X19596854Y-2499928D01*
X18390597Y-2579686D02*
X18391428Y-2584474D01*
X18718146Y-11802516D02*
X18721497Y-11798997D01*
X10102688Y-2750430D02*
X10102661Y-2750470D01*
X18695467Y-11844945D02*
X18696763Y-11840262D01*
X12018501Y-11786685D02*
X12022474Y-11789483D01*
X12061428Y-2584474D02*
X12062023Y-2589296D01*
X14529172Y-11779505D02*
X14533614Y-11777536D01*
X14124396Y-12005915D02*
X14120168Y-12008310D01*
X15226428Y-2584474D02*
X15227023Y-2589296D01*
X14128501Y-2516685D02*
X14132474Y-2519483D01*
X15621642Y-2749880D02*
X15616796Y-2749523D01*
X10107211Y-2069839D02*
X10106842Y-2070957D01*
X10102781Y-2499684D02*
X10102816Y-2499719D01*
X14482005Y-11826672D02*
X14484190Y-11822332D01*
X14478287Y-2565648D02*
X14480036Y-2561114D01*
X17331713Y-11954352D02*
X17329964Y-11958885D01*
X15201854Y-2532516D02*
X15205028Y-2536195D01*
X10955168Y-2511690D02*
X10959396Y-2514085D01*
X17318017Y-11810026D02*
X17320815Y-11813999D01*
X17721974Y-2501072D02*
X17726796Y-2500477D01*
X17637620Y-2655858D02*
X17637500Y-2650988D01*
X19508516Y-12519338D02*
X19515795Y-12518259D01*
X17637500Y-11869012D02*
X17637620Y-11864142D01*
X19525338Y-2004008D02*
X19518199Y-2002220D01*
X11007023Y-11930704D02*
X11006428Y-11935526D01*
X17647005Y-11963328D02*
X17645036Y-11958885D01*
X10103703Y-2750000D02*
X10103481Y-2750006D01*
X19579916Y-2043457D02*
X19575532Y-2037546D01*
X17670016Y-2724354D02*
X17666497Y-2721003D01*
X11329972Y-2713805D02*
X11326983Y-2709974D01*
X19597441Y-12421201D02*
X19597500Y-12418797D01*
X17637977Y-2660704D02*
X17637620Y-2655858D01*
X19585061Y-2051808D02*
X19581278Y-2045496D01*
X11351499Y-12003315D02*
X11347526Y-12000517D01*
X14172023Y-2589296D02*
X14172380Y-2594142D01*
X19597283Y-12020390D02*
X19597252Y-12020352D01*
X12052995Y-11826672D02*
X12054964Y-11831114D01*
X14475467Y-2574945D02*
X14476763Y-2570262D01*
X14486585Y-2701896D02*
X14484190Y-2697668D01*
X15571499Y-12003315D02*
X15567526Y-12000517D01*
X12376585Y-2701896D02*
X12374190Y-2697668D01*
X19589373Y-12459355D02*
X19589850Y-12458279D01*
X11396796Y-2500477D02*
X11401642Y-2500120D01*
X10102572Y-2750646D02*
X10102556Y-2750692D01*
X19597500Y-12418773D02*
X19597500Y-12021227D01*
X10103192Y-2499944D02*
X10103239Y-2499958D01*
X12398695Y-11997528D02*
X12395016Y-11994354D01*
X14088026Y-12018928D02*
X14083204Y-12019523D01*
X19515795Y-2001741D02*
X19508516Y-2000662D01*
X10173457Y-12515658D02*
X10173504Y-12515672D01*
X17721974Y-11771072D02*
X17726796Y-11770477D01*
X18692977Y-2660704D02*
X18692620Y-2655858D01*
X15528572Y-2665526D02*
X15527977Y-2660704D01*
X18391428Y-2665526D02*
X18390597Y-2670314D01*
X10114939Y-12468192D02*
X10118722Y-12474504D01*
X11313287Y-11954352D02*
X11311763Y-11949738D01*
X10102500Y-12021227D02*
X10102500Y-12418773D01*
X11307977Y-11930704D02*
X11307619Y-11925858D01*
X15571499Y-2733315D02*
X15567526Y-2730517D01*
X12059533Y-2675055D02*
X12058237Y-2679738D01*
X11007380Y-2594142D02*
X11007500Y-2599012D01*
X11992238Y-2745737D02*
X11987555Y-2747033D01*
X12366763Y-2570262D02*
X12368287Y-2565648D01*
X11963488Y-11770000D02*
X11963488Y-11770000D01*
X18772186Y-2501903D02*
X18776974Y-2501072D01*
X19574762Y-12483439D02*
X19574793Y-12483401D01*
X10102717Y-2750390D02*
X10102688Y-2750430D01*
X12043017Y-11979974D02*
X12040028Y-11983805D01*
X15191305Y-2522472D02*
X15194984Y-2525646D01*
X10999964Y-11831114D02*
X11001713Y-11835648D01*
X19506076Y-2000421D02*
X19498726Y-2000060D01*
X12446974Y-11771072D02*
X12451796Y-11770477D01*
X10107211Y-12450161D02*
X10107219Y-12450184D01*
X17335597Y-11849686D02*
X17336428Y-11854474D01*
X12033503Y-11991003D02*
X12029984Y-11994354D01*
X12402526Y-11789483D02*
X12406499Y-11786685D01*
X10102930Y-12020188D02*
X10102890Y-12020217D01*
X10163122Y-2008137D02*
X10156470Y-2011283D01*
X17334533Y-2574945D02*
X17335597Y-2579686D01*
X12014396Y-12005915D02*
X12010168Y-12008310D01*
X10154308Y-2012439D02*
X10147996Y-2016222D01*
X14136305Y-2522472D02*
X14139984Y-2525646D01*
X19552025Y-2016235D02*
X19552004Y-2016222D01*
X19597365Y-12020512D02*
X19597339Y-12020470D01*
X15621642Y-12019880D02*
X15616796Y-12019523D01*
X10131793Y-12490672D02*
X10131828Y-12490706D01*
X10102591Y-12020600D02*
X10102572Y-12020645D01*
X14171428Y-11854474D02*
X14172023Y-11859296D01*
X19527661Y-12515288D02*
X19527684Y-12515280D01*
X18706585Y-11971896D02*
X18704190Y-11967668D01*
X12061428Y-2665526D02*
X12060597Y-2670314D01*
X12410604Y-12005915D02*
X12406499Y-12003315D01*
X15213415Y-11971896D02*
X15210815Y-11976001D01*
X10163145Y-12511873D02*
X10164221Y-12512350D01*
X18326852Y-11775787D02*
X18331386Y-11777536D01*
X14494972Y-11983805D02*
X14491983Y-11979974D01*
X14172500Y-2599012D02*
X14172500Y-2650988D01*
X10126007Y-12484330D02*
X10126023Y-12484349D01*
X12456642Y-12019880D02*
X12451796Y-12019523D01*
X11373148Y-2744213D02*
X11368614Y-2742464D01*
X15549972Y-11983805D02*
X15546983Y-11979974D01*
X17645036Y-11958885D02*
X17643287Y-11954352D01*
X17318017Y-2709974D02*
X17315028Y-2713805D01*
X18370028Y-2536195D02*
X18373017Y-2540026D01*
X10103727Y-12020000D02*
X10103703Y-12020000D01*
X15529402Y-11849686D02*
X15530467Y-11844945D01*
X19596714Y-11769970D02*
X19596761Y-11769958D01*
X10102500Y-12021203D02*
X10102500Y-12021227D01*
X12022474Y-11789483D02*
X12026305Y-11792472D01*
X19567319Y-12491518D02*
X19568172Y-12490706D01*
X10103162Y-2088984D02*
X10103158Y-2089009D01*
X15226428Y-2665526D02*
X15225597Y-2670314D01*
X18740604Y-2514085D02*
X18744832Y-2511690D01*
X14168237Y-2570262D02*
X14169533Y-2574945D01*
X14172500Y-11920988D02*
X14172380Y-11925858D01*
X11308572Y-2665526D02*
X11307977Y-2660704D01*
X11359832Y-12008310D02*
X11355604Y-12005915D01*
X15529402Y-11940314D02*
X15528572Y-11935526D01*
X18772186Y-2748097D02*
X18767445Y-2747033D01*
X17327995Y-2556672D02*
X17329964Y-2561114D01*
X10114939Y-2051808D02*
X10114926Y-2051829D01*
X18732526Y-2730517D02*
X18728695Y-2727528D01*
X19516979Y-2001946D02*
X19515819Y-2001745D01*
X17637500Y-2599012D02*
X17637620Y-2594142D01*
X18344396Y-2514085D02*
X18348501Y-2516685D01*
X10201299Y-2000059D02*
X10201274Y-2000060D01*
X10103146Y-2499928D02*
X10103192Y-2499944D01*
X17637977Y-2589296D02*
X17638572Y-2584474D01*
X10118722Y-2045496D02*
X10114939Y-2051808D01*
X15553146Y-2532516D02*
X15556497Y-2528997D01*
X11307619Y-11925858D02*
X11307500Y-11920988D01*
X12374190Y-2552332D02*
X12376585Y-2548104D01*
X10118735Y-2045475D02*
X10118722Y-2045496D01*
X12362619Y-2594142D02*
X12362977Y-2589296D01*
X10147975Y-2016235D02*
X10146980Y-2016865D01*
X17271852Y-2744213D02*
X17267238Y-2745737D01*
X10937238Y-2745737D02*
X10932555Y-2747033D01*
X11317005Y-2693328D02*
X11315036Y-2688886D01*
X19573977Y-12484349D02*
X19573993Y-12484330D01*
X15537005Y-2556672D02*
X15539190Y-2552332D01*
X11978026Y-2501072D02*
X11982814Y-2501903D01*
X14170597Y-2670314D02*
X14169533Y-2675055D01*
X15187474Y-11789483D02*
X15191305Y-11792472D01*
X12398695Y-2727528D02*
X12395016Y-2724354D01*
X19596838Y-2088984D02*
X19595759Y-2081705D01*
X17285168Y-12008310D02*
X17280828Y-12010495D01*
X15535036Y-11958885D02*
X15533287Y-11954352D01*
X19496297Y-2000000D02*
X19496273Y-2000000D01*
X10927814Y-2748097D02*
X10923026Y-2748928D01*
X17297474Y-11789483D02*
X17301305Y-11792472D01*
X15208017Y-2709974D02*
X15205028Y-2713805D01*
X10163145Y-2008126D02*
X10163122Y-2008137D01*
X10102556Y-11769308D02*
X10102572Y-11769354D01*
X17707762Y-11774263D02*
X17712445Y-11772967D01*
X10103014Y-2090177D02*
X10103009Y-2090226D01*
X10950828Y-11779505D02*
X10955168Y-11781690D01*
X14073488Y-2750000D02*
X12461512Y-2750000D01*
X19536878Y-12511863D02*
X19543530Y-12508717D01*
X15593148Y-2744213D02*
X15588614Y-2742464D01*
X17726796Y-12019523D02*
X17721974Y-12018928D01*
X17694172Y-12010495D02*
X17689832Y-12008310D01*
X10173504Y-2004328D02*
X10173457Y-2004342D01*
X19595553Y-12439479D02*
X19595755Y-12438319D01*
X17333237Y-2570262D02*
X17334533Y-2574945D01*
X10103056Y-2750112D02*
X10103013Y-2750135D01*
X15549972Y-2713805D02*
X15546983Y-2709974D01*
X17315028Y-2536195D02*
X17318017Y-2540026D01*
X10102661Y-2499530D02*
X10102688Y-2499570D01*
X18340168Y-11781690D02*
X18344396Y-11784085D01*
X10981854Y-2532516D02*
X10985028Y-2536195D01*
X17640467Y-11844945D02*
X17641763Y-11840262D01*
X11004533Y-2574945D02*
X11005597Y-2579686D01*
X18386713Y-2565648D02*
X18388237Y-2570262D01*
X12026305Y-2727528D02*
X12022474Y-2730517D01*
X14542762Y-12015737D02*
X14538148Y-12014212D01*
X19507274Y-12519490D02*
X19507323Y-12519486D01*
X17243358Y-11770119D02*
X17248204Y-11770477D01*
X11391974Y-2501072D02*
X11396796Y-2500477D01*
X19596986Y-12429823D02*
X19596991Y-12429774D01*
X17639403Y-2670314D02*
X17638572Y-2665526D01*
X12370036Y-11831114D02*
X12372005Y-11826672D01*
X17685604Y-2735915D02*
X17681499Y-2733315D01*
X11996852Y-2744213D02*
X11992238Y-2745737D01*
X17297474Y-12000517D02*
X17293501Y-12003315D01*
X10103383Y-2499987D02*
X10103432Y-2499992D01*
X19596297Y-11770000D02*
X19596519Y-11769994D01*
X15170828Y-2740495D02*
X15166385Y-2742464D01*
X15225597Y-11849686D02*
X15226428Y-11854474D01*
X14508695Y-11792472D02*
X14512526Y-11789483D01*
X17663146Y-2717484D02*
X17659972Y-2713805D01*
X19596761Y-2750042D02*
X19596714Y-2750030D01*
X10119392Y-2044439D02*
X10119365Y-2044480D01*
X18335828Y-11779505D02*
X18340168Y-11781690D01*
X11973204Y-2749523D02*
X11968358Y-2749880D01*
X18693572Y-11854474D02*
X18694403Y-11849686D01*
X17677526Y-11789483D02*
X17681499Y-11786685D01*
X12437445Y-11772967D02*
X12442186Y-11771902D01*
X11973204Y-2500477D02*
X11978026Y-2501072D01*
X18692977Y-11930704D02*
X18692620Y-11925858D01*
X15183501Y-11786685D02*
X15187474Y-11789483D01*
X15556497Y-11798997D02*
X15560016Y-11795646D01*
X11396796Y-12019523D02*
X11391974Y-12018928D01*
X19553061Y-2016892D02*
X19553020Y-2016865D01*
X10103239Y-2499958D02*
X10103286Y-2499970D01*
X15539190Y-11822332D02*
X15541585Y-11818104D01*
X14164964Y-2688886D02*
X14162995Y-2693328D01*
X18312814Y-2748097D02*
X18308026Y-2748928D01*
X19593492Y-12447838D02*
X19595280Y-12440699D01*
X18695467Y-2675055D02*
X18694403Y-2670314D01*
X15560016Y-2525646D02*
X15563695Y-2522472D01*
X15161852Y-2505787D02*
X15166385Y-2507536D01*
X14172380Y-11925858D02*
X14172023Y-11930704D01*
X10106828Y-12448996D02*
X10106842Y-12449043D01*
X19525338Y-12515992D02*
X19525362Y-12515986D01*
X18696763Y-11840262D02*
X18698287Y-11835648D01*
X12036854Y-11802516D02*
X12040028Y-11806195D01*
X15213415Y-2548104D02*
X15215810Y-2552332D01*
X19596838Y-12431016D02*
X19596842Y-12430991D01*
X17285168Y-11781690D02*
X17289396Y-11784085D01*
X17257814Y-11771902D02*
X17262555Y-11772967D01*
X10113794Y-2053948D02*
X10113783Y-2053970D01*
X11978026Y-11771072D02*
X11982814Y-11771902D01*
X11003237Y-11949738D02*
X11001713Y-11954352D01*
X14486585Y-11818104D02*
X14489185Y-11813999D01*
X19597110Y-2750217D02*
X19597070Y-2750188D01*
X15198503Y-11798997D02*
X15201854Y-11802516D01*
X19581265Y-2045475D02*
X19580635Y-2044480D01*
X14512526Y-2519483D02*
X14516499Y-2516685D01*
X15593148Y-12014212D02*
X15588614Y-12012464D01*
X19559954Y-12498032D02*
X19559973Y-12498017D01*
X10164266Y-12512369D02*
X10165364Y-12512793D01*
X15553146Y-2717484D02*
X15549972Y-2713805D01*
X12033503Y-2528997D02*
X12036854Y-2532516D01*
X18388237Y-2570262D02*
X18389533Y-2574945D01*
X12033503Y-2721003D02*
X12029984Y-2724354D01*
X15546983Y-2709974D02*
X15544185Y-2706001D01*
X19597079Y-12428576D02*
X19597440Y-12421226D01*
X14484190Y-2697668D02*
X14482005Y-2693328D01*
X15602445Y-2502967D02*
X15607186Y-2501903D01*
X17333237Y-2679738D02*
X17331713Y-2684352D01*
X17639403Y-11940314D02*
X17638572Y-11935526D01*
X10102688Y-11769570D02*
X10102717Y-11769610D01*
X17262555Y-11772967D02*
X17267238Y-11774263D01*
X10104447Y-2080521D02*
X10104245Y-2081681D01*
X18706585Y-11818104D02*
X18709185Y-11813999D01*
X17304984Y-11994354D02*
X17301305Y-11997528D01*
X10988017Y-11810026D02*
X10990815Y-11813999D01*
X12391497Y-2721003D02*
X12388146Y-2717484D01*
X12048415Y-2701896D02*
X12045815Y-2706001D01*
X11396796Y-2749523D02*
X11391974Y-2748928D01*
X15183501Y-12003315D02*
X15179396Y-12005915D01*
X17333237Y-11949738D02*
X17331713Y-11954352D01*
X18758148Y-2744213D02*
X18753614Y-2742464D01*
X15611974Y-2748928D02*
X15607186Y-2748097D01*
X12368287Y-11954352D02*
X12366763Y-11949738D01*
X15217995Y-11963328D02*
X15215810Y-11967668D01*
X11368614Y-11777536D02*
X11373148Y-11775787D01*
X10102500Y-12418797D02*
X10102559Y-12421201D01*
X18702005Y-2693328D02*
X18700036Y-2688886D01*
X14170597Y-11940314D02*
X14169533Y-11945055D01*
X10102688Y-12020430D02*
X10102661Y-12020470D01*
X19580608Y-2044439D02*
X19579930Y-2043477D01*
X10163122Y-12511863D02*
X10163145Y-12511873D01*
X18711983Y-2709974D02*
X18709185Y-2706001D01*
X10103146Y-11769927D02*
X10103192Y-11769944D01*
X19589869Y-2061766D02*
X19589850Y-2061721D01*
X19597494Y-2750981D02*
X19597492Y-2750932D01*
X10102612Y-11769444D02*
X10102635Y-11769487D01*
X10103239Y-11769958D02*
X10103286Y-11769970D01*
X14132474Y-2730517D02*
X14128501Y-2733315D01*
X18744832Y-11781690D02*
X18749172Y-11779505D01*
X10985028Y-2713805D02*
X10981854Y-2717484D01*
X19597500Y-2101203D02*
X19597441Y-2098799D01*
X10110627Y-12459355D02*
X10110637Y-12459378D01*
X10103009Y-2090226D02*
X10102923Y-2091399D01*
X11311763Y-2570262D02*
X11313287Y-2565648D01*
X18749172Y-11779505D02*
X18753614Y-11777536D01*
X17323415Y-2548104D02*
X17325810Y-2552332D01*
X15166385Y-2742464D02*
X15161852Y-2744213D01*
X14520604Y-2514085D02*
X14524832Y-2511690D01*
X11343695Y-2727528D02*
X11340016Y-2724354D01*
X14160810Y-2697668D02*
X14158415Y-2701896D01*
X18331386Y-11777536D02*
X18335828Y-11779505D01*
X10103100Y-2499909D02*
X10103146Y-2499928D01*
X19597030Y-2750161D02*
X19596987Y-2750135D01*
X12005828Y-2509505D02*
X12010168Y-2511690D01*
X18382995Y-2556672D02*
X18384964Y-2561114D01*
X17293501Y-12003315D02*
X17289396Y-12005915D01*
X15531763Y-2570262D02*
X15533287Y-2565648D01*
X12029984Y-2724354D02*
X12026305Y-2727528D01*
X14120168Y-11781690D02*
X14124396Y-11784085D01*
X14505016Y-11994354D02*
X14501497Y-11991003D01*
X10113783Y-2053970D02*
X10110637Y-2060622D01*
X10927814Y-2501903D02*
X10932555Y-2502967D01*
X19597492Y-2499068D02*
X19597494Y-2499019D01*
X14571512Y-2750000D02*
X14566642Y-2749880D01*
X19527684Y-2004719D02*
X19527661Y-2004711D01*
X18370028Y-11806195D02*
X18373017Y-11810026D01*
X11006428Y-2665526D02*
X11005597Y-2670314D01*
X10981854Y-2717484D02*
X10978503Y-2721003D01*
X12395016Y-11795646D02*
X12398695Y-11792472D01*
X19585061Y-12468192D02*
X19585074Y-12468171D01*
X15205028Y-11983805D02*
X15201854Y-11987484D01*
X12388146Y-2532516D02*
X12391497Y-2528997D01*
X14139984Y-2724354D02*
X14136305Y-2727528D01*
X17293501Y-2733315D02*
X17289396Y-2735915D01*
X10102717Y-11769610D02*
X10102748Y-11769648D01*
X10103481Y-2499994D02*
X10103703Y-2500000D01*
X10102508Y-2499068D02*
X10102513Y-2499117D01*
X17659972Y-2536195D02*
X17663146Y-2532516D01*
X18753614Y-2507536D02*
X18758148Y-2505787D01*
X12391497Y-11991003D02*
X12388146Y-11987484D01*
X10967474Y-2519483D02*
X10971305Y-2522472D01*
X19596987Y-2499865D02*
X19597030Y-2499839D01*
X10103239Y-12020042D02*
X10103192Y-12020056D01*
X18298358Y-11770119D02*
X18303204Y-11770477D01*
X14542762Y-11774263D02*
X14547445Y-11772967D01*
X18382995Y-11826672D02*
X18384964Y-11831114D01*
X10124468Y-12482453D02*
X10124483Y-12482473D01*
X19597444Y-12020692D02*
X19597428Y-12020645D01*
X19560901Y-2022707D02*
X19559973Y-2021983D01*
X19597339Y-12020470D02*
X19597312Y-12020430D01*
X14111385Y-11777536D02*
X14115828Y-11779505D01*
X14542762Y-2745737D02*
X14538148Y-2744213D01*
X11324185Y-2706001D02*
X11321585Y-2701896D01*
X11340016Y-11795646D02*
X11343695Y-11792472D01*
X10103100Y-2750091D02*
X10103056Y-2750112D01*
X18696763Y-2679738D02*
X18695467Y-2675055D01*
X18293488Y-11770000D02*
X18298358Y-11770119D01*
X19585074Y-12468171D02*
X19585654Y-12467147D01*
X17331713Y-11835648D02*
X17333237Y-11840262D01*
X10102781Y-2750316D02*
X10102748Y-2750352D01*
X19596987Y-2750135D02*
X19596944Y-2750112D01*
X10978503Y-2528997D02*
X10981854Y-2532516D01*
X15194984Y-11795646D02*
X15198503Y-11798997D01*
X10103056Y-2499888D02*
X10103100Y-2499909D01*
X18370028Y-11983805D02*
X18366854Y-11987484D01*
X15539190Y-2552332D02*
X15541585Y-2548104D01*
X10102559Y-12421201D02*
X10102560Y-12421226D01*
X12050810Y-11822332D02*
X12052995Y-11826672D01*
X14520604Y-2735915D02*
X14516499Y-2733315D01*
X15584172Y-2740495D02*
X15579832Y-2738310D01*
X19597070Y-2750188D02*
X19597030Y-2750161D01*
X12437445Y-12017033D02*
X12432762Y-12015737D01*
X17689832Y-2511690D02*
X17694172Y-2509505D01*
X10126023Y-12484349D02*
X10130965Y-12489801D01*
X19596900Y-2499909D02*
X19596944Y-2499888D01*
X18694403Y-2670314D02*
X18693572Y-2665526D01*
X18293488Y-2500000D02*
X18298358Y-2500120D01*
X17304984Y-11795646D02*
X17308503Y-11798997D01*
X12036854Y-11987484D02*
X12033503Y-11991003D01*
X14484190Y-11822332D02*
X14486585Y-11818104D01*
X10102500Y-2101203D02*
X10102500Y-2101227D01*
X12040028Y-2713805D02*
X12036854Y-2717484D01*
X19596808Y-12020056D02*
X19596761Y-12020042D01*
X10102635Y-11769487D02*
X10102661Y-11769529D01*
X12381983Y-11979974D02*
X12379185Y-11976001D01*
X15584172Y-11779505D02*
X15588614Y-11777536D01*
X11406512Y-11770000D02*
X11963488Y-11770000D01*
X10173504Y-12515672D02*
X10174638Y-12515986D01*
X14501497Y-11798997D02*
X14505016Y-11795646D01*
X17248204Y-11770477D02*
X17253026Y-11771072D01*
X10932555Y-2747033D02*
X10927814Y-2748097D01*
X10102930Y-11769812D02*
X10102970Y-11769839D01*
X14153017Y-2540026D02*
X14155815Y-2543999D01*
X10104241Y-2081705D02*
X10103162Y-2088984D01*
X19569018Y-12489819D02*
X19569035Y-12489801D01*
X17643287Y-11954352D02*
X17641763Y-11949738D01*
X19597444Y-2499308D02*
X19597458Y-2499261D01*
X19515819Y-12518255D02*
X19516979Y-12518053D01*
X10102923Y-12428600D02*
X10103009Y-12429774D01*
X10156470Y-12508717D02*
X10163122Y-12511863D01*
X10908488Y-2750000D02*
X10103727Y-2750000D01*
X18692620Y-11864142D02*
X18692977Y-11859296D01*
X12054964Y-11958885D02*
X12052995Y-11963328D01*
X11307500Y-11869012D02*
X11307619Y-11864142D01*
X12060597Y-11940314D02*
X12059533Y-11945055D01*
X19553020Y-12503135D02*
X19553061Y-12503108D01*
X17301305Y-2727528D02*
X17297474Y-2730517D01*
X19596617Y-2499987D02*
X19596666Y-2499980D01*
X10967474Y-11789483D02*
X10971305Y-11792472D01*
X18740604Y-2735915D02*
X18736499Y-2733315D01*
X19596761Y-12020042D02*
X19596714Y-12020030D01*
X15224533Y-2574945D02*
X15225597Y-2579686D01*
X14164964Y-2561114D02*
X14166712Y-2565648D01*
X15527500Y-2599012D02*
X15527500Y-2599012D01*
X14073488Y-11770000D02*
X14078358Y-11770119D01*
X15544185Y-11976001D02*
X15541585Y-11971896D01*
X10114346Y-12467147D02*
X10114926Y-12468171D01*
X17323415Y-11818104D02*
X17325810Y-11822332D01*
X12410604Y-2735915D02*
X12406499Y-2733315D01*
X15217995Y-2556672D02*
X15219964Y-2561114D01*
X19597494Y-12020981D02*
X19597492Y-12020932D01*
X19567301Y-12491535D02*
X19567319Y-12491518D01*
X18384964Y-2561114D02*
X18386713Y-2565648D01*
X19597365Y-2750513D02*
X19597339Y-2750470D01*
X17717186Y-2748097D02*
X17712445Y-2747033D01*
X19597339Y-11769529D02*
X19597365Y-11769487D01*
X12040028Y-2536195D02*
X12043017Y-2540026D01*
X14491983Y-2540026D02*
X14494972Y-2536195D01*
X10103286Y-12020030D02*
X10103239Y-12020042D01*
X12005828Y-11779505D02*
X12010168Y-11781690D01*
X14092814Y-2501903D02*
X14097555Y-2502967D01*
X14501497Y-2721003D02*
X14498146Y-2717484D01*
X14489185Y-2706001D02*
X14486585Y-2701896D01*
X15128488Y-11770000D02*
X15133358Y-11770119D01*
X18762762Y-12015737D02*
X18758148Y-12014212D01*
X18386713Y-11835648D02*
X18388237Y-11840262D01*
X15588614Y-2507536D02*
X15593148Y-2505787D01*
X18700036Y-2688886D02*
X18698287Y-2684352D01*
X19596297Y-2750000D02*
X19596273Y-2750000D01*
X11307619Y-2655858D02*
X11307500Y-2650988D01*
X17726796Y-2500477D02*
X17731642Y-2500120D01*
X15179396Y-2735915D02*
X15175168Y-2738310D01*
X19517027Y-2001956D02*
X19516979Y-2001946D01*
X12050810Y-11967668D02*
X12048415Y-11971896D01*
X17685604Y-2514085D02*
X17689832Y-2511690D01*
X18352474Y-2519483D02*
X18356305Y-2522472D01*
X18721497Y-11991003D02*
X18718146Y-11987484D01*
X17293501Y-2516685D02*
X17297474Y-2519483D01*
X10995810Y-2697668D02*
X10993415Y-2701896D01*
X18694403Y-11849686D02*
X18695467Y-11844945D01*
X18344396Y-12005915D02*
X18340168Y-12008310D01*
X12056712Y-2684352D02*
X12054964Y-2688886D01*
X12010168Y-2511690D02*
X12014396Y-2514085D01*
X15567526Y-2730517D02*
X15563695Y-2727528D01*
X15219964Y-2688886D02*
X15217995Y-2693328D01*
X15143026Y-12018928D02*
X15138204Y-12019523D01*
X19579930Y-12476523D02*
X19580608Y-12475560D01*
X19596854Y-2750072D02*
X19596808Y-2750056D01*
X15138204Y-2500477D02*
X15143026Y-2501072D01*
X14150028Y-2536195D02*
X14153017Y-2540026D01*
X14516499Y-12003315D02*
X14512526Y-12000517D01*
X17647005Y-2556672D02*
X17649190Y-2552332D01*
X19559954Y-2021968D02*
X19554043Y-2017584D01*
X11982814Y-12018097D02*
X11978026Y-12018928D01*
X10955168Y-11781690D02*
X10959396Y-11784085D01*
X10963501Y-2733315D02*
X10959396Y-2735915D01*
X15588614Y-2742464D02*
X15584172Y-2740495D01*
X17689832Y-11781690D02*
X17694172Y-11779505D01*
X11963488Y-2500000D02*
X11963488Y-2500000D01*
X10156448Y-2011294D02*
X10155396Y-2011823D01*
X18714972Y-2713805D02*
X18711983Y-2709974D01*
X14170597Y-2579686D02*
X14171428Y-2584474D01*
X17717186Y-11771902D02*
X17721974Y-11771072D01*
X19535779Y-2007649D02*
X19535734Y-2007631D01*
X12362619Y-11925858D02*
X12362500Y-11920988D01*
X17736512Y-2750000D02*
X17731642Y-2749880D01*
X10140046Y-2021968D02*
X10140027Y-2021983D01*
X10145977Y-12502430D02*
X10146939Y-12503108D01*
X11307977Y-2660704D02*
X11307619Y-2655858D01*
X15556497Y-2721003D02*
X15553146Y-2717484D01*
X15201854Y-2717484D02*
X15198503Y-2721003D01*
X11307500Y-2599012D02*
X11307619Y-2594142D01*
X14073488Y-2500000D02*
X14078358Y-2500120D01*
X19597184Y-2750281D02*
X19597148Y-2750248D01*
X15227023Y-2589296D02*
X15227380Y-2594142D01*
X15602445Y-12017033D02*
X15597762Y-12015737D01*
X19596808Y-2750056D02*
X19596761Y-2750042D01*
X15621642Y-2500120D02*
X15626512Y-2500000D01*
X11987555Y-12017033D02*
X11982814Y-12018097D01*
X14139984Y-11795646D02*
X14143503Y-11798997D01*
X10104720Y-12440699D02*
X10106508Y-12447838D01*
X14566642Y-2500120D02*
X14571512Y-2500000D01*
X15531763Y-11840262D02*
X15533287Y-11835648D01*
X11351499Y-2733315D02*
X11347526Y-2730517D01*
X10183021Y-12518053D02*
X10184181Y-12518255D01*
X15535036Y-11831114D02*
X15537005Y-11826672D01*
X19592789Y-2069839D02*
X19592781Y-2069816D01*
X14158415Y-2548104D02*
X14160810Y-2552332D01*
X10932555Y-11772967D02*
X10937238Y-11774263D01*
X19560939Y-2022738D02*
X19560901Y-2022707D01*
X15597762Y-11774263D02*
X15602445Y-11772967D01*
X11319190Y-11822332D02*
X11321585Y-11818104D01*
X11978026Y-2748928D02*
X11973204Y-2749523D01*
X10103383Y-2750013D02*
X10103334Y-2750020D01*
X17311854Y-11802516D02*
X17315028Y-11806195D01*
X18714972Y-2536195D02*
X18718146Y-2532516D01*
X12379185Y-2706001D02*
X12376585Y-2701896D01*
X12366763Y-11840262D02*
X12368287Y-11835648D01*
X10181824Y-2002214D02*
X10181801Y-2002220D01*
X10103481Y-11769994D02*
X10103703Y-11770000D01*
X19597470Y-11769214D02*
X19597480Y-11769165D01*
X19581278Y-12474504D02*
X19585061Y-12468192D01*
X14508695Y-2727528D02*
X14505016Y-2724354D01*
X19597480Y-2750834D02*
X19597470Y-2750786D01*
X12005828Y-2740495D02*
X12001385Y-2742464D01*
X14472500Y-11869012D02*
X14472619Y-11864142D01*
X10913358Y-2500120D02*
X10918204Y-2500477D01*
X19552025Y-12503765D02*
X19553020Y-12503135D01*
X12374190Y-11822332D02*
X12376585Y-11818104D01*
X15546983Y-11979974D02*
X15544185Y-11976001D01*
X17694172Y-11779505D02*
X17698614Y-11777536D01*
X10103100Y-12020091D02*
X10103056Y-12020112D01*
X15553146Y-11987484D02*
X15549972Y-11983805D01*
X14146854Y-11802516D02*
X14150028Y-11806195D01*
X10103192Y-2750056D02*
X10103146Y-2750072D01*
X17301305Y-2522472D02*
X17304984Y-2525646D01*
X19573977Y-2035651D02*
X19569035Y-2030199D01*
X12442186Y-2501903D02*
X12446974Y-2501072D01*
X19543530Y-12508717D02*
X19543552Y-12508706D01*
X15544185Y-11813999D02*
X15546983Y-11810026D01*
X18718146Y-11987484D02*
X18714972Y-11983805D01*
X18711983Y-11979974D02*
X18709185Y-11976001D01*
X12363572Y-11854474D02*
X12364402Y-11849686D01*
X10102970Y-11769839D02*
X10103013Y-11769865D01*
X17677526Y-2730517D02*
X17673695Y-2727528D01*
X10124483Y-12482473D02*
X10125207Y-12483401D01*
X14547445Y-2502967D02*
X14552186Y-2501903D01*
X12052995Y-2556672D02*
X12054964Y-2561114D01*
X14516499Y-2733315D02*
X14512526Y-2730517D01*
X19518176Y-2002214D02*
X19517027Y-2001956D01*
X15226428Y-11854474D02*
X15227023Y-11859296D01*
X18331386Y-2742464D02*
X18326852Y-2744213D01*
X17289396Y-2735915D02*
X17285168Y-2738310D01*
X10103334Y-12020020D02*
X10103286Y-12020030D01*
X15187474Y-12000517D02*
X15183501Y-12003315D01*
X18308026Y-12018928D02*
X18303204Y-12019523D01*
X14482005Y-11963328D02*
X14480036Y-11958885D01*
X14143503Y-2528997D02*
X14146854Y-2532516D01*
X19593486Y-2072138D02*
X19593172Y-2071004D01*
X17717186Y-12018097D02*
X17712445Y-12017033D01*
X15221712Y-2684352D02*
X15219964Y-2688886D01*
X19535734Y-12512369D02*
X19535779Y-12512350D01*
X12381983Y-11810026D02*
X12384972Y-11806195D01*
X12410604Y-11784085D02*
X12414832Y-11781690D01*
X10959396Y-12005915D02*
X10955168Y-12008310D01*
X18772186Y-12018097D02*
X18767445Y-12017033D01*
X10132699Y-12491535D02*
X10138151Y-12496477D01*
X19597148Y-2499752D02*
X19597184Y-2499719D01*
X10103056Y-12020112D02*
X10103013Y-12020135D01*
X12036854Y-2717484D02*
X12033503Y-2721003D01*
X14083204Y-2749523D02*
X14078358Y-2749880D01*
X17335597Y-2670314D02*
X17334533Y-2675055D01*
X17280828Y-2509505D02*
X17285168Y-2511690D01*
X19506100Y-12519577D02*
X19507274Y-12519490D01*
X15147814Y-11771902D02*
X15152555Y-11772967D01*
X15179396Y-2514085D02*
X15183501Y-2516685D01*
X15621642Y-11770119D02*
X15626512Y-11770000D01*
X15530467Y-11844945D02*
X15531763Y-11840262D01*
X14566642Y-2749880D02*
X14561796Y-2749523D01*
X15528572Y-2584474D02*
X15529402Y-2579686D01*
X11001713Y-11835648D02*
X11003237Y-11840262D01*
X14472619Y-2655858D02*
X14472500Y-2650988D01*
X10172339Y-2004711D02*
X10172316Y-2004719D01*
X18331386Y-2507536D02*
X18335828Y-2509505D01*
X19515795Y-12518259D02*
X19515819Y-12518255D01*
X11321585Y-2701896D02*
X11319190Y-2697668D01*
X11347526Y-2730517D02*
X11343695Y-2727528D01*
X10165387Y-2007198D02*
X10165364Y-2007207D01*
X10955168Y-2738310D02*
X10950828Y-2740495D01*
X11307500Y-11920988D02*
X11307500Y-11869012D01*
X19596568Y-11769992D02*
X19596617Y-11769987D01*
X15147814Y-2501903D02*
X15152555Y-2502967D01*
X19590293Y-2062864D02*
X19589869Y-2061766D01*
X11005597Y-11940314D02*
X11004533Y-11945055D01*
X18767445Y-11772967D02*
X18772186Y-11771902D01*
X19592789Y-12450161D02*
X19593158Y-12449043D01*
X11006428Y-11935526D02*
X11005597Y-11940314D01*
X15161852Y-11775787D02*
X15166385Y-11777536D01*
X11391974Y-12018928D02*
X11387186Y-12018097D01*
X10125207Y-12483401D02*
X10125238Y-12483439D01*
X11329972Y-11983805D02*
X11326983Y-11979974D01*
X19574762Y-2036561D02*
X19573993Y-2035670D01*
X17707762Y-2504263D02*
X17712445Y-2502967D01*
X19597500Y-2498773D02*
X19597500Y-2101227D01*
X14158415Y-11971896D02*
X14155815Y-11976001D01*
X18758148Y-11775787D02*
X18762762Y-11774263D01*
X19498701Y-12519941D02*
X19498726Y-12519940D01*
X10102500Y-2751227D02*
X10102500Y-11768773D01*
X18378415Y-2548104D02*
X18380810Y-2552332D01*
X12363572Y-2584474D02*
X12364402Y-2579686D01*
X19498701Y-2000059D02*
X19496297Y-2000000D01*
X15161852Y-12014212D02*
X15157238Y-12015737D01*
X19595544Y-2080473D02*
X19595286Y-2079324D01*
X12026305Y-2522472D02*
X12029984Y-2525646D01*
X17334533Y-11844945D02*
X17335597Y-11849686D01*
X12368287Y-2684352D02*
X12366763Y-2679738D01*
X11396796Y-11770477D02*
X11401642Y-11770119D01*
X12391497Y-2528997D02*
X12395016Y-2525646D01*
X19573993Y-12484330D02*
X19574762Y-12483439D01*
X17297474Y-2730517D02*
X17293501Y-2733315D01*
X18767445Y-2747033D02*
X18762762Y-2745737D01*
X15611974Y-2501072D02*
X15616796Y-2500477D01*
X14552186Y-2748097D02*
X14547445Y-2747033D01*
X11310467Y-11945055D02*
X11309402Y-11940314D01*
X10164221Y-2007649D02*
X10163145Y-2008126D01*
X14547445Y-11772967D02*
X14552186Y-11771902D01*
X19597030Y-12020160D02*
X19596987Y-12020135D01*
X12054964Y-11831114D02*
X12056712Y-11835648D01*
X15535036Y-2561114D02*
X15537005Y-2556672D01*
X17698614Y-2742464D02*
X17694172Y-2740495D01*
X15157238Y-12015737D02*
X15152555Y-12017033D01*
X10192677Y-12519486D02*
X10192726Y-12519490D01*
X15138204Y-11770477D02*
X15143026Y-11771072D01*
X11968358Y-12019880D02*
X11963488Y-12020000D01*
X10981854Y-11802516D02*
X10985028Y-11806195D01*
X17689832Y-2738310D02*
X17685604Y-2735915D01*
X15593148Y-11775787D02*
X15597762Y-11774263D01*
X14169533Y-2574945D02*
X14170597Y-2579686D01*
X18749172Y-2740495D02*
X18744832Y-2738310D01*
X18352474Y-12000517D02*
X18348501Y-12003315D01*
X10102921Y-2091424D02*
X10102560Y-2098774D01*
X19596297Y-2500000D02*
X19596519Y-2499994D01*
X12379185Y-11813999D02*
X12381983Y-11810026D01*
X10114323Y-12467104D02*
X10114346Y-12467147D01*
X17721974Y-12018928D02*
X17717186Y-12018097D01*
X17238488Y-2500000D02*
X17243358Y-2500120D01*
X14083204Y-2500477D02*
X14088026Y-2501072D01*
X11377762Y-12015737D02*
X11373148Y-12014212D01*
X18352474Y-11789483D02*
X18356305Y-11792472D01*
X11996852Y-2505787D02*
X12001385Y-2507536D01*
X14171428Y-11935526D02*
X14170597Y-11940314D01*
X15611974Y-11771072D02*
X15616796Y-11770477D01*
X10102506Y-12020981D02*
X10102500Y-12021203D01*
X14172380Y-11864142D02*
X14172500Y-11869012D01*
X14489185Y-11813999D02*
X14491983Y-11810026D01*
X19596568Y-2499992D02*
X19596617Y-2499987D01*
X17638572Y-11935526D02*
X17637977Y-11930704D01*
X17643287Y-2684352D02*
X17641763Y-2679738D01*
X12451796Y-2749523D02*
X12446974Y-2748928D01*
X15527619Y-11925858D02*
X15527500Y-11920988D01*
X12368287Y-2565648D02*
X12370036Y-2561114D01*
X14552186Y-12018097D02*
X14547445Y-12017033D01*
X12437445Y-2502967D02*
X12442186Y-2501903D01*
X12060597Y-2670314D02*
X12059533Y-2675055D01*
X14498146Y-2717484D02*
X14494972Y-2713805D01*
X14505016Y-11795646D02*
X14508695Y-11792472D01*
X12423614Y-2507536D02*
X12428148Y-2505787D01*
X15198503Y-2721003D02*
X15194984Y-2724354D01*
X19585654Y-12467147D02*
X19585677Y-12467104D01*
X14115828Y-12010495D02*
X14111385Y-12012464D01*
X14498146Y-11802516D02*
X14501497Y-11798997D01*
X10103432Y-11769992D02*
X10103481Y-11769994D01*
X15227380Y-2655858D02*
X15227023Y-2660704D01*
X14533614Y-2507536D02*
X14538148Y-2505787D01*
X14097555Y-2502967D02*
X14102238Y-2504263D01*
X14480036Y-11958885D02*
X14478287Y-11954352D01*
X17649190Y-11822332D02*
X17651585Y-11818104D01*
X10165364Y-2007207D02*
X10164266Y-2007631D01*
X15530467Y-11945055D02*
X15529402Y-11940314D01*
X15575604Y-11784085D02*
X15579832Y-11781690D01*
X15556497Y-2528997D02*
X15560016Y-2525646D01*
X12374190Y-11967668D02*
X12372005Y-11963328D01*
X18359984Y-11994354D02*
X18356305Y-11997528D01*
X12029984Y-11795646D02*
X12033503Y-11798997D01*
X19590301Y-2062887D02*
X19590293Y-2062864D01*
X15152555Y-2502967D02*
X15157238Y-2504263D01*
X19596273Y-12020000D02*
X18791512Y-12020000D01*
X10102717Y-2499610D02*
X10102748Y-2499648D01*
X12365467Y-2574945D02*
X12366763Y-2570262D01*
X18317555Y-12017033D02*
X18312814Y-12018097D01*
X12395016Y-2525646D02*
X12398695Y-2522472D01*
X15226428Y-11935526D02*
X15225597Y-11940314D01*
X14472500Y-2650988D02*
X14472500Y-2599012D01*
X18698287Y-2565648D02*
X18700036Y-2561114D01*
X14556974Y-12018928D02*
X14552186Y-12018097D01*
X12402526Y-12000517D02*
X12398695Y-11997528D01*
X18704190Y-11967668D02*
X18702005Y-11963328D01*
X18791512Y-2750000D02*
X18786642Y-2749880D01*
X14111385Y-2507536D02*
X14115828Y-2509505D01*
X10109707Y-12457136D02*
X10110131Y-12458234D01*
X11004533Y-11945055D02*
X11003237Y-11949738D01*
X14556974Y-2748928D02*
X14552186Y-2748097D01*
X15183501Y-2733315D02*
X15179396Y-2735915D01*
X10106842Y-12449043D02*
X10107211Y-12450161D01*
X19596761Y-2499958D02*
X19596808Y-2499944D01*
X15205028Y-11806195D02*
X15208017Y-11810026D01*
X10950828Y-12010495D02*
X10946386Y-12012464D01*
X12461512Y-2500000D02*
X14073488Y-2500000D01*
X11321585Y-11818104D02*
X11324185Y-11813999D01*
X18390597Y-11940314D02*
X18389533Y-11945055D01*
X17311854Y-11987484D02*
X17308503Y-11991003D01*
X10103481Y-2750006D02*
X10103432Y-2750008D01*
X17337023Y-2660704D02*
X17336428Y-2665526D01*
X17320815Y-2706001D02*
X17318017Y-2709974D01*
X17308503Y-2528997D02*
X17311854Y-2532516D01*
X11007023Y-2589296D02*
X11007380Y-2594142D01*
X18378415Y-11971896D02*
X18375815Y-11976001D01*
X11004533Y-11844945D02*
X11005597Y-11849686D01*
X10145977Y-2017570D02*
X10145957Y-2017584D01*
X10102572Y-12020645D02*
X10102556Y-12020692D01*
X19596854Y-12020072D02*
X19596808Y-12020056D01*
X14520604Y-11784085D02*
X14524832Y-11781690D01*
X18298358Y-2500120D02*
X18303204Y-2500477D01*
X14533614Y-12012464D02*
X14529172Y-12010495D01*
X18348501Y-2733315D02*
X18344396Y-2735915D01*
X10165387Y-12512801D02*
X10172316Y-12515280D01*
X10941852Y-11775787D02*
X10946386Y-11777536D01*
X10963501Y-12003315D02*
X10959396Y-12005915D01*
X11364172Y-12010495D02*
X11359832Y-12008310D01*
X18736499Y-11786685D02*
X18740604Y-11784085D01*
X12033503Y-11798997D02*
X12036854Y-11802516D01*
X10114926Y-12468171D02*
X10114939Y-12468192D01*
X19534636Y-2007207D02*
X19534613Y-2007198D01*
X10102612Y-2750556D02*
X10102591Y-2750600D01*
X19526543Y-12515658D02*
X19527661Y-12515288D01*
X10203727Y-2000000D02*
X10203703Y-2000000D01*
X18348501Y-11786685D02*
X18352474Y-11789483D01*
X14153017Y-11979974D02*
X14150028Y-11983805D01*
X19596519Y-2499994D02*
X19596568Y-2499992D01*
X12379185Y-11976001D02*
X12376585Y-11971896D01*
X18392023Y-2589296D02*
X18392380Y-2594142D01*
X18711983Y-2540026D02*
X18714972Y-2536195D01*
X17656983Y-11979974D02*
X17654185Y-11976001D01*
X14106852Y-11775787D02*
X14111385Y-11777536D01*
X18391428Y-2584474D02*
X18392023Y-2589296D01*
X12045815Y-11976001D02*
X12043017Y-11979974D01*
X19597030Y-2499839D02*
X19597070Y-2499812D01*
X15607186Y-2748097D02*
X15602445Y-2747033D01*
X18732526Y-12000517D02*
X18728695Y-11997528D01*
X19597470Y-2750786D02*
X19597458Y-2750739D01*
X18709185Y-11813999D02*
X18711983Y-11810026D01*
X14538148Y-2505787D02*
X14542762Y-2504263D01*
X17337500Y-2599012D02*
X17337500Y-2650988D01*
X17673695Y-2522472D02*
X17677526Y-2519483D01*
X12029984Y-2525646D02*
X12033503Y-2528997D01*
X11340016Y-2525646D02*
X11343695Y-2522472D01*
X18725016Y-11994354D02*
X18721497Y-11991003D01*
X14486585Y-11971896D02*
X14484190Y-11967668D01*
X10937238Y-11774263D02*
X10941852Y-11775787D01*
X19597252Y-12020352D02*
X19597219Y-12020316D01*
X10139099Y-2022707D02*
X10139061Y-2022738D01*
X17253026Y-12018928D02*
X17248204Y-12019523D01*
X19595286Y-2079324D02*
X19595280Y-2079300D01*
X15198503Y-11991003D02*
X15194984Y-11994354D01*
X19534613Y-2007198D02*
X19527684Y-2004719D01*
X19518176Y-12517786D02*
X19518199Y-12517780D01*
X10103334Y-2750020D02*
X10103286Y-2750030D01*
X15575604Y-2514085D02*
X15579832Y-2511690D01*
X19597494Y-11769019D02*
X19597500Y-11768797D01*
X18721497Y-2528997D02*
X18725016Y-2525646D01*
X12036854Y-2532516D02*
X12040028Y-2536195D01*
X10103334Y-11769980D02*
X10103383Y-11769987D01*
X19569018Y-2030181D02*
X19568207Y-2029328D01*
X19597312Y-2750430D02*
X19597283Y-2750390D01*
X15143026Y-2501072D02*
X15147814Y-2501903D01*
X15597762Y-12015737D02*
X15593148Y-12014212D01*
X10182973Y-12518044D02*
X10183021Y-12518053D01*
X10918204Y-12019523D02*
X10913358Y-12019880D01*
X10106828Y-2071004D02*
X10106514Y-2072138D01*
X15527619Y-2655858D02*
X15527500Y-2650988D01*
X15227023Y-11859296D02*
X15227380Y-11864142D01*
X18704190Y-2552332D02*
X18706585Y-2548104D01*
X18692500Y-2599012D02*
X18692620Y-2594142D01*
X17325810Y-11822332D02*
X17327995Y-11826672D01*
X14136305Y-11792472D02*
X14139984Y-11795646D01*
X15175168Y-11781690D02*
X15179396Y-11784085D01*
X19596808Y-11769944D02*
X19596854Y-11769927D01*
X11968358Y-11770119D02*
X11973204Y-11770477D01*
X10908488Y-12020000D02*
X10103727Y-12020000D01*
X18380810Y-2552332D02*
X18382995Y-2556672D01*
X12419172Y-2509505D02*
X12423614Y-2507536D01*
X19596944Y-11769888D02*
X19596987Y-11769865D01*
X10995810Y-2552332D02*
X10997995Y-2556672D01*
X12437445Y-2747033D02*
X12432762Y-2745737D01*
X14475467Y-11844945D02*
X14476763Y-11840262D01*
X11982814Y-11771902D02*
X11987555Y-11772967D01*
X18356305Y-2522472D02*
X18359984Y-2525646D01*
X12432762Y-2504263D02*
X12437445Y-2502967D01*
X12026305Y-11792472D02*
X12029984Y-11795646D01*
X15219964Y-11831114D02*
X15221712Y-11835648D01*
X15602445Y-11772967D02*
X15607186Y-11771902D01*
X17638572Y-11854474D02*
X17639403Y-11849686D01*
X11364172Y-2740495D02*
X11359832Y-2738310D01*
X14489185Y-2543999D02*
X14491983Y-2540026D01*
X15128488Y-12020000D02*
X14571512Y-12020000D01*
X19597077Y-2091399D02*
X19596991Y-2090226D01*
X10974984Y-11994354D02*
X10971305Y-11997528D01*
X19534613Y-12512801D02*
X19534636Y-12512793D01*
X15221712Y-2565648D02*
X15223237Y-2570262D01*
X19568172Y-12490706D02*
X19568207Y-12490672D01*
X18382995Y-11963328D02*
X18380810Y-11967668D01*
X15224533Y-11844945D02*
X15225597Y-11849686D01*
X11307619Y-2594142D02*
X11307977Y-2589296D01*
X10908488Y-11770000D02*
X10913358Y-11770119D01*
X14491983Y-2709974D02*
X14489185Y-2706001D01*
X19515819Y-2001745D02*
X19515795Y-2001741D01*
X15219964Y-2561114D02*
X15221712Y-2565648D01*
X19552004Y-12503778D02*
X19552025Y-12503765D01*
X15208017Y-2540026D02*
X15210815Y-2543999D01*
X19508491Y-2000658D02*
X19507323Y-2000514D01*
X11355604Y-12005915D02*
X11351499Y-12003315D01*
X10102816Y-2750281D02*
X10102781Y-2750316D01*
X11963488Y-2500000D02*
X11968358Y-2500120D01*
X19498726Y-12519940D02*
X19506076Y-12519579D01*
X17323415Y-11971896D02*
X17320815Y-11976001D01*
X14168237Y-11840262D02*
X14169533Y-11844945D01*
X18744832Y-2511690D02*
X18749172Y-2509505D01*
X19596987Y-11769865D02*
X19597030Y-11769839D01*
X14472977Y-2589296D02*
X14473572Y-2584474D01*
X14097555Y-12017033D02*
X14092814Y-12018097D01*
X11001713Y-2565648D02*
X11003237Y-2570262D01*
X11326983Y-11979974D02*
X11324185Y-11976001D01*
X14491983Y-11810026D02*
X14494972Y-11806195D01*
X19597252Y-2499648D02*
X19597283Y-2499610D01*
X18776974Y-11771072D02*
X18781796Y-11770477D01*
X10110627Y-2060644D02*
X10110150Y-2061721D01*
X14155815Y-2706001D02*
X14153017Y-2709974D01*
X19597440Y-12421226D02*
X19597441Y-12421201D01*
X18725016Y-11795646D02*
X18728695Y-11792472D01*
X10192726Y-12519490D02*
X10193900Y-12519577D01*
X14088026Y-2501072D02*
X14092814Y-2501903D01*
X10193900Y-2000423D02*
X10192726Y-2000509D01*
X15223237Y-11840262D02*
X15224533Y-11844945D01*
X11005597Y-11849686D02*
X11006428Y-11854474D01*
X10918204Y-2500477D02*
X10923026Y-2501072D01*
X14164964Y-11958885D02*
X14162995Y-11963328D01*
X19597487Y-12020883D02*
X19597480Y-12020834D01*
X11377762Y-2745737D02*
X11373148Y-2744213D01*
X12432762Y-11774263D02*
X12437445Y-11772967D01*
X18744832Y-2738310D02*
X18740604Y-2735915D01*
X19589850Y-2061721D02*
X19589373Y-2060644D01*
X14529172Y-12010495D02*
X14524832Y-12008310D01*
X10103286Y-2499970D02*
X10103334Y-2499980D01*
X10138170Y-2023507D02*
X10138151Y-2023523D01*
X11387186Y-2501903D02*
X11391974Y-2501072D01*
X14088026Y-2748928D02*
X14083204Y-2749523D01*
X18375815Y-11976001D02*
X18373017Y-11979974D01*
X19596714Y-2499970D02*
X19596761Y-2499958D01*
X18786642Y-2749880D02*
X18781796Y-2749523D01*
X15579832Y-2738310D02*
X15575604Y-2735915D01*
X10120084Y-2043457D02*
X10120070Y-2043477D01*
X17645036Y-2688886D02*
X17643287Y-2684352D01*
X10125238Y-12483439D02*
X10126007Y-12484330D01*
X11377762Y-2504263D02*
X11382445Y-2502967D01*
X17637620Y-11864142D02*
X17637977Y-11859296D01*
X15191305Y-11997528D02*
X15187474Y-12000517D01*
X19597070Y-12020188D02*
X19597030Y-12020160D01*
X19597444Y-2750692D02*
X19597428Y-2750646D01*
X14171428Y-2584474D02*
X14172023Y-2589296D01*
X10985028Y-11806195D02*
X10988017Y-11810026D01*
X15208017Y-11979974D02*
X15205028Y-11983805D01*
X18693572Y-2665526D02*
X18692977Y-2660704D01*
X10138151Y-2023523D02*
X10132699Y-2028465D01*
X10102520Y-2499166D02*
X10102530Y-2499214D01*
X12372005Y-2693328D02*
X12370036Y-2688886D01*
X11963488Y-12020000D02*
X11406512Y-12020000D01*
X15616796Y-12019523D02*
X15611974Y-12018928D01*
X17337380Y-11864142D02*
X17337500Y-11869012D01*
X10132681Y-2028482D02*
X10131828Y-2029293D01*
X18312814Y-2501903D02*
X18317555Y-2502967D01*
X18359984Y-11795646D02*
X18363503Y-11798997D01*
X11321585Y-11971896D02*
X11319190Y-11967668D01*
X10155396Y-2011823D02*
X10155353Y-2011846D01*
X14106852Y-2744213D02*
X14102238Y-2745737D01*
X12001385Y-11777536D02*
X12005828Y-11779505D01*
X19597428Y-2499354D02*
X19597444Y-2499308D01*
X17308503Y-11798997D02*
X17311854Y-11802516D01*
X10102513Y-2499117D02*
X10102520Y-2499166D01*
X18714972Y-11806195D02*
X18718146Y-11802516D01*
X10103703Y-2500000D02*
X10103727Y-2500000D01*
X12018501Y-2516685D02*
X12022474Y-2519483D01*
X10967474Y-12000517D02*
X10963501Y-12003315D01*
X15549972Y-2536195D02*
X15553146Y-2532516D01*
X10193924Y-2000421D02*
X10193900Y-2000423D01*
X12062023Y-11930704D02*
X12061428Y-11935526D01*
X18322238Y-12015737D02*
X18317555Y-12017033D01*
X19580608Y-12475560D02*
X19580635Y-12475520D01*
X19597148Y-12020248D02*
X19597110Y-12020217D01*
X18312814Y-11771902D02*
X18317555Y-11772967D01*
X17638572Y-2584474D02*
X17639403Y-2579686D01*
X15544185Y-2706001D02*
X15541585Y-2701896D01*
X12058237Y-2679738D02*
X12056712Y-2684352D01*
X17318017Y-2540026D02*
X17320815Y-2543999D01*
X18375815Y-2543999D02*
X18378415Y-2548104D01*
X10993415Y-11971896D02*
X10990815Y-11976001D01*
X19575517Y-2037527D02*
X19574793Y-2036599D01*
X11391974Y-11771072D02*
X11396796Y-11770477D01*
X15537005Y-11963328D02*
X15535036Y-11958885D01*
X14083204Y-11770477D02*
X14088026Y-11771072D01*
X18762762Y-11774263D02*
X18767445Y-11772967D01*
X15205028Y-2713805D02*
X15201854Y-2717484D01*
X14139984Y-11994354D02*
X14136305Y-11997528D01*
X14556974Y-11771072D02*
X14561796Y-11770477D01*
X12362619Y-2655858D02*
X12362500Y-2650988D01*
X14150028Y-11983805D02*
X14146854Y-11987484D01*
X10203727Y-12520000D02*
X19496273Y-12520000D01*
X15210815Y-11813999D02*
X15213415Y-11818104D01*
X12045815Y-11813999D02*
X12048415Y-11818104D01*
X12001385Y-2507536D02*
X12005828Y-2509505D01*
X18736499Y-2733315D02*
X18732526Y-2730517D01*
X17651585Y-2701896D02*
X17649190Y-2697668D01*
X17736512Y-2500000D02*
X18293488Y-2500000D01*
X10147996Y-2016222D02*
X10147975Y-2016235D01*
X10104245Y-2081681D02*
X10104241Y-2081705D01*
X10103013Y-2499865D02*
X10103056Y-2499888D01*
X12388146Y-2717484D02*
X12384972Y-2713805D01*
X15215810Y-2552332D02*
X15217995Y-2556672D01*
X10103192Y-11769944D02*
X10103239Y-11769958D01*
X10103286Y-11769970D02*
X10103334Y-11769980D01*
X10941852Y-2505787D02*
X10946386Y-2507536D01*
X10923026Y-2501072D02*
X10927814Y-2501903D01*
X12061428Y-11854474D02*
X12062023Y-11859296D01*
X18732526Y-2519483D02*
X18736499Y-2516685D01*
X18375815Y-11813999D02*
X18378415Y-11818104D01*
X12362977Y-11859296D02*
X12363572Y-11854474D01*
X17685604Y-12005915D02*
X17681499Y-12003315D01*
X15527500Y-11920988D02*
X15527500Y-11869012D01*
X10126007Y-2035670D02*
X10125238Y-2036561D01*
X14155815Y-2543999D02*
X14158415Y-2548104D01*
X10102970Y-2750161D02*
X10102930Y-2750188D01*
X19552004Y-2016222D02*
X19545692Y-2012439D01*
X10103014Y-12429823D02*
X10103158Y-12430991D01*
X18700036Y-2561114D02*
X18702005Y-2556672D01*
X18308026Y-2501072D02*
X18312814Y-2501903D01*
X10102506Y-2499019D02*
X10102508Y-2499068D01*
X10110131Y-12458234D02*
X10110150Y-12458279D01*
X14102238Y-2745737D02*
X14097555Y-2747033D01*
X12414832Y-2511690D02*
X12419172Y-2509505D01*
X10950828Y-2740495D02*
X10946386Y-2742464D01*
X12018501Y-12003315D02*
X12014396Y-12005915D01*
X19597492Y-12020932D02*
X19597487Y-12020883D01*
X17289396Y-11784085D02*
X17293501Y-11786685D01*
X14505016Y-2724354D02*
X14501497Y-2721003D01*
X17670016Y-11795646D02*
X17673695Y-11792472D01*
X12362977Y-2660704D02*
X12362619Y-2655858D01*
X18298358Y-12019880D02*
X18293488Y-12020000D01*
X19597492Y-2750932D02*
X19597487Y-2750883D01*
X10113794Y-12466052D02*
X10114323Y-12467104D01*
X17649190Y-2697668D02*
X17647005Y-2693328D01*
X11007380Y-11864142D02*
X11007500Y-11869012D01*
X10946386Y-11777536D02*
X10950828Y-11779505D01*
X15170828Y-12010495D02*
X15166385Y-12012464D01*
X14172023Y-11930704D02*
X14171428Y-11935526D01*
X10102921Y-12428576D02*
X10102923Y-12428600D01*
X10104456Y-2080473D02*
X10104447Y-2080521D01*
X19568207Y-12490672D02*
X19569018Y-12489819D01*
X15563695Y-11997528D02*
X15560016Y-11994354D01*
X10993415Y-2548104D02*
X10995810Y-2552332D01*
X18366854Y-2717484D02*
X18363503Y-2721003D01*
X10103727Y-2500000D02*
X10908488Y-2500000D01*
X10102852Y-11769752D02*
X10102890Y-11769783D01*
X17659972Y-11983805D02*
X17656983Y-11979974D01*
X18728695Y-11997528D02*
X18725016Y-11994354D01*
X12005828Y-12010495D02*
X12001385Y-12012464D01*
X14473572Y-2665526D02*
X14472977Y-2660704D01*
X12419172Y-11779505D02*
X12423614Y-11777536D01*
X15529402Y-2579686D02*
X15530467Y-2574945D01*
X15563695Y-2522472D02*
X15567526Y-2519483D01*
X17243358Y-2500120D02*
X17248204Y-2500477D01*
X10172339Y-12515288D02*
X10173457Y-12515658D01*
X18335828Y-2740495D02*
X18331386Y-2742464D01*
X10191484Y-12519338D02*
X10191509Y-12519342D01*
X10113783Y-12466030D02*
X10113794Y-12466052D01*
X10104714Y-2079324D02*
X10104456Y-2080473D01*
X18303204Y-2500477D02*
X18308026Y-2501072D01*
X10102572Y-11769354D02*
X10102591Y-11769400D01*
X17336428Y-11935526D02*
X17335597Y-11940314D01*
X19596273Y-11770000D02*
X19596297Y-11770000D01*
X17331713Y-2684352D02*
X17329964Y-2688886D01*
X12022474Y-2519483D02*
X12026305Y-2522472D01*
X12026305Y-11997528D02*
X12022474Y-12000517D01*
X19595544Y-12439527D02*
X19595553Y-12439479D01*
X14106852Y-2505787D02*
X14111385Y-2507536D01*
X10106842Y-2070957D02*
X10106828Y-2071004D01*
X17337380Y-2655858D02*
X17337023Y-2660704D01*
X17639403Y-11849686D02*
X17640467Y-11844945D01*
X11336497Y-11991003D02*
X11333146Y-11987484D01*
X18740604Y-12005915D02*
X18736499Y-12003315D01*
X15133358Y-11770119D02*
X15138204Y-11770477D01*
X15541585Y-11971896D02*
X15539190Y-11967668D01*
X10201299Y-12519941D02*
X10203703Y-12520000D01*
X10974984Y-11795646D02*
X10978503Y-11798997D01*
X12388146Y-11802516D02*
X12391497Y-11798997D01*
X10130965Y-2030199D02*
X10126023Y-2035651D01*
X19597184Y-12020281D02*
X19597148Y-12020248D01*
X17271852Y-2505787D02*
X17276386Y-2507536D01*
X12029984Y-11994354D02*
X12026305Y-11997528D01*
X10913358Y-2749880D02*
X10908488Y-2750000D01*
X14132474Y-11789483D02*
X14136305Y-11792472D01*
X18692620Y-11925858D02*
X18692500Y-11920988D01*
X19597500Y-12418797D02*
X19597500Y-12418773D01*
X15533287Y-2565648D02*
X15535036Y-2561114D01*
X10978503Y-11798997D02*
X10981854Y-11802516D01*
X19597494Y-2499019D02*
X19597500Y-2498797D01*
X11347526Y-12000517D02*
X11343695Y-11997528D01*
X11311763Y-2679738D02*
X11310467Y-2675055D01*
X14480036Y-2561114D02*
X14482005Y-2556672D01*
X10103286Y-2750030D02*
X10103239Y-2750042D01*
X12056712Y-11954352D02*
X12054964Y-11958885D01*
X10102591Y-2499400D02*
X10102612Y-2499444D01*
X15533287Y-11835648D02*
X15535036Y-11831114D01*
X12379185Y-2543999D02*
X12381983Y-2540026D01*
X15527619Y-11864142D02*
X15527977Y-11859296D01*
X18721497Y-2721003D02*
X18718146Y-2717484D01*
X15128488Y-2500000D02*
X15133358Y-2500120D01*
X15539190Y-2697668D02*
X15537005Y-2693328D01*
X15191305Y-11792472D02*
X15194984Y-11795646D01*
X14169533Y-11945055D02*
X14168237Y-11949738D01*
X14102238Y-12015737D02*
X14097555Y-12017033D01*
X18709185Y-2543999D02*
X18711983Y-2540026D01*
X14494972Y-2713805D02*
X14491983Y-2709974D01*
X15546983Y-11810026D02*
X15549972Y-11806195D01*
X17703148Y-11775787D02*
X17707762Y-11774263D01*
X14484190Y-2552332D02*
X14486585Y-2548104D01*
X14143503Y-2721003D02*
X14139984Y-2724354D01*
X10109699Y-12457113D02*
X10109707Y-12457136D01*
X14139984Y-2525646D02*
X14143503Y-2528997D01*
X17663146Y-11987484D02*
X17659972Y-11983805D01*
X17703148Y-12014212D02*
X17698614Y-12012464D01*
X19496297Y-12520000D02*
X19498701Y-12519941D01*
X18375815Y-2706001D02*
X18373017Y-2709974D01*
X15531763Y-2679738D02*
X15530467Y-2675055D01*
X11373148Y-11775787D02*
X11377762Y-11774263D01*
X14524832Y-11781690D02*
X14529172Y-11779505D01*
X15183501Y-2516685D02*
X15187474Y-2519483D01*
X11007380Y-2655858D02*
X11007023Y-2660704D01*
X15597762Y-2745737D02*
X15593148Y-2744213D01*
X18380810Y-2697668D02*
X18378415Y-2701896D01*
X10102661Y-12020470D02*
X10102635Y-12020512D01*
X12374190Y-2697668D02*
X12372005Y-2693328D01*
X14472500Y-11920988D02*
X14472500Y-11869012D01*
X17731642Y-2500120D02*
X17736512Y-2500000D01*
X10102930Y-2499812D02*
X10102970Y-2499839D01*
X15227380Y-2594142D02*
X15227500Y-2599012D01*
X12432762Y-12015737D02*
X12428148Y-12014212D01*
X12365467Y-2675055D02*
X12364402Y-2670314D01*
X18692620Y-2594142D02*
X18692977Y-2589296D01*
X19568207Y-2029328D02*
X19568172Y-2029293D01*
X19597470Y-2499214D02*
X19597480Y-2499166D01*
X17681499Y-2516685D02*
X17685604Y-2514085D01*
X10102530Y-11769214D02*
X10102542Y-11769261D01*
X18749172Y-12010495D02*
X18744832Y-12008310D01*
X19596617Y-2750013D02*
X19596568Y-2750008D01*
X15170828Y-2509505D02*
X15175168Y-2511690D01*
X17641763Y-2570262D02*
X17643287Y-2565648D01*
X19597441Y-2098799D02*
X19597440Y-2098774D01*
X10193924Y-12519579D02*
X10201274Y-12519940D01*
X10102781Y-11769684D02*
X10102816Y-11769719D01*
X12398695Y-11792472D02*
X12402526Y-11789483D01*
X18392500Y-2650988D02*
X18392380Y-2655858D01*
X10102556Y-2499308D02*
X10102572Y-2499354D01*
X10104714Y-12440676D02*
X10104720Y-12440699D01*
X15205028Y-2536195D02*
X15208017Y-2540026D01*
X10102560Y-12421226D02*
X10102921Y-12428576D01*
X18791512Y-11770000D02*
X19596273Y-11770000D01*
X10132699Y-2028465D02*
X10132681Y-2028482D01*
X19575517Y-12482473D02*
X19575532Y-12482453D01*
X11391974Y-2748928D02*
X11387186Y-2748097D01*
X12362500Y-2650988D02*
X12362500Y-2599012D01*
X15166385Y-12012464D02*
X15161852Y-12014212D01*
X14136305Y-11997528D02*
X14132474Y-12000517D01*
X19567319Y-2028482D02*
X19567301Y-2028465D01*
X19597487Y-11769117D02*
X19597492Y-11769068D01*
X11324185Y-11813999D02*
X11326983Y-11810026D01*
X11006428Y-2584474D02*
X11007023Y-2589296D01*
X15198503Y-2528997D02*
X15201854Y-2532516D01*
X10102635Y-2499487D02*
X10102661Y-2499530D01*
X10102923Y-2091399D02*
X10102921Y-2091424D01*
X15531763Y-11949738D02*
X15530467Y-11945055D01*
X11368614Y-2507536D02*
X11373148Y-2505787D01*
X12432762Y-2745737D02*
X12428148Y-2744213D01*
X11321585Y-2548104D02*
X11324185Y-2543999D01*
X10114323Y-2052896D02*
X10113794Y-2053948D01*
X14097555Y-11772967D02*
X14102238Y-11774263D01*
X15191305Y-2727528D02*
X15187474Y-2730517D01*
X11307977Y-2589296D02*
X11308572Y-2584474D01*
X18390597Y-2670314D02*
X18389533Y-2675055D01*
X12059533Y-2574945D02*
X12060597Y-2579686D01*
X19596900Y-12020091D02*
X19596854Y-12020072D01*
X11313287Y-2565648D02*
X11315036Y-2561114D01*
X12456642Y-2749880D02*
X12451796Y-2749523D01*
X12010168Y-2738310D02*
X12005828Y-2740495D01*
X17698614Y-12012464D02*
X17694172Y-12010495D01*
X11007023Y-2660704D02*
X11006428Y-2665526D01*
X19593492Y-2072162D02*
X19593486Y-2072138D01*
X15560016Y-2724354D02*
X15556497Y-2721003D01*
X10102513Y-11769117D02*
X10102520Y-11769165D01*
X17637500Y-11920988D02*
X17637500Y-11869012D01*
X15208017Y-11810026D02*
X15210815Y-11813999D01*
X10102748Y-2750352D02*
X10102717Y-2750390D01*
X17673695Y-11997528D02*
X17670016Y-11994354D01*
X11307619Y-11864142D02*
X11307977Y-11859296D01*
X15201854Y-11802516D02*
X15205028Y-11806195D01*
X11387186Y-12018097D02*
X11382445Y-12017033D01*
X10184181Y-12518255D02*
X10184205Y-12518259D01*
X18692500Y-11869012D02*
X18692620Y-11864142D01*
X10102591Y-11769400D02*
X10102612Y-11769444D01*
X10995810Y-11822332D02*
X10997995Y-11826672D01*
X14491983Y-11979974D02*
X14489185Y-11976001D01*
X17637620Y-2594142D02*
X17637977Y-2589296D01*
X18725016Y-2525646D02*
X18728695Y-2522472D01*
X10999964Y-11958885D02*
X10997995Y-11963328D01*
X10985028Y-2536195D02*
X10988017Y-2540026D01*
X18728695Y-11792472D02*
X18732526Y-11789483D01*
X11963488Y-2750000D02*
X11406512Y-2750000D01*
X19597458Y-2499261D02*
X19597470Y-2499214D01*
X12014396Y-2514085D02*
X12018501Y-2516685D01*
X11308572Y-11854474D02*
X11309402Y-11849686D01*
X17640467Y-2675055D02*
X17639403Y-2670314D01*
X19597148Y-2750248D02*
X19597110Y-2750217D01*
X19593158Y-2070957D02*
X19592789Y-2069839D01*
X15575604Y-12005915D02*
X15571499Y-12003315D01*
X10104456Y-12439527D02*
X10104714Y-12440676D01*
X19592781Y-2069816D02*
X19590301Y-2062887D01*
X17645036Y-2561114D02*
X17647005Y-2556672D01*
X12062023Y-2589296D02*
X12062380Y-2594142D01*
X12054964Y-2561114D02*
X12056712Y-2565648D01*
X17257814Y-2748097D02*
X17253026Y-2748928D01*
X19597500Y-12021203D02*
X19597494Y-12020981D01*
X15571499Y-11786685D02*
X15575604Y-11784085D01*
X19595553Y-2080521D02*
X19595544Y-2080473D01*
X12398695Y-2522472D02*
X12402526Y-2519483D01*
X10184205Y-2001741D02*
X10184181Y-2001745D01*
X14172023Y-11859296D02*
X14172380Y-11864142D01*
X10145957Y-12502416D02*
X10145977Y-12502430D01*
X19575532Y-2037546D02*
X19575517Y-2037527D01*
X18698287Y-2684352D02*
X18696763Y-2679738D01*
X17726796Y-2749523D02*
X17721974Y-2748928D01*
X14155815Y-11813999D02*
X14158415Y-11818104D01*
X15579832Y-2511690D02*
X15584172Y-2509505D01*
X11313287Y-2684352D02*
X11311763Y-2679738D01*
X18298358Y-2749880D02*
X18293488Y-2750000D01*
X14498146Y-11987484D02*
X14494972Y-11983805D01*
X10155353Y-2011846D02*
X10154329Y-2012426D01*
X11387186Y-11771902D02*
X11391974Y-11771072D01*
X18762762Y-2504263D02*
X18767445Y-2502967D01*
X14172380Y-2594142D02*
X14172500Y-2599012D01*
X17694172Y-2509505D02*
X17698614Y-2507536D01*
X17320815Y-11976001D02*
X17318017Y-11979974D01*
X10154329Y-12507573D02*
X10155353Y-12508154D01*
X19597070Y-2499812D02*
X19597110Y-2499783D01*
X11373148Y-12014212D02*
X11368614Y-12012464D01*
X10107219Y-12450184D02*
X10109699Y-12457113D01*
X19597458Y-12020739D02*
X19597444Y-12020692D01*
X19508491Y-12519342D02*
X19508516Y-12519338D01*
X18762762Y-2745737D02*
X18758148Y-2744213D01*
X10106514Y-2072138D02*
X10106508Y-2072162D01*
X19575532Y-12482453D02*
X19579916Y-12476543D01*
X12364402Y-2579686D02*
X12365467Y-2574945D01*
X11007380Y-11925858D02*
X11007023Y-11930704D01*
X18344396Y-2735915D02*
X18340168Y-2738310D01*
X19597500Y-2751227D02*
X19597500Y-2751203D01*
X19596273Y-2750000D02*
X18791512Y-2750000D01*
X17712445Y-2747033D02*
X17707762Y-2745737D01*
X17267238Y-11774263D02*
X17271852Y-11775787D01*
X19595286Y-12440676D02*
X19595544Y-12439527D01*
X12056712Y-11835648D02*
X12058237Y-11840262D01*
X15194984Y-2525646D02*
X15198503Y-2528997D01*
X17334533Y-2675055D02*
X17333237Y-2679738D01*
X11382445Y-12017033D02*
X11377762Y-12015737D01*
X12062380Y-11925858D02*
X12062023Y-11930704D01*
X12446974Y-2501072D02*
X12451796Y-2500477D01*
X19525362Y-2004014D02*
X19525338Y-2004008D01*
X14476763Y-2570262D02*
X14478287Y-2565648D01*
X18718146Y-2717484D02*
X18714972Y-2713805D01*
X18392380Y-2594142D02*
X18392500Y-2599012D01*
X10102890Y-2499783D02*
X10102930Y-2499812D01*
X18692977Y-2589296D02*
X18693572Y-2584474D01*
X15588614Y-11777536D02*
X15593148Y-11775787D01*
X10927814Y-11771902D02*
X10932555Y-11772967D01*
X19596617Y-11769987D02*
X19596666Y-11769980D01*
X12058237Y-11840262D02*
X12059533Y-11844945D01*
X10107219Y-2069816D02*
X10107211Y-2069839D01*
X19597388Y-2750556D02*
X19597365Y-2750513D01*
X17301305Y-11997528D02*
X17297474Y-12000517D01*
X15556497Y-11991003D02*
X15553146Y-11987484D01*
X18384964Y-11958885D02*
X18382995Y-11963328D01*
X15227500Y-2650988D02*
X15227380Y-2655858D01*
X10971305Y-2522472D02*
X10974984Y-2525646D01*
X15217995Y-11826672D02*
X15219964Y-11831114D01*
X18392023Y-11930704D02*
X18391428Y-11935526D01*
X18308026Y-2748928D02*
X18303204Y-2749523D01*
X17638572Y-2665526D02*
X17637977Y-2660704D01*
X10102890Y-12020217D02*
X10102852Y-12020248D01*
X18366854Y-2532516D02*
X18370028Y-2536195D01*
X11007023Y-11859296D02*
X11007380Y-11864142D01*
X14472619Y-11925858D02*
X14472500Y-11920988D01*
X11364172Y-11779505D02*
X11368614Y-11777536D01*
X10192677Y-2000514D02*
X10191509Y-2000658D01*
X15152555Y-11772967D02*
X15157238Y-11774263D01*
X10102612Y-12020556D02*
X10102591Y-12020600D01*
X10978503Y-2721003D02*
X10974984Y-2724354D01*
X17677526Y-12000517D02*
X17673695Y-11997528D01*
X19596666Y-2499980D02*
X19596714Y-2499970D01*
X14078358Y-2749880D02*
X14073488Y-2750000D01*
X10174662Y-2004008D02*
X10174638Y-2004014D01*
X18390597Y-11849686D02*
X18391428Y-11854474D01*
X11382445Y-11772967D02*
X11387186Y-11771902D01*
X17673695Y-11792472D02*
X17677526Y-11789483D01*
X10103158Y-12430991D02*
X10103162Y-12431016D01*
X17659972Y-11806195D02*
X17663146Y-11802516D01*
X14172500Y-11869012D02*
X14172500Y-11920988D01*
X10147996Y-12503778D02*
X10154308Y-12507561D01*
X10102717Y-12020390D02*
X10102688Y-12020430D01*
X18317555Y-2502967D02*
X18322238Y-2504263D01*
X17643287Y-11835648D02*
X17645036Y-11831114D01*
X19508516Y-2000662D02*
X19508491Y-2000658D01*
X19596273Y-2500000D02*
X19596297Y-2500000D01*
X18772186Y-11771902D02*
X18776974Y-11771072D01*
X11309402Y-11940314D02*
X11308572Y-11935526D01*
X19536878Y-2008137D02*
X19536855Y-2008126D01*
X10114926Y-2051829D02*
X10114346Y-2052853D01*
X19597219Y-11769684D02*
X19597252Y-11769648D01*
X19597480Y-12020834D02*
X19597470Y-12020786D01*
X14102238Y-2504263D02*
X14106852Y-2505787D01*
X15210815Y-2706001D02*
X15208017Y-2709974D01*
X14494972Y-11806195D02*
X14498146Y-11802516D01*
X10119365Y-2044480D02*
X10118735Y-2045475D01*
X19596568Y-12020008D02*
X19596519Y-12020006D01*
X12001385Y-12012464D02*
X11996852Y-12014212D01*
X10102513Y-12020883D02*
X10102508Y-12020932D01*
X19597492Y-11769068D02*
X19597494Y-11769019D01*
X19597458Y-2750739D02*
X19597444Y-2750692D01*
X14155815Y-11976001D02*
X14153017Y-11979974D01*
X10102520Y-12020834D02*
X10102513Y-12020883D01*
X17329964Y-11831114D02*
X17331713Y-11835648D01*
X19507274Y-2000509D02*
X19506100Y-2000423D01*
X17689832Y-12008310D02*
X17685604Y-12005915D01*
X19526496Y-12515672D02*
X19526543Y-12515658D01*
X17327995Y-11826672D02*
X17329964Y-11831114D01*
X17320815Y-11813999D02*
X17323415Y-11818104D01*
X15133358Y-2749880D02*
X15128488Y-2750000D01*
X14092814Y-11771902D02*
X14097555Y-11772967D01*
X12381983Y-2709974D02*
X12379185Y-2706001D01*
X11982814Y-2748097D02*
X11978026Y-2748928D01*
X10182973Y-2001956D02*
X10181824Y-2002214D01*
X17666497Y-11991003D02*
X17663146Y-11987484D01*
X14124396Y-2735915D02*
X14120168Y-2738310D01*
X18388237Y-11840262D02*
X18389533Y-11844945D01*
X10988017Y-11979974D02*
X10985028Y-11983805D01*
X11987555Y-11772967D02*
X11992238Y-11774263D01*
X14120168Y-12008310D02*
X14115828Y-12010495D01*
X19527684Y-12515280D02*
X19534613Y-12512801D01*
X11003237Y-2570262D02*
X11004533Y-2574945D01*
X15579832Y-11781690D02*
X15584172Y-11779505D01*
X18704190Y-11822332D02*
X18706585Y-11818104D01*
X19527661Y-2004711D02*
X19526543Y-2004342D01*
X18373017Y-11810026D02*
X18375815Y-11813999D01*
X19597440Y-2098774D02*
X19597079Y-2091424D01*
X19526543Y-2004342D02*
X19526496Y-2004328D01*
X12456642Y-11770119D02*
X12461512Y-11770000D01*
X15157238Y-2745737D02*
X15152555Y-2747033D01*
X19595755Y-2081681D02*
X19595553Y-2080521D01*
X12048415Y-2548104D02*
X12050810Y-2552332D01*
X19567301Y-2028465D02*
X19561849Y-2023523D01*
X12048415Y-11818104D02*
X12050810Y-11822332D01*
X10927814Y-12018097D02*
X10923026Y-12018928D01*
X12423614Y-2742464D02*
X12419172Y-2740495D01*
X17253026Y-11771072D02*
X17257814Y-11771902D01*
X19559973Y-12498017D02*
X19560901Y-12497293D01*
X14508695Y-2522472D02*
X14512526Y-2519483D01*
X10102556Y-2750692D02*
X10102542Y-2750739D01*
X19544647Y-12508154D02*
X19545671Y-12507573D01*
X17712445Y-2502967D02*
X17717186Y-2501903D01*
X18392500Y-11920988D02*
X18392380Y-11925858D01*
X15157238Y-11774263D02*
X15161852Y-11775787D01*
X18382995Y-2693328D02*
X18380810Y-2697668D01*
X19596568Y-2750008D02*
X19596519Y-2750006D01*
X17315028Y-2713805D02*
X17311854Y-2717484D01*
X10193900Y-12519577D02*
X10193924Y-12519579D01*
X17707762Y-12015737D02*
X17703148Y-12014212D01*
X19543552Y-2011294D02*
X19543530Y-2011283D01*
X19597252Y-11769648D02*
X19597283Y-11769610D01*
X10130982Y-12489819D02*
X10131793Y-12490672D01*
X10102560Y-2098774D02*
X10102559Y-2098799D01*
X12022474Y-12000517D02*
X12018501Y-12003315D01*
X18303204Y-12019523D02*
X18298358Y-12019880D01*
X19597487Y-2499117D02*
X19597492Y-2499068D01*
X10102500Y-11768797D02*
X10102506Y-11769019D01*
X15210815Y-2543999D02*
X15213415Y-2548104D01*
X10997995Y-11963328D02*
X10995810Y-11967668D01*
X18340168Y-2511690D02*
X18344396Y-2514085D01*
X14166712Y-2684352D02*
X14164964Y-2688886D01*
X14524832Y-2738310D02*
X14520604Y-2735915D01*
X12040028Y-11806195D02*
X12043017Y-11810026D01*
X17331713Y-2565648D02*
X17333237Y-2570262D01*
X14484190Y-11967668D02*
X14482005Y-11963328D01*
X18386713Y-11954352D02*
X18384964Y-11958885D01*
X14162995Y-11963328D02*
X14160810Y-11967668D01*
X12052995Y-2693328D02*
X12050810Y-2697668D01*
X19597409Y-12020600D02*
X19597388Y-12020556D01*
X10963501Y-11786685D02*
X10967474Y-11789483D01*
X17267238Y-2504263D02*
X17271852Y-2505787D01*
X14162995Y-11826672D02*
X14164964Y-11831114D01*
X11373148Y-2505787D02*
X11377762Y-2504263D01*
X15166385Y-2507536D02*
X15170828Y-2509505D01*
X10959396Y-2514085D02*
X10963501Y-2516685D01*
X18366854Y-11987484D02*
X18363503Y-11991003D01*
X19597388Y-12020556D02*
X19597365Y-12020512D01*
X19579930Y-2043477D02*
X19579916Y-2043457D01*
X10145957Y-2017584D02*
X10140046Y-2021968D01*
X10140027Y-12498017D02*
X10140046Y-12498032D01*
X11317005Y-11826672D02*
X11319190Y-11822332D01*
X19586206Y-12466052D02*
X19586217Y-12466030D01*
X14169533Y-11844945D02*
X14170597Y-11849686D01*
X12062380Y-2655858D02*
X12062023Y-2660704D01*
X19596666Y-11769980D02*
X19596714Y-11769970D01*
X14097555Y-2747033D02*
X14092814Y-2748097D01*
X18389533Y-11844945D02*
X18390597Y-11849686D01*
X14472500Y-2599012D02*
X14472619Y-2594142D01*
X17656983Y-11810026D02*
X17659972Y-11806195D01*
X15602445Y-2747033D02*
X15597762Y-2745737D01*
X18392380Y-2655858D02*
X18392023Y-2660704D01*
X19597110Y-12020217D02*
X19597070Y-12020188D01*
X19573993Y-2035670D02*
X19573977Y-2035651D01*
X12428148Y-2744213D02*
X12423614Y-2742464D01*
X10103100Y-11769909D02*
X10103146Y-11769927D01*
X15221712Y-11835648D02*
X15223237Y-11840262D01*
X15584172Y-2509505D02*
X15588614Y-2507536D01*
X19597500Y-11768797D02*
X19597500Y-11768773D01*
X10191509Y-12519342D02*
X10192677Y-12519486D01*
X14164964Y-11831114D02*
X14166712Y-11835648D01*
X10102556Y-12020692D02*
X10102542Y-12020739D01*
X15553146Y-11802516D02*
X15556497Y-11798997D01*
X15223237Y-2570262D02*
X15224533Y-2574945D01*
X19596714Y-12020030D02*
X19596666Y-12020020D01*
X17640467Y-11945055D02*
X17639403Y-11940314D01*
X11333146Y-2532516D02*
X11336497Y-2528997D01*
X15626512Y-2750000D02*
X15621642Y-2749880D01*
X15607186Y-2501903D02*
X15611974Y-2501072D01*
X15527977Y-2660704D02*
X15527619Y-2655858D01*
X18392500Y-2599012D02*
X18392500Y-2650988D01*
X11007500Y-2599012D02*
X11007500Y-2650988D01*
X10131828Y-2029293D02*
X10131793Y-2029328D01*
X10102542Y-2499261D02*
X10102556Y-2499308D01*
X17731642Y-12019880D02*
X17726796Y-12019523D01*
X14128501Y-2733315D02*
X14124396Y-2735915D01*
X14160810Y-11967668D02*
X14158415Y-11971896D01*
X12014396Y-11784085D02*
X12018501Y-11786685D01*
X10993415Y-2701896D02*
X10990815Y-2706001D01*
X15607186Y-11771902D02*
X15611974Y-11771072D01*
X17297474Y-2519483D02*
X17301305Y-2522472D01*
X15179396Y-11784085D02*
X15183501Y-11786685D01*
X15128488Y-2750000D02*
X14571512Y-2750000D01*
X17276386Y-11777536D02*
X17280828Y-11779505D01*
X19597500Y-2498797D02*
X19597500Y-2498773D01*
X17666497Y-11798997D02*
X17670016Y-11795646D01*
X15539190Y-11967668D02*
X15537005Y-11963328D01*
X17336428Y-11854474D02*
X17337023Y-11859296D01*
X15161852Y-2744213D02*
X15157238Y-2745737D01*
X10132681Y-12491518D02*
X10132699Y-12491535D01*
X14115828Y-2740495D02*
X14111385Y-2742464D01*
X15544185Y-2543999D02*
X15546983Y-2540026D01*
X12406499Y-11786685D02*
X12410604Y-11784085D01*
X10102506Y-2750981D02*
X10102500Y-2751203D01*
X15575604Y-2735915D02*
X15571499Y-2733315D01*
X19597409Y-2750600D02*
X19597388Y-2750556D01*
X19597184Y-2499719D02*
X19597219Y-2499684D01*
X17238488Y-12020000D02*
X15626512Y-12020000D01*
X17670016Y-11994354D02*
X17666497Y-11991003D01*
X17325810Y-2697668D02*
X17323415Y-2701896D01*
X15597762Y-2504263D02*
X15602445Y-2502967D01*
X15187474Y-2519483D02*
X15191305Y-2522472D01*
X19596617Y-12020013D02*
X19596568Y-12020008D01*
X15626512Y-12020000D02*
X15621642Y-12019880D01*
X10140046Y-12498032D02*
X10145957Y-12502416D01*
X19597409Y-2499400D02*
X19597428Y-2499354D01*
X12442186Y-11771902D02*
X12446974Y-11771072D01*
X12370036Y-11958885D02*
X12368287Y-11954352D01*
X11355604Y-11784085D02*
X11359832Y-11781690D01*
X14168237Y-11949738D02*
X14166712Y-11954352D01*
X10103481Y-12020006D02*
X10103432Y-12020008D01*
X17645036Y-11831114D02*
X17647005Y-11826672D01*
X17320815Y-2543999D02*
X17323415Y-2548104D01*
X10125238Y-2036561D02*
X10125207Y-2036599D01*
X10963501Y-2516685D02*
X10967474Y-2519483D01*
X11968358Y-2500120D02*
X11973204Y-2500477D01*
X14166712Y-11954352D02*
X14164964Y-11958885D01*
X19574793Y-2036599D02*
X19574762Y-2036561D01*
X17681499Y-12003315D02*
X17677526Y-12000517D01*
X19553061Y-12503108D02*
X19554023Y-12502430D01*
X19596519Y-12020006D02*
X19596297Y-12020000D01*
X10146939Y-12503108D02*
X10146980Y-12503135D01*
X10103727Y-2750000D02*
X10103703Y-2750000D01*
X17677526Y-2519483D02*
X17681499Y-2516685D01*
X14474402Y-2579686D02*
X14475467Y-2574945D01*
X11310467Y-11844945D02*
X11311763Y-11840262D01*
X19595759Y-2081705D02*
X19595755Y-2081681D01*
X10119392Y-12475560D02*
X10120070Y-12476523D01*
X12045815Y-2706001D02*
X12043017Y-2709974D01*
X15626512Y-11770000D02*
X17238488Y-11770000D01*
X19597252Y-2750352D02*
X19597219Y-2750316D01*
X14571512Y-12020000D02*
X14566642Y-12019880D01*
X15227500Y-11920988D02*
X15227380Y-11925858D01*
X19589373Y-2060644D02*
X19589363Y-2060622D01*
X19498726Y-2000060D02*
X19498701Y-2000059D01*
X15527977Y-11930704D02*
X15527619Y-11925858D01*
X10923026Y-12018928D02*
X10918204Y-12019523D01*
X18698287Y-11835648D02*
X18700036Y-11831114D01*
X15616796Y-2500477D02*
X15621642Y-2500120D01*
X18786642Y-2500120D02*
X18791512Y-2500000D01*
X19507323Y-2000514D02*
X19507274Y-2000509D01*
X17337500Y-11869012D02*
X17337500Y-11920988D01*
X17280828Y-11779505D02*
X17285168Y-11781690D01*
X15560016Y-11994354D02*
X15556497Y-11991003D01*
X15527500Y-2599012D02*
X15527619Y-2594142D01*
X10125207Y-2036599D02*
X10124483Y-2037527D01*
X15563695Y-11792472D02*
X15567526Y-11789483D01*
X10102500Y-2498797D02*
X10102506Y-2499019D01*
X12062380Y-2594142D02*
X12062500Y-2599012D01*
X14115828Y-2509505D02*
X14120168Y-2511690D01*
X14473572Y-2584474D02*
X14474402Y-2579686D01*
X15147814Y-12018097D02*
X15143026Y-12018928D01*
X18392380Y-11925858D02*
X18392023Y-11930704D01*
X19597184Y-11769719D02*
X19597219Y-11769684D01*
X10191484Y-2000662D02*
X10184205Y-2001741D01*
X19597388Y-11769444D02*
X19597409Y-11769400D01*
X19543530Y-2011283D02*
X19536878Y-2008137D01*
X19595280Y-2079300D02*
X19593492Y-2072162D01*
X17703148Y-2505787D02*
X17707762Y-2504263D01*
X17335597Y-11940314D02*
X17334533Y-11945055D01*
X12451796Y-12019523D02*
X12446974Y-12018928D01*
X12365467Y-11945055D02*
X12364402Y-11940314D01*
X18692500Y-11920988D02*
X18692500Y-11869012D01*
X17267238Y-2745737D02*
X17262555Y-2747033D01*
X18331386Y-12012464D02*
X18326852Y-12014212D01*
X18391428Y-11935526D02*
X18390597Y-11940314D01*
X19506100Y-2000423D02*
X19506076Y-2000421D01*
X11001713Y-11954352D02*
X10999964Y-11958885D01*
X18326852Y-2505787D02*
X18331386Y-2507536D01*
X15528572Y-11854474D02*
X15529402Y-11849686D01*
X11310467Y-2675055D02*
X11309402Y-2670314D01*
X19585677Y-12467104D02*
X19586206Y-12466052D01*
X10102500Y-2101227D02*
X10102500Y-2498773D01*
X11368614Y-2742464D02*
X11364172Y-2740495D01*
X19597030Y-11769839D02*
X19597070Y-11769812D01*
X17308503Y-11991003D02*
X17304984Y-11994354D01*
X19597500Y-2101227D02*
X19597500Y-2101203D01*
X14124396Y-11784085D02*
X14128501Y-11786685D01*
X12384972Y-2713805D02*
X12381983Y-2709974D01*
X14162995Y-2556672D02*
X14164964Y-2561114D01*
X15567526Y-2519483D02*
X15571499Y-2516685D01*
X11006428Y-11854474D02*
X11007023Y-11859296D01*
X10106514Y-12447862D02*
X10106828Y-12448996D01*
X10102748Y-2499648D02*
X10102781Y-2499684D01*
X11329972Y-11806195D02*
X11333146Y-11802516D01*
X11351499Y-11786685D02*
X11355604Y-11784085D01*
X14556974Y-2501072D02*
X14561796Y-2500477D01*
X10102890Y-11769783D02*
X10102930Y-11769812D01*
X12423614Y-11777536D02*
X12428148Y-11775787D01*
X14561796Y-2500477D02*
X14566642Y-2500120D01*
X19535779Y-12512350D02*
X19536855Y-12511873D01*
X19597312Y-2499570D02*
X19597339Y-2499530D01*
X17337500Y-11920988D02*
X17337380Y-11925858D01*
X18386713Y-2684352D02*
X18384964Y-2688886D01*
X11359832Y-2738310D02*
X11355604Y-2735915D01*
X11406512Y-2750000D02*
X11401642Y-2749880D01*
X14092814Y-2748097D02*
X14088026Y-2748928D01*
X17301305Y-11792472D02*
X17304984Y-11795646D01*
X10131828Y-12490706D02*
X10132681Y-12491518D01*
X14102238Y-11774263D02*
X14106852Y-11775787D01*
X11317005Y-11963328D02*
X11315036Y-11958885D01*
X12414832Y-2738310D02*
X12410604Y-2735915D01*
X12362977Y-2589296D02*
X12363572Y-2584474D01*
X17712445Y-11772967D02*
X17717186Y-11771902D01*
X10985028Y-11983805D02*
X10981854Y-11987484D01*
X18317555Y-2747033D02*
X18312814Y-2748097D01*
X17673695Y-2727528D02*
X17670016Y-2724354D01*
X10164221Y-12512350D02*
X10164266Y-12512369D01*
X11333146Y-2717484D02*
X11329972Y-2713805D01*
X19545671Y-2012426D02*
X19544647Y-2011846D01*
X11315036Y-2688886D02*
X11313287Y-2684352D01*
X18695467Y-11945055D02*
X18694403Y-11940314D01*
X12395016Y-11994354D02*
X12391497Y-11991003D01*
X11982814Y-2501903D02*
X11987555Y-2502967D01*
X10102970Y-2499839D02*
X10103013Y-2499865D01*
X18700036Y-11831114D02*
X18702005Y-11826672D01*
X15217995Y-2693328D02*
X15215810Y-2697668D01*
X15533287Y-11954352D02*
X15531763Y-11949738D01*
X19596900Y-2750091D02*
X19596854Y-2750072D01*
X10103432Y-2499992D02*
X10103481Y-2499994D01*
X10959396Y-2735915D02*
X10955168Y-2738310D01*
X19561830Y-2023507D02*
X19560939Y-2022738D01*
X14478287Y-2684352D02*
X14476763Y-2679738D01*
X17666497Y-2721003D02*
X17663146Y-2717484D01*
X11382445Y-2502967D02*
X11387186Y-2501903D01*
X10102500Y-12418773D02*
X10102500Y-12418797D01*
X15227023Y-11930704D02*
X15226428Y-11935526D01*
X15224533Y-2675055D02*
X15223237Y-2679738D01*
X15227380Y-11864142D02*
X15227500Y-11869012D01*
X14115828Y-11779505D02*
X14120168Y-11781690D01*
X19526496Y-2004328D02*
X19525362Y-2004014D01*
X14472619Y-2594142D02*
X14472977Y-2589296D01*
X19590293Y-12457136D02*
X19590301Y-12457113D01*
X14146854Y-2717484D02*
X14143503Y-2721003D01*
X10102688Y-2499570D02*
X10102717Y-2499610D01*
X19496273Y-12520000D02*
X19496297Y-12520000D01*
X18692977Y-11859296D02*
X18693572Y-11854474D01*
X10918204Y-11770477D02*
X10923026Y-11771072D01*
X15187474Y-2730517D02*
X15183501Y-2733315D01*
X12001385Y-2742464D02*
X11996852Y-2744213D01*
X14472977Y-11859296D02*
X14473572Y-11854474D01*
X11329972Y-2536195D02*
X11333146Y-2532516D01*
X17325810Y-2552332D02*
X17327995Y-2556672D01*
X10102530Y-2499214D02*
X10102542Y-2499261D01*
X17694172Y-2740495D02*
X17689832Y-2738310D01*
X19597077Y-12428600D02*
X19597079Y-12428576D01*
X18366854Y-11802516D02*
X18370028Y-11806195D01*
X10140027Y-2021983D02*
X10139099Y-2022707D01*
X18373017Y-11979974D02*
X18370028Y-11983805D01*
X19593486Y-12447862D02*
X19593492Y-12447838D01*
X18392380Y-11864142D02*
X18392500Y-11869012D01*
X17262555Y-2502967D02*
X17267238Y-2504263D01*
X18711983Y-11810026D02*
X18714972Y-11806195D01*
X12402526Y-2730517D02*
X12398695Y-2727528D01*
X10102530Y-2750786D02*
X10102520Y-2750834D01*
X17681499Y-2733315D02*
X17677526Y-2730517D01*
X19596297Y-12020000D02*
X19596273Y-12020000D01*
X19554023Y-2017570D02*
X19553061Y-2016892D01*
X10104245Y-12438319D02*
X10104447Y-12439479D01*
X19597312Y-11769570D02*
X19597339Y-11769529D01*
X19597070Y-11769812D02*
X19597110Y-11769783D01*
X10974984Y-2525646D02*
X10978503Y-2528997D01*
X17276386Y-2742464D02*
X17271852Y-2744213D01*
X12056712Y-2565648D02*
X12058237Y-2570262D01*
X10981854Y-11987484D02*
X10978503Y-11991003D01*
X14529172Y-2509505D02*
X14533614Y-2507536D01*
X18378415Y-2701896D02*
X18375815Y-2706001D01*
X19525362Y-12515986D02*
X19526496Y-12515672D01*
X17637977Y-11930704D02*
X17637620Y-11925858D01*
X10102500Y-2751203D02*
X10102500Y-2751227D01*
X12043017Y-2540026D02*
X12045815Y-2543999D01*
X14476763Y-11840262D02*
X14478287Y-11835648D01*
X14486585Y-2548104D02*
X14489185Y-2543999D01*
X14533614Y-2742464D02*
X14529172Y-2740495D01*
X17276386Y-12012464D02*
X17271852Y-12014212D01*
X18293488Y-12020000D02*
X17736512Y-12020000D01*
X19593158Y-12449043D02*
X19593172Y-12448996D01*
X18702005Y-2556672D02*
X18704190Y-2552332D01*
X18781796Y-11770477D02*
X18786642Y-11770119D01*
X11963488Y-11770000D02*
X11968358Y-11770119D01*
X17637620Y-11925858D02*
X17637500Y-11920988D01*
X10124483Y-2037527D02*
X10124468Y-2037546D01*
X17243358Y-12019880D02*
X17238488Y-12020000D01*
X19597444Y-11769308D02*
X19597458Y-11769261D01*
X19553020Y-2016865D02*
X19552025Y-2016235D01*
X12446974Y-2748928D02*
X12442186Y-2748097D01*
X14516499Y-11786685D02*
X14520604Y-11784085D01*
X18728695Y-2522472D02*
X18732526Y-2519483D01*
X14169533Y-2675055D02*
X14168237Y-2679738D01*
X19597480Y-11769165D02*
X19597487Y-11769117D01*
X17337500Y-2650988D02*
X17337380Y-2655858D01*
X19574793Y-12483401D02*
X19575517Y-12482473D01*
X10971305Y-11792472D02*
X10974984Y-11795646D01*
X11978026Y-12018928D02*
X11973204Y-12019523D01*
X10109699Y-2062887D02*
X10107219Y-2069816D01*
X10102970Y-12020160D02*
X10102930Y-12020188D01*
X12419172Y-2740495D02*
X12414832Y-2738310D01*
X19596987Y-12020135D02*
X19596944Y-12020112D01*
X11401642Y-11770119D02*
X11406512Y-11770000D01*
X18363503Y-2528997D02*
X18366854Y-2532516D01*
X14473572Y-11935526D02*
X14472977Y-11930704D01*
X18373017Y-2709974D02*
X18370028Y-2713805D01*
X10103013Y-12020135D02*
X10102970Y-12020160D01*
X12395016Y-2724354D02*
X12391497Y-2721003D01*
X11319190Y-11967668D02*
X11317005Y-11963328D01*
X10146980Y-12503135D02*
X10147975Y-12503765D01*
X10103703Y-12020000D02*
X10103481Y-12020006D01*
X10154329Y-2012426D02*
X10154308Y-2012439D01*
X15527500Y-2650988D02*
X15527500Y-2599012D01*
X10923026Y-2748928D02*
X10918204Y-2749523D01*
X11359832Y-2511690D02*
X11364172Y-2509505D01*
X15588614Y-12012464D02*
X15584172Y-12010495D01*
X15567526Y-11789483D02*
X15571499Y-11786685D01*
X17651585Y-11818104D02*
X17654185Y-11813999D01*
X10102890Y-2750217D02*
X10102852Y-2750248D01*
X14524832Y-12008310D02*
X14520604Y-12005915D01*
X11401642Y-12019880D02*
X11396796Y-12019523D01*
X10103009Y-12429774D02*
X10103014Y-12429823D01*
X10967474Y-2730517D02*
X10963501Y-2733315D01*
X18758148Y-12014212D02*
X18753614Y-12012464D01*
X12060597Y-2579686D02*
X12061428Y-2584474D01*
X19561849Y-2023523D02*
X19561830Y-2023507D01*
X10119365Y-12475520D02*
X10119392Y-12475560D01*
X18363503Y-11991003D02*
X18359984Y-11994354D01*
X11326983Y-11810026D02*
X11329972Y-11806195D01*
X18725016Y-2724354D02*
X18721497Y-2721003D01*
X12010168Y-11781690D02*
X12014396Y-11784085D01*
X11347526Y-11789483D02*
X11351499Y-11786685D01*
X17327995Y-2693328D02*
X17325810Y-2697668D01*
X11324185Y-2543999D02*
X11326983Y-2540026D01*
X15128488Y-11770000D02*
X15128488Y-11770000D01*
X10201274Y-12519940D02*
X10201299Y-12519941D01*
X18326852Y-2744213D02*
X18322238Y-2745737D01*
X14128501Y-12003315D02*
X14124396Y-12005915D01*
X11401642Y-2500120D02*
X11406512Y-2500000D01*
X19597110Y-11769783D02*
X19597148Y-11769752D01*
X12364402Y-2670314D02*
X12363572Y-2665526D01*
X18380810Y-11967668D02*
X18378415Y-11971896D01*
X12362500Y-11920988D02*
X12362500Y-11869012D01*
X11336497Y-11798997D02*
X11340016Y-11795646D01*
X18392500Y-11869012D02*
X18392500Y-11920988D01*
X11326983Y-2709974D02*
X11324185Y-2706001D01*
X10120084Y-12476543D02*
X10124468Y-12482453D01*
X10181824Y-12517786D02*
X10182973Y-12518044D01*
X10110637Y-12459378D02*
X10113783Y-12466030D01*
X17262555Y-2747033D02*
X17257814Y-2748097D01*
X15549972Y-11806195D02*
X15553146Y-11802516D01*
X12050810Y-2697668D02*
X12048415Y-2701896D01*
X17336428Y-2584474D02*
X17337023Y-2589296D01*
X12054964Y-2688886D02*
X12052995Y-2693328D01*
X15593148Y-2505787D02*
X15597762Y-2504263D01*
X14083204Y-12019523D02*
X14078358Y-12019880D01*
X15221712Y-11954352D02*
X15219964Y-11958885D01*
X15527977Y-2589296D02*
X15528572Y-2584474D01*
X14150028Y-11806195D02*
X14153017Y-11810026D01*
X18340168Y-2738310D02*
X18335828Y-2740495D01*
X14474402Y-2670314D02*
X14473572Y-2665526D01*
X19561849Y-12496477D02*
X19567301Y-12491535D01*
X17289396Y-12005915D02*
X17285168Y-12008310D01*
X12062500Y-11869012D02*
X12062500Y-11920988D01*
X11387186Y-2748097D02*
X11382445Y-2747033D01*
X10102500Y-2498773D02*
X10102500Y-2498797D01*
X12050810Y-2552332D02*
X12052995Y-2556672D01*
X19545692Y-12507561D02*
X19552004Y-12503778D01*
X19597500Y-11768773D02*
X19597500Y-2751227D01*
X17641763Y-11949738D02*
X17640467Y-11945055D01*
X12384972Y-11806195D02*
X12388146Y-11802516D01*
X18706585Y-2701896D02*
X18704190Y-2697668D01*
X15175168Y-2511690D02*
X15179396Y-2514085D01*
X19559973Y-2021983D02*
X19559954Y-2021968D01*
X19534636Y-12512793D02*
X19535734Y-12512369D01*
X10974984Y-2724354D02*
X10971305Y-2727528D01*
X10103158Y-2089009D02*
X10103014Y-2090177D01*
X19597480Y-2499166D02*
X19597487Y-2499117D01*
X10110150Y-2061721D02*
X10110131Y-2061766D01*
X17663146Y-11802516D02*
X17666497Y-11798997D01*
X18348501Y-2516685D02*
X18352474Y-2519483D01*
X10104447Y-12439479D02*
X10104456Y-12439527D01*
X10139061Y-2022738D02*
X10138170Y-2023507D01*
X10114346Y-2052853D02*
X10114323Y-2052896D01*
X11401642Y-2749880D02*
X11396796Y-2749523D01*
X12376585Y-11818104D02*
X12379185Y-11813999D01*
X12442186Y-12018097D02*
X12437445Y-12017033D01*
X17337023Y-2589296D02*
X17337380Y-2594142D01*
X17327995Y-11963328D02*
X17325810Y-11967668D01*
X11347526Y-2519483D02*
X11351499Y-2516685D01*
X14475467Y-2675055D02*
X14474402Y-2670314D01*
X10181801Y-12517780D02*
X10181824Y-12517786D01*
X18718146Y-2532516D02*
X18721497Y-2528997D01*
X11319190Y-2697668D02*
X11317005Y-2693328D01*
X10102500Y-11768773D02*
X10102500Y-11768797D01*
X17654185Y-11813999D02*
X17656983Y-11810026D01*
X10155396Y-12508177D02*
X10156448Y-12508706D01*
X18340168Y-12008310D02*
X18335828Y-12010495D01*
X18344396Y-11784085D02*
X18348501Y-11786685D01*
X10172316Y-2004719D02*
X10165387Y-2007198D01*
X18356305Y-2727528D02*
X18352474Y-2730517D01*
X14150028Y-2713805D02*
X14146854Y-2717484D01*
X14538148Y-11775787D02*
X14542762Y-11774263D01*
X17649190Y-11967668D02*
X17647005Y-11963328D01*
X10102508Y-2750932D02*
X10102506Y-2750981D01*
X14172500Y-2650988D02*
X14172380Y-2655858D01*
X10913358Y-12019880D02*
X10908488Y-12020000D01*
X19596991Y-2090226D02*
X19596986Y-2090177D01*
X12062500Y-2599012D02*
X12062500Y-2650988D01*
X17289396Y-2514085D02*
X17293501Y-2516685D01*
X14078358Y-2500120D02*
X14083204Y-2500477D01*
X10106508Y-12447838D02*
X10106514Y-12447862D01*
X18721497Y-11798997D02*
X18725016Y-11795646D01*
X17311854Y-2532516D02*
X17315028Y-2536195D01*
X15175168Y-12008310D02*
X15170828Y-12010495D01*
X15546983Y-2540026D02*
X15549972Y-2536195D01*
X11377762Y-11774263D02*
X11382445Y-11772967D01*
X10147975Y-12503765D02*
X10147996Y-12503778D01*
X15616796Y-11770477D02*
X15621642Y-11770119D01*
X12366763Y-11949738D02*
X12365467Y-11945055D01*
X12022474Y-2730517D02*
X12018501Y-2733315D01*
X19506076Y-12519579D02*
X19506100Y-12519577D01*
X12364402Y-11849686D02*
X12365467Y-11844945D01*
X18348501Y-12003315D02*
X18344396Y-12005915D01*
X17698614Y-2507536D02*
X17703148Y-2505787D01*
X14561796Y-2749523D02*
X14556974Y-2748928D01*
X17643287Y-2565648D02*
X17645036Y-2561114D01*
X10139061Y-12497262D02*
X10139099Y-12497293D01*
X10103334Y-2499980D02*
X10103383Y-2499987D01*
X10990815Y-11813999D02*
X10993415Y-11818104D01*
X18709185Y-2706001D02*
X18706585Y-2701896D01*
X15138204Y-12019523D02*
X15133358Y-12019880D01*
X19518199Y-2002220D02*
X19518176Y-2002214D01*
X14166712Y-11835648D02*
X14168237Y-11840262D01*
X14547445Y-2747033D02*
X14542762Y-2745737D01*
X12370036Y-2561114D02*
X12372005Y-2556672D01*
X19597312Y-12020430D02*
X19597283Y-12020390D01*
X19593172Y-12448996D02*
X19593486Y-12447862D01*
X14571512Y-2500000D02*
X15128488Y-2500000D01*
X17656983Y-2540026D02*
X17659972Y-2536195D01*
X11968358Y-2749880D02*
X11963488Y-2750000D01*
X19569035Y-12489801D02*
X19573977Y-12484349D01*
X18389533Y-11945055D02*
X18388237Y-11949738D01*
X17325810Y-11967668D02*
X17323415Y-11971896D01*
X10102542Y-12020739D02*
X10102530Y-12020786D01*
X12451796Y-11770477D02*
X12456642Y-11770119D01*
X12040028Y-11983805D02*
X12036854Y-11987484D01*
X19596519Y-11769994D02*
X19596568Y-11769992D01*
X19568172Y-2029293D02*
X19567319Y-2028482D01*
X14476763Y-11949738D02*
X14475467Y-11945055D01*
X14478287Y-11835648D02*
X14480036Y-11831114D01*
X18696763Y-2570262D02*
X18698287Y-2565648D01*
X15527500Y-11869012D02*
X15527619Y-11864142D01*
X12461512Y-11770000D02*
X14073488Y-11770000D01*
X17253026Y-2748928D02*
X17248204Y-2749523D01*
X19586206Y-2053948D02*
X19585677Y-2052896D01*
X10110150Y-12458279D02*
X10110627Y-12459355D01*
X15527977Y-11859296D02*
X15528572Y-11854474D01*
X18786642Y-11770119D02*
X18791512Y-11770000D01*
X18312814Y-12018097D02*
X18308026Y-12018928D01*
X12391497Y-11798997D02*
X12395016Y-11795646D01*
X14128501Y-11786685D02*
X14132474Y-11789483D01*
X17329964Y-11958885D02*
X17327995Y-11963328D01*
X18335828Y-2509505D02*
X18340168Y-2511690D01*
X17721974Y-2748928D02*
X17717186Y-2748097D01*
X14120168Y-2738310D02*
X14115828Y-2740495D01*
X10102635Y-12020512D02*
X10102612Y-12020556D01*
X18744832Y-12008310D02*
X18740604Y-12005915D01*
X11992238Y-12015737D02*
X11987555Y-12017033D01*
X17736512Y-11770000D02*
X18293488Y-11770000D01*
X17308503Y-2721003D02*
X17304984Y-2724354D01*
X19545671Y-12507573D02*
X19545692Y-12507561D01*
X15138204Y-2749523D02*
X15133358Y-2749880D01*
X10203703Y-12520000D02*
X10203727Y-12520000D01*
X12062023Y-11859296D02*
X12062380Y-11864142D01*
X14472977Y-11930704D02*
X14472619Y-11925858D01*
X19580635Y-2044480D02*
X19580608Y-2044439D01*
X10988017Y-2709974D02*
X10985028Y-2713805D01*
X18384964Y-2688886D02*
X18382995Y-2693328D01*
X18706585Y-2548104D02*
X18709185Y-2543999D01*
X19596944Y-2499888D02*
X19596987Y-2499865D01*
X10102748Y-12020352D02*
X10102717Y-12020390D01*
X12059533Y-11844945D02*
X12060597Y-11849686D01*
X15194984Y-2724354D02*
X15191305Y-2727528D01*
X17698614Y-11777536D02*
X17703148Y-11775787D01*
X17637977Y-11859296D02*
X17638572Y-11854474D01*
X11319190Y-2552332D02*
X11321585Y-2548104D01*
X10103192Y-12020056D02*
X10103146Y-12020072D01*
X19581265Y-12474525D02*
X19581278Y-12474504D01*
X11309402Y-11849686D02*
X11310467Y-11844945D01*
X10191509Y-2000658D02*
X10191484Y-2000662D01*
X11987555Y-2747033D02*
X11982814Y-2748097D01*
X14170597Y-11849686D02*
X14171428Y-11854474D01*
X11308572Y-2584474D02*
X11309402Y-2579686D01*
X10184181Y-2001745D02*
X10183021Y-2001946D01*
X15535036Y-2688886D02*
X15533287Y-2684352D01*
X17238488Y-11770000D02*
X17243358Y-11770119D01*
X12428148Y-11775787D02*
X12432762Y-11774263D01*
X19586217Y-12466030D02*
X19589363Y-12459378D01*
X12388146Y-11987484D02*
X12384972Y-11983805D01*
X18389533Y-2574945D02*
X18390597Y-2579686D01*
X14474402Y-11940314D02*
X14473572Y-11935526D01*
X18781796Y-12019523D02*
X18776974Y-12018928D01*
X11406512Y-12020000D02*
X11401642Y-12019880D01*
X19585074Y-2051829D02*
X19585061Y-2051808D01*
X12060597Y-11849686D02*
X12061428Y-11854474D01*
X10102530Y-12020786D02*
X10102520Y-12020834D01*
X18692620Y-2655858D02*
X18692500Y-2650988D01*
X19592781Y-12450184D02*
X19592789Y-12450161D01*
X18781796Y-2500477D02*
X18786642Y-2500120D01*
X12362500Y-11869012D02*
X12362619Y-11864142D01*
X14472619Y-11864142D02*
X14472977Y-11859296D01*
X14153017Y-11810026D02*
X14155815Y-11813999D01*
X17248204Y-2749523D02*
X17243358Y-2749880D01*
X10946386Y-2507536D02*
X10950828Y-2509505D01*
X11315036Y-11958885D02*
X11313287Y-11954352D01*
X14475467Y-11945055D02*
X14474402Y-11940314D01*
X10118722Y-12474504D02*
X10118735Y-12474525D01*
X14489185Y-11976001D02*
X14486585Y-11971896D01*
X10937238Y-2504263D02*
X10941852Y-2505787D01*
X11336497Y-2721003D02*
X11333146Y-2717484D01*
X10103013Y-11769865D02*
X10103056Y-11769888D01*
X14512526Y-12000517D02*
X14508695Y-11997528D01*
X15225597Y-2670314D02*
X15224533Y-2675055D01*
X18373017Y-2540026D02*
X18375815Y-2543999D01*
X12384972Y-11983805D02*
X12381983Y-11979974D01*
X11364172Y-2509505D02*
X11368614Y-2507536D01*
X11309402Y-2670314D02*
X11308572Y-2665526D01*
X10103432Y-2750008D02*
X10103383Y-2750013D01*
X11313287Y-11835648D02*
X11315036Y-11831114D01*
X12362977Y-11930704D02*
X12362619Y-11925858D01*
X19516979Y-12518053D02*
X19517027Y-12518044D01*
X10959396Y-11784085D02*
X10963501Y-11786685D01*
X10165364Y-12512793D02*
X10165387Y-12512801D01*
X17649190Y-2552332D02*
X17651585Y-2548104D01*
X14120168Y-2511690D02*
X14124396Y-2514085D01*
X11310467Y-2574945D02*
X11311763Y-2570262D01*
X17280828Y-12010495D02*
X17276386Y-12012464D01*
X12062500Y-11920988D02*
X12062380Y-11925858D01*
X10102748Y-11769648D02*
X10102781Y-11769684D01*
X12428148Y-12014212D02*
X12423614Y-12012464D01*
X17663146Y-2532516D02*
X17666497Y-2528997D01*
X14533614Y-11777536D02*
X14538148Y-11775787D01*
X18753614Y-11777536D02*
X18758148Y-11775787D01*
X10990815Y-2706001D02*
X10988017Y-2709974D01*
X18359984Y-2724354D02*
X18356305Y-2727528D01*
X17717186Y-2501903D02*
X17721974Y-2501072D01*
X14162995Y-2693328D02*
X14160810Y-2697668D01*
X18326852Y-12014212D02*
X18322238Y-12015737D01*
X19596944Y-2750112D02*
X19596900Y-2750091D01*
X18293488Y-2500000D02*
X18293488Y-2500000D01*
X17647005Y-11826672D02*
X17649190Y-11822332D01*
X12461512Y-12020000D02*
X12456642Y-12019880D01*
X18692500Y-2650988D02*
X18692500Y-2599012D01*
X15170828Y-11779505D02*
X15175168Y-11781690D01*
X14153017Y-2709974D02*
X14150028Y-2713805D01*
X17318017Y-11979974D02*
X17315028Y-11983805D01*
X11333146Y-11802516D02*
X11336497Y-11798997D01*
X18714972Y-11983805D02*
X18711983Y-11979974D01*
X17640467Y-2574945D02*
X17641763Y-2570262D01*
X19597283Y-11769610D02*
X19597312Y-11769570D01*
X14078358Y-12019880D02*
X14073488Y-12020000D01*
X10971305Y-2727528D02*
X10967474Y-2730517D01*
X12062380Y-11864142D02*
X12062500Y-11869012D01*
X10103146Y-12020072D02*
X10103100Y-12020091D01*
X10155353Y-12508154D02*
X10155396Y-12508177D01*
X10130965Y-12489801D02*
X10130982Y-12489819D01*
X19597500Y-12021227D02*
X19597500Y-12021203D01*
X15157238Y-2504263D02*
X15161852Y-2505787D01*
X10102513Y-2750883D02*
X10102508Y-2750932D01*
X17257814Y-12018097D02*
X17253026Y-12018928D01*
X18378415Y-11818104D02*
X18380810Y-11822332D01*
X19596842Y-12430991D02*
X19596986Y-12429823D01*
X10103013Y-2750135D02*
X10102970Y-2750161D01*
X15224533Y-11945055D02*
X15223237Y-11949738D01*
X19554043Y-12502416D02*
X19559954Y-12498032D01*
X18370028Y-2713805D02*
X18366854Y-2717484D01*
X14160810Y-2552332D02*
X14162995Y-2556672D01*
X19596854Y-11769927D02*
X19596900Y-11769909D01*
X19597219Y-2499684D02*
X19597252Y-2499648D01*
X14552186Y-2501903D02*
X14556974Y-2501072D01*
X19580635Y-12475520D02*
X19581265Y-12474525D01*
X12456642Y-2500120D02*
X12461512Y-2500000D01*
X15541585Y-2701896D02*
X15539190Y-2697668D01*
X11987555Y-2502967D02*
X11992238Y-2504263D01*
X17685604Y-11784085D02*
X17689832Y-11781690D01*
X12010168Y-12008310D02*
X12005828Y-12010495D01*
X19597365Y-11769487D02*
X19597388Y-11769444D01*
X10102506Y-2499019D02*
X10102506Y-2499019D01*
X18363503Y-2721003D02*
X18359984Y-2724354D01*
X19560901Y-12497293D02*
X19560939Y-12497262D01*
X15567526Y-12000517D02*
X15563695Y-11997528D01*
X18391428Y-11854474D02*
X18392023Y-11859296D01*
X10131793Y-2029328D02*
X10130982Y-2030181D01*
X17337380Y-2594142D02*
X17337500Y-2599012D01*
X10102930Y-2750188D02*
X10102890Y-2750217D01*
X17681499Y-11786685D02*
X17685604Y-11784085D01*
X15530467Y-2675055D02*
X15529402Y-2670314D01*
X14472977Y-2660704D02*
X14472619Y-2655858D01*
X10110637Y-2060622D02*
X10110627Y-2060644D01*
X12059533Y-11945055D02*
X12058237Y-11949738D01*
X12368287Y-11835648D02*
X12370036Y-11831114D01*
X10120070Y-12476523D02*
X10120084Y-12476543D01*
X17311854Y-2717484D02*
X17308503Y-2721003D01*
X15133358Y-12019880D02*
X15128488Y-12020000D01*
X14132474Y-2519483D02*
X14136305Y-2522472D01*
X18693572Y-11935526D02*
X18692977Y-11930704D01*
X17659972Y-2713805D02*
X17656983Y-2709974D01*
X11007500Y-11920988D02*
X11007380Y-11925858D01*
X17647005Y-2693328D02*
X17645036Y-2688886D01*
X19581278Y-2045496D02*
X19581265Y-2045475D01*
X18767445Y-2502967D02*
X18772186Y-2501903D01*
X19507323Y-12519486D02*
X19508491Y-12519342D01*
X10102852Y-2750248D02*
X10102816Y-2750281D01*
X12365467Y-11844945D02*
X12366763Y-11840262D01*
X10102816Y-11769719D02*
X10102852Y-11769752D01*
X10183021Y-2001946D02*
X10182973Y-2001956D01*
X12018501Y-2733315D02*
X12014396Y-2735915D01*
X18696763Y-11949738D02*
X18695467Y-11945055D01*
X12061428Y-11935526D02*
X12060597Y-11940314D01*
X11326983Y-2540026D02*
X11329972Y-2536195D01*
X14143503Y-11991003D02*
X14139984Y-11994354D01*
X18728695Y-2727528D02*
X18725016Y-2724354D01*
X19544647Y-2011846D02*
X19544604Y-2011823D01*
X14474402Y-11849686D02*
X14475467Y-11844945D01*
X10978503Y-11991003D02*
X10974984Y-11994354D01*
X14146854Y-2532516D02*
X14150028Y-2536195D01*
X18384964Y-11831114D02*
X18386713Y-11835648D01*
X17238488Y-2750000D02*
X15626512Y-2750000D01*
X11005597Y-2579686D02*
X11006428Y-2584474D01*
X14476763Y-2679738D02*
X14475467Y-2675055D01*
X11315036Y-11831114D02*
X11317005Y-11826672D01*
X11333146Y-11987484D02*
X11329972Y-11983805D01*
X14480036Y-11831114D02*
X14482005Y-11826672D01*
X14566642Y-11770119D02*
X14571512Y-11770000D01*
X18753614Y-2742464D02*
X18749172Y-2740495D01*
X11340016Y-2724354D02*
X11336497Y-2721003D01*
X17315028Y-11806195D02*
X17318017Y-11810026D01*
X10913358Y-11770119D02*
X10918204Y-11770477D01*
X19597219Y-12020316D02*
X19597184Y-12020281D01*
X18791512Y-2500000D02*
X19596273Y-2500000D01*
X15533287Y-2684352D02*
X15531763Y-2679738D01*
X10102852Y-12020248D02*
X10102816Y-12020281D01*
X14111385Y-12012464D02*
X14106852Y-12014212D01*
X10181801Y-2002220D02*
X10174662Y-2004008D01*
X17651585Y-11971896D02*
X17649190Y-11967668D01*
X15201854Y-11987484D02*
X15198503Y-11991003D01*
X14111385Y-2742464D02*
X14106852Y-2744213D01*
X10139099Y-12497293D02*
X10140027Y-12498017D01*
X10932555Y-12017033D02*
X10927814Y-12018097D01*
X10102542Y-2750739D02*
X10102530Y-2750786D01*
X12043017Y-11810026D02*
X12045815Y-11813999D01*
X10102612Y-2499444D02*
X10102635Y-2499487D01*
X11336497Y-2528997D02*
X11340016Y-2525646D01*
X10126023Y-2035651D02*
X10126007Y-2035670D01*
X12451796Y-2500477D02*
X12456642Y-2500120D01*
X14566642Y-12019880D02*
X14561796Y-12019523D01*
X11001713Y-2684352D02*
X10999964Y-2688886D01*
X19579916Y-12476543D02*
X19579930Y-12476523D01*
X18322238Y-11774263D02*
X18326852Y-11775787D01*
X10138170Y-12496493D02*
X10139061Y-12497262D01*
X10997995Y-2556672D02*
X10999964Y-2561114D01*
X10941852Y-12014212D02*
X10937238Y-12015737D01*
X17712445Y-12017033D02*
X17707762Y-12015737D01*
X19517027Y-12518044D02*
X19518176Y-12517786D01*
X10174662Y-12515992D02*
X10181801Y-12517780D01*
X17336428Y-2665526D02*
X17335597Y-2670314D01*
X14073488Y-12020000D02*
X12461512Y-12020000D01*
X18308026Y-11771072D02*
X18312814Y-11771902D01*
X11324185Y-11976001D02*
X11321585Y-11971896D01*
X17641763Y-11840262D02*
X17643287Y-11835648D01*
X17248204Y-12019523D02*
X17243358Y-12019880D01*
X17248204Y-2500477D02*
X17253026Y-2501072D01*
X10102572Y-2499354D02*
X10102591Y-2499400D01*
X10156470Y-2011283D02*
X10156448Y-2011294D01*
X10937238Y-12015737D02*
X10932555Y-12017033D01*
X11351499Y-2516685D02*
X11355604Y-2514085D01*
X18352474Y-2730517D02*
X18348501Y-2733315D01*
X14480036Y-2688886D02*
X14478287Y-2684352D01*
X19589363Y-12459378D02*
X19589373Y-12459355D01*
X17337380Y-11925858D02*
X17337023Y-11930704D01*
X19554023Y-12502430D02*
X19554043Y-12502416D01*
X10130982Y-2030181D02*
X10130965Y-2030199D01*
X17315028Y-11983805D02*
X17311854Y-11987484D01*
X19589363Y-2060622D02*
X19586217Y-2053970D01*
X11315036Y-2561114D02*
X11317005Y-2556672D01*
X10103383Y-11769987D02*
X10103432Y-11769992D01*
X11311763Y-11949738D02*
X11310467Y-11945055D01*
X14524832Y-2511690D02*
X14529172Y-2509505D01*
X18736499Y-12003315D02*
X18732526Y-12000517D01*
X17271852Y-12014212D02*
X17267238Y-12015737D01*
X12048415Y-11971896D02*
X12045815Y-11976001D01*
X18736499Y-2516685D02*
X18740604Y-2514085D01*
X10102661Y-11769529D02*
X10102688Y-11769570D01*
X10103727Y-11770000D02*
X10908488Y-11770000D01*
X10997995Y-2693328D02*
X10995810Y-2697668D01*
X18702005Y-11826672D02*
X18704190Y-11822332D01*
X10103146Y-2750072D02*
X10103100Y-2750091D01*
X11308572Y-11935526D02*
X11307977Y-11930704D01*
X15607186Y-12018097D02*
X15602445Y-12017033D01*
X14482005Y-2693328D02*
X14480036Y-2688886D01*
X12410604Y-2514085D02*
X12414832Y-2511690D01*
X18776974Y-12018928D02*
X18772186Y-12018097D01*
X14143503Y-11798997D02*
X14146854Y-11802516D01*
X10173457Y-2004342D02*
X10172339Y-2004711D01*
X19597148Y-11769752D02*
X19597184Y-11769719D01*
X12370036Y-2688886D02*
X12368287Y-2684352D01*
X17654185Y-11976001D02*
X17651585Y-11971896D01*
X15227500Y-11869012D02*
X15227500Y-11920988D01*
X12414832Y-12008310D02*
X12410604Y-12005915D01*
X15128488Y-2500000D02*
X15128488Y-2500000D01*
X12384972Y-2536195D02*
X12388146Y-2532516D01*
X11317005Y-2556672D02*
X11319190Y-2552332D01*
X19597428Y-11769354D02*
X19597444Y-11769308D01*
X19554043Y-2017584D02*
X19554023Y-2017570D01*
X15626512Y-2500000D02*
X17238488Y-2500000D01*
X10192726Y-2000509D02*
X10192677Y-2000514D01*
X15541585Y-2548104D02*
X15544185Y-2543999D01*
X19590301Y-12457113D02*
X19592781Y-12450184D01*
X12406499Y-12003315D02*
X12402526Y-12000517D01*
X15584172Y-12010495D02*
X15579832Y-12008310D01*
X18695467Y-2574945D02*
X18696763Y-2570262D01*
X12362500Y-2599012D02*
X12362619Y-2594142D01*
X19597339Y-2750470D02*
X19597312Y-2750430D01*
X14132474Y-12000517D02*
X14128501Y-12003315D01*
X18767445Y-12017033D02*
X18762762Y-12015737D01*
X19596986Y-2090177D02*
X19596842Y-2089009D01*
X11973204Y-12019523D02*
X11968358Y-12019880D01*
X12372005Y-2556672D02*
X12374190Y-2552332D01*
X17285168Y-2511690D02*
X17289396Y-2514085D01*
X12442186Y-2748097D02*
X12437445Y-2747033D01*
X14158415Y-2701896D02*
X14155815Y-2706001D01*
X15143026Y-11771072D02*
X15147814Y-11771902D01*
X19596714Y-2750030D02*
X19596666Y-2750020D01*
X11004533Y-2675055D02*
X11003237Y-2679738D01*
X15143026Y-2748928D02*
X15138204Y-2749523D01*
X14529172Y-2740495D02*
X14524832Y-2738310D01*
X10109707Y-2062864D02*
X10109699Y-2062887D01*
X15227500Y-2599012D02*
X15227500Y-2650988D01*
X11309402Y-2579686D02*
X11310467Y-2574945D01*
X19597487Y-2750883D02*
X19597480Y-2750834D01*
X15166385Y-11777536D02*
X15170828Y-11779505D01*
X19597365Y-2499487D02*
X19597388Y-2499444D01*
X17337023Y-11930704D02*
X17336428Y-11935526D01*
X10102508Y-12020932D02*
X10102506Y-12020981D01*
X19543552Y-12508706D02*
X19544604Y-12508177D01*
X17280828Y-2740495D02*
X17276386Y-2742464D01*
X19597428Y-2750646D02*
X19597409Y-2750600D01*
X18732526Y-11789483D02*
X18736499Y-11786685D01*
X18322238Y-2504263D02*
X18326852Y-2505787D01*
X19596854Y-2499928D02*
X19596900Y-2499909D01*
X10146980Y-2016865D02*
X10146939Y-2016892D01*
X10184205Y-12518259D02*
X10191484Y-12519338D01*
X12414832Y-11781690D02*
X12419172Y-11779505D01*
X17285168Y-2738310D02*
X17280828Y-2740495D01*
X19597283Y-2750390D02*
X19597252Y-2750352D01*
X19596991Y-12429774D02*
X19597077Y-12428600D01*
X14552186Y-11771902D02*
X14556974Y-11771072D01*
X19595755Y-12438319D02*
X19595759Y-12438295D01*
X10102852Y-2499752D02*
X10102890Y-2499783D01*
X10102781Y-12020316D02*
X10102748Y-12020352D01*
X14106852Y-12014212D02*
X14102238Y-12015737D01*
X10102816Y-12020281D02*
X10102781Y-12020316D01*
X17276386Y-2507536D02*
X17280828Y-2509505D01*
X10941852Y-2744213D02*
X10937238Y-2745737D01*
X18693572Y-2584474D02*
X18694403Y-2579686D01*
X19545692Y-2012439D02*
X19545671Y-2012426D01*
X19595759Y-12438295D02*
X19596838Y-12431016D01*
X17731642Y-11770119D02*
X17736512Y-11770000D01*
X14473572Y-11854474D02*
X14474402Y-11849686D01*
X12014396Y-2735915D02*
X12010168Y-2738310D01*
X18335828Y-12010495D02*
X18331386Y-12012464D01*
X10988017Y-2540026D02*
X10990815Y-2543999D01*
X14538148Y-2744213D02*
X14533614Y-2742464D01*
X18791512Y-12020000D02*
X18786642Y-12019880D01*
X19596900Y-11769909D02*
X19596944Y-11769888D01*
X17707762Y-2745737D02*
X17703148Y-2744213D01*
X12423614Y-12012464D02*
X12419172Y-12010495D01*
X11307500Y-2650988D02*
X11307500Y-2599012D01*
X14512526Y-11789483D02*
X14516499Y-11786685D01*
X12058237Y-2570262D02*
X12059533Y-2574945D01*
X18694403Y-11940314D02*
X18693572Y-11935526D01*
X10172316Y-12515280D02*
X10172339Y-12515288D01*
X14166712Y-2565648D02*
X14168237Y-2570262D01*
X17304984Y-2525646D02*
X17308503Y-2528997D01*
X19585654Y-2052853D02*
X19585074Y-2051829D01*
X15530467Y-2574945D02*
X15531763Y-2570262D01*
X15223237Y-2679738D02*
X15221712Y-2684352D01*
X12062023Y-2660704D02*
X12061428Y-2665526D01*
X19596666Y-12020020D02*
X19596617Y-12020013D01*
X14501497Y-2528997D02*
X14505016Y-2525646D01*
X18356305Y-11792472D02*
X18359984Y-11795646D01*
X11368614Y-12012464D02*
X11364172Y-12010495D01*
X10103056Y-11769888D02*
X10103100Y-11769909D01*
X15616796Y-2749523D02*
X15611974Y-2748928D01*
X11307977Y-11859296D02*
X11308572Y-11854474D01*
X11340016Y-11994354D02*
X11336497Y-11991003D01*
X10932555Y-2502967D02*
X10937238Y-2504263D01*
X11355604Y-2735915D02*
X11351499Y-2733315D01*
X18392023Y-2660704D02*
X18391428Y-2665526D01*
X12362500Y-11869012D02*
X12362500Y-11869012D01*
X14172023Y-2660704D02*
X14171428Y-2665526D01*
X19597470Y-12020786D02*
X19597458Y-12020739D01*
X14498146Y-2532516D02*
X14501497Y-2528997D01*
X19544604Y-2011823D02*
X19543552Y-2011294D01*
X10103432Y-12020008D02*
X10103383Y-12020013D01*
X10990815Y-11976001D02*
X10988017Y-11979974D01*
X19536855Y-12511873D02*
X19536878Y-12511863D01*
X10102591Y-2750600D02*
X10102572Y-2750646D01*
X19596842Y-2089009D02*
X19596838Y-2088984D01*
X18702005Y-11963328D02*
X18700036Y-11958885D01*
X17333237Y-11840262D02*
X17334533Y-11844945D01*
X15147814Y-2748097D02*
X15143026Y-2748928D01*
X18293488Y-2750000D02*
X17736512Y-2750000D01*
X18322238Y-2745737D02*
X18317555Y-2747033D01*
X14561796Y-12019523D02*
X14556974Y-12018928D01*
X18293488Y-11770000D02*
X18293488Y-11770000D01*
X10995810Y-11967668D02*
X10993415Y-11971896D01*
X14508695Y-11997528D02*
X14505016Y-11994354D01*
X11343695Y-11997528D02*
X11340016Y-11994354D01*
X15611974Y-12018928D02*
X15607186Y-12018097D01*
X15175168Y-2738310D02*
X15170828Y-2740495D01*
X12052995Y-11963328D02*
X12050810Y-11967668D01*
X14561796Y-11770477D02*
X14566642Y-11770119D01*
X12362500Y-2599012D02*
X12362500Y-2599012D01*
X10923026Y-11771072D02*
X10927814Y-11771902D01*
X14124396Y-2514085D02*
X14128501Y-2516685D01*
X10993415Y-11818104D02*
X10995810Y-11822332D01*
X11996852Y-12014212D02*
X11992238Y-12015737D01*
X10102559Y-2098799D02*
X10102500Y-2101203D01*
X17323415Y-2701896D02*
X17320815Y-2706001D01*
X18303204Y-11770477D02*
X18308026Y-11771072D01*
X19596666Y-2750020D02*
X19596617Y-2750013D01*
X10102635Y-2750513D02*
X10102612Y-2750556D01*
X14482005Y-2556672D02*
X14484190Y-2552332D01*
X12461512Y-2750000D02*
X12456642Y-2749880D01*
X15179396Y-12005915D02*
X15175168Y-12008310D01*
X17253026Y-2501072D02*
X17257814Y-2501903D01*
X10120070Y-2043477D02*
X10119392Y-2044439D01*
X10955168Y-12008310D02*
X10950828Y-12010495D01*
X18380810Y-11822332D02*
X18382995Y-11826672D01*
X10174638Y-2004014D02*
X10173504Y-2004328D01*
X19597409Y-11769400D02*
X19597428Y-11769354D01*
D11*
D12*
X10227000Y-12124500D02*
X10478000Y-12375500D01*
X10478000Y-12124500D02*
X10227000Y-12375500D01*
X18227000Y-12124500D02*
X18478000Y-12375500D01*
X18478000Y-12124500D02*
X18227000Y-12375500D01*
D11*
X10358277Y-12836484D02*
X10358277Y-12636484D01*
X10358277Y-12636484D02*
X10405896Y-12636484D01*
X10405896Y-12636484D02*
X10434467Y-12646008D01*
X10434467Y-12646008D02*
X10453515Y-12665055D01*
X10453515Y-12665055D02*
X10463039Y-12684103D01*
X10463039Y-12684103D02*
X10472563Y-12722198D01*
X10472563Y-12722198D02*
X10472563Y-12750769D01*
X10472563Y-12750769D02*
X10463039Y-12788865D01*
X10463039Y-12788865D02*
X10453515Y-12807912D01*
X10453515Y-12807912D02*
X10434467Y-12826960D01*
X10434467Y-12826960D02*
X10405896Y-12836484D01*
X10405896Y-12836484D02*
X10358277Y-12836484D01*
X10558277Y-12836484D02*
X10558277Y-12703150D01*
X10558277Y-12741246D02*
X10567801Y-12722198D01*
X10567801Y-12722198D02*
X10577324Y-12712674D01*
X10577324Y-12712674D02*
X10596372Y-12703150D01*
X10596372Y-12703150D02*
X10615420Y-12703150D01*
X10682086Y-12836484D02*
X10682086Y-12703150D01*
X10682086Y-12636484D02*
X10672563Y-12646008D01*
X10672563Y-12646008D02*
X10682086Y-12655531D01*
X10682086Y-12655531D02*
X10691610Y-12646008D01*
X10691610Y-12646008D02*
X10682086Y-12636484D01*
X10682086Y-12636484D02*
X10682086Y-12655531D01*
X10805896Y-12836484D02*
X10786848Y-12826960D01*
X10786848Y-12826960D02*
X10777324Y-12807912D01*
X10777324Y-12807912D02*
X10777324Y-12636484D01*
X10910658Y-12836484D02*
X10891610Y-12826960D01*
X10891610Y-12826960D02*
X10882086Y-12807912D01*
X10882086Y-12807912D02*
X10882086Y-12636484D01*
X11139229Y-12836484D02*
X11139229Y-12636484D01*
X11139229Y-12636484D02*
X11205896Y-12779341D01*
X11205896Y-12779341D02*
X11272562Y-12636484D01*
X11272562Y-12636484D02*
X11272562Y-12836484D01*
X11453515Y-12836484D02*
X11453515Y-12731722D01*
X11453515Y-12731722D02*
X11443991Y-12712674D01*
X11443991Y-12712674D02*
X11424943Y-12703150D01*
X11424943Y-12703150D02*
X11386848Y-12703150D01*
X11386848Y-12703150D02*
X11367801Y-12712674D01*
X11453515Y-12826960D02*
X11434467Y-12836484D01*
X11434467Y-12836484D02*
X11386848Y-12836484D01*
X11386848Y-12836484D02*
X11367801Y-12826960D01*
X11367801Y-12826960D02*
X11358277Y-12807912D01*
X11358277Y-12807912D02*
X11358277Y-12788865D01*
X11358277Y-12788865D02*
X11367801Y-12769817D01*
X11367801Y-12769817D02*
X11386848Y-12760293D01*
X11386848Y-12760293D02*
X11434467Y-12760293D01*
X11434467Y-12760293D02*
X11453515Y-12750769D01*
X11548753Y-12703150D02*
X11548753Y-12903150D01*
X11548753Y-12712674D02*
X11567801Y-12703150D01*
X11567801Y-12703150D02*
X11605896Y-12703150D01*
X11605896Y-12703150D02*
X11624943Y-12712674D01*
X11624943Y-12712674D02*
X11634467Y-12722198D01*
X11634467Y-12722198D02*
X11643991Y-12741246D01*
X11643991Y-12741246D02*
X11643991Y-12798388D01*
X11643991Y-12798388D02*
X11634467Y-12817436D01*
X11634467Y-12817436D02*
X11624943Y-12826960D01*
X11624943Y-12826960D02*
X11605896Y-12836484D01*
X11605896Y-12836484D02*
X11567801Y-12836484D01*
X11567801Y-12836484D02*
X11548753Y-12826960D01*
X11729705Y-12817436D02*
X11739229Y-12826960D01*
X11739229Y-12826960D02*
X11729705Y-12836484D01*
X11729705Y-12836484D02*
X11720182Y-12826960D01*
X11720182Y-12826960D02*
X11729705Y-12817436D01*
X11729705Y-12817436D02*
X11729705Y-12836484D01*
X11729705Y-12712674D02*
X11739229Y-12722198D01*
X11739229Y-12722198D02*
X11729705Y-12731722D01*
X11729705Y-12731722D02*
X11720182Y-12722198D01*
X11720182Y-12722198D02*
X11729705Y-12712674D01*
X11729705Y-12712674D02*
X11729705Y-12731722D01*
X9897500Y-13065000D02*
X10097500Y-13265000D01*
X10097500Y-13065000D02*
X9897500Y-13265000D01*
X10348753Y-13075531D02*
X10358277Y-13066008D01*
X10358277Y-13066008D02*
X10377324Y-13056484D01*
X10377324Y-13056484D02*
X10424944Y-13056484D01*
X10424944Y-13056484D02*
X10443991Y-13066008D01*
X10443991Y-13066008D02*
X10453515Y-13075531D01*
X10453515Y-13075531D02*
X10463039Y-13094579D01*
X10463039Y-13094579D02*
X10463039Y-13113627D01*
X10463039Y-13113627D02*
X10453515Y-13142198D01*
X10453515Y-13142198D02*
X10339229Y-13256484D01*
X10339229Y-13256484D02*
X10463039Y-13256484D01*
X10548753Y-13237436D02*
X10558277Y-13246960D01*
X10558277Y-13246960D02*
X10548753Y-13256484D01*
X10548753Y-13256484D02*
X10539229Y-13246960D01*
X10539229Y-13246960D02*
X10548753Y-13237436D01*
X10548753Y-13237436D02*
X10548753Y-13256484D01*
X10739229Y-13056484D02*
X10643991Y-13056484D01*
X10643991Y-13056484D02*
X10634467Y-13151722D01*
X10634467Y-13151722D02*
X10643991Y-13142198D01*
X10643991Y-13142198D02*
X10663039Y-13132674D01*
X10663039Y-13132674D02*
X10710658Y-13132674D01*
X10710658Y-13132674D02*
X10729705Y-13142198D01*
X10729705Y-13142198D02*
X10739229Y-13151722D01*
X10739229Y-13151722D02*
X10748753Y-13170769D01*
X10748753Y-13170769D02*
X10748753Y-13218388D01*
X10748753Y-13218388D02*
X10739229Y-13237436D01*
X10739229Y-13237436D02*
X10729705Y-13246960D01*
X10729705Y-13246960D02*
X10710658Y-13256484D01*
X10710658Y-13256484D02*
X10663039Y-13256484D01*
X10663039Y-13256484D02*
X10643991Y-13246960D01*
X10643991Y-13246960D02*
X10634467Y-13237436D01*
X10939229Y-13256484D02*
X10824944Y-13256484D01*
X10882086Y-13256484D02*
X10882086Y-13056484D01*
X10882086Y-13056484D02*
X10863039Y-13085055D01*
X10863039Y-13085055D02*
X10843991Y-13104103D01*
X10843991Y-13104103D02*
X10824944Y-13113627D01*
X11063039Y-13056484D02*
X11082086Y-13056484D01*
X11082086Y-13056484D02*
X11101134Y-13066008D01*
X11101134Y-13066008D02*
X11110658Y-13075531D01*
X11110658Y-13075531D02*
X11120182Y-13094579D01*
X11120182Y-13094579D02*
X11129705Y-13132674D01*
X11129705Y-13132674D02*
X11129705Y-13180293D01*
X11129705Y-13180293D02*
X11120182Y-13218388D01*
X11120182Y-13218388D02*
X11110658Y-13237436D01*
X11110658Y-13237436D02*
X11101134Y-13246960D01*
X11101134Y-13246960D02*
X11082086Y-13256484D01*
X11082086Y-13256484D02*
X11063039Y-13256484D01*
X11063039Y-13256484D02*
X11043991Y-13246960D01*
X11043991Y-13246960D02*
X11034467Y-13237436D01*
X11034467Y-13237436D02*
X11024944Y-13218388D01*
X11024944Y-13218388D02*
X11015420Y-13180293D01*
X11015420Y-13180293D02*
X11015420Y-13132674D01*
X11015420Y-13132674D02*
X11024944Y-13094579D01*
X11024944Y-13094579D02*
X11034467Y-13075531D01*
X11034467Y-13075531D02*
X11043991Y-13066008D01*
X11043991Y-13066008D02*
X11063039Y-13056484D01*
X11215420Y-13256484D02*
X11215420Y-13123150D01*
X11215420Y-13142198D02*
X11224943Y-13132674D01*
X11224943Y-13132674D02*
X11243991Y-13123150D01*
X11243991Y-13123150D02*
X11272563Y-13123150D01*
X11272563Y-13123150D02*
X11291610Y-13132674D01*
X11291610Y-13132674D02*
X11301134Y-13151722D01*
X11301134Y-13151722D02*
X11301134Y-13256484D01*
X11301134Y-13151722D02*
X11310658Y-13132674D01*
X11310658Y-13132674D02*
X11329705Y-13123150D01*
X11329705Y-13123150D02*
X11358277Y-13123150D01*
X11358277Y-13123150D02*
X11377324Y-13132674D01*
X11377324Y-13132674D02*
X11386848Y-13151722D01*
X11386848Y-13151722D02*
X11386848Y-13256484D01*
X11482086Y-13256484D02*
X11482086Y-13123150D01*
X11482086Y-13142198D02*
X11491610Y-13132674D01*
X11491610Y-13132674D02*
X11510658Y-13123150D01*
X11510658Y-13123150D02*
X11539229Y-13123150D01*
X11539229Y-13123150D02*
X11558277Y-13132674D01*
X11558277Y-13132674D02*
X11567801Y-13151722D01*
X11567801Y-13151722D02*
X11567801Y-13256484D01*
X11567801Y-13151722D02*
X11577324Y-13132674D01*
X11577324Y-13132674D02*
X11596372Y-13123150D01*
X11596372Y-13123150D02*
X11624943Y-13123150D01*
X11624943Y-13123150D02*
X11643991Y-13132674D01*
X11643991Y-13132674D02*
X11653515Y-13151722D01*
X11653515Y-13151722D02*
X11653515Y-13256484D01*
X12043991Y-13046960D02*
X11872563Y-13304103D01*
X12301134Y-13056484D02*
X12320182Y-13056484D01*
X12320182Y-13056484D02*
X12339229Y-13066008D01*
X12339229Y-13066008D02*
X12348753Y-13075531D01*
X12348753Y-13075531D02*
X12358277Y-13094579D01*
X12358277Y-13094579D02*
X12367801Y-13132674D01*
X12367801Y-13132674D02*
X12367801Y-13180293D01*
X12367801Y-13180293D02*
X12358277Y-13218388D01*
X12358277Y-13218388D02*
X12348753Y-13237436D01*
X12348753Y-13237436D02*
X12339229Y-13246960D01*
X12339229Y-13246960D02*
X12320182Y-13256484D01*
X12320182Y-13256484D02*
X12301134Y-13256484D01*
X12301134Y-13256484D02*
X12282086Y-13246960D01*
X12282086Y-13246960D02*
X12272563Y-13237436D01*
X12272563Y-13237436D02*
X12263039Y-13218388D01*
X12263039Y-13218388D02*
X12253515Y-13180293D01*
X12253515Y-13180293D02*
X12253515Y-13132674D01*
X12253515Y-13132674D02*
X12263039Y-13094579D01*
X12263039Y-13094579D02*
X12272563Y-13075531D01*
X12272563Y-13075531D02*
X12282086Y-13066008D01*
X12282086Y-13066008D02*
X12301134Y-13056484D01*
X12453515Y-13237436D02*
X12463039Y-13246960D01*
X12463039Y-13246960D02*
X12453515Y-13256484D01*
X12453515Y-13256484D02*
X12443991Y-13246960D01*
X12443991Y-13246960D02*
X12453515Y-13237436D01*
X12453515Y-13237436D02*
X12453515Y-13256484D01*
X12586848Y-13056484D02*
X12605896Y-13056484D01*
X12605896Y-13056484D02*
X12624944Y-13066008D01*
X12624944Y-13066008D02*
X12634467Y-13075531D01*
X12634467Y-13075531D02*
X12643991Y-13094579D01*
X12643991Y-13094579D02*
X12653515Y-13132674D01*
X12653515Y-13132674D02*
X12653515Y-13180293D01*
X12653515Y-13180293D02*
X12643991Y-13218388D01*
X12643991Y-13218388D02*
X12634467Y-13237436D01*
X12634467Y-13237436D02*
X12624944Y-13246960D01*
X12624944Y-13246960D02*
X12605896Y-13256484D01*
X12605896Y-13256484D02*
X12586848Y-13256484D01*
X12586848Y-13256484D02*
X12567801Y-13246960D01*
X12567801Y-13246960D02*
X12558277Y-13237436D01*
X12558277Y-13237436D02*
X12548753Y-13218388D01*
X12548753Y-13218388D02*
X12539229Y-13180293D01*
X12539229Y-13180293D02*
X12539229Y-13132674D01*
X12539229Y-13132674D02*
X12548753Y-13094579D01*
X12548753Y-13094579D02*
X12558277Y-13075531D01*
X12558277Y-13075531D02*
X12567801Y-13066008D01*
X12567801Y-13066008D02*
X12586848Y-13056484D01*
X12748753Y-13256484D02*
X12786848Y-13256484D01*
X12786848Y-13256484D02*
X12805896Y-13246960D01*
X12805896Y-13246960D02*
X12815420Y-13237436D01*
X12815420Y-13237436D02*
X12834467Y-13208865D01*
X12834467Y-13208865D02*
X12843991Y-13170769D01*
X12843991Y-13170769D02*
X12843991Y-13094579D01*
X12843991Y-13094579D02*
X12834467Y-13075531D01*
X12834467Y-13075531D02*
X12824944Y-13066008D01*
X12824944Y-13066008D02*
X12805896Y-13056484D01*
X12805896Y-13056484D02*
X12767801Y-13056484D01*
X12767801Y-13056484D02*
X12748753Y-13066008D01*
X12748753Y-13066008D02*
X12739229Y-13075531D01*
X12739229Y-13075531D02*
X12729706Y-13094579D01*
X12729706Y-13094579D02*
X12729706Y-13142198D01*
X12729706Y-13142198D02*
X12739229Y-13161246D01*
X12739229Y-13161246D02*
X12748753Y-13170769D01*
X12748753Y-13170769D02*
X12767801Y-13180293D01*
X12767801Y-13180293D02*
X12805896Y-13180293D01*
X12805896Y-13180293D02*
X12824944Y-13170769D01*
X12824944Y-13170769D02*
X12834467Y-13161246D01*
X12834467Y-13161246D02*
X12843991Y-13142198D01*
X12958277Y-13142198D02*
X12939229Y-13132674D01*
X12939229Y-13132674D02*
X12929706Y-13123150D01*
X12929706Y-13123150D02*
X12920182Y-13104103D01*
X12920182Y-13104103D02*
X12920182Y-13094579D01*
X12920182Y-13094579D02*
X12929706Y-13075531D01*
X12929706Y-13075531D02*
X12939229Y-13066008D01*
X12939229Y-13066008D02*
X12958277Y-13056484D01*
X12958277Y-13056484D02*
X12996372Y-13056484D01*
X12996372Y-13056484D02*
X13015420Y-13066008D01*
X13015420Y-13066008D02*
X13024944Y-13075531D01*
X13024944Y-13075531D02*
X13034467Y-13094579D01*
X13034467Y-13094579D02*
X13034467Y-13104103D01*
X13034467Y-13104103D02*
X13024944Y-13123150D01*
X13024944Y-13123150D02*
X13015420Y-13132674D01*
X13015420Y-13132674D02*
X12996372Y-13142198D01*
X12996372Y-13142198D02*
X12958277Y-13142198D01*
X12958277Y-13142198D02*
X12939229Y-13151722D01*
X12939229Y-13151722D02*
X12929706Y-13161246D01*
X12929706Y-13161246D02*
X12920182Y-13180293D01*
X12920182Y-13180293D02*
X12920182Y-13218388D01*
X12920182Y-13218388D02*
X12929706Y-13237436D01*
X12929706Y-13237436D02*
X12939229Y-13246960D01*
X12939229Y-13246960D02*
X12958277Y-13256484D01*
X12958277Y-13256484D02*
X12996372Y-13256484D01*
X12996372Y-13256484D02*
X13015420Y-13246960D01*
X13015420Y-13246960D02*
X13024944Y-13237436D01*
X13024944Y-13237436D02*
X13034467Y-13218388D01*
X13034467Y-13218388D02*
X13034467Y-13180293D01*
X13034467Y-13180293D02*
X13024944Y-13161246D01*
X13024944Y-13161246D02*
X13015420Y-13151722D01*
X13015420Y-13151722D02*
X12996372Y-13142198D01*
X13148753Y-13142198D02*
X13129706Y-13132674D01*
X13129706Y-13132674D02*
X13120182Y-13123150D01*
X13120182Y-13123150D02*
X13110658Y-13104103D01*
X13110658Y-13104103D02*
X13110658Y-13094579D01*
X13110658Y-13094579D02*
X13120182Y-13075531D01*
X13120182Y-13075531D02*
X13129706Y-13066008D01*
X13129706Y-13066008D02*
X13148753Y-13056484D01*
X13148753Y-13056484D02*
X13186848Y-13056484D01*
X13186848Y-13056484D02*
X13205896Y-13066008D01*
X13205896Y-13066008D02*
X13215420Y-13075531D01*
X13215420Y-13075531D02*
X13224944Y-13094579D01*
X13224944Y-13094579D02*
X13224944Y-13104103D01*
X13224944Y-13104103D02*
X13215420Y-13123150D01*
X13215420Y-13123150D02*
X13205896Y-13132674D01*
X13205896Y-13132674D02*
X13186848Y-13142198D01*
X13186848Y-13142198D02*
X13148753Y-13142198D01*
X13148753Y-13142198D02*
X13129706Y-13151722D01*
X13129706Y-13151722D02*
X13120182Y-13161246D01*
X13120182Y-13161246D02*
X13110658Y-13180293D01*
X13110658Y-13180293D02*
X13110658Y-13218388D01*
X13110658Y-13218388D02*
X13120182Y-13237436D01*
X13120182Y-13237436D02*
X13129706Y-13246960D01*
X13129706Y-13246960D02*
X13148753Y-13256484D01*
X13148753Y-13256484D02*
X13186848Y-13256484D01*
X13186848Y-13256484D02*
X13205896Y-13246960D01*
X13205896Y-13246960D02*
X13215420Y-13237436D01*
X13215420Y-13237436D02*
X13224944Y-13218388D01*
X13224944Y-13218388D02*
X13224944Y-13180293D01*
X13224944Y-13180293D02*
X13215420Y-13161246D01*
X13215420Y-13161246D02*
X13205896Y-13151722D01*
X13205896Y-13151722D02*
X13186848Y-13142198D01*
X13301134Y-13056484D02*
X13301134Y-13094579D01*
X13377325Y-13056484D02*
X13377325Y-13094579D01*
X13672563Y-13332674D02*
X13663039Y-13323150D01*
X13663039Y-13323150D02*
X13643991Y-13294579D01*
X13643991Y-13294579D02*
X13634468Y-13275531D01*
X13634468Y-13275531D02*
X13624944Y-13246960D01*
X13624944Y-13246960D02*
X13615420Y-13199341D01*
X13615420Y-13199341D02*
X13615420Y-13161246D01*
X13615420Y-13161246D02*
X13624944Y-13113627D01*
X13624944Y-13113627D02*
X13634468Y-13085055D01*
X13634468Y-13085055D02*
X13643991Y-13066008D01*
X13643991Y-13066008D02*
X13663039Y-13037436D01*
X13663039Y-13037436D02*
X13672563Y-13027912D01*
X13739229Y-13075531D02*
X13748753Y-13066008D01*
X13748753Y-13066008D02*
X13767801Y-13056484D01*
X13767801Y-13056484D02*
X13815420Y-13056484D01*
X13815420Y-13056484D02*
X13834468Y-13066008D01*
X13834468Y-13066008D02*
X13843991Y-13075531D01*
X13843991Y-13075531D02*
X13853515Y-13094579D01*
X13853515Y-13094579D02*
X13853515Y-13113627D01*
X13853515Y-13113627D02*
X13843991Y-13142198D01*
X13843991Y-13142198D02*
X13729706Y-13256484D01*
X13729706Y-13256484D02*
X13853515Y-13256484D01*
X14091610Y-13256484D02*
X14091610Y-13056484D01*
X14177325Y-13256484D02*
X14177325Y-13151722D01*
X14177325Y-13151722D02*
X14167801Y-13132674D01*
X14167801Y-13132674D02*
X14148753Y-13123150D01*
X14148753Y-13123150D02*
X14120182Y-13123150D01*
X14120182Y-13123150D02*
X14101134Y-13132674D01*
X14101134Y-13132674D02*
X14091610Y-13142198D01*
X14301134Y-13256484D02*
X14282087Y-13246960D01*
X14282087Y-13246960D02*
X14272563Y-13237436D01*
X14272563Y-13237436D02*
X14263039Y-13218388D01*
X14263039Y-13218388D02*
X14263039Y-13161246D01*
X14263039Y-13161246D02*
X14272563Y-13142198D01*
X14272563Y-13142198D02*
X14282087Y-13132674D01*
X14282087Y-13132674D02*
X14301134Y-13123150D01*
X14301134Y-13123150D02*
X14329706Y-13123150D01*
X14329706Y-13123150D02*
X14348753Y-13132674D01*
X14348753Y-13132674D02*
X14358277Y-13142198D01*
X14358277Y-13142198D02*
X14367801Y-13161246D01*
X14367801Y-13161246D02*
X14367801Y-13218388D01*
X14367801Y-13218388D02*
X14358277Y-13237436D01*
X14358277Y-13237436D02*
X14348753Y-13246960D01*
X14348753Y-13246960D02*
X14329706Y-13256484D01*
X14329706Y-13256484D02*
X14301134Y-13256484D01*
X14482087Y-13256484D02*
X14463039Y-13246960D01*
X14463039Y-13246960D02*
X14453515Y-13227912D01*
X14453515Y-13227912D02*
X14453515Y-13056484D01*
X14634468Y-13246960D02*
X14615420Y-13256484D01*
X14615420Y-13256484D02*
X14577325Y-13256484D01*
X14577325Y-13256484D02*
X14558277Y-13246960D01*
X14558277Y-13246960D02*
X14548753Y-13227912D01*
X14548753Y-13227912D02*
X14548753Y-13151722D01*
X14548753Y-13151722D02*
X14558277Y-13132674D01*
X14558277Y-13132674D02*
X14577325Y-13123150D01*
X14577325Y-13123150D02*
X14615420Y-13123150D01*
X14615420Y-13123150D02*
X14634468Y-13132674D01*
X14634468Y-13132674D02*
X14643991Y-13151722D01*
X14643991Y-13151722D02*
X14643991Y-13170769D01*
X14643991Y-13170769D02*
X14548753Y-13189817D01*
X14720182Y-13246960D02*
X14739230Y-13256484D01*
X14739230Y-13256484D02*
X14777325Y-13256484D01*
X14777325Y-13256484D02*
X14796372Y-13246960D01*
X14796372Y-13246960D02*
X14805896Y-13227912D01*
X14805896Y-13227912D02*
X14805896Y-13218388D01*
X14805896Y-13218388D02*
X14796372Y-13199341D01*
X14796372Y-13199341D02*
X14777325Y-13189817D01*
X14777325Y-13189817D02*
X14748753Y-13189817D01*
X14748753Y-13189817D02*
X14729706Y-13180293D01*
X14729706Y-13180293D02*
X14720182Y-13161246D01*
X14720182Y-13161246D02*
X14720182Y-13151722D01*
X14720182Y-13151722D02*
X14729706Y-13132674D01*
X14729706Y-13132674D02*
X14748753Y-13123150D01*
X14748753Y-13123150D02*
X14777325Y-13123150D01*
X14777325Y-13123150D02*
X14796372Y-13132674D01*
X14872563Y-13332674D02*
X14882087Y-13323150D01*
X14882087Y-13323150D02*
X14901134Y-13294579D01*
X14901134Y-13294579D02*
X14910658Y-13275531D01*
X14910658Y-13275531D02*
X14920182Y-13246960D01*
X14920182Y-13246960D02*
X14929706Y-13199341D01*
X14929706Y-13199341D02*
X14929706Y-13161246D01*
X14929706Y-13161246D02*
X14920182Y-13113627D01*
X14920182Y-13113627D02*
X14910658Y-13085055D01*
X14910658Y-13085055D02*
X14901134Y-13066008D01*
X14901134Y-13066008D02*
X14882087Y-13037436D01*
X14882087Y-13037436D02*
X14872563Y-13027912D01*
X15234468Y-13332674D02*
X15224944Y-13323150D01*
X15224944Y-13323150D02*
X15205896Y-13294579D01*
X15205896Y-13294579D02*
X15196372Y-13275531D01*
X15196372Y-13275531D02*
X15186849Y-13246960D01*
X15186849Y-13246960D02*
X15177325Y-13199341D01*
X15177325Y-13199341D02*
X15177325Y-13161246D01*
X15177325Y-13161246D02*
X15186849Y-13113627D01*
X15186849Y-13113627D02*
X15196372Y-13085055D01*
X15196372Y-13085055D02*
X15205896Y-13066008D01*
X15205896Y-13066008D02*
X15224944Y-13037436D01*
X15224944Y-13037436D02*
X15234468Y-13027912D01*
X15310658Y-13123150D02*
X15310658Y-13256484D01*
X15310658Y-13142198D02*
X15320182Y-13132674D01*
X15320182Y-13132674D02*
X15339230Y-13123150D01*
X15339230Y-13123150D02*
X15367801Y-13123150D01*
X15367801Y-13123150D02*
X15386849Y-13132674D01*
X15386849Y-13132674D02*
X15396372Y-13151722D01*
X15396372Y-13151722D02*
X15396372Y-13256484D01*
X15520182Y-13256484D02*
X15501134Y-13246960D01*
X15501134Y-13246960D02*
X15491611Y-13237436D01*
X15491611Y-13237436D02*
X15482087Y-13218388D01*
X15482087Y-13218388D02*
X15482087Y-13161246D01*
X15482087Y-13161246D02*
X15491611Y-13142198D01*
X15491611Y-13142198D02*
X15501134Y-13132674D01*
X15501134Y-13132674D02*
X15520182Y-13123150D01*
X15520182Y-13123150D02*
X15548753Y-13123150D01*
X15548753Y-13123150D02*
X15567801Y-13132674D01*
X15567801Y-13132674D02*
X15577325Y-13142198D01*
X15577325Y-13142198D02*
X15586849Y-13161246D01*
X15586849Y-13161246D02*
X15586849Y-13218388D01*
X15586849Y-13218388D02*
X15577325Y-13237436D01*
X15577325Y-13237436D02*
X15567801Y-13246960D01*
X15567801Y-13246960D02*
X15548753Y-13256484D01*
X15548753Y-13256484D02*
X15520182Y-13256484D01*
X15643992Y-13123150D02*
X15720182Y-13123150D01*
X15672563Y-13056484D02*
X15672563Y-13227912D01*
X15672563Y-13227912D02*
X15682087Y-13246960D01*
X15682087Y-13246960D02*
X15701134Y-13256484D01*
X15701134Y-13256484D02*
X15720182Y-13256484D01*
X15939230Y-13123150D02*
X15939230Y-13323150D01*
X15939230Y-13132674D02*
X15958277Y-13123150D01*
X15958277Y-13123150D02*
X15996373Y-13123150D01*
X15996373Y-13123150D02*
X16015420Y-13132674D01*
X16015420Y-13132674D02*
X16024944Y-13142198D01*
X16024944Y-13142198D02*
X16034468Y-13161246D01*
X16034468Y-13161246D02*
X16034468Y-13218388D01*
X16034468Y-13218388D02*
X16024944Y-13237436D01*
X16024944Y-13237436D02*
X16015420Y-13246960D01*
X16015420Y-13246960D02*
X15996373Y-13256484D01*
X15996373Y-13256484D02*
X15958277Y-13256484D01*
X15958277Y-13256484D02*
X15939230Y-13246960D01*
X16148753Y-13256484D02*
X16129706Y-13246960D01*
X16129706Y-13246960D02*
X16120182Y-13227912D01*
X16120182Y-13227912D02*
X16120182Y-13056484D01*
X16310658Y-13256484D02*
X16310658Y-13151722D01*
X16310658Y-13151722D02*
X16301134Y-13132674D01*
X16301134Y-13132674D02*
X16282087Y-13123150D01*
X16282087Y-13123150D02*
X16243992Y-13123150D01*
X16243992Y-13123150D02*
X16224944Y-13132674D01*
X16310658Y-13246960D02*
X16291611Y-13256484D01*
X16291611Y-13256484D02*
X16243992Y-13256484D01*
X16243992Y-13256484D02*
X16224944Y-13246960D01*
X16224944Y-13246960D02*
X16215420Y-13227912D01*
X16215420Y-13227912D02*
X16215420Y-13208865D01*
X16215420Y-13208865D02*
X16224944Y-13189817D01*
X16224944Y-13189817D02*
X16243992Y-13180293D01*
X16243992Y-13180293D02*
X16291611Y-13180293D01*
X16291611Y-13180293D02*
X16310658Y-13170769D01*
X16377325Y-13123150D02*
X16453515Y-13123150D01*
X16405896Y-13056484D02*
X16405896Y-13227912D01*
X16405896Y-13227912D02*
X16415420Y-13246960D01*
X16415420Y-13246960D02*
X16434468Y-13256484D01*
X16434468Y-13256484D02*
X16453515Y-13256484D01*
X16596373Y-13246960D02*
X16577325Y-13256484D01*
X16577325Y-13256484D02*
X16539230Y-13256484D01*
X16539230Y-13256484D02*
X16520182Y-13246960D01*
X16520182Y-13246960D02*
X16510658Y-13227912D01*
X16510658Y-13227912D02*
X16510658Y-13151722D01*
X16510658Y-13151722D02*
X16520182Y-13132674D01*
X16520182Y-13132674D02*
X16539230Y-13123150D01*
X16539230Y-13123150D02*
X16577325Y-13123150D01*
X16577325Y-13123150D02*
X16596373Y-13132674D01*
X16596373Y-13132674D02*
X16605896Y-13151722D01*
X16605896Y-13151722D02*
X16605896Y-13170769D01*
X16605896Y-13170769D02*
X16510658Y-13189817D01*
X16777325Y-13256484D02*
X16777325Y-13056484D01*
X16777325Y-13246960D02*
X16758277Y-13256484D01*
X16758277Y-13256484D02*
X16720182Y-13256484D01*
X16720182Y-13256484D02*
X16701134Y-13246960D01*
X16701134Y-13246960D02*
X16691611Y-13237436D01*
X16691611Y-13237436D02*
X16682087Y-13218388D01*
X16682087Y-13218388D02*
X16682087Y-13161246D01*
X16682087Y-13161246D02*
X16691611Y-13142198D01*
X16691611Y-13142198D02*
X16701134Y-13132674D01*
X16701134Y-13132674D02*
X16720182Y-13123150D01*
X16720182Y-13123150D02*
X16758277Y-13123150D01*
X16758277Y-13123150D02*
X16777325Y-13132674D01*
X16853516Y-13332674D02*
X16863039Y-13323150D01*
X16863039Y-13323150D02*
X16882087Y-13294579D01*
X16882087Y-13294579D02*
X16891611Y-13275531D01*
X16891611Y-13275531D02*
X16901135Y-13246960D01*
X16901135Y-13246960D02*
X16910658Y-13199341D01*
X16910658Y-13199341D02*
X16910658Y-13161246D01*
X16910658Y-13161246D02*
X16901135Y-13113627D01*
X16901135Y-13113627D02*
X16891611Y-13085055D01*
X16891611Y-13085055D02*
X16882087Y-13066008D01*
X16882087Y-13066008D02*
X16863039Y-13037436D01*
X16863039Y-13037436D02*
X16853516Y-13027912D01*
M02*
