%TF.GenerationSoftware,KiCad,Pcbnew,7.0.5*%
%TF.CreationDate,2023-08-02T13:00:21+02:00*%
%TF.ProjectId,actuator_panel,61637475-6174-46f7-925f-70616e656c2e,rev?*%
%TF.SameCoordinates,Original*%
%TF.FileFunction,Legend,Bot*%
%TF.FilePolarity,Positive*%
%FSLAX46Y46*%
G04 Gerber Fmt 4.6, Leading zero omitted, Abs format (unit mm)*
G04 Created by KiCad (PCBNEW 7.0.5) date 2023-08-02 13:00:21*
%MOMM*%
%LPD*%
G01*
G04 APERTURE LIST*
%ADD10C,0.150000*%
G04 APERTURE END LIST*
D10*
X134875000Y-33300000D02*
X161675000Y-33300000D01*
X161675000Y-38400000D01*
X134875000Y-38400000D01*
X134875000Y-33300000D01*
G36*
X134875000Y-33300000D02*
G01*
X161675000Y-33300000D01*
X161675000Y-38400000D01*
X134875000Y-38400000D01*
X134875000Y-33300000D01*
G37*
X166525000Y-39150000D02*
X193325000Y-39150000D01*
X193325000Y-44250000D01*
X166525000Y-44250000D01*
X166525000Y-39150000D01*
G36*
X166525000Y-39150000D02*
G01*
X193325000Y-39150000D01*
X193325000Y-44250000D01*
X166525000Y-44250000D01*
X166525000Y-39150000D01*
G37*
X134875000Y-45000000D02*
X161675000Y-45000000D01*
X161675000Y-50100000D01*
X134875000Y-50100000D01*
X134875000Y-45000000D01*
G36*
X134875000Y-45000000D02*
G01*
X161675000Y-45000000D01*
X161675000Y-50100000D01*
X134875000Y-50100000D01*
X134875000Y-45000000D01*
G37*
X166525000Y-45000000D02*
X193325000Y-45000000D01*
X193325000Y-50100000D01*
X166525000Y-50100000D01*
X166525000Y-45000000D01*
G36*
X166525000Y-45000000D02*
G01*
X193325000Y-45000000D01*
X193325000Y-50100000D01*
X166525000Y-50100000D01*
X166525000Y-45000000D01*
G37*
X103225000Y-33300000D02*
X130025000Y-33300000D01*
X130025000Y-38400000D01*
X103225000Y-38400000D01*
X103225000Y-33300000D01*
G36*
X103225000Y-33300000D02*
G01*
X130025000Y-33300000D01*
X130025000Y-38400000D01*
X103225000Y-38400000D01*
X103225000Y-33300000D01*
G37*
X134875000Y-39150000D02*
X161675000Y-39150000D01*
X161675000Y-44250000D01*
X134875000Y-44250000D01*
X134875000Y-39150000D01*
G36*
X134875000Y-39150000D02*
G01*
X161675000Y-39150000D01*
X161675000Y-44250000D01*
X134875000Y-44250000D01*
X134875000Y-39150000D01*
G37*
X166525000Y-33300000D02*
X193325000Y-33300000D01*
X193325000Y-38400000D01*
X166525000Y-38400000D01*
X166525000Y-33300000D01*
G36*
X166525000Y-33300000D02*
G01*
X193325000Y-33300000D01*
X193325000Y-38400000D01*
X166525000Y-38400000D01*
X166525000Y-33300000D01*
G37*
X103225000Y-45000000D02*
X130025000Y-45000000D01*
X130025000Y-50100000D01*
X103225000Y-50100000D01*
X103225000Y-45000000D01*
G36*
X103225000Y-45000000D02*
G01*
X130025000Y-45000000D01*
X130025000Y-50100000D01*
X103225000Y-50100000D01*
X103225000Y-45000000D01*
G37*
X103225000Y-39150000D02*
X130025000Y-39150000D01*
X130025000Y-44250000D01*
X103225000Y-44250000D01*
X103225000Y-39150000D01*
G36*
X103225000Y-39150000D02*
G01*
X130025000Y-39150000D01*
X130025000Y-44250000D01*
X103225000Y-44250000D01*
X103225000Y-39150000D01*
G37*
X155013095Y-29833152D02*
X155013095Y-30833152D01*
X155013095Y-29880771D02*
X154917857Y-29833152D01*
X154917857Y-29833152D02*
X154727381Y-29833152D01*
X154727381Y-29833152D02*
X154632143Y-29880771D01*
X154632143Y-29880771D02*
X154584524Y-29928390D01*
X154584524Y-29928390D02*
X154536905Y-30023628D01*
X154536905Y-30023628D02*
X154536905Y-30309342D01*
X154536905Y-30309342D02*
X154584524Y-30404580D01*
X154584524Y-30404580D02*
X154632143Y-30452200D01*
X154632143Y-30452200D02*
X154727381Y-30499819D01*
X154727381Y-30499819D02*
X154917857Y-30499819D01*
X154917857Y-30499819D02*
X155013095Y-30452200D01*
X154108333Y-30499819D02*
X154108333Y-29833152D01*
X154108333Y-29499819D02*
X154155952Y-29547438D01*
X154155952Y-29547438D02*
X154108333Y-29595057D01*
X154108333Y-29595057D02*
X154060714Y-29547438D01*
X154060714Y-29547438D02*
X154108333Y-29499819D01*
X154108333Y-29499819D02*
X154108333Y-29595057D01*
X153251191Y-30452200D02*
X153346429Y-30499819D01*
X153346429Y-30499819D02*
X153536905Y-30499819D01*
X153536905Y-30499819D02*
X153632143Y-30452200D01*
X153632143Y-30452200D02*
X153679762Y-30356961D01*
X153679762Y-30356961D02*
X153679762Y-29976009D01*
X153679762Y-29976009D02*
X153632143Y-29880771D01*
X153632143Y-29880771D02*
X153536905Y-29833152D01*
X153536905Y-29833152D02*
X153346429Y-29833152D01*
X153346429Y-29833152D02*
X153251191Y-29880771D01*
X153251191Y-29880771D02*
X153203572Y-29976009D01*
X153203572Y-29976009D02*
X153203572Y-30071247D01*
X153203572Y-30071247D02*
X153679762Y-30166485D01*
X152870238Y-29833152D02*
X152346429Y-29833152D01*
X152346429Y-29833152D02*
X152870238Y-30499819D01*
X152870238Y-30499819D02*
X152346429Y-30499819D01*
X151822619Y-30499819D02*
X151917857Y-30452200D01*
X151917857Y-30452200D02*
X151965476Y-30404580D01*
X151965476Y-30404580D02*
X152013095Y-30309342D01*
X152013095Y-30309342D02*
X152013095Y-30023628D01*
X152013095Y-30023628D02*
X151965476Y-29928390D01*
X151965476Y-29928390D02*
X151917857Y-29880771D01*
X151917857Y-29880771D02*
X151822619Y-29833152D01*
X151822619Y-29833152D02*
X151679762Y-29833152D01*
X151679762Y-29833152D02*
X151584524Y-29880771D01*
X151584524Y-29880771D02*
X151536905Y-29928390D01*
X151536905Y-29928390D02*
X151489286Y-30023628D01*
X151489286Y-30023628D02*
X151489286Y-30309342D01*
X151489286Y-30309342D02*
X151536905Y-30404580D01*
X151536905Y-30404580D02*
X151584524Y-30452200D01*
X151584524Y-30452200D02*
X151679762Y-30499819D01*
X151679762Y-30499819D02*
X151822619Y-30499819D01*
X149870238Y-30499819D02*
X149870238Y-29499819D01*
X149870238Y-30452200D02*
X149965476Y-30499819D01*
X149965476Y-30499819D02*
X150155952Y-30499819D01*
X150155952Y-30499819D02*
X150251190Y-30452200D01*
X150251190Y-30452200D02*
X150298809Y-30404580D01*
X150298809Y-30404580D02*
X150346428Y-30309342D01*
X150346428Y-30309342D02*
X150346428Y-30023628D01*
X150346428Y-30023628D02*
X150298809Y-29928390D01*
X150298809Y-29928390D02*
X150251190Y-29880771D01*
X150251190Y-29880771D02*
X150155952Y-29833152D01*
X150155952Y-29833152D02*
X149965476Y-29833152D01*
X149965476Y-29833152D02*
X149870238Y-29880771D01*
X149394047Y-30499819D02*
X149394047Y-29833152D01*
X149394047Y-30023628D02*
X149346428Y-29928390D01*
X149346428Y-29928390D02*
X149298809Y-29880771D01*
X149298809Y-29880771D02*
X149203571Y-29833152D01*
X149203571Y-29833152D02*
X149108333Y-29833152D01*
X148774999Y-30499819D02*
X148774999Y-29833152D01*
X148774999Y-29499819D02*
X148822618Y-29547438D01*
X148822618Y-29547438D02*
X148774999Y-29595057D01*
X148774999Y-29595057D02*
X148727380Y-29547438D01*
X148727380Y-29547438D02*
X148774999Y-29499819D01*
X148774999Y-29499819D02*
X148774999Y-29595057D01*
X148394047Y-29833152D02*
X148155952Y-30499819D01*
X148155952Y-30499819D02*
X147917857Y-29833152D01*
X147155952Y-30452200D02*
X147251190Y-30499819D01*
X147251190Y-30499819D02*
X147441666Y-30499819D01*
X147441666Y-30499819D02*
X147536904Y-30452200D01*
X147536904Y-30452200D02*
X147584523Y-30356961D01*
X147584523Y-30356961D02*
X147584523Y-29976009D01*
X147584523Y-29976009D02*
X147536904Y-29880771D01*
X147536904Y-29880771D02*
X147441666Y-29833152D01*
X147441666Y-29833152D02*
X147251190Y-29833152D01*
X147251190Y-29833152D02*
X147155952Y-29880771D01*
X147155952Y-29880771D02*
X147108333Y-29976009D01*
X147108333Y-29976009D02*
X147108333Y-30071247D01*
X147108333Y-30071247D02*
X147584523Y-30166485D01*
X146679761Y-30499819D02*
X146679761Y-29833152D01*
X146679761Y-30023628D02*
X146632142Y-29928390D01*
X146632142Y-29928390D02*
X146584523Y-29880771D01*
X146584523Y-29880771D02*
X146489285Y-29833152D01*
X146489285Y-29833152D02*
X146394047Y-29833152D01*
X145298808Y-30499819D02*
X145298808Y-29499819D01*
X145298808Y-29880771D02*
X145203570Y-29833152D01*
X145203570Y-29833152D02*
X145013094Y-29833152D01*
X145013094Y-29833152D02*
X144917856Y-29880771D01*
X144917856Y-29880771D02*
X144870237Y-29928390D01*
X144870237Y-29928390D02*
X144822618Y-30023628D01*
X144822618Y-30023628D02*
X144822618Y-30309342D01*
X144822618Y-30309342D02*
X144870237Y-30404580D01*
X144870237Y-30404580D02*
X144917856Y-30452200D01*
X144917856Y-30452200D02*
X145013094Y-30499819D01*
X145013094Y-30499819D02*
X145203570Y-30499819D01*
X145203570Y-30499819D02*
X145298808Y-30452200D01*
X144251189Y-30499819D02*
X144346427Y-30452200D01*
X144346427Y-30452200D02*
X144394046Y-30404580D01*
X144394046Y-30404580D02*
X144441665Y-30309342D01*
X144441665Y-30309342D02*
X144441665Y-30023628D01*
X144441665Y-30023628D02*
X144394046Y-29928390D01*
X144394046Y-29928390D02*
X144346427Y-29880771D01*
X144346427Y-29880771D02*
X144251189Y-29833152D01*
X144251189Y-29833152D02*
X144108332Y-29833152D01*
X144108332Y-29833152D02*
X144013094Y-29880771D01*
X144013094Y-29880771D02*
X143965475Y-29928390D01*
X143965475Y-29928390D02*
X143917856Y-30023628D01*
X143917856Y-30023628D02*
X143917856Y-30309342D01*
X143917856Y-30309342D02*
X143965475Y-30404580D01*
X143965475Y-30404580D02*
X144013094Y-30452200D01*
X144013094Y-30452200D02*
X144108332Y-30499819D01*
X144108332Y-30499819D02*
X144251189Y-30499819D01*
X143060713Y-30499819D02*
X143060713Y-29976009D01*
X143060713Y-29976009D02*
X143108332Y-29880771D01*
X143108332Y-29880771D02*
X143203570Y-29833152D01*
X143203570Y-29833152D02*
X143394046Y-29833152D01*
X143394046Y-29833152D02*
X143489284Y-29880771D01*
X143060713Y-30452200D02*
X143155951Y-30499819D01*
X143155951Y-30499819D02*
X143394046Y-30499819D01*
X143394046Y-30499819D02*
X143489284Y-30452200D01*
X143489284Y-30452200D02*
X143536903Y-30356961D01*
X143536903Y-30356961D02*
X143536903Y-30261723D01*
X143536903Y-30261723D02*
X143489284Y-30166485D01*
X143489284Y-30166485D02*
X143394046Y-30118866D01*
X143394046Y-30118866D02*
X143155951Y-30118866D01*
X143155951Y-30118866D02*
X143060713Y-30071247D01*
X142584522Y-30499819D02*
X142584522Y-29833152D01*
X142584522Y-30023628D02*
X142536903Y-29928390D01*
X142536903Y-29928390D02*
X142489284Y-29880771D01*
X142489284Y-29880771D02*
X142394046Y-29833152D01*
X142394046Y-29833152D02*
X142298808Y-29833152D01*
X141536903Y-30499819D02*
X141536903Y-29499819D01*
X141536903Y-30452200D02*
X141632141Y-30499819D01*
X141632141Y-30499819D02*
X141822617Y-30499819D01*
X141822617Y-30499819D02*
X141917855Y-30452200D01*
X141917855Y-30452200D02*
X141965474Y-30404580D01*
X141965474Y-30404580D02*
X142013093Y-30309342D01*
X142013093Y-30309342D02*
X142013093Y-30023628D01*
X142013093Y-30023628D02*
X141965474Y-29928390D01*
X141965474Y-29928390D02*
X141917855Y-29880771D01*
X141917855Y-29880771D02*
X141822617Y-29833152D01*
X141822617Y-29833152D02*
X141632141Y-29833152D01*
X141632141Y-29833152D02*
X141536903Y-29880771D01*
X150727380Y-32109819D02*
X150727380Y-31443152D01*
X150727380Y-31633628D02*
X150679761Y-31538390D01*
X150679761Y-31538390D02*
X150632142Y-31490771D01*
X150632142Y-31490771D02*
X150536904Y-31443152D01*
X150536904Y-31443152D02*
X150441666Y-31443152D01*
X149727380Y-32062200D02*
X149822618Y-32109819D01*
X149822618Y-32109819D02*
X150013094Y-32109819D01*
X150013094Y-32109819D02*
X150108332Y-32062200D01*
X150108332Y-32062200D02*
X150155951Y-31966961D01*
X150155951Y-31966961D02*
X150155951Y-31586009D01*
X150155951Y-31586009D02*
X150108332Y-31490771D01*
X150108332Y-31490771D02*
X150013094Y-31443152D01*
X150013094Y-31443152D02*
X149822618Y-31443152D01*
X149822618Y-31443152D02*
X149727380Y-31490771D01*
X149727380Y-31490771D02*
X149679761Y-31586009D01*
X149679761Y-31586009D02*
X149679761Y-31681247D01*
X149679761Y-31681247D02*
X150155951Y-31776485D01*
X149346427Y-31443152D02*
X149108332Y-32109819D01*
X149108332Y-32109819D02*
X148870237Y-31443152D01*
X147822617Y-31109819D02*
X147203570Y-31109819D01*
X147203570Y-31109819D02*
X147536903Y-31490771D01*
X147536903Y-31490771D02*
X147394046Y-31490771D01*
X147394046Y-31490771D02*
X147298808Y-31538390D01*
X147298808Y-31538390D02*
X147251189Y-31586009D01*
X147251189Y-31586009D02*
X147203570Y-31681247D01*
X147203570Y-31681247D02*
X147203570Y-31919342D01*
X147203570Y-31919342D02*
X147251189Y-32014580D01*
X147251189Y-32014580D02*
X147298808Y-32062200D01*
X147298808Y-32062200D02*
X147394046Y-32109819D01*
X147394046Y-32109819D02*
X147679760Y-32109819D01*
X147679760Y-32109819D02*
X147774998Y-32062200D01*
X147774998Y-32062200D02*
X147822617Y-32014580D01*
X146774998Y-32014580D02*
X146727379Y-32062200D01*
X146727379Y-32062200D02*
X146774998Y-32109819D01*
X146774998Y-32109819D02*
X146822617Y-32062200D01*
X146822617Y-32062200D02*
X146774998Y-32014580D01*
X146774998Y-32014580D02*
X146774998Y-32109819D01*
X145774999Y-32109819D02*
X146346427Y-32109819D01*
X146060713Y-32109819D02*
X146060713Y-31109819D01*
X146060713Y-31109819D02*
X146155951Y-31252676D01*
X146155951Y-31252676D02*
X146251189Y-31347914D01*
X146251189Y-31347914D02*
X146346427Y-31395533D01*
X151341666Y-59794819D02*
X151341666Y-58794819D01*
X151341666Y-58794819D02*
X151103571Y-58794819D01*
X151103571Y-58794819D02*
X150960714Y-58842438D01*
X150960714Y-58842438D02*
X150865476Y-58937676D01*
X150865476Y-58937676D02*
X150817857Y-59032914D01*
X150817857Y-59032914D02*
X150770238Y-59223390D01*
X150770238Y-59223390D02*
X150770238Y-59366247D01*
X150770238Y-59366247D02*
X150817857Y-59556723D01*
X150817857Y-59556723D02*
X150865476Y-59651961D01*
X150865476Y-59651961D02*
X150960714Y-59747200D01*
X150960714Y-59747200D02*
X151103571Y-59794819D01*
X151103571Y-59794819D02*
X151341666Y-59794819D01*
X150389285Y-59509104D02*
X149913095Y-59509104D01*
X150484523Y-59794819D02*
X150151190Y-58794819D01*
X150151190Y-58794819D02*
X149817857Y-59794819D01*
X149484523Y-59794819D02*
X149484523Y-58794819D01*
X149484523Y-58794819D02*
X148913095Y-59794819D01*
X148913095Y-59794819D02*
X148913095Y-58794819D01*
X147913095Y-58842438D02*
X148008333Y-58794819D01*
X148008333Y-58794819D02*
X148151190Y-58794819D01*
X148151190Y-58794819D02*
X148294047Y-58842438D01*
X148294047Y-58842438D02*
X148389285Y-58937676D01*
X148389285Y-58937676D02*
X148436904Y-59032914D01*
X148436904Y-59032914D02*
X148484523Y-59223390D01*
X148484523Y-59223390D02*
X148484523Y-59366247D01*
X148484523Y-59366247D02*
X148436904Y-59556723D01*
X148436904Y-59556723D02*
X148389285Y-59651961D01*
X148389285Y-59651961D02*
X148294047Y-59747200D01*
X148294047Y-59747200D02*
X148151190Y-59794819D01*
X148151190Y-59794819D02*
X148055952Y-59794819D01*
X148055952Y-59794819D02*
X147913095Y-59747200D01*
X147913095Y-59747200D02*
X147865476Y-59699580D01*
X147865476Y-59699580D02*
X147865476Y-59366247D01*
X147865476Y-59366247D02*
X148055952Y-59366247D01*
X147436904Y-59271009D02*
X147103571Y-59271009D01*
X146960714Y-59794819D02*
X147436904Y-59794819D01*
X147436904Y-59794819D02*
X147436904Y-58794819D01*
X147436904Y-58794819D02*
X146960714Y-58794819D01*
X145960714Y-59794819D02*
X146294047Y-59318628D01*
X146532142Y-59794819D02*
X146532142Y-58794819D01*
X146532142Y-58794819D02*
X146151190Y-58794819D01*
X146151190Y-58794819D02*
X146055952Y-58842438D01*
X146055952Y-58842438D02*
X146008333Y-58890057D01*
X146008333Y-58890057D02*
X145960714Y-58985295D01*
X145960714Y-58985295D02*
X145960714Y-59128152D01*
X145960714Y-59128152D02*
X146008333Y-59223390D01*
X146008333Y-59223390D02*
X146055952Y-59271009D01*
X146055952Y-59271009D02*
X146151190Y-59318628D01*
X146151190Y-59318628D02*
X146532142Y-59318628D01*
X151341666Y-61404819D02*
X151341666Y-60404819D01*
X151341666Y-60404819D02*
X151103571Y-60404819D01*
X151103571Y-60404819D02*
X150960714Y-60452438D01*
X150960714Y-60452438D02*
X150865476Y-60547676D01*
X150865476Y-60547676D02*
X150817857Y-60642914D01*
X150817857Y-60642914D02*
X150770238Y-60833390D01*
X150770238Y-60833390D02*
X150770238Y-60976247D01*
X150770238Y-60976247D02*
X150817857Y-61166723D01*
X150817857Y-61166723D02*
X150865476Y-61261961D01*
X150865476Y-61261961D02*
X150960714Y-61357200D01*
X150960714Y-61357200D02*
X151103571Y-61404819D01*
X151103571Y-61404819D02*
X151341666Y-61404819D01*
X150389285Y-61119104D02*
X149913095Y-61119104D01*
X150484523Y-61404819D02*
X150151190Y-60404819D01*
X150151190Y-60404819D02*
X149817857Y-61404819D01*
X149484523Y-61404819D02*
X149484523Y-60404819D01*
X149484523Y-60404819D02*
X148913095Y-61404819D01*
X148913095Y-61404819D02*
X148913095Y-60404819D01*
X147913095Y-60452438D02*
X148008333Y-60404819D01*
X148008333Y-60404819D02*
X148151190Y-60404819D01*
X148151190Y-60404819D02*
X148294047Y-60452438D01*
X148294047Y-60452438D02*
X148389285Y-60547676D01*
X148389285Y-60547676D02*
X148436904Y-60642914D01*
X148436904Y-60642914D02*
X148484523Y-60833390D01*
X148484523Y-60833390D02*
X148484523Y-60976247D01*
X148484523Y-60976247D02*
X148436904Y-61166723D01*
X148436904Y-61166723D02*
X148389285Y-61261961D01*
X148389285Y-61261961D02*
X148294047Y-61357200D01*
X148294047Y-61357200D02*
X148151190Y-61404819D01*
X148151190Y-61404819D02*
X148055952Y-61404819D01*
X148055952Y-61404819D02*
X147913095Y-61357200D01*
X147913095Y-61357200D02*
X147865476Y-61309580D01*
X147865476Y-61309580D02*
X147865476Y-60976247D01*
X147865476Y-60976247D02*
X148055952Y-60976247D01*
X147436904Y-60881009D02*
X147103571Y-60881009D01*
X146960714Y-61404819D02*
X147436904Y-61404819D01*
X147436904Y-61404819D02*
X147436904Y-60404819D01*
X147436904Y-60404819D02*
X146960714Y-60404819D01*
X145960714Y-61404819D02*
X146294047Y-60928628D01*
X146532142Y-61404819D02*
X146532142Y-60404819D01*
X146532142Y-60404819D02*
X146151190Y-60404819D01*
X146151190Y-60404819D02*
X146055952Y-60452438D01*
X146055952Y-60452438D02*
X146008333Y-60500057D01*
X146008333Y-60500057D02*
X145960714Y-60595295D01*
X145960714Y-60595295D02*
X145960714Y-60738152D01*
X145960714Y-60738152D02*
X146008333Y-60833390D01*
X146008333Y-60833390D02*
X146055952Y-60881009D01*
X146055952Y-60881009D02*
X146151190Y-60928628D01*
X146151190Y-60928628D02*
X146532142Y-60928628D01*
X153722618Y-63014819D02*
X153722618Y-62014819D01*
X153722618Y-62491009D02*
X153151190Y-62491009D01*
X153151190Y-63014819D02*
X153151190Y-62014819D01*
X152674999Y-63014819D02*
X152674999Y-62014819D01*
X151675000Y-62062438D02*
X151770238Y-62014819D01*
X151770238Y-62014819D02*
X151913095Y-62014819D01*
X151913095Y-62014819D02*
X152055952Y-62062438D01*
X152055952Y-62062438D02*
X152151190Y-62157676D01*
X152151190Y-62157676D02*
X152198809Y-62252914D01*
X152198809Y-62252914D02*
X152246428Y-62443390D01*
X152246428Y-62443390D02*
X152246428Y-62586247D01*
X152246428Y-62586247D02*
X152198809Y-62776723D01*
X152198809Y-62776723D02*
X152151190Y-62871961D01*
X152151190Y-62871961D02*
X152055952Y-62967200D01*
X152055952Y-62967200D02*
X151913095Y-63014819D01*
X151913095Y-63014819D02*
X151817857Y-63014819D01*
X151817857Y-63014819D02*
X151675000Y-62967200D01*
X151675000Y-62967200D02*
X151627381Y-62919580D01*
X151627381Y-62919580D02*
X151627381Y-62586247D01*
X151627381Y-62586247D02*
X151817857Y-62586247D01*
X151198809Y-63014819D02*
X151198809Y-62014819D01*
X151198809Y-62491009D02*
X150627381Y-62491009D01*
X150627381Y-63014819D02*
X150627381Y-62014819D01*
X149532142Y-62014819D02*
X149198809Y-63014819D01*
X149198809Y-63014819D02*
X148865476Y-62014819D01*
X148341666Y-62014819D02*
X148151190Y-62014819D01*
X148151190Y-62014819D02*
X148055952Y-62062438D01*
X148055952Y-62062438D02*
X147960714Y-62157676D01*
X147960714Y-62157676D02*
X147913095Y-62348152D01*
X147913095Y-62348152D02*
X147913095Y-62681485D01*
X147913095Y-62681485D02*
X147960714Y-62871961D01*
X147960714Y-62871961D02*
X148055952Y-62967200D01*
X148055952Y-62967200D02*
X148151190Y-63014819D01*
X148151190Y-63014819D02*
X148341666Y-63014819D01*
X148341666Y-63014819D02*
X148436904Y-62967200D01*
X148436904Y-62967200D02*
X148532142Y-62871961D01*
X148532142Y-62871961D02*
X148579761Y-62681485D01*
X148579761Y-62681485D02*
X148579761Y-62348152D01*
X148579761Y-62348152D02*
X148532142Y-62157676D01*
X148532142Y-62157676D02*
X148436904Y-62062438D01*
X148436904Y-62062438D02*
X148341666Y-62014819D01*
X147008333Y-63014819D02*
X147484523Y-63014819D01*
X147484523Y-63014819D02*
X147484523Y-62014819D01*
X146817856Y-62014819D02*
X146246428Y-62014819D01*
X146532142Y-63014819D02*
X146532142Y-62014819D01*
X145960713Y-62729104D02*
X145484523Y-62729104D01*
X146055951Y-63014819D02*
X145722618Y-62014819D01*
X145722618Y-62014819D02*
X145389285Y-63014819D01*
X144532142Y-62062438D02*
X144627380Y-62014819D01*
X144627380Y-62014819D02*
X144770237Y-62014819D01*
X144770237Y-62014819D02*
X144913094Y-62062438D01*
X144913094Y-62062438D02*
X145008332Y-62157676D01*
X145008332Y-62157676D02*
X145055951Y-62252914D01*
X145055951Y-62252914D02*
X145103570Y-62443390D01*
X145103570Y-62443390D02*
X145103570Y-62586247D01*
X145103570Y-62586247D02*
X145055951Y-62776723D01*
X145055951Y-62776723D02*
X145008332Y-62871961D01*
X145008332Y-62871961D02*
X144913094Y-62967200D01*
X144913094Y-62967200D02*
X144770237Y-63014819D01*
X144770237Y-63014819D02*
X144674999Y-63014819D01*
X144674999Y-63014819D02*
X144532142Y-62967200D01*
X144532142Y-62967200D02*
X144484523Y-62919580D01*
X144484523Y-62919580D02*
X144484523Y-62586247D01*
X144484523Y-62586247D02*
X144674999Y-62586247D01*
X144055951Y-62491009D02*
X143722618Y-62491009D01*
X143579761Y-63014819D02*
X144055951Y-63014819D01*
X144055951Y-63014819D02*
X144055951Y-62014819D01*
X144055951Y-62014819D02*
X143579761Y-62014819D01*
X186663095Y-29833152D02*
X186663095Y-30833152D01*
X186663095Y-29880771D02*
X186567857Y-29833152D01*
X186567857Y-29833152D02*
X186377381Y-29833152D01*
X186377381Y-29833152D02*
X186282143Y-29880771D01*
X186282143Y-29880771D02*
X186234524Y-29928390D01*
X186234524Y-29928390D02*
X186186905Y-30023628D01*
X186186905Y-30023628D02*
X186186905Y-30309342D01*
X186186905Y-30309342D02*
X186234524Y-30404580D01*
X186234524Y-30404580D02*
X186282143Y-30452200D01*
X186282143Y-30452200D02*
X186377381Y-30499819D01*
X186377381Y-30499819D02*
X186567857Y-30499819D01*
X186567857Y-30499819D02*
X186663095Y-30452200D01*
X185758333Y-30499819D02*
X185758333Y-29833152D01*
X185758333Y-29499819D02*
X185805952Y-29547438D01*
X185805952Y-29547438D02*
X185758333Y-29595057D01*
X185758333Y-29595057D02*
X185710714Y-29547438D01*
X185710714Y-29547438D02*
X185758333Y-29499819D01*
X185758333Y-29499819D02*
X185758333Y-29595057D01*
X184901191Y-30452200D02*
X184996429Y-30499819D01*
X184996429Y-30499819D02*
X185186905Y-30499819D01*
X185186905Y-30499819D02*
X185282143Y-30452200D01*
X185282143Y-30452200D02*
X185329762Y-30356961D01*
X185329762Y-30356961D02*
X185329762Y-29976009D01*
X185329762Y-29976009D02*
X185282143Y-29880771D01*
X185282143Y-29880771D02*
X185186905Y-29833152D01*
X185186905Y-29833152D02*
X184996429Y-29833152D01*
X184996429Y-29833152D02*
X184901191Y-29880771D01*
X184901191Y-29880771D02*
X184853572Y-29976009D01*
X184853572Y-29976009D02*
X184853572Y-30071247D01*
X184853572Y-30071247D02*
X185329762Y-30166485D01*
X184520238Y-29833152D02*
X183996429Y-29833152D01*
X183996429Y-29833152D02*
X184520238Y-30499819D01*
X184520238Y-30499819D02*
X183996429Y-30499819D01*
X183472619Y-30499819D02*
X183567857Y-30452200D01*
X183567857Y-30452200D02*
X183615476Y-30404580D01*
X183615476Y-30404580D02*
X183663095Y-30309342D01*
X183663095Y-30309342D02*
X183663095Y-30023628D01*
X183663095Y-30023628D02*
X183615476Y-29928390D01*
X183615476Y-29928390D02*
X183567857Y-29880771D01*
X183567857Y-29880771D02*
X183472619Y-29833152D01*
X183472619Y-29833152D02*
X183329762Y-29833152D01*
X183329762Y-29833152D02*
X183234524Y-29880771D01*
X183234524Y-29880771D02*
X183186905Y-29928390D01*
X183186905Y-29928390D02*
X183139286Y-30023628D01*
X183139286Y-30023628D02*
X183139286Y-30309342D01*
X183139286Y-30309342D02*
X183186905Y-30404580D01*
X183186905Y-30404580D02*
X183234524Y-30452200D01*
X183234524Y-30452200D02*
X183329762Y-30499819D01*
X183329762Y-30499819D02*
X183472619Y-30499819D01*
X181520238Y-30499819D02*
X181520238Y-29499819D01*
X181520238Y-30452200D02*
X181615476Y-30499819D01*
X181615476Y-30499819D02*
X181805952Y-30499819D01*
X181805952Y-30499819D02*
X181901190Y-30452200D01*
X181901190Y-30452200D02*
X181948809Y-30404580D01*
X181948809Y-30404580D02*
X181996428Y-30309342D01*
X181996428Y-30309342D02*
X181996428Y-30023628D01*
X181996428Y-30023628D02*
X181948809Y-29928390D01*
X181948809Y-29928390D02*
X181901190Y-29880771D01*
X181901190Y-29880771D02*
X181805952Y-29833152D01*
X181805952Y-29833152D02*
X181615476Y-29833152D01*
X181615476Y-29833152D02*
X181520238Y-29880771D01*
X181044047Y-30499819D02*
X181044047Y-29833152D01*
X181044047Y-30023628D02*
X180996428Y-29928390D01*
X180996428Y-29928390D02*
X180948809Y-29880771D01*
X180948809Y-29880771D02*
X180853571Y-29833152D01*
X180853571Y-29833152D02*
X180758333Y-29833152D01*
X180424999Y-30499819D02*
X180424999Y-29833152D01*
X180424999Y-29499819D02*
X180472618Y-29547438D01*
X180472618Y-29547438D02*
X180424999Y-29595057D01*
X180424999Y-29595057D02*
X180377380Y-29547438D01*
X180377380Y-29547438D02*
X180424999Y-29499819D01*
X180424999Y-29499819D02*
X180424999Y-29595057D01*
X180044047Y-29833152D02*
X179805952Y-30499819D01*
X179805952Y-30499819D02*
X179567857Y-29833152D01*
X178805952Y-30452200D02*
X178901190Y-30499819D01*
X178901190Y-30499819D02*
X179091666Y-30499819D01*
X179091666Y-30499819D02*
X179186904Y-30452200D01*
X179186904Y-30452200D02*
X179234523Y-30356961D01*
X179234523Y-30356961D02*
X179234523Y-29976009D01*
X179234523Y-29976009D02*
X179186904Y-29880771D01*
X179186904Y-29880771D02*
X179091666Y-29833152D01*
X179091666Y-29833152D02*
X178901190Y-29833152D01*
X178901190Y-29833152D02*
X178805952Y-29880771D01*
X178805952Y-29880771D02*
X178758333Y-29976009D01*
X178758333Y-29976009D02*
X178758333Y-30071247D01*
X178758333Y-30071247D02*
X179234523Y-30166485D01*
X178329761Y-30499819D02*
X178329761Y-29833152D01*
X178329761Y-30023628D02*
X178282142Y-29928390D01*
X178282142Y-29928390D02*
X178234523Y-29880771D01*
X178234523Y-29880771D02*
X178139285Y-29833152D01*
X178139285Y-29833152D02*
X178044047Y-29833152D01*
X176948808Y-30499819D02*
X176948808Y-29499819D01*
X176948808Y-29880771D02*
X176853570Y-29833152D01*
X176853570Y-29833152D02*
X176663094Y-29833152D01*
X176663094Y-29833152D02*
X176567856Y-29880771D01*
X176567856Y-29880771D02*
X176520237Y-29928390D01*
X176520237Y-29928390D02*
X176472618Y-30023628D01*
X176472618Y-30023628D02*
X176472618Y-30309342D01*
X176472618Y-30309342D02*
X176520237Y-30404580D01*
X176520237Y-30404580D02*
X176567856Y-30452200D01*
X176567856Y-30452200D02*
X176663094Y-30499819D01*
X176663094Y-30499819D02*
X176853570Y-30499819D01*
X176853570Y-30499819D02*
X176948808Y-30452200D01*
X175901189Y-30499819D02*
X175996427Y-30452200D01*
X175996427Y-30452200D02*
X176044046Y-30404580D01*
X176044046Y-30404580D02*
X176091665Y-30309342D01*
X176091665Y-30309342D02*
X176091665Y-30023628D01*
X176091665Y-30023628D02*
X176044046Y-29928390D01*
X176044046Y-29928390D02*
X175996427Y-29880771D01*
X175996427Y-29880771D02*
X175901189Y-29833152D01*
X175901189Y-29833152D02*
X175758332Y-29833152D01*
X175758332Y-29833152D02*
X175663094Y-29880771D01*
X175663094Y-29880771D02*
X175615475Y-29928390D01*
X175615475Y-29928390D02*
X175567856Y-30023628D01*
X175567856Y-30023628D02*
X175567856Y-30309342D01*
X175567856Y-30309342D02*
X175615475Y-30404580D01*
X175615475Y-30404580D02*
X175663094Y-30452200D01*
X175663094Y-30452200D02*
X175758332Y-30499819D01*
X175758332Y-30499819D02*
X175901189Y-30499819D01*
X174710713Y-30499819D02*
X174710713Y-29976009D01*
X174710713Y-29976009D02*
X174758332Y-29880771D01*
X174758332Y-29880771D02*
X174853570Y-29833152D01*
X174853570Y-29833152D02*
X175044046Y-29833152D01*
X175044046Y-29833152D02*
X175139284Y-29880771D01*
X174710713Y-30452200D02*
X174805951Y-30499819D01*
X174805951Y-30499819D02*
X175044046Y-30499819D01*
X175044046Y-30499819D02*
X175139284Y-30452200D01*
X175139284Y-30452200D02*
X175186903Y-30356961D01*
X175186903Y-30356961D02*
X175186903Y-30261723D01*
X175186903Y-30261723D02*
X175139284Y-30166485D01*
X175139284Y-30166485D02*
X175044046Y-30118866D01*
X175044046Y-30118866D02*
X174805951Y-30118866D01*
X174805951Y-30118866D02*
X174710713Y-30071247D01*
X174234522Y-30499819D02*
X174234522Y-29833152D01*
X174234522Y-30023628D02*
X174186903Y-29928390D01*
X174186903Y-29928390D02*
X174139284Y-29880771D01*
X174139284Y-29880771D02*
X174044046Y-29833152D01*
X174044046Y-29833152D02*
X173948808Y-29833152D01*
X173186903Y-30499819D02*
X173186903Y-29499819D01*
X173186903Y-30452200D02*
X173282141Y-30499819D01*
X173282141Y-30499819D02*
X173472617Y-30499819D01*
X173472617Y-30499819D02*
X173567855Y-30452200D01*
X173567855Y-30452200D02*
X173615474Y-30404580D01*
X173615474Y-30404580D02*
X173663093Y-30309342D01*
X173663093Y-30309342D02*
X173663093Y-30023628D01*
X173663093Y-30023628D02*
X173615474Y-29928390D01*
X173615474Y-29928390D02*
X173567855Y-29880771D01*
X173567855Y-29880771D02*
X173472617Y-29833152D01*
X173472617Y-29833152D02*
X173282141Y-29833152D01*
X173282141Y-29833152D02*
X173186903Y-29880771D01*
X182377380Y-32109819D02*
X182377380Y-31443152D01*
X182377380Y-31633628D02*
X182329761Y-31538390D01*
X182329761Y-31538390D02*
X182282142Y-31490771D01*
X182282142Y-31490771D02*
X182186904Y-31443152D01*
X182186904Y-31443152D02*
X182091666Y-31443152D01*
X181377380Y-32062200D02*
X181472618Y-32109819D01*
X181472618Y-32109819D02*
X181663094Y-32109819D01*
X181663094Y-32109819D02*
X181758332Y-32062200D01*
X181758332Y-32062200D02*
X181805951Y-31966961D01*
X181805951Y-31966961D02*
X181805951Y-31586009D01*
X181805951Y-31586009D02*
X181758332Y-31490771D01*
X181758332Y-31490771D02*
X181663094Y-31443152D01*
X181663094Y-31443152D02*
X181472618Y-31443152D01*
X181472618Y-31443152D02*
X181377380Y-31490771D01*
X181377380Y-31490771D02*
X181329761Y-31586009D01*
X181329761Y-31586009D02*
X181329761Y-31681247D01*
X181329761Y-31681247D02*
X181805951Y-31776485D01*
X180996427Y-31443152D02*
X180758332Y-32109819D01*
X180758332Y-32109819D02*
X180520237Y-31443152D01*
X179472617Y-31109819D02*
X178853570Y-31109819D01*
X178853570Y-31109819D02*
X179186903Y-31490771D01*
X179186903Y-31490771D02*
X179044046Y-31490771D01*
X179044046Y-31490771D02*
X178948808Y-31538390D01*
X178948808Y-31538390D02*
X178901189Y-31586009D01*
X178901189Y-31586009D02*
X178853570Y-31681247D01*
X178853570Y-31681247D02*
X178853570Y-31919342D01*
X178853570Y-31919342D02*
X178901189Y-32014580D01*
X178901189Y-32014580D02*
X178948808Y-32062200D01*
X178948808Y-32062200D02*
X179044046Y-32109819D01*
X179044046Y-32109819D02*
X179329760Y-32109819D01*
X179329760Y-32109819D02*
X179424998Y-32062200D01*
X179424998Y-32062200D02*
X179472617Y-32014580D01*
X178424998Y-32014580D02*
X178377379Y-32062200D01*
X178377379Y-32062200D02*
X178424998Y-32109819D01*
X178424998Y-32109819D02*
X178472617Y-32062200D01*
X178472617Y-32062200D02*
X178424998Y-32014580D01*
X178424998Y-32014580D02*
X178424998Y-32109819D01*
X177424999Y-32109819D02*
X177996427Y-32109819D01*
X177710713Y-32109819D02*
X177710713Y-31109819D01*
X177710713Y-31109819D02*
X177805951Y-31252676D01*
X177805951Y-31252676D02*
X177901189Y-31347914D01*
X177901189Y-31347914D02*
X177996427Y-31395533D01*
X123363095Y-29833152D02*
X123363095Y-30833152D01*
X123363095Y-29880771D02*
X123267857Y-29833152D01*
X123267857Y-29833152D02*
X123077381Y-29833152D01*
X123077381Y-29833152D02*
X122982143Y-29880771D01*
X122982143Y-29880771D02*
X122934524Y-29928390D01*
X122934524Y-29928390D02*
X122886905Y-30023628D01*
X122886905Y-30023628D02*
X122886905Y-30309342D01*
X122886905Y-30309342D02*
X122934524Y-30404580D01*
X122934524Y-30404580D02*
X122982143Y-30452200D01*
X122982143Y-30452200D02*
X123077381Y-30499819D01*
X123077381Y-30499819D02*
X123267857Y-30499819D01*
X123267857Y-30499819D02*
X123363095Y-30452200D01*
X122458333Y-30499819D02*
X122458333Y-29833152D01*
X122458333Y-29499819D02*
X122505952Y-29547438D01*
X122505952Y-29547438D02*
X122458333Y-29595057D01*
X122458333Y-29595057D02*
X122410714Y-29547438D01*
X122410714Y-29547438D02*
X122458333Y-29499819D01*
X122458333Y-29499819D02*
X122458333Y-29595057D01*
X121601191Y-30452200D02*
X121696429Y-30499819D01*
X121696429Y-30499819D02*
X121886905Y-30499819D01*
X121886905Y-30499819D02*
X121982143Y-30452200D01*
X121982143Y-30452200D02*
X122029762Y-30356961D01*
X122029762Y-30356961D02*
X122029762Y-29976009D01*
X122029762Y-29976009D02*
X121982143Y-29880771D01*
X121982143Y-29880771D02*
X121886905Y-29833152D01*
X121886905Y-29833152D02*
X121696429Y-29833152D01*
X121696429Y-29833152D02*
X121601191Y-29880771D01*
X121601191Y-29880771D02*
X121553572Y-29976009D01*
X121553572Y-29976009D02*
X121553572Y-30071247D01*
X121553572Y-30071247D02*
X122029762Y-30166485D01*
X121220238Y-29833152D02*
X120696429Y-29833152D01*
X120696429Y-29833152D02*
X121220238Y-30499819D01*
X121220238Y-30499819D02*
X120696429Y-30499819D01*
X120172619Y-30499819D02*
X120267857Y-30452200D01*
X120267857Y-30452200D02*
X120315476Y-30404580D01*
X120315476Y-30404580D02*
X120363095Y-30309342D01*
X120363095Y-30309342D02*
X120363095Y-30023628D01*
X120363095Y-30023628D02*
X120315476Y-29928390D01*
X120315476Y-29928390D02*
X120267857Y-29880771D01*
X120267857Y-29880771D02*
X120172619Y-29833152D01*
X120172619Y-29833152D02*
X120029762Y-29833152D01*
X120029762Y-29833152D02*
X119934524Y-29880771D01*
X119934524Y-29880771D02*
X119886905Y-29928390D01*
X119886905Y-29928390D02*
X119839286Y-30023628D01*
X119839286Y-30023628D02*
X119839286Y-30309342D01*
X119839286Y-30309342D02*
X119886905Y-30404580D01*
X119886905Y-30404580D02*
X119934524Y-30452200D01*
X119934524Y-30452200D02*
X120029762Y-30499819D01*
X120029762Y-30499819D02*
X120172619Y-30499819D01*
X118220238Y-30499819D02*
X118220238Y-29499819D01*
X118220238Y-30452200D02*
X118315476Y-30499819D01*
X118315476Y-30499819D02*
X118505952Y-30499819D01*
X118505952Y-30499819D02*
X118601190Y-30452200D01*
X118601190Y-30452200D02*
X118648809Y-30404580D01*
X118648809Y-30404580D02*
X118696428Y-30309342D01*
X118696428Y-30309342D02*
X118696428Y-30023628D01*
X118696428Y-30023628D02*
X118648809Y-29928390D01*
X118648809Y-29928390D02*
X118601190Y-29880771D01*
X118601190Y-29880771D02*
X118505952Y-29833152D01*
X118505952Y-29833152D02*
X118315476Y-29833152D01*
X118315476Y-29833152D02*
X118220238Y-29880771D01*
X117744047Y-30499819D02*
X117744047Y-29833152D01*
X117744047Y-30023628D02*
X117696428Y-29928390D01*
X117696428Y-29928390D02*
X117648809Y-29880771D01*
X117648809Y-29880771D02*
X117553571Y-29833152D01*
X117553571Y-29833152D02*
X117458333Y-29833152D01*
X117124999Y-30499819D02*
X117124999Y-29833152D01*
X117124999Y-29499819D02*
X117172618Y-29547438D01*
X117172618Y-29547438D02*
X117124999Y-29595057D01*
X117124999Y-29595057D02*
X117077380Y-29547438D01*
X117077380Y-29547438D02*
X117124999Y-29499819D01*
X117124999Y-29499819D02*
X117124999Y-29595057D01*
X116744047Y-29833152D02*
X116505952Y-30499819D01*
X116505952Y-30499819D02*
X116267857Y-29833152D01*
X115505952Y-30452200D02*
X115601190Y-30499819D01*
X115601190Y-30499819D02*
X115791666Y-30499819D01*
X115791666Y-30499819D02*
X115886904Y-30452200D01*
X115886904Y-30452200D02*
X115934523Y-30356961D01*
X115934523Y-30356961D02*
X115934523Y-29976009D01*
X115934523Y-29976009D02*
X115886904Y-29880771D01*
X115886904Y-29880771D02*
X115791666Y-29833152D01*
X115791666Y-29833152D02*
X115601190Y-29833152D01*
X115601190Y-29833152D02*
X115505952Y-29880771D01*
X115505952Y-29880771D02*
X115458333Y-29976009D01*
X115458333Y-29976009D02*
X115458333Y-30071247D01*
X115458333Y-30071247D02*
X115934523Y-30166485D01*
X115029761Y-30499819D02*
X115029761Y-29833152D01*
X115029761Y-30023628D02*
X114982142Y-29928390D01*
X114982142Y-29928390D02*
X114934523Y-29880771D01*
X114934523Y-29880771D02*
X114839285Y-29833152D01*
X114839285Y-29833152D02*
X114744047Y-29833152D01*
X113648808Y-30499819D02*
X113648808Y-29499819D01*
X113648808Y-29880771D02*
X113553570Y-29833152D01*
X113553570Y-29833152D02*
X113363094Y-29833152D01*
X113363094Y-29833152D02*
X113267856Y-29880771D01*
X113267856Y-29880771D02*
X113220237Y-29928390D01*
X113220237Y-29928390D02*
X113172618Y-30023628D01*
X113172618Y-30023628D02*
X113172618Y-30309342D01*
X113172618Y-30309342D02*
X113220237Y-30404580D01*
X113220237Y-30404580D02*
X113267856Y-30452200D01*
X113267856Y-30452200D02*
X113363094Y-30499819D01*
X113363094Y-30499819D02*
X113553570Y-30499819D01*
X113553570Y-30499819D02*
X113648808Y-30452200D01*
X112601189Y-30499819D02*
X112696427Y-30452200D01*
X112696427Y-30452200D02*
X112744046Y-30404580D01*
X112744046Y-30404580D02*
X112791665Y-30309342D01*
X112791665Y-30309342D02*
X112791665Y-30023628D01*
X112791665Y-30023628D02*
X112744046Y-29928390D01*
X112744046Y-29928390D02*
X112696427Y-29880771D01*
X112696427Y-29880771D02*
X112601189Y-29833152D01*
X112601189Y-29833152D02*
X112458332Y-29833152D01*
X112458332Y-29833152D02*
X112363094Y-29880771D01*
X112363094Y-29880771D02*
X112315475Y-29928390D01*
X112315475Y-29928390D02*
X112267856Y-30023628D01*
X112267856Y-30023628D02*
X112267856Y-30309342D01*
X112267856Y-30309342D02*
X112315475Y-30404580D01*
X112315475Y-30404580D02*
X112363094Y-30452200D01*
X112363094Y-30452200D02*
X112458332Y-30499819D01*
X112458332Y-30499819D02*
X112601189Y-30499819D01*
X111410713Y-30499819D02*
X111410713Y-29976009D01*
X111410713Y-29976009D02*
X111458332Y-29880771D01*
X111458332Y-29880771D02*
X111553570Y-29833152D01*
X111553570Y-29833152D02*
X111744046Y-29833152D01*
X111744046Y-29833152D02*
X111839284Y-29880771D01*
X111410713Y-30452200D02*
X111505951Y-30499819D01*
X111505951Y-30499819D02*
X111744046Y-30499819D01*
X111744046Y-30499819D02*
X111839284Y-30452200D01*
X111839284Y-30452200D02*
X111886903Y-30356961D01*
X111886903Y-30356961D02*
X111886903Y-30261723D01*
X111886903Y-30261723D02*
X111839284Y-30166485D01*
X111839284Y-30166485D02*
X111744046Y-30118866D01*
X111744046Y-30118866D02*
X111505951Y-30118866D01*
X111505951Y-30118866D02*
X111410713Y-30071247D01*
X110934522Y-30499819D02*
X110934522Y-29833152D01*
X110934522Y-30023628D02*
X110886903Y-29928390D01*
X110886903Y-29928390D02*
X110839284Y-29880771D01*
X110839284Y-29880771D02*
X110744046Y-29833152D01*
X110744046Y-29833152D02*
X110648808Y-29833152D01*
X109886903Y-30499819D02*
X109886903Y-29499819D01*
X109886903Y-30452200D02*
X109982141Y-30499819D01*
X109982141Y-30499819D02*
X110172617Y-30499819D01*
X110172617Y-30499819D02*
X110267855Y-30452200D01*
X110267855Y-30452200D02*
X110315474Y-30404580D01*
X110315474Y-30404580D02*
X110363093Y-30309342D01*
X110363093Y-30309342D02*
X110363093Y-30023628D01*
X110363093Y-30023628D02*
X110315474Y-29928390D01*
X110315474Y-29928390D02*
X110267855Y-29880771D01*
X110267855Y-29880771D02*
X110172617Y-29833152D01*
X110172617Y-29833152D02*
X109982141Y-29833152D01*
X109982141Y-29833152D02*
X109886903Y-29880771D01*
X119077380Y-32109819D02*
X119077380Y-31443152D01*
X119077380Y-31633628D02*
X119029761Y-31538390D01*
X119029761Y-31538390D02*
X118982142Y-31490771D01*
X118982142Y-31490771D02*
X118886904Y-31443152D01*
X118886904Y-31443152D02*
X118791666Y-31443152D01*
X118077380Y-32062200D02*
X118172618Y-32109819D01*
X118172618Y-32109819D02*
X118363094Y-32109819D01*
X118363094Y-32109819D02*
X118458332Y-32062200D01*
X118458332Y-32062200D02*
X118505951Y-31966961D01*
X118505951Y-31966961D02*
X118505951Y-31586009D01*
X118505951Y-31586009D02*
X118458332Y-31490771D01*
X118458332Y-31490771D02*
X118363094Y-31443152D01*
X118363094Y-31443152D02*
X118172618Y-31443152D01*
X118172618Y-31443152D02*
X118077380Y-31490771D01*
X118077380Y-31490771D02*
X118029761Y-31586009D01*
X118029761Y-31586009D02*
X118029761Y-31681247D01*
X118029761Y-31681247D02*
X118505951Y-31776485D01*
X117696427Y-31443152D02*
X117458332Y-32109819D01*
X117458332Y-32109819D02*
X117220237Y-31443152D01*
X116172617Y-31109819D02*
X115553570Y-31109819D01*
X115553570Y-31109819D02*
X115886903Y-31490771D01*
X115886903Y-31490771D02*
X115744046Y-31490771D01*
X115744046Y-31490771D02*
X115648808Y-31538390D01*
X115648808Y-31538390D02*
X115601189Y-31586009D01*
X115601189Y-31586009D02*
X115553570Y-31681247D01*
X115553570Y-31681247D02*
X115553570Y-31919342D01*
X115553570Y-31919342D02*
X115601189Y-32014580D01*
X115601189Y-32014580D02*
X115648808Y-32062200D01*
X115648808Y-32062200D02*
X115744046Y-32109819D01*
X115744046Y-32109819D02*
X116029760Y-32109819D01*
X116029760Y-32109819D02*
X116124998Y-32062200D01*
X116124998Y-32062200D02*
X116172617Y-32014580D01*
X115124998Y-32014580D02*
X115077379Y-32062200D01*
X115077379Y-32062200D02*
X115124998Y-32109819D01*
X115124998Y-32109819D02*
X115172617Y-32062200D01*
X115172617Y-32062200D02*
X115124998Y-32014580D01*
X115124998Y-32014580D02*
X115124998Y-32109819D01*
X114124999Y-32109819D02*
X114696427Y-32109819D01*
X114410713Y-32109819D02*
X114410713Y-31109819D01*
X114410713Y-31109819D02*
X114505951Y-31252676D01*
X114505951Y-31252676D02*
X114601189Y-31347914D01*
X114601189Y-31347914D02*
X114696427Y-31395533D01*
X182991666Y-59794819D02*
X182991666Y-58794819D01*
X182991666Y-58794819D02*
X182753571Y-58794819D01*
X182753571Y-58794819D02*
X182610714Y-58842438D01*
X182610714Y-58842438D02*
X182515476Y-58937676D01*
X182515476Y-58937676D02*
X182467857Y-59032914D01*
X182467857Y-59032914D02*
X182420238Y-59223390D01*
X182420238Y-59223390D02*
X182420238Y-59366247D01*
X182420238Y-59366247D02*
X182467857Y-59556723D01*
X182467857Y-59556723D02*
X182515476Y-59651961D01*
X182515476Y-59651961D02*
X182610714Y-59747200D01*
X182610714Y-59747200D02*
X182753571Y-59794819D01*
X182753571Y-59794819D02*
X182991666Y-59794819D01*
X182039285Y-59509104D02*
X181563095Y-59509104D01*
X182134523Y-59794819D02*
X181801190Y-58794819D01*
X181801190Y-58794819D02*
X181467857Y-59794819D01*
X181134523Y-59794819D02*
X181134523Y-58794819D01*
X181134523Y-58794819D02*
X180563095Y-59794819D01*
X180563095Y-59794819D02*
X180563095Y-58794819D01*
X179563095Y-58842438D02*
X179658333Y-58794819D01*
X179658333Y-58794819D02*
X179801190Y-58794819D01*
X179801190Y-58794819D02*
X179944047Y-58842438D01*
X179944047Y-58842438D02*
X180039285Y-58937676D01*
X180039285Y-58937676D02*
X180086904Y-59032914D01*
X180086904Y-59032914D02*
X180134523Y-59223390D01*
X180134523Y-59223390D02*
X180134523Y-59366247D01*
X180134523Y-59366247D02*
X180086904Y-59556723D01*
X180086904Y-59556723D02*
X180039285Y-59651961D01*
X180039285Y-59651961D02*
X179944047Y-59747200D01*
X179944047Y-59747200D02*
X179801190Y-59794819D01*
X179801190Y-59794819D02*
X179705952Y-59794819D01*
X179705952Y-59794819D02*
X179563095Y-59747200D01*
X179563095Y-59747200D02*
X179515476Y-59699580D01*
X179515476Y-59699580D02*
X179515476Y-59366247D01*
X179515476Y-59366247D02*
X179705952Y-59366247D01*
X179086904Y-59271009D02*
X178753571Y-59271009D01*
X178610714Y-59794819D02*
X179086904Y-59794819D01*
X179086904Y-59794819D02*
X179086904Y-58794819D01*
X179086904Y-58794819D02*
X178610714Y-58794819D01*
X177610714Y-59794819D02*
X177944047Y-59318628D01*
X178182142Y-59794819D02*
X178182142Y-58794819D01*
X178182142Y-58794819D02*
X177801190Y-58794819D01*
X177801190Y-58794819D02*
X177705952Y-58842438D01*
X177705952Y-58842438D02*
X177658333Y-58890057D01*
X177658333Y-58890057D02*
X177610714Y-58985295D01*
X177610714Y-58985295D02*
X177610714Y-59128152D01*
X177610714Y-59128152D02*
X177658333Y-59223390D01*
X177658333Y-59223390D02*
X177705952Y-59271009D01*
X177705952Y-59271009D02*
X177801190Y-59318628D01*
X177801190Y-59318628D02*
X178182142Y-59318628D01*
X182991666Y-61404819D02*
X182991666Y-60404819D01*
X182991666Y-60404819D02*
X182753571Y-60404819D01*
X182753571Y-60404819D02*
X182610714Y-60452438D01*
X182610714Y-60452438D02*
X182515476Y-60547676D01*
X182515476Y-60547676D02*
X182467857Y-60642914D01*
X182467857Y-60642914D02*
X182420238Y-60833390D01*
X182420238Y-60833390D02*
X182420238Y-60976247D01*
X182420238Y-60976247D02*
X182467857Y-61166723D01*
X182467857Y-61166723D02*
X182515476Y-61261961D01*
X182515476Y-61261961D02*
X182610714Y-61357200D01*
X182610714Y-61357200D02*
X182753571Y-61404819D01*
X182753571Y-61404819D02*
X182991666Y-61404819D01*
X182039285Y-61119104D02*
X181563095Y-61119104D01*
X182134523Y-61404819D02*
X181801190Y-60404819D01*
X181801190Y-60404819D02*
X181467857Y-61404819D01*
X181134523Y-61404819D02*
X181134523Y-60404819D01*
X181134523Y-60404819D02*
X180563095Y-61404819D01*
X180563095Y-61404819D02*
X180563095Y-60404819D01*
X179563095Y-60452438D02*
X179658333Y-60404819D01*
X179658333Y-60404819D02*
X179801190Y-60404819D01*
X179801190Y-60404819D02*
X179944047Y-60452438D01*
X179944047Y-60452438D02*
X180039285Y-60547676D01*
X180039285Y-60547676D02*
X180086904Y-60642914D01*
X180086904Y-60642914D02*
X180134523Y-60833390D01*
X180134523Y-60833390D02*
X180134523Y-60976247D01*
X180134523Y-60976247D02*
X180086904Y-61166723D01*
X180086904Y-61166723D02*
X180039285Y-61261961D01*
X180039285Y-61261961D02*
X179944047Y-61357200D01*
X179944047Y-61357200D02*
X179801190Y-61404819D01*
X179801190Y-61404819D02*
X179705952Y-61404819D01*
X179705952Y-61404819D02*
X179563095Y-61357200D01*
X179563095Y-61357200D02*
X179515476Y-61309580D01*
X179515476Y-61309580D02*
X179515476Y-60976247D01*
X179515476Y-60976247D02*
X179705952Y-60976247D01*
X179086904Y-60881009D02*
X178753571Y-60881009D01*
X178610714Y-61404819D02*
X179086904Y-61404819D01*
X179086904Y-61404819D02*
X179086904Y-60404819D01*
X179086904Y-60404819D02*
X178610714Y-60404819D01*
X177610714Y-61404819D02*
X177944047Y-60928628D01*
X178182142Y-61404819D02*
X178182142Y-60404819D01*
X178182142Y-60404819D02*
X177801190Y-60404819D01*
X177801190Y-60404819D02*
X177705952Y-60452438D01*
X177705952Y-60452438D02*
X177658333Y-60500057D01*
X177658333Y-60500057D02*
X177610714Y-60595295D01*
X177610714Y-60595295D02*
X177610714Y-60738152D01*
X177610714Y-60738152D02*
X177658333Y-60833390D01*
X177658333Y-60833390D02*
X177705952Y-60881009D01*
X177705952Y-60881009D02*
X177801190Y-60928628D01*
X177801190Y-60928628D02*
X178182142Y-60928628D01*
X185372618Y-63014819D02*
X185372618Y-62014819D01*
X185372618Y-62491009D02*
X184801190Y-62491009D01*
X184801190Y-63014819D02*
X184801190Y-62014819D01*
X184324999Y-63014819D02*
X184324999Y-62014819D01*
X183325000Y-62062438D02*
X183420238Y-62014819D01*
X183420238Y-62014819D02*
X183563095Y-62014819D01*
X183563095Y-62014819D02*
X183705952Y-62062438D01*
X183705952Y-62062438D02*
X183801190Y-62157676D01*
X183801190Y-62157676D02*
X183848809Y-62252914D01*
X183848809Y-62252914D02*
X183896428Y-62443390D01*
X183896428Y-62443390D02*
X183896428Y-62586247D01*
X183896428Y-62586247D02*
X183848809Y-62776723D01*
X183848809Y-62776723D02*
X183801190Y-62871961D01*
X183801190Y-62871961D02*
X183705952Y-62967200D01*
X183705952Y-62967200D02*
X183563095Y-63014819D01*
X183563095Y-63014819D02*
X183467857Y-63014819D01*
X183467857Y-63014819D02*
X183325000Y-62967200D01*
X183325000Y-62967200D02*
X183277381Y-62919580D01*
X183277381Y-62919580D02*
X183277381Y-62586247D01*
X183277381Y-62586247D02*
X183467857Y-62586247D01*
X182848809Y-63014819D02*
X182848809Y-62014819D01*
X182848809Y-62491009D02*
X182277381Y-62491009D01*
X182277381Y-63014819D02*
X182277381Y-62014819D01*
X181182142Y-62014819D02*
X180848809Y-63014819D01*
X180848809Y-63014819D02*
X180515476Y-62014819D01*
X179991666Y-62014819D02*
X179801190Y-62014819D01*
X179801190Y-62014819D02*
X179705952Y-62062438D01*
X179705952Y-62062438D02*
X179610714Y-62157676D01*
X179610714Y-62157676D02*
X179563095Y-62348152D01*
X179563095Y-62348152D02*
X179563095Y-62681485D01*
X179563095Y-62681485D02*
X179610714Y-62871961D01*
X179610714Y-62871961D02*
X179705952Y-62967200D01*
X179705952Y-62967200D02*
X179801190Y-63014819D01*
X179801190Y-63014819D02*
X179991666Y-63014819D01*
X179991666Y-63014819D02*
X180086904Y-62967200D01*
X180086904Y-62967200D02*
X180182142Y-62871961D01*
X180182142Y-62871961D02*
X180229761Y-62681485D01*
X180229761Y-62681485D02*
X180229761Y-62348152D01*
X180229761Y-62348152D02*
X180182142Y-62157676D01*
X180182142Y-62157676D02*
X180086904Y-62062438D01*
X180086904Y-62062438D02*
X179991666Y-62014819D01*
X178658333Y-63014819D02*
X179134523Y-63014819D01*
X179134523Y-63014819D02*
X179134523Y-62014819D01*
X178467856Y-62014819D02*
X177896428Y-62014819D01*
X178182142Y-63014819D02*
X178182142Y-62014819D01*
X177610713Y-62729104D02*
X177134523Y-62729104D01*
X177705951Y-63014819D02*
X177372618Y-62014819D01*
X177372618Y-62014819D02*
X177039285Y-63014819D01*
X176182142Y-62062438D02*
X176277380Y-62014819D01*
X176277380Y-62014819D02*
X176420237Y-62014819D01*
X176420237Y-62014819D02*
X176563094Y-62062438D01*
X176563094Y-62062438D02*
X176658332Y-62157676D01*
X176658332Y-62157676D02*
X176705951Y-62252914D01*
X176705951Y-62252914D02*
X176753570Y-62443390D01*
X176753570Y-62443390D02*
X176753570Y-62586247D01*
X176753570Y-62586247D02*
X176705951Y-62776723D01*
X176705951Y-62776723D02*
X176658332Y-62871961D01*
X176658332Y-62871961D02*
X176563094Y-62967200D01*
X176563094Y-62967200D02*
X176420237Y-63014819D01*
X176420237Y-63014819D02*
X176324999Y-63014819D01*
X176324999Y-63014819D02*
X176182142Y-62967200D01*
X176182142Y-62967200D02*
X176134523Y-62919580D01*
X176134523Y-62919580D02*
X176134523Y-62586247D01*
X176134523Y-62586247D02*
X176324999Y-62586247D01*
X175705951Y-62491009D02*
X175372618Y-62491009D01*
X175229761Y-63014819D02*
X175705951Y-63014819D01*
X175705951Y-63014819D02*
X175705951Y-62014819D01*
X175705951Y-62014819D02*
X175229761Y-62014819D01*
X119691666Y-59794819D02*
X119691666Y-58794819D01*
X119691666Y-58794819D02*
X119453571Y-58794819D01*
X119453571Y-58794819D02*
X119310714Y-58842438D01*
X119310714Y-58842438D02*
X119215476Y-58937676D01*
X119215476Y-58937676D02*
X119167857Y-59032914D01*
X119167857Y-59032914D02*
X119120238Y-59223390D01*
X119120238Y-59223390D02*
X119120238Y-59366247D01*
X119120238Y-59366247D02*
X119167857Y-59556723D01*
X119167857Y-59556723D02*
X119215476Y-59651961D01*
X119215476Y-59651961D02*
X119310714Y-59747200D01*
X119310714Y-59747200D02*
X119453571Y-59794819D01*
X119453571Y-59794819D02*
X119691666Y-59794819D01*
X118739285Y-59509104D02*
X118263095Y-59509104D01*
X118834523Y-59794819D02*
X118501190Y-58794819D01*
X118501190Y-58794819D02*
X118167857Y-59794819D01*
X117834523Y-59794819D02*
X117834523Y-58794819D01*
X117834523Y-58794819D02*
X117263095Y-59794819D01*
X117263095Y-59794819D02*
X117263095Y-58794819D01*
X116263095Y-58842438D02*
X116358333Y-58794819D01*
X116358333Y-58794819D02*
X116501190Y-58794819D01*
X116501190Y-58794819D02*
X116644047Y-58842438D01*
X116644047Y-58842438D02*
X116739285Y-58937676D01*
X116739285Y-58937676D02*
X116786904Y-59032914D01*
X116786904Y-59032914D02*
X116834523Y-59223390D01*
X116834523Y-59223390D02*
X116834523Y-59366247D01*
X116834523Y-59366247D02*
X116786904Y-59556723D01*
X116786904Y-59556723D02*
X116739285Y-59651961D01*
X116739285Y-59651961D02*
X116644047Y-59747200D01*
X116644047Y-59747200D02*
X116501190Y-59794819D01*
X116501190Y-59794819D02*
X116405952Y-59794819D01*
X116405952Y-59794819D02*
X116263095Y-59747200D01*
X116263095Y-59747200D02*
X116215476Y-59699580D01*
X116215476Y-59699580D02*
X116215476Y-59366247D01*
X116215476Y-59366247D02*
X116405952Y-59366247D01*
X115786904Y-59271009D02*
X115453571Y-59271009D01*
X115310714Y-59794819D02*
X115786904Y-59794819D01*
X115786904Y-59794819D02*
X115786904Y-58794819D01*
X115786904Y-58794819D02*
X115310714Y-58794819D01*
X114310714Y-59794819D02*
X114644047Y-59318628D01*
X114882142Y-59794819D02*
X114882142Y-58794819D01*
X114882142Y-58794819D02*
X114501190Y-58794819D01*
X114501190Y-58794819D02*
X114405952Y-58842438D01*
X114405952Y-58842438D02*
X114358333Y-58890057D01*
X114358333Y-58890057D02*
X114310714Y-58985295D01*
X114310714Y-58985295D02*
X114310714Y-59128152D01*
X114310714Y-59128152D02*
X114358333Y-59223390D01*
X114358333Y-59223390D02*
X114405952Y-59271009D01*
X114405952Y-59271009D02*
X114501190Y-59318628D01*
X114501190Y-59318628D02*
X114882142Y-59318628D01*
X119691666Y-61404819D02*
X119691666Y-60404819D01*
X119691666Y-60404819D02*
X119453571Y-60404819D01*
X119453571Y-60404819D02*
X119310714Y-60452438D01*
X119310714Y-60452438D02*
X119215476Y-60547676D01*
X119215476Y-60547676D02*
X119167857Y-60642914D01*
X119167857Y-60642914D02*
X119120238Y-60833390D01*
X119120238Y-60833390D02*
X119120238Y-60976247D01*
X119120238Y-60976247D02*
X119167857Y-61166723D01*
X119167857Y-61166723D02*
X119215476Y-61261961D01*
X119215476Y-61261961D02*
X119310714Y-61357200D01*
X119310714Y-61357200D02*
X119453571Y-61404819D01*
X119453571Y-61404819D02*
X119691666Y-61404819D01*
X118739285Y-61119104D02*
X118263095Y-61119104D01*
X118834523Y-61404819D02*
X118501190Y-60404819D01*
X118501190Y-60404819D02*
X118167857Y-61404819D01*
X117834523Y-61404819D02*
X117834523Y-60404819D01*
X117834523Y-60404819D02*
X117263095Y-61404819D01*
X117263095Y-61404819D02*
X117263095Y-60404819D01*
X116263095Y-60452438D02*
X116358333Y-60404819D01*
X116358333Y-60404819D02*
X116501190Y-60404819D01*
X116501190Y-60404819D02*
X116644047Y-60452438D01*
X116644047Y-60452438D02*
X116739285Y-60547676D01*
X116739285Y-60547676D02*
X116786904Y-60642914D01*
X116786904Y-60642914D02*
X116834523Y-60833390D01*
X116834523Y-60833390D02*
X116834523Y-60976247D01*
X116834523Y-60976247D02*
X116786904Y-61166723D01*
X116786904Y-61166723D02*
X116739285Y-61261961D01*
X116739285Y-61261961D02*
X116644047Y-61357200D01*
X116644047Y-61357200D02*
X116501190Y-61404819D01*
X116501190Y-61404819D02*
X116405952Y-61404819D01*
X116405952Y-61404819D02*
X116263095Y-61357200D01*
X116263095Y-61357200D02*
X116215476Y-61309580D01*
X116215476Y-61309580D02*
X116215476Y-60976247D01*
X116215476Y-60976247D02*
X116405952Y-60976247D01*
X115786904Y-60881009D02*
X115453571Y-60881009D01*
X115310714Y-61404819D02*
X115786904Y-61404819D01*
X115786904Y-61404819D02*
X115786904Y-60404819D01*
X115786904Y-60404819D02*
X115310714Y-60404819D01*
X114310714Y-61404819D02*
X114644047Y-60928628D01*
X114882142Y-61404819D02*
X114882142Y-60404819D01*
X114882142Y-60404819D02*
X114501190Y-60404819D01*
X114501190Y-60404819D02*
X114405952Y-60452438D01*
X114405952Y-60452438D02*
X114358333Y-60500057D01*
X114358333Y-60500057D02*
X114310714Y-60595295D01*
X114310714Y-60595295D02*
X114310714Y-60738152D01*
X114310714Y-60738152D02*
X114358333Y-60833390D01*
X114358333Y-60833390D02*
X114405952Y-60881009D01*
X114405952Y-60881009D02*
X114501190Y-60928628D01*
X114501190Y-60928628D02*
X114882142Y-60928628D01*
X122072618Y-63014819D02*
X122072618Y-62014819D01*
X122072618Y-62491009D02*
X121501190Y-62491009D01*
X121501190Y-63014819D02*
X121501190Y-62014819D01*
X121024999Y-63014819D02*
X121024999Y-62014819D01*
X120025000Y-62062438D02*
X120120238Y-62014819D01*
X120120238Y-62014819D02*
X120263095Y-62014819D01*
X120263095Y-62014819D02*
X120405952Y-62062438D01*
X120405952Y-62062438D02*
X120501190Y-62157676D01*
X120501190Y-62157676D02*
X120548809Y-62252914D01*
X120548809Y-62252914D02*
X120596428Y-62443390D01*
X120596428Y-62443390D02*
X120596428Y-62586247D01*
X120596428Y-62586247D02*
X120548809Y-62776723D01*
X120548809Y-62776723D02*
X120501190Y-62871961D01*
X120501190Y-62871961D02*
X120405952Y-62967200D01*
X120405952Y-62967200D02*
X120263095Y-63014819D01*
X120263095Y-63014819D02*
X120167857Y-63014819D01*
X120167857Y-63014819D02*
X120025000Y-62967200D01*
X120025000Y-62967200D02*
X119977381Y-62919580D01*
X119977381Y-62919580D02*
X119977381Y-62586247D01*
X119977381Y-62586247D02*
X120167857Y-62586247D01*
X119548809Y-63014819D02*
X119548809Y-62014819D01*
X119548809Y-62491009D02*
X118977381Y-62491009D01*
X118977381Y-63014819D02*
X118977381Y-62014819D01*
X117882142Y-62014819D02*
X117548809Y-63014819D01*
X117548809Y-63014819D02*
X117215476Y-62014819D01*
X116691666Y-62014819D02*
X116501190Y-62014819D01*
X116501190Y-62014819D02*
X116405952Y-62062438D01*
X116405952Y-62062438D02*
X116310714Y-62157676D01*
X116310714Y-62157676D02*
X116263095Y-62348152D01*
X116263095Y-62348152D02*
X116263095Y-62681485D01*
X116263095Y-62681485D02*
X116310714Y-62871961D01*
X116310714Y-62871961D02*
X116405952Y-62967200D01*
X116405952Y-62967200D02*
X116501190Y-63014819D01*
X116501190Y-63014819D02*
X116691666Y-63014819D01*
X116691666Y-63014819D02*
X116786904Y-62967200D01*
X116786904Y-62967200D02*
X116882142Y-62871961D01*
X116882142Y-62871961D02*
X116929761Y-62681485D01*
X116929761Y-62681485D02*
X116929761Y-62348152D01*
X116929761Y-62348152D02*
X116882142Y-62157676D01*
X116882142Y-62157676D02*
X116786904Y-62062438D01*
X116786904Y-62062438D02*
X116691666Y-62014819D01*
X115358333Y-63014819D02*
X115834523Y-63014819D01*
X115834523Y-63014819D02*
X115834523Y-62014819D01*
X115167856Y-62014819D02*
X114596428Y-62014819D01*
X114882142Y-63014819D02*
X114882142Y-62014819D01*
X114310713Y-62729104D02*
X113834523Y-62729104D01*
X114405951Y-63014819D02*
X114072618Y-62014819D01*
X114072618Y-62014819D02*
X113739285Y-63014819D01*
X112882142Y-62062438D02*
X112977380Y-62014819D01*
X112977380Y-62014819D02*
X113120237Y-62014819D01*
X113120237Y-62014819D02*
X113263094Y-62062438D01*
X113263094Y-62062438D02*
X113358332Y-62157676D01*
X113358332Y-62157676D02*
X113405951Y-62252914D01*
X113405951Y-62252914D02*
X113453570Y-62443390D01*
X113453570Y-62443390D02*
X113453570Y-62586247D01*
X113453570Y-62586247D02*
X113405951Y-62776723D01*
X113405951Y-62776723D02*
X113358332Y-62871961D01*
X113358332Y-62871961D02*
X113263094Y-62967200D01*
X113263094Y-62967200D02*
X113120237Y-63014819D01*
X113120237Y-63014819D02*
X113024999Y-63014819D01*
X113024999Y-63014819D02*
X112882142Y-62967200D01*
X112882142Y-62967200D02*
X112834523Y-62919580D01*
X112834523Y-62919580D02*
X112834523Y-62586247D01*
X112834523Y-62586247D02*
X113024999Y-62586247D01*
X112405951Y-62491009D02*
X112072618Y-62491009D01*
X111929761Y-63014819D02*
X112405951Y-63014819D01*
X112405951Y-63014819D02*
X112405951Y-62014819D01*
X112405951Y-62014819D02*
X111929761Y-62014819D01*
M02*
