%TF.GenerationSoftware,KiCad,Pcbnew,7.0.5*%
%TF.CreationDate,2023-07-03T18:09:16+02:00*%
%TF.ProjectId,actuator_panel,61637475-6174-46f7-925f-70616e656c2e,rev?*%
%TF.SameCoordinates,Original*%
%TF.FileFunction,Paste,Top*%
%TF.FilePolarity,Positive*%
%FSLAX46Y46*%
G04 Gerber Fmt 4.6, Leading zero omitted, Abs format (unit mm)*
G04 Created by KiCad (PCBNEW 7.0.5) date 2023-07-03 18:09:16*
%MOMM*%
%LPD*%
G01*
G04 APERTURE LIST*
G04 Aperture macros list*
%AMRoundRect*
0 Rectangle with rounded corners*
0 $1 Rounding radius*
0 $2 $3 $4 $5 $6 $7 $8 $9 X,Y pos of 4 corners*
0 Add a 4 corners polygon primitive as box body*
4,1,4,$2,$3,$4,$5,$6,$7,$8,$9,$2,$3,0*
0 Add four circle primitives for the rounded corners*
1,1,$1+$1,$2,$3*
1,1,$1+$1,$4,$5*
1,1,$1+$1,$6,$7*
1,1,$1+$1,$8,$9*
0 Add four rect primitives between the rounded corners*
20,1,$1+$1,$2,$3,$4,$5,0*
20,1,$1+$1,$4,$5,$6,$7,0*
20,1,$1+$1,$6,$7,$8,$9,0*
20,1,$1+$1,$8,$9,$2,$3,0*%
%AMFreePoly0*
4,1,57,0.170010,0.379889,0.174629,0.380220,0.177101,0.378870,0.183556,0.377942,0.210425,0.360674,0.238454,0.345370,0.345370,0.238454,0.359181,0.220003,0.362682,0.216970,0.363476,0.214266,0.367383,0.209048,0.374171,0.177841,0.383170,0.147196,0.383170,-0.147196,0.379889,-0.170010,0.380220,-0.174629,0.378870,-0.177101,0.377942,-0.183556,0.360674,-0.210425,0.345370,-0.238454,
0.238454,-0.345370,0.220003,-0.359181,0.216970,-0.362682,0.214266,-0.363476,0.209048,-0.367383,0.177841,-0.374171,0.147196,-0.383170,-0.147196,-0.383170,-0.170010,-0.379889,-0.174629,-0.380220,-0.177101,-0.378870,-0.183556,-0.377942,-0.210425,-0.360674,-0.238454,-0.345370,-0.345370,-0.238454,-0.359181,-0.220003,-0.362682,-0.216970,-0.363476,-0.214266,-0.367383,-0.209048,-0.374171,-0.177841,
-0.383170,-0.147196,-0.383170,0.147196,-0.379889,0.170010,-0.380220,0.174629,-0.378870,0.177101,-0.377942,0.183556,-0.360674,0.210425,-0.345370,0.238454,-0.238454,0.345370,-0.220003,0.359181,-0.216970,0.362682,-0.214266,0.363476,-0.209048,0.367383,-0.177841,0.374171,-0.147196,0.383170,0.147196,0.383170,0.170010,0.379889,0.170010,0.379889,$1*%
G04 Aperture macros list end*
%ADD10RoundRect,0.250000X-1.450000X0.250000X-1.450000X-0.250000X1.450000X-0.250000X1.450000X0.250000X0*%
%ADD11RoundRect,0.225000X0.250000X-0.225000X0.250000X0.225000X-0.250000X0.225000X-0.250000X-0.225000X0*%
%ADD12RoundRect,0.200000X-0.200000X-0.275000X0.200000X-0.275000X0.200000X0.275000X-0.200000X0.275000X0*%
%ADD13RoundRect,0.225000X-0.225000X-0.250000X0.225000X-0.250000X0.225000X0.250000X-0.225000X0.250000X0*%
%ADD14RoundRect,0.100000X0.100000X0.300000X-0.100000X0.300000X-0.100000X-0.300000X0.100000X-0.300000X0*%
%ADD15RoundRect,0.025000X0.075000X0.325000X-0.075000X0.325000X-0.075000X-0.325000X0.075000X-0.325000X0*%
%ADD16RoundRect,0.075000X0.125000X0.375000X-0.125000X0.375000X-0.125000X-0.375000X0.125000X-0.375000X0*%
%ADD17RoundRect,0.195000X0.300000X-0.300000X0.300000X0.300000X-0.300000X0.300000X-0.300000X-0.300000X0*%
%ADD18RoundRect,0.250000X-0.475000X0.250000X-0.475000X-0.250000X0.475000X-0.250000X0.475000X0.250000X0*%
%ADD19FreePoly0,45.000000*%
%ADD20RoundRect,0.062500X-0.220971X-0.309359X0.309359X0.220971X0.220971X0.309359X-0.309359X-0.220971X0*%
%ADD21RoundRect,0.062500X0.220971X-0.309359X0.309359X-0.220971X-0.220971X0.309359X-0.309359X0.220971X0*%
%ADD22RoundRect,0.200000X0.275000X-0.200000X0.275000X0.200000X-0.275000X0.200000X-0.275000X-0.200000X0*%
%ADD23RoundRect,0.225000X0.225000X0.250000X-0.225000X0.250000X-0.225000X-0.250000X0.225000X-0.250000X0*%
%ADD24RoundRect,0.250000X-0.315000X-0.315000X0.315000X-0.315000X0.315000X0.315000X-0.315000X0.315000X0*%
%ADD25RoundRect,0.062500X-0.350000X-0.062500X0.350000X-0.062500X0.350000X0.062500X-0.350000X0.062500X0*%
%ADD26RoundRect,0.062500X-0.062500X-0.350000X0.062500X-0.350000X0.062500X0.350000X-0.062500X0.350000X0*%
%ADD27C,2.510000*%
%ADD28RoundRect,0.200000X-0.275000X0.200000X-0.275000X-0.200000X0.275000X-0.200000X0.275000X0.200000X0*%
%ADD29FreePoly0,135.000000*%
%ADD30RoundRect,0.062500X0.309359X-0.220971X-0.220971X0.309359X-0.309359X0.220971X0.220971X-0.309359X0*%
%ADD31RoundRect,0.062500X0.309359X0.220971X0.220971X0.309359X-0.309359X-0.220971X-0.220971X-0.309359X0*%
G04 APERTURE END LIST*
D10*
%TO.C,L1*%
X118075000Y-48800000D03*
X118075000Y-50900000D03*
%TD*%
D11*
%TO.C,C3*%
X147425000Y-41375000D03*
X147425000Y-39825000D03*
%TD*%
D12*
%TO.C,R3*%
X152850000Y-43300000D03*
X154500000Y-43300000D03*
%TD*%
D11*
%TO.C,C7*%
X154525000Y-39925000D03*
X154525000Y-38375000D03*
%TD*%
D13*
%TO.C,C8*%
X180700000Y-52900000D03*
X182250000Y-52900000D03*
%TD*%
D14*
%TO.C,J1*%
X150675000Y-32700000D03*
X150175000Y-32700000D03*
X149675000Y-32700000D03*
X149175000Y-32700000D03*
X148675000Y-32700000D03*
X148175000Y-32700000D03*
X147675000Y-32700000D03*
X147175000Y-32700000D03*
X146675000Y-32700000D03*
X146175000Y-32700000D03*
X145675000Y-32700000D03*
X145175000Y-32700000D03*
D15*
X145175000Y-32700000D03*
X145675000Y-32700000D03*
X146175000Y-32700000D03*
X146675000Y-32700000D03*
X147175000Y-32700000D03*
X147675000Y-32700000D03*
X148175000Y-32700000D03*
X148675000Y-32700000D03*
X149175000Y-32700000D03*
X149675000Y-32700000D03*
X150175000Y-32700000D03*
D16*
X151675000Y-30200000D03*
X144175000Y-30200000D03*
%TD*%
D12*
%TO.C,R1*%
X143800000Y-46300000D03*
X145450000Y-46300000D03*
%TD*%
%TO.C,R1*%
X112150000Y-46300000D03*
X113800000Y-46300000D03*
%TD*%
%TO.C,R2*%
X112150000Y-44700000D03*
X113800000Y-44700000D03*
%TD*%
%TO.C,R2*%
X143800000Y-44700000D03*
X145450000Y-44700000D03*
%TD*%
%TO.C,R3*%
X121200000Y-43300000D03*
X122850000Y-43300000D03*
%TD*%
D10*
%TO.C,L1*%
X181375000Y-48800000D03*
X181375000Y-50900000D03*
%TD*%
D17*
%TO.C,D1*%
X148525000Y-63500000D03*
X148525000Y-60700000D03*
%TD*%
D12*
%TO.C,R2*%
X175450000Y-44700000D03*
X177100000Y-44700000D03*
%TD*%
D11*
%TO.C,C6*%
X121275000Y-39925000D03*
X121275000Y-38375000D03*
%TD*%
D10*
%TO.C,L1*%
X149725000Y-48800000D03*
X149725000Y-50900000D03*
%TD*%
D11*
%TO.C,C5*%
X178275000Y-50575000D03*
X178275000Y-49025000D03*
%TD*%
D18*
%TO.C,C4*%
X153225000Y-46450000D03*
X153225000Y-48350000D03*
%TD*%
D14*
%TO.C,J1*%
X182325000Y-32700000D03*
X181825000Y-32700000D03*
X181325000Y-32700000D03*
X180825000Y-32700000D03*
X180325000Y-32700000D03*
X179825000Y-32700000D03*
X179325000Y-32700000D03*
X178825000Y-32700000D03*
X178325000Y-32700000D03*
X177825000Y-32700000D03*
X177325000Y-32700000D03*
X176825000Y-32700000D03*
D15*
X176825000Y-32700000D03*
X177325000Y-32700000D03*
X177825000Y-32700000D03*
X178325000Y-32700000D03*
X178825000Y-32700000D03*
X179325000Y-32700000D03*
X179825000Y-32700000D03*
X180325000Y-32700000D03*
X180825000Y-32700000D03*
X181325000Y-32700000D03*
X181825000Y-32700000D03*
D16*
X183325000Y-30200000D03*
X175825000Y-30200000D03*
%TD*%
D17*
%TO.C,D1*%
X180175000Y-63500000D03*
X180175000Y-60700000D03*
%TD*%
D19*
%TO.C,U1*%
X173049348Y-61100000D03*
X173662174Y-61712826D03*
X174275000Y-62325652D03*
X173662174Y-60487174D03*
X174275000Y-61100000D03*
X174887826Y-61712826D03*
X174275000Y-59874348D03*
X174887826Y-60487174D03*
X175500652Y-61100000D03*
D20*
X171313990Y-61586136D03*
X171667544Y-61939689D03*
X172021097Y-62293243D03*
X172374651Y-62646796D03*
X172728204Y-63000349D03*
X173081757Y-63353903D03*
X173435311Y-63707456D03*
X173788864Y-64061010D03*
D21*
X174761136Y-64061010D03*
X175114689Y-63707456D03*
X175468243Y-63353903D03*
X175821796Y-63000349D03*
X176175349Y-62646796D03*
X176528903Y-62293243D03*
X176882456Y-61939689D03*
X177236010Y-61586136D03*
D20*
X177236010Y-60613864D03*
X176882456Y-60260311D03*
X176528903Y-59906757D03*
X176175349Y-59553204D03*
X175821796Y-59199651D03*
X175468243Y-58846097D03*
X175114689Y-58492544D03*
X174761136Y-58138990D03*
D21*
X173788864Y-58138990D03*
X173435311Y-58492544D03*
X173081757Y-58846097D03*
X172728204Y-59199651D03*
X172374651Y-59553204D03*
X172021097Y-59906757D03*
X171667544Y-60260311D03*
X171313990Y-60613864D03*
%TD*%
D22*
%TO.C,R5*%
X119175000Y-38425000D03*
X119175000Y-36775000D03*
%TD*%
D23*
%TO.C,C1*%
X113750000Y-42900000D03*
X112200000Y-42900000D03*
%TD*%
D11*
%TO.C,C7*%
X186175000Y-39925000D03*
X186175000Y-38375000D03*
%TD*%
D24*
%TO.C,U3*%
X148550000Y-44525000D03*
X148550000Y-45875000D03*
X149900000Y-44525000D03*
X149900000Y-45875000D03*
D25*
X147262500Y-44200000D03*
X147262500Y-44700000D03*
X147262500Y-45200000D03*
X147262500Y-45700000D03*
X147262500Y-46200000D03*
D26*
X148225000Y-47162500D03*
X148725000Y-47162500D03*
X149225000Y-47162500D03*
X149725000Y-47162500D03*
X150225000Y-47162500D03*
D25*
X151187500Y-46200000D03*
X151187500Y-45700000D03*
X151187500Y-45200000D03*
X151187500Y-44700000D03*
X151187500Y-44200000D03*
D26*
X150225000Y-43237500D03*
X149725000Y-43237500D03*
X149225000Y-43237500D03*
X148725000Y-43237500D03*
X148225000Y-43237500D03*
%TD*%
D27*
%TO.C,REF\u002A\u002A*%
X183525000Y-122500000D03*
%TD*%
D23*
%TO.C,C1*%
X177050000Y-42900000D03*
X175500000Y-42900000D03*
%TD*%
D11*
%TO.C,C2*%
X177375000Y-41375000D03*
X177375000Y-39825000D03*
%TD*%
D17*
%TO.C,D1*%
X116875000Y-63500000D03*
X116875000Y-60700000D03*
%TD*%
D11*
%TO.C,C7*%
X122875000Y-39925000D03*
X122875000Y-38375000D03*
%TD*%
D28*
%TO.C,R4*%
X149225000Y-36775000D03*
X149225000Y-38425000D03*
%TD*%
D13*
%TO.C,C8*%
X117400000Y-52900000D03*
X118950000Y-52900000D03*
%TD*%
D19*
%TO.C,U1*%
X109749348Y-61100000D03*
X110362174Y-61712826D03*
X110975000Y-62325652D03*
X110362174Y-60487174D03*
X110975000Y-61100000D03*
X111587826Y-61712826D03*
X110975000Y-59874348D03*
X111587826Y-60487174D03*
X112200652Y-61100000D03*
D20*
X108013990Y-61586136D03*
X108367544Y-61939689D03*
X108721097Y-62293243D03*
X109074651Y-62646796D03*
X109428204Y-63000349D03*
X109781757Y-63353903D03*
X110135311Y-63707456D03*
X110488864Y-64061010D03*
D21*
X111461136Y-64061010D03*
X111814689Y-63707456D03*
X112168243Y-63353903D03*
X112521796Y-63000349D03*
X112875349Y-62646796D03*
X113228903Y-62293243D03*
X113582456Y-61939689D03*
X113936010Y-61586136D03*
D20*
X113936010Y-60613864D03*
X113582456Y-60260311D03*
X113228903Y-59906757D03*
X112875349Y-59553204D03*
X112521796Y-59199651D03*
X112168243Y-58846097D03*
X111814689Y-58492544D03*
X111461136Y-58138990D03*
D21*
X110488864Y-58138990D03*
X110135311Y-58492544D03*
X109781757Y-58846097D03*
X109428204Y-59199651D03*
X109074651Y-59553204D03*
X108721097Y-59906757D03*
X108367544Y-60260311D03*
X108013990Y-60613864D03*
%TD*%
D28*
%TO.C,R4*%
X117575000Y-36775000D03*
X117575000Y-38425000D03*
%TD*%
D18*
%TO.C,C4*%
X121575000Y-46450000D03*
X121575000Y-48350000D03*
%TD*%
D11*
%TO.C,C5*%
X146625000Y-50575000D03*
X146625000Y-49025000D03*
%TD*%
D19*
%TO.C,U1*%
X141399348Y-61100000D03*
X142012174Y-61712826D03*
X142625000Y-62325652D03*
X142012174Y-60487174D03*
X142625000Y-61100000D03*
X143237826Y-61712826D03*
X142625000Y-59874348D03*
X143237826Y-60487174D03*
X143850652Y-61100000D03*
D20*
X139663990Y-61586136D03*
X140017544Y-61939689D03*
X140371097Y-62293243D03*
X140724651Y-62646796D03*
X141078204Y-63000349D03*
X141431757Y-63353903D03*
X141785311Y-63707456D03*
X142138864Y-64061010D03*
D21*
X143111136Y-64061010D03*
X143464689Y-63707456D03*
X143818243Y-63353903D03*
X144171796Y-63000349D03*
X144525349Y-62646796D03*
X144878903Y-62293243D03*
X145232456Y-61939689D03*
X145586010Y-61586136D03*
D20*
X145586010Y-60613864D03*
X145232456Y-60260311D03*
X144878903Y-59906757D03*
X144525349Y-59553204D03*
X144171796Y-59199651D03*
X143818243Y-58846097D03*
X143464689Y-58492544D03*
X143111136Y-58138990D03*
D21*
X142138864Y-58138990D03*
X141785311Y-58492544D03*
X141431757Y-58846097D03*
X141078204Y-59199651D03*
X140724651Y-59553204D03*
X140371097Y-59906757D03*
X140017544Y-60260311D03*
X139663990Y-60613864D03*
%TD*%
D11*
%TO.C,C3*%
X179075000Y-41375000D03*
X179075000Y-39825000D03*
%TD*%
D22*
%TO.C,R5*%
X150825000Y-38425000D03*
X150825000Y-36775000D03*
%TD*%
D11*
%TO.C,C3*%
X115775000Y-41375000D03*
X115775000Y-39825000D03*
%TD*%
D28*
%TO.C,R4*%
X180875000Y-36775000D03*
X180875000Y-38425000D03*
%TD*%
D27*
%TO.C,REF\u002A\u002A*%
X103525000Y-122500000D03*
%TD*%
D18*
%TO.C,C4*%
X184875000Y-46450000D03*
X184875000Y-48350000D03*
%TD*%
D22*
%TO.C,R5*%
X182475000Y-38425000D03*
X182475000Y-36775000D03*
%TD*%
D11*
%TO.C,C5*%
X114975000Y-50575000D03*
X114975000Y-49025000D03*
%TD*%
D13*
%TO.C,C8*%
X149050000Y-52900000D03*
X150600000Y-52900000D03*
%TD*%
D23*
%TO.C,C1*%
X145400000Y-42900000D03*
X143850000Y-42900000D03*
%TD*%
D12*
%TO.C,R1*%
X175450000Y-46300000D03*
X177100000Y-46300000D03*
%TD*%
D29*
%TO.C,U2*%
X154225000Y-62325652D03*
X154837826Y-61712826D03*
X155450652Y-61100000D03*
X153612174Y-61712826D03*
X154225000Y-61100000D03*
X154837826Y-60487174D03*
X152999348Y-61100000D03*
X153612174Y-60487174D03*
X154225000Y-59874348D03*
D30*
X154711136Y-64061010D03*
X155064689Y-63707456D03*
X155418243Y-63353903D03*
X155771796Y-63000349D03*
X156125349Y-62646796D03*
X156478903Y-62293243D03*
X156832456Y-61939689D03*
X157186010Y-61586136D03*
D31*
X157186010Y-60613864D03*
X156832456Y-60260311D03*
X156478903Y-59906757D03*
X156125349Y-59553204D03*
X155771796Y-59199651D03*
X155418243Y-58846097D03*
X155064689Y-58492544D03*
X154711136Y-58138990D03*
D30*
X153738864Y-58138990D03*
X153385311Y-58492544D03*
X153031757Y-58846097D03*
X152678204Y-59199651D03*
X152324651Y-59553204D03*
X151971097Y-59906757D03*
X151617544Y-60260311D03*
X151263990Y-60613864D03*
D31*
X151263990Y-61586136D03*
X151617544Y-61939689D03*
X151971097Y-62293243D03*
X152324651Y-62646796D03*
X152678204Y-63000349D03*
X153031757Y-63353903D03*
X153385311Y-63707456D03*
X153738864Y-64061010D03*
%TD*%
D11*
%TO.C,C6*%
X184575000Y-39925000D03*
X184575000Y-38375000D03*
%TD*%
%TO.C,C2*%
X145725000Y-41375000D03*
X145725000Y-39825000D03*
%TD*%
%TO.C,C6*%
X152925000Y-39925000D03*
X152925000Y-38375000D03*
%TD*%
D29*
%TO.C,U2*%
X185875000Y-62325652D03*
X186487826Y-61712826D03*
X187100652Y-61100000D03*
X185262174Y-61712826D03*
X185875000Y-61100000D03*
X186487826Y-60487174D03*
X184649348Y-61100000D03*
X185262174Y-60487174D03*
X185875000Y-59874348D03*
D30*
X186361136Y-64061010D03*
X186714689Y-63707456D03*
X187068243Y-63353903D03*
X187421796Y-63000349D03*
X187775349Y-62646796D03*
X188128903Y-62293243D03*
X188482456Y-61939689D03*
X188836010Y-61586136D03*
D31*
X188836010Y-60613864D03*
X188482456Y-60260311D03*
X188128903Y-59906757D03*
X187775349Y-59553204D03*
X187421796Y-59199651D03*
X187068243Y-58846097D03*
X186714689Y-58492544D03*
X186361136Y-58138990D03*
D30*
X185388864Y-58138990D03*
X185035311Y-58492544D03*
X184681757Y-58846097D03*
X184328204Y-59199651D03*
X183974651Y-59553204D03*
X183621097Y-59906757D03*
X183267544Y-60260311D03*
X182913990Y-60613864D03*
D31*
X182913990Y-61586136D03*
X183267544Y-61939689D03*
X183621097Y-62293243D03*
X183974651Y-62646796D03*
X184328204Y-63000349D03*
X184681757Y-63353903D03*
X185035311Y-63707456D03*
X185388864Y-64061010D03*
%TD*%
D24*
%TO.C,U3*%
X180200000Y-44525000D03*
X180200000Y-45875000D03*
X181550000Y-44525000D03*
X181550000Y-45875000D03*
D25*
X178912500Y-44200000D03*
X178912500Y-44700000D03*
X178912500Y-45200000D03*
X178912500Y-45700000D03*
X178912500Y-46200000D03*
D26*
X179875000Y-47162500D03*
X180375000Y-47162500D03*
X180875000Y-47162500D03*
X181375000Y-47162500D03*
X181875000Y-47162500D03*
D25*
X182837500Y-46200000D03*
X182837500Y-45700000D03*
X182837500Y-45200000D03*
X182837500Y-44700000D03*
X182837500Y-44200000D03*
D26*
X181875000Y-43237500D03*
X181375000Y-43237500D03*
X180875000Y-43237500D03*
X180375000Y-43237500D03*
X179875000Y-43237500D03*
%TD*%
D12*
%TO.C,R3*%
X184500000Y-43300000D03*
X186150000Y-43300000D03*
%TD*%
D24*
%TO.C,U3*%
X116900000Y-44525000D03*
X116900000Y-45875000D03*
X118250000Y-44525000D03*
X118250000Y-45875000D03*
D25*
X115612500Y-44200000D03*
X115612500Y-44700000D03*
X115612500Y-45200000D03*
X115612500Y-45700000D03*
X115612500Y-46200000D03*
D26*
X116575000Y-47162500D03*
X117075000Y-47162500D03*
X117575000Y-47162500D03*
X118075000Y-47162500D03*
X118575000Y-47162500D03*
D25*
X119537500Y-46200000D03*
X119537500Y-45700000D03*
X119537500Y-45200000D03*
X119537500Y-44700000D03*
X119537500Y-44200000D03*
D26*
X118575000Y-43237500D03*
X118075000Y-43237500D03*
X117575000Y-43237500D03*
X117075000Y-43237500D03*
X116575000Y-43237500D03*
%TD*%
D29*
%TO.C,U2*%
X122575000Y-62325652D03*
X123187826Y-61712826D03*
X123800652Y-61100000D03*
X121962174Y-61712826D03*
X122575000Y-61100000D03*
X123187826Y-60487174D03*
X121349348Y-61100000D03*
X121962174Y-60487174D03*
X122575000Y-59874348D03*
D30*
X123061136Y-64061010D03*
X123414689Y-63707456D03*
X123768243Y-63353903D03*
X124121796Y-63000349D03*
X124475349Y-62646796D03*
X124828903Y-62293243D03*
X125182456Y-61939689D03*
X125536010Y-61586136D03*
D31*
X125536010Y-60613864D03*
X125182456Y-60260311D03*
X124828903Y-59906757D03*
X124475349Y-59553204D03*
X124121796Y-59199651D03*
X123768243Y-58846097D03*
X123414689Y-58492544D03*
X123061136Y-58138990D03*
D30*
X122088864Y-58138990D03*
X121735311Y-58492544D03*
X121381757Y-58846097D03*
X121028204Y-59199651D03*
X120674651Y-59553204D03*
X120321097Y-59906757D03*
X119967544Y-60260311D03*
X119613990Y-60613864D03*
D31*
X119613990Y-61586136D03*
X119967544Y-61939689D03*
X120321097Y-62293243D03*
X120674651Y-62646796D03*
X121028204Y-63000349D03*
X121381757Y-63353903D03*
X121735311Y-63707456D03*
X122088864Y-64061010D03*
%TD*%
D14*
%TO.C,J1*%
X119025000Y-32700000D03*
X118525000Y-32700000D03*
X118025000Y-32700000D03*
X117525000Y-32700000D03*
X117025000Y-32700000D03*
X116525000Y-32700000D03*
X116025000Y-32700000D03*
X115525000Y-32700000D03*
X115025000Y-32700000D03*
X114525000Y-32700000D03*
X114025000Y-32700000D03*
X113525000Y-32700000D03*
D15*
X113525000Y-32700000D03*
X114025000Y-32700000D03*
X114525000Y-32700000D03*
X115025000Y-32700000D03*
X115525000Y-32700000D03*
X116025000Y-32700000D03*
X116525000Y-32700000D03*
X117025000Y-32700000D03*
X117525000Y-32700000D03*
X118025000Y-32700000D03*
X118525000Y-32700000D03*
D16*
X120025000Y-30200000D03*
X112525000Y-30200000D03*
%TD*%
D11*
%TO.C,C2*%
X114075000Y-41375000D03*
X114075000Y-39825000D03*
%TD*%
M02*
