G04 #@! TF.GenerationSoftware,KiCad,Pcbnew,7.0.5*
G04 #@! TF.CreationDate,2023-08-02T13:23:26+02:00*
G04 #@! TF.ProjectId,stencil,7374656e-6369-46c2-9e6b-696361645f70,rev?*
G04 #@! TF.SameCoordinates,Original*
G04 #@! TF.FileFunction,Glue,Top*
G04 #@! TF.FilePolarity,Positive*
%FSLAX46Y46*%
G04 Gerber Fmt 4.6, Leading zero omitted, Abs format (unit mm)*
G04 Created by KiCad (PCBNEW 7.0.5) date 2023-08-02 13:23:26*
%MOMM*%
%LPD*%
G01*
G04 APERTURE LIST*
G04 Aperture macros list*
%AMRoundRect*
0 Rectangle with rounded corners*
0 $1 Rounding radius*
0 $2 $3 $4 $5 $6 $7 $8 $9 X,Y pos of 4 corners*
0 Add a 4 corners polygon primitive as box body*
4,1,4,$2,$3,$4,$5,$6,$7,$8,$9,$2,$3,0*
0 Add four circle primitives for the rounded corners*
1,1,$1+$1,$2,$3*
1,1,$1+$1,$4,$5*
1,1,$1+$1,$6,$7*
1,1,$1+$1,$8,$9*
0 Add four rect primitives between the rounded corners*
20,1,$1+$1,$2,$3,$4,$5,0*
20,1,$1+$1,$4,$5,$6,$7,0*
20,1,$1+$1,$6,$7,$8,$9,0*
20,1,$1+$1,$8,$9,$2,$3,0*%
G04 Aperture macros list end*
%ADD10C,0.100000*%
%ADD11RoundRect,0.150000X-0.150000X-2.200000X0.150000X-2.200000X0.150000X2.200000X-0.150000X2.200000X0*%
%ADD12C,2.510000*%
G04 APERTURE END LIST*
D10*
X53180000Y-29100000D02*
X51220000Y-29100000D01*
X51220000Y-25700000D01*
X53180000Y-25700000D01*
X53180000Y-29100000D01*
X51050000Y-13500000D02*
X42750000Y-13500000D01*
X42750000Y-7800000D01*
X51050000Y-7800000D01*
X51050000Y-13500000D01*
X50800000Y-31750000D02*
X46600000Y-31750000D01*
X46600000Y-27950000D01*
X50800000Y-27950000D01*
X50800000Y-31750000D01*
X80580000Y-19080000D02*
X79120000Y-19080000D01*
X79120000Y-16120000D01*
X80580000Y-16120000D01*
X80580000Y-19080000D01*
X82180000Y-19080000D02*
X80720000Y-19080000D01*
X80720000Y-16120000D01*
X82180000Y-16120000D01*
X82180000Y-19080000D01*
X84280000Y-20630000D02*
X82820000Y-20630000D01*
X82820000Y-17670000D01*
X84280000Y-17670000D01*
X84280000Y-20630000D01*
X77080000Y-22080000D02*
X75620000Y-22080000D01*
X75620000Y-19120000D01*
X77080000Y-19120000D01*
X77080000Y-22080000D01*
X76730000Y-23630000D02*
X73770000Y-23630000D01*
X73770000Y-22170000D01*
X76730000Y-22170000D01*
X76730000Y-23630000D01*
X50530000Y-19080000D02*
X49070000Y-19080000D01*
X49070000Y-16120000D01*
X50530000Y-16120000D01*
X50530000Y-19080000D01*
X18630000Y-33630000D02*
X15670000Y-33630000D01*
X15670000Y-32170000D01*
X18630000Y-32170000D01*
X18630000Y-33630000D01*
X48930000Y-19080000D02*
X47470000Y-19080000D01*
X47470000Y-16120000D01*
X48930000Y-16120000D01*
X48930000Y-19080000D01*
X77662346Y-41100000D02*
X73250000Y-45512346D01*
X68837654Y-41100000D01*
X73250000Y-36687654D01*
X77662346Y-41100000D01*
X80300000Y-44300000D02*
X78000000Y-44300000D01*
X78000000Y-39900000D01*
X80300000Y-39900000D01*
X80300000Y-44300000D01*
X50820000Y-27820000D02*
X45580000Y-27820000D01*
X45580000Y-22580000D01*
X50820000Y-22580000D01*
X50820000Y-27820000D01*
X57612346Y-41100000D02*
X53200000Y-45512346D01*
X48787654Y-41100000D01*
X53200000Y-36687654D01*
X57612346Y-41100000D01*
X81930000Y-33630000D02*
X78970000Y-33630000D01*
X78970000Y-32170000D01*
X81930000Y-32170000D01*
X81930000Y-33630000D01*
X19150000Y-31750000D02*
X14950000Y-31750000D01*
X14950000Y-27950000D01*
X19150000Y-27950000D01*
X19150000Y-31750000D01*
X82700000Y-13500000D02*
X74400000Y-13500000D01*
X74400000Y-7800000D01*
X82700000Y-7800000D01*
X82700000Y-13500000D01*
X47130000Y-22080000D02*
X45670000Y-22080000D01*
X45670000Y-19120000D01*
X47130000Y-19120000D01*
X47130000Y-22080000D01*
X85880000Y-20630000D02*
X84420000Y-20630000D01*
X84420000Y-17670000D01*
X85880000Y-17670000D01*
X85880000Y-20630000D01*
X17000000Y-44300000D02*
X14700000Y-44300000D01*
X14700000Y-39900000D01*
X17000000Y-39900000D01*
X17000000Y-44300000D01*
X20980000Y-20630000D02*
X19520000Y-20630000D01*
X19520000Y-17670000D01*
X20980000Y-17670000D01*
X20980000Y-20630000D01*
X46012346Y-41100000D02*
X41600000Y-45512346D01*
X37187654Y-41100000D01*
X41600000Y-36687654D01*
X46012346Y-41100000D01*
X46330000Y-31280000D02*
X44870000Y-31280000D01*
X44870000Y-28320000D01*
X46330000Y-28320000D01*
X46330000Y-31280000D01*
X18880000Y-19080000D02*
X17420000Y-19080000D01*
X17420000Y-16120000D01*
X18880000Y-16120000D01*
X18880000Y-19080000D01*
X13430000Y-27030000D02*
X10470000Y-27030000D01*
X10470000Y-25570000D01*
X13430000Y-25570000D01*
X13430000Y-27030000D01*
X54130000Y-24030000D02*
X51170000Y-24030000D01*
X51170000Y-22570000D01*
X54130000Y-22570000D01*
X54130000Y-24030000D01*
X25962346Y-41100000D02*
X21550000Y-45512346D01*
X17137654Y-41100000D01*
X21550000Y-36687654D01*
X25962346Y-41100000D01*
X21530000Y-29100000D02*
X19570000Y-29100000D01*
X19570000Y-25700000D01*
X21530000Y-25700000D01*
X21530000Y-29100000D01*
X15480000Y-22080000D02*
X14020000Y-22080000D01*
X14020000Y-19120000D01*
X15480000Y-19120000D01*
X15480000Y-22080000D01*
X77980000Y-31280000D02*
X76520000Y-31280000D01*
X76520000Y-28320000D01*
X77980000Y-28320000D01*
X77980000Y-31280000D01*
X45080000Y-27030000D02*
X42120000Y-27030000D01*
X42120000Y-25570000D01*
X45080000Y-25570000D01*
X45080000Y-27030000D01*
X50280000Y-33630000D02*
X47320000Y-33630000D01*
X47320000Y-32170000D01*
X50280000Y-32170000D01*
X50280000Y-33630000D01*
X13780000Y-22080000D02*
X12320000Y-22080000D01*
X12320000Y-19120000D01*
X13780000Y-19120000D01*
X13780000Y-22080000D01*
X19400000Y-13500000D02*
X11100000Y-13500000D01*
X11100000Y-7800000D01*
X19400000Y-7800000D01*
X19400000Y-13500000D01*
X14680000Y-31280000D02*
X13220000Y-31280000D01*
X13220000Y-28320000D01*
X14680000Y-28320000D01*
X14680000Y-31280000D01*
X22480000Y-24030000D02*
X19520000Y-24030000D01*
X19520000Y-22570000D01*
X22480000Y-22570000D01*
X22480000Y-24030000D01*
X45430000Y-22080000D02*
X43970000Y-22080000D01*
X43970000Y-19120000D01*
X45430000Y-19120000D01*
X45430000Y-22080000D01*
X14362346Y-41100000D02*
X9950000Y-45512346D01*
X5537654Y-41100000D01*
X9950000Y-36687654D01*
X14362346Y-41100000D01*
X48650000Y-44300000D02*
X46350000Y-44300000D01*
X46350000Y-39900000D01*
X48650000Y-39900000D01*
X48650000Y-44300000D01*
X84830000Y-29100000D02*
X82870000Y-29100000D01*
X82870000Y-25700000D01*
X84830000Y-25700000D01*
X84830000Y-29100000D01*
X22580000Y-20630000D02*
X21120000Y-20630000D01*
X21120000Y-17670000D01*
X22580000Y-17670000D01*
X22580000Y-20630000D01*
X13430000Y-23630000D02*
X10470000Y-23630000D01*
X10470000Y-22170000D01*
X13430000Y-22170000D01*
X13430000Y-23630000D01*
X85780000Y-24030000D02*
X82820000Y-24030000D01*
X82820000Y-22570000D01*
X85780000Y-22570000D01*
X85780000Y-24030000D01*
X78780000Y-22080000D02*
X77320000Y-22080000D01*
X77320000Y-19120000D01*
X78780000Y-19120000D01*
X78780000Y-22080000D01*
X13430000Y-25430000D02*
X10470000Y-25430000D01*
X10470000Y-23970000D01*
X13430000Y-23970000D01*
X13430000Y-25430000D01*
X89262346Y-41100000D02*
X84850000Y-45512346D01*
X80437654Y-41100000D01*
X84850000Y-36687654D01*
X89262346Y-41100000D01*
X45080000Y-23630000D02*
X42120000Y-23630000D01*
X42120000Y-22170000D01*
X45080000Y-22170000D01*
X45080000Y-23630000D01*
X82450000Y-31750000D02*
X78250000Y-31750000D01*
X78250000Y-27950000D01*
X82450000Y-27950000D01*
X82450000Y-31750000D01*
X82470000Y-27820000D02*
X77230000Y-27820000D01*
X77230000Y-22580000D01*
X82470000Y-22580000D01*
X82470000Y-27820000D01*
X76730000Y-25430000D02*
X73770000Y-25430000D01*
X73770000Y-23970000D01*
X76730000Y-23970000D01*
X76730000Y-25430000D01*
X52630000Y-20630000D02*
X51170000Y-20630000D01*
X51170000Y-17670000D01*
X52630000Y-17670000D01*
X52630000Y-20630000D01*
X17280000Y-19080000D02*
X15820000Y-19080000D01*
X15820000Y-16120000D01*
X17280000Y-16120000D01*
X17280000Y-19080000D01*
X19170000Y-27820000D02*
X13930000Y-27820000D01*
X13930000Y-22580000D01*
X19170000Y-22580000D01*
X19170000Y-27820000D01*
X54230000Y-20630000D02*
X52770000Y-20630000D01*
X52770000Y-17670000D01*
X54230000Y-17670000D01*
X54230000Y-20630000D01*
X76730000Y-27030000D02*
X73770000Y-27030000D01*
X73770000Y-25570000D01*
X76730000Y-25570000D01*
X76730000Y-27030000D01*
X45080000Y-25430000D02*
X42120000Y-25430000D01*
X42120000Y-23970000D01*
X45080000Y-23970000D01*
X45080000Y-25430000D01*
D11*
G04 #@! TO.C,piezo1*
X69590000Y-59650000D03*
X70590000Y-59650000D03*
X71590000Y-59650000D03*
X72590000Y-59650000D03*
X73590000Y-59650000D03*
X74590000Y-59650000D03*
X75590000Y-59650000D03*
X76590000Y-59650000D03*
X77590000Y-59650000D03*
X78590000Y-59650000D03*
X79590000Y-59650000D03*
X80590000Y-59650000D03*
X81590000Y-59650000D03*
X82590000Y-59650000D03*
X83590000Y-59650000D03*
X84590000Y-59650000D03*
X85590000Y-59650000D03*
X86590000Y-59650000D03*
X87590000Y-59650000D03*
X88590000Y-59650000D03*
G04 #@! TD*
G04 #@! TO.C,piezo1*
X6290000Y-59650000D03*
X7290000Y-59650000D03*
X8290000Y-59650000D03*
X9290000Y-59650000D03*
X10290000Y-59650000D03*
X11290000Y-59650000D03*
X12290000Y-59650000D03*
X13290000Y-59650000D03*
X14290000Y-59650000D03*
X15290000Y-59650000D03*
X16290000Y-59650000D03*
X17290000Y-59650000D03*
X18290000Y-59650000D03*
X19290000Y-59650000D03*
X20290000Y-59650000D03*
X21290000Y-59650000D03*
X22290000Y-59650000D03*
X23290000Y-59650000D03*
X24290000Y-59650000D03*
X25290000Y-59650000D03*
G04 #@! TD*
G04 #@! TO.C,piezo1*
X37940000Y-59650000D03*
X38940000Y-59650000D03*
X39940000Y-59650000D03*
X40940000Y-59650000D03*
X41940000Y-59650000D03*
X42940000Y-59650000D03*
X43940000Y-59650000D03*
X44940000Y-59650000D03*
X45940000Y-59650000D03*
X46940000Y-59650000D03*
X47940000Y-59650000D03*
X48940000Y-59650000D03*
X49940000Y-59650000D03*
X50940000Y-59650000D03*
X51940000Y-59650000D03*
X52940000Y-59650000D03*
X53940000Y-59650000D03*
X54940000Y-59650000D03*
X55940000Y-59650000D03*
X56940000Y-59650000D03*
G04 #@! TD*
D12*
G04 #@! TO.C,REF\u002A\u002A*
X82500000Y-102500000D03*
G04 #@! TD*
G04 #@! TO.C,REF\u002A\u002A*
X2500000Y-102500000D03*
G04 #@! TD*
M02*
