%TF.GenerationSoftware,KiCad,Pcbnew,7.0.5*%
%TF.CreationDate,2023-07-03T17:52:36+02:00*%
%TF.ProjectId,stencil,7374656e-6369-46c2-9e6b-696361645f70,rev?*%
%TF.SameCoordinates,Original*%
%TF.FileFunction,Glue,Top*%
%TF.FilePolarity,Positive*%
%FSLAX46Y46*%
G04 Gerber Fmt 4.6, Leading zero omitted, Abs format (unit mm)*
G04 Created by KiCad (PCBNEW 7.0.5) date 2023-07-03 17:52:36*
%MOMM*%
%LPD*%
G01*
G04 APERTURE LIST*
G04 Aperture macros list*
%AMRoundRect*
0 Rectangle with rounded corners*
0 $1 Rounding radius*
0 $2 $3 $4 $5 $6 $7 $8 $9 X,Y pos of 4 corners*
0 Add a 4 corners polygon primitive as box body*
4,1,4,$2,$3,$4,$5,$6,$7,$8,$9,$2,$3,0*
0 Add four circle primitives for the rounded corners*
1,1,$1+$1,$2,$3*
1,1,$1+$1,$4,$5*
1,1,$1+$1,$6,$7*
1,1,$1+$1,$8,$9*
0 Add four rect primitives between the rounded corners*
20,1,$1+$1,$2,$3,$4,$5,0*
20,1,$1+$1,$4,$5,$6,$7,0*
20,1,$1+$1,$6,$7,$8,$9,0*
20,1,$1+$1,$8,$9,$2,$3,0*%
G04 Aperture macros list end*
%ADD10C,0.100000*%
%ADD11RoundRect,0.150000X-0.150000X-1.600000X0.150000X-1.600000X0.150000X1.600000X-0.150000X1.600000X0*%
%ADD12C,2.510000*%
G04 APERTURE END LIST*
D10*
X118305000Y-39080000D02*
X116845000Y-39080000D01*
X116845000Y-36120000D01*
X118305000Y-36120000D01*
X118305000Y-39080000D01*
X126987346Y-61100000D02*
X122575000Y-65512346D01*
X118162654Y-61100000D01*
X122575000Y-56687654D01*
X126987346Y-61100000D01*
X155155000Y-44030000D02*
X152195000Y-44030000D01*
X152195000Y-42570000D01*
X155155000Y-42570000D01*
X155155000Y-44030000D01*
X186805000Y-44030000D02*
X183845000Y-44030000D01*
X183845000Y-42570000D01*
X186805000Y-42570000D01*
X186805000Y-44030000D01*
X148155000Y-42080000D02*
X146695000Y-42080000D01*
X146695000Y-39120000D01*
X148155000Y-39120000D01*
X148155000Y-42080000D01*
X177755000Y-43630000D02*
X174795000Y-43630000D01*
X174795000Y-42170000D01*
X177755000Y-42170000D01*
X177755000Y-43630000D01*
X177755000Y-47030000D02*
X174795000Y-47030000D01*
X174795000Y-45570000D01*
X177755000Y-45570000D01*
X177755000Y-47030000D01*
X119655000Y-53630000D02*
X116695000Y-53630000D01*
X116695000Y-52170000D01*
X119655000Y-52170000D01*
X119655000Y-53630000D01*
X120175000Y-51750000D02*
X115975000Y-51750000D01*
X115975000Y-47950000D01*
X120175000Y-47950000D01*
X120175000Y-51750000D01*
X123505000Y-44030000D02*
X120545000Y-44030000D01*
X120545000Y-42570000D01*
X123505000Y-42570000D01*
X123505000Y-44030000D01*
X147037346Y-61100000D02*
X142625000Y-65512346D01*
X138212654Y-61100000D01*
X142625000Y-56687654D01*
X147037346Y-61100000D01*
X181325000Y-64300000D02*
X179025000Y-64300000D01*
X179025000Y-59900000D01*
X181325000Y-59900000D01*
X181325000Y-64300000D01*
X183205000Y-39080000D02*
X181745000Y-39080000D01*
X181745000Y-36120000D01*
X183205000Y-36120000D01*
X183205000Y-39080000D01*
X151555000Y-39080000D02*
X150095000Y-39080000D01*
X150095000Y-36120000D01*
X151555000Y-36120000D01*
X151555000Y-39080000D01*
X179805000Y-42080000D02*
X178345000Y-42080000D01*
X178345000Y-39120000D01*
X179805000Y-39120000D01*
X179805000Y-42080000D01*
X151825000Y-51750000D02*
X147625000Y-51750000D01*
X147625000Y-47950000D01*
X151825000Y-47950000D01*
X151825000Y-51750000D01*
X178687346Y-61100000D02*
X174275000Y-65512346D01*
X169862654Y-61100000D01*
X174275000Y-56687654D01*
X178687346Y-61100000D01*
X123605000Y-40630000D02*
X122145000Y-40630000D01*
X122145000Y-37670000D01*
X123605000Y-37670000D01*
X123605000Y-40630000D01*
X147355000Y-51280000D02*
X145895000Y-51280000D01*
X145895000Y-48320000D01*
X147355000Y-48320000D01*
X147355000Y-51280000D01*
X182955000Y-53630000D02*
X179995000Y-53630000D01*
X179995000Y-52170000D01*
X182955000Y-52170000D01*
X182955000Y-53630000D01*
X122005000Y-40630000D02*
X120545000Y-40630000D01*
X120545000Y-37670000D01*
X122005000Y-37670000D01*
X122005000Y-40630000D01*
X179005000Y-51280000D02*
X177545000Y-51280000D01*
X177545000Y-48320000D01*
X179005000Y-48320000D01*
X179005000Y-51280000D01*
X149675000Y-64300000D02*
X147375000Y-64300000D01*
X147375000Y-59900000D01*
X149675000Y-59900000D01*
X149675000Y-64300000D01*
X153655000Y-40630000D02*
X152195000Y-40630000D01*
X152195000Y-37670000D01*
X153655000Y-37670000D01*
X153655000Y-40630000D01*
X183495000Y-47820000D02*
X178255000Y-47820000D01*
X178255000Y-42580000D01*
X183495000Y-42580000D01*
X183495000Y-47820000D01*
X146105000Y-45430000D02*
X143145000Y-45430000D01*
X143145000Y-43970000D01*
X146105000Y-43970000D01*
X146105000Y-45430000D01*
X186905000Y-40630000D02*
X185445000Y-40630000D01*
X185445000Y-37670000D01*
X186905000Y-37670000D01*
X186905000Y-40630000D01*
X146455000Y-42080000D02*
X144995000Y-42080000D01*
X144995000Y-39120000D01*
X146455000Y-39120000D01*
X146455000Y-42080000D01*
X177755000Y-45430000D02*
X174795000Y-45430000D01*
X174795000Y-43970000D01*
X177755000Y-43970000D01*
X177755000Y-45430000D01*
X122555000Y-49100000D02*
X120595000Y-49100000D01*
X120595000Y-45700000D01*
X122555000Y-45700000D01*
X122555000Y-49100000D01*
X178105000Y-42080000D02*
X176645000Y-42080000D01*
X176645000Y-39120000D01*
X178105000Y-39120000D01*
X178105000Y-42080000D01*
X114455000Y-45430000D02*
X111495000Y-45430000D01*
X111495000Y-43970000D01*
X114455000Y-43970000D01*
X114455000Y-45430000D01*
X120425000Y-33500000D02*
X112125000Y-33500000D01*
X112125000Y-27800000D01*
X120425000Y-27800000D01*
X120425000Y-33500000D01*
X185855000Y-49100000D02*
X183895000Y-49100000D01*
X183895000Y-45700000D01*
X185855000Y-45700000D01*
X185855000Y-49100000D01*
X183475000Y-51750000D02*
X179275000Y-51750000D01*
X179275000Y-47950000D01*
X183475000Y-47950000D01*
X183475000Y-51750000D01*
X146105000Y-43630000D02*
X143145000Y-43630000D01*
X143145000Y-42170000D01*
X146105000Y-42170000D01*
X146105000Y-43630000D01*
X114455000Y-43630000D02*
X111495000Y-43630000D01*
X111495000Y-42170000D01*
X114455000Y-42170000D01*
X114455000Y-43630000D01*
X154205000Y-49100000D02*
X152245000Y-49100000D01*
X152245000Y-45700000D01*
X154205000Y-45700000D01*
X154205000Y-49100000D01*
X119905000Y-39080000D02*
X118445000Y-39080000D01*
X118445000Y-36120000D01*
X119905000Y-36120000D01*
X119905000Y-39080000D01*
X190287346Y-61100000D02*
X185875000Y-65512346D01*
X181462654Y-61100000D01*
X185875000Y-56687654D01*
X190287346Y-61100000D01*
X152075000Y-33500000D02*
X143775000Y-33500000D01*
X143775000Y-27800000D01*
X152075000Y-27800000D01*
X152075000Y-33500000D01*
X151845000Y-47820000D02*
X146605000Y-47820000D01*
X146605000Y-42580000D01*
X151845000Y-42580000D01*
X151845000Y-47820000D01*
X146105000Y-47030000D02*
X143145000Y-47030000D01*
X143145000Y-45570000D01*
X146105000Y-45570000D01*
X146105000Y-47030000D01*
X183725000Y-33500000D02*
X175425000Y-33500000D01*
X175425000Y-27800000D01*
X183725000Y-27800000D01*
X183725000Y-33500000D01*
X181605000Y-39080000D02*
X180145000Y-39080000D01*
X180145000Y-36120000D01*
X181605000Y-36120000D01*
X181605000Y-39080000D01*
X155255000Y-40630000D02*
X153795000Y-40630000D01*
X153795000Y-37670000D01*
X155255000Y-37670000D01*
X155255000Y-40630000D01*
X149955000Y-39080000D02*
X148495000Y-39080000D01*
X148495000Y-36120000D01*
X149955000Y-36120000D01*
X149955000Y-39080000D01*
X120195000Y-47820000D02*
X114955000Y-47820000D01*
X114955000Y-42580000D01*
X120195000Y-42580000D01*
X120195000Y-47820000D01*
X115387346Y-61100000D02*
X110975000Y-65512346D01*
X106562654Y-61100000D01*
X110975000Y-56687654D01*
X115387346Y-61100000D01*
X151305000Y-53630000D02*
X148345000Y-53630000D01*
X148345000Y-52170000D01*
X151305000Y-52170000D01*
X151305000Y-53630000D01*
X87500000Y-11600000D02*
X210500000Y-11600000D01*
X210500000Y-133600000D01*
X87500000Y-133600000D01*
X87500000Y-11600000D01*
X116505000Y-42080000D02*
X115045000Y-42080000D01*
X115045000Y-39120000D01*
X116505000Y-39120000D01*
X116505000Y-42080000D01*
X158637346Y-61100000D02*
X154225000Y-65512346D01*
X149812654Y-61100000D01*
X154225000Y-56687654D01*
X158637346Y-61100000D01*
X114455000Y-47030000D02*
X111495000Y-47030000D01*
X111495000Y-45570000D01*
X114455000Y-45570000D01*
X114455000Y-47030000D01*
X118025000Y-64300000D02*
X115725000Y-64300000D01*
X115725000Y-59900000D01*
X118025000Y-59900000D01*
X118025000Y-64300000D01*
X185305000Y-40630000D02*
X183845000Y-40630000D01*
X183845000Y-37670000D01*
X185305000Y-37670000D01*
X185305000Y-40630000D01*
X114805000Y-42080000D02*
X113345000Y-42080000D01*
X113345000Y-39120000D01*
X114805000Y-39120000D01*
X114805000Y-42080000D01*
X115705000Y-51280000D02*
X114245000Y-51280000D01*
X114245000Y-48320000D01*
X115705000Y-48320000D01*
X115705000Y-51280000D01*
D11*
%TO.C,piezo1*%
X107315000Y-79650000D03*
X108315000Y-79650000D03*
X109315000Y-79650000D03*
X110315000Y-79650000D03*
X111315000Y-79650000D03*
X112315000Y-79650000D03*
X113315000Y-79650000D03*
X114315000Y-79650000D03*
X115315000Y-79650000D03*
X116315000Y-79650000D03*
X117315000Y-79650000D03*
X118315000Y-79650000D03*
X119315000Y-79650000D03*
X120315000Y-79650000D03*
X121315000Y-79650000D03*
X122315000Y-79650000D03*
X123315000Y-79650000D03*
X124315000Y-79650000D03*
X125315000Y-79650000D03*
X126315000Y-79650000D03*
%TD*%
D12*
%TO.C,REF\u002A\u002A*%
X183525000Y-122500000D03*
%TD*%
D11*
%TO.C,piezo1*%
X138965000Y-79650000D03*
X139965000Y-79650000D03*
X140965000Y-79650000D03*
X141965000Y-79650000D03*
X142965000Y-79650000D03*
X143965000Y-79650000D03*
X144965000Y-79650000D03*
X145965000Y-79650000D03*
X146965000Y-79650000D03*
X147965000Y-79650000D03*
X148965000Y-79650000D03*
X149965000Y-79650000D03*
X150965000Y-79650000D03*
X151965000Y-79650000D03*
X152965000Y-79650000D03*
X153965000Y-79650000D03*
X154965000Y-79650000D03*
X155965000Y-79650000D03*
X156965000Y-79650000D03*
X157965000Y-79650000D03*
%TD*%
%TO.C,piezo1*%
X170615000Y-79650000D03*
X171615000Y-79650000D03*
X172615000Y-79650000D03*
X173615000Y-79650000D03*
X174615000Y-79650000D03*
X175615000Y-79650000D03*
X176615000Y-79650000D03*
X177615000Y-79650000D03*
X178615000Y-79650000D03*
X179615000Y-79650000D03*
X180615000Y-79650000D03*
X181615000Y-79650000D03*
X182615000Y-79650000D03*
X183615000Y-79650000D03*
X184615000Y-79650000D03*
X185615000Y-79650000D03*
X186615000Y-79650000D03*
X187615000Y-79650000D03*
X188615000Y-79650000D03*
X189615000Y-79650000D03*
%TD*%
D12*
%TO.C,REF\u002A\u002A*%
X103525000Y-122500000D03*
%TD*%
M02*
